<svg xmlns="http://www.w3.org/2000/svg" viewBox="0 0 708.66 708.66"><title>Fichier 2</title><path d="M698.66,10V698.66H10V10H698.66m10-10H0V708.66H708.66V0Z" fill="#fff"/><path d="M228.28,261.63v31.46c0,9.11-2.07,19.26-4.56,22.78s-15.93,17.18-20.29,19.47S184,343.82,172,334.7c0,0-4.76-5.57-5.8-7s-1.23-4.34-2.27-5.8-2.07-4.14-5-2.9-5.39,3.32-6.21,4.77.62,7.66,5.17,11.8,27.33,21.32,47.83,8.49a102.58,102.58,0,0,0,18.63-15.95A48.33,48.33,0,0,0,237,300.35c.42-3.46,1.87-17.4,2.28-21.34s.41-16.56.41-18.41c0-.77-.59-5.07-1.86-6.84s-8.28-3.31-9.52,4.56Z" fill="#fff"/><path d="M255,291.45c2.06-2.08,18.63-9.95,25.68-9.53s19.86,1,22.76,4.34,7.46,7.87,10.15,12.22,5.8,16.36,7.46,19.67,7.24,16.35-2.9,14.49c0,0-4.36-3.1-5.6-5s-2.27-1.66-3.3-4.14-1.87-9.73-1.87-9.73.2-6.21-1.87-8.07a23.68,23.68,0,0,1-4.14-4.76c-.62-1.05-1.65-5.8-2.68-7.25s-2.49-2.49-7.26-3.73-18.63-2.07-26.29,2.9c0,0-7.24,6.83-10.14,7.25s-3.52-2.49-3.31-4.77.41-2.07,1.45-2.9-.21,1,1.86-1" fill="#fff"/><path d="M299.71,294.55c-3.72-.21-20.7,1.7-24.22,2.9-9.11,3.1-15.12,9.52-16.78,11.18s-16.35,17.38,1.86,23.19c0,0,7.25,3.1,21.75.21,6.72-1.35,12.83-5.6,16.77-7.25a87.94,87.94,0,0,1,11-3.32L307.57,313a68.3,68.3,0,0,0-8.07,3.93c-4.35,2.49-10.77,6.21-15.73,7.88-4,1.32-8.28,1.23-11.18,1.45s-13.06.26-8.92-8.29c3.53-7.24,9.12-10.55,17.4-13.87,7.14-2.86,11.59-3.52,14.08-3.73a42.48,42.48,0,0,1,5.38,0s2.9-5.59-.82-5.79" fill="#fff"/><path d="M335.32,281.92c2.48-.21,6-1.14,7.45,2.69,1.24,3.31,3.32,9.73,3.32,9.73s5.79-5.18,8.48-6.62,7.46-1.87,9.32-2.7,7.24-3.72,9.94-2.69,3.94,3.73,2.06,5.8-2.69,5-5.58,5.59-3.72,0-7.67.21-7,1-9.72,3.1-3.94,3.32-3.73,7.46,0,13.45,0,16.35-.21,7.86-1.87,9.11-4.35,2.69-6.2.83-.42-3.73-.62-5.79.41-8.92-.42-12.85-2.28-7.65-3.52-9.31-1.24-5.8-2.28-7.65-2.06-4.36-2.89-5.81-2.28-3.94-.63-5.39,2.08-1.86,4.56-2.06" fill="#fff"/><path d="M435.32,290.82a65.12,65.12,0,0,0-16.15-2.07c-5.8,0-18.23,1.87-21.12,3.93S385.21,301.8,382.32,308s-.42,18.64,8.07,20.29,15.94,1.87,21.32-.82,12.63-3.94,15.74-5.8,7.66-3.52,9.93-4.56,2.49-14.28,2.49-14.28-.61,2.27-3.93,5-12.42,8.07-18.84,9.93-10.77,3.94-16,2.69-5.8-.41-8.27-3.52-6.07-8.29.62-13c6.42-4.55,8.9-5.17,14.29-6.41s12.83-2.08,17-1,8.69.83,10.77,2.28a32.9,32.9,0,0,0,6.21,2.9s-3.11-9.74-6.42-10.77" fill="#fff"/><path d="M433.87,273a78.4,78.4,0,0,1,1.45,13.25,21.82,21.82,0,0,0,.41,5.4s.83,7.23,1.45,10.14-.42,14.07-.42,14.07.42-.21,1.87,3.1.42,6,1.86,8.5,2.49,6.83,6.22,3.51,3.1-2.48,2.06-6.84-1.65-12.41-2.69-18.82-1.86-24.85-1.86-28.58-.61-10.35-.83-13-1.24-11-2.08-13.25-6.2-10.36-10.14-5.59-3.31,3.31-2.27,4.76,2.27,1.86,2.9,6.83,2.07,16.35,2.07,16.35-.83-4.55,0,.21" fill="#fff"/><path d="M469.06,263.49c2.69,1.87,3.32,3.11,5,4.56s4.15,3.73,3.52,4.55-.82,3.52-2.89,3.52-2.91.62-5.6-.41-3.93-.41-4.34-3.32-.63-3.31.2-4.34,1.46-6.42,4.14-4.56" fill="#fff"/><path d="M471.14,290.82c-1.66,1-2.49,1.86-5,3.73s-2.7,2.69-2.27,8.28-.21,14.7,0,17.18,1.23,6.21,3.51,8.28,5,2.91,5.8.41.62-3.09.41-7.45a45.15,45.15,0,0,1,.62-11c.62-3.11,0-5.59.42-7.87a32.62,32.62,0,0,1,1.45-6.21c.82-2.27-3.32-6.42-5-5.38" fill="#fff"/><path d="M487.08,293.51c.62,2.48,2.49,6,2.28,13.66s-.83,18.44.61,22.16,3.41,6.32,7.66,3.73c4.77-2.9,3.52-5,3.52-8.7s-1-15.73-1-17.39-1.24-2.48,4.76-5.8a27.72,27.72,0,0,1,15.73-3.31c4.45.2,14.29,4.55,17.4,9.94s8.28,13.66,8.91,17.81a89,89,0,0,0,2.68,11.59c.84,2.68,7.25,11.59,7.46,1.86,0,0-3.73-22.57-7.67-28.36S538,292.45,531,290.4c-8.49-2.48-19.25-.41-23.4,1.45a64.73,64.73,0,0,1-8.89,3.11,7.94,7.94,0,0,0-3.74-3.94c-2.69-1.24-3.51-1-5-.62s-3.52.62-2.89,3.11" fill="#fff"/><path d="M112.65,367.27c1.25,6.58,5.76,30.48,5.9,34.61s-1,7.7-.43,12.44,1.93,8.63,2.52,13.8-1.69,5.44,1,10.32,5.26,8.74,8.15,8.64,2.48-.29,2.61-2.57-.42-13-.57-17.79-2.76-14.83-3.33-19.58-1.78-16.5-1.87-19.4-1.1-14.68-1.79-16.93-1.79-10.3-3.9-11.68-3.23-3.42-5.63-1.06-5.1,2.24-3.56,5.3,2,3,2,3-2.27-5.74-1,.86" fill="#fff"/><path d="M122.87,407.53c-4.57-.47-17.67-1.9-21.79-1.15-2.92.53-7,1.05-10.5,2s-11.07,4.09-13.93,4.8c-3.91.95-11.3,9.27-12.65,12.42s-3.62,16.07,5,20.14,14.42,4.1,21,2.43,15.12-6.3,18.78-8.69,12.6-7.46,13.79-9,3.62-9.43,3.62-9.43-7.55-3.28-7.72-1.82.47,1.64-.5,3.74-7.6,8.12-13.72,11.22S91.89,442.51,85,441.29s-9-2.62-10.35-6.09-2.23-11.11,2.43-14.58,10.16-6.13,15.11-6.9,9.25-1.77,13.86-.46,8.36,2.21,10,2.78,6.9,1.85,6.9,1.85,4.44-9.87-.13-10.36" fill="#fff"/><path d="M168.53,373.52a36.78,36.78,0,0,1-5,8.69c-1.87,2.28-7.25,9.94,1.24,6.22s9.1-6.22,12.21-9.12,3.52-8.07,3.31-8.9a4.51,4.51,0,0,0-.41-1.24c-.4-1-.61-2.06-3.73-2.06s-6,1-6.83,2.48.21,1.24-.83,3.93" fill="#fff"/><path d="M226,362.55c-1.78,2.54-8.9,13.13-11.8,19.44s-7,21.14-7.7,24.28-3.35,18.13,6.55,29.82,16,13.15,27.83,14.63a31.91,31.91,0,0,0,24.43-6.79c4-3.25,4.61-4.51,7.27-5.84s1.82-1.09,2.28.55c1.37,4.79,2.34,8.21,4.9,10.21s7.1,1.63,7.86-.27.74-9.13.32-15.75-2.28-12.77-2.45-18.14.9-16.82.94-22,.07-10.36.59-13.27-1.3-8.25,1.12-10.6,3.23-3,3.76-5.52-2.31-7.38-4.62-8.13-2.91-.31-6.1,3.31-6.56,2.29-7.05,12.67,0,20.08-.54,28-.62,12.65-1.5,17.87-1.56,9.37-5.81,12.4-5.38,6.4-15.48,7.76-12.57,2.26-15.71.92-7.33-2-12.06-7.69-7.23-12-6.6-18.22,0-13.25,3.09-19.36,3-9,6.81-13.48,6.39-7.46,8.8-9.82,2.24-1.1,2.76-4.43.49-3.95-1.66-6.58-1-4.11-4.44-2.54-4,4.06-5.79,6.6" fill="#fff"/><path d="M306.65,364.07c.34,4.13,1.08,20.27.59,24.64s-.18,20.08.18,24.65,2.66,17.92,4.41,21.18,4.82,7.93,9.45,10.06,7.66,6.16,10.83,1.92,3.16-4.87-1.06-7.21-9.88-4.45-11.06-8.76-1.61-5.13-2.82-16.69.28-23.41.64-31.51-.72-9.3-.4-12,1.73-16.84-4.24-15.81.19-.42.19-.42-5.22-1.29-6.36,1.86-.69,4-.35,8.09" fill="#fff"/><path d="M343.09,402.05c3.46-2.18,3.88-1.79,7.27.38,4.64,3,6.71,9.1,8.76,14.64s7.39,10.74,9.54,13.14-.4.23-.4.23,1.5,2,5.11-1.83,5-6.17,5.85-11.38,1.4-7.71.91-10.18-1.83-5.53-1.9-7.6,6.36-8.28,10.06-2.6c0,0,3.36,7.56,2.25,11.73s-1.75,8.33-3.46,14.4c-4.1,14.44-14.52,25.13-18.35,28.57s-17.28,9.88-24.5,10.94-19,3.11-21.46,2.57-.82.23-.82.23-5.77-5.4.4-6.84,5.34-1.22,14-3.16S348.05,452.42,354,450s9-4.23,11.35-7.19,2.17-3.6,2.17-3.6A14.62,14.62,0,0,1,362,435c-2.16-2.84-3.48-5.27-6.72-9.11s-6.46-7.65-8.4-10.08a22.09,22.09,0,0,0-4.92-4.82c-1.7-1.18-3.07-5.28-1.48-7s-.82.24,2.63-1.94" fill="#fff"/><path d="M443.71,400c1.71,1.81,4.83,1.91,6.92,3.08s6.73,2.9,9.14.54,1.86-6.48-.48-8.47-5.29-3.16-14.2-3.48-17-.08-20.85,2.33-16.88,9.46-6.13,21.54c0,0,2.88,5.69,13.87,6s17.24,1.71,19,6.43,1.39,4.5-4.9,8.44-17,6.35-24.93,4.33-7.93-2-10.78-6.9-3.41-9-7.13-9.09-12.36,2.26-8.42,9,1.44,6.17,9.69,11.28,12.59,4.77,22.54,5.07,19.45-.42,24.92-4.12,8.91-6.71,11.18-13.2-.45-14.08-9.67-17.3-13.71-1-19.94-1.84-14.45-4.5-7-10.33S442,398.21,443.71,400" fill="#fff"/><path d="M523,397.44c1.72,1.81,4.82,1.92,6.93,3.1s6.73,2.88,9.14.53,1.85-6.48-.49-8.48-5.27-3.14-14.2-3.48-17-.07-20.84,2.33-16.88,9.47-6.14,21.54c0,0,2.88,5.71,13.87,6s17.25,1.7,19.06,6.41,1.38,4.51-4.91,8.44-17,6.36-24.92,4.34-7.94-2-10.8-6.91-3.39-9-7.12-9.09-12.36,2.27-8.41,9,1.44,6.17,9.69,11.28,12.58,4.77,22.54,5.07,19.46-.42,24.93-4.12,8.89-6.71,11.17-13.2-.46-14.08-9.68-17.31-13.7-1-19.95-1.83-14.44-4.5-7-10.34,15.38-5.06,17.09-3.25" fill="#fff"/><path d="M626.15,374a8.82,8.82,0,1,1,9.14,8.79,8.79,8.79,0,0,1-9.14-8.79m9.2,10.6A10.86,10.86,0,1,0,624,374.07a10.84,10.84,0,0,0,11.39,10.52m-2.63-9.95,2.18-.07,3.48,5.32,2.13-.07-3.74-5.4c1.83-.28,3.21-1.31,3.14-3.55-.09-2.47-1.59-3.52-4.55-3.42l-4.76.15.4,12.54,1.89-.07Zm-.05-1.61-.13-3.87,2.59-.1c1.32,0,2.73.21,2.79,1.76.06,1.93-1.37,2.08-3,2.14Z" fill="#fff"/><path d="M608.41,426.36c-2.88,6.11-9.24,8.8-12.88,11.61s-9,3-18.91,4.35c-12.11,1.65-11.14-5-11.14-5s4.93-1.2,8-2.12,9-3.6,13.9-5.83,8.3-6.07,11.08-9.9,4-10.27,3-15.22-5-6.67-11.62-7.08-9.09.72-15.42,3.41-8.88,7.54-15.7,14.18-6.87,12-6.87,12c-5,16.74,11.53,23.45,11.53,23.45,19,5.59,25.7.4,32.7-1.69S606.88,443,612.32,438A79.52,79.52,0,0,0,622.11,427C625.49,409.86,612.29,418.15,608.41,426.36Zm-43.47-5.51c1.67-2.29,3-3.9,3-3.9,4.53-5.67,12.1-11.2,17.68-11.8s9.38-1.66,7.22,5.61c-4.8,6.95-6.62,10.49-20.68,17.36C564.69,430.8,561.5,428.36,564.94,420.85Z" fill="#fff"/></svg>