<svg xmlns="http://www.w3.org/2000/svg" viewBox="0 0 131.58 131.58"><title>Fichier 2</title><path d="M131.58,131.58H0V0H131.58V131.58ZM1.43,130.15H130.15V1.43H1.43V130.15Z" fill="#fff"/><path d="M29.29,64.92c-1.53-1.16-4.37-2.41-8.4-3.71a2.07,2.07,0,0,0-.54-.19.38.38,0,0,1-.16-.05l-.08,0c-3.75-1.16-6.22-2.36-7.33-3.57a8.53,8.53,0,0,1-2.24-5.89c0-3.18.91-5.64,2.69-7.34a9,9,0,0,1,6.56-2.43A9.67,9.67,0,0,1,27,44.58c1.93,2,2.94,4.8,3,8.36v.35h2.41l0-.37c-.18-4.33-1.42-7.73-3.68-10.1a11.5,11.5,0,0,0-8.81-3.59,11.56,11.56,0,0,0-8.27,3.06c-2.31,2.13-3.49,5.22-3.49,9.19a11,11,0,0,0,2.79,7.77c1.21,1.32,4,2.69,8.44,4.21.42.12.54.17.54.16l.14.09c3.84,1.24,6.36,2.33,7.5,3.23,2.25,1.69,3.39,4.26,3.39,7.62a9.67,9.67,0,0,1-3.26,7.71,10.34,10.34,0,0,1-7.15,2.56,9.57,9.57,0,0,1-7.72-3.38A15.37,15.37,0,0,1,9.65,72.2l0-.33H7.17l0,.37c.25,4.7,1.56,8.41,3.88,11a11.75,11.75,0,0,0,9.41,4.11,13,13,0,0,0,9.11-3.26c2.56-2.42,3.86-5.83,3.86-10.13A10.83,10.83,0,0,0,29.29,64.92Z" fill="#fff"/><polygon points="37.77 83.69 37.77 63.72 54.71 63.72 54.71 61.05 37.77 61.05 37.77 42.98 59.15 42.98 59.15 40.24 35.26 40.24 35.26 86.43 59.68 86.43 59.68 83.69 37.77 83.69" fill="#fff"/><polygon points="91.21 40.24 78.14 71.69 64.55 40.24 61.43 40.24 61.43 86.43 63.73 86.43 63.73 44.94 77.24 75.34 77.33 75.55 78.86 75.55 91.99 44.99 91.99 86.43 94.28 86.43 94.28 40.24 91.21 40.24" fill="#fff"/><path d="M110.41,40.24h-2.53L93,86.43h2.49l5-15.5h17.16l4.91,15.5H125Zm6.37,28.08H101.35l7.79-24.08Z" fill="#fff"/><path d="M21.83,95.82a2.28,2.28,0,0,1-1.49,1.33,4.85,4.85,0,0,1-1.16.1H17.87V91.76H19.4a2.58,2.58,0,0,1,1.76.55,2.76,2.76,0,0,1,.94,2.19A3.18,3.18,0,0,1,21.83,95.82Zm-.62-2.26a1.59,1.59,0,0,0-1-1,2.77,2.77,0,0,0-.86-.1h-.81v4.1h.93A1.8,1.8,0,0,0,20.92,96a2.23,2.23,0,0,0,.46-1.51A2.51,2.51,0,0,0,21.21,93.56Z" fill="#fff"/><path d="M42,94.74H37a2.2,2.2,0,0,0,.65,1.46,2.06,2.06,0,0,0,1.47.56A2,2,0,0,0,41,95.53h.8a2.85,2.85,0,0,1-4.72,1.06,2.89,2.89,0,0,1,2.07-5,2.62,2.62,0,0,1,2.09.9A3.23,3.23,0,0,1,42,94.68Zm-.79-.6A2.06,2.06,0,0,0,39,92.26a1.94,1.94,0,0,0-1.39.53A2.22,2.22,0,0,0,37,94.14Z" fill="#fff"/><path d="M55.82,95.54h.73v0a1.27,1.27,0,0,0,.27.83.91.91,0,0,0,.76.37,1,1,0,0,0,.7-.25,1,1,0,0,0,0-1.38,2.15,2.15,0,0,0-.72-.38,3.28,3.28,0,0,1-1.06-.54,1.31,1.31,0,0,1-.42-1,1.49,1.49,0,0,1,.47-1.11,1.61,1.61,0,0,1,1.14-.44,1.55,1.55,0,0,1,1.13.4,1.57,1.57,0,0,1,.44,1.12h-.76a.77.77,0,0,0-.86-.82.74.74,0,0,0-.57.23.78.78,0,0,0-.24.58.8.8,0,0,0,.42.72,2.35,2.35,0,0,0,.54.23c.29.08.48.15.56.18a1.53,1.53,0,0,1,1,1.53,1.55,1.55,0,0,1-.51,1.2,1.79,1.79,0,0,1-1.25.45,1.58,1.58,0,0,1-1.28-.55A2.08,2.08,0,0,1,55.82,95.54Z" fill="#fff"/><path d="M74.29,91.1h-.71V90h.71Zm-.71,6.18V91.75h.71v5.53Z" fill="#fff"/><path d="M93.26,96.51a2.87,2.87,0,0,1-1,.66,3.53,3.53,0,0,1-1,.09,2.6,2.6,0,0,1-2-.82,2.77,2.77,0,0,1-.76-2,2.77,2.77,0,0,1,2.8-2.75,2.7,2.7,0,0,1,2.49,1.6h-.84a2.1,2.1,0,0,0-1.68-.91,2,2,0,0,0-1.45.6,2,2,0,0,0-.59,1.47A2.09,2.09,0,0,0,89.9,96a2,2,0,0,0,1.48.62,1.87,1.87,0,0,0,1.18-.4,1.91,1.91,0,0,0,.71-1H90.68v-.66h3.43A3,3,0,0,1,93.26,96.51Z" fill="#fff"/><path d="M108.77,91.75h.69v.63a2.14,2.14,0,0,1,1.73-.74,2,2,0,0,1,1.84.87,3.61,3.61,0,0,1,.36,1.88v2.89h-.7v-3.1a2.31,2.31,0,0,0-.32-1.35,1.46,1.46,0,0,0-1.26-.51,1.53,1.53,0,0,0-1.42.74,3.39,3.39,0,0,0-.23,1.53v2.69h-.69Z" fill="#fff"/></svg>