<svg xmlns="http://www.w3.org/2000/svg" viewBox="0 0 171.73 171.73"><title>Fichier 2</title><path d="M22.12,71c-6,0-11.37-4.84-11.37-11a11.2,11.2,0,0,1,11.34-11A11.45,11.45,0,0,1,30.74,53a7.38,7.38,0,0,1,1.38,2.12H29.65A8.85,8.85,0,0,0,22.12,51a9.05,9.05,0,1,0,.09,18.1c3.72,0,7.62-2.58,8.56-6.27H18.94V60.9H33.32A11.12,11.12,0,0,1,22.12,71" fill="#fff"/><polygon points="36.59 70.64 36.59 49.44 48.19 49.44 48.19 51.36 38.71 51.36 38.71 58.98 47.88 58.98 47.88 60.9 38.71 60.9 38.71 68.72 48.19 68.72 48.19 70.64 36.59 70.64" fill="#fff"/><polygon points="66.93 70.64 54.35 51.99 54.3 51.99 54.3 70.64 52.17 70.64 52.17 49.44 55.04 49.44 66.87 67.03 66.93 67.03 66.93 49.44 69.05 49.44 69.05 70.64 66.93 70.64" fill="#fff"/><polygon points="73.23 70.64 73.23 49.44 84.83 49.44 84.83 51.36 75.35 51.36 75.35 58.98 84.52 58.98 84.52 60.9 75.35 60.9 75.35 68.72 84.83 68.72 84.83 70.64 73.23 70.64" fill="#fff"/><polygon points="97.75 70.64 95.66 70.64 86.93 49.44 89.28 49.44 96.75 68 104.25 49.44 106.55 49.44 97.75 70.64" fill="#fff"/><rect x="108.99" y="49.44" width="2.12" height="21.19" fill="#fff"/><path d="M123.19,48.24l-5.67-3.06.92-1.72,5.7,3.12Zm-7.9,22.4V49.44h11.6v1.92h-9.48V59h9.16V60.9h-9.16v7.82h9.48v1.92Z" fill="#fff"/><polygon points="139.55 70.64 137.46 70.64 128.72 49.44 131.07 49.44 138.55 68 146.05 49.44 148.34 49.44 139.55 70.64" fill="#fff"/><polygon points="150.61 70.64 150.61 49.44 162.21 49.44 162.21 51.36 152.73 51.36 152.73 58.98 161.9 58.98 161.9 60.9 152.73 60.9 152.73 68.72 162.21 68.72 162.21 70.64 150.61 70.64" fill="#fff"/><polygon points="11.34 119.81 11.34 76.43 19.37 76.43 19.37 112.31 32.62 112.31 32.62 119.81 11.34 119.81" fill="#fff"/><polygon points="36.49 119.81 36.49 76.43 59.83 76.43 59.83 83.94 44.53 83.94 44.53 94.55 59.18 94.55 59.18 102.05 44.53 102.05 44.53 112.31 59.83 112.31 59.83 119.81 36.49 119.81" fill="#fff"/><polygon points="79.83 83.93 79.83 119.81 71.8 119.81 71.8 83.93 63.76 83.93 63.76 76.43 87.92 76.43 87.92 83.93 79.83 83.93" fill="#fff"/><polygon points="115.77 119.81 115.77 101.58 100.23 101.58 100.23 119.81 92.2 119.81 92.2 76.43 100.23 76.43 100.23 94.07 115.77 94.07 115.77 76.43 123.8 76.43 123.8 119.81 115.77 119.81" fill="#fff"/><path d="M159.69,114.24a15.92,15.92,0,0,1-13,6.45,16.23,16.23,0,0,1-12.89-6.21c-2.17-2.87-2.7-7-2.7-10.49V76.43h8V104c0,5,1.64,9.2,7.51,9.2s7.5-4.16,7.5-9.2V76.43h8V104c0,3.51-.47,7.26-2.52,10.25" fill="#fff"/><rect x="0.61" y="0.61" width="170.51" height="170.51" fill="none" stroke="#fff" stroke-miterlimit="10" stroke-width="1.22"/></svg>