<svg xmlns="http://www.w3.org/2000/svg" width="330" height="60.34" viewBox="0 0 330 60.34"><g transform="translate(0 -0.693)"><path d="M104.175,1.027a.642.642,0,0,1,.442-.22.416.416,0,0,1,.4.461.716.716,0,0,1-.223.467C98.954,8.992,94.707,17.48,94.707,29.249s4.247,20.084,10.084,27.341a.729.729,0,0,1,.223.467.417.417,0,0,1-.4.464.635.635,0,0,1-.442-.223L79.293,33.237a5.085,5.085,0,0,1,0-8.138Z" transform="translate(161.72 1.698)" fill="#e50019"/><path d="M101.308.221c-9.741,0-13.545,13.808-13.545,30.258s3.8,30.082,13.545,30.082c5.846,0,10.829-3.424,10.848-6.239a2.381,2.381,0,0,0-.752-1.717c-2.772-2.676-3.851-5.354-3.867-7.715a7.933,7.933,0,0,1,7.5-7.863c4.958,0,7.878,3.894,7.878,8.936a20.934,20.934,0,0,1-4.25,11.949.734.734,0,0,0-.124.4.408.408,0,0,0,.368.455.678.678,0,0,0,.461-.241l24.885-24.065a5.082,5.082,0,0,0,0-8.135L119.37,2.256a.692.692,0,0,0-.461-.241c-.226,0-.368.21-.368.461a.759.759,0,0,0,.124.405,20.912,20.912,0,0,1,4.25,11.94c0,5.039-2.92,8.943-7.878,8.943a7.936,7.936,0,0,1-7.5-7.869c.015-2.357,1.1-5.036,3.867-7.708a2.4,2.4,0,0,0,.752-1.72c-.019-2.818-5-6.245-10.848-6.245" transform="translate(183.71 0.472)" fill="#004a9c"/><path d="M5.039,37.209A18.824,18.824,0,0,1,0,23.766,19.324,19.324,0,0,1,4.946,10.44,15.632,15.632,0,0,1,16.385,5.324c7.755.012,13.23,5.435,13.261,10.127C29.64,17.957,28.053,19.9,25.9,19.9a4.036,4.036,0,0,1-2.781-1.046,3.9,3.9,0,0,1-1.179-2.914,4.288,4.288,0,0,1,1.312-3,6.791,6.791,0,0,0-6.2-3.232,7.8,7.8,0,0,0-6.582,3.851A18.5,18.5,0,0,0,7.879,23.713a18,18,0,0,0,2.679,10.118,8.024,8.024,0,0,0,6.675,3.842,6.749,6.749,0,0,0,6.2-3.229,4.24,4.24,0,0,1-1.312-2.979A3.925,3.925,0,0,1,23.3,28.542,4.058,4.058,0,0,1,26.082,27.5c2.15,0,3.734,1.933,3.74,4.436-.025,4.711-5.5,10.118-13.258,10.133A16.048,16.048,0,0,1,5.039,37.209m0,0A18.824,18.824,0,0,1,0,23.766,19.324,19.324,0,0,1,4.946,10.44,15.632,15.632,0,0,1,16.385,5.324c7.755.012,13.23,5.435,13.261,10.127C29.64,17.957,28.053,19.9,25.9,19.9a4.036,4.036,0,0,1-2.781-1.046,3.9,3.9,0,0,1-1.179-2.914,4.288,4.288,0,0,1,1.312-3,6.791,6.791,0,0,0-6.2-3.232,7.8,7.8,0,0,0-6.582,3.851A18.5,18.5,0,0,0,7.879,23.713a18,18,0,0,0,2.679,10.118,8.024,8.024,0,0,0,6.675,3.842,6.749,6.749,0,0,0,6.2-3.229,4.24,4.24,0,0,1-1.312-2.979A3.925,3.925,0,0,1,23.3,28.542,4.058,4.058,0,0,1,26.082,27.5c2.15,0,3.734,1.933,3.74,4.436-.025,4.711-5.5,10.118-13.258,10.133A16.048,16.048,0,0,1,5.039,37.209m0,0A18.824,18.824,0,0,1,0,23.766,19.324,19.324,0,0,1,4.946,10.44,15.632,15.632,0,0,1,16.385,5.324c7.755.012,13.23,5.435,13.261,10.127C29.64,17.957,28.053,19.9,25.9,19.9a4.036,4.036,0,0,1-2.781-1.046,3.9,3.9,0,0,1-1.179-2.914,4.288,4.288,0,0,1,1.312-3,6.791,6.791,0,0,0-6.2-3.232,7.8,7.8,0,0,0-6.582,3.851A18.5,18.5,0,0,0,7.879,23.713a18,18,0,0,0,2.679,10.118,8.024,8.024,0,0,0,6.675,3.842,6.749,6.749,0,0,0,6.2-3.229,4.24,4.24,0,0,1-1.312-2.979A3.925,3.925,0,0,1,23.3,28.542,4.058,4.058,0,0,1,26.082,27.5c2.15,0,3.734,1.933,3.74,4.436-.025,4.711-5.5,10.118-13.258,10.133A16.048,16.048,0,0,1,5.039,37.209m111.8-12.166c.5-.009.634-.124.73-.285a2.036,2.036,0,0,0,.124-.925,4.7,4.7,0,0,0-4.8-4.631c-3.628,0-5.1,2.9-5.33,5.84Zm-72.1,4.191c-2.781.028-4.655,1.336-4.671,3.922a3.964,3.964,0,0,0,4.263,4.1,6,6,0,0,0,4.485-2.274V31.409a1.821,1.821,0,0,0-1.008-1.451,5.9,5.9,0,0,0-3.069-.724m106.037-1.46c.012,6.932,3.025,9.911,5.985,9.92,3.381,0,5.825-2.985,5.846-8.822a12.9,12.9,0,0,0-1.776-7.136,5.138,5.138,0,0,0-4.343-2.533c-3.508,0-5.695,3.177-5.713,8.571M62.8,40.97c-1.089-.3-1.785-.9-1.782-1.8a2.743,2.743,0,0,1,.291-1.138l.062-.13.139-.028a4.222,4.222,0,0,0,1.732-.767c.637-.538.9-1.284.9-3.378V23.181c-.056-1.779-.47-2.4-1.946-2.441a6.286,6.286,0,0,0-1.175.127l-.226.04-.084-.21a3.043,3.043,0,0,1-.238-1.151c.037-2.1,2.345-3.177,3.91-3.662A5.939,5.939,0,0,1,66.1,15.6c2.125,0,3.273,1.491,3.768,3.406a7.266,7.266,0,0,1,5.763-3.724,3.887,3.887,0,0,1,4.1,3.863,3.551,3.551,0,0,1-3.415,3.69,3.224,3.224,0,0,1-3.226-2.561c-1.209.4-2.92,1.9-2.939,7.1v6.363c.006,2.085.306,2.833.934,3.369a6.213,6.213,0,0,0,2.289.776l.142.028.059.13a2.983,2.983,0,0,1,.316,1.222c.009.854-.634,1.445-1.667,1.729a17.5,17.5,0,0,1-4.621.424,18.6,18.6,0,0,1-4.8-.439m21.1,0c-1.089-.3-1.788-.9-1.788-1.8a2.857,2.857,0,0,1,.3-1.138l.059-.13.142-.028a4.212,4.212,0,0,0,1.729-.767c.634-.538.9-1.284.9-3.378V23.181c-.053-1.779-.467-2.4-1.939-2.441a6.264,6.264,0,0,0-1.179.127l-.226.04-.084-.21a3.1,3.1,0,0,1-.235-1.151c.037-2.1,2.345-3.177,3.9-3.662A5.961,5.961,0,0,1,87.2,15.6c2.125,0,3.273,1.491,3.764,3.412a7.248,7.248,0,0,1,5.766-3.727,3.878,3.878,0,0,1,4.089,3.86,3.544,3.544,0,0,1-3.412,3.69,3.227,3.227,0,0,1-3.226-2.561c-1.206.4-2.923,1.9-2.939,7.1v6.363c.009,2.085.309,2.833.937,3.369a6.213,6.213,0,0,0,2.289.776l.136.028.062.13a2.983,2.983,0,0,1,.315,1.222c.009.854-.634,1.445-1.664,1.729a17.529,17.529,0,0,1-4.621.424,18.6,18.6,0,0,1-4.8-.439m44.639,0c-1.1-.3-1.8-.9-1.8-1.806a2.757,2.757,0,0,1,.288-1.132l.059-.127.139-.028a4.214,4.214,0,0,0,1.735-.767c.634-.538.894-1.284.9-3.378V19.865l-3.724-.13-.068-.167a3.363,3.363,0,0,1-.285-1.3,2.239,2.239,0,0,1,2.354-2.255h1.63V14.477c0-3.709.69-5.821,1.633-7.238,1.451-2.255,3.972-3.8,7.81-3.8,4.829,0,8.875,2.249,8.9,5.856a3.392,3.392,0,0,1-3.359,3.5,3.32,3.32,0,0,1-3.276-3.226,3.486,3.486,0,0,1,.551-1.834,3.856,3.856,0,0,0-2.4-.705A2.99,2.99,0,0,0,136.78,8.42a7.123,7.123,0,0,0-.693,3.554v3.987h6.4l.074.173a3.451,3.451,0,0,1,.278,1.336,2.475,2.475,0,0,1-2.233,2.543,14.059,14.059,0,0,1-1.432.049c-1.064,0-2.119-.077-2.9-.093V33.732c.006,2.079.35,2.824.977,3.369a7.721,7.721,0,0,0,2.614.776L140,37.9l.059.133a2.471,2.471,0,0,1,.263,1.046c0,.953-.773,1.553-1.946,1.871a19.837,19.837,0,0,1-5.017.458,18.816,18.816,0,0,1-4.819-.439m76.094,0c-1.092-.3-1.8-.894-1.791-1.8a2.824,2.824,0,0,1,.294-1.141l.059-.127.136-.028a4.106,4.106,0,0,0,1.714-.773c.653-.532.906-1.278.906-3.372V23.181c-.049-1.779-.455-2.4-1.933-2.441a6.312,6.312,0,0,0-1.175.127l-.226.04-.087-.21a3.13,3.13,0,0,1-.229-1.132c.04-2.11,2.348-3.2,3.9-3.681a6.11,6.11,0,0,1,1.751-.285c2.107,0,3.254,1.513,3.74,3.458a7.218,7.218,0,0,1,5.75-3.777,3.871,3.871,0,0,1,4.092,3.863,3.542,3.542,0,0,1-3.384,3.69,3.26,3.26,0,0,1-3.257-2.561c-1.2.393-2.883,1.893-2.9,7.1v6.363c.009,2.085.3,2.84.891,3.369a6.521,6.521,0,0,0,2.3.776l.136.028.059.13a2.985,2.985,0,0,1,.325,1.234c0,.851-.634,1.435-1.655,1.72a17.572,17.572,0,0,1-4.606.421,18.624,18.624,0,0,1-4.8-.439m-48.143.786a12.8,12.8,0,0,1-9.11-3.656,13.283,13.283,0,0,1-3.786-9.6,13,13,0,0,1,13.122-13.171A12.84,12.84,0,0,1,166,18.977a13.24,13.24,0,0,1,3.656,9.521,12.759,12.759,0,0,1-13.162,13.258ZM100.806,29a14.108,14.108,0,0,1,3.588-9.815,12.584,12.584,0,0,1,9.4-3.857,10.238,10.238,0,0,1,7.829,3.171,9.751,9.751,0,0,1,2.521,6.508,7.29,7.29,0,0,1-.854,3.579l-.074.142H107.5c.263,4.572,3.174,7.767,8.24,7.783a8.524,8.524,0,0,0,6.316-2.731l.167-.217.22.164a2.321,2.321,0,0,1,.931,2.057c-.019,2.635-3.106,6.01-9.948,6.016A12.625,12.625,0,0,1,100.806,29m90.626,11.64a6.638,6.638,0,0,1-.928-2.4c-.257.288-.557.6-1.015,1.036a9.217,9.217,0,0,1-6.366,2.53,8.328,8.328,0,0,1-6.477-2.768c-2.258-2.691-2.239-6.106-2.243-10.953V23.416c-.049-1.89-.643-2.536-2.4-2.586a6.5,6.5,0,0,0-.742.046l-.21.025-.077-.2a2.692,2.692,0,0,1-.2-1.008c.056-2.258,2.914-3.464,4.593-3.814a11.357,11.357,0,0,1,1.68-.183,3.647,3.647,0,0,1,3.016,1.228,4.921,4.921,0,0,1,.888,3.14l-.043,7.977c0,2.945.207,5.15.86,6.567a3.4,3.4,0,0,0,3.492,2.085,4.3,4.3,0,0,0,3.978-2.147,9.338,9.338,0,0,0,1.052-4.677V23.416c-.049-1.89-.646-2.54-2.4-2.586a6.361,6.361,0,0,0-.739.046l-.213.025-.08-.2a2.748,2.748,0,0,1-.2-1.008c.056-2.258,2.911-3.464,4.6-3.814a11.27,11.27,0,0,1,1.68-.183,3.662,3.662,0,0,1,3.019,1.228,4.886,4.886,0,0,1,.894,3.14c0,.913-.087,2.54-.087,9.332,0,2.871-.046,4.4-.046,4.863.043,1.955.7,2.833,2.512,2.871.192,0,.393-.015.616-.034l.207-.025.08.2a2.659,2.659,0,0,1,.2.981c-.068,2.205-2.936,3.09-4.6,3.421a10.794,10.794,0,0,1-1.571.176h-.034a3.081,3.081,0,0,1-2.694-1.209M33.2,33.593a7.1,7.1,0,0,1,2.966-5.914,12.568,12.568,0,0,1,7.476-2.1,13.962,13.962,0,0,1,5.169.925V23.688c-.043-2.84-1.117-4.451-4.306-4.488a11.045,11.045,0,0,0-3.019.529,5.085,5.085,0,0,1,.167,1.231,3.678,3.678,0,0,1-.875,2.465,3.193,3.193,0,0,1-2.444,1.036A3.267,3.267,0,0,1,35.108,21.1c.04-3.449,4.222-5.766,9.812-5.769,4.436,0,7.22,1.052,8.7,2.963,1.352,1.717,1.414,4.222,1.42,7.758V35.26c.025,1.785,1.036,2.27,3.257,2.614l.254.034-.015.26C58.41,40.6,56.622,41.6,54.7,41.756c-.167.015-.331.022-.5.022a4.882,4.882,0,0,1-4.578-2.809,11.794,11.794,0,0,1-7.337,2.874c-5.156-.006-9.072-3.486-9.082-8.25" transform="translate(0 7.21)" fill="#004a9c"/></g></svg>