<svg xmlns="http://www.w3.org/2000/svg" width="374.714" height="128.665" viewBox="0 0 374.714 128.665"><defs><style>.a{fill:#fff;}.b{fill:#062b4a;}.c{fill:#c9001f;}.d{fill:#5b5b5c;}.e{fill:none;stroke:#5b5b5c;stroke-miterlimit:10;stroke-width:0.571px;}</style></defs><g transform="translate(82.541 -71.841)"><path class="a" d="M69.956,185.15c.076-4.742,4.881-8.9,12.343-11.561-8.166,2.549-13.5,6.765-13.58,11.614-.089,5.552,6.737,10.495,16.886,13.162-9.465-2.814-15.737-7.725-15.649-13.215"/><path class="a" d="M126.343,196.68a51.841,51.841,0,0,1-8.246,2.038,70.008,70.008,0,0,1-12.546.9c-18.229-.292-32.9-7.113-32.771-15.236.048-3.016,2.132-5.788,5.665-8.065-4.427,2.426-7.092,5.529-7.147,8.946-.126,7.865,13.626,14.509,31.046,15.189q.856.033,1.725.047a68.434,68.434,0,0,0,14.632-1.283,38.453,38.453,0,0,0,12.944-4.83,34.148,34.148,0,0,1-5.3,2.3"/><path class="b" d="M91.726,179.272A3.174,3.174,0,0,0,89,178.192c-1.6,0-2.513.986-2.513,1.831,0,.892.751,1.08,1.433,1.268l1.268.329c2.934.751,3.9,2.113,3.9,4.508,0,4.038-3.357,5.658-6.926,5.658-2.794,0-4.461-.633-5.917-2.3l2.818-2.465a4.316,4.316,0,0,0,3.451,1.315c1.526,0,2.653-.845,2.653-1.808,0-.892-.493-1.2-1.409-1.432l-1.268-.329c-3.381-.869-3.9-2.817-3.9-4.109,0-3.663,2.841-5.87,6.856-5.87a6.209,6.209,0,0,1,5,2.09Z"/><path class="b" d="M98.113,191.645h-3.9l3.358-16.717h3.9Z"/><path class="b" d="M114.737,178.38H110.91l-2.653,13.266h-3.9l2.653-13.266h-3.991l.7-3.451h11.716Z"/><path class="b" d="M123.049,178.4h-2.066l-.751,3.663h2.042a2.106,2.106,0,0,0,2.3-2.09,1.4,1.4,0,0,0-1.527-1.573m1.832,6.41,2.23,6.832h-4.273l-1.761-6.339H119.6l-1.291,6.339h-3.9l3.358-16.717h5.939c3.5,0,4.79,2.254,4.79,4.837a5.567,5.567,0,0,1-3.615,5.048"/><path class="b" d="M137.044,180.915l-2.536,4.931h3.052Zm1.056,10.73-.234-2.629h-4.954l-1.291,2.629h-4.156l9.109-16.717H139.6l2.465,16.717Z"/><path class="b" d="M158.612,191.645h-3.9l1.512-8.241-2.982,4.132h-2.489l-1.526-4.132-1.668,8.241h-3.9l3.357-16.717h3.64L152.8,182.3l5.212-7.372h3.827Z"/><path class="b" d="M69.956,185.15c.076-4.742,4.881-8.9,12.343-11.561-8.166,2.549-13.5,6.765-13.58,11.614-.089,5.552,6.737,10.495,16.886,13.162-9.465-2.814-15.737-7.725-15.649-13.215"/><path class="c" d="M126.343,196.68a51.841,51.841,0,0,1-8.246,2.038,70.008,70.008,0,0,1-12.546.9c-18.229-.292-32.9-7.113-32.771-15.236.048-3.016,2.132-5.788,5.665-8.065-4.427,2.426-7.092,5.529-7.147,8.946-.126,7.865,13.626,14.509,31.046,15.189q.856.033,1.725.047a68.434,68.434,0,0,0,14.632-1.283,38.453,38.453,0,0,0,12.944-4.83,34.148,34.148,0,0,1-5.3,2.3"/><path class="b" d="M91.726,179.272A3.174,3.174,0,0,0,89,178.192c-1.6,0-2.513.986-2.513,1.831,0,.892.751,1.08,1.433,1.268l1.268.329c2.934.751,3.9,2.113,3.9,4.508,0,4.038-3.357,5.658-6.926,5.658-2.794,0-4.461-.633-5.917-2.3l2.818-2.465a4.316,4.316,0,0,0,3.451,1.315c1.526,0,2.653-.845,2.653-1.808,0-.892-.493-1.2-1.409-1.432l-1.268-.329c-3.381-.869-3.9-2.817-3.9-4.109,0-3.663,2.841-5.87,6.856-5.87a6.209,6.209,0,0,1,5,2.09Z"/><path class="b" d="M98.113,191.645h-3.9l3.358-16.717h3.9Z"/><path class="b" d="M114.737,178.38H110.91l-2.653,13.266h-3.9l2.653-13.266h-3.991l.7-3.451h11.716Z"/><path class="b" d="M123.049,178.4h-2.066l-.751,3.663h2.042a2.106,2.106,0,0,0,2.3-2.09,1.4,1.4,0,0,0-1.527-1.573m1.832,6.41,2.23,6.832h-4.273l-1.761-6.339H119.6l-1.291,6.339h-3.9l3.358-16.717h5.939c3.5,0,4.79,2.254,4.79,4.837a5.567,5.567,0,0,1-3.615,5.048"/><path class="b" d="M137.044,180.915l-2.536,4.931h3.052Zm1.056,10.73-.234-2.629h-4.954l-1.291,2.629h-4.156l9.109-16.717H139.6l2.465,16.717Z"/><path class="b" d="M158.612,191.645h-3.9l1.512-8.241-2.982,4.132h-2.489l-1.526-4.132-1.668,8.241h-3.9l3.357-16.717h3.64L152.8,182.3l5.212-7.372h3.827Z"/><path class="d" d="M-72.772,149.588V136.257l-9.769-17.44h2.419l5.068,9.176c1.324,2.42,2.42,4.429,3.515,6.621h.092c.913-2.055,2.191-4.2,3.561-6.666l5.25-9.131h2.42L-70.58,136.3v13.285Z"/><path class="d" d="M-48.436,149.588l-10.227-30.771h2.283l5.433,16.481c1.461,4.475,2.739,8.355,3.607,11.779h.137c.913-3.469,2.328-7.442,3.926-11.779l5.98-16.481h2.329l-11.414,30.771Z"/><path class="d" d="M-17.253,134.294h-12.28v13.468h13.741v1.826H-31.725V118.817h15.2v1.826H-29.533v11.825h12.28Z"/><path class="d" d="M-11.407,146.209a12.139,12.139,0,0,0,6.711,2.01c4.611,0,7.441-2.6,7.441-6.393,0-3.423-1.78-5.478-6.254-7.166-4.931-1.781-7.9-4.337-7.9-8.493,0-4.519,3.7-7.806,8.948-7.806a11.945,11.945,0,0,1,6.118,1.415l-.822,1.872A9.821,9.821,0,0,0-2.6,120.187c-4.976,0-6.666,3.2-6.666,5.615,0,3.379,1.964,5.113,6.392,6.849,5.068,2.054,7.761,4.383,7.761,8.948,0,4.474-3.2,8.446-9.77,8.446a13.834,13.834,0,0,1-7.35-2.054Z"/><path class="d" d="M41.782,148.721a20.367,20.367,0,0,1-7.989,1.369c-9.771,0-15.7-6.117-15.7-15.522,0-10.135,7.076-16.253,16.481-16.253a17.418,17.418,0,0,1,7.442,1.37l-1.188,4.474a15.125,15.125,0,0,0-6.026-1.187c-6.255,0-10.775,3.926-10.775,11.322,0,6.8,3.927,11.094,10.729,11.094a17.026,17.026,0,0,0,6.118-1.1Z"/><path class="d" d="M51.919,140.868l-2.648,8.72h-5.8l9.861-30.771H60.5l10,30.771H64.428l-2.785-8.72Zm8.811-4.246-2.42-7.579c-.593-1.871-1.1-3.971-1.552-5.752h-.091c-.457,1.781-.959,3.926-1.461,5.752l-2.374,7.579Z"/><path class="d" d="M99.494,137.034c-.183-3.973-.411-8.766-.365-12.92h-.137c-1,3.743-2.283,7.9-3.652,11.778l-4.52,13.331H86.528l-4.109-13.148c-1.187-3.926-2.282-8.127-3.1-11.961h-.091c-.137,4.017-.32,8.9-.548,13.1l-.685,12.372h-5.25l2.054-30.771h7.4l4.018,12.373c1.1,3.606,2.054,7.259,2.83,10.682h.137c.822-3.333,1.872-7.122,3.059-10.728l4.246-12.327h7.305l1.78,30.771h-5.478Z"/><path class="d" d="M110.135,119.228a63.273,63.273,0,0,1,8.948-.639c5.753,0,9.679,1.187,12.51,3.561,3.012,2.42,4.839,6.118,4.839,11.322,0,5.524-1.872,9.588-4.794,12.235-3.059,2.786-7.944,4.2-13.924,4.2a62.294,62.294,0,0,1-7.579-.412Zm5.615,26.114a20.922,20.922,0,0,0,3.105.137c7.305.046,11.642-4.018,11.642-11.824.045-6.757-3.881-10.683-10.912-10.683a18.346,18.346,0,0,0-3.835.319Z"/><path class="d" d="M157.39,135.938h-11.6v9.039H158.76v4.611H140.179V118.817h17.9v4.611H145.794v7.944h11.6Z"/><path class="d" d="M162.551,119.274a46.438,46.438,0,0,1,8.217-.685c4.11,0,6.712.548,8.766,1.963a6.512,6.512,0,0,1,3.2,5.8c0,2.831-1.78,5.388-5.113,6.62v.137a7.746,7.746,0,0,1,6.209,7.579,8.253,8.253,0,0,1-2.922,6.391c-2.191,1.873-5.8,2.831-11.459,2.831a54.72,54.72,0,0,1-6.894-.412Zm5.57,12.144H171c3.926,0,6.072-1.826,6.072-4.428,0-2.922-2.191-4.247-5.753-4.247a15.175,15.175,0,0,0-3.195.229Zm0,14.107a17.829,17.829,0,0,0,2.967.137c3.607,0,6.848-1.324,6.848-5.113,0-3.607-3.15-5.068-7.03-5.068h-2.785Z"/><path class="d" d="M215.01,133.883c0,10.318-6.255,16.207-14.7,16.207-8.72,0-14.2-6.665-14.2-15.659,0-9.5,5.981-16.161,14.654-16.161C209.714,118.27,215.01,125.072,215.01,133.883Zm-22.964.411c0,6.3,3.15,11.277,8.537,11.277,5.433,0,8.492-5.068,8.492-11.505,0-5.8-2.876-11.277-8.492-11.277C195.014,122.789,192.046,127.948,192.046,134.294Z"/><path class="d" d="M218.711,119.274a48.263,48.263,0,0,1,8.491-.685c4.429,0,7.4.731,9.5,2.465a7.817,7.817,0,0,1,2.649,6.209,8.082,8.082,0,0,1-5.616,7.67v.138c2.237.821,3.561,2.966,4.291,5.934a78.253,78.253,0,0,0,2.42,8.583h-5.753a39.3,39.3,0,0,1-2.054-7.259c-.913-4.017-2.328-5.295-5.524-5.387H224.28v12.646h-5.569Zm5.569,13.559h3.333c3.789,0,6.118-2.008,6.118-5.067,0-3.333-2.329-4.932-5.981-4.932a16.129,16.129,0,0,0-3.47.275Z"/><path class="d" d="M243.548,119.228a63.273,63.273,0,0,1,8.948-.639c5.753,0,9.679,1.187,12.51,3.561,3.012,2.42,4.839,6.118,4.839,11.322,0,5.524-1.872,9.588-4.794,12.235-3.059,2.786-7.944,4.2-13.924,4.2a62.294,62.294,0,0,1-7.579-.412Zm5.615,26.114a20.922,20.922,0,0,0,3.105.137c7.3.046,11.642-4.018,11.642-11.824.045-6.757-3.881-10.683-10.912-10.683a18.346,18.346,0,0,0-3.835.319Z"/><path class="d" d="M290.8,135.938h-11.6v9.039h12.966v4.611H273.592V118.817h17.9v4.611H279.207v7.944h11.6Z"/><path class="d" d="M45.034,181.714h1.44v3.544H46.5a1.744,1.744,0,0,1,.572-.543,1.479,1.479,0,0,1,.755-.191,1.514,1.514,0,0,1,.812.183,1.573,1.573,0,0,1,.474.466,1.431,1.431,0,0,1,.183.594,10.781,10.781,0,0,1,.043,1.143v2.726a6.184,6.184,0,0,1-.057.945,1.916,1.916,0,0,1-.184.594,1.31,1.31,0,0,1-1.256.678,1.349,1.349,0,0,1-.819-.212,3.519,3.519,0,0,1-.551-.523v.65h-1.44Zm2.866,5.1a1.156,1.156,0,0,0-.148-.594.591.591,0,0,0-.558-.254.674.674,0,0,0-.515.219.783.783,0,0,0-.205.558v2.782a1,1,0,0,0,.2.642.634.634,0,0,0,.522.247.588.588,0,0,0,.537-.268,1.306,1.306,0,0,0,.169-.706Z"/><path class="d" d="M51.275,184.609l.989,4.462h.027l.975-4.462h1.482l-2.061,8.4a2.552,2.552,0,0,1-.317.8,1.833,1.833,0,0,1-.474.509,1.7,1.7,0,0,1-.571.268,2.527,2.527,0,0,1-.629.077h-.4v-1.355h.324a1.074,1.074,0,0,0,.368-.057.565.565,0,0,0,.275-.247,2.105,2.105,0,0,0,.219-.564c.066-.25.141-.581.226-1l-1.963-6.834Z"/><path class="d" d="M10.919,74.749q0,.313.368.332h.389a.972.972,0,0,1,.708.37,1.185,1.185,0,0,1,.3.794,1.208,1.208,0,0,1-.388.913,1.353,1.353,0,0,1-.97.369,1.377,1.377,0,0,1-1.116-.534,2.092,2.092,0,0,1-.437-1.368A5.334,5.334,0,0,1,11,72.443q.447-.6.777-.6.367,0,.368.391a.808.808,0,0,1-.213.428,6.051,6.051,0,0,0-.7,1.133A2.537,2.537,0,0,0,10.919,74.749Zm3.532,0q0,.313.368.332h.388a.955.955,0,0,1,.689.37,1.18,1.18,0,0,1,.3.794,1.208,1.208,0,0,1-.388.913,1.353,1.353,0,0,1-.97.369,1.378,1.378,0,0,1-1.116-.534,2.092,2.092,0,0,1-.437-1.368,5.329,5.329,0,0,1,1.223-3.182q.447-.6.776-.6.369,0,.369.391a.811.811,0,0,1-.214.428,5.981,5.981,0,0,0-.873,1.582A1.552,1.552,0,0,0,14.451,74.749Z"/><path class="d" d="M28.307,85.463l1.048-7.453c.156-1.106.349-2.193.582-3.513h-.1c-.466,1.359-.971,2.64-1.437,3.688l-3.2,7.2H24.27L23.8,78.01c-.058-1.087-.1-2.193-.078-3.513h-.058c-.291,1.359-.485,2.407-.737,3.533L21.2,85.463H19.922l3.2-13.082h1.553l.465,7.57c.059,1.009.1,1.96.078,3.008h.058c.35-1.048.757-2.018,1.184-3.027l3.261-7.551h1.611L29.588,85.463Z"/><path class="d" d="M35.854,85.463c.02-.524.078-1.048.137-1.785h-.059c-.912,1.591-1.747,1.94-2.426,1.94-1.106,0-1.766-.931-1.766-2.639,0-2.854,1.514-7.046,5.143-7.046a4.762,4.762,0,0,1,1.728.31L37.524,81.6a20.273,20.273,0,0,0-.408,3.862Zm1.184-8.326a1.811,1.811,0,0,0-.582-.078c-2.076,0-3.26,3.455-3.3,5.493-.039,1.184.194,1.863.854,1.863.951,0,1.96-1.843,2.329-3.726Z"/><path class="d" d="M46.139,85.308a3.96,3.96,0,0,1-1.534.271c-1.882,0-2.562-1.533-2.562-3.357,0-2.737,1.611-6.289,4.678-6.289a2.2,2.2,0,0,1,.931.155l-.368,1.185a2.156,2.156,0,0,0-.7-.116c-1.941,0-3.106,2.794-3.106,4.91,0,1.378.408,2.309,1.495,2.309a3.323,3.323,0,0,0,1.145-.233Z"/><path class="d" d="M54.58,76.069l-1.165,6.173c-.252,1.377-.349,2.464-.427,3.221H51.746l.117-1.474h-.039A2.969,2.969,0,0,1,49.3,85.618c-1.107,0-1.573-.912-1.573-1.921a7.668,7.668,0,0,1,.156-1.495l1.145-6.133h1.4l-1.107,5.9a6.608,6.608,0,0,0-.175,1.476c0,.582.233.97.816.97.931,0,1.9-1.261,2.212-2.93l1.009-5.416Z"/><path class="d" d="M54.909,85.463l1.785-9.394h1.4l-1.786,9.394Zm2.1-11.762a1.032,1.032,0,0,1,.951-1.009.753.753,0,0,1,.757.912.969.969,0,0,1-.99.99C57.218,74.594,56.985,74.225,57.005,73.7Z"/><path class="d" d="M58.42,84.007a2.532,2.532,0,0,0,1.456.446,1.477,1.477,0,0,0,1.514-1.59,2.318,2.318,0,0,0-.951-1.826,3.291,3.291,0,0,1-1.223-2.29,2.763,2.763,0,0,1,2.912-2.833,2.833,2.833,0,0,1,1.474.349l-.387,1.087a2.214,2.214,0,0,0-1.087-.291,1.4,1.4,0,0,0-1.514,1.456,2.036,2.036,0,0,0,.873,1.572,3.42,3.42,0,0,1,1.32,2.465,2.821,2.821,0,0,1-3.067,3.027,3.278,3.278,0,0,1-1.746-.5Z"/><path class="d" d="M63.854,85.463l1.786-9.394h1.4l-1.786,9.394ZM65.95,73.7a1.033,1.033,0,0,1,.951-1.009.753.753,0,0,1,.757.912.969.969,0,0,1-.99.99C66.163,74.594,65.931,74.225,65.95,73.7Z"/><path class="d" d="M67.327,85.463l1.165-6.172c.252-1.378.388-2.465.484-3.222H70.2l-.156,1.475h.039a3.011,3.011,0,0,1,2.523-1.63c1.165,0,1.611.893,1.611,1.882a8.369,8.369,0,0,1-.175,1.553L72.9,85.463H71.5l1.145-6.1a6.81,6.81,0,0,0,.136-1.3c0-.583-.233-.951-.815-.951-.874,0-1.922,1.338-2.252,3.105l-.99,5.24Z"/><path class="d" d="M80.116,85a4.524,4.524,0,0,1-2.213.582c-1.98,0-2.62-1.513-2.62-3.318,0-2.543,1.417-6.328,4.114-6.328a1.893,1.893,0,0,1,1.922,2.116c0,2.29-2,3.261-4.58,3.261a5.846,5.846,0,0,0,.058,1.9,1.428,1.428,0,0,0,1.436,1.2,3.227,3.227,0,0,0,1.689-.5Zm-.932-7.879c-.854,0-1.747,1.028-2.271,3.066,1.514,0,3.1-.5,3.1-2.038C80.018,77.486,79.727,77.118,79.184,77.118Z"/><path class="d" d="M84.365,85.463l1.164-6.172c.252-1.378.388-2.465.486-3.222h1.222l-.155,1.514h.038a2.934,2.934,0,0,1,2.427-1.65,1.564,1.564,0,0,1,1.533,1.65,3.049,3.049,0,0,1,2.484-1.65c1.087,0,1.573.854,1.573,1.883a8.855,8.855,0,0,1-.214,1.688L93.8,85.463H92.419l1.126-5.978A7.409,7.409,0,0,0,93.7,78.03c0-.563-.232-.912-.776-.912-.854,0-1.825,1.281-2.193,3.105l-.99,5.24H88.382l1.126-5.978a7.079,7.079,0,0,0,.155-1.436c0-.563-.213-.931-.757-.931-.776,0-1.844,1.358-2.174,3.105l-.989,5.24Z"/><path class="d" d="M101.034,85a4.517,4.517,0,0,1-2.212.582c-1.98,0-2.621-1.513-2.621-3.318,0-2.543,1.417-6.328,4.115-6.328a1.893,1.893,0,0,1,1.922,2.116c0,2.29-2,3.261-4.581,3.261a5.846,5.846,0,0,0,.058,1.9,1.429,1.429,0,0,0,1.436,1.2,3.227,3.227,0,0,0,1.689-.5Zm-.932-7.879c-.854,0-1.746,1.028-2.27,3.066,1.514,0,3.1-.5,3.1-2.038C100.937,77.486,100.646,77.118,100.1,77.118Zm2.834-4.737L100.743,75H99.714l1.67-2.62Z"/><path class="d" d="M102.431,85.463l1.183-6.307c.234-1.262.35-2.388.408-3.087h1.223c-.039.485-.059.99-.155,1.766h.058c.582-1.164,1.4-1.921,2.348-1.921a1.123,1.123,0,0,1,.252.019l-.271,1.476c-.039,0-.136-.02-.194-.02-1.243,0-2.271,1.747-2.543,3.145l-.912,4.929Z"/><path class="d" d="M107.224,85.463l1.785-9.394h1.4l-1.786,9.394Zm2.1-11.762a1.031,1.031,0,0,1,.95-1.009.753.753,0,0,1,.758.912.969.969,0,0,1-.99.99C109.533,74.594,109.3,74.225,109.32,73.7Z"/><path class="d" d="M114.539,73.876l-.446,2.193h1.766l-.213,1.068H113.88l-1.01,5.356a7.043,7.043,0,0,0-.136,1.185c0,.465.195.718.66.718a2.464,2.464,0,0,0,.563-.039l-.116,1.087a3.1,3.1,0,0,1-1.01.135,1.4,1.4,0,0,1-1.552-1.494,8.3,8.3,0,0,1,.174-1.533l1.029-5.415h-1.126l.195-1.068H112.7l.291-1.591Z"/><path class="d" d="M120.3,85a4.524,4.524,0,0,1-2.213.582c-1.98,0-2.62-1.513-2.62-3.318,0-2.543,1.417-6.328,4.115-6.328a1.893,1.893,0,0,1,1.921,2.116c0,2.29-2,3.261-4.58,3.261a5.845,5.845,0,0,0,.058,1.9,1.428,1.428,0,0,0,1.436,1.2,3.227,3.227,0,0,0,1.689-.5Zm-.932-7.879c-.854,0-1.747,1.028-2.271,3.066,1.514,0,3.106-.5,3.106-2.038C120.207,77.486,119.915,77.118,119.372,77.118Z"/><path class="d" d="M124.553,85.463,127.1,72.032h1.4L125.95,85.463Z"/><path class="d" d="M132.392,72.206a27.067,27.067,0,0,1-2.387,4.465l-.95.136a29.029,29.029,0,0,0,1.8-4.406Z"/><path class="d" d="M135.012,85a4.517,4.517,0,0,1-2.212.582c-1.98,0-2.62-1.513-2.62-3.318,0-2.543,1.416-6.328,4.114-6.328a1.893,1.893,0,0,1,1.922,2.116c0,2.29-2,3.261-4.581,3.261a5.846,5.846,0,0,0,.058,1.9,1.429,1.429,0,0,0,1.437,1.2,3.223,3.223,0,0,0,1.688-.5Zm-.932-7.879c-.854,0-1.746,1.028-2.271,3.066,1.515,0,3.106-.5,3.106-2.038C134.915,77.486,134.624,77.118,134.08,77.118Z"/><path class="d" d="M138.757,76.069l.5,2.019c.135.64.213,1.164.349,1.63h.039c.33-.582.621-1.087.912-1.572l1.223-2.077H143.3l-3.145,4.677,1.32,4.717h-1.456l-.485-2.077c-.116-.543-.232-.989-.369-1.708h-.038c-.291.524-.563,1.029-.912,1.65l-1.262,2.135h-1.514l3.183-4.774-1.32-4.62Z"/><path class="d" d="M146.752,85.308a3.951,3.951,0,0,1-1.533.271c-1.883,0-2.562-1.533-2.562-3.357,0-2.737,1.611-6.289,4.677-6.289a2.2,2.2,0,0,1,.932.155l-.369,1.185a2.144,2.144,0,0,0-.7-.116c-1.941,0-3.106,2.794-3.106,4.91,0,1.378.408,2.309,1.495,2.309a3.323,3.323,0,0,0,1.145-.233Z"/><path class="d" d="M152.787,85a4.517,4.517,0,0,1-2.212.582c-1.98,0-2.621-1.513-2.621-3.318,0-2.543,1.417-6.328,4.115-6.328a1.893,1.893,0,0,1,1.922,2.116c0,2.29-2,3.261-4.581,3.261a5.845,5.845,0,0,0,.058,1.9,1.429,1.429,0,0,0,1.436,1.2,3.227,3.227,0,0,0,1.689-.5Zm-.932-7.879c-.854,0-1.746,1.028-2.27,3.066,1.514,0,3.1-.5,3.1-2.038C152.69,77.486,152.4,77.118,151.855,77.118Z"/><path class="d" d="M154.183,85.463l2.543-13.431h1.4l-2.542,13.431Z"/><path class="d" d="M157.657,85.463,160.2,72.032h1.4l-2.543,13.431Z"/><path class="d" d="M166.292,85a4.517,4.517,0,0,1-2.212.582c-1.98,0-2.62-1.513-2.62-3.318,0-2.543,1.416-6.328,4.114-6.328a1.893,1.893,0,0,1,1.922,2.116c0,2.29-2,3.261-4.581,3.261a5.851,5.851,0,0,0,.059,1.9,1.428,1.428,0,0,0,1.436,1.2,3.23,3.23,0,0,0,1.689-.5Zm-.931-7.879c-.854,0-1.747,1.028-2.271,3.066,1.514,0,3.105-.5,3.105-2.038C166.2,77.486,165.9,77.118,165.361,77.118Z"/><path class="d" d="M167.689,85.463l1.164-6.172c.252-1.378.389-2.465.486-3.222h1.222l-.155,1.475h.039a3.01,3.01,0,0,1,2.523-1.63c1.165,0,1.611.893,1.611,1.882a8.454,8.454,0,0,1-.175,1.553l-1.145,6.114h-1.4l1.145-6.1a6.9,6.9,0,0,0,.135-1.3c0-.583-.232-.951-.814-.951-.874,0-1.922,1.338-2.252,3.105l-.99,5.24Z"/><path class="d" d="M179.74,85.308a3.955,3.955,0,0,1-1.533.271c-1.883,0-2.563-1.533-2.563-3.357,0-2.737,1.612-6.289,4.678-6.289a2.2,2.2,0,0,1,.932.155l-.369,1.185a2.156,2.156,0,0,0-.7-.116c-1.941,0-3.105,2.794-3.105,4.91,0,1.378.408,2.309,1.5,2.309a3.323,3.323,0,0,0,1.145-.233Z"/><path class="d" d="M185.775,85a4.521,4.521,0,0,1-2.213.582c-1.98,0-2.62-1.513-2.62-3.318,0-2.543,1.417-6.328,4.115-6.328a1.893,1.893,0,0,1,1.921,2.116c0,2.29-2,3.261-4.58,3.261a5.846,5.846,0,0,0,.058,1.9,1.428,1.428,0,0,0,1.436,1.2,3.224,3.224,0,0,0,1.689-.5Zm-.932-7.879c-.854,0-1.746,1.028-2.271,3.066,1.514,0,3.106-.5,3.106-2.038C185.678,77.486,185.387,77.118,184.843,77.118Z"/><path class="d" d="M192.662,74.635c0-.207-.123-.316-.369-.33h-.387a.967.967,0,0,1-.689-.361,1.189,1.189,0,0,1-.3-.812,1.223,1.223,0,0,1,.388-.92,1.42,1.42,0,0,1,2.066.162,2.1,2.1,0,0,1,.437,1.369,5.264,5.264,0,0,1-1.2,3.182q-.445.6-.776.6a.343.343,0,0,1-.388-.389.809.809,0,0,1,.213-.427,5.915,5.915,0,0,0,.7-1.125A2.523,2.523,0,0,0,192.662,74.635Zm3.513,0c0-.207-.117-.316-.35-.33h-.388a.984.984,0,0,1-.708-.361,1.189,1.189,0,0,1-.3-.812,1.223,1.223,0,0,1,.388-.92,1.35,1.35,0,0,1,.97-.371,1.38,1.38,0,0,1,1.116.533,2.1,2.1,0,0,1,.437,1.369,5.273,5.273,0,0,1-1.222,3.182q-.467.6-.777.6c-.246,0-.368-.129-.368-.389a.8.8,0,0,1,.213-.427,6.612,6.612,0,0,0,.679-1.125A2.511,2.511,0,0,0,196.175,74.635Z"/><line class="e" x2="177.407" transform="translate(13.299 100.909)"/></g></svg>