<?xml version="1.0" encoding="UTF-8"?><svg xmlns="http://www.w3.org/2000/svg" viewBox="0 0 20 8"><path fill="#000" fill-rule="evenodd" d="M6.001496 2.409588c-.83771.197061-1.669427.415996-2.500576.639547-.223494.060244-1.236614.22722-1.685247.492755.266836.091742.53513.184133.802615.274418 1.480082-.493314 2.939502-1.03249 4.37591-1.629925-.332034.070405-.663178.144699-.992702.223205Zm13.810773 1.02454c.233214-.019252.328727.32182.09915.405544-3.185459 1.149076-4.233657.487942-7.552603.54489-2.233382.037457-4.46087.212844-6.683422.441933 1.560815.507236 3.125522 1.00573 4.689175 1.504627.061402-.238038.345451-.318459.532018-.113182.195239.21525.4602.368135.709356.511366.66293.378085.245798 1.322831-.480706 1.079682-2.700458-.900283-5.398077-1.81676-8.108268-2.68733-.337704.039947-.674679.080218-1.01133.11976-.399878.048056-.656699-.311585-.647484-.64444-.19105-.059745-.383233-.120868-.574607-.179885-.196805-.060562-.314792-.282445-.343618-.468995-.14138-.91145.714221-1.454961 1.477767-1.679805 1.000901-.294628 2.016468-.549555 3.027496-.802138C6.938956.967598 8.952403.548513 11.002775.36847c.704101-.061881.85294.840668.277362 1.136106-1.502987.76857-3.042604 1.478055-4.612688 2.114616 1.827289-.15017 3.656435-.25936 5.492211-.269572 1.697083-.010856 3.391386.114102 5.089926.11175 1.685003-.001394.889978.111444 2.562683-.027242Z"/></svg>