<svg xmlns="http://www.w3.org/2000/svg" viewBox="0 0 165 41" xml:space="preserve"><path d="M87.2 37c.2-.1.3-.1.5 0h-.5zM57.8 4.9c-.3.2-.5.1-.6 0 .2.1.4.1.6 0zM39.7 25c-.2 0-.3 0-.4-.1.2 0 .5 0 .4.1zm70.7 10.9c.1.1.1.1.2.1s.1.1.2.1c-.1 0-.1-.1-.2-.1s-.2 0-.2-.1c-.1 0-.1 0 0 0zm-2.1-2.9s0-.1 0 0c.2-.1.3 0 .3 0h-.3zM44.5 3.1c0-.1.1-.2.2-.2-.1.1-.2.1-.2.2zm38 12.1c0-.1-.1-.2-.2-.3.1 0 .2-.1.3-.1 0 .1-.1.3-.1.4zm26.2-5.2h-.4.4zM55.4 32.9c.1.1.2.1.3.1h-.1c-.2.1-.3 0-.2-.1zm26.2-6.1c0 .1-.1.2-.1.3-.1-.1 0-.2.1-.3zm38.7.1c.1.1.2.2.3.2-.1-.1-.2-.2-.3-.2zm21.3-12s.1 0 0 0c-.1.1-.2.1-.3.2l.1-.1c.1 0 .2-.1.2-.1zm-10.9-1-.3.2c.1-.1.2-.1.3-.2zm-24.1 9c.1 0 .2.1.2.2-.1-.1-.3-.2-.4-.2h.2zm3.7-5s.1-.1 0 0c.1.1.2.1.3.2 0 0 .1 0 .1.1l-.1-.1c-.1-.1-.2-.1-.3-.2zm-4.1-1c.3 0 .5 0 .6.1-.2 0-.4 0-.6-.1zm10.5 2.2c-.1-.1-.3-.1-.4-.1.2-.1.4-.1.4.1zm15.9-3.2c0 .1-.1.2-.1.2-.1-.1-.1-.1-.2-.1.2-.1.3-.1.3-.1zm-59.9 2.2c-.1 0-.2-.1-.2-.2-.1 0-.1 0-.1-.1v-.1c0 .1 0 .1.1.2 0 .1.1.2.2.2zM9.6 6.1c-.1 0-.2-.1-.2-.2 0 .1.1.1.2.2zm22.1 30.8c-.1 0-.2 0-.3.1.1-.1.2-.1.3-.1zm133.1-13.8c-.1-.2-.4-.2-.7-.2h-.2c-.2-.1-.5-.1-.7-.2h-.3c-.2-.1-.5-.1-.7-.2-.1-.2-.4-.2-.6-.3-.1-.2-.4-.1-.6-.3-.1-.1-.1-.1-.1-.2.2-.1.2-.4.3-.5.3-.3-.1-.3-.3-.4h-.5c-.4-.2-.9 0-1.4-.2-.1 0-.2 0-.2-.1-.1-.1-.3-.1-.4 0-.1 0-.2-.1-.2-.2-.1-.1-.2-.2-.3-.2-.1-.2-.1-.4 0-.6.7-.3 1.5.1 2.3-.2l.1-.1h.1c.2-.1.3-.1.4-.2.2.1.4.1.6 0 .4-.1.8-.1 1.2-.1.2-.1.5-.1.7-.2.2-.2.1-.4.2-.6 0-.1-.1-.2-.2-.3-.1-.1-.2-.1-.3-.2-.1 0-.1-.1-.2-.1-.2-.1-.3-.2-.5-.2-.1 0-.2-.1-.3-.1-.2-.2-.4-.4-.6-.5-.2-.1-.1-.4-.4-.5-.2-.2-.1-.5-.2-.7h.1l.1-.1v-.2s.1 0 .1-.1c0 0 0-.1-.1-.1 0-.1-.1-.2-.3-.3-.2-.2-.1-.5-.1-.8.1-.3.9-.1.7-.7h-.2c-.3-.2-.7 0-.9-.2-.1-.1-.2-.2-.4-.2-.1-.1-.1-.1-.2-.1v-.2c-.1 0-.1-.1-.1-.1 0-.2-.2-.3-.4-.3h-.2c-.2-.1-.5-.1-.6-.2-.4-.3-.9 0-1.3-.2l-.3-.3c-.1-.2-.2-.3 0-.5.1-.1.2-.2.3-.2.1.1.2.1.2 0 .4 0 .8-.1 1.2-.1.1 0 .1-.1.1-.1.1 0 .2 0 .3-.1.1.1.2.1.4.2h.7c.7-.4.1-.5-.3-.7-.3 0-.6.1-.9 0-.1-.1-.2-.1-.3 0-.1-.1-.2-.1-.3-.2-.1 0-.1-.1-.1-.2l-.3-.3c-.1-.1-.2-.1-.4-.2-.1 0-.1-.1-.2-.1l-.1-.1c-.1-.1-.2-.2-.3-.2h-.4c-.3 0-.7 0-1-.1h-.1l.1-.5c-.2-.2-.5-.1-.7-.2-.1 0-.2 0-.2-.1h-.3c0-.4.4-.6.9-.7l.1-.1h.1c.3-.1.3-.3 0-.4-.1-.2-.4-.2-.5-.4l-.1-.1c-.1-.1-.2-.1-.3-.1h-.8s0-.1-.1-.1l-.3-.3c-.3-.2-.2-.5 0-.8l.3-.3c.2 0 .3-.1.3-.3.1 0 .2-.1.3-.1s.2-.1.2-.2c0-.2-.1-.3-.3-.3h-.2c-.2-.1-.4-.1-.6-.2-.3-.3-.9 0-1.3-.3-.2-.2-.4-.1-.7-.1h-1c-.1 0-.2-.1-.3-.1h-.2c-.4-.3-.9 0-1.3-.2-.2 0-.4 0-.6-.1h-.2s0-.1-.1-.1c-.2-.3-.7 0-.9-.3-.4-.3-.9 0-1.3-.2-.3-.2-.7 0-1-.2-.3-.2-.7-.1-1-.2-.2-.3-.7-.1-1-.3h-.3c-.6-.3-1.4 0-2-.2h-.1c-.2 0-.3.1-.5 0-.6.1-1.2 0-1.8 0-.3-.2-.6-.2-1-.2-.6.1-1.2.1-1.8 0-.3-.1-.5-.1-.8-.1h-.8c-.4 0-.7 0-1.1.2-1.4.1-2.9-.1-4.3.1-.2 0-.4-.1-.6-.2h-.2c-.1.1-.3.1-.4 0h-.8c-.1 0-.2.1-.2.1-.1 0-.2-.1-.3-.1h-.5c-.2.1-.3.1-.5 0h-.6c-1.7-.3-3.5.1-5.2-.2-.2.1-.5.1-.7 0-.5.2-1 .1-1.5-.1-.6-.3-1.3-.3-1.8.1h-.5c-.2.1-.3.1-.5 0-.4-.3-.8-.3-1.2 0-.4.1-.9.1-1.3 0-.2-.1-.4-.1-.6-.1s-.4 0-.6.1c-.6.1-1.3.1-1.9 0-.4-.2-.8-.2-1.3 0-.6.2-1.1.2-1.7 0-.9.1-1.9.1-2.8 0-.2-.1-.5-.2-.7-.2-.4 0-.9-.1-1.2.3h-.1l-.1-.1c-.3.1-.6.1-.9.1-.1 0-.2.1-.3.1h-.1c-.1-.1-.3-.2-.5-.2H98c-.9.2-1.8.1-2.7.1h-.5c-.5.3-1 .3-1.5.1-.1.1-.3.1-.4 0-.2.1-.4.1-.5 0H92c-.5.1-1 .1-1.5 0-.1.1-.3.1-.4 0-1.1.2-2.3.1-3.4 0-.3-.1-.7-.1-1 0s-.6.1-1 0-.8-.1-1.2-.1H83c-.4 0-.8 0-1.2.1-.1.1-.3.1-.4.2h-.3c-.2-.1-.4-.1-.6 0-.4.1-.8.1-1.2 0-.7.1-1.4.2-2 0-.1-.1-.3-.2-.5-.2h-.4c-.2 0-.4.1-.6.2h-.6c-.2-.1-.4-.1-.6-.1H74c-.1 0-.3.1-.4.1H73c-.4.1-.7.2-1.1 0h-.5c-.2.1-.4 0-.5 0-.3.1-.5 0-.8 0-.1-.1-.2-.1-.3 0-.4.1-.8.1-1.3 0-.1-.1-.2-.1-.3 0-.1.1-.2.1-.3 0-.7.2-1.4.2-2 0-.1.1-.2 0-.2 0-.2-.2-.4-.2-.6-.2-.5.1-.9.4-1.4.2h-.1c-.7.3-1.6 0-2.3.2-.4 0-.8 0-1.1.1-.7.1-1.4.1-2 0-.3 0-.5 0-.8.1h-4.9c-.2 0-.3.1-.4.2-.1.1-.2.1-.3 0-.1 0-.2.1-.3.1 0-.1 0-.1-.1-.1-.1.1-.2 0-.2 0H50c-.3-.1-.5-.1-.8-.2h-.1c-.9.1-1.8.2-2.7 0-.3-.3-.6 0-.9.1-.1 0-.2.1-.4.2h-.3c-.7-.3-1.3.4-1.9 0-.4 0-.9 0-1.2.3-1.1.3-2.2-.1-3.2.2-.1.1-.1.1-.2 0-1.2.3-2.4-.1-3.6.2h-.6c-.2.1-.5.1-.7.2-.4.1-.8.1-1.2 0-.5.2-1.2 0-1.7.2-.3.1-.5.1-.8 0-.8.2-1.6-.1-2.4.2H27c-.2-.1-.4-.1-.6 0-.1.1-.1.1-.2 0-.1 0-.3.1-.4.2-.9-.1-1.7-.1-2.6 0h-1.5c-1 .3-2-.1-3 .2-.2.1-.3.1-.5 0-.7.2-1.4-.1-2.1.2-.3.1-.6.1-.9 0-.6.3-1.4-.1-2 .2l-.1.1H13c-.9.3-1.8-.1-2.7.2-.1.1-.1.1-.2 0-.2.1-.5 0-.7.2-.4.2-.9 0-1.3.2-.1.1-.3.1-.5.1-.2.1-.5 0-.7.3-.1-.1-.2.1-.4.1-.1.2-.4.1-.6.3-.2.1-.5.1-.6.3-.3.1-.5.3-.7.4l-.3.3c-.1.1-.2.2-.2.3-.3.1-.3.3-.4.5-.5.3 0 .9-.3 1.2-.2.1-.2.4-.3.5H3c0 .1 0 .2.1.2v.1c0 .1-.1.1-.1.2-.3.3.1.7-.3 1-.1.1-.2.2-.3.4v.1l-.1.1c-.2.1-.1.4-.3.5l-.3.3c-.2.1-.2.3-.3.5-.4.8 0 1.6-.3 2.4v.1l-.1.1c-.4.6.1 1.4-.3 2-.5.5 0 1-.3 1.5-.2.3-.3.6 0 .9.2.3.4.7.5 1H1v.1c.1.3.2.6 0 .9-.1.1-.2.1-.3.3-.1.1-.2.1-.3.3-.1.1-.3.2-.3.4l.2-.2-.1.1c-.1.4.1.7.4 1 0 .1.2.2.3.3.1.1.1.4.4.5 0 .1.1.2.3.3 0 .1.1.2.3.3.1.2.4.2.6.3.9.2.9.7.7 1.3-.2.1-.3.1-.3.3-.1 0-.3.1-.3.2-.2 0-.3.1-.3.3-.9.6-1.1 1.3-.7 2.2.1.1.2.2.3.2.2.2.5.1.6.3 1 .5-.2.5-.3.8-.1 0-.2.1-.3.2-.4.3 0 .7-.3 1-.2.1-.4.2-.3.5h-.2c-.4-.1-.4.2-.5.4.1.1.1.1 0 .2-.4.4 0 .9-.3 1.3-.3 0-.5.4 0 .8 0 .2.1.2.3.3l.3.3c.1 0 .1 0 .2.1v.1c-.1.1-.2.4.1.7.4.4-.1.9.4 1.2.1.2.1.4.3.5.1.2.1.4.3.5l.3.3c.1.1.2.2.3.2.1.1.2.1.3.2.1.1.2.2.4.2h.1l.1.1c.1.1.3.1.4 0h.2c0 .1 0 .1.1.2.1.3.4.3.7.3h.1l.1.1c.2.2.5.1.7.2.4.3.9 0 1.3.3.5-.1 1-.1 1.5 0 .4.2.9 0 1.3.2h.1l.1.1c.7.2 1.5.1 2.2 0 .4-.1.8-.1 1.1-.1.7-.2 1.3-.1 2-.1 2.1-.1 4.2.1 6.4-.1l.1-.1h.1c.1-.1.3-.1.5 0h.1l.1.1c.2.1.4.1.6 0s.3-.1.5 0c.8-.2 1.6.1 2.4-.2.4-.1.8-.1 1.1 0 .8-.3 1.6.1 2.3-.2.4-.1.8-.1 1.3 0 .1.1.2.1.3 0 1-.3 2.2.1 3.2-.2.4-.1.7-.2 1.1 0 .8-.3 1.6.1 2.4-.2h1.2c.7-.3 1.6.1 2.3-.2.6 0 1.2-.1 1.8 0 .7-.2 1.4 0 2.2-.1.1 0 .2-.1.2-.1 1.2.3 2.5.2 3.8 0h.6c.6-.3 1.4.1 2-.2l.1-.1h.1c4.5-.2 9-.2 13.5 0 .7-.1 1.4 0 2.1 0 .7.3 1.4 0 2.1.2.7 0 1.4-.1 2.1 0 .2.1.4.1.6 0h1.5c.4-.1.8-.2 1.1 0 .6-.1 1.1-.1 1.7 0 .4-.1.8-.1 1.2 0 .1-.1.2-.1.4 0 .3-.1.6-.1.9 0 .8-.1 1.5-.1 2.3 0 .2 0 .2-.1.2-.2.1 0 .2.1.5.1 1.3-.1 2.7.1 4-.1h.3c.4.1.9.2 1.3 0 .2-.1.4-.1.5 0 .1-.1.3-.1.5 0 .1-.1.3-.1.4 0 1.6-.3 3.3.1 4.9-.2h.3c1 .1 1.9.2 2.8 0h.9c.5-.2 1-.1 1.5 0 .9-.2 1.8-.1 2.6-.1 3.4-.1 6.8.1 10.2-.1.2-.1.4-.1.6 0 1.1.2 2.1.1 3.2 0h.3c1 .2 2-.1 3 .2.5-.1.9-.1 1.4 0 .2-.1.3-.1.5 0h.1l.1.1c.4.2.8.2 1.3 0 .4-.1.8-.2 1.3 0 .2.2.4.2.6 0 1.9-.1 3.7-.1 5.6 0 2.1-.3 4.3.1 6.4-.2l.1-.1h.1c.2-.1.5-.1.7-.2h.6c.1-.1.3-.2.4-.2h.2c.2-.2.3-.3.6-.3.4-.3.8-.2 1.3-.2 0-.1.1-.2.3-.2v-.2c.3 0 .6.1.9-.1l.1-.1h.1c1.1-.2 2.3-.1 3.4-.1 2.6 0 2.2.2 2.2-1.7 0-.3-.1-.7.1-1 .2-.1.5-.1.7-.2.4-.1.8-.1 1.3 0 .2-.2.2-.3 0-.5-.1-.2-.1-.3 0-.5.1-.1.2-.2.2-.3.2 0 .3-.1.4-.2.1-.1.3-.1.4 0 .1-.1.3-.1.4 0 .5-.2 1.2.1 1.7-.2.2-.1.1-.4.3-.5l.3-.3c.4-.3.9 0 1.3-.2.2-.1.5-.1.6-.3.3-.2.2-.5 0-.7-.1-.1-.1-.2-.1-.4-.1-.3-.3-.5-.7-.6h-.1l-.1-.1c-.2-.1-.5-.1-.7-.2-.2-.2-.2-.4 0-.6.2 0 .3-.1.4-.2.1 0 .1-.1.1-.1.2 0 .4 0 .6.1h.8c.5-.1.1-.5.4-.7l.3-.3s.1 0 .1-.1c0 0 0-.1-.1-.1-.1-.1-.1-.1-.2-.1 0 0 0-.1-.1-.1l-.1-.1c0-.1 0-.1.1-.2h.2c.2-.3-.1-.3-.3-.5h-.3c-.1-.1-.2 0-.3 0h-.3c0-.1 0-.1-.1-.1h-.2c-.2-.1-.2-.3-.2-.4h.2c.2 0 .4 0 .6-.1.1 0 .1-.1.1-.1.2 0 .4 0 .6-.1h.3c.2.1.4.1.6 0h.5c.3-.1.6-.1.8-.2.2.1.3.1.5 0 .4 0 .7-.4 1.1-.3.3-.1.6-.1.7-.3h.1v-.1h.2c.3 0 .7.1 1-.1.3-.2.7-.2 1 0h.5c.2 0 .3-.1.5-.2.8-.8.8-1 .5-1.1z" fill-rule="evenodd" clip-rule="evenodd"/></svg>