<?xml version="1.0" encoding="utf-8"?>
<svg width="92px" height="188px" viewBox="0 0 92 188" version="1.1" xmlns:xlink="http://www.w3.org/1999/xlink" xmlns="http://www.w3.org/2000/svg">
  <path d="M73.8998 4.67566C74.3265 3.62555 75.0123 2.77802 75.9214 2.10779C76.3473 1.79401 76.7288 1.41766 77.2815 0.938538C77.7134 1.13519 77.9519 0.71051 78.1681 0.325439C78.1821 0.300354 78.1962 0.275513 78.2101 0.250977C78.4318 0.272766 78.651 0.309998 78.8682 0.346802C79.6462 0.478882 80.3959 0.606079 81.1222 0C81.4696 0.362793 81.7886 0.75531 82.1681 1.07251C82.4589 1.31537 82.833 1.45172 83.1575 1.65649C83.4192 1.82166 83.7671 1.96234 83.8954 2.21094C84.5414 3.46277 84.9744 4.85309 84.9987 6.21973C85.0197 7.41003 84.8013 8.72076 84.0878 9.77698C83.3718 10.8374 82.6223 11.8851 81.6121 12.6973C81.5249 12.7675 81.5107 12.9314 81.442 13.1036C80.7522 13.0145 80.0907 13.1102 79.5476 13.6559C79.3167 13.8881 79.0271 14.0396 78.6709 13.8605C78.5631 13.8065 78.3951 13.7749 78.2953 13.822C77.5953 14.1538 76.9449 13.956 76.296 13.7586C76.0239 13.6758 75.7521 13.5931 75.4769 13.5496C75.2456 13.513 74.9885 13.3359 74.8353 13.1462C73.9059 11.996 73.062 10.8006 73.09 9.20166C73.0935 9.00104 73.0693 8.79993 73.0452 8.59875L73.0452 8.59863C73.0225 8.40967 72.9998 8.22064 73 8.03186C73.0002 7.65112 73.0054 7.25232 73.1124 6.89374C73.3368 6.14233 73.6047 5.40167 73.8998 4.67566ZM55.0837 28.5059C54.9246 28.3005 54.8485 27.9988 54.8313 27.7347C54.8069 27.3634 54.7905 27.0758 54.3079 26.9857C53.9814 26.9247 53.9357 26.7017 54.0723 26.3813C54.4174 25.5703 54.7502 24.7544 55.1069 23.9483C55.2386 23.6509 55.345 23.3792 55.7877 23.2709C56.191 23.1722 56.2725 22.6696 56.3365 22.2696C56.3464 22.2076 56.3447 22.1438 56.3422 22.0463C56.3406 21.9894 56.3387 21.9211 56.3387 21.8348C56.5117 22.053 56.6068 22.1732 56.7688 22.3774C56.944 22.1349 57.083 21.9424 57.2343 21.7334C57.3549 21.7369 57.436 21.7394 57.5079 21.7148C57.6555 21.6644 57.7642 21.5004 58.0958 21C58.3674 21.0347 58.6694 21.0787 58.9728 21.1104C59.2546 21.1398 59.5381 21.1521 59.8202 21.1793C59.9479 21.1917 60.0829 21.2005 60.1987 21.2474C61.056 21.595 61.132 21.7585 60.8599 22.6194C60.8512 22.6466 60.8391 22.674 60.827 22.7013C60.8027 22.756 60.7787 22.8106 60.7827 22.8635C60.8365 23.5875 60.4603 24.1646 60.0957 24.7239C60.0404 24.8087 59.9855 24.8929 59.9323 24.9773C59.6169 25.478 59.4442 25.9769 59.4148 26.5381C59.399 26.8406 59.2806 27.0133 59.0149 27.2081C58.5089 27.5792 58.0931 28.063 57.6185 28.4772C57.4127 28.6568 57.1696 28.8154 56.9155 28.9207C56.4189 29.1265 55.3984 28.9119 55.0837 28.5059ZM89.4078 31.5173C89.3966 31.5665 89.3944 31.6257 89.3923 31.6835C89.3887 31.7814 89.3851 31.8753 89.3384 31.9104C89.0704 32.1111 89.0745 32.3633 89.0787 32.6313C89.0797 32.6971 89.0808 32.7639 89.0779 32.8311C89.0699 33.0131 88.8928 33.2627 88.7288 33.3466C88.2831 33.5739 87.8701 33.792 87.7014 34.3361C87.6682 34.4437 87.4714 34.5321 87.3364 34.5615C87.1018 34.6126 86.8555 34.6031 86.6155 34.633C86.134 34.6924 85.674 34.7909 85.2694 35.1205C85.0776 35.2769 84.7976 35.314 84.5597 35.4105C84.1832 35.563 83.821 35.7615 83.4115 35.8083C82.833 35.8743 82.2546 35.9396 81.6755 35.9978C81.5939 36.0058 81.4984 35.9922 81.4266 35.9535C80.7897 35.6118 80.1241 35.3116 79.535 34.895C79.2084 34.6638 78.9969 34.2441 78.7593 33.8905C78.521 33.5368 78.2698 33.1796 78.1099 32.7859C78.0038 32.5246 78.0021 32.2073 78.0005 31.9102C78.0004 31.8918 78.0002 31.8737 78.0001 31.8556C77.9988 31.6248 78.0104 31.3939 78.022 31.1629L78.022 31.1627C78.0355 30.8915 78.0492 30.6202 78.0417 30.3496C78.033 30.0284 78.08 29.768 78.3293 29.5596C78.84 29.1328 78.8063 28.5043 78.8732 27.915C78.8857 27.8044 78.8884 27.6924 78.8977 27.5508C79.066 27.527 79.2139 27.5071 79.3615 27.4852C79.8599 27.4114 80.2393 27.0178 80.3091 26.5025C80.3918 25.8922 80.7162 25.5504 81.2661 25.4468C81.8584 25.3353 82.4493 25.2112 83.0342 25.0635C83.2172 25.0172 83.3718 24.86 83.5511 24.7831C83.7233 24.7094 83.908 24.66 84.0917 24.6256C84.1429 24.616 84.2032 24.6219 84.2628 24.6278C84.4324 24.6446 84.597 24.6608 84.5391 24.3167C84.6107 24.3101 84.6888 24.2932 84.7671 24.2763C84.9386 24.2393 85.1101 24.2023 85.2126 24.2734C85.653 24.579 85.937 24.496 86.1493 24C87.0382 24.4374 87.9674 24.4858 88.8844 24.6001C89.6661 24.6974 89.9402 24.8058 90.5593 25.2402C90.7007 25.673 90.8239 26.0325 90.934 26.3966L90.9363 26.4045C90.9744 26.5305 91.0178 26.6746 90.9924 26.7946C90.8698 27.3723 90.7264 27.9453 90.5823 28.5176C90.5549 28.6266 90.5151 28.7842 90.439 28.8192C89.9525 29.0418 90.0046 29.5209 89.9392 29.9312C89.8777 30.3181 89.8304 30.689 89.5605 31.0033C89.4562 31.1251 89.448 31.3412 89.4078 31.5173ZM70.9565 56.2778C70.6927 56.3986 70.4587 56.3148 70.2253 56.2313C70.0316 56.162 69.8384 56.0928 69.6288 56.1407C69.4913 56.1721 69.2676 56.0443 69.155 55.9219C68.631 55.3522 67.9418 55.3246 67.2753 55.298C67.1962 55.2949 67.1173 55.2917 67.0392 55.2877C65.9523 55.2316 64.991 54.9263 64.166 54.1993C64.1498 54.1851 64.1338 54.1705 64.1178 54.1561C63.9739 54.0258 63.8329 53.8982 63.5808 53.9544C63.3729 54.0008 63.2158 53.8615 63.1827 53.6047C63.1489 53.3416 63.0691 53.0847 63 52.784C63.2025 52.4985 63.4011 52.174 63.153 51.7628C63.1177 51.7044 63.1594 51.5902 63.1948 51.4937C63.2012 51.4763 63.2073 51.4595 63.2128 51.4437C63.4409 50.7824 63.6646 50.1192 63.9103 49.4645C64.0635 49.0564 63.9998 48.5706 64.3434 48.231C64.3734 48.2012 64.3735 48.1353 64.4058 48.114C65.0625 47.6768 65.0309 46.9053 65.2961 46.2751C65.7164 45.2769 66.1682 44.2914 66.636 43.3151C66.8225 42.9255 67.4496 42.7064 67.9116 42.7766C68.142 42.8115 68.3784 42.8065 68.6705 42.8229C68.6304 42.5182 68.6021 42.3029 68.5619 42C69.2366 42.2545 69.889 42.4608 70.5066 42.7442C71.2378 43.0799 71.9475 43.4668 72.6501 43.8613C73.0775 44.1014 73.4603 44.4228 73.8876 44.6632C74.5845 45.0557 75.2366 45.5317 76.0045 45.7979C76.1866 45.8609 76.2905 46.1257 76.4625 46.2529C77.2684 46.849 77.8962 47.6353 78.6294 48.3085C79.0139 48.6614 79.0538 49.1854 78.9523 49.6407C78.7362 50.6093 78.4369 51.563 77.8807 52.4C77.562 52.8801 77.1841 53.3203 76.8699 53.8029C76.5393 54.3108 76.2445 54.8431 75.9498 55.3738C75.67 55.8777 75.3199 56.2873 74.7782 56.5278C74.5629 56.6237 74.3969 56.8326 74.2506 56.9546C73.9738 56.9725 73.7405 56.9918 73.507 56.9999C73.4481 57.0018 73.3702 56.9858 73.3311 56.9471C72.9214 56.5423 72.4443 56.4163 71.885 56.5356C71.8046 56.5526 71.7124 56.5165 71.6213 56.4807C71.5854 56.4667 71.5498 56.4526 71.5151 56.442C71.4534 56.423 71.3867 56.3925 71.3204 56.362C71.1832 56.2991 71.047 56.2366 70.9565 56.2778ZM41.996 47.0747C42.0574 47.0814 42.1187 47.088 42.1798 47.0945C42.5994 47.1385 43.047 47.8668 42.996 48.3011C42.9308 48.8572 42.8107 49.4072 42.7145 49.9597C42.7078 49.9988 42.6973 50.0386 42.6868 50.0786C42.6632 50.1683 42.6396 50.2582 42.6578 50.3388C42.7594 50.7905 42.5444 51.13 42.3185 51.4871L42.317 51.4894C41.8689 52.1976 41.8412 52.5909 42.1267 53.295C42.0101 53.5016 41.9061 53.707 41.7816 53.899C41.7007 54.0237 41.6096 54.16 41.4882 54.2374C41.085 54.4942 40.6658 54.7266 40.1996 54.9996C39.8151 54.6926 39.3857 54.7947 38.939 54.9011C38.7743 54.9402 38.6072 54.98 38.439 55C38.2639 54.8938 38.0793 54.7423 37.8672 54.6609C37.1432 54.3829 36.6735 53.8646 36.2931 53.2147C36.0415 52.7852 35.9757 52.3533 36.0073 51.8771C36.0231 51.6413 36.0193 51.4042 36.0154 51.157L36.0154 51.1569C36.0137 51.0437 36.0118 50.9283 36.0118 50.8101C36.4829 50.0754 37.4386 49.689 37.8047 48.778C37.8669 48.6232 38.04 48.5035 38.1802 48.3895C38.5635 48.0779 38.9492 47.7685 39.3469 47.4753C40.1603 46.8754 41.0887 46.9762 41.996 47.0747ZM16.2229 66.0284C16.4164 65.278 16.6437 64.5358 16.8695 63.7937C16.9453 63.5447 17.1707 63.4501 17.4078 63.4727C17.9928 63.5288 18.3322 63.1985 18.6357 62.7861C18.7241 62.666 18.8107 62.5278 18.9329 62.451C19.5165 62.0846 19.9016 61.5438 20.2926 61.0071C20.3322 60.9528 20.3737 60.8707 20.4106 60.7975C20.4562 60.7073 20.495 60.6307 20.5149 60.636C20.7489 60.6987 20.9161 60.5928 21.0902 60.4827C21.243 60.3859 21.4012 60.2859 21.6145 60.2934C22.1948 60.3139 22.7784 60.2344 23.3625 60.1548C23.6265 60.1188 23.8906 60.0829 24.1545 60.0561C24.2144 60.05 24.275 60.0421 24.3361 60.034C24.5454 60.0065 24.7582 59.9786 24.9506 60.0242C25.3876 60.1279 25.8187 60.2827 26.2255 60.4717C26.7028 60.6935 27.0635 61.5289 26.8824 62.0164C26.7704 62.3181 26.8014 62.5563 26.9152 62.8414C27.2561 63.6967 27.6322 64.5474 27.8665 65.4324C28.118 66.3832 28.0201 67.3435 27.5212 68.2347C27.4268 68.4037 27.3157 68.6059 27.33 68.7837C27.3929 69.5751 27.0353 70.1201 26.3394 70.5413C25.4635 70.2598 25.4187 70.2737 25.0774 70.8884C24.9591 70.8884 24.8407 70.8822 24.7233 70.8762C24.4612 70.8625 24.2039 70.8492 23.963 70.9048C23.5371 71.0032 23.1458 71.0243 22.7057 70.9728C22.2205 70.9161 21.7258 70.9339 21.2317 70.9517C21.0576 70.9579 20.8835 70.9642 20.71 70.9672C20.6299 70.9685 20.5496 70.9724 20.4696 70.9763C20.0841 70.9951 19.703 71.0137 19.3527 70.7512C19.2014 70.6381 18.9796 70.5995 18.783 70.5639C18.3092 70.4786 17.9683 70.2603 17.7299 69.826C17.3663 69.1635 16.9581 68.5233 16.54 67.8916C16.3868 67.6604 16.1511 67.4814 16 67.3266C16.0751 66.8751 16.1157 66.4435 16.2229 66.0284ZM47.0454 81.3036C46.9697 81.3456 46.8351 81.4204 46.6765 81.5087C46.2975 81.3533 45.9028 81.1917 45.4695 81.014C44.46 81.3324 44.0316 80.7089 43.6229 79.8054C43.1459 78.7512 43.1047 77.653 43.457 76.541C43.5763 76.1646 43.6774 75.7819 43.8073 75.3313C43.4952 75.214 43.1567 75.0946 43.0959 74.7166C43.026 74.2832 42.9929 73.8381 43.0012 73.3993C43.0042 73.2476 43.1746 73.0963 43.276 72.9501C43.5475 72.5592 43.8953 72.2377 44.0684 71.7554C44.1744 71.4596 44.4331 71.1781 44.8506 71.3016C45.1207 71.3816 45.2625 71.2327 45.3883 70.9719C45.5294 70.6794 45.724 70.3903 45.9615 70.1815C46.1176 70.0443 46.4017 69.976 46.61 70.0077C47.3783 70.1255 48.1387 70.2996 48.9032 70.4474C48.9926 70.4647 49.0873 70.4596 49.1793 70.4546L49.1924 70.4539C50.276 70.3969 51.2169 70.7631 52.0594 71.463C52.252 71.623 52.4977 71.7356 52.736 71.8096C53.3844 72.0105 53.642 72.5811 53.8372 73.143C54.0133 73.6506 54.0646 74.2147 53.9006 74.761C53.8668 74.8735 53.8134 74.9795 53.7734 75.0902C53.6945 75.3108 53.6172 75.532 53.5416 75.7539C53.4913 75.9012 53.4882 76.103 53.39 76.1885C53.0514 76.4841 52.939 76.8882 52.8195 77.2957C52.6373 77.9171 52.4683 78.5431 52.2695 79.1584C52.1973 79.382 52.0438 79.5754 51.948 79.7925C51.786 80.1602 51.6387 80.5349 51.4885 80.9083C51.4288 81.0566 51.3787 81.2091 51.3136 81.3895C51.1914 81.3704 51.0826 81.3505 50.9731 81.3367C50.9252 81.3307 50.877 81.3234 50.8289 81.3162C50.5116 81.2681 50.1945 81.22 49.9419 81.5413C49.9104 81.5815 49.8339 81.6221 49.7927 81.6096C49.4767 81.5146 49.2572 81.6809 49.0272 81.8552C48.9618 81.9048 48.8955 81.955 48.8259 82C48.2592 81.7783 47.6818 81.5525 47.0454 81.3036ZM82.4421 77.3579C82.1355 77.1549 81.8286 76.9517 81.4399 76.6943C81.3625 76.4401 81.2418 76.0771 81.1448 75.7081C81.108 75.5686 81.0981 75.4087 81.125 75.2676C81.2048 74.8488 81.2152 74.4491 81 74.2037C81.0679 73.8151 81.1359 73.5338 81.1625 73.2484C81.2023 72.8231 81.1934 72.3922 81.2465 71.9692C81.2661 71.8142 81.3944 71.668 81.49 71.5294C81.5867 71.3889 81.7448 71.2795 81.8041 71.1275C81.9535 70.7441 82.1565 70.4997 82.6101 70.5741C82.7178 70.5918 82.915 70.5334 82.947 70.4565C83.0806 70.1368 83.3259 70.1154 83.5728 70.0938C83.6769 70.0847 83.7813 70.0755 83.8777 70.0439C84.2557 69.9201 84.5292 70.0787 84.8293 70.2626C85.1188 70.4397 85.4365 70.5692 85.7844 70.7405C85.8433 70.6976 85.9403 70.6268 86.0104 70.5759C86.3348 70.9448 86.655 71.3081 86.9744 71.6724C87.1871 71.9149 87.4141 72.027 87.7627 71.9392C87.7882 71.9328 87.814 71.926 87.84 71.9191C88.0863 71.8542 88.3544 71.7835 88.6212 71.9547C88.677 71.9905 88.7749 71.9569 88.8744 71.9228C88.9252 71.9054 88.9763 71.8878 89.0226 71.8792C89.1721 71.8516 89.3225 71.8312 89.4844 71.8058C89.5253 71.9847 89.4631 72.1379 89.405 72.2816C89.3333 72.459 89.2673 72.6216 89.4091 72.7994C89.5922 73.0289 89.788 73.248 90 73.4977C89.2526 73.5623 88.7886 74.1533 88.7933 74.9649C88.0825 75.48 87.9098 75.8792 88.1931 76.4636C87.7332 76.4673 87.5066 76.7874 87.2882 77.1211C87.2062 77.2462 87.1246 77.3762 87.0205 77.481C86.6914 77.8121 86.3556 78.0552 85.8495 77.7725C85.5125 77.5844 85.1669 77.5376 84.7915 77.8446C84.4536 78.1208 84.0234 77.9821 83.6469 77.7896C82.9752 77.446 82.9512 77.4412 82.4421 77.3579ZM20.9331 86.3402C20.8071 86.1683 20.6802 85.9862 20.5204 85.8562C19.9084 85.358 19.5386 84.6957 19.3121 83.9199C19.2643 83.7561 19.1315 83.6205 19.0864 83.4565C19.0314 83.2555 18.9773 83.0286 19.0098 82.8292C19.1348 82.0588 19.3011 81.296 19.4386 80.5275C19.4594 80.4109 19.4498 80.2882 19.4403 80.1655C19.4215 79.9208 19.4026 79.676 19.6238 79.4799C19.5592 79.0923 19.7677 78.8634 19.9769 78.6337C20.093 78.5061 20.2094 78.3784 20.2794 78.2231C20.3478 78.0714 20.7404 77.9521 20.9207 78.019C21.9838 78.4144 23.0852 78.5847 24.1863 78.7706C25.1108 78.927 25.8 79.4232 26.2358 80.3433C26.5126 80.9275 26.8572 81.4745 27.1736 82.0365C27.775 83.1046 28.075 84.1995 27.984 85.3375C27.9463 85.808 27.7804 86.2606 27.4701 86.645C26.9207 87.3257 26.2926 87.7273 25.4135 87.7283C24.694 87.7291 23.9746 87.8989 23.209 88C23.2378 87.7567 23.2675 87.6113 23.27 87.4653C23.2761 87.0828 23.0748 86.877 22.7328 87.0005C22.5042 87.0833 22.3496 87.0543 22.1665 86.9294C22.0844 86.8733 21.9615 86.8093 21.8834 86.8364C21.4164 87 21.1844 86.6833 20.9448 86.3562L20.9331 86.3402ZM84.575 102.228C84.7039 101.802 84.4677 101.6 84.2473 101.412C84.1749 101.35 84.1042 101.289 84.0488 101.223C84.0583 100.694 84.3829 100.671 84.7838 100.703C84.673 100.475 84.5402 100.326 84.5402 100.177C84.5399 99.9279 84.5714 99.679 84.6045 99.4174L84.6045 99.4171C84.6182 99.3085 84.6322 99.1975 84.6444 99.0835C84.701 99.0607 84.8223 99.0112 85 98.9392C84.8414 98.7094 84.7179 98.5303 84.5701 98.3157C84.5007 98.5068 84.4585 98.6234 84.4303 98.7008C84.1392 98.3247 83.8677 97.9734 83.5753 97.5955C83.6416 97.4675 83.7692 97.4916 83.8978 97.5159C84.056 97.5458 84.2157 97.5759 84.2643 97.3235C84.0302 96.804 84.0302 96.804 83.4161 96.6143C83.3105 96.6947 83.1893 96.7734 83.083 96.871C82.8477 97.0864 82.5935 97.0883 82.3624 96.9043C82.1179 96.7097 81.9065 96.6152 81.5995 96.7804C81.436 96.8684 81.3619 96.6946 81.4218 96.5059C81.6798 96.4293 81.9333 96.3541 82.2531 96.2594C81.9791 95.8387 81.7113 95.9351 81.4568 96.0266C81.3431 96.0674 81.2322 96.1073 81.1244 96.1C80.8066 95.7421 80.1553 95.7286 80.1208 95C80.0719 95.0815 79.9977 95.1567 79.9781 95.246C79.8741 95.7208 79.6172 96.0011 79.1615 96.073C79.0497 96.0906 78.8816 96.1439 78.8506 96.2284C78.7153 96.599 78.4139 96.627 78.127 96.7236C78.0912 96.7357 78.0543 96.7471 78.0172 96.7584C77.7163 96.8507 77.3988 96.9482 77.5344 97.4644C77.5488 97.5197 77.472 97.6217 77.4163 97.677C76.917 98.1738 76.9611 98.7982 77.0704 99.428C77.1257 99.7466 77.251 100.051 77.3041 100.37C77.5203 101.664 78.1101 102.656 79.2142 103.271C79.4958 103.428 79.7673 103.628 80 103.859C80.2719 104.129 80.5634 104.257 80.9264 104.232C81.2916 104.207 81.5917 104.323 81.7875 104.693C81.8557 104.821 81.9825 104.914 82.0618 105C82.2087 104.706 82.3346 104.476 82.4417 104.235C82.5587 103.972 82.6584 103.7 82.7579 103.451C82.911 103.448 83.0524 103.52 83.1875 103.589C83.3955 103.694 83.5889 103.792 83.7882 103.6C83.6194 103.32 83.4384 103.095 83.337 102.834C83.1716 102.407 83.2186 102.332 83.6296 102.087C83.7261 102.21 83.8247 102.336 83.9229 102.461C84.1583 102.377 84.3635 102.304 84.575 102.228ZM60.9969 98.5237C60.9969 98.5907 60.9976 98.6655 60.9983 98.7458C61.0002 98.9718 61.0027 99.2424 60.9919 99.5125C60.9865 99.6509 60.9497 99.8004 60.8839 99.9218C60.6882 100.283 60.5635 100.646 60.6959 100.933C60.5203 101.269 60.3754 101.508 60.2682 101.761C60.1085 102.14 59.9929 102.537 59.8212 102.909C59.7583 103.046 59.595 103.143 59.4652 103.242C59.3335 103.343 59.1528 103.398 59.0531 103.52C58.8018 103.829 58.54 103.994 58.1334 103.795C58.037 103.748 57.834 103.745 57.7817 103.806C57.5637 104.06 57.326 104.009 57.0869 103.958C56.986 103.937 56.8849 103.915 56.7849 103.916C56.3925 103.921 56.1802 103.696 55.9496 103.442C55.7274 103.196 55.4646 102.986 55.1857 102.728C55.1178 102.751 55.006 102.788 54.9249 102.814C54.725 102.383 54.5272 101.958 54.3304 101.532C54.1996 101.248 54.0177 101.08 53.6635 101.06C53.3923 101.045 53.0818 101.057 52.8577 100.799C52.8152 100.75 52.7133 100.752 52.6095 100.755C52.5566 100.756 52.5033 100.758 52.457 100.752C52.3083 100.734 52.1604 100.71 52.0002 100.687C52.0131 100.511 52.1157 100.388 52.2119 100.274C52.3308 100.132 52.4397 100.001 52.3569 99.7977C52.2502 99.5347 52.1285 99.2777 52 98.9877C52.7241 99.1437 53.3318 98.7358 53.5605 97.9906C54.3796 97.7233 54.6572 97.4073 54.5577 96.7902C54.9929 96.9193 55.2987 96.6912 55.601 96.4484C55.7141 96.3572 55.8284 96.2617 55.9567 96.1956C56.3625 95.9867 56.7493 95.8608 57.1458 96.2656C57.4095 96.5352 57.7224 96.6776 58.1649 96.5043C58.563 96.3485 58.9292 96.5996 59.2291 96.8846C59.7645 97.3927 59.7855 97.4042 60.2419 97.6271C60.473 97.9015 60.7041 98.176 60.9969 98.5237ZM5.59778 108.772C5.02625 108.491 4.40833 108.311 3.93408 107.817C3.66785 107.54 3.31921 107.341 2.98792 107.143C2.12549 106.627 1.5144 105.912 1.27747 104.879C1.25891 104.798 1.22375 104.721 1.16907 104.565C0.726318 104.632 0.395264 104.476 0.190674 104.086C0.108765 103.929 0.0383301 103.756 0.0065918 103.582C-0.00769043 103.504 0.00390625 103.421 0.0155029 103.337L0.0155029 103.337C0.0246582 103.272 0.0339355 103.206 0.0306396 103.141C-0.0349121 101.874 0.786621 101.236 1.59973 100.604C1.65247 100.563 1.70496 100.522 1.75732 100.481C1.88867 100.378 2.11584 100.384 2.30505 100.389L2.33606 100.39C2.50427 100.394 2.67285 100.41 2.84119 100.425L2.84131 100.425C3.09351 100.448 3.34521 100.472 3.59521 100.457C3.86316 100.44 4.15515 100.336 4.37988 100.18C4.75134 99.9241 5.06641 99.9647 5.448 100.154C6.18359 100.518 6.79919 101.056 7.44006 101.56C7.75745 101.81 8.14941 101.988 8.23083 102.462C8.24329 102.534 8.24622 102.612 8.24902 102.689C8.25415 102.827 8.25928 102.963 8.31885 103.066C8.53271 103.436 8.45471 103.852 8.56519 104.227C8.62964 104.445 8.8335 104.618 9 104.847C8.63904 105.113 8.59827 105.538 8.63928 106.026C8.73315 107.137 8.37659 108.092 7.60754 108.862C7.51965 108.95 7.35986 108.992 7.23181 108.996C6.9342 109.006 6.6333 109 6.33813 108.962C6.08691 108.929 5.82397 108.883 5.59778 108.772ZM82.9323 100.879C83.0468 100.724 83.1461 100.622 83.205 100.499C83.2527 100.398 83.2516 100.27 83.2725 100.152C83.6039 100.33 83.6251 100.379 83.6191 101.017C83.3776 100.968 83.1862 100.93 82.9323 100.879ZM28.6848 115.192C28.5781 115.212 28.4849 115.394 28.426 115.519C28.3389 115.704 28.2828 115.903 28.2228 116.099C27.9792 116.893 27.5718 117.116 26.723 116.947C26.5808 116.919 26.4309 116.925 26.2565 116.933C26.1685 116.937 26.0742 116.941 25.9716 116.941C25.8712 116.436 25.3853 116.095 25.1044 115.65C24.5587 114.785 23.7987 114.031 23.5249 113.008C23.4753 112.823 23.421 112.639 23.3667 112.454C23.1118 111.588 22.8573 110.724 23.0942 109.785C23.3523 109.85 23.6359 109.922 23.9755 110.007C23.9008 109.587 24.1151 109.296 24.3274 109.007C24.4729 108.81 24.6173 108.614 24.667 108.378C24.9296 108.319 25.1907 108.321 25.3754 108.208C26.0105 107.819 26.6301 108.037 27.1218 108.358C27.7482 108.766 28.4185 108.803 29.1818 108.887C29.4812 109.799 30.4385 110.23 31 110.908C30.9757 111.319 30.9501 111.613 30.9427 111.907C30.924 112.64 30.6931 113.32 30.2769 113.917C30.0745 114.207 29.7113 114.397 29.4139 114.625C29.1713 114.81 29.0461 115.122 28.6848 115.192ZM60.2926 120.414C60.3112 120.418 60.3308 120.423 60.351 120.429C60.4265 120.449 60.5087 120.472 60.5583 120.443C60.9908 120.198 61.2861 120.411 61.5804 120.623C61.6974 120.707 61.8141 120.791 61.9393 120.846C62.1228 120.928 62.2872 121.112 62.4698 121.126C63.1978 121.183 63.4305 121.687 63.6047 122.273C63.7192 122.657 63.8534 123.035 63.9709 123.419C63.9967 123.502 64.0062 123.597 63.9958 123.684C63.9453 124.11 63.9111 124.54 63.8239 124.959C63.6521 125.784 63.302 126.524 62.7561 127.181C62.2291 127.816 61.6222 128.348 60.9232 128.775C60.6777 128.924 60.3801 128.992 60.1417 129.15C59.8502 129.343 59.5918 129.589 59.3269 129.82C59.21 129.922 59.1328 130.097 59.0015 130.151C58.8618 130.208 58.725 130.273 58.5884 130.338C58.0677 130.584 57.5499 130.83 56.8925 130.659C56.5188 130.562 56.016 130.684 55.6594 130.873C55.287 131.069 55.0232 131.026 54.7262 130.828C54.089 130.403 53.4717 129.97 53.0845 129.263C52.9772 129.068 52.8435 128.902 52.8364 128.673C52.8151 127.981 52.8944 127.309 53.1544 126.654C53.2761 126.348 53.3324 126 53.3451 125.669C53.3573 125.347 53.3369 125.024 53.3149 124.679C53.3052 124.525 53.2952 124.366 53.2876 124.201C53.2711 124.2 53.2546 124.199 53.2382 124.198C52.896 124.176 52.5648 124.155 52.6979 123.64C52.7169 123.567 52.5675 123.419 52.4656 123.353C52.3358 123.269 52.1749 123.234 52 123.167C52.0527 122.884 52.1033 122.611 52.162 122.295C52.2866 122.248 52.4271 122.172 52.5767 122.142C52.7708 122.103 52.9175 122.045 52.9604 121.824C52.9757 121.745 53.0707 121.611 53.1061 121.618C53.5243 121.701 53.5756 121.463 53.6296 121.212C53.6443 121.144 53.6592 121.075 53.6814 121.011C53.7676 120.766 53.9285 120.547 54.0518 120.325C54.0704 120.319 54.0883 120.313 54.1051 120.306C54.1388 120.293 54.1686 120.281 54.1938 120.287C55.4803 120.604 56.7288 120.413 57.9713 120.038C58.1765 119.977 58.4237 119.999 58.6404 120.041C59.1943 120.148 59.7417 120.289 60.2926 120.414ZM11.0499 125.47C12.024 125.282 13.0217 125.222 13.9973 125.04C14.3737 124.97 14.6876 124.971 14.9723 125.211C15.015 125.247 15.0583 125.283 15.1016 125.319C15.5896 125.724 16.0789 126.13 15.9893 126.905C15.9695 127.076 15.9733 127.25 15.9771 127.424C15.9805 127.582 15.984 127.74 15.9696 127.897C15.9521 128.087 15.9114 128.363 15.7864 128.438C15.2909 128.737 15.2842 129.232 15.3314 129.668C15.3867 130.18 15.2922 130.667 15.198 131.154C15.147 131.417 15.0961 131.68 15.069 131.947C15.0022 132.604 14.5232 133.14 13.9341 133.466C13.335 133.797 12.7858 134.166 12.3665 134.723C12.2167 134.922 12.0768 135.057 11.7325 134.977C11.4353 134.907 11.1233 134.91 10.8099 134.912L10.8097 134.912C10.5836 134.914 10.3571 134.916 10.1349 134.891C9.87036 134.861 9.60681 134.717 9.36853 134.579C9.0896 134.417 8.83667 134.327 8.50891 134.451C8.27002 134.542 7.99817 134.568 7.7395 134.577C7.22607 134.595 7.10474 134.457 7.17236 133.955C7.20459 133.715 7.26306 133.478 7.32947 133.245C7.4375 132.868 7.4657 132.506 7.18726 132.186C6.90637 131.863 7.04358 131.505 7.16199 131.196L7.16394 131.191C7.26636 130.925 7.31555 130.734 7 130.554C7.39844 130.21 7.44226 129.834 7.4259 129.456C7.40906 129.076 7.53149 128.778 7.80823 128.532C8.0824 128.289 8.32031 127.975 8.63489 127.815C9.03564 127.612 9.04553 127.357 8.92737 127.006C8.90015 126.925 8.88806 126.838 8.8606 126.718C8.99963 126.647 9.13489 126.589 9.25989 126.513C9.38611 126.437 9.57104 126.369 9.61157 126.255C9.86194 125.545 10.5165 125.573 11.0499 125.47ZM79.4421 134.358C79.1353 134.155 78.8285 133.952 78.4399 133.694C78.3625 133.44 78.2417 133.077 78.1448 132.708C78.108 132.569 78.098 132.409 78.1249 132.268C78.2047 131.849 78.2152 131.449 78 131.204C78.0679 130.815 78.1357 130.534 78.1624 130.248C78.2023 129.823 78.1934 129.392 78.2463 128.969C78.266 128.814 78.3944 128.668 78.4899 128.529C78.5865 128.389 78.7448 128.28 78.8041 128.127C78.9534 127.744 79.1563 127.5 79.6101 127.574C79.7175 127.592 79.9149 127.533 79.9469 127.457C80.0804 127.137 80.3258 127.115 80.5726 127.094C80.6768 127.085 80.7813 127.075 80.8776 127.044C81.2556 126.92 81.5291 127.079 81.8292 127.263C82.1187 127.44 82.4364 127.569 82.7843 127.74C82.8433 127.698 82.9402 127.627 83.0103 127.576C83.3348 127.945 83.6549 128.308 83.9744 128.672C84.187 128.915 84.4141 129.027 84.7627 128.939C84.7881 128.933 84.8138 128.926 84.8398 128.919C85.0861 128.854 85.3541 128.783 85.6211 128.955C85.6769 128.99 85.7747 128.957 85.8743 128.923C85.925 128.905 85.9763 128.888 86.0226 128.879C86.1719 128.852 86.3223 128.831 86.4843 128.806C86.5253 128.985 86.4631 129.138 86.4049 129.282C86.3331 129.459 86.2673 129.622 86.4089 129.799C86.592 130.029 86.7877 130.248 87 130.498C86.2524 130.562 85.7885 131.153 85.7932 131.965C85.0824 132.48 84.9097 132.879 85.1931 133.464C84.733 133.467 84.5065 133.787 84.2881 134.121C84.2061 134.246 84.1246 134.376 84.0204 134.481C83.6914 134.812 83.3556 135.055 82.8494 134.773C82.5125 134.584 82.1667 134.538 81.7914 134.845C81.4536 135.121 81.0234 134.982 80.6467 134.789C79.9751 134.446 79.9512 134.441 79.4421 134.358ZM38.9615 142.065C38.8663 142.429 38.7709 142.793 38.6503 143.255C38.4247 143.413 38.1067 143.649 37.7742 143.865C37.6486 143.946 37.4933 144.008 37.3441 144.028C36.9011 144.088 36.5011 144.209 36.3323 144.499C35.9232 144.56 35.6207 144.587 35.3285 144.654C34.8928 144.755 34.4688 144.905 34.0308 144.992C33.9011 145.018 33.7527 144.973 33.6104 144.93C33.5765 144.92 33.5431 144.91 33.5103 144.901C33.3375 144.853 33.1743 144.735 33.0029 144.728C32.5709 144.708 32.2583 144.592 32.175 144.127C32.1552 144.017 32.0292 143.845 31.942 143.839C31.4254 143.804 31.4285 143.352 31.2107 143.072C30.9569 142.746 31.0198 142.428 31.0981 142.077C31.1738 141.738 31.192 141.387 31.2417 140.994C31.1787 140.951 31.0751 140.88 31 140.828C31.2538 140.393 31.5034 139.963 31.754 139.534C31.9209 139.248 31.9536 138.991 31.746 138.682C31.7307 138.659 31.715 138.636 31.6991 138.613C31.5497 138.395 31.3868 138.158 31.4641 137.844C31.4803 137.778 31.4133 137.694 31.3451 137.609C31.3102 137.565 31.275 137.521 31.2505 137.479C31.1713 137.343 31.099 137.204 31.0178 137.055C31.181 136.957 31.3545 136.967 31.5171 136.976C31.7179 136.988 31.9021 136.998 32.0294 136.802C32.1936 136.55 32.3431 136.288 32.5173 136C32.8402 136.704 33.5869 136.96 34.3901 136.689C35.1472 137.21 35.6028 137.247 36.0845 136.78C36.2471 137.225 36.6432 137.34 37.0498 137.442C37.2023 137.48 37.3593 137.517 37.4991 137.583C37.9417 137.794 38.2988 138.04 38.1937 138.624C38.1238 139.012 38.1969 139.363 38.6312 139.626C39.0221 139.864 39.0333 140.326 38.9727 140.755C38.8646 141.519 38.8679 141.544 38.9615 142.065ZM71.7719 148.36C71.7815 148.38 71.791 148.399 71.7994 148.417C72.2318 149.344 71.9487 149.708 71.1071 150.104C70.6631 150.313 70.1537 150.383 69.6809 150.575C69.3955 150.691 69.0686 150.696 68.7402 150.702C68.5756 150.705 68.4105 150.708 68.2504 150.724C67.9301 150.758 67.6123 150.818 67.2197 150.877C67.0431 150.647 66.8104 150.689 66.5182 150.742C66.465 150.751 66.4098 150.761 66.3527 150.77C66.2024 150.793 66.0505 150.833 65.8975 150.873C65.4709 150.984 65.0342 151.099 64.5928 150.857C64.5203 150.818 64.4213 150.821 64.3342 150.817C63.8428 150.795 63.4095 150.664 63.0077 150.332C62.786 150.15 62.4412 150.108 62.1438 150.04C61.9008 149.984 61.7379 149.884 61.7019 149.616C61.6066 148.905 61.3798 148.24 61.1107 147.576C60.9413 147.158 60.9695 146.851 61.174 146.608C61.2797 146.483 61.4318 146.374 61.63 146.276C61.6523 146.126 61.6752 145.973 61.7019 145.795C62.1503 145.913 62.5289 145.977 62.6868 145.352C62.7397 145.142 63.1212 144.892 63.3588 144.884C63.9727 144.866 64.1162 144.394 64.3123 143.992C64.636 143.328 64.6964 143.304 65.3861 143.281C66.1213 143.256 66.8538 143.139 67.5872 143.061C67.6318 143.056 67.6798 143.043 67.7274 143.031C67.8188 143.007 67.9089 142.984 67.9729 143.016C68.6897 143.378 69.5477 143.195 70.2412 143.65C70.4176 143.766 70.6472 143.797 70.8755 143.875C70.9467 143.999 70.9973 144.219 71.1272 144.292C71.5869 144.552 71.5939 144.976 71.5734 145.411C71.5497 145.913 71.4994 146.415 71.4547 146.977C71.4537 146.991 71.4525 147.005 71.4514 147.019C71.6711 147.277 71.8823 147.603 71.6897 148.051C71.6572 148.126 71.719 148.252 71.7719 148.36ZM90.4058 155.18C90.6393 155.142 90.8663 155.068 91.1333 155C91.6469 155.37 91.8945 155.905 91.965 156.529C91.969 156.565 91.975 156.599 91.9807 156.634C92.0054 156.78 92.0283 156.916 91.9012 157.072C91.7883 157.211 91.7473 157.444 91.7639 157.628C91.8107 158.149 91.7026 158.635 91.5115 159.116C91.4807 159.193 91.4785 159.288 91.4882 159.372C91.5948 160.308 91.0768 160.978 90.5588 161.649C90.4221 161.826 90.2854 162.003 90.1602 162.185C89.6108 162.411 89.1796 162.814 88.5297 162.924C88.156 162.988 87.7909 162.99 87.4276 162.992C87.2804 162.993 87.1335 162.994 86.9866 162.999C86.3961 163.019 85.8649 162.817 85.5931 162.241C85.4912 162.024 85.3386 161.828 85.2461 161.609C85.2277 161.565 85.2083 161.521 85.1886 161.477C85.0934 161.261 84.9944 161.037 85.0002 160.82C85.0325 159.623 85.2281 158.447 85.8212 157.372C86.0508 156.956 86.3879 156.592 86.6826 156.209C86.7345 156.141 86.8102 156.063 86.8893 156.045C87.8282 155.83 88.6787 155.34 89.656 155.246C89.906 155.222 90.1592 155.22 90.4058 155.18ZM52.3555 169.946C51.9745 170.164 51.6963 170.548 51.6332 171.181C51.5902 171.61 51.3246 172.048 51.0674 172.409C50.7744 172.82 50.5801 173.366 50.0537 173.538C49.1362 173.838 48.2073 174.081 47.2322 173.975C47.2263 173.974 47.2198 173.974 47.2134 173.974C47.1958 173.973 47.1777 173.973 47.168 173.963C46.7014 173.505 46.1293 173.177 45.7155 172.653C45.481 172.357 45.2935 171.964 44.994 171.799C44.892 171.743 44.8721 171.645 44.8545 171.557C44.8346 171.457 44.8175 171.372 44.686 171.38C44.6017 171.385 44.5175 171.4 44.4335 171.416C44.3234 171.436 44.2135 171.457 44.104 171.453C43.9857 171.448 43.8704 171.349 43.7402 171.286C43.7546 171.228 43.7699 171.171 43.785 171.114C43.9064 170.659 44.0231 170.222 43.6763 169.815C43.6406 169.773 43.6318 169.673 43.6514 169.615C43.8369 169.065 43.6837 168.566 43.5302 168.066C43.4857 167.921 43.4413 167.776 43.4049 167.63C43.3855 167.552 43.3929 167.465 43.4003 167.378C43.4086 167.281 43.4169 167.184 43.3861 167.103C43.3265 166.945 43.1664 166.829 43 166.637C43.4387 166.494 43.6746 166.22 43.8702 165.829C44.0769 165.417 44.4551 165.104 44.7358 164.729C45.3336 163.931 45.8441 163.041 46.5295 162.34C47.0592 161.799 47.7805 161.445 48.4583 161.1C48.7256 160.963 49.1499 160.971 49.4244 161.099C49.8029 161.277 50.1598 161.609 50.2725 162.066C50.4569 162.815 50.7343 163.496 51.2251 164.081C51.4396 164.336 51.5559 164.654 51.6854 164.976C51.8503 165.386 52.2393 165.698 52.5459 166.038C52.6132 166.113 52.7402 166.128 52.8439 166.172C52.8489 166.224 52.8502 166.276 52.8516 166.326C52.8541 166.429 52.8567 166.525 52.8921 166.604C53.0876 167.043 52.9784 167.456 52.8701 167.867C52.8358 167.997 52.8016 168.127 52.7771 168.257C52.6766 168.792 52.5161 169.314 52.3555 169.946ZM73.5999 182.672C73.8844 182.072 74.3417 181.587 74.9476 181.205C75.2316 181.025 75.4858 180.81 75.8542 180.536C76.1423 180.649 76.3015 180.406 76.4456 180.186C76.4548 180.172 76.4641 180.157 76.4733 180.143C76.621 180.156 76.7672 180.177 76.9119 180.198C77.4307 180.274 77.9304 180.346 78.4148 180C78.6465 180.207 78.8591 180.432 79.1121 180.613C79.3059 180.752 79.5553 180.829 79.7716 180.947C79.9462 181.041 80.1779 181.121 80.2634 181.263C80.6941 181.979 80.9829 182.773 80.9991 183.554C81.0132 184.234 80.8673 184.983 80.392 185.587C79.9144 186.193 79.4147 186.791 78.7413 187.256C78.6832 187.296 78.6738 187.389 78.6281 187.488C78.168 187.437 77.7272 187.491 77.365 187.803C77.2111 187.936 77.0179 188.023 76.7805 187.92C76.7087 187.889 76.5967 187.871 76.5302 187.898C76.0636 188.088 75.63 187.975 75.1974 187.862C75.016 187.815 74.8347 187.768 74.6512 187.743C74.4971 187.722 74.3257 187.62 74.2235 187.512C73.604 186.855 73.0413 186.172 73.0601 185.258C73.0624 185.144 73.0463 185.029 73.0302 184.914C73.015 184.806 72.9999 184.698 73 184.59C73.0002 184.372 73.0037 184.144 73.0751 183.939C73.2245 183.51 73.4032 183.087 73.5999 182.672Z" id="Taches" fill="#FFFFFF" fill-opacity="0.7" fill-rule="evenodd" stroke="none" />
</svg>