<svg fill="#62AFA7" version="1.1" id="Layer_1" xmlns="http://www.w3.org/2000/svg" xmlns:xlink="http://www.w3.org/1999/xlink" x="0px" y="0px"
	 viewBox="0 0 26 26" style="enable-background:new 0 0 26 26;" xml:space="preserve">
	<path class="st0" d="M18.8,0H7.2C3.2,0,0,3.2,0,7.2v11.6C0,22.8,3.2,26,7.2,26h11.6c3.9,0,7.2-3.2,7.2-7.2V7.2
		C26,3.2,22.8,0,18.8,0z M23.7,18.8c0,2.7-2.2,4.9-4.9,4.9H7.2c-2.7,0-4.9-2.2-4.9-4.9V7.2c0-2.7,2.2-4.9,4.9-4.9h11.6
		c2.7,0,4.9,2.2,4.9,4.9L23.7,18.8L23.7,18.8z"/>
	<path class="st0" d="M13,6.3c-3.7,0-6.7,3-6.7,6.7s3,6.7,6.7,6.7s6.7-3,6.7-6.7C19.7,9.3,16.7,6.3,13,6.3z M13,17.4
		c-2.4,0-4.4-2-4.4-4.4c0-2.4,2-4.4,4.4-4.4s4.4,2,4.4,4.4C17.4,15.4,15.4,17.4,13,17.4z"/>
	<path class="st0" d="M20,4.3c-0.4,0-0.9,0.2-1.2,0.5S18.3,5.6,18.3,6c0,0.4,0.2,0.9,0.5,1.2c0.3,0.3,0.8,0.5,1.2,0.5
		c0.4,0,0.9-0.2,1.2-0.5s0.5-0.8,0.5-1.2c0-0.4-0.2-0.9-0.5-1.2S20.4,4.3,20,4.3z"/>
</svg>