<svg fill="#62AFA7" version="1.1" id="Capa_1" xmlns="http://www.w3.org/2000/svg"
     xmlns:xlink="http://www.w3.org/1999/xlink" x="0px" y="0px"
	 viewBox="0 0 26 26" style="enable-background:new 0 0 26 26;" xml:space="preserve">
	<path class="st0" d="M21.7,0H4.3C1.9,0,0,1.9,0,4.3v17.3C0,24.1,1.9,26,4.3,26h17.3c2.4,0,4.3-1.9,4.3-4.3V4.3
		C26,1.9,24.1,0,21.7,0z M14.3,17.4c-1.2-0.1-1.7-0.7-2.6-1.2c-0.5,2.7-1.1,5.2-3,6.6c-0.6-4,0.8-7.1,1.5-10.3
		c-1.1-1.9,0.1-5.6,2.5-4.7c2.9,1.1-2.5,7,1.1,7.7c3.8,0.8,5.3-6.5,3-8.9c-3.4-3.4-9.8-0.1-9,4.8c0.2,1.2,1.4,1.6,0.5,3.2
		C6,14,5.4,12.3,5.5,10.1C5.6,6.3,8.8,3.7,12,3.4c4.1-0.5,7.9,1.5,8.4,5.3C21.1,13,18.6,17.7,14.3,17.4z"/>
</svg>