<?xml version="1.0" encoding="utf-8"?>
<!-- Generator: Adobe Illustrator 21.1.0, SVG Export Plug-In . SVG Version: 6.00 Build 0)  -->
<svg version="1.1" id="Capa_1" xmlns="http://www.w3.org/2000/svg" xmlns:xlink="http://www.w3.org/1999/xlink" x="0px" y="0px"
	 viewBox="0 0 26 26" style="enable-background:new 0 0 26 26;" xml:space="preserve">
<metadata><?xpacket begin="﻿" id="W5M0MpCehiHzreSzNTczkc9d"?>
<x:xmpmeta xmlns:x="adobe:ns:meta/" x:xmptk="Adobe XMP Core 5.6-c137 79.159768, 2016/08/11-13:24:42        ">
   <rdf:RDF xmlns:rdf="http://www.w3.org/1999/02/22-rdf-syntax-ns#">
      <rdf:Description rdf:about=""/>
   </rdf:RDF>
</x:xmpmeta>
                                                                                                    
                                                                                                    
                                                                                                    
                                                                                                    
                                                                                                    
                                                                                                    
                                                                                                    
                                                                                                    
                                                                                                    
                                                                                                    
                                                                                                    
                                                                                                    
                                                                                                    
                                                                                                    
                                                                                                    
                                                                                                    
                                                                                                    
                                                                                                    
                                                                                                    
                                                                                                    
                           
<?xpacket end="w"?></metadata>
<style type="text/css">
	.st0{fill:#62AFA7;}
</style>
<g>
	<g>
		<path class="st0" d="M26,4.9c-1,0.4-2,0.7-3.1,0.8c1.1-0.7,1.9-1.7,2.3-2.9c-1,0.6-2.2,1.1-3.4,1.3c-1-1-2.4-1.7-3.9-1.7
			c-2.9,0-5.3,2.4-5.3,5.3c0,0.4,0,0.8,0.1,1.2c-4.4-0.2-8.4-2.3-11-5.6C1.4,4.2,1.1,5.1,1.1,6.1c0,1.9,0.9,3.5,2.4,4.4
			c-0.9,0-1.7-0.3-2.4-0.7v0.1c0,2.6,1.8,4.7,4.3,5.2c-0.4,0.1-0.9,0.2-1.4,0.2c-0.3,0-0.7,0-1-0.1c0.7,2.1,2.6,3.7,5,3.7
			c-1.8,1.4-4.1,2.3-6.6,2.3c-0.4,0-0.9,0-1.3-0.1c2.4,1.5,5.2,2.4,8.2,2.4c9.8,0,15.2-8.1,15.2-15.2l0-0.7C24.4,6.9,25.3,6,26,4.9z
			"/>
	</g>
</g>
</svg>
