<svg xmlns="http://www.w3.org/2000/svg" width="219.682" height="80.698" viewBox="0 0 219.682 80.698">
    <g id="DECORATION-Trace_coul" transform="translate(-109.778 -154.381)">
        <path id="Tracé_54" data-name="Tracé 54"
              d="M327.164,193.245c-.705.744-1.035.707-.546-.09.4-.649.382-.736-.142-1.055-.624-.391-1.637.088-1.316.619.122.2.151.379.036.4-.086.015-.365-.433-.573-.983-.423-.964-1.52-1.368-3.044-1.12a.945.945,0,0,1-.249.005.832.832,0,0,1-.472-.274.331.331,0,0,1-.037-.078.557.557,0,0,1,.042-.244c.1-.145.359-.21.737-.176a.922.922,0,0,0,1.123-.543,1.265,1.265,0,0,1,.726-.791c.019,0,.041-.025.059-.03a.891.891,0,0,0,.288-.151.19.19,0,0,0,.157-.156,1.266,1.266,0,0,0,.245-.323c.1-.216.25-.365.384-.365a.359.359,0,0,1,.162.2,1.021,1.021,0,0,1-.046.712c-.367.824-.252,1.164.452,1.317.338.08.524-.041.374-.24-.122-.2.108-.421.511-.487s.747-.3.8-.534c.057-.189.446-.342.869-.276.446.017.719-.118.67-.423a.473.473,0,0,0-.511-.411c-.316.051-.487-.281-.558-1.076-.113-1.417-.983-1.681-1.739-.524a2.632,2.632,0,0,1-.555.634,1.99,1.99,0,0,1-.271-.042,1.652,1.652,0,0,1,.244-.543c.418-.7.418-.7-.423-.6a2.027,2.027,0,0,1-1.372-.271c-.4-.293-.352-.347.2-.211.367.074.646-.015.611-.235-.042-.262.232-.4.626-.326.661.073.661.073-.178-.734-.626-.57-1.055-.68-1.544-.421a2.257,2.257,0,0,1-1.568.524c-.467.032-.511-.051-.215-.413a6.757,6.757,0,0,1,2.833-1.449c.611.125,2.968-.978,2.9-1.372-.036-.218-.323-.35-.668-.294a1.463,1.463,0,0,1-1.148-.531c-.43-.468-.876-.485-1.71-.169a2.324,2.324,0,0,1-.72.228.33.33,0,0,1-.134-.125.51.51,0,0,1,.078-.157c.411-.56-.171-1.228-1.082-1.214a17.15,17.15,0,0,0-2.464.088c-.676.02-.783-.1-.6-.577a1.194,1.194,0,0,0,0-.9c-.142-.156.137-.066.619.169.452.24.854.534.883.709a.32.32,0,0,0,.343.3c.431-.069.132-1.366-.277-1.346-.2.034.093-.328.668-.781.568-.5,1.317-1.157,1.676-1.485.277-.213.582-.457.773-.594.032-.012.066-.03.1-.042a.976.976,0,0,0,.291-.189,2.139,2.139,0,0,0,.421-.33,8.847,8.847,0,0,1,1.444-.908c.093-.044.166-.091.247-.137.48-.093.737-.257.79-.435.01-.019.037-.037.042-.054s-.024-.037-.027-.056a.321.321,0,0,0-.046-.09c-.005-.008,0-.017-.012-.024.211-.386-.017-.685-.748-.592a2.038,2.038,0,0,1-.727-.034c-.059-.014-.108-.032-.169-.046a1.244,1.244,0,0,1-.482-.235,5.77,5.77,0,0,0-2.752-.223c-2.422.169-7.732.541-9.434.6-.561,0-2.192.132-3.658.191-.081.007-.145.01-.225.015a.482.482,0,0,0-.137.008c-4.566.313-6.518.282-6.42.005.029-.184-.6-.26-1.38-.134-1.221.108-3.232-.462-2.2-.673.394-.064.328-.619.019-.793a3.036,3.036,0,0,0-1.456-.834c-1.052-1.113-1.627-1.224-5.9-1.216l-.191,0c-.1-.005-.2-.005-.3-.007-1.438-.029-3.366-.056-4.534-.068-5.919-.112-16.553.184-23.709.633-5.813.365-6.379.144-5.593-2.454a2.2,2.2,0,0,0-.465-1.585,3.965,3.965,0,0,1-.384-.707,2.1,2.1,0,0,1,.081-.472.845.845,0,0,1,.311-.034c.294,0,.284-2.065-.01-2.6a.619.619,0,0,1,.066-.683c.237-.173.173-.387-.259-.677a1.042,1.042,0,0,1-.423-.426l-.017-.086a.762.762,0,0,1,.161-.474c.274-.494.232-.756-.235-1.622-.33-.575-.551-.852-.523-.678.035.218-.424-.066-1.013-.6-1.284-1.182-2.4-1.135-2.464.086a2.069,2.069,0,0,1-.107.6,11.9,11.9,0,0,1-3.484,1.092c-1.83.232-5.342.746-8.994,1.306-7.653,1.2-10.742,1.438-14.169,1.233a1.4,1.4,0,0,0-1.135.276,4.078,4.078,0,0,1-1.854.609c-.582.078-1.155.157-1.7.238l-.685.1c-2.934.321-6.388.411-6.888-.029-.237-.186-.538-.227-.682-.024a2.2,2.2,0,0,1-.952.577c-.524.032-1.111.088-1.728.174l-.059.008c-.151-.056-.257-.139-.25-.272a1.049,1.049,0,0,1,.842-.81c1.323-.215,1.639-1.165.316-.949-.639.059-1.854.211-2.665.3-.841.091-1.515.293-1.488.467.037.218-.173.387-.431.43-.431.071-.474-.012-.157-.423.411-.561.325-.546-1.537-.379-3.247.35-3.864.362-3.714.022a.883.883,0,0,1,.575-.452.46.46,0,0,0,.331-.5c-.008-.057-.311-.066-.807-.041l0-.007c.173-.384.142-.441-.152-.184a1.608,1.608,0,0,0-.709-.034,1.3,1.3,0,0,0-.868.367c-.33.034-.69.073-1.064.115a4.158,4.158,0,0,0-1.791.047,1.1,1.1,0,0,0-.518.057,11.616,11.616,0,0,0-3.039.467,6.24,6.24,0,0,0-.678.213q-1.124.162-2.16.325c-.052.005-.115.02-.171.027-.2.032-.414.064-.609.1a7.6,7.6,0,0,0-1.422.24,9.984,9.984,0,0,0-2.52.6,15.159,15.159,0,0,1-2.527.665.945.945,0,0,0-.377-.012,1.281,1.281,0,0,0-.357.117,4.052,4.052,0,0,0-1.59.35c-2.183.406-3.017.587-3.261.888-.1.042-.164.091-.183.152-.032.02-.074.042-.079.057-.088.2.034.394.237.54.23.908.127.972-1.864,1.251-1.933.271-2,.237-.841-.266a4.089,4.089,0,0,1,1.647-.4c.222.1.323-.186.252-.624-.129-.786-.337-.8-3.455-.02-1.84.48-5.65,1.37-8.466,2.007-2.824.6-5.836,1.311-6.684,1.539s-3.054.812-4.872,1.243c-3.169.83-4.169,1.576-2.748,2.153.7.3-.122,1.128-1.065,1.2-.064,0-.117,0-.186-.007a4.82,4.82,0,0,0-.518-.024c-.227-.007-.338.044-.37.147a.185.185,0,0,0-.025.113.793.793,0,0,0,.036.115,1.022,1.022,0,0,0,.044.144.838.838,0,0,1,0,.71,2.2,2.2,0,0,1-.849.056c-1.006-.015-1.164.1-1.05.8a1.5,1.5,0,0,1,.02.3,3.608,3.608,0,0,1-.869.5c-.179.051-.377.1-.617.156-.328.069-.692.164-1.052.262-.863.144-1.879.318-2.635.474a3.424,3.424,0,0,1-2.205.046c-.281-.448-1.013-.419-3.831.041-1.285.254-2.234.228-2.4-.057-.445-.736-3.327-.49-5.857.46a77.468,77.468,0,0,1-8.192,2.053c-.788.159-1.5.328-2.151.507-.335.074-.643.144-.928.211-2.141.48-2.691.734-2.99,1.265a2.381,2.381,0,0,0-.477.866c-1.263,1.546-1.2,3.765-.135,7.215.036.11.052.184.083.288.1.572.2,1.209.309,1.865.022.171.044.342.066.518a3.3,3.3,0,0,1-.052.36c-.426,1.73.9,6.449,4.154,14.624.646,1.6,1.512,4.018,1.926,5.3a18.358,18.358,0,0,0,1.01,2.752,20.977,20.977,0,0,1,1.345,4.089,5,5,0,0,0,.9,1.378,5.729,5.729,0,0,1,.976,1.635c.178,1.092,1.894,1.845,3.668,1.691a13.142,13.142,0,0,1,1.9-.13,39.379,39.379,0,0,0,4.267-.247,1.584,1.584,0,0,1,1.372.45c.374.479.394.609.02.67-.23.037-.524.4-.677.739-.151.517-.431.609-1,.387a3.254,3.254,0,0,0-1.214-.206c-.11.017-.181.134-.225.293-.095-.049-.145-.032-.129.08a1.736,1.736,0,0,0,.083.25c-.017.523.156,1.18.448,1.189.179.015.445.017.653.027a.264.264,0,0,1,.11.019.852.852,0,0,1,.26.2.928.928,0,0,1,.086.127.57.57,0,0,1,.076.457,1.025,1.025,0,0,1-.073.213c-.181.362-.6.624-.906.4-.166-.107-.259.042-.21.348a2.239,2.239,0,0,1-.309,1.174c-.59.9-.059,1.265,1.277.957,1.466-.418,1.9-.085,1.443,1.067-.331.861-.325.9.487.817.46-.074.683.024.531.184-.626.506-.23.935.754.819a4.52,4.52,0,0,1,1.236-.022,10.768,10.768,0,0,0,3.281-1.192.584.584,0,0,0,.054-.034c.282-.159.482-.3.5-.387.159-.653-.587-.891-.912-.343a1.211,1.211,0,0,1-.1.161.649.649,0,0,1-.453-.154l0-.007c-.113-.272-.091-.448.174-.609a.287.287,0,0,0,.235-.032.388.388,0,0,0,.186-.152c.262-.088.619-.181,1.087-.291l.007,0,.646-.147a3.371,3.371,0,0,0,.692-.193.288.288,0,0,0,.211-.086c.247-.127.4-.266.377-.379-.029-.174.274-.313.7-.2a1.132,1.132,0,0,0,1.086-.4c.756-1.334,4.788-2.486,5.441-1.559.345.482.567.58.661.25.073-.281.884-.548,1.876-.619,3-.264,4.4-.538,5.534-1.172.734-.387,1.143-.409,1.186-.147s.489.279,1.121,0a6.95,6.95,0,0,0,2.61-1.547A9.893,9.893,0,0,1,165.2,222.6a11.725,11.725,0,0,0,3.514-1.065,10.859,10.859,0,0,1,3.753-1.06c3-.443,3.212-.568,3.09-1.312-.008-.051-.007-.071-.014-.117a1.283,1.283,0,0,1-.01-.381.347.347,0,0,1,.036-.047.462.462,0,0,1,.122-.035,2.934,2.934,0,0,1,.565.331,2.968,2.968,0,0,0,1.925.4l1.926-.313a4.49,4.49,0,0,0,.991-.3c.308-.049.587-.1.844-.159a.91.91,0,0,1,.291.115.716.716,0,0,0,.869-.1c.829-.9,7.648-2.682,9.149-2.344.424.064.862.039.927-.107a2.624,2.624,0,0,1,1.094-.545c.1.095.179.064.232-.076.676-.2,1.761-.556,2.456-.8.565-.2,1.975-.57,3.4-.922a.441.441,0,0,0,.423-.1l.565-.137a28.983,28.983,0,0,0,4.233-1.184c1.236-.56,1.409-.589,4.607-.705.357-.015.849-.056,1.422-.115.44-.024.861-.039,1.245-.042.244.211.43.245.59.1a.173.173,0,0,0,.151-.093c.061,0,.145,0,.2.007a3.658,3.658,0,0,0,.756-.052c.088.054.144.042.156-.039.147-.047.233-.108.2-.179-.022-.034.11-.086.306-.149,2.753-.382,5.9-.9,7.95-1.331,2.106-.479,16.225-2.2,19.236-2.373,4.505-.3,6.548-.753,6.516-1.547a1.411,1.411,0,0,1,.222.019c.037.032.083.049.11.1a.535.535,0,0,0,.266.169c.71.631,1.877,1.143,1.531.526-.115-.161.144-.382.539-.492.653-.152.69-.113.294.355-.446.523-.4.605.458,1,.359.162.577.321.609.414-.162.02-.325.035-.5.041a6.605,6.605,0,0,1-1.1-.382c-1.772-.744-3.31-.763-2.593.019.294.355.653.567.761.5.69-.293,1.1-.135.761.325a.946.946,0,0,1-1.057.216c-.854-.353-3.3.36-3.607,1.037-.024.052-.085.059-.125.093-.061.017-.115.029-.178.046s-.123.022-.184.032a.612.612,0,0,1-.232-.052,1.377,1.377,0,0,0-.54-.1c-.394-.122-.638-.142-.729-.034a1.589,1.589,0,0,0-.45.086,13.1,13.1,0,0,0-1.887.342.651.651,0,0,0-.4-.088.248.248,0,0,0-.21.3c-.189.09-.274.181-.2.26a.977.977,0,0,0,.435.151.443.443,0,0,0,.32.13c.019,0,.025-.034.042-.044.034,0,.069.025.1.02s.034-.034.058-.044a6.919,6.919,0,0,0,.705.01,3.325,3.325,0,0,1,.9.059c.008,0,.019.007.027,0,.318.073.528.2.556.369.058.348-.36.507-1.309.482-.374,0-.851,0-1.334.019a.761.761,0,0,0-.707.029c-.3.017-.589.036-.832.063-.79.039-2.371.117-3.484.164a9.005,9.005,0,0,0-.908.1,3.752,3.752,0,0,0-.556.085c-.387-.179-.594-.068-.641.223-.78.3-1.177.729-.915,1.162a1.037,1.037,0,0,0,.962.293.849.849,0,0,1,.587.095,1.1,1.1,0,0,1,.066.582c-.22.162-.79.014-1.832-.484-.9-.438-1.113-.671-.717-.781.539-.132.539-.132-.049-.485-.431-.289-.633-.255-.719.117-.095.33-.913.553-2.437.622-1.285.074-3.212.21-4.253.333a6.75,6.75,0,0,1-2.314-.071c-.2-.147-.56,0-.741.345-.23.4-1.208.736-2.8.949a12.533,12.533,0,0,0-1.61.3.6.6,0,0,0-.433.166c-.2.115-.266.242-.206.392a.456.456,0,0,0,.639.3,1.655,1.655,0,0,1,1.241.381,1.6,1.6,0,0,0,.651.271c-.039.289.159.294.629.027a7.533,7.533,0,0,0,1.465-.3c4.844-1.417,9.428-1.715,9.4-.634-.015.631-1.532,1.1-1.632.49-.085-.524-6.344.9-6.655,1.534-.173.387,1.674.311,3.349-.1a11.677,11.677,0,0,1,1.725-.281A62.056,62.056,0,0,0,237,215.929c1.855-.751,4.076-1.069,4.253-.693.057.169,1.05.1,2.17-.085a7.162,7.162,0,0,1,2.351-.249,52.619,52.619,0,0,0,5.381-.474,101.287,101.287,0,0,0,10.132-1.561c1.345-.264,3.1-.55,3.88-.633,1.654-.179,2.725-.489,3.1-.91a2.661,2.661,0,0,1,.778-.343c.134.166.238.194.369.054.063.01.1-.034.1-.134.02-.029.039-.052.061-.086.164-.049.333-.1.507-.144a3.352,3.352,0,0,0,1.833-.883c.208-.348.323-.367.38-.017a.475.475,0,0,0,.538.406c.287-.047.331-.323.161-.834-.3-.759-.445-.736,7.954-1.7.633-.1,1.272.019,1.431.262s.524.139.984-.3c1.064-1.071,5.463-1.967,5.4-1.1-.073.82.1.791.847-.228.4-.6.705-.742.993-.43.215.233.653.206,1.186-.149a4.964,4.964,0,0,1,1.933-.629,2.2,2.2,0,0,0,1.258-.43c.057-.189-.164-.288-.538-.227a5.03,5.03,0,0,1-1.975-.531,10.466,10.466,0,0,0-2.234-.847c-.912-.166-.912-.166-.1-.612,1.3-.749,2.711-.935,2.594-.377-.093.328.2.326.942-.019,1.323-.575,1.236-.561,1.8-.34a8.223,8.223,0,0,0,1.221.25,5.821,5.821,0,0,1,1.38.313c.589.174.589.174,0-.359a1.669,1.669,0,0,1-.538-1.3c.059-.548-.113-.7-.6-.619a4.075,4.075,0,0,1-1.659-.4c-.353-.188-.533-.333-.516-.4l.024-.01c.019-.008.047-.014.069-.022s.027-.008.057-.005c.33.036,1.113.134,1.745.21.6.037,1.135.264,1.177.526s.172.331.294.176c.115-.2.626-.147,1.092,0,.6.26.918.21,1.093-.178.151-.34-.014-.446-.5-.367a1.957,1.957,0,0,1-1.409-.489c-.624-.572-.6-.577.3-.5.54.046,1.013-.122,1.086-.4.058-.369.21-.348.445.017.288.492.345.484.259-.042-.071-.436.008-.494.353-.191.244.23,2.133.235,4.2.034,2.09-.206,4.769-.419,5.977-.436,2.845-.1,5.2-.489,5.375-.876a.686.686,0,0,1,.12-.164c.127-.029.257-.056.362-.081a.494.494,0,0,1,.051.428c-.088.374.064.394.516.1,1.791-1.145,1.957-1.037,1.214.744a1.8,1.8,0,0,0-.149.611c-.069.277-.071.457.025.441a.557.557,0,0,0,.09-.039c.282.227.981-.154,1.549-1.126.325-.546.749-1.02.95-1.052a3.332,3.332,0,0,0,1.1-.852c.424-.474.785-.621.827-.359a.436.436,0,0,1-.331.5c-.374.061-.692,1.37-.4,1.681.037.071.316-.137.631-.462h0a.916.916,0,0,0,.33-.345c.289-.293.516-.443.534-.335.02.132.164-.071.345-.414.267-.538.216-.663-.352-.886-.753-.281-.66-.609.384-1.094a12.853,12.853,0,0,0,1.279-.656c.288-.227.489-.081.567.4a1.235,1.235,0,0,0,.189.47c-.063.118.036.21.328.343.02.008.041.005.061.012a.386.386,0,0,0,.074.015.528.528,0,0,0,.3-.019.716.716,0,0,0,.206-.134.883.883,0,0,0,.118-.12c.041-.047.09-.063.123-.123C327.926,193.211,327.7,192.573,327.164,193.245Zm-90.73,20.311c-.025-.056.022-.1.159-.118a1.547,1.547,0,0,1,.927.252c.6.44.142.516-.719.117a.988.988,0,0,1-.364-.238Zm81.453-34.506a.349.349,0,0,1,.027.216.437.437,0,0,1-.284.247.455.455,0,0,1-.462-.347c-.044-.262.044-.455.188-.479A.582.582,0,0,1,317.887,179.05Zm-137.407-15.7a14.685,14.685,0,0,1,1.876-.47c.039.064.085.063.144-.029a5.487,5.487,0,0,1,2.694-.09,10.445,10.445,0,0,1-3.112.643C179.459,163.784,179.129,163.748,180.48,163.348Zm9.089-1.436c-.683.516-2.307.69-2.2.269.029-.184.482-.3.993-.252.5.008.863-.14.812-.446a.3.3,0,0,1,.264-.264.4.4,0,0,1,.147.007c.025.005.056.012.086.02C190.061,161.391,190.048,161.531,189.569,161.912Zm-11.887,4c-1.071.13-1.789.068-1.646-.135a.508.508,0,0,1,.193-.1l.528-.13a6.065,6.065,0,0,1,2.721-.015A4.754,4.754,0,0,1,177.681,165.913Zm26.351-4.34a3.27,3.27,0,0,1-1.294.211c-.387-.027-.115-.161.6-.277S204.364,161.43,204.032,161.574Zm50.4,44.558c.626-.147.928-.107.69.066a2.552,2.552,0,0,1-1.15.188C253.586,206.358,253.8,206.235,254.433,206.132Zm-46.471-45.243c.071.436-.309.634-1.208.736-1.573.122-1.617.039-.458-.644C207.475,160.249,207.856,160.232,207.962,160.889Z"
              fill="#888b8d"/>
        <path id="Tracé_55" data-name="Tracé 55"
              d="M165.09,157.6c.668-.064,1.833-.164,2.616-.247,1.336-.129,1.739-.732.734-1.106a.507.507,0,0,0-.641.418c-.086.374-.194.436-.394.11-.359-.57-3.729-.066-3.629.546C163.811,157.54,164.4,157.715,165.09,157.6Z"
              transform="translate(37.322 1.275)" fill="#888b8d"/>
        <path id="Tracé_56" data-name="Tracé 56"
              d="M168.007,156.877a1.02,1.02,0,0,0,.984-.294c.489-.619.115-.737-.812-.272C167.439,156.656,167.417,156.7,168.007,156.877Z"
              transform="translate(39.961 1.138)" fill="#888b8d"/>
        <path id="Tracé_57" data-name="Tracé 57"
              d="M128.413,167.011a.466.466,0,0,0,.387-.512c-.042-.26-.186-.418-.33-.394a.581.581,0,0,0-.387.512A.3.3,0,0,0,128.413,167.011Z"
              transform="translate(12.646 8.102)" fill="#888b8d"/>
        <path id="Tracé_58" data-name="Tracé 58"
              d="M236.08,168.653a.767.767,0,0,0,.675.338.436.436,0,0,0,.331-.5c-.042-.262-.33-.4-.675-.338C236.1,168.2,235.952,168.4,236.08,168.653Z"
              transform="translate(87.268 9.508)" fill="#888b8d"/>
        <path id="Tracé_59" data-name="Tracé 59"
              d="M240.311,173.88c.108-.423-.33-.575-.854-.355-.144.024-.259-.137-.294-.355-.042-.262-.186-.419-.33-.4s-.137.426.027.893C239.181,174.556,240.116,174.673,240.311,173.88Z"
              transform="translate(89.132 12.712)" fill="#888b8d"/>
        <path id="Tracé_60" data-name="Tracé 60"
              d="M239.461,178.281c-.431.071-.663.288-.5.531a.6.6,0,0,0,1.15-.188C240.178,178.343,239.89,178.21,239.461,178.281Z"
              transform="translate(89.254 16.506)" fill="#888b8d"/>
        <path id="Tracé_61" data-name="Tracé 61"
              d="M140.608,197.9c-.568.316-1,.746-.971.922.1.612,2.112-.076,2.156-.71C141.887,197.24,141.736,197.22,140.608,197.9Z"
              transform="translate(20.638 29.749)" fill="#888b8d"/>
        <path id="Tracé_62" data-name="Tracé 62"
              d="M145.6,197.056c-.179.343-.445.521-.56.36-.316-.308-3.464.115-3.543.533-.036.14.365.433.869.621.56.178.847.132.726-.073-.159-.244-.1-.433.044-.457.173-.027.343.123.387.386a.466.466,0,0,0,.531.362c.23-.037.345-.235.195-.435-.13-.249.194-.436.69-.472.611-.054.956-.291.971-.742C145.936,196.6,145.9,196.557,145.6,197.056Z"
              transform="translate(21.921 29.255)" fill="#888b8d"/>
        <path id="Tracé_63" data-name="Tracé 63"
              d="M207.405,187.054a.88.88,0,0,0,.5.546c.315.127.38-.019.194-.436C207.823,186.536,207.305,186.442,207.405,187.054Z"
              transform="translate(67.472 22.298)" fill="#888b8d"/>
        <path id="Tracé_64" data-name="Tracé 64"
              d="M215.087,186.107c-.885.189-1.121.364-.834.675.543.59,2.087.328,2.161-.293l0-.02c0-.03.019-.056.014-.086C216.366,185.988,215.972,185.919,215.087,186.107Z"
              transform="translate(72.134 21.86)" fill="#888b8d"/>
        <path id="Tracé_65" data-name="Tracé 65"
              d="M212.353,186.914c-.144.024-.23.216-.188.479a.467.467,0,0,0,.531.362.3.3,0,0,0,.188-.479A.581.581,0,0,0,212.353,186.914Z"
              transform="translate(70.763 22.485)" fill="#888b8d"/>
        <path id="Tracé_66" data-name="Tracé 66"
              d="M162.781,199.037c-1.28.837-3.119.957-3.068.186.066-.685-.293-.715-.575-.086-.4.827-1.718,1.223-1.832.523-.057-.348-.215-.592-.387-.565-.144.024-.238.353-.174.746.115.7-.259.761-2.084.25-.308-.085-.518.085-.475.347s.2.326.325.173c.151-.159.279-.091.315.127.044.264-.237.533-.639.6-.747.122-1.084-.5-.509-.949a.39.39,0,0,0,.057-.548c-.142-.157-.409.2-.619.729-.173.567-.482,1.021-.654,1.049-.144.024-.115-.161.073-.46a.611.611,0,0,0,.086-.732c-.142-.156-.48.123-.748.66-.274.494-.424.653-.36.328.088-.372-.085-.524-.516-.453-.518.083-.533.176-.152.7.374.479.394.609.086.705-2.459.67-3.328.766-4.039.389-.617-.348-.962-.293-1.287.074-.4.468-.46.435-.416-.2.066-.683.008-.675-.482.123-.561.9-.561.9.688,1.143a5.458,5.458,0,0,1,1.681.534,6.87,6.87,0,0,0,2.838-.328c1.617-.4,2.429-.485,2.486-.135.051.306.166.288.4-.11a3.406,3.406,0,0,1,1.524-.966,9.083,9.083,0,0,0,2.165-1.027c1.415-.9,2.227-.991,1.666-.091-.23.4-.281.808-.115.915.294.178.626-1.043.44-1.642-.206-.729,1.035-.886,1.617-.218.438.512.746.6.991.287.482-.663.856-.724.719-.117-.159.653-.079.6,1.28-.837C164.384,198.731,164.227,198.129,162.781,199.037Z"
              transform="translate(23.894 30.569)" fill="#888b8d"/>
        <path id="Tracé_67" data-name="Tracé 67"
              d="M158.727,198.538c-.166.431-.411.561-.776.306-.553-.313-1.437.414-1.015.839.288.313,3.924-.908,3.859-1.3C160.7,197.768,158.951,197.919,158.727,198.538Z"
              transform="translate(32.519 30.143)" fill="#888b8d"/>
        <path id="Tracé_68" data-name="Tracé 68"
              d="M144.718,201.779c-.338.458-1.774.154-1.651-.36a.581.581,0,0,0-.33-.573c-.223-.1-.338.279-.245.847.085.7.321,1.069.715,1.14.619.169,1.9-.668,1.827-1.106C145.005,201.552,144.87,201.62,144.718,201.779Z"
              transform="translate(22.59 32.106)" fill="#888b8d"/>
        <path id="Tracé_69" data-name="Tracé 69"
              d="M146.122,201.274c.172-.027.338-.279.389-.511.042-.277-.1-.433-.33-.4a.439.439,0,0,0-.389.512C145.827,201.1,145.978,201.3,146.122,201.274Z"
              transform="translate(24.888 31.782)" fill="#888b8d"/>
        <path id="Tracé_70" data-name="Tracé 70" d="M142,201.657a.38.38,0,1,0,.5.323A.423.423,0,0,0,142,201.657Z"
              transform="translate(22.016 32.673)" fill="#888b8d"/>
        <path id="Tracé_71" data-name="Tracé 71"
              d="M151.635,201.374c.064.394.259.5.5.323.2-.211.381-.375.367-.463s-.237-.186-.5-.323C151.721,200.823,151.571,200.982,151.635,201.374Z"
              transform="translate(28.922 33.145)" fill="#888b8d"/>
    </g>
</svg>