<svg xmlns="http://www.w3.org/2000/svg" width="1920" height="111.347" viewBox="0 0 1920 111.347"><defs><style>.a{fill:#e7e8e8;}</style></defs><path class="a" d="M-1073.176,472.381a3.515,3.515,0,0,0,.482.7,2.346,2.346,0,0,1,.758,2.434H751c-1.509-.248-2.666-.785-2.92-1.468-.492-1.283.43-2.249,1.964-2.392a8.468,8.468,0,0,1,5.7,1.685h0a.925.925,0,0,1,.308,1.062,4.065,4.065,0,0,1-2.326,1.114H805.46c.069-.051.131-.112.2-.157,4.341-2.832-1.93-6.014-11.669-5.777-10.138.052-17.655.308-26.318.893-7.226.225-8.374-.329-6.41-2.73,1.2-1.879,1.089-3.859-.077-4.422-1.531-.739,1.458-.351,6.626.717,4.845,1.1,9.171,2.472,9.494,3.327.4,1.067,2.161,1.569,3.693,1.427,4.6-.421,1.293-6.753-3.079-6.577-2.148.2.97-1.633,7.07-3.972,6.028-2.546,13.976-5.943,17.778-7.624,2.945-1.1,6.176-2.357,8.207-3.067.341-.064.7-.163,1.044-.227a15.1,15.1,0,0,0,3.092-.987,28.975,28.975,0,0,0,4.47-1.7c2.132-1.087,9.325-3.079,15.352-4.742.994-.233,1.763-.481,2.627-.72,5.123-.547,7.859-1.4,8.4-2.288.108-.094.4-.191.447-.274.035-.083-.255-.179-.293-.27-.057-.149-.312-.285-.5-.433-.056-.041-.037-.083-.129-.115,2.225-1.934-.239-3.369-8.037-2.775a46.812,46.812,0,0,1-7.773-.031c-.633-.056-1.159-.139-1.811-.193a22.151,22.151,0,0,1-5.17-1.069c-2.947-1.056-16.075-1.386-29.418-.584-25.859,1.284-82.563,4.107-100.737,4.691-6,.1-23.406,1.057-39.066,1.623-.868.048-1.553.077-2.4.117a11.032,11.032,0,0,0-1.463.068c-48.758,2.391-69.613,2.606-68.588,1.222.291-.913-6.473-1.17-14.755-.4-13.037.761-34.57-1.671-23.6-2.9,4.2-.389,3.452-3.109.132-3.91-1.287-1.174-7.111-2.532-15.633-3.834-11.334-5.283-17.486-5.727-63.146-4.884l-2.042.019c-1.12-.005-2.169.013-3.253.024-15.364.127-35.961.352-48.448.513-63.251.554-176.84,3.995-253.253,7.536-62.071,2.879-68.143,1.9-59.961-11.041,1.268-1.663-.766-4.576-5.106-7.717a22.213,22.213,0,0,1-4.162-3.409,5.573,5.573,0,0,1,.827-2.339,19.077,19.077,0,0,1,3.321-.224c3.145-.072,2.858-10.222-.332-12.806-1.314-.986-.967-2.566.646-3.377,2.514-.894,1.81-1.939-2.822-3.283-2.634-.778-4-1.381-4.554-2.016l-.189-.422c-.174-.646.376-1.357,1.676-2.362,2.884-2.482,2.41-3.765-2.651-7.942-3.573-2.771-5.959-4.1-5.645-3.242.4,1.067-4.541-.246-10.874-2.751-13.815-5.582-25.718-5.139-26.318.884a5.633,5.633,0,0,1-1.087,2.952c-4.057,1.578-17.413,3.686-37.127,6.029-19.531,1.483-57.015,4.669-95.978,8.106-81.658,7.349-114.649,9.086-151.273,8.713-5.136-.185-10.582.543-12.1,1.569-1.644,1.078-9.2,2.256-19.75,3.344-6.21.492-12.328.99-18.1,1.491-2.671.221-4.82.4-7.31.6-31.321,2.129-68.21,3.215-73.6,1.142-2.545-.871-5.766-1.016-7.284.011-1.984,1.2-5.817,2.218-10.125,3.017-5.6.256-11.862.64-18.451,1.18l-.632.053c-1.613-.246-2.759-.634-2.7-1.294.583-1.826,4.326-3.716,8.929-4.146,14.111-1.3,17.409-6.044,3.3-4.732-6.825.411-19.785,1.388-28.451,1.971-8.97.607-16.166,1.724-15.862,2.572.418,1.068-1.81,1.939-4.57,2.2-4.6.431-5.06.03-1.717-2.052,4.341-2.841,3.422-2.754-16.457-1.578-34.662,2.328-41.257,2.5-39.677.8.9-.966,3.654-2.1,6.1-2.331,2.147-.2,3.9-1.466,3.5-2.544-.095-.281-3.33-.267-8.622-.049l.017-.033c1.811-1.927,1.479-2.2-1.642-.88a36.738,36.738,0,0,0-7.573-.034c-4.675.331-7.825,1.111-9.238,1.969-3.521.227-7.366.487-11.356.764-2.774-.576-11.066-.239-19.131.568a24.883,24.883,0,0,0-5.524.38,260.788,260.788,0,0,0-32.43,2.861c-2.723.372-5.12.763-7.227,1.175q-11.993,1.009-23.047,2c-.56.035-1.227.121-1.823.166-2.148.2-4.422.393-6.5.588-5.688.316-11.155.837-15.175,1.449-15.679,1.557-26.339,2.825-26.871,3.41-.573.376-11.607,1.96-26.938,3.743a21.665,21.665,0,0,0-4.03.013,26.1,26.1,0,0,0-3.8.641,88.064,88.064,0,0,0-16.955,2.02c-23.292,2.4-32.183,3.455-34.76,4.979-1.08.227-1.745.481-1.938.783a3.8,3.8,0,0,0-.845.3c-.922.992.4,1.934,2.576,2.613,2.536,4.429,1.439,4.764-19.8,6.51-20.624,1.693-21.319,1.538-9-1.151,7.365-1.569,15.246-2.524,17.564-2.3,2.375.449,3.436-.977,2.64-3.121-1.442-3.848-3.659-3.869-36.916.545-19.618,2.708-60.251,7.8-90.28,11.464-30.123,3.458-62.242,7.542-71.276,8.827-9.051,1.283-32.562,4.567-51.95,7.029-33.789,4.681-44.4,8.539-29.176,11.114,7.452,1.328-1.2,5.578-11.281,6.095-.686,0-1.247.03-1.987,0-2.3-.052-4.086-.061-5.531-.02-2.422.009-3.61.279-3.945.793-.16.162-.337.331-.261.563A2.713,2.713,0,0,0-1073.176,472.381Zm635.138-67.215c12.531-3.818,16.595-3.972,17.79-.76.8,2.135-3.252,3.18-12.838,3.848C-449.879,409.146-450.356,408.747-438.038,405.166Zm-31.52,3.151c7.67-.709,10.905-.575,7.377.195h0a72.908,72.908,0,0,1-13.8,1.282C-480.125,409.734-477.227,409.025-469.558,408.317Zm-170.585,6.291c.291-.913,5.124-1.581,10.584-1.426,5.367-.052,9.2-.853,8.641-2.346.4-.823,1.333-1.24,2.8-1.346a9.3,9.3,0,0,1,1.572.005c.271.021.6.048.924.084,4.162.639,4.031,1.332-1.052,3.3h0C-623.932,415.541-641.264,416.7-640.142,414.608Zm-73.512,7.031c6.216-1.066,13.214-1.955,20-2.665.421.308.909.292,1.533-.169,14.038-1.412,26.735-1.916,28.776-.944,1.148.563-13.789,2.166-33.191,3.745C-724.531,423.98-728.057,423.865-713.654,421.64Zm-47.276,12.8a8.689,8.689,0,0,1,2.051-.535c1.84-.24,3.733-.49,5.627-.74,10.16-1.027,26.83-1.659,29.07-.582.784.368-7.73,1.383-19.156,2.216S-762.448,435.463-760.931,434.436Z" transform="translate(1073.584 -364.169)"/></svg>