<svg xmlns="http://www.w3.org/2000/svg" width="1138.141" height="836.548" viewBox="0 0 1138.141 836.548">
    <defs>
        <style>.a{fill:#f3f3f3;}</style>
    </defs>
    <g transform="matrix(0.891, -0.454, 0.454, 0.891, -167.901, 402.206)">
        <path class="a"
              d="M1182.936,346.237c-3.481,3.674-5.109,3.49-2.7-.442,1.962-3.206,1.887-3.632-.7-5.21-3.081-1.929-8.082.434-6.5,3.056.6,1.01.743,1.87.175,1.962-.426.075-1.8-2.137-2.83-4.851-2.087-4.759-7.506-6.754-15.028-5.527a4.666,4.666,0,0,1-1.227.025,4.108,4.108,0,0,1-2.329-1.353,1.636,1.636,0,0,1-.184-.384,2.752,2.752,0,0,1,.209-1.2c.518-.718,1.77-1.035,3.64-.868,2.839.426,4.717-.551,5.544-2.68.71-1.887,2.3-3.7,3.582-3.907.092-.008.2-.125.292-.15a4.4,4.4,0,0,0,1.419-.743.939.939,0,0,0,.776-.768,6.251,6.251,0,0,0,1.211-1.594c.476-1.069,1.236-1.8,1.9-1.8a1.771,1.771,0,0,1,.8.985,5.039,5.039,0,0,1-.225,3.515c-1.812,4.066-1.244,5.744,2.229,6.5,1.67.393,2.588-.2,1.845-1.185-.6-1.01.534-2.079,2.521-2.4s3.69-1.486,3.941-2.638c.284-.935,2.2-1.687,4.291-1.361,2.2.084,3.548-.584,3.306-2.087a2.335,2.335,0,0,0-2.521-2.029c-1.561.25-2.4-1.386-2.755-5.31-.559-7-4.851-8.3-8.583-2.588a12.99,12.99,0,0,1-2.738,3.131,9.825,9.825,0,0,1-1.336-.209,8.154,8.154,0,0,1,1.2-2.68c2.062-3.44,2.062-3.44-2.087-2.98-2.271.367-5.427-.225-6.771-1.336-1.987-1.444-1.737-1.712.994-1.044,1.812.367,3.189-.075,3.014-1.161-.209-1.294,1.144-1.954,3.089-1.611,3.264.359,3.264.359-.877-3.623-3.089-2.814-5.21-3.356-7.623-2.079-3.982,2.421-4.124,2.446-7.74,2.588-2.3.159-2.521-.25-1.06-2.037,2.2-2.58,12.031-7.5,13.985-7.155,3.014.618,14.652-4.826,14.335-6.771-.175-1.077-1.595-1.728-3.3-1.453-1.561.259-4.216-.86-5.669-2.622-2.12-2.313-4.324-2.4-8.441-.835a11.474,11.474,0,0,1-3.557,1.127,1.627,1.627,0,0,1-.66-.618,2.511,2.511,0,0,1,.384-.776c2.029-2.763-.843-6.061-5.343-5.994a84.663,84.663,0,0,0-12.164.434c-3.339.1-3.866-.476-2.939-2.847.568-1.862.534-3.849,0-4.433-.7-.768.676-.326,3.056.835,2.229,1.185,4.216,2.638,4.358,3.5a1.581,1.581,0,0,0,1.695,1.495c2.129-.342.651-6.746-1.369-6.646-.994.167.459-1.62,3.3-3.857,2.805-2.446,6.5-5.711,8.274-7.33,1.369-1.052,2.872-2.254,3.815-2.93.159-.058.326-.15.484-.209a4.816,4.816,0,0,0,1.436-.935,10.556,10.556,0,0,0,2.079-1.628c.994-1.052,4.333-2.922,7.13-4.483.459-.217.818-.451,1.219-.676,2.371-.459,3.64-1.269,3.9-2.146.05-.092.184-.184.209-.267s-.117-.184-.134-.276a1.588,1.588,0,0,0-.225-.443c-.025-.042-.017-.083-.058-.117,1.044-1.9-.083-3.381-3.69-2.922a10.058,10.058,0,0,1-3.59-.167c-.292-.067-.534-.159-.835-.225a6.14,6.14,0,0,1-2.379-1.161c-1.353-1.11-7.414-1.67-13.584-1.1-11.956.835-38.171,2.672-46.57,2.939-2.772,0-10.82.651-18.059.944-.4.033-.718.05-1.11.075a2.378,2.378,0,0,0-.676.042c-22.542,1.544-32.177,1.394-31.692.025.142-.91-2.981-1.286-6.813-.66-6.028.535-15.955-2.279-10.879-3.323,1.945-.317,1.62-3.056.092-3.916-.585-1.2-3.265-2.663-7.189-4.116-5.193-5.493-8.031-6.045-29.129-6l-.943-.017c-.518-.025-1-.025-1.5-.033-7.1-.142-16.614-.276-22.383-.334-29.221-.551-81.719.91-117.043,3.123-28.7,1.8-31.492.71-27.61-12.114.6-1.645-.317-4.6-2.3-7.823a19.585,19.585,0,0,1-1.9-3.49,10.34,10.34,0,0,1,.4-2.329,4.17,4.17,0,0,1,1.536-.167c1.453-.017,1.4-10.194-.05-12.84a3.054,3.054,0,0,1,.326-3.373c1.169-.852.852-1.912-1.277-3.34a5.142,5.142,0,0,1-2.087-2.1l-.083-.426a3.761,3.761,0,0,1,.793-2.338c1.352-2.438,1.144-3.732-1.161-8.007-1.628-2.839-2.722-4.208-2.58-3.348.175,1.077-2.1-.326-5-2.947-6.337-5.836-11.839-5.6-12.164.426a10.214,10.214,0,0,1-.526,2.939c-1.887,1.511-8.073,3.39-17.2,5.393-9.033,1.144-26.374,3.682-44.4,6.445-37.779,5.936-53.032,7.1-69.947,6.086-2.371-.275-4.892.359-5.6,1.361-.768,1.052-4.266,2.1-9.15,3.006-2.872.384-5.7.776-8.374,1.177-1.236.175-2.229.317-3.381.476-14.485,1.586-31.534,2.029-34.005-.142-1.169-.918-2.655-1.119-3.365-.117a10.882,10.882,0,0,1-4.7,2.847c-2.588.159-5.485.434-8.532.86l-.292.042c-.743-.276-1.269-.685-1.236-1.344a5.176,5.176,0,0,1,4.158-4c6.529-1.06,8.09-5.752,1.561-4.684-3.156.292-9.15,1.044-13.158,1.478-4.15.451-7.481,1.445-7.347,2.3.184,1.077-.852,1.912-2.129,2.121-2.129.351-2.338-.059-.776-2.087,2.029-2.772,1.6-2.7-7.589-1.87-16.03,1.728-19.077,1.787-18.334.108a4.36,4.36,0,0,1,2.839-2.229,2.272,2.272,0,0,0,1.636-2.488c-.042-.284-1.536-.326-3.982-.2l.008-.033c.852-1.9.7-2.179-.751-.91a7.939,7.939,0,0,0-3.5-.167c-2.162.25-3.623.977-4.283,1.812-1.628.167-3.406.359-5.251.568-1.277-.626-5.11-.434-8.841.234a5.422,5.422,0,0,0-2.555.284,57.347,57.347,0,0,0-15,2.3,30.8,30.8,0,0,0-3.348,1.052q-5.548.8-10.661,1.6c-.259.025-.568.1-.843.134-.994.159-2.045.317-3.006.476a37.523,37.523,0,0,0-7.021,1.186c-7.255,1.286-12.189,2.371-12.44,2.947-.267.367-5.377,1.762-12.473,3.281a4.663,4.663,0,0,0-1.862-.058,6.321,6.321,0,0,0-1.762.576,20.005,20.005,0,0,0-7.848,1.728c-10.778,2-14.894,2.9-16.1,4.383-.5.209-.81.451-.9.751-.159.1-.367.209-.392.284-.434.977.167,1.945,1.169,2.663,1.135,4.483.626,4.8-9.2,6.178-9.543,1.336-9.86,1.169-4.149-1.311,3.415-1.444,7.063-2.263,8.132-2,1.094.492,1.595-.918,1.244-3.081-.635-3.882-1.661-3.941-17.057-.1-9.084,2.371-27.894,6.763-41.795,9.91-13.943,2.939-28.812,6.47-32.995,7.6s-15.078,4.007-24.053,6.136c-15.646,4.1-20.58,7.781-13.567,10.628,3.431,1.461-.6,5.569-5.26,5.911-.317-.017-.576.008-.918-.033a23.8,23.8,0,0,0-2.555-.117c-1.119-.033-1.67.217-1.828.726a.915.915,0,0,0-.125.559,3.916,3.916,0,0,0,.175.568,5.049,5.049,0,0,0,.217.71,4.137,4.137,0,0,1,0,3.506,10.853,10.853,0,0,1-4.191.276c-4.968-.075-5.744.493-5.185,3.949a7.388,7.388,0,0,1,.1,1.478,17.809,17.809,0,0,1-4.291,2.48c-.885.25-1.862.492-3.047.768-1.62.342-3.415.81-5.193,1.294-4.258.71-9.276,1.57-13.008,2.338-5.185,1.286-10.144,1.211-10.887.226-1.386-2.213-5-2.071-18.91.2-6.345,1.252-11.029,1.127-11.839-.284-2.2-3.632-16.422-2.421-28.912,2.271-6.312,2.363-24.512,6.88-40.442,10.136-3.891.785-7.389,1.62-10.62,2.5-1.653.367-3.173.71-4.583,1.044-10.57,2.371-13.283,3.623-14.761,6.245a11.754,11.754,0,0,0-2.354,4.275c-6.237,7.631-5.936,18.585-.668,35.616.175.543.259.91.409,1.419.493,2.822,1.01,5.969,1.528,9.209.109.843.217,1.686.326,2.555a16.288,16.288,0,0,1-.259,1.778c-2.1,8.541,4.458,31.834,20.5,72.193,3.189,7.906,7.464,19.837,9.509,26.149,1.9,6.328,4.2,12.381,4.984,13.584,1.486,1.97,6.537,17.766,6.637,20.188-.033.668,1.912,3.674,4.458,6.8,2.371,2.939,4.6,6.779,4.817,8.073.877,5.393,9.351,9.109,18.109,8.349a64.858,64.858,0,0,1,9.367-.643c.918.292,15.212-.484,21.064-1.219a7.821,7.821,0,0,1,6.771,2.221c1.845,2.363,1.945,3.006.1,3.306-1.135.184-2.588,1.97-3.34,3.649-.743,2.555-2.129,3.006-4.926,1.912a16.062,16.062,0,0,0-5.994-1.018c-.543.083-.893.659-1.11,1.444-.467-.242-.718-.159-.635.393a8.57,8.57,0,0,0,.409,1.235c-.084,2.58.768,5.828,2.212,5.869.885.075,2.2.083,3.223.134a1.3,1.3,0,0,1,.543.092,4.208,4.208,0,0,1,1.286.985,4.58,4.58,0,0,1,.426.626,2.812,2.812,0,0,1,.376,2.254,5.052,5.052,0,0,1-.359,1.052c-.893,1.787-2.939,3.081-4.475,2-.818-.526-1.277.209-1.035,1.72a11.054,11.054,0,0,1-1.528,5.794c-2.914,4.458-.292,6.245,6.3,4.725,7.239-2.062,9.4-.417,7.122,5.268-1.636,4.25-1.6,4.467,2.4,4.032,2.271-.367,3.373.117,2.622.91-3.089,2.5-1.135,4.617,3.724,4.041,2.73-.226,5.46-.443,6.1-.109,2.02.334,11.446-3.281,16.2-5.886a2.905,2.905,0,0,0,.267-.167c1.394-.785,2.379-1.478,2.48-1.912.785-3.223-2.9-4.4-4.5-1.695a5.979,5.979,0,0,1-.509.793,3.2,3.2,0,0,1-2.237-.76l-.017-.033c-.559-1.344-.451-2.213.86-3.006a1.419,1.419,0,0,0,1.16-.158,1.915,1.915,0,0,0,.918-.752c1.294-.434,3.056-.893,5.368-1.436l.033-.008c.977-.226,2-.459,3.189-.726a16.644,16.644,0,0,0,3.415-.952,1.423,1.423,0,0,0,1.044-.426c1.219-.626,1.954-1.311,1.862-1.87-.142-.86,1.353-1.544,3.473-1,2.1.317,4.433-.509,5.36-1.987,3.732-6.587,23.636-12.273,26.859-7.7,1.7,2.38,2.8,2.864,3.264,1.236.359-1.386,4.366-2.705,9.259-3.056,14.794-1.3,21.707-2.655,27.318-5.786,3.623-1.912,5.644-2.02,5.853-.726s2.413,1.378,5.535-.017c7.489-3.214,8.691-3.857,12.883-7.639,2.129-2.121,10.152-4.759,18.626-6.362,8.2-1.553,15.971-3.932,17.349-5.26,1.353-1.553,9.727-3.807,18.526-5.235,14.794-2.187,15.854-2.805,15.254-6.479-.042-.251-.033-.351-.067-.576a6.334,6.334,0,0,1-.05-1.878,1.716,1.716,0,0,1,.175-.234,2.281,2.281,0,0,1,.6-.175,14.481,14.481,0,0,1,2.789,1.636,14.65,14.65,0,0,0,9.5,2l9.509-1.545a22.167,22.167,0,0,0,4.892-1.495c1.519-.242,2.9-.509,4.166-.785a4.49,4.49,0,0,1,1.436.568,3.537,3.537,0,0,0,4.291-.476c4.091-4.433,37.754-13.241,45.168-11.572,2.1.317,4.258.192,4.575-.526.284-.635,2.571-1.753,5.4-2.688.5.468.885.317,1.144-.376,3.339-.993,8.691-2.747,12.122-3.966,2.789-.994,9.752-2.814,16.765-4.55a2.175,2.175,0,0,0,2.087-.518c.935-.225,1.87-.451,2.788-.676,8.583-1.845,17.917-4.467,20.9-5.844,6.1-2.763,6.954-2.905,22.742-3.481,1.762-.075,4.191-.276,7.021-.568,2.171-.117,4.25-.192,6.145-.209,1.2,1.044,2.121,1.211,2.914.518a.853.853,0,0,0,.743-.459c.3.008.718.008.977.033a18.061,18.061,0,0,0,3.732-.259c.434.267.71.209.768-.192.726-.234,1.152-.534.968-.885-.109-.167.543-.426,1.511-.735,13.592-1.887,29.1-4.425,39.248-6.571,10.395-2.363,80.1-10.845,94.96-11.713,22.242-1.461,32.327-3.715,32.168-7.639a6.971,6.971,0,0,1,1.094.092c.184.159.409.242.543.484a2.641,2.641,0,0,0,1.311.835c3.507,3.114,9.267,5.644,7.556,2.6-.568-.793.71-1.887,2.663-2.429,3.223-.751,3.406-.559,1.453,1.753-2.2,2.58-2,2.989,2.263,4.951,1.77.8,2.847,1.586,3.006,2.045-.8.1-1.6.175-2.455.2A32.613,32.613,0,0,1,808.6,417c-8.75-3.673-16.339-3.765-12.8.092,1.453,1.753,3.223,2.8,3.757,2.488,3.406-1.444,5.427-.668,3.757,1.6a4.668,4.668,0,0,1-5.218,1.069c-4.216-1.745-16.314,1.778-17.808,5.118-.117.259-.417.292-.618.459-.3.083-.568.142-.877.225-.284.075-.609.109-.91.159a3.021,3.021,0,0,1-1.144-.259,6.8,6.8,0,0,0-2.663-.5c-1.945-.6-3.148-.7-3.6-.167a7.845,7.845,0,0,0-2.221.426,64.678,64.678,0,0,0-9.317,1.687,3.211,3.211,0,0,0-2-.434,1.223,1.223,0,0,0-1.035,1.478c-.935.442-1.352.893-.985,1.286a4.823,4.823,0,0,0,2.146.743,2.189,2.189,0,0,0,1.578.643c.092-.017.125-.167.209-.217.167.008.342.125.493.1s.167-.167.284-.217a34.138,34.138,0,0,0,3.481.05,16.416,16.416,0,0,1,4.458.292c.042,0,.092.033.134.017,1.57.359,2.6.968,2.747,1.82.284,1.72-1.778,2.5-6.462,2.379-1.845-.008-4.2.017-6.587.092a3.756,3.756,0,0,0-3.49.142c-1.478.084-2.905.176-4.108.309-3.9.192-11.705.576-17.2.81a44.465,44.465,0,0,0-4.483.484,18.537,18.537,0,0,0-2.747.417c-1.912-.885-2.93-.334-3.164,1.1-3.849,1.495-5.811,3.6-4.517,5.736.6,1.01,2.764,1.77,4.751,1.444a4.192,4.192,0,0,1,2.9.468,5.452,5.452,0,0,1,.326,2.872c-1.085.8-3.9.067-9.042-2.388-4.425-2.162-5.494-3.315-3.54-3.857,2.663-.651,2.663-.651-.242-2.4-2.129-1.428-3.122-1.261-3.548.576-.468,1.628-4.508,2.73-12.031,3.073-6.345.367-15.855,1.035-21,1.645-5.176.4-10.286.351-11.422-.351-.985-.726-2.763.008-3.657,1.7-1.135,1.954-5.961,3.632-13.8,4.684a61.873,61.873,0,0,0-7.948,1.495,2.948,2.948,0,0,0-2.137.818c-1,.568-1.311,1.194-1.019,1.937a2.251,2.251,0,0,0,3.156,1.478c1.244-.417,3.974.242,6.128,1.879a7.9,7.9,0,0,0,3.214,1.336c-.192,1.428.785,1.453,3.106.134a37.191,37.191,0,0,0,7.23-1.461c23.911-7,46.545-8.466,46.395-3.131-.075,3.114-7.564,5.443-8.057,2.421-.417-2.588-31.317,4.442-32.853,7.573-.852,1.912,8.265,1.536,16.531-.484a57.66,57.66,0,0,1,8.516-1.386c18.76-1.945,41.719-5.911,48.173-8.29,9.159-3.707,20.121-5.276,21-3.423.284.835,5.185.484,10.712-.417,5.644-1.144,10.787-1.762,11.6-1.227.635.342,12.557-.718,26.566-2.338,26.14-3.156,29.973-3.774,50.018-7.706,6.637-1.3,15.287-2.713,19.152-3.123,8.165-.885,13.45-2.413,15.3-4.492a13.135,13.135,0,0,1,3.84-1.695c.66.818,1.177.96,1.82.267.309.05.476-.167.476-.66.1-.142.192-.259.3-.426.81-.242,1.645-.484,2.5-.71,4.224-.91,8.265-2.9,9.05-4.358,1.027-1.72,1.595-1.812,1.878-.083a2.346,2.346,0,0,0,2.655,2c1.419-.234,1.636-1.594.793-4.116-1.486-3.749-2.2-3.632,39.265-8.4,3.122-.509,6.278.092,7.063,1.294s2.588.685,4.859-1.461c5.251-5.285,26.967-9.71,26.641-5.452-.359,4.049.493,3.907,4.183-1.127,2-2.981,3.482-3.665,4.9-2.121,1.06,1.152,3.223,1.019,5.852-.735a24.5,24.5,0,0,1,9.543-3.106c3.014-.276,5.752-1.378,6.211-2.121.284-.935-.81-1.419-2.655-1.119-1.7.276-6.136-.994-9.751-2.622a51.669,51.669,0,0,0-11.029-4.183c-4.5-.818-4.5-.818-.493-3.022,6.4-3.7,13.383-4.617,12.807-1.862-.459,1.62.993,1.611,4.65-.092,6.529-2.839,6.1-2.772,8.9-1.678a40.6,40.6,0,0,0,6.028,1.236,28.737,28.737,0,0,1,6.813,1.544c2.905.86,2.905.86,0-1.77a8.242,8.242,0,0,1-2.655-6.437c.292-2.705-.559-3.448-2.972-3.056a20.118,20.118,0,0,1-8.19-1.987c-1.745-.927-2.63-1.645-2.547-1.962l.117-.05c.092-.042.234-.067.342-.108.109,0,.134-.042.284-.025,1.628.175,5.493.66,8.616,1.035,2.939.184,5.6,1.3,5.811,2.6s.852,1.636,1.453.868c.568-.977,3.089-.726,5.393.008,2.981,1.286,4.534,1.035,5.393-.877.743-1.678-.067-2.2-2.48-1.812a9.662,9.662,0,0,1-6.955-2.413c-3.081-2.822-2.939-2.847,1.494-2.454,2.663.225,5-.6,5.36-1.987.284-1.82,1.036-1.72,2.2.083,1.42,2.43,1.7,2.388,1.277-.209-.351-2.154.042-2.438,1.745-.943,1.2,1.135,10.528,1.16,20.714.167,10.319-1.018,23.544-2.07,29.505-2.154,14.043-.518,25.681-2.413,26.533-4.325a3.386,3.386,0,0,1,.593-.81c.626-.142,1.269-.275,1.787-.4a2.437,2.437,0,0,1,.25,2.112c-.434,1.845.317,1.945,2.546.476,8.842-5.652,9.66-5.118,5.995,3.674a8.89,8.89,0,0,0-.735,3.014c-.342,1.369-.351,2.254.125,2.179a2.751,2.751,0,0,0,.442-.192c1.394,1.119,4.842-.76,7.648-5.56,1.6-2.7,3.7-5.035,4.692-5.193s3.44-2.112,5.427-4.208c2.1-2.338,3.874-3.064,4.083-1.77a2.152,2.152,0,0,1-1.636,2.48c-1.845.3-3.415,6.763-2,8.3.184.351,1.561-.676,3.114-2.279h.008a4.521,4.521,0,0,0,1.628-1.7c1.428-1.444,2.546-2.187,2.638-1.653.1.651.81-.351,1.7-2.046,1.319-2.655,1.069-3.273-1.737-4.375-3.715-1.386-3.256-3.006,1.9-5.4a63.448,63.448,0,0,0,6.312-3.239c1.419-1.119,2.413-.4,2.8,1.979a6.1,6.1,0,0,0,.935,2.321c-.309.584.175,1.035,1.62,1.695.1.042.2.025.3.058a1.906,1.906,0,0,0,.367.075,2.6,2.6,0,0,0,1.478-.092,3.534,3.534,0,0,0,1.019-.66,4.354,4.354,0,0,0,.584-.593c.2-.234.443-.309.61-.609C1186.7,346.07,1185.6,342.923,1182.936,346.237Zm-447.9,100.27c-.125-.276.109-.476.785-.584a7.635,7.635,0,0,1,4.575,1.244c2.972,2.171.7,2.547-3.548.576a4.877,4.877,0,0,1-1.795-1.177Zm402.108-170.343a1.724,1.724,0,0,1,.134,1.069,2.159,2.159,0,0,1-1.4,1.219,2.247,2.247,0,0,1-2.279-1.712c-.217-1.294.217-2.246.927-2.363A2.875,2.875,0,0,1,1137.142,276.165ZM458.811,198.645a72.5,72.5,0,0,1,9.259-2.321c.192.317.417.309.71-.142,6.5-1.169,12.365-1.453,13.3-.442.526.584-6.387,1.929-15.362,3.172C453.768,200.8,452.14,200.624,458.811,198.645Zm44.867-7.088c-3.373,2.546-11.388,3.406-10.853,1.327.142-.91,2.379-1.495,4.9-1.244,2.48.042,4.258-.693,4.008-2.2a1.468,1.468,0,0,1,1.3-1.3,2,2,0,0,1,.726.033c.125.025.276.058.426.1C506.108,188.986,506.041,189.678,503.678,191.557Zm-58.684,19.753c-5.285.643-8.833.334-8.123-.668a2.506,2.506,0,0,1,.952-.5c.852-.209,1.728-.426,2.6-.643,4.7-.852,12.406-1.194,13.433-.075C454.219,209.808,450.278,210.676,444.994,211.311Zm130.084-21.423a16.144,16.144,0,0,1-6.387,1.044c-1.912-.134-.568-.793,2.981-1.369S576.714,189.178,575.078,189.887ZM823.892,409.856c3.089-.727,4.583-.526,3.406.326a12.6,12.6,0,0,1-5.677.927C819.709,410.974,820.777,410.365,823.892,409.856ZM594.481,186.506c.351,2.154-1.528,3.131-5.961,3.632-7.765.6-7.982.192-2.263-3.181C592.076,183.35,593.955,183.267,594.481,186.506Z"
              transform="translate(0)"/>
        <path class="a"
              d="M170.271,163.017c3.3-.317,9.05-.81,12.916-1.219,6.6-.635,8.583-3.615,3.623-5.46a2.5,2.5,0,0,0-3.164,2.062c-.426,1.845-.96,2.154-1.945.543-1.77-2.813-18.409-.326-17.917,2.7C163.96,162.716,166.865,163.576,170.271,163.017Z"
              transform="translate(396.808 13.554)"/>
        <path class="a"
              d="M169.643,160.224c1.8.367,4.041-.217,4.859-1.453,2.413-3.056.568-3.64-4.008-1.344C166.837,159.13,166.729,159.372,169.643,160.224Z"
              transform="translate(424.863 12.097)"/>
        <path class="a"
              d="M129.75,170.589a2.3,2.3,0,0,0,1.912-2.53c-.209-1.286-.918-2.062-1.628-1.945a2.866,2.866,0,0,0-1.912,2.53A1.478,1.478,0,0,0,129.75,170.589Z"
              transform="translate(134.449 86.139)"/>
        <path class="a"
              d="M236.265,170.682a3.786,3.786,0,0,0,3.331,1.67,2.152,2.152,0,0,0,1.636-2.48c-.209-1.294-1.628-1.954-3.331-1.67C236.34,168.453,235.63,169.455,236.265,170.682Z"
              transform="translate(927.836 101.091)"/>
        <path class="a"
              d="M246.532,178.243c.534-2.087-1.628-2.839-4.216-1.753-.71.117-1.277-.676-1.453-1.753-.209-1.294-.918-2.07-1.628-1.954s-.676,2.1.134,4.408C240.955,181.583,245.572,182.159,246.532,178.243Z"
              transform="translate(947.658 135.149)"/>
        <path class="a"
              d="M241.642,178.355c-2.129.351-3.273,1.419-2.488,2.622a2.985,2.985,0,0,0,5.677-.927C245.182,178.663,243.763,178,241.642,178.355Z"
              transform="translate(948.95 175.497)"/>
        <path class="a"
              d="M144.435,199.779c-2.805,1.561-4.934,3.682-4.792,4.55.493,3.022,10.428-.376,10.645-3.506C150.747,196.532,150,196.432,144.435,199.779Z"
              transform="translate(219.424 316.291)"/>
        <path class="a"
              d="M161.758,198.436c-.885,1.695-2.2,2.571-2.763,1.778-1.561-1.52-17.1.568-17.491,2.63-.175.693,1.8,2.138,4.291,3.064,2.763.877,4.183.651,3.582-.359-.785-1.2-.492-2.137.217-2.254.852-.133,1.695.609,1.912,1.9a2.3,2.3,0,0,0,2.621,1.786c1.135-.184,1.7-1.16.96-2.146-.643-1.227.96-2.154,3.406-2.329,3.014-.267,4.717-1.436,4.792-3.665C163.428,196.165,163.252,195.973,161.758,198.436Z"
              transform="translate(233.067 311.039)"/>
        <path class="a"
              d="M207.455,188.68a4.346,4.346,0,0,0,2.48,2.7c1.553.626,1.878-.092.96-2.154C209.517,186.125,206.962,185.658,207.455,188.68Z"
              transform="translate(717.358 237.072)"/>
        <path class="a"
              d="M218.825,186.5c-4.367.935-5.535,1.8-4.116,3.331,2.68,2.914,10.3,1.62,10.67-1.444l.008-.1c.008-.15.092-.276.067-.426C225.137,185.915,223.192,185.573,218.825,186.5Z"
              transform="translate(766.927 232.415)"/>
        <path class="a"
              d="M213.135,186.929c-.71.117-1.135,1.069-.927,2.363a2.3,2.3,0,0,0,2.622,1.787,1.478,1.478,0,0,0,.927-2.363A2.867,2.867,0,0,0,213.135,186.929Z"
              transform="translate(752.354 239.057)"/>
        <path class="a"
              d="M235.35,200.732c-6.32,4.133-15.4,4.726-15.145.918.326-3.381-1.444-3.531-2.839-.426-1.954,4.083-8.483,6.036-9.042,2.58-.284-1.72-1.06-2.922-1.912-2.788-.71.117-1.177,1.745-.86,3.682.568,3.456-1.277,3.757-10.286,1.236-1.52-.417-2.555.417-2.346,1.711s.994,1.612,1.6.852c.743-.785,1.378-.451,1.553.626.217,1.3-1.169,2.63-3.156,2.956-3.69.6-5.352-2.455-2.513-4.684a1.927,1.927,0,0,0,.284-2.705c-.7-.776-2.02.993-3.056,3.6-.852,2.8-2.379,5.043-3.231,5.176-.71.117-.568-.793.359-2.271.96-1.269,1.135-2.847.426-3.615s-2.371.61-3.69,3.256c-1.352,2.438-2.1,3.223-1.778,1.62.434-1.837-.417-2.588-2.546-2.238-2.555.409-2.63.868-.751,3.44,1.845,2.363,1.945,3.006.426,3.482-12.139,3.306-16.431,3.782-19.937,1.92-3.047-1.72-4.751-1.444-6.354.367-1.954,2.313-2.271,2.146-2.054-.994.326-3.373.042-3.331-2.379.609-2.772,4.441-2.772,4.441,3.4,5.644,3.44.551,7.305,1.912,8.3,2.638,1.135.7,7.447.117,14.01-1.62,7.981-1.962,11.989-2.4,12.273-.668.251,1.511.818,1.419,1.954-.543.785-1.453,4.225-3.565,7.522-4.767a44.841,44.841,0,0,0,10.687-5.068c6.988-4.458,11-4.893,8.224-.451-1.135,1.954-1.386,3.991-.568,4.517,1.453.877,3.089-5.151,2.171-8.107-1.019-3.6,5.109-4.375,7.982-1.077,2.162,2.53,3.682,2.947,4.892,1.419,2.379-3.273,4.225-3.573,3.548-.576-.785,3.223-.392,2.939,6.32-4.133C243.265,199.221,242.488,196.248,235.35,200.732Z"
              transform="translate(254.043 325.007)"/>
        <path class="a"
              d="M166.214,200.693c-.818,2.129-2.029,2.772-3.832,1.511-2.73-1.545-7.1,2.046-5.009,4.141,1.419,1.544,19.369-4.483,19.052-6.429C175.932,196.894,167.316,197.637,166.214,200.693Z"
              transform="translate(345.746 320.478)"/>
        <path class="a"
              d="M153.607,205.515c-1.67,2.262-8.758.76-8.149-1.778a2.87,2.87,0,0,0-1.628-2.83c-1.1-.484-1.67,1.377-1.211,4.183.417,3.473,1.586,5.277,3.531,5.627,3.056.835,9.368-3.3,9.017-5.46C155.026,204.4,154.358,204.73,153.607,205.515Z"
              transform="translate(240.175 341.346)"/>
        <path class="a"
              d="M147.446,204.864c.852-.134,1.67-1.378,1.92-2.521.209-1.369-.5-2.137-1.628-1.954a2.167,2.167,0,0,0-1.92,2.53C145.994,204,146.737,204.98,147.446,204.864Z"
              transform="translate(264.611 337.907)"/>
        <path class="a" d="M143.464,201.681a1.878,1.878,0,1,0,2.446,1.595A2.09,2.09,0,0,0,143.464,201.681Z"
              transform="translate(234.071 347.385)"/>
        <path class="a"
              d="M151.693,203.291c.317,1.945,1.277,2.454,2.446,1.595.994-1.044,1.879-1.854,1.812-2.288s-1.169-.918-2.446-1.595C152.119,200.569,151.376,201.354,151.693,203.291Z"
              transform="translate(307.494 346.703)"/>
    </g>
</svg>