<svg xmlns="http://www.w3.org/2000/svg" width="61.516" height="39.543" viewBox="0 0 61.516 39.543"><g transform="translate(-2.252 -7.875)"><path d="M32.977,7.875c-11.039,0-19.744,6.948-30.152,18.3A2.171,2.171,0,0,0,2.811,29.1c8.911,9.845,16.765,18.316,30.165,18.316,13.236,0,23.163-10.668,30.22-18.4a2.154,2.154,0,0,0,.069-2.842C56.071,17.459,46.117,7.875,32.977,7.875Zm.6,32.115A12.357,12.357,0,1,1,45.348,28.223,12.362,12.362,0,0,1,33.581,39.99Z" fill="#fff"/><path d="M22.286,15.834a6.451,6.451,0,0,1,.426-2.32c-.137,0-.275-.014-.426-.014a8.787,8.787,0,1,0,8.787,8.787c0-.178-.014-.357-.014-.535a6.088,6.088,0,0,1-2.5.535A6.374,6.374,0,0,1,22.286,15.834Z" transform="translate(10.718 5.359)" fill="#fff"/></g></svg>