<svg xmlns="http://www.w3.org/2000/svg" width="46" height="46" viewBox="0 0 46 46"><defs><style>.a{fill:#888b8d;}</style></defs><g transform="translate(-18 -18)"><path class="a" d="M41,18c-6.246,0-7.03.027-9.484.139a16.878,16.878,0,0,0-5.582,1.069,11.765,11.765,0,0,0-6.729,6.726,16.8,16.8,0,0,0-1.069,5.582C18.029,33.969,18,34.754,18,41s.028,7.028.139,9.481a16.9,16.9,0,0,0,1.069,5.582,11.77,11.77,0,0,0,6.726,6.729,16.893,16.893,0,0,0,5.583,1.069C33.97,63.973,34.753,64,41,64s7.028-.027,9.482-.139a16.9,16.9,0,0,0,5.585-1.069,11.784,11.784,0,0,0,6.726-6.728,17.048,17.048,0,0,0,1.069-5.582C63.971,48.028,64,47.246,64,41s-.029-7.03-.139-9.484a17.04,17.04,0,0,0-1.069-5.582,11.767,11.767,0,0,0-6.728-6.727,16.931,16.931,0,0,0-5.587-1.069C48.024,18.027,47.243,18,40.995,18Zm-2.063,4.145H41c6.141,0,6.869.022,9.294.132a12.734,12.734,0,0,1,4.27.792,7.621,7.621,0,0,1,4.364,4.365,12.708,12.708,0,0,1,.792,4.269c.11,2.425.134,3.153.134,9.291s-.024,6.866-.134,9.291a12.721,12.721,0,0,1-.792,4.269,7.627,7.627,0,0,1-4.364,4.362,12.687,12.687,0,0,1-4.27.793c-2.425.11-3.153.134-9.294.134s-6.869-.024-9.294-.134a12.759,12.759,0,0,1-4.271-.793,7.62,7.62,0,0,1-4.366-4.364,12.708,12.708,0,0,1-.792-4.269c-.11-2.425-.132-3.153-.132-9.295s.022-6.866.132-9.291a12.734,12.734,0,0,1,.792-4.27,7.622,7.622,0,0,1,4.366-4.366,12.706,12.706,0,0,1,4.271-.793c2.122-.1,2.944-.125,7.231-.129Zm14.341,3.819a2.76,2.76,0,1,0,2.76,2.759,2.76,2.76,0,0,0-2.76-2.759ZM41,29.189A11.81,11.81,0,1,0,52.811,41,11.812,11.812,0,0,0,41,29.189Zm0,4.145A7.667,7.667,0,1,1,33.335,41,7.667,7.667,0,0,1,41,33.333Z"/></g></svg>