<svg xmlns="http://www.w3.org/2000/svg" width="10.587" height="11.2" viewBox="0 0 10.587 11.2">
  <g id="Icon-presse-white" transform="translate(0.35 0.35)">
    <path id="Tracé_116" data-name="Tracé 116" d="M17.286,16.136c-.056,0-.1.071-.1.159v8.273c0,.614-.317,1.114-.706,1.114h-.3V15.659c0-.088-.045-.159-.1-.159H7.6c-.056,0-.1.071-.1.159v8.909c0,.789.407,1.432.908,1.432h8.071c.5,0,.908-.642.908-1.432V16.3C17.387,16.208,17.342,16.136,17.286,16.136ZM7.7,24.568v-8.75h8.273v9.864H8.408C8.019,25.682,7.7,25.182,7.7,24.568Z" transform="translate(-7.5 -15.5)" fill="#888b8d"/>
    <path id="Tracé_116_-_Contour" data-name="Tracé 116 - Contour" d="M7.6,15.15h8.475a.477.477,0,0,1,.451.509v9.663a.846.846,0,0,0,.309-.753V16.3a.454.454,0,1,1,.9,0v8.273c0,1-.553,1.782-1.258,1.782H8.408c-.705,0-1.258-.783-1.258-1.782V15.659A.477.477,0,0,1,7.6,15.15Zm8.024,1.018H8.052v8.4c0,.459.214.764.356.764h7.217Z" transform="translate(-7.5 -15.5)" fill="#888b8d"/>
    <path id="Tracé_117" data-name="Tracé 117" d="M19.646,23.5H15.578c-.043,0-.078.071-.078.159s.035.159.078.159h4.067c.043,0,.078-.071.078-.159S19.689,23.5,19.646,23.5Z" transform="translate(-13.433 -20.955)" fill="#888b8d"/>
    <path id="Tracé_117_-_Contour" data-name="Tracé 117 - Contour" d="M15.578,23.15h4.067a.517.517,0,0,1,0,1.018H15.578a.517.517,0,0,1,0-1.018Z" transform="translate(-13.433 -20.955)" fill="#888b8d"/>
    <path id="Tracé_118" data-name="Tracé 118" d="M19.646,31.5H15.578c-.043,0-.078.071-.078.159s.035.159.078.159h4.067c.043,0,.078-.071.078-.159S19.689,31.5,19.646,31.5Z" transform="translate(-13.433 -26.409)" fill="#888b8d"/>
    <path id="Tracé_118_-_Contour" data-name="Tracé 118 - Contour" d="M15.578,31.15h4.067a.517.517,0,0,1,0,1.018H15.578a.517.517,0,0,1,0-1.018Z" transform="translate(-13.433 -26.409)" fill="#888b8d"/>
    <path id="Tracé_119" data-name="Tracé 119" d="M19.646,39.5H15.578c-.043,0-.078.071-.078.159s.035.159.078.159h4.067c.043,0,.078-.071.078-.159S19.689,39.5,19.646,39.5Z" transform="translate(-13.433 -31.864)" fill="#888b8d"/>
    <path id="Tracé_119_-_Contour" data-name="Tracé 119 - Contour" d="M15.578,39.15h4.067a.517.517,0,0,1,0,1.018H15.578a.517.517,0,0,1,0-1.018Z" transform="translate(-13.433 -31.864)" fill="#888b8d"/>
  </g>
</svg>
