<svg xmlns="http://www.w3.org/2000/svg" width="22.284" height="16.713" viewBox="0 0 22.284 16.713"><defs><style>.a{fill:#741030;}</style></defs><path class="a" d="M21.862,10.019a.262.262,0,0,1,.422.2v8.9a2.09,2.09,0,0,1-2.089,2.089H2.089A2.09,2.09,0,0,1,0,19.124v-8.9a.26.26,0,0,1,.422-.2c.975.757,2.268,1.719,6.707,4.944.918.67,2.468,2.08,4.013,2.072,1.554.013,3.134-1.428,4.017-2.072C19.6,11.742,20.887,10.776,21.862,10.019Zm-10.72,5.623c1.01.017,2.463-1.271,3.195-1.8,5.776-4.191,6.215-4.557,7.547-5.6a1.041,1.041,0,0,0,.4-.823V6.589A2.09,2.09,0,0,0,20.195,4.5H2.089A2.09,2.09,0,0,0,0,6.589v.827a1.048,1.048,0,0,0,.4.823c1.332,1.04,1.771,1.41,7.547,5.6C8.679,14.371,10.132,15.659,11.142,15.642Z" transform="translate(0 -4.5)"/></svg>