<svg xmlns="http://www.w3.org/2000/svg" width="23.669" height="23.664" viewBox="0 0 23.669 23.664"><defs><style>.a{fill:#023663;}</style></defs><path class="a" d="M11.832,8A6.067,6.067,0,1,0,17.9,14.07,6.058,6.058,0,0,0,11.832,8Zm0,10.012a3.944,3.944,0,1,1,3.944-3.944,3.952,3.952,0,0,1-3.944,3.944Zm7.731-10.26a1.415,1.415,0,1,1-1.415-1.415A1.412,1.412,0,0,1,19.563,7.754Zm4.018,1.436a7,7,0,0,0-1.912-4.958,7.049,7.049,0,0,0-4.958-1.912c-1.954-.111-7.81-.111-9.763,0A7.039,7.039,0,0,0,1.989,4.227,7.026,7.026,0,0,0,.078,9.185c-.111,1.954-.111,7.81,0,9.763a7,7,0,0,0,1.912,4.958,7.058,7.058,0,0,0,4.958,1.912c1.954.111,7.81.111,9.763,0a7,7,0,0,0,4.958-1.912,7.049,7.049,0,0,0,1.912-4.958c.111-1.954.111-7.8,0-9.758ZM21.057,21.045a3.993,3.993,0,0,1-2.249,2.249c-1.558.618-5.254.475-6.975.475s-5.423.137-6.975-.475a3.993,3.993,0,0,1-2.249-2.249c-.618-1.558-.475-5.254-.475-6.975s-.137-5.423.475-6.975A3.993,3.993,0,0,1,4.857,4.845c1.558-.618,5.254-.475,6.975-.475s5.423-.137,6.975.475a3.993,3.993,0,0,1,2.249,2.249c.618,1.558.475,5.254.475,6.975S21.675,19.493,21.057,21.045Z" transform="translate(0.005 -2.238)"/></svg>