<svg xmlns="http://www.w3.org/2000/svg" xmlns:xlink="http://www.w3.org/1999/xlink" width="95.496" height="97.093" viewBox="0 0 95.496 97.093"><defs><style>.a,.d{fill:none;}.b{clip-path:url(#a);}.c{fill:#023663;}.d{stroke:#161615;stroke-miterlimit:10;stroke-width:0.75px;}.e{fill:#fff;}</style><clipPath id="a"><rect class="a" width="95.496" height="97.093"/></clipPath></defs><g transform="translate(0 0)"><g class="b" transform="translate(0 0)"><path class="c" d="M92.624,50.009A46.312,46.312,0,1,1,46.311,3.7,46.312,46.312,0,0,1,92.624,50.009" transform="translate(0 0.772)"/><circle class="d" cx="45.248" cy="45.248" r="45.248" transform="translate(4.547 0.454)"/><path class="e" d="M33.156,11.574q.087,3.046-.261,8.617-.348,6.049-.348,8.617,0,1.784.087,3.351c.058.724-.2,1.088-.783,1.088q-2.655,0-2.916-1.175a26.088,26.088,0,0,1-.566-5.7q0-2.219.392-6.724t.39-6.68a26.936,26.936,0,0,0-.434-5.048.983.983,0,0,1,.239-.7,1.4,1.4,0,0,1,.631-.522,2.07,2.07,0,0,1,2.633.609,8.268,8.268,0,0,1,.936,4.265" transform="translate(5.924 1.357)"/><path class="e" d="M48.065,18.212q.3,7.92-4.875,17.146a5.362,5.362,0,0,1-2.132,2.372,5.261,5.261,0,0,1-2.219.5,4.976,4.976,0,0,1-2.785-.827q-1.393-.914-1.175-1.741.087-.392.609-.392a3.886,3.886,0,0,1,.718.109,3.981,3.981,0,0,0,.718.109,3.742,3.742,0,0,0,3.307-2.045,18.3,18.3,0,0,0,1.784-3.917q1.306-3.7,1.61-4.7a18.483,18.483,0,0,0,.783-5.048,15.461,15.461,0,0,0-.131-2,4.673,4.673,0,0,0-1.306,2.045,4.1,4.1,0,0,0-1.393.609A3.356,3.356,0,0,1,39.97,21a5.149,5.149,0,0,1-4.134-1.7A5.075,5.075,0,0,1,34.7,15.993a11.614,11.614,0,0,1,2-5.788q2.176-3.612,5.309-3.612a4.428,4.428,0,0,1,.87.087q.653.435,1.371.87a2.784,2.784,0,0,0,1.458.435,3.171,3.171,0,0,0,.522-.044,9.088,9.088,0,0,1,1.7,4.874q.044,2.7.132,5.4m-4.353-7.442a1.134,1.134,0,0,0,0-.435,2.617,2.617,0,0,1-.087-.435.7.7,0,0,1-.435.131,1.825,1.825,0,0,1-.609-.152,1.831,1.831,0,0,0-.566-.152c-.233,0-.377.2-.435.609q-1.393.783-3.046,4.4a3.314,3.314,0,0,0-.261,1.393,3.7,3.7,0,0,0,.479,1.958,5.2,5.2,0,0,0,2.264-1.48q2.609-3.22,2.7-5.831" transform="translate(7.247 1.377)"/><path class="e" d="M41.128,46.639a.806.806,0,0,1,.262.654q0,.87-.61,1.087a6.734,6.734,0,0,0-2.7,1.7Q34.3,53.865,31.6,62.177a3.882,3.882,0,0,0,1.588-.522,3.9,3.9,0,0,1,1.632-.523,1.917,1.917,0,0,1,.783.175,5.663,5.663,0,0,1,3.786,4.307,6.884,6.884,0,0,1,.131,1.35,7.913,7.913,0,0,1-1.7,4.742,12.947,12.947,0,0,1-3.743,3.439,2.587,2.587,0,0,1-1.349.39,6.691,6.691,0,0,1-2.742-1.043q-2.916-1.654-2.914-6.049a16.041,16.041,0,0,1,.347-3.22,37.122,37.122,0,0,1,3.57-10.14q2.74-4.918,3.045-5.4a10.894,10.894,0,0,1,4.482-4,1.752,1.752,0,0,1,.7-.175,3.81,3.81,0,0,1,1.915,1.131M35.951,66.485a3.281,3.281,0,0,0-.371-1.414c-.247-.508-.56-.763-.936-.763a2.853,2.853,0,0,0-1.175.5,2.784,2.784,0,0,1-1.262.5,1.128,1.128,0,0,1-.914-.521,4.153,4.153,0,0,0-.782,2.7,15.954,15.954,0,0,0,.26,2.481q.348,2.176,1.046,2.176a.833.833,0,0,0,.434-.132,6.78,6.78,0,0,0,2.611-2.305,5.592,5.592,0,0,0,1.089-3.22" transform="translate(5.654 9.504)"/><path class="e" d="M50.484,50.619a5.542,5.542,0,0,1,.044.653q0,2.045-2.219,4.569-3.266,3.786-3.568,4.265,1.347.219,2.742.435a4.015,4.015,0,0,1,2.437,1.61,9.2,9.2,0,0,1,1.741,5.092,10.96,10.96,0,0,1-1,4.221q-.219.481-2.176,4.4A34.31,34.31,0,0,1,43.217,83a3.9,3.9,0,0,1-2.7,1.61,1.608,1.608,0,0,1-.785-.218q-.52-.261-1.043-.587A1.07,1.07,0,0,1,38.124,83,2.5,2.5,0,0,1,39.6,80.733a14.5,14.5,0,0,0,2.611-1.828,41.677,41.677,0,0,0,4.091-5.614,13.465,13.465,0,0,0,1.567-6.4c0-.58-.03-1.189-.087-1.828q-.131-1.478-1.393-1.61a19.043,19.043,0,0,0-5.179.87A5.762,5.762,0,0,0,39.909,63.2q-.827-.609-.828-1.131a1.651,1.651,0,0,1,.393-.957q2.219-2.7,6.352-8.312a6.407,6.407,0,0,0-2.131.261,11.367,11.367,0,0,1-2.219.392,2.638,2.638,0,0,1-2.132-1,1.482,1.482,0,0,1-.3-.87v-.957q.392-.087,5.614-1.306a13.325,13.325,0,0,1,2.872-.348q2.7,0,2.959,1.654" transform="translate(7.96 10.225)"/><path class="e" d="M19.945,35.5a17.452,17.452,0,0,1,3.063-.254,5.709,5.709,0,0,1,4.027,1.3,4.672,4.672,0,0,1,1.4,3.628,7.724,7.724,0,0,1-2.539,5.953,7.772,7.772,0,0,1-5.211,1.488,16.835,16.835,0,0,1-3-.232Zm.591,9.991a6.965,6.965,0,0,0,.982.063,3.758,3.758,0,0,0,3.058-1.5,6.546,6.546,0,0,0,1.176-3.934c0-1.707-.856-2.865-2.714-2.865a4.737,4.737,0,0,0-.931.071Z" transform="translate(3.693 7.36)"/><path class="e" d="M34.258,42.275H30.411l-.6,3.086h4.345l-.416,2.163H26.9L29.218,35.3h6.6L35.4,37.458H31.332l-.532,2.7h3.868Z" transform="translate(5.617 7.372)"/><path class="e" d="M36.272,35.526a14.341,14.341,0,0,1,2.965-.284,5.06,5.06,0,0,1,3.109.858A2.989,2.989,0,0,1,43.5,38.553a4.4,4.4,0,0,1-1.631,3.5,5.9,5.9,0,0,1-3.659,1.122,8.469,8.469,0,0,1-.917-.062l-.847,4.427H33.993Zm1.4,5.532a4.355,4.355,0,0,0,.835.073,2.358,2.358,0,0,0,2.467-2.371c0-1.069-.706-1.506-1.68-1.506a4.266,4.266,0,0,0-.908.073Z" transform="translate(7.099 7.36)"/><path class="e" d="M46.442,35.3l-1.389,7.3a7.091,7.091,0,0,0-.147,1.418,1.429,1.429,0,0,0,1.519,1.549c1.175,0,1.952-.786,2.358-2.925l1.4-7.342h2.508L51.33,42.48c-.665,3.478-2.144,5.227-5.205,5.227-2.363,0-3.716-1.235-3.716-3.59a10.308,10.308,0,0,1,.189-1.778L43.933,35.3Z" transform="translate(8.856 7.372)"/><path class="e" d="M55.591,35.3l-2.322,12.22H50.761L53.082,35.3Z" transform="translate(10.6 7.373)"/><path class="e" d="M55.2,44.874a5.054,5.054,0,0,0,2.525.67c1.019.013,1.882-.51,1.882-1.466,0-.731-.507-1.183-1.52-1.824-1.194-.758-2.209-1.723-2.209-3.153,0-2.41,1.99-3.936,4.565-3.936a5.234,5.234,0,0,1,2.576.537l-.763,2.107a4.212,4.212,0,0,0-1.986-.471c-1.142,0-1.789.613-1.79,1.36,0,.673.595,1.121,1.613,1.787a3.7,3.7,0,0,1,2.137,3.145c0,2.659-2.083,4.089-4.684,4.089a5.714,5.714,0,0,1-3.131-.747Z" transform="translate(11.363 7.344)"/></g></g></svg>