<svg xmlns="http://www.w3.org/2000/svg" width="127.253" height="36.783" viewBox="0 0 127.253 36.783"><defs><style>.a{fill:#002a4d;}.b{fill:#dc0023;}</style></defs><g transform="translate(-168.698 -224.27)"><path class="a" d="M170.389,240.069c.1-6.48,6.671-12.16,16.868-15.8-11.16,3.484-18.452,9.245-18.558,15.872-.122,7.587,9.206,14.341,23.076,17.985-12.935-3.845-21.506-10.555-21.386-18.058"/><path class="b" d="M247.444,255.826a70.866,70.866,0,0,1-11.268,2.784,95.706,95.706,0,0,1-17.145,1.226c-24.911-.4-44.96-9.721-44.783-20.82.066-4.123,2.914-7.91,7.742-11.022-6.05,3.316-9.692,7.556-9.767,12.225-.172,10.748,18.62,19.828,42.426,20.756q1.17.045,2.357.065a93.511,93.511,0,0,0,20-1.753c7.155-1.456,13.256-3.745,17.688-6.6a46.63,46.63,0,0,1-7.246,3.14"/><path class="a" d="M200.139,232.036a4.34,4.34,0,0,0-3.722-1.475c-2.181,0-3.433,1.347-3.433,2.5,0,1.219,1.026,1.476,1.958,1.733l1.732.449c4.011,1.026,5.326,2.887,5.326,6.16,0,5.519-4.588,7.733-9.465,7.733-3.818,0-6.1-.866-8.086-3.144l3.851-3.37a5.9,5.9,0,0,0,4.716,1.8c2.086,0,3.626-1.155,3.626-2.47,0-1.219-.674-1.637-1.925-1.958l-1.733-.449c-4.62-1.187-5.326-3.85-5.326-5.615,0-5.005,3.882-8.021,9.369-8.021a8.484,8.484,0,0,1,6.834,2.856Z"/><path class="a" d="M208.867,248.945h-5.326L208.13,226.1h5.325Z"/><path class="a" d="M231.584,230.817h-5.23l-3.626,18.128H217.4l3.626-18.128h-5.454l.962-4.716h16.01Z"/><path class="a" d="M242.943,230.849H240.12l-1.027,5.005h2.791A2.877,2.877,0,0,0,245.029,233a1.913,1.913,0,0,0-2.086-2.15m2.5,8.759,3.048,9.337h-5.839l-2.407-8.663h-2.021l-1.764,8.663h-5.327l4.588-22.845h8.117c4.781,0,6.546,3.081,6.546,6.61a7.608,7.608,0,0,1-4.941,6.9"/><path class="a" d="M262.068,234.282,258.6,241.02h4.171Zm1.443,14.663-.32-3.593h-6.77l-1.765,3.593h-5.679L261.426,226.1h4.139l3.368,22.845Z"/><path class="a" d="M291.542,248.945h-5.326l2.067-11.262-4.074,5.647h-3.4l-2.086-5.647-2.279,11.262h-5.325L275.7,226.1h4.974l2.921,10.075,7.122-10.075h5.23Z"/><path class="a" d="M170.389,240.069c.1-6.48,6.671-12.16,16.868-15.8-11.16,3.484-18.452,9.245-18.558,15.872-.122,7.587,9.206,14.341,23.076,17.985-12.935-3.845-21.506-10.555-21.386-18.058"/><path class="b" d="M247.444,255.826a70.866,70.866,0,0,1-11.268,2.784,95.706,95.706,0,0,1-17.145,1.226c-24.911-.4-44.96-9.721-44.783-20.82.066-4.123,2.914-7.91,7.742-11.022-6.05,3.316-9.692,7.556-9.767,12.225-.172,10.748,18.62,19.828,42.426,20.756q1.17.045,2.357.065a93.511,93.511,0,0,0,20-1.753c7.155-1.456,13.256-3.745,17.688-6.6a46.63,46.63,0,0,1-7.246,3.14"/><path class="a" d="M200.139,232.036a4.34,4.34,0,0,0-3.722-1.475c-2.181,0-3.433,1.347-3.433,2.5,0,1.219,1.026,1.476,1.958,1.733l1.732.449c4.011,1.026,5.326,2.887,5.326,6.16,0,5.519-4.588,7.733-9.465,7.733-3.818,0-6.1-.866-8.086-3.144l3.851-3.37a5.9,5.9,0,0,0,4.716,1.8c2.086,0,3.626-1.155,3.626-2.47,0-1.219-.674-1.637-1.925-1.958l-1.733-.449c-4.62-1.187-5.326-3.85-5.326-5.615,0-5.005,3.882-8.021,9.369-8.021a8.484,8.484,0,0,1,6.834,2.856Z"/><path class="a" d="M208.867,248.945h-5.326L208.13,226.1h5.325Z"/><path class="a" d="M231.584,230.817h-5.23l-3.626,18.128H217.4l3.626-18.128h-5.454l.962-4.716h16.01Z"/><path class="a" d="M242.943,230.849H240.12l-1.027,5.005h2.791A2.877,2.877,0,0,0,245.029,233a1.913,1.913,0,0,0-2.086-2.15m2.5,8.759,3.048,9.337h-5.839l-2.407-8.663h-2.021l-1.764,8.663h-5.327l4.588-22.845h8.117c4.781,0,6.546,3.081,6.546,6.61a7.608,7.608,0,0,1-4.941,6.9"/><path class="a" d="M262.068,234.282,258.6,241.02h4.171Zm1.443,14.663-.32-3.593h-6.77l-1.765,3.593h-5.679L261.426,226.1h4.139l3.368,22.845Z"/><path class="a" d="M291.542,248.945h-5.326l2.067-11.262-4.074,5.647h-3.4l-2.086-5.647-2.279,11.262h-5.325L275.7,226.1h4.974l2.921,10.075,7.122-10.075h5.23Z"/></g></svg>