<svg xmlns="http://www.w3.org/2000/svg" xmlns:xlink="http://www.w3.org/1999/xlink" width="124.27" height="122.572" viewBox="0 0 124.27 122.572"><defs><style>.a{fill:#9fb2c9;}.b{clip-path:url(#a);}.c{fill:#161615;}.d{fill:none;stroke:#161615;stroke-miterlimit:10;}.e{fill:#023663;}.f{fill:#fff;}</style><clipPath id="a"><rect class="a" width="124.27" height="122.572" transform="translate(0 0)"/></clipPath></defs><g transform="translate(0 0)"><g class="b"><path class="c" d="M.649,120.22a4.181,4.181,0,0,0,2.089.554c.843.011,1.557-.422,1.557-1.213,0-.606-.419-.98-1.257-1.51a3.205,3.205,0,0,1-1.827-2.607c0-2,1.646-3.256,3.776-3.256a4.344,4.344,0,0,1,2.131.443l-.631,1.743a3.486,3.486,0,0,0-1.643-.389c-.945,0-1.48.506-1.481,1.125,0,.556.492.926,1.334,1.477a3.06,3.06,0,0,1,1.768,2.6c0,2.2-1.723,3.383-3.875,3.383A4.725,4.725,0,0,1,0,121.954Z"/><path class="c" d="M13.329,118.093H10.146l-.494,2.554h3.594l-.344,1.788H7.24l1.919-10.11H14.62l-.35,1.783H10.908l-.44,2.236h3.2Z"/><path class="c" d="M16.236,112.5a12.2,12.2,0,0,1,2.5-.234,4.443,4.443,0,0,1,2.534.616,2.2,2.2,0,0,1,.98,1.881,3.021,3.021,0,0,1-2.217,2.914l-.006.048c.583.261.844.9.92,1.879a19.1,19.1,0,0,0,.318,2.832H19.142a19.558,19.558,0,0,1-.222-2.395c-.065-1.224-.437-1.613-1.225-1.613h-.554l-.755,4.008H14.341Zm1.217,4.364H18.2a1.812,1.812,0,0,0,1.9-1.812c0-.729-.545-1.159-1.36-1.159a3.228,3.228,0,0,0-.74.067Z"/><path class="c" d="M24.256,122.434l-.974-10.109h2.184l.277,4.9c.072,1.027.1,2.065.124,3.034H25.9c.326-.925.76-2.04,1.2-3.038l2.129-4.9h2.309l-4.921,10.109Z"/><path class="c" d="M34.619,112.325,32.7,122.434H30.624l1.92-10.109Z"/><path class="c" d="M41.271,122.207a5.968,5.968,0,0,1-2.282.365,3.785,3.785,0,0,1-4.009-4.038,6.336,6.336,0,0,1,2.365-5.22,5.574,5.574,0,0,1,3.5-1.127,4.352,4.352,0,0,1,1.9.36l-.571,1.721A3.887,3.887,0,0,0,40.625,114a3.072,3.072,0,0,0-2.075.8,4.661,4.661,0,0,0-1.328,3.436c0,1.521.744,2.536,2.292,2.536a4.5,4.5,0,0,0,1.651-.285Z"/><path class="c" d="M48.429,118.093H45.246l-.494,2.554h3.594L48,122.435H42.34l1.919-10.11H49.72l-.35,1.783H46.008l-.44,2.236h3.2Z"/><path class="c" d="M58.641,122.207a5.958,5.958,0,0,1-2.281.365,3.785,3.785,0,0,1-4.009-4.038,6.336,6.336,0,0,1,2.365-5.22,5.572,5.572,0,0,1,3.5-1.127,4.352,4.352,0,0,1,1.9.36l-.571,1.721A3.887,3.887,0,0,0,58,114a3.072,3.072,0,0,0-2.075.8,4.661,4.661,0,0,0-1.328,3.436c0,1.521.744,2.536,2.291,2.536a4.5,4.5,0,0,0,1.652-.285Z"/><path class="c" d="M61.628,112.325H63.7l-1.578,8.3h3.462l-.345,1.808H59.709Z"/><path class="c" d="M70.288,112.325l-1.921,10.109H66.293l1.92-10.109Z"/><path class="c" d="M76.313,118.093H73.13l-.494,2.554H76.23l-.344,1.788H70.224l1.919-10.11H77.6l-.35,1.783H73.892l-.44,2.236h3.2Z"/><path class="c" d="M77.319,122.434l1.919-10.109h2.29l1.165,3.906c.367,1.3.606,2.325.8,3.355l.036,0a33.205,33.205,0,0,1,.513-3.9l.635-3.362h1.9l-1.919,10.109H82.605l-1.229-3.951a28.34,28.34,0,0,1-.846-3.474l-.044,0c-.114,1-.35,2.5-.659,4.137l-.618,3.285Z"/><path class="c" d="M89.619,114.177h-2.4l.363-1.852h6.882l-.356,1.852h-2.42l-1.563,8.258H88.056Z"/><path class="c" d="M94.068,120.22a4.181,4.181,0,0,0,2.089.554c.843.011,1.557-.422,1.557-1.213,0-.606-.419-.98-1.257-1.51a3.205,3.205,0,0,1-1.827-2.607c0-2,1.646-3.256,3.776-3.256a4.344,4.344,0,0,1,2.131.443l-.631,1.743a3.486,3.486,0,0,0-1.643-.389c-.945,0-1.48.506-1.481,1.125,0,.556.492.926,1.334,1.477a3.06,3.06,0,0,1,1.768,2.6c0,2.2-1.723,3.383-3.875,3.383a4.725,4.725,0,0,1-2.59-.619Z"/><path class="a" d="M30.233,7.575A31.179,31.179,0,0,0,12.307,25.256c-5.394,13.76-2.013,27.116,6.128,36.06a8.032,8.032,0,0,1,1.725,8.11L15.08,83.649,29.422,72.922a7.906,7.906,0,0,1,6.45-1.448,35.024,35.024,0,0,0,21.635-2.157A31.237,31.237,0,0,0,74.541,51.424C85.01,23.113,58.56-3.184,30.233,7.575"/><path class="d" d="M28.552,3.034A32.086,32.086,0,0,0,10.106,21.227c-5.551,14.16-2.072,27.9,6.306,37.105a8.265,8.265,0,0,1,1.775,8.346L12.96,81.313,27.718,70.276a8.133,8.133,0,0,1,6.637-1.491,36.037,36.037,0,0,0,22.262-2.219A32.146,32.146,0,0,0,74.144,48.154C84.917,19.023,57.7-8.037,28.552,3.034Z"/><path class="e" d="M113.858,91.71a12.88,12.88,0,0,0-2.3,12.551l1.088,3.046c2.151,6.305.994,2.543,3.675,10.981l-14.781-11.467a12.747,12.747,0,0,0-9.952-2.319,40.051,40.051,0,0,1-6.612.795A37.491,37.491,0,1,1,113.858,91.71"/><path class="d" d="M115.161,87.8a12.877,12.877,0,0,0-2.3,12.55s.78,1.1,4.763,14.028l-14.781-11.467A12.747,12.747,0,0,0,92.89,100.6a40.055,40.055,0,0,1-6.612.794A37.49,37.49,0,1,1,115.161,87.8Z"/><path class="e" d="M50.607,24.5q0,3.21-4.978,6.509-.618.353-1.826,1.148c-.137.1-.226.394-.265.884a3.311,3.311,0,0,1-.235,1.208,1.15,1.15,0,0,1-1.15.618,2.3,2.3,0,0,1-1.826-1,3.122,3.122,0,0,1-.736-2,3.719,3.719,0,0,1,1.443-2.829q.383-.323,2.681-1.766,1.443-.913,1.443-1.65a1.008,1.008,0,0,0-.368-.751,1.145,1.145,0,0,0-.78-.338,8.7,8.7,0,0,0-1.8,1.015,5.271,5.271,0,0,1-2.622,1.017,2.1,2.1,0,0,1-1.826-1.119,3.889,3.889,0,0,1-.648-2.151q0-2.3,2.945-3.563a12.305,12.305,0,0,1,4.919-1,5.315,5.315,0,0,1,3.992,1.708A5.681,5.681,0,0,1,50.607,24.5M45.747,38.84a2.308,2.308,0,0,1-1.178,2,4.34,4.34,0,0,1-2.327.618,3.456,3.456,0,0,1-2.032-.618,2.064,2.064,0,0,1-.972-1.768,2.318,2.318,0,0,1,1.149-2,4.093,4.093,0,0,1,2.3-.676q3.063,0,3.063,2.444"/><path class="f" d="M68.1,64.672a1.9,1.9,0,0,0-1.637-.656c-.96,0-1.51.6-1.51,1.112,0,.542.451.655.861.77l.762.2c1.764.456,2.342,1.283,2.342,2.737,0,2.452-2.018,3.435-4.162,3.435a4.154,4.154,0,0,1-3.557-1.4l1.694-1.5a2.581,2.581,0,0,0,2.074.8c.917,0,1.594-.513,1.594-1.1,0-.541-.295-.727-.846-.869l-.762-.2c-2.032-.527-2.342-1.71-2.342-2.494,0-2.224,1.707-3.564,4.12-3.564a3.716,3.716,0,0,1,3.006,1.269Z"/><path class="f" d="M71.938,72.184H69.6l2.018-10.149h2.342Z"/><path class="f" d="M81.93,64.13h-2.3l-1.6,8.054H75.693l1.594-8.054h-2.4l.424-2.1h7.041Z"/><path class="f" d="M86.924,64.144H85.683l-.452,2.224h1.228A1.272,1.272,0,0,0,87.842,65.1a.846.846,0,0,0-.918-.956m1.1,3.892,1.341,4.148H86.8l-1.058-3.849H84.85l-.776,3.849H81.732L83.75,62.035h3.57A2.651,2.651,0,0,1,90.2,64.972a3.379,3.379,0,0,1-2.174,3.064"/><path class="f" d="M95.336,65.67l-1.524,2.993h1.835Zm.635,6.514-.141-1.6H92.853l-.777,1.6h-2.5l5.475-10.149h1.82l1.482,10.149Z"/><path class="f" d="M108.3,72.184h-2.343l.909-5-1.792,2.508h-1.5l-.917-2.508-1,5H99.316l2.017-10.149h2.188l1.285,4.476,3.132-4.476h2.3Z"/></g></g></svg>