<svg xmlns="http://www.w3.org/2000/svg" xmlns:xlink="http://www.w3.org/1999/xlink" width="85.766" height="94.099" viewBox="0 0 85.766 94.099"><defs><style>.a{fill:none;}.b{clip-path:url(#a);}.c{fill:#002a4d;}</style><clipPath id="a"><rect class="a" width="85.766" height="94.099" transform="translate(0 0)"/></clipPath></defs><g transform="translate(15.259 16.742)"><g class="b" transform="translate(-15.259 -16.742)"><path class="c" d="M9.727,35.227q0,.92-1.225,1.157a4.053,4.053,0,0,0-1.973.714A14.455,14.455,0,0,0,2.721,47.469a16.525,16.525,0,0,0,.953,5.645q.782,2.18,1.121,2.858a5.58,5.58,0,0,0,2.074,2.38c.34.16.683.307,1.02.442a.944.944,0,0,1,.545.851,1.535,1.535,0,0,1-.357.986.737.737,0,0,1-.767.34,6.824,6.824,0,0,1-1.358-.442,11.817,11.817,0,0,1-3.536-4.047q-.477-.782-.97-1.615a7.77,7.77,0,0,1-.73-1.582A41.991,41.991,0,0,1,.137,48.9,20.555,20.555,0,0,1,0,46.584,15.492,15.492,0,0,1,3.5,36.349Q5.546,33.9,7.753,33.9a2.844,2.844,0,0,1,1.736.579c.158.113.239.362.239.747" transform="translate(0 18.727)"/><path class="c" d="M18.292,36.292a39.532,39.532,0,0,1-1.361,6.36q-1.53,5.34-1.768,6.461a16.069,16.069,0,0,1-2.855,6.258,3.7,3.7,0,0,1-3.061,1.768Q7.716,57.1,6.967,55.2a19.947,19.947,0,0,1-1.293-7.515,54.92,54.92,0,0,1,.477-6.394,15.609,15.609,0,0,1-.034-2.108q0-2.107,1.633-2.108a1.7,1.7,0,0,1,.731.188q.391.186.765.39.033,1.735-.1,5.1-.17,3.6-.169,5.2,0,1.7.1,3.094a20.54,20.54,0,0,0,.612,2.721,11.251,11.251,0,0,0,2.245-4.25q.275-.885,1.088-4.83A21.748,21.748,0,0,1,14.484,40a6.5,6.5,0,0,0,.407-1.8A6.992,6.992,0,0,1,15.3,36.36a1.31,1.31,0,0,1,1.292-.815,1.91,1.91,0,0,1,1.7.747" transform="translate(3.134 19.635)"/><path class="c" d="M18.3,37.316q.065.987.067,2.04,0,2.315-.475,6.972t-.477,7.039c0,.591.011,1.169.034,1.736a1.223,1.223,0,0,1-1.326.919q-1.465-.068-1.6-1.259a21.96,21.96,0,0,1-.137-2.516,62.377,62.377,0,0,1,.562-6.905,62.077,62.077,0,0,0,.56-6.868c0-.59-.023-1.167-.068-1.736a1.2,1.2,0,0,1,1.157-.646,2.56,2.56,0,0,1,1.293.376.4.4,0,0,1,.2-.1q.1,0,.1.34a1.433,1.433,0,0,0,0,.477.207.207,0,0,0,.1.135" transform="translate(7.95 19.937)"/><path class="c" d="M25.455,35.255q0,.68-.989,1.191a.726.726,0,0,1-.579.034c-.317-.09-.484-.137-.509-.137a.584.584,0,0,0-.407.2,6.108,6.108,0,0,0-1.836,4.49,5.355,5.355,0,0,0,.306,1.835q.137.375,2.586,5.272a12.984,12.984,0,0,1,1.63,5.542,7.615,7.615,0,0,1-.917,3.606,5.555,5.555,0,0,1-1.531,1.5,3.144,3.144,0,0,1-1.768.714,1.615,1.615,0,0,1-.577-.1q-1.02-.442-1.021-1.122a1.645,1.645,0,0,1,.511-.986.915.915,0,0,1,.646-.2.729.729,0,0,0,.68-.408,7.005,7.005,0,0,0,.716-3.06q0-2.212-2.194-6.411t-2.194-6.716a8.187,8.187,0,0,1,.815-3.707A5.6,5.6,0,0,1,21.441,34.1a3.542,3.542,0,0,1,1.531-.373,2.751,2.751,0,0,1,2.141.782,1.124,1.124,0,0,1,.343.747" transform="translate(9.947 18.63)"/><path class="c" d="M28.051,37.316q.068.987.068,2.04,0,2.315-.475,6.972t-.477,7.039c0,.591.011,1.169.034,1.736a1.223,1.223,0,0,1-1.326.919q-1.465-.068-1.6-1.259a22.329,22.329,0,0,1-.135-2.516A62.377,62.377,0,0,1,24.7,45.34a62.078,62.078,0,0,0,.56-6.868c0-.59-.023-1.167-.068-1.736a1.2,1.2,0,0,1,1.157-.646,2.56,2.56,0,0,1,1.293.376.4.4,0,0,1,.2-.1c.068,0,.1.113.1.34a1.433,1.433,0,0,0,0,.477.21.21,0,0,0,.1.135" transform="translate(13.335 19.937)"/><path class="c" d="M42.114,34.958q-.477,4.557-.919,9.148a88.749,88.749,0,0,0-.577,9.08q0,1.19.068,2.346a1.175,1.175,0,0,1-.391.953,1.362,1.362,0,0,1-.97.407q-1.055,0-1.768-1.428a120.135,120.135,0,0,1-5.405-13.331c-.047-.137-.1-.2-.171-.2-.16,0-.261.16-.307.477A86.882,86.882,0,0,0,31.1,52.641q0,2.585.135,5.272a1.394,1.394,0,0,1-.577,1.36.713.713,0,0,1-.509.238,1.377,1.377,0,0,1-.612-.2c-.34-.16-.557-.261-.646-.306-.3-.092-.477-.363-.545-.817-.023-.363-.045-.737-.068-1.122q-.1-1.9-.1-3.979,0-3.6.407-9.012.647-8.229.713-9.114c.025-.5.442-.748,1.261-.748q.577-.068,1.7.849a52.756,52.756,0,0,1,2.689,6.734,46.579,46.579,0,0,0,2.788,6.767q.512-4.522,1.6-13.67c.068-.452.4-.68.986-.68a3.07,3.07,0,0,1,.716.1c.362.092.577.149.646.171a.717.717,0,0,1,.442.477" transform="translate(15.562 18.895)"/><path class="c" d="M50.226,37.8a36.733,36.733,0,0,1-3.709,1.191,36.174,36.174,0,0,0-3.7,1.191,17.68,17.68,0,0,0-.444,3.943,3.528,3.528,0,0,0,1.259.2,11.533,11.533,0,0,0,1.6-.169,11.385,11.385,0,0,1,1.6-.171,3.1,3.1,0,0,1,1.63.408,2.342,2.342,0,0,1,.477.885.417.417,0,0,1-.238.374,3.823,3.823,0,0,0-.477.475.773.773,0,0,1-.68.272,14.167,14.167,0,0,1-2.619.2,7.55,7.55,0,0,0-2.551.408,17.1,17.1,0,0,0-.647,3.979,3.741,3.741,0,0,0,.273,1.563q1.6,1.125,5.544.953a.925.925,0,0,0,.579-.256A.88.88,0,0,1,48.628,53q.948-.2,1.257,1.428a1.363,1.363,0,0,1-.189,1,1,1,0,0,1-.831.492,25.378,25.378,0,0,1-7.144-.646,3.6,3.6,0,0,1-1.732-1.054,3.043,3.043,0,0,1-.885-1.838,23.062,23.062,0,0,1,0-5.3c-.633-.43-.919-.849-.851-1.257.025-.2.2-.391.528-.56s.515-.346.562-.528.135-1.257.272-3.231q-1.9-.373-1.871-1.428a1.827,1.827,0,0,1,1.191-1.565q1.087-.442,2.176-.883a16.1,16.1,0,0,1,3.162-1.157q1.667-.442,3.333-.851a2.187,2.187,0,0,1,.407-.034,4.4,4.4,0,0,1,2.144.714c.022.092.079.262.169.511a1.815,1.815,0,0,1,.137.543.519.519,0,0,1-.238.442" transform="translate(20.85 19.659)"/><path class="c" d="M52.978,40.211a4.626,4.626,0,0,0,.068-1.088,2.517,2.517,0,0,0-.595-1.293,1.973,1.973,0,0,0-1.58-.577c-.545,0-.886.171-1.021.509a9.972,9.972,0,0,0-.169,1.939q0,.442.1,2.279a18.374,18.374,0,0,1,0,2.279q2.822-2.107,3.2-4.047M60.155,55.48a.5.5,0,0,1,.1.306q0,.78-1.63,1.191a39.859,39.859,0,0,1-4.491-4.286q-2.992-3.23-4.454-4.488-.1.885-.374,4.625a23.743,23.743,0,0,1-.613,4.488,1.8,1.8,0,0,0-.424.171.869.869,0,0,1-.6.1,1.862,1.862,0,0,1-1.5-2.076,8.938,8.938,0,0,1,.137-1.358c.09-.658.147-1.067.169-1.226q.135-1.97.171-4.693V44.529a50.075,50.075,0,0,1,.509-7.788q.34-2.107,3.979-1.937a4.17,4.17,0,0,1,3.2,1.836A5.686,5.686,0,0,1,55.6,40.176a5.332,5.332,0,0,1-1.189,3.2,7.459,7.459,0,0,1-2.516,2.243c-.408.228-.613.477-.613.75,0,.295.239.646.714,1.054q.545.442,1.088.883.033.037,3.741,3.4a17.362,17.362,0,0,1,3.333,3.775" transform="translate(25.508 19.218)"/><path class="c" d="M9.841,58.1a48.575,48.575,0,0,0,54.628-3.2c1.372-1.068-.554-2.971-1.913-1.914a45.8,45.8,0,0,1-51.349,2.782c-1.49-.91-2.852,1.43-1.366,2.336" transform="translate(5.082 29.094)"/><path class="c" d="M22.128,10.968q-.116-1.514-.29-3.027A3.137,3.137,0,0,0,20.1,5.577c-.886-.126-.227-.014-.689.017a1.449,1.449,0,0,0-1.216.331.946.946,0,0,0-.346.945q.519,3.076.692,4.589.405,4.068.405,7,0,10.781-5.809,16.769a5.247,5.247,0,0,1-.868.509,3.28,3.28,0,0,1-2.813-.3q-1.085-.766-2.1-1.607a1.867,1.867,0,0,0-1.872-.307c-.827.2-1.549,1.065-1.2,1.779a6.537,6.537,0,0,0,2.358,2.563,1.083,1.083,0,0,0,.168.143,12.565,12.565,0,0,0,1.708.981,6.471,6.471,0,0,0,.588.377,5.033,5.033,0,0,0,.7.3,6.07,6.07,0,0,0,2.251-.078q9.368-3.831,10.355-18.3a53.8,53.8,0,0,0-.29-10.313" transform="translate(2.322 3.048)"/><path class="c" d="M26.428,4.411a7.009,7.009,0,0,1,.236,1.8,12.224,12.224,0,0,1-.992,4.21q-1.423,3.642-1.608,4.4-1.139,4.164-3.218,4.162a2.1,2.1,0,0,1-.756-.143c-.663-.219-.107-1.053.081-1.936s.646-2.08,1.751-5.36a31.088,31.088,0,0,0,1.465-6.528c.062-.692.093-1.577,1.29-1.451a6.274,6.274,0,0,1,1.088.189,1,1,0,0,1,.663.661" transform="translate(10.923 1.96)"/><path class="c" d="M16.012,1.306A1.322,1.322,0,0,0,15.278.4c-.486-.442-.714-.519-1.253-.228a1.367,1.367,0,0,0-.742,0,1.465,1.465,0,0,0-1.017,1.791l1.1,2.774a1.536,1.536,0,0,0,1.247,1.049c.841.477,1.542-.026,1.675-1.236a8.838,8.838,0,0,0-.272-3.245" transform="translate(6.735 0)"/><path class="c" d="M17.652,31.763a1.454,1.454,0,0,0-2.058,0,1.652,1.652,0,0,0-.428,1.029c-.008.1-.019.2-.028.3a1.487,1.487,0,0,0,.6,1.805l.064.042a1.456,1.456,0,0,0,2.19-1.257c.028-.3.057-.595.085-.893a1.449,1.449,0,0,0-.425-1.029" transform="translate(8.304 17.31)"/><path class="c" d="M27.607,32.255a1.454,1.454,0,0,0-2.058,0l-.23.295a1.479,1.479,0,0,0-.186.567,3.74,3.74,0,0,1-.095.373,1.5,1.5,0,0,0-.21,1.186c.006.023.011.045.016.068a1.466,1.466,0,0,0,2.662.348,5.254,5.254,0,0,0,.528-1.807,1.444,1.444,0,0,0-.427-1.029" transform="translate(13.693 17.581)"/><path class="c" d="M54.425,21.894a52.179,52.179,0,0,1-7.383,9.344q-1.972,2.035-4.132,3.881c-.422.36-1.683,1.771-2.273,1.765-.7-.009-2.052-1.672-2.552-2.156-.2-.194-.907-.869-1.172-1.068C32.53,30.4,25.38,25.418,26.708,19.033c1.217-5.854,8.622-7.7,12.98-3.664.609.562.511.747,1.124.213,2.776-2.422,7.525-4.48,11.2-3.467,4.677,1.29,4.486,6.334,2.416,9.779m-.82-12.325c-4.437-1.647-9.5-.166-13.2,2.582a10.516,10.516,0,0,0-16.057,4.632c-3.262,8.425,5.21,15.013,11.093,19.391.085.065.433.469.584.613,1.377,1.332,3.73,3.987,5.871,2.83,2.315-1.251,4.462-3.591,6.318-5.426,3.709-3.665,7.944-8.226,9.89-13.141,1.751-4.418.182-9.743-4.5-11.482" transform="translate(13.05 4.905)"/></g></g></svg>