<svg xmlns="http://www.w3.org/2000/svg" width="105.516" height="97.961" viewBox="0 0 105.516 97.961"><defs><style>.a{fill:#87aeca;}.b{fill:none;stroke:#161615;stroke-miterlimit:10;}.c{fill:#002a4d;}</style></defs><g transform="translate(-356.304 -180.131)"><circle class="a" cx="40.564" cy="40.564" r="40.564" transform="translate(367.211 195.356)"/><circle class="b" cx="40.564" cy="40.564" r="40.564" transform="translate(370.491 193.536)"/><path class="c" d="M390.584,224.893q.091,3.217-.276,9.1-.369,6.39-.368,9.1,0,1.886.092,3.539.091,1.149-.827,1.149-2.8,0-3.08-1.241a27.591,27.591,0,0,1-.6-6.021q0-2.346.413-7.1t.414-7.057a28.386,28.386,0,0,0-.46-5.332,1.048,1.048,0,0,1,.253-.735,1.484,1.484,0,0,1,.667-.551,2.186,2.186,0,0,1,2.78.643A8.724,8.724,0,0,1,390.584,224.893Z"/><path class="c" d="M407.729,231.926q.321,8.366-5.148,18.11a5.662,5.662,0,0,1-2.253,2.505,5.546,5.546,0,0,1-2.344.529,5.251,5.251,0,0,1-2.941-.874q-1.473-.965-1.242-1.837.092-.415.644-.415a4.117,4.117,0,0,1,.758.116,4.125,4.125,0,0,0,.759.114,3.954,3.954,0,0,0,3.493-2.16,19.354,19.354,0,0,0,1.884-4.137q1.379-3.906,1.7-4.965a19.573,19.573,0,0,0,.827-5.332,16.328,16.328,0,0,0-.138-2.114,4.922,4.922,0,0,0-1.379,2.16,4.346,4.346,0,0,0-1.471.644,3.539,3.539,0,0,1-1.7.6,5.435,5.435,0,0,1-4.367-1.792,5.366,5.366,0,0,1-1.2-3.494,12.266,12.266,0,0,1,2.115-6.113q2.3-3.814,5.607-3.816a4.7,4.7,0,0,1,.919.093q.69.461,1.449.919a2.935,2.935,0,0,0,1.54.46,3.314,3.314,0,0,0,.551-.046,9.582,9.582,0,0,1,1.792,5.148Q407.637,229.076,407.729,231.926Zm-4.6-7.86a1.138,1.138,0,0,0,0-.46,2.646,2.646,0,0,1-.091-.459.754.754,0,0,1-.46.137,1.911,1.911,0,0,1-.644-.161,1.963,1.963,0,0,0-.6-.161c-.246,0-.4.215-.459.644q-1.472.826-3.218,4.642a3.507,3.507,0,0,0-.276,1.472,3.9,3.9,0,0,0,.506,2.068,5.479,5.479,0,0,0,2.39-1.563Q403.04,226.823,403.132,224.066Z"/><path class="c" d="M424.276,215.378a.844.844,0,0,1,.276.69q0,.92-.643,1.149a7.116,7.116,0,0,0-2.85,1.792q-4,4-6.849,12.779a4.086,4.086,0,0,0,1.677-.552,4.112,4.112,0,0,1,1.724-.551,2.033,2.033,0,0,1,.828.183,5.986,5.986,0,0,1,4,4.551,7.256,7.256,0,0,1,.138,1.425,8.366,8.366,0,0,1-1.793,5.011,13.675,13.675,0,0,1-3.953,3.63,2.724,2.724,0,0,1-1.425.415,7.075,7.075,0,0,1-2.9-1.1q-3.08-1.746-3.08-6.389a16.9,16.9,0,0,1,.368-3.4,39.28,39.28,0,0,1,3.769-10.71q2.9-5.193,3.218-5.7a11.518,11.518,0,0,1,4.734-4.23,1.859,1.859,0,0,1,.736-.183A4.013,4.013,0,0,1,424.276,215.378Zm-5.47,20.96a3.462,3.462,0,0,0-.39-1.493q-.391-.8-.989-.805a3.009,3.009,0,0,0-1.241.529,2.959,2.959,0,0,1-1.333.529,1.2,1.2,0,0,1-.965-.552,4.389,4.389,0,0,0-.827,2.85,16.886,16.886,0,0,0,.276,2.62q.367,2.3,1.1,2.3a.887.887,0,0,0,.459-.138,7.179,7.179,0,0,0,2.758-2.436A5.9,5.9,0,0,0,418.806,236.338Z"/><path class="c" d="M436.594,220.342a5.528,5.528,0,0,1,.046.689q0,2.163-2.344,4.828-3.447,4-3.769,4.5,1.424.232,2.895.46a4.24,4.24,0,0,1,2.575,1.7,9.7,9.7,0,0,1,1.839,5.378,11.552,11.552,0,0,1-1.058,4.458q-.23.506-2.3,4.642a36.2,36.2,0,0,1-5.562,7.539,4.114,4.114,0,0,1-2.85,1.7,1.69,1.69,0,0,1-.827-.229c-.368-.184-.735-.391-1.1-.62a1.127,1.127,0,0,1-.6-.851,2.63,2.63,0,0,1,1.563-2.39,15.3,15.3,0,0,0,2.758-1.931,43.931,43.931,0,0,0,4.32-5.93,14.211,14.211,0,0,0,1.656-6.757c0-.612-.032-1.256-.092-1.93q-.139-1.562-1.472-1.7a20.181,20.181,0,0,0-5.47.919,6.1,6.1,0,0,0-1.379-1.195q-.873-.644-.873-1.194a1.743,1.743,0,0,1,.413-1.012q2.346-2.849,6.712-8.779a6.788,6.788,0,0,0-2.253.275,11.915,11.915,0,0,1-2.343.414,2.784,2.784,0,0,1-2.253-1.057,1.558,1.558,0,0,1-.321-.919v-1.012q.412-.091,5.929-1.379a14.137,14.137,0,0,1,3.033-.367Q436.318,218.6,436.594,220.342Z"/><path class="c" d="M439.813,278.088a1.553,1.553,0,0,0,1.1-.328l.13-.1a12.3,12.3,0,0,0,1.63-1.414l.278-.264a54.435,54.435,0,1,0-72.127-81.513l-5.807,5.289,1.306-7.516a2.545,2.545,0,0,0-3.329-2.874l-.057.022a3.313,3.313,0,0,0-1.844,2.1l-4.6,14.385a3.366,3.366,0,0,0,.205,2.677,3.241,3.241,0,0,0,3.395,1.635l15.007-2.567a3.333,3.333,0,0,0,2.347-1.537l.031-.054a2.584,2.584,0,0,0-2.339-3.759l-7.988.014,6.139-5.485a50.358,50.358,0,0,1,34.292-13.268q1.83,0,3.668.129A51.258,51.258,0,0,1,441,273.535l-.117.1-1.873,1.508a1.744,1.744,0,0,0-.3,2.4A1.673,1.673,0,0,0,439.813,278.088Z"/></g></svg>