<svg xmlns="http://www.w3.org/2000/svg" width="117.373" height="118.307" viewBox="0 0 117.373 118.307"><defs><style>.a{fill:#87aeca;}.b{fill:none;stroke:#161615;stroke-miterlimit:10;}.c{fill:#002a4d;}.d{fill:#fff;}</style></defs><g transform="translate(-539.135 -178.184)"><path class="a" d="M562.471,185.778a31.18,31.18,0,0,0-17.926,17.68c-5.395,13.761-2.014,27.117,6.128,36.06a8.031,8.031,0,0,1,1.724,8.111l-5.079,14.223,14.342-10.727a7.906,7.906,0,0,1,6.45-1.448,35.032,35.032,0,0,0,21.635-2.157,31.236,31.236,0,0,0,17.033-17.893C617.248,201.316,590.8,175.018,562.471,185.778Z"/><path class="b" d="M560.79,181.237a32.088,32.088,0,0,0-18.446,18.194c-5.551,14.159-2.072,27.9,6.306,37.1a8.263,8.263,0,0,1,1.775,8.345L545.2,259.516l14.758-11.037a8.133,8.133,0,0,1,6.637-1.49,36.045,36.045,0,0,0,22.262-2.22,32.143,32.143,0,0,0,17.527-18.412C617.155,197.226,589.938,170.166,560.79,181.237Z"/><path class="c" d="M646.1,269.913a12.88,12.88,0,0,0-2.3,12.551l1.088,3.046c2.152,6.306.994,2.543,3.675,10.981l-14.781-11.466a12.742,12.742,0,0,0-9.952-2.319,40.149,40.149,0,0,1-6.612.794A37.493,37.493,0,1,1,646.1,269.913Z"/><path class="b" d="M647.4,266.006a12.877,12.877,0,0,0-2.3,12.55s.779,1.1,4.763,14.027l-14.782-11.466a12.745,12.745,0,0,0-9.951-2.319,40.055,40.055,0,0,1-6.612.794A37.49,37.49,0,1,1,647.4,266.006Z"/><path class="c" d="M582.846,202.7q0,3.21-4.979,6.509-.618.354-1.826,1.149c-.137.1-.225.393-.264.883a3.322,3.322,0,0,1-.236,1.208,1.148,1.148,0,0,1-1.149.619,2.3,2.3,0,0,1-1.826-1,3.122,3.122,0,0,1-.737-2,3.716,3.716,0,0,1,1.444-2.828q.381-.324,2.68-1.767,1.443-.912,1.444-1.649a1,1,0,0,0-.369-.751,1.14,1.14,0,0,0-.78-.339,8.783,8.783,0,0,0-1.8,1.015,5.264,5.264,0,0,1-2.622,1.017A2.1,2.1,0,0,1,570,203.641a3.888,3.888,0,0,1-.647-2.151q0-2.3,2.945-3.563a12.3,12.3,0,0,1,4.919-1,5.314,5.314,0,0,1,3.991,1.708A5.679,5.679,0,0,1,582.846,202.7Zm-4.861,14.344a2.307,2.307,0,0,1-1.177,2,4.343,4.343,0,0,1-2.327.618,3.46,3.46,0,0,1-2.033-.618,2.065,2.065,0,0,1-.971-1.768,2.317,2.317,0,0,1,1.148-2,4.089,4.089,0,0,1,2.3-.677Q577.985,214.6,577.985,217.042Z"/><path class="d" d="M600.338,242.875a1.9,1.9,0,0,0-1.637-.656c-.96,0-1.51.6-1.51,1.112,0,.542.451.656.861.77l.762.2c1.764.456,2.342,1.283,2.342,2.737,0,2.452-2.018,3.435-4.162,3.435a4.15,4.15,0,0,1-3.557-1.4l1.694-1.5a2.581,2.581,0,0,0,2.074.8c.917,0,1.594-.513,1.594-1.1,0-.541-.3-.727-.846-.869l-.762-.2c-2.032-.527-2.342-1.71-2.342-2.494,0-2.224,1.707-3.564,4.12-3.564a3.714,3.714,0,0,1,3.006,1.269Z"/><path class="d" d="M604.176,250.387h-2.342l2.018-10.149h2.342Z"/><path class="d" d="M614.167,242.333h-2.3l-1.595,8.054H607.93l1.595-8.054h-2.4l.423-2.1h7.041Z"/><path class="d" d="M619.163,242.347h-1.242l-.451,2.224H618.7a1.272,1.272,0,0,0,1.383-1.268.846.846,0,0,0-.917-.956m1.1,3.892,1.34,4.148h-2.568l-1.058-3.849h-.889l-.776,3.849H613.97l2.018-10.149h3.57a2.651,2.651,0,0,1,2.879,2.936,3.379,3.379,0,0,1-2.173,3.065"/><path class="d" d="M627.574,243.873l-1.524,2.993h1.834Zm.635,6.514-.141-1.6H625.09l-.776,1.6h-2.5l5.475-10.149h1.82l1.481,10.149Z"/><path class="d" d="M640.536,250.387h-2.342l.909-5-1.792,2.509h-1.5l-.917-2.509-1,5h-2.342l2.017-10.149h2.187l1.285,4.476,3.132-4.476h2.3Z"/></g></svg>