<svg xmlns="http://www.w3.org/2000/svg" xmlns:xlink="http://www.w3.org/1999/xlink" width="163.1" height="50.975" viewBox="0 0 163.1 50.975"><defs><style>.a,.c,.e{fill:none;}.b{clip-path:url(#a);}.c{stroke:#161615;stroke-width:0.75px;}.c,.e{stroke-miterlimit:10;}.d{fill:#fff;}.e{stroke:#fff;}.f{fill:#ae0018;}.g{fill:#0c2372;}.h{fill:#161615;}</style><clipPath id="a"><rect class="a" width="163.1" height="50.975" transform="translate(0 0)"/></clipPath></defs><g transform="translate(0 0)"><g class="b"><path class="c" d="M13.262.389.491,45.306l144,5.285L162.546,7.875Z"/></g><path class="d" d="M20.838,1.857,11.6,46.7l130.788-1.686L156.53,2.086Z"/><g class="b"><path class="e" d="M20.838,1.857,11.6,46.7l130.788-1.686L156.53,2.086Z"/></g><rect class="f" width="18.604" height="2.164" transform="translate(126.781 33.491)"/><rect class="g" width="18.604" height="2.164" transform="translate(17.654 34.014)"/><path class="h" d="M44.7,28.761H51.1l-.413,2.1h-3.92l-.568,2.91h3.689l-.4,2.063H45.811l-.918,4.844H42.441Z"/><g class="b"><path class="h" d="M52.961,28.965A14.442,14.442,0,0,1,55.9,28.69a5.236,5.236,0,0,1,2.987.726,2.587,2.587,0,0,1,1.156,2.218,3.56,3.56,0,0,1-2.613,3.435l-.008.057c.688.308.994,1.062,1.085,2.216a22.716,22.716,0,0,0,.374,3.339h-2.5a22.731,22.731,0,0,1-.263-2.825c-.076-1.443-.514-1.9-1.444-1.9h-.653l-.89,4.725H50.726ZM54.4,34.111h.883a2.135,2.135,0,0,0,2.233-2.136c0-.86-.642-1.366-1.6-1.366a3.852,3.852,0,0,0-.873.077Z"/><path class="h" d="M63.423,37.683l-1.293,3H59.581L65.1,28.761h3.062L69.164,40.68H66.652l-.159-3Zm3.012-1.847-.146-2.588c-.03-.671-.049-1.722-.082-2.5h-.039c-.3.779-.646,1.817-.945,2.494l-1.111,2.591Z"/><path class="h" d="M70.354,40.68l2.263-11.919h2.7l1.374,4.605c.433,1.535.715,2.741.941,3.957l.042,0a39.148,39.148,0,0,1,.6-4.594l.75-3.964h2.235L79,40.68H76.587l-1.45-4.658a33.8,33.8,0,0,1-1-4.1l-.052,0c-.134,1.174-.412,2.945-.777,4.877l-.728,3.874Z"/><path class="h" d="M89.1,40.412a7.022,7.022,0,0,1-2.689.43,4.461,4.461,0,0,1-4.726-4.761,7.47,7.47,0,0,1,2.788-6.154A6.565,6.565,0,0,1,88.6,28.6a5.163,5.163,0,0,1,2.237.423l-.673,2.03a4.6,4.6,0,0,0-1.821-.321,3.63,3.63,0,0,0-2.447.946,5.5,5.5,0,0,0-1.565,4.051c0,1.793.877,2.991,2.7,2.991a5.32,5.32,0,0,0,1.948-.336Zm-2.131.186-.6.855a1.223,1.223,0,0,1,1.036,1.192c0,1.238-1.226,1.667-2.157,1.667a2.259,2.259,0,0,1-1.3-.358l.4-.991a1.853,1.853,0,0,0,.932.271c.312,0,.658-.141.658-.5,0-.305-.323-.559-1.22-.632l.972-1.506Z"/><path class="h" d="M93.53,37.683l-1.293,3H89.688L95.2,28.761h3.062L99.271,40.68H96.759l-.159-3Zm3.012-1.847L96.4,33.248c-.03-.671-.049-1.722-.082-2.5h-.039c-.3.779-.646,1.817-.945,2.494l-1.111,2.591Z"/><path class="h" d="M105.135,28.761,102.87,40.68h-2.445l2.263-11.919Z"/><path class="h" d="M105.5,38.069a4.918,4.918,0,0,0,2.463.654c.993.013,1.836-.5,1.836-1.431,0-.714-.495-1.155-1.483-1.78-1.164-.739-2.154-1.679-2.154-3.074,0-2.351,1.941-3.839,4.453-3.839a5.1,5.1,0,0,1,2.511.523l-.743,2.055a4.131,4.131,0,0,0-1.937-.46c-1.115,0-1.745.6-1.747,1.327,0,.656.581,1.092,1.573,1.742a3.606,3.606,0,0,1,2.085,3.069c0,2.594-2.032,3.988-4.568,3.988a5.572,5.572,0,0,1-3.055-.729Z"/><path class="h" d="M120.448,35.561H116.7l-.582,3.011h4.236l-.4,2.108h-6.676l2.263-11.919h6.438l-.412,2.1h-3.964l-.519,2.637h3.772Z"/><path class="h" d="M16.081,10.751q0,.379-.551.665a.406.406,0,0,1-.323.019c-.178-.05-.272-.076-.285-.076a.328.328,0,0,0-.228.114,3.412,3.412,0,0,0-1.026,2.508,3.006,3.006,0,0,0,.171,1.026q.075.21,1.444,2.945a7.234,7.234,0,0,1,.912,3.1,4.249,4.249,0,0,1-.513,2.014,3.1,3.1,0,0,1-.855.836,1.754,1.754,0,0,1-.988.4.911.911,0,0,1-.323-.057q-.57-.247-.57-.627a.918.918,0,0,1,.285-.551.516.516,0,0,1,.361-.114.408.408,0,0,0,.38-.228,3.928,3.928,0,0,0,.4-1.71,8.74,8.74,0,0,0-1.226-3.581,8.821,8.821,0,0,1-1.225-3.753,4.57,4.57,0,0,1,.456-2.071,3.126,3.126,0,0,1,1.463-1.5,1.976,1.976,0,0,1,.855-.209,1.542,1.542,0,0,1,1.2.437.627.627,0,0,1,.19.418"/><path class="h" d="M19.349,12.633q.037.55.038,1.14,0,1.292-.266,3.895T18.855,21.6q0,.494.019.969a.683.683,0,0,1-.741.513q-.818-.039-.893-.7a12.313,12.313,0,0,1-.076-1.406,34.754,34.754,0,0,1,.313-3.857,34.78,34.78,0,0,0,.314-3.838c0-.33-.013-.652-.038-.969a.671.671,0,0,1,.646-.361,1.436,1.436,0,0,1,.722.209.226.226,0,0,1,.114-.057c.038,0,.057.063.057.19a.8.8,0,0,0,0,.266.119.119,0,0,0,.057.076"/><path class="h" d="M29.894,10.409q-.171.684-.646.8-1.234.3-4.294.8-.38,4.731-.38,7.885,0,1.2.038,2.356a1.736,1.736,0,0,1-.038.551.349.349,0,0,1-.38.285,1.182,1.182,0,0,1-.912-.465,1.742,1.742,0,0,1-.4-1c-.026-.469-.038-.962-.038-1.482q0-1.254.171-3.971.171-2.6.152-3.971a6.952,6.952,0,0,0-1.425.1,12.06,12.06,0,0,1-1.444.152,2.275,2.275,0,0,1-1.52-.5c-.152-.332-.228-.505-.228-.517a.459.459,0,0,1,.133-.288,12.939,12.939,0,0,1,2.489-.383,6.921,6.921,0,0,0,2.47-.613,4.675,4.675,0,0,0,1.52.228,6.25,6.25,0,0,0,1.634-.209A9.865,9.865,0,0,0,27.956,9.9a3.2,3.2,0,0,1,1.14-.114q.342,0,.285.285.513,0,.513.342"/><path class="h" d="M35.005,22.379a.277.277,0,0,1,.057.171q0,.437-.912.665a22.243,22.243,0,0,1-2.508-2.394q-1.672-1.8-2.489-2.508-.057.494-.209,2.584a13.236,13.236,0,0,1-.342,2.508.969.969,0,0,0-.237.095.487.487,0,0,1-.333.057A1.041,1.041,0,0,1,27.2,22.4a5.025,5.025,0,0,1,.076-.76c.051-.367.082-.6.1-.684q.075-1.1.095-2.622V16.261a27.947,27.947,0,0,1,.285-4.351q.189-1.177,2.223-1.083a2.332,2.332,0,0,1,1.786,1.026,3.168,3.168,0,0,1,.7,1.976,2.982,2.982,0,0,1-.665,1.786,4.162,4.162,0,0,1-1.406,1.254q-.342.191-.342.418,0,.247.4.589l.608.494q.018.019,2.09,1.9a9.67,9.67,0,0,1,1.862,2.109M31,13.848a2.59,2.59,0,0,0,.038-.608,1.4,1.4,0,0,0-.332-.722,1.1,1.1,0,0,0-.884-.323q-.456,0-.57.285a5.51,5.51,0,0,0-.095,1.083q0,.247.057,1.273a10.677,10.677,0,0,1,0,1.273A4.123,4.123,0,0,0,31,13.848"/><path class="h" d="M40.781,21.334a1.55,1.55,0,0,1,.114.532.864.864,0,0,1-.323.665c-.216.19-.361.278-.437.266q-.931-.171-1.178-1.5a14.741,14.741,0,0,0-.627-2.413L37.038,19a2.145,2.145,0,0,0-1.159.456,21.292,21.292,0,0,0-.551,2.09,14.02,14.02,0,0,1-.627,2.109q-.153.342-.646.19-.627-.208-.665-.57a4.667,4.667,0,0,1,.418-1.938,8.275,8.275,0,0,0,.627-1.976c.012-.114-.07-.24-.247-.38s-.266-.247-.266-.323a.323.323,0,0,1,.085-.2.738.738,0,0,1,.4-.17c.209-.045.326-.111.352-.2q.342-.949,1.083-3.534a32.381,32.381,0,0,1,1.121-3.439.462.462,0,0,1,.475-.266.732.732,0,0,1,.475.171,2.213,2.213,0,0,1,.684,1.368q.114.78.209,1.558a60.258,60.258,0,0,0,1.976,7.391M38.007,17.7a12.251,12.251,0,0,0-.247-1.577q-.19-.759-.361-1.52-.57,1.578-.988,3.154a12.511,12.511,0,0,1,1.6-.057"/><path class="h" d="M50.718,22.57q.077.38-.551.418a1.234,1.234,0,0,1-.855-.361,2.2,2.2,0,0,1-.57-1.045,8.106,8.106,0,0,1-.228-1.881,14.423,14.423,0,0,0-.133-1.881q-.246.855-.817,2.546-.342.932-.418,1.064-.3.588-.76.532a2.146,2.146,0,0,1-1.406-1.026,6.354,6.354,0,0,1-.608-1.691,10.17,10.17,0,0,0-.513-1.71,27.565,27.565,0,0,1-1.748,5.928q-.134.285-.8-.038a.83.83,0,0,1-.551-.76,6.638,6.638,0,0,1,.4-1.216q.171-.456,1.33-4.389a35.995,35.995,0,0,0,.836-4.807,2.334,2.334,0,0,0,.19-.4.346.346,0,0,1,.342-.266,1.253,1.253,0,0,1,.893.247,13.831,13.831,0,0,0,.18,1.776,13.785,13.785,0,0,1,.181,1.853q.171,1.065.323,2.147a4.817,4.817,0,0,0,.76,2,49.832,49.832,0,0,0,2.318-8.018q.076-.3.57-.3c.468,0,.735.152.8.456a8.38,8.38,0,0,1,.133,1.577q0,.285-.038,1.235-.02.8,0,1.292a42.277,42.277,0,0,0,.741,6.726"/><path class="h" d="M62.744,12.746a20.433,20.433,0,0,1-2.071.665,20.433,20.433,0,0,0-2.071.665,9.98,9.98,0,0,0-.247,2.2,1.993,1.993,0,0,0,.7.114,6.358,6.358,0,0,0,.893-.095,6.517,6.517,0,0,1,.893-.095,1.739,1.739,0,0,1,.912.228,1.326,1.326,0,0,1,.266.494.234.234,0,0,1-.133.209,2.357,2.357,0,0,0-.266.266.434.434,0,0,1-.38.152,7.914,7.914,0,0,1-1.463.114,4.249,4.249,0,0,0-1.425.228,9.56,9.56,0,0,0-.361,2.223,2.084,2.084,0,0,0,.152.874,5.235,5.235,0,0,0,3.1.532.521.521,0,0,0,.323-.142.5.5,0,0,1,.285-.143q.531-.114.7.8a.759.759,0,0,1-.1.561.568.568,0,0,1-.466.275,14.227,14.227,0,0,1-3.99-.361,2.018,2.018,0,0,1-.969-.589,1.7,1.7,0,0,1-.494-1.026,12.844,12.844,0,0,1,0-2.964q-.532-.362-.475-.7c.013-.114.111-.218.294-.314s.289-.192.314-.294.076-.7.152-1.8q-1.064-.208-1.045-.8a1.021,1.021,0,0,1,.665-.874l1.216-.494a9.591,9.591,0,0,1,1.786-.646q.912-.246,1.843-.475a1.157,1.157,0,0,1,.228-.019,2.463,2.463,0,0,1,1.2.4c.013.051.044.146.095.285a1.048,1.048,0,0,1,.076.3.292.292,0,0,1-.133.247"/><path class="h" d="M67.134,10.751q0,.379-.551.665a.406.406,0,0,1-.323.019c-.178-.05-.272-.076-.285-.076a.328.328,0,0,0-.228.114,3.412,3.412,0,0,0-1.026,2.508,3.006,3.006,0,0,0,.171,1.026q.075.21,1.444,2.945a7.234,7.234,0,0,1,.912,3.1,4.249,4.249,0,0,1-.513,2.014,3.1,3.1,0,0,1-.855.836,1.754,1.754,0,0,1-.988.4.911.911,0,0,1-.323-.057q-.57-.247-.57-.627a.918.918,0,0,1,.285-.551.516.516,0,0,1,.361-.114.408.408,0,0,0,.38-.228,3.928,3.928,0,0,0,.4-1.71A8.74,8.74,0,0,0,64.2,17.43a8.821,8.821,0,0,1-1.225-3.753,4.57,4.57,0,0,1,.456-2.071,3.126,3.126,0,0,1,1.463-1.5,1.976,1.976,0,0,1,.855-.209,1.542,1.542,0,0,1,1.2.437.627.627,0,0,1,.19.418"/><path class="h" d="M77.811,10.409q-.171.684-.646.8-1.234.3-4.294.8-.38,4.731-.38,7.885,0,1.2.038,2.356a1.736,1.736,0,0,1-.038.551.349.349,0,0,1-.38.285,1.182,1.182,0,0,1-.912-.465,1.742,1.742,0,0,1-.4-1c-.026-.469-.038-.962-.038-1.482q0-1.254.171-3.971.171-2.6.152-3.971a6.951,6.951,0,0,0-1.425.1,12.06,12.06,0,0,1-1.444.152,2.275,2.275,0,0,1-1.52-.5c-.152-.332-.228-.505-.228-.517a.459.459,0,0,1,.133-.288,12.939,12.939,0,0,1,2.489-.383,6.921,6.921,0,0,0,2.47-.613,4.675,4.675,0,0,0,1.52.228,6.249,6.249,0,0,0,1.634-.209A9.865,9.865,0,0,0,75.873,9.9a3.2,3.2,0,0,1,1.14-.114q.342,0,.285.285.513,0,.513.342"/><path class="h" d="M86.665,11.891a21.944,21.944,0,0,1-.76,3.553q-.855,2.984-.988,3.61a8.975,8.975,0,0,1-1.6,3.5,2.06,2.06,0,0,1-1.71.988q-.855-.02-1.273-1.083a11.147,11.147,0,0,1-.722-4.2,30.837,30.837,0,0,1,.266-3.572,8.765,8.765,0,0,1-.019-1.178q0-1.177.912-1.178a.954.954,0,0,1,.409.1c.145.069.288.142.427.218q.018.969-.057,2.85-.1,2.014-.1,2.907,0,.949.057,1.729a11.189,11.189,0,0,0,.342,1.52,6.288,6.288,0,0,0,1.254-2.375q.151-.494.608-2.7a12.192,12.192,0,0,1,.817-2.622,3.6,3.6,0,0,0,.228-1.007,3.877,3.877,0,0,1,.228-1.026.734.734,0,0,1,.722-.456,1.068,1.068,0,0,1,.95.418"/><path class="h" d="M95.177,10.732q-.266,2.547-.513,5.111a49.351,49.351,0,0,0-.323,5.073c0,.444.013.88.038,1.311a.654.654,0,0,1-.219.532.758.758,0,0,1-.541.228q-.59,0-.988-.8a67.1,67.1,0,0,1-3.021-7.448c-.025-.076-.057-.114-.1-.114-.088,0-.146.089-.171.266a48.557,48.557,0,0,0-.323,5.719q0,1.445.076,2.945a.782.782,0,0,1-.323.76.4.4,0,0,1-.285.133.764.764,0,0,1-.342-.114c-.19-.088-.31-.146-.361-.171q-.248-.077-.3-.456c-.013-.2-.025-.412-.038-.627q-.057-1.064-.057-2.223,0-2.013.228-5.035.362-4.6.4-5.092c.013-.278.247-.418.7-.418q.322-.038.95.475a29.3,29.3,0,0,1,1.5,3.762,26.035,26.035,0,0,0,1.558,3.781q.285-2.526.893-7.638.057-.38.551-.38a1.675,1.675,0,0,1,.4.057c.2.051.323.083.361.095a.4.4,0,0,1,.247.266"/><path class="h" d="M102.587,12.746a20.433,20.433,0,0,1-2.071.665,20.433,20.433,0,0,0-2.071.665,9.981,9.981,0,0,0-.247,2.2,1.993,1.993,0,0,0,.7.114,6.358,6.358,0,0,0,.893-.095,6.517,6.517,0,0,1,.893-.095,1.739,1.739,0,0,1,.912.228,1.325,1.325,0,0,1,.266.494.234.234,0,0,1-.133.209,2.356,2.356,0,0,0-.266.266.434.434,0,0,1-.38.152,7.914,7.914,0,0,1-1.463.114A4.249,4.249,0,0,0,98.2,17.9a9.56,9.56,0,0,0-.361,2.223,2.084,2.084,0,0,0,.152.874,5.235,5.235,0,0,0,3.1.532.521.521,0,0,0,.323-.142.5.5,0,0,1,.285-.143q.531-.114.7.8a.759.759,0,0,1-.1.561.568.568,0,0,1-.466.275,14.227,14.227,0,0,1-3.99-.361,2.018,2.018,0,0,1-.969-.589,1.7,1.7,0,0,1-.494-1.026,12.844,12.844,0,0,1,0-2.964q-.533-.362-.475-.7c.013-.114.111-.218.294-.314s.289-.192.314-.294.076-.7.152-1.8q-1.063-.208-1.045-.8a1.021,1.021,0,0,1,.665-.874l1.216-.494a9.59,9.59,0,0,1,1.786-.646q.912-.246,1.843-.475a1.157,1.157,0,0,1,.228-.019,2.463,2.463,0,0,1,1.2.4c.013.051.044.146.095.285a1.048,1.048,0,0,1,.076.3.292.292,0,0,1-.133.247"/><path class="h" d="M116.932,22.57q.077.38-.551.418a1.234,1.234,0,0,1-.855-.361,2.2,2.2,0,0,1-.57-1.045,8.106,8.106,0,0,1-.228-1.881,14.422,14.422,0,0,0-.133-1.881q-.246.855-.817,2.546-.342.932-.418,1.064-.3.588-.76.532a2.146,2.146,0,0,1-1.406-1.026,6.354,6.354,0,0,1-.608-1.691,10.169,10.169,0,0,0-.513-1.71,27.565,27.565,0,0,1-1.748,5.928q-.133.285-.8-.038a.83.83,0,0,1-.551-.76,6.638,6.638,0,0,1,.4-1.216q.171-.456,1.33-4.389a35.995,35.995,0,0,0,.836-4.807,2.335,2.335,0,0,0,.19-.4.346.346,0,0,1,.342-.266,1.253,1.253,0,0,1,.893.247,13.83,13.83,0,0,0,.18,1.776,13.787,13.787,0,0,1,.181,1.853q.171,1.065.323,2.147a4.817,4.817,0,0,0,.76,2,49.832,49.832,0,0,0,2.318-8.018q.077-.3.57-.3c.468,0,.735.152.8.456a8.381,8.381,0,0,1,.133,1.577q0,.285-.038,1.235-.02.8,0,1.292a42.277,42.277,0,0,0,.741,6.726"/><path class="h" d="M124.627,21.334a1.55,1.55,0,0,1,.114.532.864.864,0,0,1-.323.665c-.216.19-.361.278-.437.266q-.932-.171-1.178-1.5a14.741,14.741,0,0,0-.627-2.413L120.884,19a2.145,2.145,0,0,0-1.159.456,21.292,21.292,0,0,0-.551,2.09,14.019,14.019,0,0,1-.627,2.109q-.153.342-.646.19-.627-.208-.665-.57a4.667,4.667,0,0,1,.418-1.938,8.275,8.275,0,0,0,.627-1.976c.012-.114-.07-.24-.247-.38s-.266-.247-.266-.323a.323.323,0,0,1,.085-.2.738.738,0,0,1,.4-.17c.209-.045.326-.111.352-.2q.342-.949,1.083-3.534a32.383,32.383,0,0,1,1.121-3.439.462.462,0,0,1,.475-.266.732.732,0,0,1,.475.171,2.213,2.213,0,0,1,.684,1.368q.114.78.209,1.558a60.257,60.257,0,0,0,1.976,7.391M121.853,17.7a12.251,12.251,0,0,0-.247-1.577q-.191-.759-.361-1.52-.57,1.578-.988,3.154a12.51,12.51,0,0,1,1.6-.057"/><path class="h" d="M132.949,22.379a.277.277,0,0,1,.057.171q0,.437-.912.665a22.244,22.244,0,0,1-2.508-2.394q-1.673-1.8-2.489-2.508-.057.494-.209,2.584a13.237,13.237,0,0,1-.342,2.508.969.969,0,0,0-.237.095.487.487,0,0,1-.333.057,1.041,1.041,0,0,1-.836-1.159,5.025,5.025,0,0,1,.076-.76c.051-.367.082-.6.095-.684q.075-1.1.1-2.622V16.261a27.947,27.947,0,0,1,.285-4.351q.189-1.177,2.223-1.083a2.332,2.332,0,0,1,1.786,1.026,3.168,3.168,0,0,1,.7,1.976,2.982,2.982,0,0,1-.665,1.786,4.162,4.162,0,0,1-1.406,1.254q-.342.191-.342.418,0,.247.4.589l.608.494q.018.019,2.09,1.9a9.67,9.67,0,0,1,1.862,2.109m-4.009-8.531a2.59,2.59,0,0,0,.038-.608,1.4,1.4,0,0,0-.332-.722,1.1,1.1,0,0,0-.884-.323q-.456,0-.57.285a5.51,5.51,0,0,0-.1,1.083q0,.247.057,1.273a10.677,10.677,0,0,1,0,1.273,4.123,4.123,0,0,0,1.786-2.261"/><path class="h" d="M139.465,23.8a.506.506,0,0,1,.057.228.525.525,0,0,1-.247.428.838.838,0,0,1-.494.18.91.91,0,0,1-.646-.342l-.513-.589a5.838,5.838,0,0,1-.855-1.083q-.379-.588-.741-1.178l-.874.684a1.835,1.835,0,0,1-1.026.361,2.1,2.1,0,0,1-1.226-.446,2.617,2.617,0,0,1-.883-1.036,5.294,5.294,0,0,1-.437-2.2,13.9,13.9,0,0,1,1.1-4.769,4.657,4.657,0,0,1,.57-1.14,1.9,1.9,0,0,1,1.121-.741,6.092,6.092,0,0,0,.76-.285,2.156,2.156,0,0,1,.76-.209.811.811,0,0,1,.361.076,3.772,3.772,0,0,1,.76.513,4.846,4.846,0,0,1,.874,2.318,18.092,18.092,0,0,1,.076,2.546,4.057,4.057,0,0,1-.485,1.482,3.722,3.722,0,0,0-.465,1.482,3.223,3.223,0,0,0,1.026,1.938,10.65,10.65,0,0,1,1.425,1.786m-3.344-5.757a5.307,5.307,0,0,0,.456-2.28,7.454,7.454,0,0,0-.494-2.717.93.93,0,0,0-.6.162c-.284.146-.573.3-.864.465a2.02,2.02,0,0,0-.95,1.444q-.153.951-.323,1.9a9.246,9.246,0,0,0-.247,1.957,3.569,3.569,0,0,0,.57,2.09.2.2,0,0,0,.19.095.634.634,0,0,0,.513-.342c.012-.025.165-.183.456-.475a.821.821,0,0,0,.285-.57.839.839,0,0,0-.114-.4q-.646-1.292-.665-1.349a3.42,3.42,0,0,1-.285-1.444q.037-.417.57-.456a1.108,1.108,0,0,1,.893.361,1.619,1.619,0,0,1,.333.779,2.224,2.224,0,0,0,.275.779"/><path class="h" d="M146.153,11.891a21.944,21.944,0,0,1-.76,3.553q-.855,2.984-.988,3.61a8.975,8.975,0,0,1-1.6,3.5,2.06,2.06,0,0,1-1.71.988q-.855-.02-1.273-1.083a11.147,11.147,0,0,1-.722-4.2,30.837,30.837,0,0,1,.266-3.572,8.767,8.767,0,0,1-.019-1.178q0-1.177.912-1.178a.954.954,0,0,1,.409.1c.145.069.288.142.427.218q.018.969-.057,2.85-.1,2.014-.1,2.907,0,.949.057,1.729a11.192,11.192,0,0,0,.342,1.52,6.288,6.288,0,0,0,1.254-2.375q.151-.494.608-2.7a12.193,12.193,0,0,1,.817-2.622,3.6,3.6,0,0,0,.228-1.007,3.876,3.876,0,0,1,.228-1.026.734.734,0,0,1,.722-.456,1.068,1.068,0,0,1,.95.418"/><path class="h" d="M153.145,12.746a20.435,20.435,0,0,1-2.071.665,20.432,20.432,0,0,0-2.071.665,9.981,9.981,0,0,0-.247,2.2,1.993,1.993,0,0,0,.7.114,6.358,6.358,0,0,0,.893-.095,6.517,6.517,0,0,1,.893-.095,1.739,1.739,0,0,1,.912.228,1.326,1.326,0,0,1,.266.494.233.233,0,0,1-.133.209,2.357,2.357,0,0,0-.266.266.434.434,0,0,1-.38.152,7.914,7.914,0,0,1-1.463.114,4.249,4.249,0,0,0-1.425.228,9.56,9.56,0,0,0-.361,2.223,2.084,2.084,0,0,0,.152.874,5.235,5.235,0,0,0,3.1.532.521.521,0,0,0,.323-.142.5.5,0,0,1,.285-.143q.531-.114.7.8a.759.759,0,0,1-.1.561.568.568,0,0,1-.466.275,14.227,14.227,0,0,1-3.99-.361,2.018,2.018,0,0,1-.969-.589,1.7,1.7,0,0,1-.494-1.026,12.843,12.843,0,0,1,0-2.964q-.533-.362-.475-.7c.013-.114.111-.218.294-.314s.289-.192.314-.294.076-.7.152-1.8q-1.063-.208-1.045-.8a1.021,1.021,0,0,1,.665-.874l1.216-.494a9.591,9.591,0,0,1,1.786-.646q.912-.246,1.843-.475a1.157,1.157,0,0,1,.228-.019,2.463,2.463,0,0,1,1.2.4c.013.051.044.146.1.285a1.048,1.048,0,0,1,.076.3.292.292,0,0,1-.133.247"/></g></g></svg>