<svg xmlns="http://www.w3.org/2000/svg" width="85.402" height="76.994" viewBox="0 0 85.402 76.994"><defs><style>.a{fill:#002a4d;}.b{fill:#dc0023;}</style></defs><g transform="translate(-711.727 -193.719)"><path class="a" d="M720.484,258.828c18.153,15.929,45.04,15.6,63.559.485,1.12-.914-.341-2.615-1.459-1.7-17.808,14.539-43.426,14.641-60.823-.625-1.085-.952-2.35.9-1.277,1.842"/><path class="a" d="M727.3,229.192a72.273,72.273,0,0,0-3.965,7.939,51.851,51.851,0,0,0-1.952,5.739,41.566,41.566,0,0,1-2.078,5.789.822.822,0,0,1-.653.252,2.1,2.1,0,0,1-1.046-.534,68.073,68.073,0,0,1-2.023-9.4,53,53,0,0,0-2.228-9.5c.3-.481.539-.713.719-.7a.9.9,0,0,1,.492-.113,3.786,3.786,0,0,1,1.612,1.03,45.614,45.614,0,0,1,1.606,6.194q.541,3.155,1.116,6.278,1.394-3.577,2.789-7.184a63.168,63.168,0,0,1,3.254-6.937,1.267,1.267,0,0,1,1.6-.39.723.723,0,0,1,.283.248.641.641,0,0,0,.434.245q.269.036.237.456a1.35,1.35,0,0,1-.2.589"/><path class="a" d="M733.454,233.653a4.142,4.142,0,0,0,.133-.957,2.213,2.213,0,0,0-.437-1.181,1.745,1.745,0,0,0-1.357-.618q-.72-.056-.936.381a8.834,8.834,0,0,0-.281,1.7q-.03.39-.065,2.018a16.7,16.7,0,0,1-.155,2.012q2.635-1.669,3.1-3.355m5.3,13.968a.444.444,0,0,1,.069.277q-.054.691-1.522.94a35.442,35.442,0,0,1-3.672-4.088q-2.423-3.056-3.627-4.266-.15.774-.645,4.057a21.094,21.094,0,0,1-.846,3.921,1.561,1.561,0,0,0-.387.122.768.768,0,0,1-.532.05,1.651,1.651,0,0,1-1.18-1.934,7.972,7.972,0,0,1,.213-1.192q.186-.861.233-1.069.253-1.731.47-4.132l.252-3.272a44.428,44.428,0,0,1,.98-6.841q.444-1.838,3.646-1.44a3.693,3.693,0,0,1,2.7,1.839,5.027,5.027,0,0,1,.87,3.208,4.719,4.719,0,0,1-1.268,2.741,6.587,6.587,0,0,1-2.375,1.81q-.562.259-.591.619-.03.39.559.979l.9.855q.026.033,3.07,3.257a15.305,15.305,0,0,1,2.686,3.559"/><path class="a" d="M744.181,240.611a19.234,19.234,0,0,0-.2-2.522q-.208-1.224-.385-2.446-1.094,2.424-1.945,4.863a19.955,19.955,0,0,1,2.528.1m3.941,6.072a2.454,2.454,0,0,1,.115.855,1.369,1.369,0,0,1-.591,1.011q-.546.411-.723.367-1.45-.383-1.679-2.516a23.146,23.146,0,0,0-.7-3.889l-2.055.023a3.422,3.422,0,0,0-1.887.579q-.4.906-1.126,3.236a22.11,22.11,0,0,1-1.247,3.256c-.189.348-.536.422-1.045.222q-.965-.408-.981-.982a7.4,7.4,0,0,1,.9-3.012,13.088,13.088,0,0,0,1.232-3.045c.033-.179-.081-.389-.344-.631s-.39-.423-.381-.543a.51.51,0,0,1,.159-.3,1.169,1.169,0,0,1,.652-.221c.335-.045.528-.135.579-.273q.657-1.46,2.142-5.452a51.363,51.363,0,0,1,2.191-5.3.73.73,0,0,1,.782-.362,1.154,1.154,0,0,1,.73.328,3.5,3.5,0,0,1,.914,2.245q.086,1.245.14,2.488a95.842,95.842,0,0,0,2.222,11.919"/><path class="a" d="M753.626,233.275q-.008.876-.079,1.806-.157,2.042-.9,6.122t-.9,6.183q-.06.78-.088,1.533a1.082,1.082,0,0,1-1.233.72q-1.287-.159-1.326-1.219a19.693,19.693,0,0,1,.051-2.231,55.129,55.129,0,0,1,.966-6.057,55.053,55.053,0,0,0,.962-6.026q.06-.78.058-1.536a1.064,1.064,0,0,1,1.065-.492,2.275,2.275,0,0,1,1.116.419.36.36,0,0,1,.186-.076c.061,0,.083.107.068.307a1.242,1.242,0,0,0-.032.42.189.189,0,0,0,.08.127"/><path class="a" d="M721.137,197.3q-.063.81-1.16.937a3.588,3.588,0,0,0-1.789.5,12.8,12.8,0,0,0-4.069,8.9,14.674,14.674,0,0,0,.456,5.048q.543,1.976.8,2.6a4.934,4.934,0,0,0,1.67,2.242q.435.246.871.46a.834.834,0,0,1,.422.788,1.36,1.36,0,0,1-.382.846.654.654,0,0,1-.7.248,6.168,6.168,0,0,1-1.17-.482,10.452,10.452,0,0,1-2.847-3.814c-.246-.483-.494-.979-.746-1.492a6.792,6.792,0,0,1-.538-1.445,38.17,38.17,0,0,1-.212-3.913,18.043,18.043,0,0,1,.037-2.051,13.719,13.719,0,0,1,3.79-8.8A5.02,5.02,0,0,1,719.486,196a2.532,2.532,0,0,1,1.492.629c.132.111.185.336.159.677"/><path class="a" d="M731.33,199.841a34.724,34.724,0,0,1-1.633,5.522q-1.716,4.609-2,5.584a14.2,14.2,0,0,1-2.948,5.329,3.265,3.265,0,0,1-2.822,1.353q-1.348-.134-1.88-1.867a17.7,17.7,0,0,1-.629-6.723,48.8,48.8,0,0,1,.856-5.611,13.821,13.821,0,0,1,.113-1.864q.144-1.86,1.584-1.75a1.536,1.536,0,0,1,.634.215q.331.192.648.4-.088,1.533-.437,4.5-.4,3.171-.5,4.582-.117,1.5-.121,2.739a17.886,17.886,0,0,0,.356,2.443,9.981,9.981,0,0,0,2.27-3.6q.3-.762,1.29-4.189a19.269,19.269,0,0,1,1.61-4.044,5.662,5.662,0,0,0,.483-1.563,6.127,6.127,0,0,1,.486-1.593,1.162,1.162,0,0,1,1.2-.633,1.69,1.69,0,0,1,1.45.776"/><path class="a" d="M735.5,201.341q-.008.876-.079,1.806-.156,2.041-.9,6.122t-.9,6.182q-.06.781-.088,1.534a1.081,1.081,0,0,1-1.233.72q-1.287-.159-1.326-1.22a19.486,19.486,0,0,1,.052-2.231A54.846,54.846,0,0,1,732,208.2a54.829,54.829,0,0,0,.962-6.026q.062-.78.058-1.536a1.064,1.064,0,0,1,1.065-.492,2.265,2.265,0,0,1,1.116.419.351.351,0,0,1,.186-.076c.061,0,.083.107.068.307a1.239,1.239,0,0,0-.032.419.191.191,0,0,0,.08.128"/><path class="a" d="M743.808,198.991q-.047.6-.952.984a.647.647,0,0,1-.512-.009c-.275-.1-.421-.154-.441-.155a.513.513,0,0,0-.374.152A5.4,5.4,0,0,0,739.6,203.8a4.746,4.746,0,0,0,.145,1.642q.094.341,1.923,4.83a11.475,11.475,0,0,1,1.064,5.005,6.728,6.728,0,0,1-1.057,3.119,4.91,4.91,0,0,1-1.452,1.217,2.772,2.772,0,0,1-1.61.51,1.452,1.452,0,0,1-.5-.129q-.87-.46-.825-1.061a1.463,1.463,0,0,1,.517-.836.821.821,0,0,1,.585-.135.646.646,0,0,0,.628-.314,6.233,6.233,0,0,0,.839-2.654q.15-1.951-1.5-5.808a13.941,13.941,0,0,1-1.479-6.08,7.236,7.236,0,0,1,.973-3.216,4.948,4.948,0,0,1,2.495-2.194,3.13,3.13,0,0,1,1.376-.226,2.444,2.444,0,0,1,1.838.837.993.993,0,0,1,.249.683"/><path class="a" d="M748.863,202.371q-.008.876-.079,1.806-.157,2.041-.9,6.122t-.9,6.182q-.06.781-.087,1.534a1.083,1.083,0,0,1-1.234.72q-1.287-.159-1.325-1.219a19.476,19.476,0,0,1,.051-2.232,55.341,55.341,0,0,1,.965-6.056,54.868,54.868,0,0,0,.963-6.026q.06-.78.058-1.536a1.064,1.064,0,0,1,1.065-.492,2.258,2.258,0,0,1,1.115.419.365.365,0,0,1,.187-.076c.06,0,.083.107.068.307a1.258,1.258,0,0,0-.033.42.192.192,0,0,0,.081.127"/><path class="a" d="M763.475,200.477q-.732,3.991-1.433,8.014a78.247,78.247,0,0,0-1.129,7.976q-.081,1.053-.1,2.076a1.043,1.043,0,0,1-.411.815,1.208,1.208,0,0,1-.883.294q-.932-.072-1.465-1.381a106.351,106.351,0,0,1-3.866-12.137c-.03-.123-.076-.187-.136-.192-.14-.011-.241.123-.3.4a76.654,76.654,0,0,0-1.207,9q-.176,2.281-.239,4.663a1.244,1.244,0,0,1-.6,1.162.635.635,0,0,1-.467.174,1.2,1.2,0,0,1-.526-.221c-.29-.164-.473-.268-.55-.315q-.379-.15-.425-.757c.005-.322.01-.653.017-.995q.039-1.689.18-3.52.246-3.182.974-7.928,1.129-7.223,1.251-8,.081-.658,1.162-.575.515-.021,1.443.866a46.771,46.771,0,0,1,1.914,6.128,41.235,41.235,0,0,0,2,6.164q.758-3.959,2.342-11.961.137-.593.917-.533a2.642,2.642,0,0,1,.623.139q.471.158.559.194a.632.632,0,0,1,.358.45"/><path class="a" d="M772.022,211.042q-.04-2.207-.969-2.7a.756.756,0,0,0-.266-.08q-.36-.028-.947.53a2.877,2.877,0,0,1-.993.739c-.144.05-.341-.026-.586-.227a1.383,1.383,0,0,0-.49-.309.207.207,0,0,0-.155.049,3.488,3.488,0,0,0-1.266,2.711,3.86,3.86,0,0,0,.432,2.238q.746,1.3,1.316,1.34a3.356,3.356,0,0,0,2.679-1.455,4.167,4.167,0,0,0,1.245-2.834m2.259,2.047q-2.081,3.856-5.38,4.357a3.477,3.477,0,0,1-.788.03,4.9,4.9,0,0,1-3.309-2.127,4.628,4.628,0,0,1-.918-3.363,10.467,10.467,0,0,1,1.689-4.672,7.271,7.271,0,0,1,1.524-1.755,2.628,2.628,0,0,1,1.844-.794,1.371,1.371,0,0,1,.873.429,8.271,8.271,0,0,0,2.177,1.135,3.408,3.408,0,0,1,1.917,1.778,7.8,7.8,0,0,1,.784,3.534,3.525,3.525,0,0,1-.413,1.448"/><path class="a" d="M789.2,202.461q-.732,3.991-1.433,8.014a78.246,78.246,0,0,0-1.129,7.976q-.081,1.053-.1,2.076a1.043,1.043,0,0,1-.411.815,1.208,1.208,0,0,1-.883.294q-.932-.072-1.465-1.381a106.208,106.208,0,0,1-3.866-12.137c-.031-.124-.076-.188-.136-.192q-.21-.017-.3.4a76.654,76.654,0,0,0-1.207,9q-.176,2.281-.239,4.663a1.242,1.242,0,0,1-.6,1.161.632.632,0,0,1-.467.175,1.213,1.213,0,0,1-.526-.221c-.29-.164-.473-.268-.55-.315q-.381-.15-.425-.757c.005-.322.01-.654.017-1q.039-1.689.18-3.52.246-3.182.974-7.928,1.13-7.223,1.251-8,.081-.659,1.162-.575.515-.021,1.443.866a46.77,46.77,0,0,1,1.914,6.128,41.176,41.176,0,0,0,2,6.163q.757-3.957,2.341-11.96.137-.593.917-.533a2.639,2.639,0,0,1,.624.139c.313.1.5.17.559.194a.632.632,0,0,1,.358.45"/><path class="a" d="M797.127,203.1q-.047.6-.952.984a.643.643,0,0,1-.512-.009c-.275-.1-.421-.154-.441-.155a.518.518,0,0,0-.375.153,5.4,5.4,0,0,0-1.926,3.837,4.747,4.747,0,0,0,.145,1.642q.095.341,1.923,4.83a11.474,11.474,0,0,1,1.064,5.005A6.727,6.727,0,0,1,795,222.508a4.88,4.88,0,0,1-1.452,1.217,2.773,2.773,0,0,1-1.61.51,1.409,1.409,0,0,1-.5-.129q-.872-.461-.825-1.06a1.454,1.454,0,0,1,.517-.836.82.82,0,0,1,.585-.136.647.647,0,0,0,.628-.314,6.232,6.232,0,0,0,.839-2.654q.15-1.95-1.5-5.808a13.937,13.937,0,0,1-1.479-6.079,7.236,7.236,0,0,1,.973-3.217,4.943,4.943,0,0,1,2.494-2.193,3.123,3.123,0,0,1,1.377-.227,2.447,2.447,0,0,1,1.838.837,1,1,0,0,1,.249.683"/><path class="a" d="M754.313,226.064a1.289,1.289,0,0,0-1.818-.141,1.464,1.464,0,0,0-.447.88c-.016.089-.031.177-.047.265a1.317,1.317,0,0,0,.409,1.634l.052.042a1.28,1.28,0,0,0,1.3.1,1.3,1.3,0,0,0,.5-.426,1.281,1.281,0,0,0,.225-.635c.046-.261.092-.521.137-.782a1.29,1.29,0,0,0-.306-.937"/><path class="a" d="M749.578,195.213a1.289,1.289,0,0,0-1.818-.141,1.467,1.467,0,0,0-.446.88c-.016.089-.031.177-.047.265a1.318,1.318,0,0,0,.408,1.635l.053.041a1.279,1.279,0,0,0,1.3.1,1.317,1.317,0,0,0,.5-.425,1.3,1.3,0,0,0,.225-.636l.137-.782a1.287,1.287,0,0,0-.307-.937"/><path class="a" d="M736.013,194.167a1.289,1.289,0,0,0-1.818-.141,1.464,1.464,0,0,0-.447.88c-.016.089-.031.177-.047.265a1.318,1.318,0,0,0,.409,1.635l.052.041a1.28,1.28,0,0,0,1.3.1,1.309,1.309,0,0,0,.5-.425,1.278,1.278,0,0,0,.225-.636c.046-.261.092-.521.137-.782a1.29,1.29,0,0,0-.306-.937"/><path class="b" d="M768.264,229.8c-2.5-.193-4.29,1.149-5.458,4.1-.638,1.613-.165,4.015,1.37,6.946,3.009,5.746,9.01,11.378,10.743,12.113a23.842,23.842,0,0,0,4.431-3.27c.265-.228.525-.452.778-.667,3.458-2.928,7.247-6.445,9.14-10.321a6.817,6.817,0,0,0,.369-5.242,5.285,5.285,0,0,0-2.815-3.088,4.319,4.319,0,0,0-1.5-.394c-2.3-.178-4.812,1.426-7.238,2.976q-.416.266-.823.524l-.919.578-.826-.7a13.767,13.767,0,0,0-7.248-3.551m6.571,26.165h0c-2.706-.209-8.941-6.655-12.146-11.784-2.9-4.634-3.781-8.458-2.63-11.367,1.637-4.135,4.632-6.252,8.433-5.958a16.04,16.04,0,0,1,8.083,3.555c2.683-1.714,5.718-3.629,8.97-3.379a7.329,7.329,0,0,1,2.516.659,8.273,8.273,0,0,1,4.359,4.778,9.791,9.791,0,0,1-.5,7.529c-2.133,4.367-6.194,8.153-9.885,11.279-.248.21-.5.428-.76.65a23.784,23.784,0,0,1-5.471,3.88,2,2,0,0,1-.972.158"/></g></svg>