<svg xmlns="http://www.w3.org/2000/svg" width="23.893" height="23.893" viewBox="0 0 23.893 23.893"><defs><style>.a{fill:#023663;}</style></defs><path class="a" d="M23.893,12.509A11.948,11.948,0,0,1,8.411,23.92a13.429,13.429,0,0,0,1.484-3.131c.145-.559.742-2.842.742-2.842a3.2,3.2,0,0,0,2.736,1.373c3.6,0,6.2-3.314,6.2-7.433,0-3.945-3.223-6.9-7.365-6.9-5.154,0-7.9,3.459-7.9,7.23,0,1.753.935,3.936,2.423,4.629.226.106.347.058.4-.159.039-.164.241-.978.332-1.354a.358.358,0,0,0-.082-.342A4.7,4.7,0,0,1,6.5,12.268a5.17,5.17,0,0,1,5.4-5.183,4.716,4.716,0,0,1,4.99,4.86c0,3.232-1.633,5.472-3.757,5.472a1.733,1.733,0,0,1-1.768-2.158,24,24,0,0,0,.987-3.979A1.5,1.5,0,0,0,10.838,9.6c-1.2,0-2.163,1.238-2.163,2.9a4.3,4.3,0,0,0,.356,1.773s-1.18,5-1.4,5.935a11.564,11.564,0,0,0-.043,3.43,11.948,11.948,0,1,1,16.3-11.127Z" transform="translate(0 -0.563)"/></svg>