<svg viewBox="0 0 116.26 81.744" xmlns="http://www.w3.org/2000/svg">
  <path transform="translate(-1.05 -4.5)" d="M114.879,17.29A14.608,14.608,0,0,0,104.6,6.945C95.534,4.5,59.179,4.5,59.179,4.5s-36.355,0-45.421,2.445A14.608,14.608,0,0,0,3.479,17.29C1.05,26.416,1.05,45.455,1.05,45.455s0,19.039,2.429,28.164A14.39,14.39,0,0,0,13.758,83.8c9.067,2.445,45.421,2.445,45.421,2.445s36.355,0,45.421-2.445a14.39,14.39,0,0,0,10.278-10.18c2.429-9.125,2.429-28.164,2.429-28.164s0-19.039-2.429-28.164ZM47.289,62.741V28.169L77.675,45.455,47.289,62.741Z" fill="#023663" data-name="Icon awesome-youtube"/>
</svg>
