<?xml version="1.0" encoding="UTF-8"?>
<svg width="43px" height="348px" viewBox="0 0 43 348" version="1.1" xmlns="http://www.w3.org/2000/svg" xmlns:xlink="http://www.w3.org/1999/xlink">
    <title>3FAE9F41-EDE0-4FEF-ADAF-BD0546D70989</title>
    <g id="Marque" stroke="none" stroke-width="1" fill="none" fill-rule="evenodd">
        <g id="Page-la-marque" transform="translate(-454.000000, -3172.000000)" fill="#005844">
            <path d="M489.735302,3172 C491.175547,3172 491.804148,3173.84163 492.12447,3179.03566 C492.353272,3182.72135 497.77707,3269.35339 496.905216,3275.75409 L496.736625,3277.00942 C496.305515,3280.23288 496.269389,3280.49562 495.05072,3281.74121 C494.585892,3282.21561 493.885037,3282.93329 492.791607,3284.36134 C491.674093,3285.81859 490.262749,3287.26854 488.762294,3288.80364 C485.298963,3292.35552 481.370804,3296.37938 480.349627,3301.53691 C478.906974,3308.84991 479.263422,3410.57505 480.368894,3424.8337 C480.619372,3428.06932 481.05289,3432.63326 481.563479,3437.99272 C483.263835,3455.83244 485.831227,3482.80004 485.156865,3498.60838 C484.313913,3518.39192 478.993678,3520 472.642632,3520 C470.98322,3520 469.345483,3519.18501 467.910055,3517.64991 C465.012707,3514.54323 460.371651,3505.5516 461.869698,3480.2529 C462.765636,3465.09898 463.926502,3455.54537 464.947679,3447.12058 C465.908645,3439.20912 466.664894,3432.96412 466.876836,3424.66827 C466.953906,3421.65402 467.122497,3416.06345 467.341664,3408.85993 C468.283363,3378.03391 470.484673,3305.84297 469.085372,3300.72923 C468.266504,3297.72958 464.492485,3292.9102 461.159209,3288.6601 C457.402049,3283.86262 454.157886,3279.71956 454.032647,3277.20891 C454.01627,3276.87464 454.003674,3275.84177 454.000345,3274.23153 L454,3272.62969 C454.023715,3255.70159 454.87348,3197.82479 460.162117,3178.82887 L461.872106,3172.69335 L464.682751,3256.91691 C465.111453,3257.2721 465.785815,3257.71731 466.274727,3257.71731 C466.985216,3257.71731 467.238102,3256.16761 467.315172,3255.50102 C467.617406,3252.86431 468.254816,3234.9212 468.847822,3216.56386 L468.923255,3214.21927 C469.561884,3194.29061 470.129212,3174.62037 470.140267,3174.23574 L472.100734,3174.23331 C472.31653,3181.56217 472.582741,3189.77603 472.881074,3198.10633 L472.945488,3199.8929 C473.01038,3201.68069 473.076687,3203.4713 473.144229,3205.25718 L473.212176,3207.0412 C473.91841,3225.45398 474.75011,3243.09189 475.508671,3251.61098 C476.371156,3242.13174 477.344866,3221.35602 478.13627,3200.78668 L478.204621,3198.99884 C478.23856,3198.10546 478.272138,3197.2131 478.305331,3196.32271 L478.371197,3194.54482 C478.632551,3187.44601 478.868246,3180.51334 479.065931,3174.23088 L481.023989,3174.26007 C481.047038,3183.50379 481.149819,3194.50242 481.34272,3205.41875 L481.378788,3207.40223 C481.780334,3228.87116 482.533958,3249.58883 483.719029,3255.51562 C485.111635,3249.25768 486.265736,3226.29073 487.017556,3203.44266 L487.081914,3201.45658 C487.388037,3191.86261 487.622261,3182.3758 487.772427,3174.24548 L487.827821,3173.92678 C488.085523,3173.20667 488.67559,3172 489.735302,3172 Z M489.716035,3175.07263 C489.640057,3178.77224 489.306982,3194.88503 488.684105,3211.79258 L488.64215,3212.92079 C488.60683,3213.86175 488.570612,3214.80435 488.533492,3215.74663 C486.935832,3256.35143 485.333733,3258.3635 484.129921,3258.73286 L484.055205,3258.75413 C484.030475,3258.76074 484.005922,3258.76696 483.981548,3258.77314 L483.690128,3258.8072 C483.651689,3258.8072 483.611227,3258.80721 483.568903,3258.80448 L483.50404,3258.798 C482.466597,3258.65365 480.444953,3256.24347 479.523533,3216.00207 C477.760414,3257.51957 476.522359,3258.34524 475.562288,3258.36166 L475.503854,3258.362 L475.503854,3258.362 C475.484056,3258.35986 475.464088,3258.3577 475.443947,3258.35509 L475.383006,3258.34555 C474.40992,3258.16035 473.046799,3256.03774 471.219308,3207.05954 L471.161,3205.508 L471.141232,3206.14586 C471.093947,3207.66186 471.045809,3209.19517 470.997045,3210.73691 L470.955099,3212.06026 C470.941069,3212.50193 470.926994,3212.94408 470.912877,3213.3865 L470.849099,3215.37855 C470.280063,3233.08966 469.658773,3250.74176 469.323104,3255.07426 L469.29847,3255.37401 C469.286426,3255.5112 469.274795,3255.62918 469.263596,3255.72727 C468.885472,3259.00669 467.433185,3259.69761 466.274727,3259.69761 C464.680343,3259.69761 463.191929,3258.23793 463.025747,3258.07249 L462.756002,3257.79516 L462.739143,3257.40591 L460.405369,3187.44585 C458.777579,3197.9006 457.709898,3213.06988 457.027885,3227.98607 L456.925979,3230.2782 C456.200638,3247.06271 455.954807,3263.20081 455.937987,3271.55883 L455.937661,3273.15766 C455.941273,3275.13874 455.960648,3276.50495 455.990706,3277.11159 C456.082226,3278.98728 459.598543,3283.47337 462.695791,3287.43154 C466.310854,3292.04413 470.048746,3296.81728 470.973586,3300.20374 C471.323435,3301.48527 471.481732,3306.0884 471.494176,3313.18225 L471.494559,3314.79933 C471.471119,3334.41185 470.462516,3370.82194 469.299723,3408.92075 C469.080555,3416.1194 468.911965,3421.70511 468.834895,3424.71935 C468.622952,3433.10765 467.820943,3439.71514 466.891287,3447.36386 C465.872518,3455.76189 464.718878,3465.27901 463.825348,3480.37211 C462.5502,3501.95155 465.841294,3511.0851 468.189211,3514.77984 C468.594694,3513.45775 469.627879,3512.23066 470.549701,3511.13293 C471.014529,3510.58068 471.46009,3510.0552 471.785229,3509.55404 C474.00099,3506.12866 476.27937,3502.61083 478.290414,3499.11003 L479.985953,3500.10261 C477.948416,3503.64477 475.657994,3507.19179 473.437416,3510.61717 C473.059291,3511.19861 472.563154,3511.79708 472.042931,3512.41501 C471.156627,3513.46842 470.152309,3514.66292 469.990944,3515.6555 L468.63274,3515.43215 C468.887326,3515.78108 469.124532,3516.06342 469.335849,3516.28998 C470.390744,3517.42366 471.534751,3518.02213 472.642632,3518.02213 C472.738627,3518.02213 472.834687,3518.02213 472.930778,3518.02198 L471.240922,3517.45359 C471.780412,3515.81145 472.847349,3514.50747 473.87816,3513.23998 C474.147904,3512.90912 474.417649,3512.58069 474.67776,3512.24739 C475.703754,3510.91179 476.484087,3509.311 477.237928,3507.76861 C478.023078,3506.16053 478.837129,3504.49406 479.94501,3503.07817 L481.479183,3504.3043 C480.503767,3505.55719 479.769194,3507.0558 478.993678,3508.64198 C478.196485,3510.27682 477.370392,3511.96519 476.221568,3513.46136 C475.951823,3513.81168 475.672444,3514.15714 475.390657,3514.4953 C474.446373,3515.66004 473.551171,3516.75159 473.119491,3518.02113 C474.490979,3518.01521 475.862174,3517.95586 477.134916,3517.38724 L475.951582,3517.03685 C476.507931,3515.10034 477.714557,3513.40468 478.88024,3511.76497 C479.308942,3511.16163 479.732827,3510.56317 480.115768,3509.96713 L481.579269,3510.92325 C482.389646,3508.08037 482.963614,3504.09901 483.201215,3498.52323 C483.87076,3482.85356 481.308185,3455.97355 479.612646,3438.18247 C479.099649,3432.80842 478.66613,3428.23475 478.415653,3424.98939 C477.894113,3418.23936 477.53415,3394.03711 477.436195,3368.75798 L477.420728,3368.79826 L477.105223,3368.97343 C476.29358,3369.41619 475.330206,3369.63271 474.166931,3369.63271 C473.86106,3369.63271 473.545555,3369.61812 473.210782,3369.58649 L473.386598,3367.61836 C474.578774,3367.71567 475.498796,3367.60376 476.173158,3367.23154 L476.322481,3367.50888 L477.370151,3367.14396 C477.385001,3367.15713 477.406333,3367.17883 477.430821,3367.20882 C477.422549,3364.89383 477.416781,3362.57223 477.413298,3360.25695 L477.386287,3360.32603 L476.957586,3360.47687 C476.263956,3360.71285 475.529383,3360.76394 474.799627,3360.76394 C474.534699,3360.76394 474.269771,3360.75421 474.002435,3360.74934 L473.299172,3360.73718 L473.299172,3358.75931 L474.05542,3358.77147 C474.87188,3358.7885 475.712424,3358.8104 476.324167,3358.59875 L476.408462,3358.85419 L477.36702,3358.5063 L477.411154,3358.55915 C477.410617,3358.03347 477.4102,3357.50827 477.409902,3356.9837 L477.409649,3353.63271 C477.40987,3353.1092 477.410213,3352.58666 477.410681,3352.06521 L477.424822,3352.06132 C477.099684,3352.16837 476.365111,3352.37515 475.543834,3352.37515 C474.802036,3352.37515 473.987984,3352.20486 473.337707,3351.64775 L474.606952,3350.14428 C474.989894,3350.47027 475.895466,3350.48487 476.815488,3350.18077 L477.410724,3352.0183 C477.412406,3350.17209 477.415645,3348.3398 477.420479,3346.52804 C476.767794,3347.07265 475.824958,3347.1341 475.117059,3347.17577 C474.917159,3347.19037 474.738935,3347.19524 474.618513,3347.222 L474.464373,3346.58703 L473.457647,3345.70636 C473.823729,3345.27819 474.365627,3345.24413 474.994229,3345.20277 C475.295283,3345.18088 476.00818,3345.14195 476.176771,3345.00085 L477.421518,3346.1479 C477.424548,3345.0643 477.428152,3343.98825 477.432338,3342.92115 C477.016927,3343.32756 476.485437,3343.46575 475.93665,3343.46575 C475.226161,3343.46575 474.481954,3343.2322 473.932831,3343.06434 L473.691987,3342.99136 L474.253153,3341.09377 L474.508447,3341.17405 C474.917881,3341.29569 475.849946,3341.5852 476.10524,3341.47085 L477.434444,3342.39705 C477.441726,3340.62692 477.450624,3338.88225 477.461179,3337.16958 L477.484311,3337.13755 C476.766597,3338.22988 475.651491,3338.27123 474.839848,3338.30043 C474.473766,3338.31259 474.124543,3338.32719 473.874065,3338.42693 L473.170802,3336.57557 C473.727151,3336.35905 474.281091,3336.33959 474.770003,3336.32499 C475.4829,3336.29823 475.71411,3336.25444 475.856208,3336.04522 L477.461476,3337.1214 C477.469031,3335.89944 477.47743,3334.69381 477.486688,3333.50691 C476.911937,3333.71059 476.235501,3333.75596 475.569845,3333.75596 C475.276016,3333.75596 474.989412,3333.74623 474.707625,3333.73649 L473.973052,3333.71946 L473.973052,3331.7416 L474.765427,3331.75863 C475.533718,3331.78052 476.489868,3331.80972 476.937837,3331.60293 L477.492079,3332.82985 C477.502724,3331.51982 477.514431,3330.23345 477.52722,3328.97399 C477.13729,3329.40497 476.635581,3329.54381 476.121377,3329.54381 C475.555394,3329.54381 474.97737,3329.37837 474.51495,3329.24457 L474.170544,3329.14969 L474.671498,3327.23751 L475.049623,3327.34455 C475.381987,3327.437 475.998547,3327.60486 476.181588,3327.56107 L477.530957,3328.60969 C477.546043,3327.1541 477.562589,3325.73519 477.580626,3324.35808 L477.591004,3324.34832 C477.022614,3324.92732 476.244689,3325.14627 475.449905,3325.14627 C474.82612,3325.14627 474.187884,3325.01004 473.638761,3324.80811 L474.305898,3322.94946 C475.105499,3323.24382 475.917141,3323.24626 476.198928,3322.95919 L477.580886,3324.33827 C477.666605,3317.80087 477.78596,3312.2063 477.942304,3308.10134 C477.607103,3308.25515 477.242804,3308.31859 476.8704,3308.31859 C475.760111,3308.31859 474.570344,3307.75905 473.828546,3307.18734 L475.015905,3305.61332 C475.827548,3306.23855 476.986005,3306.54265 477.277426,3306.20449 L477.993939,3306.83149 C478.043858,3305.68355 478.097224,3304.67848 478.15413,3303.83164 C477.597144,3303.9876 476.971177,3304.02476 476.361016,3304.06046 C475.913047,3304.08965 475.457853,3304.11155 475.065278,3304.1894 L474.677519,3302.25046 C475.15439,3302.15558 475.703513,3302.11665 476.245411,3302.08502 L476.659358,3302.05914 C477.137841,3302.02571 477.586375,3301.97609 477.854246,3301.85877 L478.236286,3302.74909 C478.297909,3302.03755 478.363285,3301.49908 478.432512,3301.1501 C479.564477,3295.41356 483.711804,3291.16345 487.370218,3287.41451 C488.822505,3285.9232 490.195313,3284.51461 491.240574,3283.14981 C492.406257,3281.62687 493.160098,3280.85811 493.658644,3280.34965 C494.414893,3279.57602 494.414893,3279.57602 494.793018,3276.74667 L494.964016,3275.48405 C495.215231,3273.64504 494.90137,3264.5171 494.333763,3252.55807 C493.834979,3252.9036 493.101743,3252.99378 492.31835,3252.99378 C491.88724,3252.99378 491.436862,3252.96459 491.005752,3252.94026 C490.68543,3252.9208 490.389192,3252.90133 490.155574,3252.90133 L490.150757,3252.90133 L490.150757,3250.92103 C490.471079,3250.99402 490.757683,3250.9405 491.123765,3250.96482 C491.706607,3251.00132 492.913233,3251.0743 493.221513,3250.91617 C493.185387,3250.9332 493.07219,3251.02321 493.02643,3251.19351 L494.285593,3251.54902 C494.230871,3250.40914 494.173979,3249.2453 494.115176,3248.0612 L494.148761,3248.04546 C493.618905,3248.28874 493.011979,3248.38362 492.414687,3248.38362 C491.716241,3248.38362 491.037062,3248.25468 490.521656,3248.08682 L491.123765,3246.20383 C491.894465,3246.45441 492.848205,3246.47144 493.344343,3246.24276 L494.110172,3247.96047 C492.701567,3219.62025 490.20495,3179.76231 490.166412,3179.16217 C490.043582,3177.13078 489.870174,3175.86085 489.716035,3175.07263 Z M481.360789,3511.64488 L481.133332,3511.97693 C480.917175,3512.28863 480.694997,3512.60064 480.472216,3512.91568 C479.570299,3514.18786 478.642683,3515.49465 478.093979,3516.84043 C479.353669,3515.94918 480.479331,3514.38624 481.360789,3511.64488 Z M474.411146,3499.0025 L476.22229,3499.7591 C475.213156,3502.22839 473.601912,3504.3206 472.038837,3506.34469 C470.579325,3508.23498 469.204108,3510.02552 468.351522,3512.02771 L466.550011,3511.25165 C467.501344,3509.00861 469.023475,3507.0356 470.49503,3505.12829 C471.973809,3503.20638 473.503166,3501.22364 474.411146,3499.0025 Z M476.789959,3491.06256 L478.3434,3492.2668 C477.365575,3493.54889 476.192667,3494.81394 474.947505,3496.14712 C472.885884,3498.3634 470.754418,3500.6551 469.687481,3502.97599 L467.912464,3502.13911 C469.111865,3499.53358 471.354119,3497.12754 473.521711,3494.79205 C474.728337,3493.49536 475.869936,3492.2668 476.789959,3491.06256 Z M476.186164,3485.90405 L478.043068,3486.52685 C476.650992,3490.78425 471.913598,3495.31656 469.211333,3497.63502 L467.942087,3496.13155 C469.989258,3494.36777 474.892834,3489.84519 476.186164,3485.90405 Z M477.584743,3479.19414 L479.342901,3480.06752 C477.736474,3483.35667 474.870435,3485.83569 472.103142,3488.232 C470.754418,3489.39488 469.485172,3490.49937 468.386926,3491.66468 L466.968357,3490.29745 C468.131631,3489.06158 469.50444,3487.87438 470.831488,3486.72853 C473.44705,3484.45873 476.15654,3482.11351 477.584743,3479.19414 Z M476.906527,3474.20642 L478.671911,3475.06033 C477.089568,3478.3884 472.412385,3482.29548 469.748655,3483.88896 L468.749154,3482.18357 C471.692263,3480.42466 475.670999,3476.80221 476.906527,3474.20642 Z M476.646416,3468.26235 L478.033675,3469.66121 C477.559213,3470.14048 477.034174,3470.70002 476.475417,3471.29849 C473.987503,3473.95754 471.167224,3476.97178 468.840675,3477.63107 L468.310819,3475.72619 C470.117146,3475.2153 472.968734,3472.16457 475.052031,3469.94342 C475.622831,3469.33035 476.16232,3468.75865 476.646416,3468.26235 Z M475.912565,3463.56048 L477.422655,3464.82067 C476.309957,3466.17087 474.717981,3467.22184 473.178991,3468.23632 C471.883252,3469.0878 470.662175,3469.89793 470.014306,3470.71048 L468.484949,3469.47462 C469.325493,3468.41392 470.676626,3467.52108 472.109645,3466.57959 C473.525805,3465.64539 474.992543,3464.67714 475.912565,3463.56048 Z M474.616345,3459.33835 L476.473249,3459.96602 C475.830197,3461.89766 473.655379,3463.11893 471.740673,3464.20396 C471.092803,3464.56888 470.483469,3464.90947 470.016232,3465.24276 L469.534545,3465.58822 L468.421848,3465.02381 L468.385721,3464.29154 L468.436298,3463.62495 L469.182914,3463.35734 L469.187731,3463.35734 C469.190139,3463.35734 469.069717,3463.40843 468.954112,3463.5471 L468.97338,3463.56899 C469.476743,3463.21137 470.110161,3462.85375 470.786932,3462.4718 C472.31388,3461.61546 474.211728,3460.54502 474.616345,3459.33835 Z M474.005566,3455.09652 L475.730006,3456.03558 C475.043602,3457.31767 473.615399,3458.07184 472.355787,3458.73599 C471.744044,3459.05955 471.110626,3459.39042 470.848106,3459.66289 L469.446397,3458.28349 C469.928084,3457.78233 470.667474,3457.39552 471.450215,3456.98194 C472.45935,3456.44916 473.605765,3455.84582 474.005566,3455.09652 Z M477.073432,3449.44488 L477.415429,3450.03605 L476.907249,3450.71724 L476.447238,3450.54694 L476.584519,3450.72697 C474.539757,3452.33992 472.213208,3453.72661 470.621232,3454.60729 L469.681942,3452.87027 C471.8399,3451.67576 473.862986,3450.36205 475.377893,3449.16754 L475.811411,3448.97049 C476.555618,3448.85128 476.907249,3449.15538 477.073432,3449.44488 Z M474.319867,3445.6502 L475.875716,3446.852 C474.608879,3448.5282 472.248612,3449.62053 470.952873,3450.12412 L470.24961,3448.28006 C472.09688,3447.55752 473.616603,3446.57466 474.319867,3445.6502 Z M476.515156,3441.09575 C476.758408,3442.62598 474.704012,3443.621 472.717053,3444.58439 C472.33652,3444.77172 471.994522,3444.93471 471.753678,3445.06852 L470.795121,3443.34366 C471.060049,3443.19283 471.44299,3443.00793 471.871692,3442.80115 C472.615898,3442.44109 474.357197,3441.59448 474.605266,3441.15901 C474.590816,3441.18333 474.557098,3441.28065 474.578774,3441.40958 L476.515156,3441.09575 Z M473.968958,3437.01011 L475.775285,3437.77644 C475.064796,3439.4867 473.571566,3440.55956 471.774872,3440.65201 L471.676127,3438.67658 C472.716571,3438.62305 473.54989,3438.01972 473.968958,3437.01011 Z M473.896705,3433.21105 L475.845129,3433.40324 C475.698215,3434.94807 474.231477,3435.66088 473.053752,3436.22529 C472.759923,3436.37125 472.468502,3436.50992 472.222842,3436.65832 L471.228157,3434.95536 C471.519578,3434.7802 471.859168,3434.61234 472.208391,3434.44448 C472.904429,3434.10875 473.855761,3433.65138 473.896705,3433.21105 Z M474.228346,3428.31187 L475.967237,3429.22417 C475.114651,3430.87848 473.262563,3431.69833 472.506314,3431.9708 L471.843995,3430.10971 C472.968734,3429.69613 473.859855,3429.02711 474.228346,3428.31187 Z M473.217526,3424.18803 L475.177992,3424.26588 C475.122598,3425.65744 474.014718,3426.65732 472.131321,3427.01738 L471.770056,3425.076 C472.008491,3425.02978 473.198258,3424.7719 473.217526,3424.18803 Z M473.443196,3419.65013 L475.401254,3419.72554 C475.341044,3421.28254 474.035671,3421.81532 473.171043,3422.16321 C472.783285,3422.32378 472.381076,3422.48434 472.1595,3422.6887 L470.842085,3421.22415 C471.323772,3420.78381 471.916248,3420.54053 472.443695,3420.32888 C473.293873,3419.98585 473.435971,3419.85935 473.443196,3419.65013 Z M473.80687,3416.22669 L475.48555,3417.24847 C474.909934,3418.21672 473.592519,3418.86141 472.202851,3418.86141 L472.166725,3418.86141 L472.183584,3416.88355 L472.202851,3416.88355 C472.954284,3416.88355 473.619012,3416.54295 473.80687,3416.22669 Z M473.457406,3411.79632 L475.386563,3412.14421 C475.087917,3413.81554 473.452589,3414.28507 472.667439,3414.51132 L472.130358,3412.6113 C473.170802,3412.3072 473.406829,3412.08339 473.457406,3411.79632 Z M473.259192,3408.27654 L475.135363,3408.84825 C474.904153,3409.62674 474.239425,3410.20332 473.304952,3410.43443 L472.840124,3408.51252 C473.114685,3408.44684 473.244741,3408.33249 473.259192,3408.27654 Z M474.467986,3403.27884 L474.824434,3405.22508 C474.176565,3405.34428 473.641892,3405.58027 473.263768,3405.90626 L471.98248,3404.41252 C472.620715,3403.85541 473.482935,3403.45886 474.467986,3403.27884 Z M474.191979,3397.73254 L476.000714,3398.49644 C475.523844,3399.64472 474.473766,3400.04856 473.625996,3400.36483 C473.423688,3400.44511 473.218971,3400.52053 473.023887,3400.60811 L472.221878,3398.80054 C472.457905,3398.69593 472.698748,3398.60348 472.937184,3398.5159 C473.623588,3398.25316 474.049881,3398.078 474.191979,3397.73254 Z M474.411869,3394.45482 L475.779861,3395.87315 C475.127174,3396.51784 474.228828,3396.79031 473.385875,3396.79031 C472.896963,3396.79031 472.427318,3396.69787 472.032334,3396.5373 L472.766907,3394.70297 C473.243778,3394.90003 474.019294,3394.84164 474.411869,3394.45482 Z M474.942929,3390.06994 L476.147147,3391.6318 C475.330687,3392.27163 474.381764,3392.30812 473.620698,3392.33245 C473.196813,3392.34705 472.799421,3392.36408 472.486324,3392.47112 L471.862539,3390.59543 C472.447789,3390.39351 473.033039,3390.37404 473.548445,3390.35945 C474.21799,3390.33269 474.641875,3390.30593 474.942929,3390.06994 Z M472.787138,3386.76279 C473.288093,3386.98418 474.150313,3387.0304 474.367072,3386.93796 C474.294819,3386.96958 474.147904,3387.11798 474.121412,3387.33937 L476.069836,3387.55102 C476.021668,3388.01325 475.763965,3388.40494 475.342489,3388.65308 C474.961956,3388.87447 474.468226,3388.96205 473.957638,3388.96205 C473.23029,3388.96205 472.481267,3388.78689 472.011622,3388.58253 L472.787138,3386.76279 Z M475.814542,3383.5459 L476.221568,3383.61889 L476.69603,3383.70647 L477.168083,3384.50443 L477.343899,3385.57243 L476.276962,3385.65514 C475.901246,3385.68677 475.489403,3385.69163 475.065518,3385.68677 C474.403199,3385.66974 473.625274,3385.67947 473.254375,3385.84976 L472.447549,3384.04706 C473.208614,3383.6943 474.145496,3383.67971 475.075152,3383.70647 C475.328038,3383.70647 475.573698,3383.70647 475.809725,3383.7016 L475.814542,3383.5459 Z M475.464115,3380.29568 L475.478565,3380.57789 L476.249265,3380.31028 C476.350419,3380.41002 476.728544,3380.87712 476.427489,3381.64588 L476.198688,3382.23949 L475.567677,3382.26868 C474.989653,3382.30031 474.397178,3382.30517 473.804702,3382.30517 L472.850962,3382.30517 L472.846145,3380.32731 L473.453071,3380.32731 C474.125024,3380.32731 474.799386,3380.32974 475.464115,3380.29568 Z M475.504576,3376.23485 L475.569604,3376.51219 L476.737696,3376.71168 C476.742512,3376.95496 476.752146,3377.17878 476.687118,3377.43422 L476.545021,3378.01323 L475.974221,3378.15676 C475.138494,3378.36842 474.350936,3378.47059 473.621179,3378.47059 C473.40442,3378.47059 473.192478,3378.46086 472.987761,3378.43897 L473.163577,3376.47083 C473.657306,3376.51219 474.208838,3376.48786 474.803721,3376.38568 L474.808538,3376.38568 C475.034931,3376.34189 475.263733,3376.29567 475.504576,3376.23485 Z M474.687153,3371.52884 L476.40196,3372.48736 C475.811893,3373.56023 474.605266,3373.64781 473.726187,3373.71349 C473.35288,3373.74026 472.96753,3373.76702 472.707419,3373.8546 L472.090859,3371.97891 C472.58218,3371.81348 473.114445,3371.77212 473.586498,3371.74049 C473.918862,3371.71373 474.6149,3371.66508 474.687153,3371.52884 Z M475.912806,3363.26364 L475.927257,3363.59937 L476.962884,3363.7575 C476.967701,3364.01051 476.977335,3364.2319 476.912307,3364.49707 L476.734083,3365.20745 L476.013961,3365.24151 C475.407035,3365.27314 474.788067,3365.278 474.171507,3365.278 L473.299653,3365.278 L473.294836,3363.30013 L473.875269,3363.30013 C474.559265,3363.30013 475.240853,3363.30013 475.912806,3363.26364 Z M474.344433,3354.42455 C474.773134,3354.75541 475.293357,3354.93057 475.473989,3354.91111 C475.392102,3354.92084 475.274089,3355.02788 475.250005,3355.11303 L477.193613,3354.63133 C477.345344,3355.89639 476.743235,3356.43891 476.369927,3356.65786 C476.085732,3356.82329 475.767818,3356.88897 475.447496,3356.88897 C474.570826,3356.88897 473.65562,3356.38538 473.152257,3355.9937 L474.344433,3354.42455 Z M475.267345,3318.79399 C475.727357,3318.80858 476.213861,3318.81588 476.632929,3318.80615 L476.705182,3320.78159 C476.55345,3320.78888 476.389677,3320.79132 476.228311,3320.79132 C475.895947,3320.79132 475.549132,3320.78159 475.211951,3320.77186 C474.682095,3320.75726 474.176324,3320.74023 473.860819,3320.77672 L473.636834,3318.81102 C474.014959,3318.76723 474.621885,3318.77696 475.267345,3318.79399 Z M474.26929,3314.53805 L474.816005,3314.71807 C475.764928,3315.0465 476.381488,3315.23139 477.019723,3315.00028 L477.667593,3316.86624 C477.234074,3317.02194 476.819823,3317.08032 476.422431,3317.08032 C475.610788,3317.08032 474.86899,3316.82731 474.187403,3316.5962 L473.676814,3316.42103 L474.26929,3314.53805 Z M474.466781,3310.89712 C475.381987,3311.16229 476.159912,3311.29366 476.916161,3311.31313 L476.8704,3313.29099 C475.935927,3313.2691 475.003863,3313.1134 473.927292,3312.79957 L474.466781,3310.89712 Z M475.41426,3298.06628 C475.553949,3298.24631 475.81406,3298.36795 476.110298,3298.39471 C476.428212,3298.42877 476.729266,3298.33632 476.919532,3298.16603 L478.217679,3299.6476 C477.690232,3300.11957 476.977335,3300.37744 476.228311,3300.37744 C476.129566,3300.37744 476.033228,3300.37501 475.936891,3300.36528 C475.10598,3300.29229 474.356957,3299.90061 473.877678,3299.29485 L475.41426,3298.06628 Z M487.086263,3273.84021 L488.719183,3274.93253 C486.73704,3277.95894 484.229858,3280.7299 481.804563,3283.41328 C478.716948,3286.8265 475.528179,3290.35892 473.490642,3294.36332 L471.749343,3293.45831 C473.904893,3289.21794 477.187591,3285.59064 480.359502,3282.0801 C482.731811,3279.45511 485.186007,3276.74011 487.086263,3273.84021 Z M489.001211,3277.91491 L490.848481,3278.57906 C489.743009,3281.71251 487.527248,3284.1891 485.38374,3286.58784 C483.640032,3288.53895 481.992662,3290.38301 480.911274,3292.5409 L479.160341,3291.64807 C480.364559,3289.25419 482.178112,3287.2228 483.931453,3285.26196 C486.038834,3282.90458 488.028203,3280.67857 489.001211,3277.91491 Z M481.775903,3274.18566 L483.24264,3275.49938 L480.600586,3278.49415 C478.319797,3281.07779 476.039008,3283.66386 473.813613,3286.28642 C473.346377,3286.83623 472.792437,3287.39091 472.224046,3287.96018 C471.130616,3289.05251 469.998651,3290.1862 469.466387,3291.36854 L467.681735,3290.55112 C468.363323,3289.03548 469.625343,3287.77286 470.84642,3286.55402 C471.373868,3286.02611 471.891682,3285.51035 472.3252,3284.99703 C474.560229,3282.36474 476.850651,3279.76894 479.141074,3277.17801 L481.775903,3274.18566 Z M475.765651,3274.35134 L477.114375,3275.78669 C475.731933,3277.115 474.407293,3278.63307 473.123597,3280.10005 C472.049434,3281.33104 470.972863,3282.56447 469.843307,3283.71519 C469.563928,3284.00469 469.214705,3284.31609 468.843806,3284.64452 C467.9286,3285.46194 466.78941,3286.47399 466.611186,3287.30844 L464.694071,3286.89243 C465.009576,3285.42058 466.3583,3284.21878 467.548067,3283.16051 C467.88284,3282.86128 468.198345,3282.58394 468.451231,3282.32606 C469.556703,3281.19724 470.604373,3279.99544 471.654451,3278.7912 C472.962231,3277.29259 474.318181,3275.74047 475.765651,3274.35134 Z M470.759476,3273.28261 L472.233439,3274.58416 C471.274881,3275.69351 470.207944,3276.8053 469.131373,3277.92439 C467.358764,3279.76846 465.523536,3281.67334 464.20853,3283.58066 L462.602103,3282.44697 C464.00863,3280.41072 465.896844,3278.44745 467.722438,3276.54499 C468.777333,3275.45267 469.820186,3274.36764 470.759476,3273.28261 Z M466.247512,3272.84811 L467.757601,3274.1083 C467.100098,3274.91356 466.24992,3275.71152 465.346757,3276.55813 L464.820492,3277.05295 C463.420335,3278.37688 462.08065,3279.73348 461.635357,3281.06125 L459.780861,3280.42385 C460.443181,3278.45572 462.256733,3276.75519 464.014892,3275.10818 C464.867478,3274.30779 465.671896,3273.55362 466.247512,3272.84811 Z M461.091532,3273.73876 L462.57272,3275.03544 C462.14161,3275.53417 461.667148,3276.05235 461.183053,3276.57784 C460.414762,3277.41472 459.627203,3278.26863 459.013052,3279.07632 L457.459611,3277.86966 C458.10748,3277.01817 458.933574,3276.11561 459.747625,3275.23007 C460.214861,3274.72161 460.677281,3274.21802 461.091532,3273.73876 Z M482.007353,3266.95416 L483.009263,3268.65469 C481.674989,3269.45752 480.160083,3269.55483 478.82581,3269.64241 C477.838351,3269.70566 476.906286,3269.76648 476.133178,3270.08275 L475.398605,3268.24841 C476.463134,3267.81294 477.599916,3267.73996 478.695754,3267.66697 C479.921648,3267.58913 481.077697,3267.51128 482.007353,3266.95416 Z M461.59923,3266.24792 L462.514436,3267.99711 C461.652216,3268.45691 460.671983,3268.54205 459.807354,3268.6199 C459.041471,3268.68559 458.316532,3268.74641 457.928774,3269.04564 L456.746232,3267.46919 C457.586776,3266.8245 458.62722,3266.73448 459.636355,3266.6469 C460.38297,3266.58122 461.086234,3266.5204 461.59923,3266.24792 Z M480.274725,3263.74992 L482.047334,3264.58194 C481.505435,3265.78374 480.091684,3265.91998 478.95731,3266.02946 C478.478031,3266.07568 477.979485,3266.12434 477.673614,3266.23624 L477.006477,3264.37515 C477.543558,3264.1781 478.169752,3264.11727 478.774269,3264.05889 C479.241506,3264.0151 480.118176,3263.92995 480.274725,3263.74992 Z M460.828531,3262.96291 L460.585279,3264.92618 C459.725467,3264.81427 458.786177,3264.93835 458.576643,3265.07215 C458.632037,3265.03566 458.754868,3264.88969 458.76691,3264.6756 L456.808851,3264.57586 C456.828119,3264.17931 457.015977,3263.81439 457.33389,3263.54435 C458.374335,3262.66611 460.727377,3262.94831 460.828531,3262.96291 Z M493.775453,3262.59702 L494.613589,3264.38513 C493.997029,3264.68193 493.067373,3264.76221 492.012478,3264.76221 C491.535608,3264.76221 491.032245,3264.74761 490.521656,3264.72572 L489.924364,3264.70626 L489.924364,3262.72839 C490.083321,3262.72839 490.316939,3262.73569 490.598726,3262.74785 C491.328482,3262.78191 493.238372,3262.85733 493.775453,3262.59702 Z M481.187522,3259.34461 L481.584914,3261.28112 C481.233282,3261.3541 480.840707,3261.40032 480.443315,3261.44411 C479.814713,3261.51466 479.101816,3261.59738 478.783903,3261.8139 L477.692881,3260.17176 C478.405778,3259.6852 479.330618,3259.58059 480.228964,3259.47841 C480.561329,3259.43949 480.891284,3259.40543 481.187522,3259.34461 Z M460.067465,3258.72108 L461.801539,3259.63581 C461.158487,3260.88627 459.935001,3261.12955 458.831938,3261.12955 C458.444179,3261.12955 458.068463,3261.10036 457.740916,3261.0736 L457.863746,3259.09816 L457.892647,3259.1006 C458.96681,3259.18574 459.812171,3259.21251 460.067465,3258.72108 Z M493.746552,3259.095 L493.746552,3261.07287 L489.70038,3261.07287 L489.70038,3259.095 L493.746552,3259.095 Z M490.150757,3255.03539 L490.557783,3255.13756 C492.282223,3255.58277 492.674798,3255.47086 492.761502,3255.37111 L494.276408,3256.62401 C493.782679,3257.23707 493.067373,3257.43169 492.31835,3257.43169 C491.538016,3257.43169 490.721557,3257.22247 490.073687,3257.05461 L489.70038,3256.95973 L490.150757,3255.03539 Z M460.137791,3254.61889 L460.826604,3256.47025 C460.279889,3256.67947 459.692231,3256.7184 459.174417,3256.75246 C458.805926,3256.77678 458.391675,3256.80355 458.203817,3256.89356 L457.370499,3255.10302 C457.893129,3254.85487 458.475971,3254.81595 459.041953,3254.77702 C459.444162,3254.75026 459.860821,3254.7235 460.137791,3254.61889 Z M459.797239,3250.75439 L461.170047,3252.16298 C460.551079,3252.78091 459.662366,3252.9804 458.954286,3253.14096 C458.725485,3253.19205 458.513542,3253.23584 458.344952,3253.29666 L457.680223,3251.43557 C457.913842,3251.35042 458.210079,3251.27987 458.525584,3251.20932 C458.968737,3251.10958 459.575663,3250.97091 459.797239,3250.75439 Z M459.921032,3245.70608 L460.147425,3247.67422 C459.636837,3247.7326 458.817969,3247.96859 458.66142,3248.03427 L457.664328,3246.34348 C458.03041,3246.07343 459.429711,3245.76447 459.921032,3245.70608 Z M459.846852,3242.3875 L460.672946,3244.1829 C460.164766,3244.42132 459.586741,3244.54296 458.989449,3244.54296 C458.765465,3244.54296 458.536663,3244.52593 458.307862,3244.48944 L458.611325,3242.53347 C459.059294,3242.60888 459.495221,3242.55293 459.846852,3242.3875 Z M490.884608,3242.2138 C490.971311,3242.26732 491.773321,3242.73928 492.165896,3242.35003 L493.531479,3243.76836 C493.042566,3244.24518 492.426007,3244.48603 491.749236,3244.48603 C491.144719,3244.48603 490.496849,3244.29141 489.863431,3243.90459 L490.884608,3242.2138 Z M490.955656,3238.67383 C491.341006,3238.72492 491.716722,3238.80763 492.09003,3238.89035 C492.590985,3239.00226 493.067855,3239.1093 493.539908,3239.11903 L493.501373,3241.0969 C492.834237,3241.08473 492.241761,3240.95093 491.666145,3240.82442 C491.345823,3240.75144 491.025501,3240.67846 490.693137,3240.63466 L490.955656,3238.67383 Z M460.703774,3237.55596 L460.260622,3239.48273 C459.937891,3239.40488 459.769301,3239.43164 459.733174,3239.44624 L458.013551,3238.5753 C458.162874,3238.22254 458.810743,3237.10589 460.703774,3237.55596 Z M492.391566,3234.69133 L493.301955,3236.44295 C492.752831,3236.73732 492.018258,3236.79084 491.225883,3236.79084 C491.078968,3236.79084 490.924829,3236.78841 490.775505,3236.78597 L490.611732,3234.80567 L490.809224,3234.80811 C491.139179,3234.82027 492.129046,3234.83243 492.391566,3234.69133 Z M460.259658,3233.89605 L460.259658,3235.87392 L458.458148,3235.87392 L458.458148,3233.89605 L460.259658,3233.89605 Z M493.168287,3230.31813 L492.527643,3232.18895 C491.973702,3231.99676 491.426987,3231.98946 490.950117,3232.17922 L490.246854,3230.33029 C491.164468,3229.97754 492.171194,3229.97267 493.168287,3230.31813 Z M492.397828,3226.85796 L492.397828,3228.83582 L491.034653,3228.83582 L491.034653,3226.85796 L492.397828,3226.85796 Z" id="Grande-fourchette"></path>
        </g>
    </g>
</svg>