<?xml version="1.0" encoding="UTF-8"?>
<svg width="34px" height="355px" viewBox="0 0 34 355" version="1.1" xmlns="http://www.w3.org/2000/svg" xmlns:xlink="http://www.w3.org/1999/xlink">
    <title>EFF26E8A-E0F4-47A7-A18A-046BFEED0422</title>
    <g id="Marque" stroke="none" stroke-width="1" fill="none" fill-rule="evenodd">
        <g id="Page-la-marque" transform="translate(-990.000000, -3164.000000)" fill="#005844">
            <path d="M1015.6058,3164 C1019.20749,3164 1021.9808,3165.35488 1022.09785,3165.41301 L1022.09785,3165.41301 L1022.6156,3165.67012 L1022.61785,3166.24695 L1022.61785,3166.24695 L1022.61795,3166.32787 C1022.61797,3166.34139 1022.618,3166.35641 1022.61803,3166.37292 L1022.61887,3166.82881 C1022.61893,3166.86284 1022.619,3166.89829 1022.61907,3166.93517 L1022.61999,3167.44521 C1022.62007,3167.49329 1022.62016,3167.54274 1022.62025,3167.59357 L1022.62079,3167.91491 C1022.62088,3167.97118 1022.62098,3168.0288 1022.62107,3168.08776 L1022.62197,3168.65435 C1022.62207,3168.72126 1022.62217,3168.78949 1022.62227,3168.85902 L1022.6229,3169.29172 C1022.623,3169.36641 1022.62311,3169.44238 1022.62321,3169.51962 L1022.62385,3169.99826 C1022.62395,3170.08055 1022.62406,3170.16409 1022.62416,3170.24887 L1022.62479,3170.77238 C1022.62489,3170.86208 1022.625,3170.95301 1022.6251,3171.04515 L1022.626,3171.90686 C1022.6261,3172.00618 1022.62619,3172.10668 1022.62629,3172.20836 L1022.62684,3172.83238 C1022.62693,3172.9387 1022.62702,3173.04618 1022.6271,3173.15479 L1022.62783,3174.1629 C1022.6279,3174.27828 1022.62797,3174.39477 1022.62804,3174.51236 L1022.62891,3176.3577 C1022.62895,3176.48607 1022.629,3176.61549 1022.62903,3176.74595 L1022.6291,3180.96279 C1023.08832,3181.17518 1023.54979,3181.38311 1024,3181.62234 L1024,3181.62234 L1023.11984,3183.27234 C1022.95776,3183.18738 1022.78893,3183.11807 1022.62685,3183.03758 C1022.60659,3217.99831 1022.34547,3296.82038 1020.41856,3314.31304 C1018.54118,3331.31383 1016.62328,3334.47298 1015.43247,3335.05651 C1015.82415,3348.02845 1020.10792,3489.53255 1020.10792,3500.17929 C1020.10792,3512.42237 1016.45895,3518.64004 1009.25781,3518.64004 C1009.0102,3518.64004 1008.74457,3518.60874 1008.48795,3518.59085 C1008.34838,3518.72947 1008.19981,3518.86138 1008.06475,3519 L1008.06475,3519 L1007.57402,3518.52825 L1006.19187,3518.38516 C998.234375,3517.58923 994.434587,3516.2433 995.017611,3494.54515 C995.190943,3488.08378 995.627648,3473.13542 996.1634,3454.84011 C996.507812,3443.08835 996.89598,3429.83457 997.281298,3416.52947 L997.373695,3413.336 C997.389078,3412.80384 997.40445,3412.27178 997.419808,3411.73992 L997.511774,3408.55185 C998.582254,3371.40257 999.557323,3336.12566 999.41393,3334.56688 C999.229343,3333.09127 995.260726,3328.91932 992.503178,3326.42868 L992.503178,3326.42868 L992.212791,3326.16485 L992.194783,3325.77583 L992.194783,3325.77583 L992.191017,3325.67994 C992.110399,3323.64221 990.803849,3290.792 990.247601,3257.47584 L990.20581,3254.87937 C990.0785,3246.65757 990,3238.4554 990,3230.72879 C990,3191.62741 998.504502,3176.90039 1005.91049,3168.438 C1008.45418,3165.53374 1011.80601,3164 1015.6058,3164 Z M1014.56806,3507.32705 C1012.29899,3509.88477 1009.52569,3512.10265 1006.79966,3514.24005 C1005.92399,3514.92196 1005.08435,3515.59939 1004.25596,3516.27683 C1004.92452,3516.37297 1005.62685,3516.44675 1006.38096,3516.52053 C1006.83117,3516.56972 1007.30164,3516.61667 1007.77887,3516.67033 C1008.46994,3516.01748 1009.17677,3515.37135 1009.88361,3514.74086 C1011.75649,3513.07968 1013.6879,3511.35814 1015.03853,3509.44879 L1015.03853,3509.44879 L1015.15559,3509.52928 C1014.93724,3508.87867 1014.74139,3508.14087 1014.56806,3507.32705 Z M1015.94796,3511.31566 C1014.55456,3513.06403 1012.83249,3514.62683 1011.13745,3516.13151 C1010.94611,3516.3059 1010.75927,3516.47582 1010.56793,3516.64797 C1013.14764,3516.24106 1015.0723,3514.64248 1016.3464,3511.85448 C1016.20683,3511.69798 1016.07627,3511.52135 1015.94796,3511.31566 Z M1001.23504,3340.12053 C1000.91989,3356.16441 999.553496,3403.39282 998.045286,3454.89377 C997.509534,3473.18908 997.072828,3488.13073 996.899497,3494.59657 C996.791446,3498.62319 996.831965,3501.87624 997.009799,3504.52563 C997.615334,3505.48924 999.047007,3507.12583 1000.07124,3506.92908 C1000.80508,3506.78375 1002.6352,3505.52054 1003.808,3496.93742 L1003.808,3496.93742 L1005.67413,3497.19007 C1005.35222,3499.53092 1004.95829,3501.45815 1004.50132,3503.07014 C1004.91102,3502.76608 1005.32296,3502.46872 1005.73941,3502.17807 C1006.44399,3501.68843 1007.14182,3501.20104 1007.74285,3500.69352 C1008.49695,3500.05185 1009.16777,3499.27157 1009.81833,3498.52258 C1010.41035,3497.83173 1011.02264,3497.12299 1011.70697,3496.50368 L1011.70697,3496.50368 L1012.97431,3497.88539 C1012.37553,3498.42645 1011.82627,3499.06364 1011.2455,3499.73437 C1010.54992,3500.54372 1009.83183,3501.37543 1008.96517,3502.11547 C1008.32137,3502.66099 1007.57852,3503.17969 1006.82442,3503.70733 C1005.54356,3504.60611 1004.21769,3505.53172 1003.44783,3506.59818 L1003.44783,3506.59818 L1003.17995,3506.40591 C1002.40784,3507.75631 1001.50291,3508.55448 1000.43591,3508.76465 C1000.24457,3508.79818 1000.05548,3508.8183 999.870895,3508.8183 C998.923199,3508.8183 998.065546,3508.35997 997.349709,3507.7742 C998.182601,3513.51789 1000.02622,3515.29086 1002.81753,3515.99736 L1002.81753,3515.99736 L1002.3223,3515.41606 C1003.37805,3514.5374 1004.49682,3513.66098 1005.63136,3512.77115 C1008.7063,3510.36099 1011.87129,3507.8681 1014.14261,3504.94372 C1014.05257,3504.32664 1013.96928,3503.68721 1013.89499,3503.02319 C1013.19717,3504.2305 1011.7745,3505.22766 1010.45087,3506.11079 C1009.94889,3506.44615 1009.47842,3506.75916 1009.116,3507.04981 C1006.05681,3509.49351 1002.97285,3511.9618 1000.38414,3514.57541 L1000.38414,3514.57541 L999.040254,3513.26525 C1001.71001,3510.56891 1004.83673,3508.07156 1007.85765,3505.65469 C1008.33488,3505.27461 1008.85037,3504.92806 1009.39738,3504.56363 C1010.56568,3503.78559 1012.16168,3502.71689 1012.43406,3501.83823 L1012.43406,3501.83823 L1013.81396,3502.26303 C1013.52357,3499.40795 1013.36149,3496.2108 1013.28721,3493.00023 C1012.72669,3493.70003 1011.81952,3494.54739 1010.78178,3495.50653 C1009.69452,3496.51263 1007.66631,3498.3862 1007.55151,3498.9988 L1007.55151,3498.9988 L1005.77542,3499.51079 C1005.23292,3498.17157 1006.75914,3496.6736 1009.50093,3494.13824 C1010.53867,3493.17909 1011.71372,3492.09475 1012.01986,3491.56263 L1012.01986,3491.56263 L1013.27145,3492.27808 C1013.24669,3491.0104 1013.23318,3489.74719 1013.22868,3488.5041 C1012.57137,3489.11447 1011.84653,3489.73824 1011.09468,3490.37544 C1009.24431,3491.94719 1007.33091,3493.57483 1006.18737,3495.25836 L1006.18737,3495.25836 L1004.62513,3494.21649 C1005.91049,3492.31832 1007.92293,3490.60796 1009.8701,3488.95796 C1010.69174,3488.25817 1011.49086,3487.58073 1012.18869,3486.92565 L1012.18869,3486.92565 L1013.23093,3488.01447 C1013.23093,3487.07991 1013.23543,3486.16325 1013.24444,3485.26894 C1012.57362,3485.61325 1011.96133,3486.06264 1011.33104,3486.57016 C1010.86282,3486.94353 1010.3901,3487.32361 1009.8791,3487.66345 C1009.30959,3488.04353 1008.65678,3488.35207 1008.02198,3488.64272 C1007.08779,3489.08093 1006.12209,3489.52808 1005.66512,3490.13398 L1005.66512,3490.13398 L1004.15916,3489.00938 C1004.89976,3488.03459 1006.07932,3487.48459 1007.22285,3486.95471 C1007.79012,3486.68642 1008.35964,3486.42707 1008.83236,3486.11183 C1009.29608,3485.80553 1009.72153,3485.46122 1010.14473,3485.11914 C1010.98888,3484.43723 1011.85779,3483.7352 1012.98332,3483.28805 L1012.98332,3483.28805 L1013.26245,3483.9789 C1013.28046,3482.76711 1013.30522,3481.61122 1013.33448,3480.53358 C1009.95789,3483.05329 1006.55654,3485.42768 1004.48782,3485.57971 L1004.48782,3485.57971 L1004.346,3483.71732 C1006.14235,3483.58541 1010.71875,3480.15574 1012.67492,3478.68907 L1012.67492,3478.68907 L1013.2647,3478.24639 L1013.39751,3478.42301 C1013.41327,3477.91549 1013.43128,3477.42139 1013.44928,3476.96976 C1012.15493,3477.81712 1010.62195,3478.42525 1009.10699,3478.99984 C1007.82614,3479.49395 1006.61282,3479.95004 1005.64486,3480.53582 L1005.64486,3480.53582 L1004.6724,3478.93277 C1005.78443,3478.26651 1007.12831,3477.75452 1008.43167,3477.25818 C1008.54833,3477.21359 1008.66522,3477.16893 1008.78213,3477.1241 L1009.48245,3476.85218 C1011.11015,3476.20912 1012.6679,3475.4931 1013.62262,3474.4344 L1013.62262,3474.4344 L1014.5478,3475.2594 L1015.4032,3475.29741 C1015.3878,3475.64527 1015.37306,3475.99401 1015.359,3476.34344 L1015.31881,3477.39361 C1015.29336,3478.09485 1015.27061,3478.7981 1015.25056,3479.50186 L1015.22253,3480.5577 L1015.22253,3480.5577 L1015.19858,3481.61318 L1015.19858,3481.61318 L1015.17873,3482.66718 C1014.97401,3494.7754 1015.58473,3506.36752 1017.11176,3509.75956 C1017.85011,3507.23985 1018.22603,3504.05611 1018.22603,3500.17929 C1018.22603,3494.78429 1017.12054,3455.62812 1015.98168,3416.70293 L1015.85958,3412.53481 C1015.00466,3383.38581 1014.15252,3355.04961 1013.75543,3341.86667 C1012.42956,3343.43171 1010.90784,3344.288 1009.19928,3344.39085 C1009.08448,3344.39756 1008.97193,3344.39979 1008.85938,3344.39979 C1005.78443,3344.39979 1002.94584,3341.9628 1001.23504,3340.12053 Z M999.586586,3496.48826 C999.665373,3496.55309 999.980522,3496.70736 1000.35645,3496.76549 L1000.35645,3496.76549 L1000.06831,3498.61 C999.550569,3498.53175 998.83023,3498.3037 998.36201,3497.90574 L998.36201,3497.90574 Z M999.825874,3493.28037 C999.936176,3493.36757 1000.26033,3493.5196 1000.58448,3493.56208 L1000.58448,3493.56208 L1000.33461,3495.41777 C999.706568,3495.32834 999.035752,3495.05781 998.619306,3494.71797 L998.619306,3494.71797 Z M998.814923,3488.65278 C999.515003,3488.52981 1000.52573,3488.57006 1001.23706,3489.0418 L1001.23706,3489.0418 L1000.17681,3490.58896 C1000.06651,3490.5107 999.641062,3490.40339 999.134574,3490.49282 L999.134574,3490.49282 Z M999.381065,3484.22886 C999.720975,3484.55528 1000.28374,3484.74532 1000.89603,3484.70508 L1000.89603,3484.70508 L1001.01308,3486.56971 C1000.92529,3486.57418 1000.83525,3486.57866 1000.74746,3486.57866 C999.723226,3486.57866 998.739513,3486.20975 998.073199,3485.57256 L998.073199,3485.57256 Z M998.709123,3480.52039 C999.008514,3480.53828 999.35968,3480.58746 999.753615,3480.67019 C1000.08452,3480.73726 1000.6833,3480.8647 1000.88815,3480.81998 L1000.88815,3480.81998 L1001.52745,3482.57953 C1001.29559,3482.66673 1001.03897,3482.69356 1000.7756,3482.69356 C1000.30963,3482.69356 999.818896,3482.59295 999.366433,3482.49905 C999.157084,3482.45657 998.844187,3482.38949 998.74514,3482.38949 L998.74514,3482.38949 Z M999.929423,3475.67682 C1000.17254,3475.94287 1000.53721,3475.95405 1001.01668,3475.70588 L1001.01668,3475.70588 L1001.88559,3477.36482 C1001.38136,3477.62417 1000.87487,3477.75161 1000.39089,3477.75161 C999.6683,3477.75161 999.006488,3477.4632 998.513506,3476.90426 L998.513506,3476.90426 Z M1013.44951,3470.42522 L1014.7011,3471.82034 C1012.95653,3473.36973 1010.85179,3473.89513 1008.82133,3474.40712 C1007.4887,3474.74249 1006.23261,3475.05997 1005.09583,3475.64127 L1005.09583,3475.64127 L1004.23367,3473.98233 C1005.5618,3473.30042 1006.98222,3472.94046 1008.35986,3472.59615 C1010.25526,3472.1177 1012.0471,3471.67054 1013.44951,3470.42522 L1013.44951,3470.42522 Z M999.448146,3470.80932 C1000.02442,3471.14022 1000.6322,3471.34591 1001.31653,3471.42863 L1001.31653,3471.42863 L1001.08692,3473.28208 C1000.15948,3473.1703 999.292823,3472.87741 998.502701,3472.42579 L998.502701,3472.42579 Z M1013.31647,3465.65498 L1014.83594,3466.75498 C1013.55734,3468.49888 1007.80138,3471.07225 1005.23292,3471.07225 L1005.23292,3471.07225 L1005.13387,3471.07225 L1005.18565,3469.20315 C1007.05403,3469.22774 1012.37553,3466.93384 1013.31647,3465.65498 L1013.31647,3465.65498 Z M999.771849,3466.69171 C999.850636,3466.81915 999.985699,3466.97341 1000.19055,3467.01813 C1000.34137,3467.05167 1000.5192,3467.00919 1000.68128,3466.90634 L1000.68128,3466.90634 L1001.72352,3468.45796 C1001.28906,3468.74414 1000.79608,3468.89841 1000.3031,3468.89841 C1000.13427,3468.89841 999.96544,3468.88276 999.79661,3468.84699 C999.13705,3468.70837 998.567532,3468.29699 998.18035,3467.6911 L998.18035,3467.6911 Z M1012.59568,3461.85752 L1013.07516,3463.66403 C1010.32436,3464.38842 1007.30569,3465.49959 1004.57741,3466.79858 L1004.57741,3466.79858 L1003.76253,3465.11281 C1006.59436,3463.76687 1009.73234,3462.60651 1012.59568,3461.85752 L1012.59568,3461.85752 Z M1000.28779,3461.53311 C1000.45437,3461.62925 1001.08242,3461.73657 1001.41107,3461.62925 L1001.41107,3461.62925 L1001.98959,3463.40669 C1001.71046,3463.49388 1001.37956,3463.53636 1001.0464,3463.53636 C1000.3103,3463.53636 999.533686,3463.33962 999.114989,3462.98636 L999.114989,3462.98636 Z M1010.92607,3457.3994 L1012.76744,3457.79066 C1012.33974,3459.78497 1009.0712,3460.93862 1005.60457,3461.88659 L1005.60457,3461.88659 L1004.90899,3460.14045 L1005.10708,3460.0868 C1009.95136,3458.75875 1010.83153,3457.83537 1010.92607,3457.3994 L1010.92607,3457.3994 Z M1000.6878,3456.79306 C1000.91291,3456.92497 1001.05023,3456.92497 1001.06148,3456.91379 L1001.06148,3456.91379 L1002.34684,3458.27537 C1001.98892,3458.61074 1001.53195,3458.78289 1001.04347,3458.78289 C1000.62252,3458.78289 1000.17231,3458.65546 999.735606,3458.40281 L999.735606,3458.40281 Z M1010.81149,3452.16859 L1012.38498,3453.19034 C1011.15591,3455.05944 1006.59301,3456.51269 1004.68861,3456.56412 L1004.68861,3456.56412 L1004.64134,3454.69501 C1006.40617,3454.6503 1010.0889,3453.26188 1010.81149,3452.16859 L1010.81149,3452.16859 Z M1000.60159,3450.76699 C1001.30617,3450.69321 1001.97474,3450.79605 1002.60053,3451.09565 L1002.60053,3451.09565 L1001.7879,3452.78142 C1001.4795,3452.63609 1001.15535,3452.57349 1000.81319,3452.62491 L1000.81319,3452.62491 Z M1010.75432,3448.01923 L1011.94963,3449.4613 C1010.22757,3450.87431 1007.09184,3452.25601 1004.81152,3452.61597 L1004.81152,3452.61597 L1004.51663,3450.77146 C1006.44804,3450.46516 1009.30463,3449.20419 1010.75432,3448.01923 L1010.75432,3448.01923 Z M1010.9936,3443.59598 L1012.20467,3445.02687 C1010.91707,3446.10228 1009.2828,3446.66346 1007.70256,3447.20004 C1006.88317,3447.48175 1006.06153,3447.75898 1005.31418,3448.11 L1005.31418,3448.11 L1004.5083,3446.41976 C1005.33219,3446.03073 1006.22811,3445.72891 1007.09252,3445.43378 C1008.57597,3444.92626 1009.97387,3444.44781 1010.9936,3443.59598 L1010.9936,3443.59598 Z M1011.13002,3437.56231 L1012.56169,3438.7741 C1011.36188,3440.17145 1009.51826,3440.77287 1007.73767,3441.35865 C1006.71794,3441.69401 1005.75674,3442.00478 1004.98463,3442.44299 L1004.98463,3442.44299 L1003.99416,3440.8556 C1004.03243,3440.74604 1004.09096,3440.64767 1004.16524,3440.55153 L1004.16524,3440.55153 L1004.32507,3440.67003 C1005.19848,3440.22287 1006.18894,3439.89869 1007.14564,3439.58121 C1008.7529,3439.0558 1010.27236,3438.55946 1011.13002,3437.56231 L1011.13002,3437.56231 Z M1010.29082,3433.76128 L1011.91609,3434.70477 C1011.03142,3436.20721 1008.72859,3436.85111 1006.88272,3437.36757 C1006.32671,3437.52184 1005.84273,3437.65375 1005.54334,3437.78566 L1005.54334,3437.78566 L1004.77348,3436.08201 C1005.13365,3435.92327 1005.70542,3435.75558 1006.36948,3435.57001 C1007.65033,3435.21006 1009.79109,3434.6131 1010.29082,3433.76128 L1010.29082,3433.76128 Z M1010.96141,3428.62594 L1012.23551,3429.9987 C1010.53822,3431.5548 1007.44976,3432.61679 1005.30225,3432.94097 L1005.30225,3432.94097 L1005.01637,3431.09199 C1006.90726,3430.80581 1009.62879,3429.8422 1010.96141,3428.62594 L1010.96141,3428.62594 Z M1010.47744,3425.1681 L1011.72903,3426.56098 C1010.57648,3427.5872 1008.79364,3427.97175 1007.35747,3428.28029 C1006.71817,3428.41667 1006.11488,3428.54187 1005.79298,3428.68943 L1005.79298,3428.68943 L1005.02312,3426.98578 C1005.52511,3426.75996 1006.18917,3426.61464 1006.95903,3426.45143 C1008.17685,3426.18984 1009.69407,3425.86566 1010.47744,3425.1681 L1010.47744,3425.1681 Z M1011.28512,3420.46717 L1012.90138,3421.42631 C1011.73758,3423.35802 1009.15336,3423.9572 1007.07564,3424.44013 C1006.56239,3424.5631 1006.08292,3424.66818 1005.68673,3424.79562 L1005.68673,3424.79562 L1005.12847,3423.00924 C1005.56292,3422.87285 1006.08517,3422.74989 1006.65019,3422.61798 C1008.379,3422.22001 1010.53101,3421.7192 1011.28512,3420.46717 L1011.28512,3420.46717 Z M1010.58459,3415.99026 L1011.62233,3417.54636 C1010.38874,3418.36241 1007.58843,3419.6994 1005.77182,3419.6994 C1005.57823,3419.6994 1005.39364,3419.68375 1005.22707,3419.65022 L1005.22707,3419.65022 L1005.58498,3417.81465 C1006.51242,3417.99127 1009.15291,3416.92928 1010.58459,3415.99026 L1010.58459,3415.99026 Z M1011.17774,3411.93144 L1012.51487,3413.24608 C1011.21151,3414.56071 1009.4917,3415.05481 1007.97223,3415.49526 C1007.26765,3415.69872 1006.59909,3415.88652 1006.04983,3416.1414 L1006.04983,3416.1414 L1005.25971,3414.44221 C1005.94178,3414.12921 1006.70489,3413.91234 1007.44548,3413.6977 C1008.80738,3413.30197 1010.21204,3412.89953 1011.17774,3411.93144 L1011.17774,3411.93144 Z M1009.72041,3407.96496 L1010.99901,3409.33773 C1009.8127,3410.43102 1007.72372,3410.81557 1006.0917,3410.81557 L1006.0917,3410.81557 L1005.8846,3410.81557 L1005.92512,3408.94647 C1007.26,3409.02472 1008.95054,3408.68041 1009.72041,3407.96496 L1009.72041,3407.96496 Z M1010.1821,3403.81784 L1011.53048,3405.12129 C1010.4995,3406.17881 1009.1331,3406.30848 1007.93104,3406.42698 C1007.48308,3406.47169 1007.03737,3406.5097 1006.62092,3406.60584 L1006.62092,3406.60584 L1006.17746,3404.79263 C1006.67495,3404.67413 1007.2107,3404.61377 1007.7487,3404.56235 C1008.75718,3404.46397 1009.63059,3404.38125 1010.1821,3403.81784 L1010.1821,3403.81784 Z M1009.78411,3399.66556 L1010.45267,3401.41394 C1009.16282,3401.89463 1006.99955,3402.43568 1005.309,3402.6928 L1005.309,3402.6928 L1005.02537,3400.84381 C1006.60336,3400.60459 1008.60456,3400.10825 1009.78411,3399.66556 L1009.78411,3399.66556 Z M1010.36623,3396.19498 L1010.86147,3397.99701 C1009.0111,3398.49782 1007.21025,3398.83766 1005.5062,3399.00758 L1005.5062,3399.00758 L1005.32161,3397.14965 C1006.91761,3396.98868 1008.61716,3396.66673 1010.36623,3396.19498 L1010.36623,3396.19498 Z M1010.52741,3392.03958 L1011.19372,3393.78571 C1009.3456,3394.48104 1007.42545,3395.0914 1005.64711,3395.53856 L1005.64711,3395.53856 L1005.18114,3393.72758 C1006.8942,3393.29384 1008.74457,3392.71031 1010.52741,3392.03958 L1010.52741,3392.03958 Z M1010.45875,3388.3785 L1011.26463,3390.06651 C1009.95001,3390.68582 1007.99609,3391.39679 1005.97914,3391.39679 C1005.85984,3391.39679 1005.74053,3391.39232 1005.62123,3391.38561 L1005.62123,3391.38561 L1005.70452,3389.51651 C1007.07316,3389.59476 1008.76596,3389.1722 1010.45875,3388.3785 L1010.45875,3388.3785 Z M1010.38897,3384.72861 L1011.33441,3386.34507 C1009.79019,3387.23491 1006.67022,3387.67088 1005.68651,3387.69771 L1005.68651,3387.69771 L1005.63698,3385.82861 C1006.54641,3385.80849 1009.28145,3385.3658 1010.38897,3384.72861 L1010.38897,3384.72861 Z M1010.29262,3381.12991 L1011.92239,3382.06447 C1010.9792,3383.69211 1008.08884,3384.07666 1005.9976,3384.22646 L1005.9976,3384.22646 L1005.47086,3382.40654 C1005.51363,3382.3976 1005.65094,3382.38195 1005.86254,3382.36182 C1009.45973,3382.10471 1010.16206,3381.35573 1010.29262,3381.12991 L1010.29262,3381.12991 Z M1010.04118,3377.65687 L1011.18472,3379.14589 C1010.01642,3380.02679 1007.88692,3380.35768 1006.54303,3380.35768 C1006.23239,3380.35768 1005.96451,3380.34203 1005.75967,3380.31073 L1005.75967,3380.31073 L1006.05906,3378.46398 C1006.77039,3378.58024 1009.13175,3378.34772 1010.04118,3377.65687 L1010.04118,3377.65687 Z M1010.52741,3373.73332 L1011.69121,3375.20222 C1010.35408,3376.23961 1008.69505,3376.38941 1007.23186,3376.52803 C1006.90771,3376.55709 1006.58581,3376.58392 1006.27291,3376.62417 L1006.27291,3376.62417 L1006.0388,3374.77071 C1006.3697,3374.726 1006.71412,3374.69693 1007.05853,3374.6634 C1008.38215,3374.54043 1009.63149,3374.43088 1010.52741,3373.73332 L1010.52741,3373.73332 Z M1010.5542,3368.79159 L1011.66172,3370.30074 C1010.70277,3370.9983 1009.52096,3371.32472 1008.47647,3371.61537 C1007.58505,3371.86354 1006.74315,3372.0983 1006.25017,3372.49403 L1006.25017,3372.49403 L1005.07287,3371.03184 C1005.86749,3370.39911 1006.93449,3370.10176 1007.96998,3369.81334 C1008.90192,3369.55623 1009.86988,3369.29017 1010.5542,3368.79159 L1010.5542,3368.79159 Z M1010.09093,3365.57186 L1011.63291,3366.63609 C1010.6717,3368.00885 1008.77181,3368.30621 1007.29736,3368.30621 C1006.9417,3368.30621 1006.61304,3368.28832 1006.32716,3368.2682 L1006.32716,3368.2682 L1006.48248,3366.40357 C1008.2158,3366.55784 1009.63171,3366.22247 1010.09093,3365.57186 L1010.09093,3365.57186 Z M1010.11412,3361.3561 L1011.60882,3362.49187 C1010.71965,3363.64776 1009.00659,3363.85345 1007.75275,3364.00772 C1007.71533,3364.01219 1007.67615,3364.01684 1007.63601,3364.02163 L1007.39006,3364.05197 C1007.18619,3364.07839 1006.99837,3364.10721 1006.92662,3364.13516 C1006.98739,3364.11504 1007.16748,3364.00325 1007.26878,3363.76625 L1007.26878,3363.76625 L1005.53996,3363.03516 C1005.8281,3362.35772 1006.53943,3362.27052 1007.52765,3362.14979 C1008.34253,3362.05142 1009.70442,3361.88597 1010.11412,3361.3561 L1010.11412,3361.3561 Z M1009.85907,3358.16901 L1011.36728,3359.28242 C1010.60642,3360.29969 1009.48539,3360.43608 1008.58722,3360.54339 C1008.04697,3360.60599 1007.54048,3360.67083 1007.27485,3360.90335 L1007.27485,3360.90335 L1006.03002,3359.50152 C1006.7346,3358.88445 1007.59676,3358.78161 1008.35986,3358.68994 L1008.55922,3358.66465 C1009.20087,3358.58068 1009.61555,3358.49218 1009.85907,3358.16901 L1009.85907,3358.16901 Z M1005.76147,3356.21181 C1006.16666,3355.03356 1007.81443,3355.00003 1010.5112,3355.0671 C1010.8331,3355.07604 1011.12349,3355.08722 1011.35535,3355.08722 L1011.35535,3355.08722 L1011.35535,3356.95632 C1011.10773,3356.95632 1010.80159,3356.94514 1010.46168,3356.9362 C1009.65355,3356.91608 1007.76041,3356.86466 1007.34171,3357.08823 C1007.37773,3357.06811 1007.48578,3356.98092 1007.5398,3356.81547 L1007.5398,3356.81547 Z M1010.37749,3351.5281 L1011.34319,3353.13562 C1009.92953,3353.97179 1008.09266,3354.26021 1006.77805,3354.26021 C1006.62948,3354.26021 1006.48766,3354.25574 1006.35485,3354.24903 L1006.35485,3354.24903 L1006.45389,3352.37993 C1007.55016,3352.43359 1009.25421,3352.19659 1010.37749,3351.5281 L1010.37749,3351.5281 Z M1010.05626,3348.24934 L1010.6753,3350.01784 C1010.28362,3350.14975 1009.73436,3350.27942 1009.16935,3350.4091 C1008.57957,3350.54324 1007.59811,3350.76905 1007.364,3350.93003 C1007.40001,3350.90544 1007.49456,3350.81153 1007.54858,3350.64832 L1007.54858,3350.64832 L1005.75449,3350.07597 C1006.03587,3349.21072 1007.17266,3348.9469 1008.7439,3348.58694 C1009.23913,3348.47515 1009.7186,3348.36784 1010.05626,3348.24934 L1010.05626,3348.24934 Z M1008.76708,3345.31981 L1009.49192,3347.04583 C1008.91115,3347.28505 1008.24484,3347.41026 1007.56727,3347.41026 C1007.29714,3347.41026 1007.03151,3347.39014 1006.76139,3347.35213 L1006.76139,3347.35213 L1007.03602,3345.50315 C1007.6438,3345.59481 1008.27635,3345.5255 1008.76708,3345.31981 L1008.76708,3345.31981 Z M1013.61361,3337.24757 C1012.99232,3338.15529 1012.25622,3338.99594 1011.51337,3339.81199 C1010.71425,3340.69959 1009.95339,3341.55366 1009.36811,3342.45915 C1010.96637,3342.23557 1012.40479,3340.99695 1013.63162,3338.69187 L1013.63162,3338.69187 L1013.65863,3338.70752 C1013.64288,3338.18212 1013.62712,3337.68801 1013.61361,3337.24757 Z M1012.68167,3335.12135 L1010.68273,3335.16606 C1010.10421,3335.99777 1009.38612,3336.77358 1008.66803,3337.51809 C1007.5335,3338.6874 1006.462,3339.79187 1006.05681,3341.05732 L1006.05681,3341.05732 L1004.33475,3340.50955 C1005.23292,3341.25854 1006.2594,3341.92256 1007.32415,3342.27134 C1008.03999,3340.89187 1009.08448,3339.70468 1010.11547,3338.56443 C1011.1532,3337.41972 1012.11441,3336.32196 1012.68167,3335.12135 L1012.68167,3335.12135 Z M1008.25384,3335.21749 L1006.25715,3335.2622 L1006.52953,3335.56403 C1005.95551,3336.06932 1005.45577,3336.64838 1004.92903,3337.26322 C1004.49457,3337.76403 1004.06237,3338.26484 1003.5919,3338.72765 L1003.5919,3338.72765 L1002.26827,3337.39736 C1002.70048,3336.97257 1003.09891,3336.512 1003.49735,3336.04919 C1003.70895,3335.80326 1003.9273,3335.55732 1004.15016,3335.31139 L1004.15016,3335.31139 L1001.30257,3335.37399 C1001.30032,3335.84797 1001.29356,3336.48517 1001.28456,3337.26322 C1001.68075,3337.79309 1002.79952,3339.21951 1004.27397,3340.45813 C1004.81872,3338.79695 1006.08382,3337.48679 1007.31065,3336.22135 C1007.6438,3335.87927 1007.95445,3335.54838 1008.25384,3335.21749 L1008.25384,3335.21749 Z M1015.6058,3165.8691 C1012.3215,3165.8691 1009.53919,3167.14573 1007.33316,3169.66544 C1002.70723,3174.94633 991.881886,3187.31237 991.881886,3230.72879 C991.881886,3238.49004 991.961213,3246.73207 992.089703,3254.99172 L992.129695,3257.46968 C992.136596,3257.8826 992.143613,3258.29546 992.150741,3258.70819 L992.194818,3261.18252 C992.74665,3291.25673 993.852992,3320.02304 994.047046,3324.9592 L994.060911,3325.31079 C995.553363,3326.68132 999.927172,3330.84879 1001.01894,3333.50936 L1001.01894,3333.50936 L1013.49206,3333.23436 L1013.44478,3331.60448 L1014.84044,3333.16281 C1015.25463,3332.48314 1016.88215,3329.16973 1018.54343,3314.10958 C1019.58639,3304.67602 1020.14005,3277.23892 1020.43157,3248.52007 L1020.45736,3245.9062 L1020.45736,3245.9062 L1020.48174,3243.28805 C1020.48568,3242.8515 1020.48958,3242.41488 1020.49341,3241.97826 L1020.51575,3239.35894 C1020.61331,3227.57605 1020.67102,3215.87545 1020.70445,3205.40199 C1017.94465,3205.45788 1015.12858,3205.92292 1012.40254,3206.37678 C1010.11096,3206.75686 1007.74285,3207.15259 1005.37248,3207.31357 C1004.7647,3207.35605 1004.10964,3207.3471 1003.44558,3207.33816 C1002.23676,3207.32251 1000.99642,3207.30463 1000.02622,3207.62881 L1000.02622,3207.62881 L999.422934,3205.85808 C1000.70379,3205.43105 1002.1152,3205.45564 1003.47259,3205.46906 C1004.08488,3205.47577 1004.68141,3205.48471 1005.24417,3205.45117 C1007.52225,3205.29467 1009.84309,3204.90788 1012.08965,3204.53451 C1014.89672,3204.06723 1017.79833,3203.58654 1020.70895,3203.53065 C1020.72471,3198.38167 1020.73596,3193.56358 1020.74047,3189.2016 C1020.61891,3189.21054 1020.49735,3189.22395 1020.37579,3189.22395 C1019.19624,3189.22395 1018.14499,3188.79916 1017.20855,3188.41908 C1016.76735,3188.24022 1016.32614,3188.06135 1015.87368,3187.92944 C1015.27039,3187.75058 1014.57932,3187.64774 1013.87248,3187.54042 C1012.44531,3187.31908 1010.96637,3187.09327 1009.85434,3186.33087 L1009.85434,3186.33087 L1010.9236,3184.79266 C1011.67995,3185.31136 1012.94055,3185.50587 1014.16062,3185.69367 C1014.95299,3185.81441 1015.72961,3185.93737 1016.40493,3186.13412 C1016.92042,3186.28615 1017.42015,3186.48737 1017.91764,3186.68636 C1018.92161,3187.0955 1019.78151,3187.44652 1020.72696,3187.33473 L1020.72696,3187.33473 L1020.74272,3187.4644 C1020.74272,3186.68636 1020.74497,3185.92843 1020.74497,3185.18615 C1019.7455,3184.95587 1018.77304,3184.65628 1017.83885,3184.32538 C1017.16803,3184.09063 1016.49047,3183.8514 1015.79714,3183.65242 C1014.82018,3183.37071 1013.80945,3183.14043 1012.79423,3182.90567 C1010.53867,3182.38921 1008.20882,3181.85486 1006.18061,3180.77722 L1006.18061,3180.77722 L1007.06753,3179.13169 C1008.87513,3180.0886 1011.08117,3180.59612 1013.21517,3181.08575 C1014.26642,3181.32498 1015.31316,3181.56421 1016.31939,3181.85486 C1017.05098,3182.06726 1017.76457,3182.31543 1018.46915,3182.56583 C1019.24351,3182.84083 1019.99537,3183.08006 1020.74722,3183.27904 L1020.74722,3183.27904 L1020.74722,3182.17681 C1019.01615,3181.45913 1017.22431,3180.86218 1015.46398,3180.28758 C1013.00358,3179.48494 1010.45538,3178.65324 1008.08276,3177.46604 L1008.08276,3177.46604 L1008.92916,3175.79592 C1011.17346,3176.92051 1013.65413,3177.72986 1016.05376,3178.51238 C1017.60699,3179.0199 1019.18949,3179.54978 1020.74722,3180.16238 L1020.74722,3180.16238 L1020.74722,3178.28657 C1020.24748,3178.13007 1019.73199,3177.97356 1019.18724,3177.81259 C1016.14605,3176.90486 1012.69968,3175.87864 1010.59494,3174.00507 L1010.59494,3174.00507 L1011.85103,3172.61219 C1013.64288,3174.20629 1016.8754,3175.17214 1019.72974,3176.0195 C1020.07865,3176.12458 1020.41631,3176.22519 1020.74722,3176.32803 L1020.74722,3176.32803 L1020.74722,3174.86808 C1019.5429,3173.96259 1018.20127,3173.44836 1016.78085,3172.9319 C1015.77013,3172.56523 1014.72338,3172.18515 1013.70591,3171.64186 L1013.70591,3171.64186 L1014.59958,3169.9941 C1015.5,3170.47479 1016.43419,3170.81686 1017.42691,3171.17682 C1018.53218,3171.57926 1019.65546,3172.01076 1020.74497,3172.63007 L1020.74497,3172.63007 L1020.74497,3172.2254 L1020.54913,3172.27011 C1020.41631,3171.67316 1019.71623,3171.26849 1018.90585,3170.79898 C1018.20127,3170.39207 1017.47418,3169.96951 1016.96094,3169.31219 L1016.96094,3169.31219 L1018.44889,3168.16747 C1018.73477,3168.53638 1019.28178,3168.85162 1019.85355,3169.18475 C1020.13943,3169.3502 1020.44333,3169.538 1020.74272,3169.73922 C1020.74168,3169.1304 1020.74064,3168.59445 1020.73982,3168.13687 L1020.73909,3167.7056 C1020.73898,3167.63815 1020.73888,3167.57292 1020.73879,3167.50995 L1020.73822,3166.86402 C1019.8468,3166.51077 1017.89963,3165.8691 1015.6058,3165.8691 Z M1012.11103,3330.00747 L1012.42843,3331.84975 C1011.59104,3331.9906 1010.82117,3332.27231 1010.00854,3332.57414 C1009.53357,3332.74629 1009.06084,3332.92068 1008.57236,3333.07048 L1008.57236,3333.07048 L1008.02311,3331.28186 C1008.47557,3331.14548 1008.91678,3330.9845 1009.35573,3330.81906 C1010.21339,3330.50605 1011.1003,3330.18186 1012.11103,3330.00747 L1012.11103,3330.00747 Z M1012.98962,3326.68042 L1013.22148,3328.53388 C1010.77233,3328.83347 1008.04854,3329.64953 1005.12892,3330.95074 L1005.12892,3330.95074 L1004.35906,3329.24709 C1007.44751,3327.86762 1010.35138,3327.00237 1012.98962,3326.68042 L1012.98962,3326.68042 Z M1013.31872,3322.53888 L1013.73067,3324.36551 C1012.14142,3324.71876 1010.48914,3325.28664 1008.89539,3325.83441 C1006.63308,3326.61246 1004.29198,3327.41733 1001.92836,3327.70128 L1001.92836,3327.70128 L1001.70101,3325.84782 C1003.86653,3325.584 1006.11083,3324.81266 1008.28085,3324.06815 C1009.92413,3323.5025 1011.62593,3322.91896 1013.31872,3322.53888 L1013.31872,3322.53888 Z M1014.45483,3317.38476 L1015.10089,3319.13761 C1012.97589,3319.91118 1010.84864,3320.62887 1008.72139,3321.34878 C1007.53283,3321.74899 1006.34877,3322.14695 1005.16021,3322.55833 L1005.16021,3322.55833 L1004.77978,3322.68801 C1004.24628,3322.86687 1002.83261,3323.34085 1002.64127,3323.6874 L1002.64127,3323.6874 L1000.98675,3322.80203 C1001.527,3321.80712 1002.99919,3321.31301 1004.1765,3320.91504 L1004.1765,3320.91504 L1004.53892,3320.79208 C1005.73423,3320.38069 1006.92729,3319.98049 1008.1136,3319.57805 C1010.22959,3318.86484 1012.34334,3318.15163 1014.45483,3317.38476 L1014.45483,3317.38476 Z M1015.26229,3312.82581 L1015.96912,3314.55853 C1014.22005,3315.26056 1012.23912,3315.79714 1010.32797,3316.31361 C1007.08419,3317.19003 1003.73011,3318.09551 1001.32823,3319.84612 L1001.32823,3319.84612 L1000.21621,3318.33921 C1002.89947,3316.38291 1006.42463,3315.43048 1009.83498,3314.50934 C1011.7799,3313.98393 1013.61901,3313.48759 1015.26229,3312.82581 L1015.26229,3312.82581 Z M1014.20001,3306.30898 L1015.35706,3307.78459 C1013.63725,3309.11264 1011.37268,3309.88174 1009.18015,3310.62625 C1006.34832,3311.59211 1003.67181,3312.49983 1002.14334,3314.46954 L1002.14334,3314.46954 L1000.65314,3313.3293 C1002.37619,3311.10578 1005.11667,3310.04606 1007.85616,3309.10382 L1008.57011,3308.86 C1010.71312,3308.13337 1012.73007,3307.44699 1014.20001,3306.30898 L1014.20001,3306.30898 Z M1015.25081,3301.4084 L1015.9779,3303.13218 L1013.74485,3304.04884 C1009.41831,3305.81287 1004.94996,3307.63949 1001.30099,3310.10331 L1001.30099,3310.10331 L1000.24074,3308.55839 C1004.05404,3305.98502 1008.61694,3304.12262 1013.02901,3302.32059 L1013.02901,3302.32059 L1015.25081,3301.4084 Z M1016.2971,3298.23405 L1016.60775,3300.07856 L1016.17554,3300.14787 C1011.28849,3300.95722 1004.59384,3302.06393 1000.69951,3304.89441 L1000.69951,3304.89441 L999.587487,3303.38527 C1003.84424,3300.2932 1010.79326,3299.14401 1015.86715,3298.3056 L1015.86715,3298.3056 L1016.2971,3298.23405 Z M1015.73321,3293.07949 L1016.33424,3294.84798 C1012.72354,3296.06647 1009.02956,3296.97643 1005.45712,3297.85733 L1005.45712,3297.85733 L1002.49923,3298.57949 C1001.72937,3298.74269 1001.13734,3298.89249 1001.04955,3299.19655 L1001.04955,3299.19655 L999.237447,3298.69798 C999.635885,3297.2805 1001.11933,3296.96078 1002.10079,3296.75062 L1002.10079,3296.75062 L1005.00466,3296.04412 C1008.70315,3295.13192 1012.19454,3294.27115 1015.73321,3293.07949 L1015.73321,3293.07949 Z M1016.92492,3287.64165 L1017.23332,3289.48616 C1014.73464,3289.89977 1012.2112,3290.5325 1009.7688,3291.14286 C1008.16605,3291.54307 1006.56104,3291.94327 1004.94928,3292.29205 C1004.63864,3292.35912 1004.27622,3292.41502 1003.89579,3292.47538 C1002.95935,3292.62071 1001.67399,3292.81969 1001.30257,3293.29367 L1001.30257,3293.29367 L999.81687,3292.14225 C1000.64751,3291.08697 1002.221,3290.84327 1003.6054,3290.62864 C1003.94531,3290.57498 1004.26947,3290.52579 1004.55535,3290.46319 C1006.14235,3290.12112 1007.72484,3289.72762 1009.30734,3289.32965 C1011.788,3288.71035 1014.34971,3288.07091 1016.92492,3287.64165 L1016.92492,3287.64165 Z M1016.5087,3283.69574 L1016.81259,3285.54248 C1012.32398,3286.27134 1007.59901,3287.14553 1002.77949,3288.13598 C1002.45534,3288.20081 1002.08616,3288.25 1001.70348,3288.29919 C1000.83908,3288.41321 999.767572,3288.55183 999.380389,3288.9811 L999.380389,3288.9811 L997.977979,3287.73354 C998.831131,3286.79004 1000.22679,3286.60671 1001.46037,3286.44573 C1001.79578,3286.40325 1002.11768,3286.36301 1002.39906,3286.30488 C1007.24559,3285.30996 1011.99307,3284.43131 1016.5087,3283.69574 L1016.5087,3283.69574 Z M1016.10914,3279.54078 L1016.37476,3281.38976 C1014.31279,3281.68265 1012.26208,3282.03814 1010.20911,3282.39139 C1007.63165,3282.83631 1004.96639,3283.29464 1002.31014,3283.62553 C1002.07828,3283.6546 1001.84192,3283.67472 1001.60556,3283.69484 C1000.85371,3283.75521 1000.14012,3283.81334 999.809216,3284.19342 L999.809216,3284.19342 L998.386547,3282.96822 C999.22169,3282.01354 1000.45752,3281.91293 1001.44574,3281.83021 C1001.65734,3281.81232 1001.87119,3281.79667 1002.07603,3281.76984 C1004.68951,3281.44566 1007.33226,3280.98956 1009.88721,3280.54911 C1011.95818,3280.19363 1014.02691,3279.8359 1016.10914,3279.54078 L1016.10914,3279.54078 Z M1017.33709,3275.39097 L1017.65674,3277.23324 C1012.67965,3278.08284 1008.00645,3278.69767 1003.36702,3279.11576 C1003.05862,3279.14259 1002.71871,3279.1493 1002.37205,3279.15601 C1001.5324,3279.16942 1000.58245,3279.18731 1000.24705,3279.59869 L1000.24705,3279.59869 L998.783859,3278.42491 C999.670776,3277.33385 1001.15197,3277.30702 1002.33603,3277.2869 C1002.63767,3277.28243 1002.93031,3277.27796 1003.19819,3277.25337 C1007.78584,3276.83975 1012.41177,3276.23162 1017.33709,3275.39097 L1017.33709,3275.39097 Z M1016.96657,3270.24177 L1017.60812,3271.99908 C1014.84382,3272.994 1011.84315,3273.10355 1008.94154,3273.21087 C1005.74278,3273.32937 1002.71961,3273.44116 1000.12864,3274.66412 L1000.12864,3274.66412 L999.320511,3272.97612 C1002.26039,3271.58547 1005.62348,3271.46473 1008.87401,3271.344 C1011.63155,3271.24339 1014.4814,3271.13608 1016.96657,3270.24177 L1016.96657,3270.24177 Z M1017.27226,3265.64346 L1017.72247,3267.45891 C1013.33291,3268.52984 1009.55563,3269.13573 1005.83012,3269.36825 C1005.4587,3269.39508 1005.05351,3269.40626 1004.63256,3269.41744 C1003.38998,3269.45098 1001.98081,3269.49122 1001.18844,3269.88024 L1001.18844,3269.88024 L1000.35105,3268.20565 C1001.51709,3267.6333 1003.14236,3267.58858 1004.58079,3267.54834 C1004.97922,3267.53716 1005.35965,3267.52821 1005.71307,3267.50586 C1009.32377,3267.27781 1012.99525,3266.68757 1017.27226,3265.64346 L1017.27226,3265.64346 Z M1018.18484,3261.26806 L1018.48198,3263.11257 C1014.31752,3263.77883 1009.61055,3264.25728 1004.09771,3264.57253 L1004.09771,3264.57253 L1003.27157,3264.61277 C1001.82414,3264.67537 1000.77965,3264.72232 999.496544,3265.31927 L999.496544,3265.31927 L998.697418,3263.62903 C1000.32268,3262.87111 1001.65081,3262.81298 1003.18828,3262.74367 L1003.18828,3262.74367 L1003.98966,3262.70566 C1009.43947,3262.39489 1014.08116,3261.92314 1018.18484,3261.26806 L1018.18484,3261.26806 Z M1017.91494,3258.14201 L1017.91494,3260.01111 L1017.87217,3260.01111 C1015.45453,3260.01111 1012.81629,3260.18326 1010.26584,3260.35095 C1007.70413,3260.52087 1005.07715,3260.69302 1002.62574,3260.69302 C1001.82887,3260.69302 1001.05,3260.67513 1000.29815,3260.63042 L1000.29815,3260.63042 L1000.4062,3258.76579 C1003.34833,3258.93123 1006.80371,3258.70542 1010.13978,3258.48631 C1012.72174,3258.3164 1015.38925,3258.14201 1017.87217,3258.14201 L1017.87217,3258.14201 L1017.91494,3258.14201 Z M999.501271,3254.03177 C1000.56827,3253.03685 1002.19129,3253.27161 1003.4969,3253.46165 C1003.75802,3253.49965 1004.00339,3253.53543 1004.22174,3253.55555 C1007.52855,3253.86632 1011.08747,3254.02282 1015.40275,3253.98929 L1015.40275,3253.98929 L1015.40726,3255.85839 L1015.40726,3255.85839 L1014.70943,3255.85839 C1010.63501,3255.85839 1007.23141,3255.71754 1004.04616,3255.41571 C1003.79629,3255.39335 1003.51941,3255.35311 1003.22903,3255.31063 C1002.41864,3255.19437 1001.20082,3255.01551 1000.78663,3255.39782 L1000.78663,3255.39782 Z M1017.67385,3247.99429 L1018.15557,3249.80303 C1014.70245,3250.70628 1011.07374,3250.67051 1007.54408,3250.63921 C1005.07242,3250.61462 1002.74257,3250.59449 1000.4645,3250.86726 L1000.4645,3250.86726 L1000.23939,3249.01157 C1002.64127,3248.72316 1005.14895,3248.74775 1007.55984,3248.77011 C1010.97244,3248.80141 1014.46609,3248.83494 1017.67385,3247.99429 L1017.67385,3247.99429 Z M997.830085,3243.838 C1000.32426,3243.24328 1003.20787,3243.73962 1005.1933,3244.25609 L1005.1933,3244.25609 L1004.71157,3246.06482 C1002.93549,3245.59978 1000.37828,3245.14592 998.271292,3245.65568 L998.271292,3245.65568 Z M1007.95377,3243.66875 C1009.98198,3242.87729 1013.07268,3242.93095 1015.55335,3242.96672 C1016.1814,3242.9779 1016.77117,3242.98237 1017.27766,3242.98013 L1017.27766,3242.98013 L1017.29792,3244.84924 C1016.77117,3244.85818 1016.16339,3244.847 1015.52409,3244.83582 C1013.19874,3244.80005 1010.32189,3244.75086 1008.6426,3245.40818 L1008.6426,3245.40818 Z M1004.27757,3237.77593 C1009.03856,3237.72451 1013.80855,3237.75134 1018.5763,3237.7804 L1018.5763,3237.7804 L1020.01022,3237.78935 L1019.99897,3239.65845 L1018.56279,3239.64951 C1013.81081,3239.62491 1009.05207,3239.59585 1004.29783,3239.64504 L1004.29783,3239.64504 L1003.37489,3239.64056 C1003.27971,3239.64035 1003.16957,3239.63998 1003.04775,3239.63973 L1002.65049,3239.63964 C1001.44405,3239.6421 999.628703,3239.67442 999.205932,3239.91333 L999.205932,3239.91333 L998.141181,3238.37288 C998.983077,3237.78935 1000.91224,3237.76699 1003.38615,3237.7737 L1003.38615,3237.7737 Z M1000.43524,3232.79911 C1004.8293,3232.37208 1009.32017,3232.45704 1013.67146,3232.53529 C1015.29673,3232.56435 1016.91974,3232.59342 1018.54501,3232.59789 L1018.54501,3232.59789 L1018.54051,3234.46699 C1016.90399,3234.46252 1015.27197,3234.43346 1013.6332,3234.40216 C1009.34718,3234.32614 1004.90809,3234.24565 1000.61757,3234.65927 L1000.61757,3234.65927 L1000.60181,3234.505 L1000.51402,3234.79789 L999.555072,3234.14728 L999.901735,3233.03163 L1000.12909,3232.83041 Z M1018.92476,3226.81462 L1019.41549,3228.61889 C1016.36756,3229.43495 1013.09452,3229.44836 1009.92953,3229.46177 C1006.46065,3229.47519 1003.1831,3229.4886 1000.23197,3230.47234 L1000.23197,3230.47234 L999.635434,3228.70161 C1002.87021,3227.62174 1006.45614,3227.60609 1009.92278,3227.59267 C1012.96846,3227.57926 1016.11769,3227.56808 1018.92476,3226.81462 L1018.92476,3226.81462 Z M1017.65854,3222.87251 L1018.17403,3224.67231 C1015.87345,3225.31621 1013.27798,3225.30056 1010.75454,3225.28044 C1009.0685,3225.26926 1007.477,3225.25361 1006.0003,3225.43023 C1005.60187,3225.47719 1005.02109,3225.49507 1004.37054,3225.51296 C1003.38908,3225.53755 1001.09525,3225.59568 1000.69006,3225.98694 L1000.69006,3225.98694 L999.163837,3224.89812 C999.911189,3223.83837 1001.77282,3223.70869 1004.32101,3223.64385 C1004.90179,3223.6282 1005.41953,3223.61703 1005.7797,3223.57231 C1007.3757,3223.38451 1009.10001,3223.40016 1010.76805,3223.41133 C1013.15417,3223.42922 1015.62133,3223.44711 1017.65854,3222.87251 L1017.65854,3222.87251 Z M1018.952,3217.43848 L1018.96551,3219.30758 C1016.10666,3219.33217 1013.26132,3220.01855 1010.2494,3220.74518 C1007.18346,3221.48522 1004.02297,3222.24762 1000.82647,3222.24762 C1000.44154,3222.24762 1000.05436,3222.23644 999.664923,3222.21408 L999.664923,3222.21408 L999.784229,3220.34721 C1003.05502,3220.55067 1006.49914,3219.7279 1009.80595,3218.92973 C1012.7886,3218.20982 1015.8703,3217.4653 1018.952,3217.43848 L1018.952,3217.43848 Z M1018.59115,3213.08968 L1018.90855,3214.93195 C1011.65339,3216.17728 1005.1996,3216.81 999.725026,3216.81447 L999.725026,3216.81447 L999.725026,3214.94537 C1005.09155,3214.94313 1011.43954,3214.31712 1018.59115,3213.08968 L1018.59115,3213.08968 Z M1007.62017,3209.99739 L1008.13791,3211.79495 C1006.63195,3212.22645 1004.70505,3212.34271 1002.87268,3212.34271 C1001.6436,3212.34271 1000.4573,3212.28905 999.471332,3212.24657 L999.471332,3212.24657 L999.554621,3210.3797 C1001.73815,3210.47584 1005.38937,3210.63458 1007.62017,3209.99739 L1007.62017,3209.99739 Z M1018.00836,3208.30849 L1018.24021,3210.16194 L1017.58516,3210.23796 C1014.47869,3210.59121 1012.69811,3210.89304 1012.28616,3211.1345 L1012.28616,3211.1345 L1011.99578,3210.64934 L1010.79596,3210.07698 C1011.16063,3209.32353 1012.16235,3208.97251 1017.37356,3208.38227 L1017.37356,3208.38227 L1018.00836,3208.30849 Z M1020.16307,3199.82329 L1020.68532,3201.61862 C1017.93452,3202.41008 1014.90234,3202.54422 1011.96921,3202.67613 C1010.48126,3202.74321 1009.01132,3202.80804 1007.60441,3202.95784 L1007.60441,3202.95784 L1006.33706,3203.10093 C1004.65327,3203.29321 1002.9177,3203.48995 1001.2069,3203.52573 L1001.2069,3203.52573 L1001.16638,3201.65662 C1002.78939,3201.62309 1004.48669,3201.42858 1006.12096,3201.24301 L1006.12096,3201.24301 L1007.40407,3201.09992 C1008.84699,3200.94565 1010.3552,3200.87634 1011.88367,3200.80927 C1014.70875,3200.68406 1017.62613,3200.55439 1020.16307,3199.82329 L1020.16307,3199.82329 Z M1017.9881,3196.47523 L1018.25822,3198.32421 C1014.76908,3198.82279 1011.16739,3198.95917 1007.685,3199.08884 C1005.73558,3199.16262 1003.79292,3199.23417 1001.88177,3199.36831 L1001.88177,3199.36831 L1001.74895,3197.50592 C1003.68261,3197.3673 1005.64554,3197.29352 1007.61521,3197.22197 C1011.04583,3197.0923 1014.598,3196.95815 1017.9881,3196.47523 L1017.9881,3196.47523 Z M1019.79795,3192.51859 L1019.79795,3194.38769 C1018.66341,3194.38769 1017.52438,3194.44805 1016.38984,3194.50395 C1014.79159,3194.58667 1013.13706,3194.6761 1011.50955,3194.59114 C1010.80722,3194.56431 1009.88878,3194.62021 1008.90732,3194.68057 C1007.95963,3194.7387 1006.99617,3194.79907 1006.0935,3194.79907 C1004.84866,3194.79907 1003.71188,3194.68505 1002.87899,3194.30049 L1002.87899,3194.30049 L1003.67586,3192.60578 C1004.67983,3193.06858 1006.96241,3192.92997 1008.79027,3192.81594 C1009.84827,3192.75111 1010.84323,3192.69521 1011.60184,3192.72651 C1013.12581,3192.79582 1014.67003,3192.72204 1016.29305,3192.63708 C1017.4591,3192.57895 1018.6274,3192.51859 1019.79795,3192.51859 L1019.79795,3192.51859 Z M1005.33084,3187.40694 C1006.72199,3188.01507 1008.69392,3188.23194 1010.60282,3188.44211 C1011.67883,3188.5606 1012.74358,3188.68133 1013.70703,3188.86243 C1016.10891,3189.31853 1018.15062,3189.65836 1020.28688,3189.82158 L1020.28688,3189.82158 L1020.14056,3191.68621 C1017.91876,3191.51182 1015.81852,3191.16751 1013.35136,3190.698 C1012.43518,3190.52361 1011.42221,3190.41406 1010.39347,3190.30003 C1008.34726,3190.07422 1006.22676,3189.8417 1004.57223,3189.11731 L1004.57223,3189.11731 Z M1005.77497,3183.19453 C1006.22519,3183.58132 1006.93427,3183.86526 1007.82794,3184.01729 L1007.82794,3184.01729 L1007.50829,3185.85957 C1006.26345,3185.64717 1005.26398,3185.22461 1004.54364,3184.60754 L1004.54364,3184.60754 Z" id="Grand-couteau"></path>
        </g>
    </g>
</svg>