<?xml version="1.0" encoding="UTF-8"?>
<svg width="39px" height="310px" viewBox="0 0 39 310" version="1.1" xmlns="http://www.w3.org/2000/svg" xmlns:xlink="http://www.w3.org/1999/xlink">
    <title>644A0D63-4B09-4CBB-BBF5-15213E1B0008</title>
    <g id="Marque" stroke="none" stroke-width="1" fill="none" fill-rule="evenodd">
        <g id="Page-la-marque" transform="translate(-384.000000, -3208.000000)" fill="#005844">
            <path d="M416.410994,3208 C417.71605,3208 418.287626,3209.63789 418.577093,3214.26683 C418.68135,3215.90716 419.963102,3236.02125 421.120051,3256.43773 L421.258203,3258.88799 C422.357289,3278.48313 423.29335,3297.68707 422.914197,3300.42296 L422.914197,3300.42296 L422.759651,3301.54248 C422.369606,3304.41427 422.337715,3304.64547 421.231361,3305.75768 L421.231361,3305.75768 L421.062853,3305.92654 C420.645029,3306.34809 420.050187,3306.97576 419.183012,3308.09162 C418.169876,3309.38879 416.889351,3310.6811 415.527874,3312.04641 C412.387889,3315.21025 408.823516,3318.79755 407.898693,3323.39242 C407.30921,3326.32201 407.050566,3346.28375 407.035804,3368.51311 L407.035273,3371.48917 C407.035873,3373.48044 407.038368,3375.48444 407.0427,3377.4908 L407.050566,3380.50082 C407.122845,3404.07289 407.444302,3427.25533 407.915864,3433.22622 C408.141551,3436.10531 408.536502,3440.17206 409.00014,3444.94702 C410.540695,3460.83678 412.871152,3484.86003 412.260327,3498.94154 C411.507859,3516.21404 406.858618,3517.93618 401.251769,3517.99816 L400.907321,3518 C399.403563,3518 397.919429,3517.27475 396.616826,3515.90457 C393.987089,3513.13743 389.777547,3505.12562 391.136572,3482.5918 C391.951005,3469.09196 393.000938,3460.58367 393.928215,3453.07808 C394.79907,3446.03002 395.485941,3440.46654 395.679737,3433.07533 C395.748424,3430.3885 395.900517,3425.41154 396.099219,3418.99382 C396.952903,3391.53415 398.949737,3327.22553 397.681477,3322.67204 C396.938184,3319.99981 393.516092,3315.7043 390.493856,3311.91986 C387.086483,3307.64625 384.142747,3303.95429 384.029904,3301.7177 C384.01494,3301.4203 384.003435,3300.50053 384.000359,3299.06638 L384,3297.63968 C384.021127,3282.5621 384.793092,3231.00394 389.588658,3214.0843 L389.588658,3214.0843 L391.139025,3208.61573 L393.690263,3283.64246 C394.077854,3283.95885 394.68868,3284.35798 395.132693,3284.35798 C395.777862,3284.35798 396.008454,3282.97562 396.077141,3282.3818 C396.351547,3280.03233 396.929412,3264.04857 397.46716,3247.69575 L397.569554,3244.5633 C398.13469,3227.17407 398.629605,3210.32542 398.640644,3209.98835 L398.640644,3209.98835 L400.416698,3209.98835 C400.605465,3216.28341 400.836615,3223.31174 401.095374,3230.45937 L401.153324,3232.04945 C401.844305,3250.88268 402.718626,3270.22636 403.50762,3278.91618 C404.232957,3271.0831 405.04571,3254.59337 405.732382,3237.62339 L405.796382,3236.03129 C406.156879,3227.00429 406.47991,3217.91386 406.733464,3209.98592 L406.733464,3209.98592 L408.509518,3210.01269 C408.528652,3217.49784 408.607397,3226.27529 408.752972,3235.11528 L408.78298,3236.88375 L408.78298,3236.88375 L408.814783,3238.6517 C409.174538,3258.08827 409.862409,3277.03389 410.955271,3282.39396 C412.785293,3274.31645 414.16149,3234.97292 414.630034,3209.99808 L414.630034,3209.99808 L414.68155,3209.71577 C414.914595,3209.07327 415.449374,3208 416.410994,3208 Z M416.393823,3210.7355 C416.328406,3213.89393 416.047843,3227.19971 415.528012,3241.55435 L415.488575,3242.63277 L415.488575,3242.63277 L415.44824,3243.71427 C415.407453,3244.79703 415.365314,3245.88313 415.321812,3246.96873 C413.810695,3284.64759 412.299577,3285.02238 411.19077,3285.29496 L411.19077,3285.29496 L410.93074,3285.3266 L410.93074,3285.3266 L410.876982,3285.3263 C409.977032,3285.31154 408.018355,3284.56874 407.150493,3247.19507 C405.582071,3283.42518 404.474849,3284.8699 403.609623,3284.92751 L403.555859,3284.9296 L403.555859,3284.9296 L403.502714,3284.9299 L403.502714,3284.9299 L403.448378,3284.92378 C402.55327,3284.81065 401.284364,3283.75675 399.565468,3237.83985 L399.565,3237.848 L399.547095,3238.41763 C399.485695,3240.34679 399.422735,3242.30743 399.358812,3244.27647 L399.320347,3245.45872 C398.761071,3262.6106 398.137903,3280.04934 397.843383,3282.58379 C397.499947,3285.50426 396.182625,3286.11999 395.132693,3286.11999 C393.687809,3286.11999 392.336144,3284.82038 392.184051,3284.67193 L392.184051,3284.67193 L391.941193,3284.42612 L391.926474,3284.0781 L389.809438,3221.75782 C386.021832,3245.63749 385.577818,3297.13014 385.805958,3301.63252 C385.889363,3303.30449 389.075957,3307.29822 391.887225,3310.82469 C395.164583,3314.93524 398.557239,3319.18452 399.39375,3322.20233 C399.711011,3323.34438 399.854626,3327.44523 399.866024,3333.76469 L399.866397,3335.20523 C399.845458,3352.6767 398.931461,3385.11059 397.877726,3419.04736 C397.676571,3425.46022 397.524478,3430.43717 397.455791,3433.124 C397.261995,3440.59552 396.535874,3446.48026 395.692003,3453.29468 C394.767179,3460.77593 393.722153,3469.25258 392.912626,3482.69889 C391.74985,3502.01289 394.764726,3510.11475 396.896481,3513.37593 C397.259542,3512.19071 398.167194,3511.08337 399.011064,3510.09771 C399.430547,3509.6061 399.837764,3509.13882 400.129684,3508.69345 C402.141237,3505.64157 404.206758,3502.50694 406.031874,3499.38934 L406.031874,3499.38934 L407.567522,3500.27278 C405.717875,3503.42932 403.642542,3506.58829 401.630989,3509.64017 C401.287553,3510.15855 400.83618,3510.69154 400.36273,3511.24156 C399.560562,3512.17854 398.650457,3513.24208 398.50327,3514.12795 L398.50327,3514.12795 L397.28162,3513.93082 C397.507306,3514.2326 397.720727,3514.49544 397.909617,3514.69257 C398.866331,3515.70257 399.903998,3516.23555 400.907321,3516.23555 L400.907321,3516.23555 L401.162444,3516.23555 L399.636608,3515.72934 C400.124778,3514.26667 401.093757,3513.10579 402.028393,3511.97654 C402.273705,3511.68206 402.516563,3511.39002 402.754515,3511.0931 C403.684245,3509.90058 404.390741,3508.47685 405.077613,3507.1018 C405.789015,3505.66834 406.527402,3504.1862 407.530726,3502.9231 L407.530726,3502.9231 L408.924094,3504.01584 C408.036067,3505.13049 407.371273,3506.4666 406.66723,3507.88059 C405.946015,3509.33596 405.195362,3510.83999 404.155242,3512.17367 C403.909931,3512.48519 403.654807,3512.79184 403.402137,3513.09605 C402.546,3514.13038 401.738926,3515.10144 401.346428,3516.23555 C402.58525,3516.22825 403.821619,3516.17228 404.969676,3515.6685 L404.969676,3515.6685 L403.909931,3515.36185 C404.415272,3513.63391 405.509361,3512.12257 406.566652,3510.66477 C406.954244,3510.12448 407.339383,3509.5915 407.685272,3509.06338 L407.685272,3509.06338 L408.997687,3509.90058 C409.738527,3507.36708 410.2684,3503.85035 410.484274,3498.86609 C411.090192,3484.9087 408.767095,3460.96333 407.228993,3445.11494 C406.765354,3440.32781 406.372856,3436.25377 406.142264,3433.36007 C405.711423,3427.8898 405.4045,3409.54337 405.286194,3389.31549 L405.278668,3387.97918 C405.272625,3386.8635 405.267155,3385.74288 405.262271,3384.61913 L405.25669,3383.26924 L405.241971,3383.30818 L404.954957,3383.4615 C404.219023,3383.8582 403.345715,3384.05046 402.290876,3384.05046 C402.013675,3384.05046 401.72666,3384.0383 401.424928,3384.01152 L401.424928,3384.01152 L401.581927,3382.25438 C402.66375,3382.34199 403.497808,3382.24221 404.108633,3381.91122 L404.108633,3381.91122 L404.246007,3382.15703 L405.195362,3381.83091 C405.207628,3381.84065 405.232159,3381.87472 405.251784,3381.89906 C405.244424,3379.83283 405.237065,3377.76416 405.234612,3375.70037 L405.234612,3375.70037 L405.210081,3375.76121 L404.822489,3375.89507 C404.192039,3376.1068 403.524792,3376.14817 402.864905,3376.14817 C402.622047,3376.14817 402.384095,3376.14087 402.141237,3376.13601 L402.141237,3376.13601 L401.503427,3376.1287 L401.503427,3374.36426 L402.190299,3374.37399 C402.928686,3374.39103 403.694057,3374.4105 404.248461,3374.22067 L404.248461,3374.22067 L404.324507,3374.44944 L405.192909,3374.14036 C405.207628,3374.15496 405.219893,3374.17929 405.232159,3374.19633 L405.232159,3374.19633 L405.232159,3368.40164 C404.935332,3368.49656 404.277898,3368.67665 403.539511,3368.67665 C402.864905,3368.67665 402.128971,3368.52576 401.537771,3368.02928 L401.537771,3368.02928 L402.690734,3366.69074 C403.036623,3366.98035 403.860869,3366.99252 404.692474,3366.71994 L404.692474,3366.71994 L405.232159,3368.3627 C405.234612,3366.70534 405.237065,3365.06501 405.241971,3363.43929 C404.648318,3363.92846 403.799541,3364.00878 403.151919,3364.04772 C402.970389,3364.05989 402.808483,3364.06475 402.700546,3364.08666 L402.700546,3364.08666 L402.558266,3363.52203 L401.648161,3362.73838 C401.981784,3362.35385 402.469954,3362.32464 403.041529,3362.28814 C403.313825,3362.26867 403.961446,3362.23459 404.113539,3362.10804 L404.113539,3362.10804 L405.241971,3363.13264 C405.244424,3362.15915 405.249331,3361.20026 405.254237,3360.23894 C404.874004,3360.60644 404.395647,3360.74029 403.895212,3360.74029 C403.250044,3360.74029 402.577891,3360.53342 402.077456,3360.38253 L402.077456,3360.38253 L401.861582,3360.31682 L402.369376,3358.62782 L402.602422,3358.6984 C402.970389,3358.80792 403.819166,3359.06589 404.049758,3358.96367 L404.049758,3358.96367 L405.254237,3359.78871 C405.261596,3358.20679 405.268956,3356.65407 405.278768,3355.1257 C404.628693,3356.06998 403.630276,3356.11379 402.901702,3356.14056 C402.568078,3356.15273 402.251627,3356.16246 402.02594,3356.25251 L402.02594,3356.25251 L401.388131,3354.60488 C401.893472,3354.41262 402.39636,3354.39315 402.837921,3354.37855 C403.483089,3354.35421 403.694057,3354.3177 403.821619,3354.13031 L403.821619,3354.13031 L405.278768,3355.09163 C405.286127,3353.99402 405.293487,3352.91101 405.303299,3351.84504 C404.77588,3352.02514 404.172414,3352.09328 403.564042,3352.09328 C403.296653,3352.09328 403.036623,3352.08355 402.781499,3352.07625 L402.781499,3352.07625 L402.114252,3352.05921 L402.114252,3350.2972 L402.833014,3350.3118 C403.529698,3350.33127 404.3981,3350.35804 404.802864,3350.17551 L404.802864,3350.17551 L405.308205,3351.27068 C405.315565,3350.0952 405.32783,3348.94161 405.340096,3347.81237 C404.984394,3348.1969 404.533022,3348.34049 404.064477,3348.34049 C403.549323,3348.34049 403.02681,3348.19203 402.604875,3348.07278 L402.604875,3348.07278 L402.295783,3347.9876 L402.749609,3346.28399 L403.090591,3346.37891 C403.392324,3346.46165 403.951634,3346.61254 404.118446,3346.57117 L404.118446,3346.57117 L405.342549,3347.50815 C405.357268,3346.20855 405.371986,3344.94301 405.386705,3343.71398 C404.874004,3344.2275 404.169961,3344.4222 403.453652,3344.4222 C402.886983,3344.4222 402.308048,3344.30051 401.812519,3344.12041 L401.812519,3344.12041 L402.418438,3342.46548 C403.142107,3342.72589 403.87804,3342.72833 404.133164,3342.47035 L404.133164,3342.47035 L405.386705,3343.70181 C405.465205,3337.88522 405.573142,3332.88149 405.715422,3329.23091 C405.408783,3329.36233 405.082519,3329.43048 404.743989,3329.43048 C403.733307,3329.43048 402.65639,3328.93157 401.984237,3328.42292 L401.984237,3328.42292 L403.061154,3327.02109 C403.797088,3327.57598 404.84702,3327.84856 405.111956,3327.54921 L405.111956,3327.54921 L405.764484,3328.10897 C405.811093,3327.08681 405.857703,3326.15712 405.909218,3325.4051 C405.39897,3325.54139 404.842114,3325.6071 404.280351,3325.63874 C403.873134,3325.66308 403.461011,3325.68255 403.10531,3325.75313 L403.10531,3325.75313 L402.754515,3324.02519 C403.186263,3323.94 403.684245,3323.90837 404.17732,3323.87916 C404.739083,3323.84509 405.320471,3323.81102 405.634469,3323.67716 L405.634469,3323.67716 L405.985264,3324.48272 C406.039233,3323.86943 406.098108,3323.34861 406.159436,3323.0444 C407.18729,3317.93358 410.947912,3314.14915 414.264521,3310.81008 C415.584295,3309.48371 416.828024,3308.22791 417.777378,3307.01105 C418.832217,3305.65546 419.516635,3304.96915 419.968008,3304.51648 C420.65488,3303.82774 420.65488,3303.82774 420.998316,3301.30641 L420.998316,3301.30641 L421.152862,3300.18203 C421.381001,3298.54413 421.093987,3290.38387 420.578833,3279.71931 C420.12746,3280.04056 419.474932,3280.14764 418.753717,3280.14764 C418.361219,3280.14764 417.954002,3280.1233 417.561504,3280.09897 C417.272037,3280.08193 417.004648,3280.06489 416.791227,3280.06489 L416.791227,3280.06489 L416.786321,3280.06489 L416.786321,3278.30288 C417.078241,3278.36859 417.335818,3278.31992 417.671894,3278.33939 C418.196861,3278.37346 419.293402,3278.43674 419.573057,3278.29801 C419.538713,3278.31262 419.438136,3278.39293 419.396433,3278.54382 L419.396433,3278.54382 L420.53713,3278.85777 C420.488068,3277.84291 420.436553,3276.80614 420.382584,3275.74991 C419.909133,3275.95677 419.371902,3276.04195 418.842029,3276.04195 C418.206673,3276.04195 417.590942,3275.92514 417.12485,3275.77668 L417.12485,3275.77668 L417.671894,3274.09985 C418.368578,3274.32375 419.234527,3274.33835 419.683447,3274.13392 L419.683447,3274.13392 L420.377678,3275.66229 C420.13531,3270.86528 419.857254,3265.69805 419.565585,3260.47078 L419.473052,3258.81843 L419.473052,3258.81843 L419.285889,3255.51044 C418.109315,3234.84896 416.82925,3214.77852 416.803492,3214.37878 C416.690649,3212.56809 416.53365,3211.43885 416.393823,3210.7355 Z M408.823516,3510.51874 C408.55858,3510.90814 408.291191,3511.29753 408.009083,3511.68936 C407.204462,3512.80644 406.394934,3513.95029 405.894499,3515.13308 C407.022931,3514.33238 408.033614,3512.9476 408.823516,3510.51874 Z M402.512147,3499.29223 L404.155733,3499.96638 C403.238269,3502.16646 401.776213,3504.03069 400.360767,3505.83408 C399.038539,3507.51821 397.787452,3509.1123 397.017174,3510.89621 L397.017174,3510.89621 L395.383401,3510.2026 C396.244444,3508.20695 397.627999,3506.44981 398.96004,3504.75107 C400.301892,3503.03773 401.687901,3501.27085 402.512147,3499.29223 L402.512147,3499.29223 Z M404.668679,3492.2196 L406.079219,3493.29287 C405.191192,3494.43672 404.126541,3495.5611 402.998109,3496.75119 C401.128837,3498.72493 399.195784,3500.76439 398.229257,3502.83305 L398.229257,3502.83305 L396.617562,3502.0859 C397.706744,3499.76657 399.740375,3497.62246 401.705318,3495.54163 C402.799407,3494.38561 403.837074,3493.29287 404.668679,3492.2196 L404.668679,3492.2196 Z M404.122616,3487.62376 L405.807904,3488.17865 C404.544551,3491.97282 400.246697,3496.01036 397.796038,3498.07416 L397.796038,3498.07416 L396.645528,3496.73561 C398.500081,3495.16586 402.950028,3491.13562 404.122616,3487.62376 L404.122616,3487.62376 Z M405.392102,3481.64703 L406.984172,3482.42582 C405.527023,3485.35602 402.929176,3487.56341 400.419642,3489.70021 C399.195539,3490.73698 398.042575,3491.71777 397.049065,3492.75697 L397.049065,3492.75697 L395.76118,3491.54011 C396.816019,3490.43763 398.0622,3489.3814 399.264226,3488.35923 C401.638839,3486.33924 404.094405,3484.25111 405.392102,3481.64703 L405.392102,3481.64703 Z M404.775144,3477.20282 L406.377027,3477.967 C404.941956,3480.92884 400.69807,3484.40906 398.284207,3485.83035 L398.284207,3485.83035 L397.376555,3484.31171 C400.045542,3482.7444 403.656524,3479.51728 404.775144,3477.20282 L404.775144,3477.20282 Z M404.538418,3471.91069 L405.799319,3473.15432 C405.367571,3473.58266 404.891667,3474.08157 404.383872,3474.61455 C402.127008,3476.985 399.568412,3479.66939 397.461188,3480.25348 L397.461188,3480.25348 L396.977924,3478.55718 C398.616604,3478.10451 401.202185,3475.38361 403.093535,3473.40743 C403.611142,3472.85984 404.099311,3472.35119 404.538418,3471.91069 L404.538418,3471.91069 Z M403.872644,3467.72128 L405.241481,3468.84323 C404.233251,3470.04792 402.790821,3470.98247 401.395,3471.88781 C400.219959,3472.6447 399.111151,3473.36752 398.524857,3474.09033 L398.524857,3474.09033 L397.136396,3472.99029 C397.899314,3472.04357 399.12587,3471.25018 400.423567,3470.41055 C401.708998,3469.57821 403.041038,3468.71668 403.872644,3467.72128 L403.872644,3467.72128 Z M402.698584,3463.96046 L404.381419,3464.52021 C403.800031,3466.24085 401.827729,3467.32872 400.090925,3468.29248 C399.502178,3468.62103 398.950227,3468.92281 398.525839,3469.22216 L398.525839,3469.22216 L398.089185,3469.52881 L397.080955,3469.02503 L397.049065,3468.37036 L397.093221,3467.77896 L397.77028,3467.54289 C397.777639,3467.54289 397.667249,3467.5867 397.561765,3467.71082 L397.561765,3467.71082 L397.578937,3467.73029 C398.037669,3467.41147 398.611698,3467.09265 399.224976,3466.7495 C400.610985,3465.99018 402.330617,3465.03373 402.698584,3463.96046 L402.698584,3463.96046 Z M402.14418,3460.18137 L403.709266,3461.01857 C403.086176,3462.15999 401.790932,3462.8317 400.647781,3463.42552 C400.093378,3463.7127 399.519349,3464.00475 399.281398,3464.25056 L399.281398,3464.25056 L398.010685,3463.01909 C398.447339,3462.57372 399.117039,3462.23057 399.828442,3461.86064 C400.743453,3461.38607 401.78112,3460.84821 402.14418,3460.18137 L402.14418,3460.18137 Z M403.782369,3454.72449 C404.456975,3454.6174 404.77588,3454.88755 404.92552,3455.14795 L404.92552,3455.14795 L405.237065,3455.67607 L404.77588,3456.28207 L404.358851,3456.12874 L404.483959,3456.2918 C402.629406,3457.72526 400.519729,3458.96159 399.074845,3459.74525 L399.074845,3459.74525 L398.223615,3458.19984 C400.181199,3457.13387 402.016128,3455.96568 403.389871,3454.89972 L403.389871,3454.89972 Z M402.429232,3451.76898 L403.839772,3452.83738 C402.691715,3454.32925 400.550148,3455.30517 399.375106,3455.75298 L399.375106,3455.75298 L398.737297,3454.11022 C400.412773,3453.46771 401.791423,3452.58914 402.429232,3451.76898 L402.429232,3451.76898 Z M404.418707,3447.71172 C404.64194,3449.07217 402.777574,3449.95805 400.976989,3450.81715 C400.628647,3450.98264 400.319555,3451.1311 400.101228,3451.25035 L400.101228,3451.25035 L399.232826,3449.71224 C399.473231,3449.57839 399.81912,3449.41533 400.209165,3449.23036 C400.883771,3448.90911 402.461122,3448.15466 402.689262,3447.76526 C402.674543,3447.7896 402.645106,3447.87478 402.664731,3447.98917 L402.664731,3447.98917 Z M402.111063,3444.07063 L403.749743,3444.75451 C403.104574,3446.27802 401.750456,3447.23204 400.121589,3447.31478 L400.121589,3447.31478 L400.033277,3445.55277 C400.975272,3445.50653 401.730831,3444.97111 402.111063,3444.07063 L402.111063,3444.07063 Z M402.045565,3440.68533 L403.811806,3440.85569 C403.679338,3442.23317 402.352204,3442.86594 401.280194,3443.37216 C401.015258,3443.50114 400.750322,3443.62526 400.527088,3443.75668 L400.527088,3443.75668 L399.624343,3442.24048 C399.889279,3442.08228 400.198371,3441.93626 400.51237,3441.78537 C401.145273,3441.48602 402.008768,3441.07716 402.045565,3440.68533 L402.045565,3440.68533 Z M402.346071,3436.32191 L403.923423,3437.13477 C403.150693,3438.60717 401.472763,3439.33729 400.783439,3439.5831 L400.783439,3439.5831 L400.182426,3437.9233 C401.202921,3437.55581 402.012448,3436.95955 402.346071,3436.32191 L402.346071,3436.32191 Z M401.428853,3432.64821 L403.207359,3432.71879 C403.158297,3433.95998 402.152521,3434.84829 400.445154,3435.16954 L400.445154,3435.16954 L400.116437,3433.43917 C400.334764,3433.3978 401.411681,3433.16903 401.428853,3432.64821 L401.428853,3432.64821 Z M401.633197,3428.60702 L403.411704,3428.67273 C403.355282,3430.05995 402.172882,3430.53452 401.387886,3430.84604 C401.034637,3430.9872 400.671577,3431.13078 400.470421,3431.31088 L400.470421,3431.31088 L399.273302,3430.00884 C399.709956,3429.61458 400.249641,3429.40041 400.725545,3429.21058 C401.498276,3428.90393 401.628291,3428.79198 401.633197,3428.60702 L401.633197,3428.60702 Z M401.963141,3425.55537 L403.486524,3426.46559 C402.964011,3427.32956 401.769345,3427.90392 400.510898,3427.90392 L400.510898,3427.90392 L400.476554,3427.90392 L400.491273,3426.13947 L400.510898,3426.13947 C401.19041,3426.13947 401.793876,3425.83769 401.963141,3425.55537 L401.963141,3425.55537 Z M401.64767,3421.61007 L403.39674,3421.92159 C403.126897,3423.40859 401.642764,3423.82719 400.931361,3424.02919 L400.931361,3424.02919 L400.443192,3422.33532 C401.38764,3422.06518 401.601061,3421.86561 401.64767,3421.61007 L401.64767,3421.61007 Z M401.467612,3418.4752 L403.170072,3418.98384 C402.959104,3419.67745 402.355639,3420.19097 401.509315,3420.3954 L401.509315,3420.3954 L401.087379,3418.6845 C401.337597,3418.62609 401.452893,3418.52387 401.467612,3418.4752 L401.467612,3418.4752 Z M402.564399,3414.02149 L402.888209,3415.75673 C402.301915,3415.86138 401.813746,3416.07311 401.472763,3416.36273 L401.472763,3416.36273 L400.309988,3415.03148 C400.888922,3414.53744 401.671465,3414.18211 402.564399,3414.02149 L402.564399,3414.02149 Z M402.313936,3409.08274 L403.955068,3409.76175 C403.520867,3410.78391 402.569059,3411.1441 401.801235,3411.42885 C401.614799,3411.49699 401.430815,3411.56757 401.254191,3411.64301 L401.254191,3411.64301 L400.528069,3410.03432 C400.74149,3409.94184 400.957364,3409.85666 401.175691,3409.77878 C401.798782,3409.54515 402.183921,3409.38939 402.313936,3409.08274 L402.313936,3409.08274 Z M402.513619,3406.16057 L403.752441,3407.42611 C403.161241,3407.99803 402.346807,3408.24384 401.581436,3408.24384 C401.139876,3408.24384 400.713034,3408.16109 400.35488,3408.0175 L400.35488,3408.0175 L401.019673,3406.38204 C401.453874,3406.5597 402.155465,3406.50616 402.513619,3406.16057 L402.513619,3406.16057 Z M402.993693,3402.25421 L404.085329,3403.64629 C403.344488,3404.21822 402.485899,3404.24742 401.794121,3404.27176 C401.411435,3404.28393 401.050828,3404.30096 400.766267,3404.39588 L400.766267,3404.39588 L400.202051,3402.72391 C400.731923,3402.54382 401.261796,3402.52435 401.73034,3402.51461 C402.336259,3402.49028 402.721398,3402.46594 402.993693,3402.25421 L402.993693,3402.25421 Z M401.040525,3399.31086 C401.494351,3399.508 402.274441,3399.54694 402.473143,3399.46662 C402.406909,3399.49339 402.271987,3399.62481 402.249909,3399.82195 L402.249909,3399.82195 L404.016151,3400.01178 C403.971995,3400.42551 403.738949,3400.77353 403.356263,3400.995 C403.012828,3401.1897 402.563908,3401.26758 402.10027,3401.26758 C401.442835,3401.26758 400.76087,3401.11425 400.334028,3400.93172 L400.334028,3400.93172 Z M403.784332,3396.44443 L404.154752,3396.51014 L404.584046,3396.58802 L405.010888,3397.29866 L405.172793,3398.25025 L404.203814,3398.32326 C403.862831,3398.35003 403.489958,3398.3549 403.104819,3398.35003 C402.503807,3398.33543 401.799763,3398.34516 401.463687,3398.49606 L401.463687,3398.49606 L400.730206,3396.8898 C401.421984,3396.57585 402.270761,3396.56368 403.114632,3396.58802 C403.342771,3396.58802 403.568458,3396.58802 403.781878,3396.58315 L403.781878,3396.58315 L403.784332,3396.44443 Z M403.46788,3393.54952 L403.480146,3393.80019 L404.179283,3393.56169 C404.270048,3393.65173 404.613484,3394.0679 404.341188,3394.75178 L404.341188,3394.75178 L404.132674,3395.27989 L403.561098,3395.30666 C403.036132,3395.33587 402.4989,3395.3383 401.961669,3395.3383 L401.961669,3395.3383 L401.09572,3395.3383 L401.093267,3393.57629 L401.642764,3393.57629 C402.253589,3393.57629 402.864414,3393.57872 403.46788,3393.54952 L403.46788,3393.54952 Z M403.503205,3389.93131 L403.56208,3390.17955 L404.621824,3390.35721 C404.626731,3390.57381 404.636543,3390.77337 404.575215,3390.99971 L404.575215,3390.99971 L404.447653,3391.51322 L403.927593,3391.64465 C403.172035,3391.83204 402.458179,3391.92209 401.795838,3391.92209 C401.599589,3391.92209 401.408246,3391.91479 401.22181,3391.89775 L401.22181,3391.89775 L401.378809,3390.14061 C401.827729,3390.17955 402.328164,3390.15764 402.867849,3390.06516 L402.867849,3390.06516 C403.078816,3390.02622 403.284878,3389.98485 403.503205,3389.93131 L403.503205,3389.93131 Z M402.763101,3385.73776 L404.318374,3386.59443 C403.781143,3387.55088 402.689507,3387.62633 401.889792,3387.68474 C401.551263,3387.70908 401.202921,3387.73341 400.967422,3387.81129 L400.967422,3387.81129 L400.408112,3386.13933 C400.854579,3385.9933 401.337842,3385.95436 401.764684,3385.92759 C402.066417,3385.90569 402.696867,3385.85945 402.763101,3385.73776 L402.763101,3385.73776 Z M403.87387,3378.37673 L403.888589,3378.67608 L404.825678,3378.8148 C404.830584,3379.04357 404.840397,3379.2407 404.779069,3379.47434 L404.779069,3379.47434 L404.619617,3380.10954 L403.964635,3380.13875 C403.415138,3380.16795 402.855828,3380.17038 402.294065,3380.17038 L402.294065,3380.17038 L401.504163,3380.17038 L401.499257,3378.40837 L402.026676,3378.40837 C402.647314,3378.40837 403.265498,3378.40837 403.87387,3378.37673 L403.87387,3378.37673 Z M402.453273,3370.50535 C402.840864,3370.7974 403.311862,3370.95315 403.476221,3370.93369 C403.400174,3370.94585 403.29469,3371.04077 403.275065,3371.11621 L403.275065,3371.11621 L405.0364,3370.68788 C405.173775,3371.81469 404.626731,3372.299 404.288201,3372.4937 C404.030624,3372.63972 403.74361,3372.69813 403.451689,3372.69813 C402.656881,3372.69813 401.827729,3372.24789 401.368997,3371.89987 L401.368997,3371.89987 Z M401.808349,3338.7784 C402.151785,3338.73946 402.701282,3338.74676 403.287576,3338.76136 C403.707059,3338.77596 404.146166,3338.78327 404.528851,3338.77353 L404.528851,3338.77353 L404.592632,3340.53554 C404.455258,3340.53798 404.308071,3340.54041 404.160884,3340.54041 C403.859152,3340.54041 403.545153,3340.53554 403.238514,3340.52581 C402.757704,3340.51364 402.301425,3340.4966 402.011957,3340.53068 L402.011957,3340.53068 Z M402.382623,3334.97036 L402.878152,3335.13341 C403.739194,3335.42546 404.298504,3335.59095 404.877439,3335.38165 L404.877439,3335.38165 L405.466186,3337.04632 C405.073688,3337.18261 404.698361,3337.23615 404.337754,3337.23615 C403.599367,3337.23615 402.927214,3337.01225 402.309029,3336.80538 L402.309029,3336.80538 L401.847844,3336.65206 L402.382623,3334.97036 Z M402.564889,3331.72961 C403.394041,3331.96325 404.098085,3332.0825 404.784956,3332.09954 L404.784956,3332.09954 L404.743253,3333.86155 C403.896929,3333.84208 403.050606,3333.70093 402.074267,3333.42105 L402.074267,3333.42105 Z M403.421271,3320.29965 C403.548833,3320.45784 403.784332,3320.56736 404.054174,3320.59169 C404.343641,3320.6209 404.613484,3320.54058 404.785202,3320.38726 L404.785202,3320.38726 L405.962696,3321.70877 C405.484339,3322.12737 404.83917,3322.35857 404.159658,3322.35857 C404.071346,3322.35857 403.985487,3322.35614 403.897175,3322.3464 C403.141616,3322.28069 402.462104,3321.93267 402.027903,3321.39239 L402.027903,3321.39239 Z M414.006944,3298.71766 L415.488624,3299.69115 C413.692945,3302.38527 411.416456,3304.85793 409.216014,3307.24541 C406.419465,3310.28756 403.527245,3313.43193 401.677598,3316.99976 L401.677598,3316.99976 L400.097793,3316.1942 C402.052924,3312.41707 405.02855,3309.18265 407.908505,3306.05532 C410.059885,3303.71652 412.284858,3301.30227 414.006944,3298.71766 L414.006944,3298.71766 Z M415.745955,3302.3495 L417.421432,3302.93846 C416.415655,3305.72994 414.409009,3307.93732 412.466143,3310.07169 C410.883886,3311.8118 409.38994,3313.457 408.406242,3315.3772 L408.406242,3315.3772 L406.819078,3314.58138 C407.913166,3312.44944 409.556752,3310.63875 411.146369,3308.89377 C413.057344,3306.79347 414.862835,3304.80999 415.745955,3302.3495 L415.745955,3302.3495 Z M409.191974,3299.02504 L410.521561,3300.19566 L408.12487,3302.86301 C406.056895,3305.16775 403.988921,3307.46761 401.970009,3309.80398 C401.545621,3310.29559 401.045186,3310.78964 400.527579,3311.29342 C399.536521,3312.26934 398.51112,3313.27934 398.027857,3314.3307 L398.027857,3314.3307 L396.408802,3313.60545 C397.026987,3312.25474 398.17259,3311.12793 399.278944,3310.04492 C399.757301,3309.57278 400.228299,3309.11281 400.620797,3308.65527 C402.647068,3306.31159 404.724855,3303.99956 406.802642,3301.68996 L406.802642,3301.68996 L409.191974,3299.02504 Z M403.741647,3299.17252 L404.963298,3300.45266 C403.709757,3301.63544 402.507732,3302.98859 401.344956,3304.2955 C400.37107,3305.39067 399.392278,3306.48828 398.36933,3307.51531 C398.114206,3307.77085 397.797755,3308.0483 397.461678,3308.34278 C396.632526,3309.07046 395.599766,3309.97337 395.43786,3310.71322 L395.43786,3310.71322 L393.698603,3310.3433 C393.985617,3309.03395 395.207268,3307.96555 396.286637,3307.02127 C396.590823,3306.75599 396.877837,3306.50775 397.105977,3306.27655 C398.1093,3305.27142 399.058655,3304.20302 400.012916,3303.12731 C401.197769,3301.79364 402.426779,3300.41128 403.741647,3299.17252 L403.741647,3299.17252 Z M399.200445,3298.22142 L400.537391,3299.37987 C399.666536,3300.3704 398.70001,3301.36092 397.723671,3302.35631 C396.116882,3303.99664 394.453671,3305.69781 393.259005,3307.39655 L393.259005,3307.39655 L391.801856,3306.38412 C393.077475,3304.571 394.789748,3302.82115 396.448052,3301.12972 C397.402313,3300.1538 398.346761,3299.18761 399.200445,3298.22142 L399.200445,3298.22142 Z M395.107671,3297.83616 L396.476508,3298.95811 C395.880402,3299.67362 395.107671,3300.38427 394.290785,3301.13872 C392.86062,3302.4578 391.37894,3303.82068 390.925114,3305.14949 L390.925114,3305.14949 L389.242278,3304.58244 C389.845744,3302.82772 391.48933,3301.31395 393.0814,3299.84885 C393.856584,3299.13577 394.587611,3298.46163 395.107671,3297.83616 L395.107671,3297.83616 Z M390.432529,3298.62542 L391.774381,3299.78387 C391.384336,3300.22681 390.952589,3300.68921 390.515934,3301.15649 C389.816797,3301.90121 389.105395,3302.66539 388.546085,3303.38334 L388.546085,3303.38334 L387.137998,3302.30764 C387.724292,3301.55075 388.474944,3300.74519 389.213331,3299.95666 C389.635267,3299.50399 390.057202,3299.05619 390.432529,3298.62542 L390.432529,3298.62542 Z M409.402941,3292.58346 L410.310593,3294.09724 C409.098755,3294.81275 407.727465,3294.90037 406.515627,3294.97825 C405.620241,3295.03422 404.77637,3295.0902 404.07478,3295.37007 L404.07478,3295.37007 L403.407533,3293.73705 C404.371607,3293.35009 405.404367,3293.28438 406.400331,3293.21867 C407.509138,3293.14809 408.559071,3293.08238 409.402941,3292.58346 L409.402941,3292.58346 Z M390.892487,3291.95435 L391.721639,3293.51193 C390.94155,3293.92323 390.05107,3293.99867 389.266073,3294.06682 C388.571842,3294.12523 387.914408,3294.1812 387.563613,3294.44648 L387.563613,3294.44648 L386.48915,3293.04222 C387.254521,3292.4703 388.196516,3292.38755 389.11398,3292.30967 C389.788586,3292.25126 390.426396,3292.19772 390.892487,3291.95435 L390.892487,3291.95435 Z M407.830251,3289.73041 L409.439493,3290.4727 C408.946417,3291.54354 407.665892,3291.66279 406.635585,3291.76014 C406.201384,3291.80151 405.750011,3291.84532 405.470356,3291.9451 L405.470356,3291.9451 L404.864437,3290.28774 C405.35506,3290.11007 405.919276,3290.05653 406.468773,3290.00542 C406.893162,3289.96649 407.68797,3289.88861 407.830251,3289.73041 L407.830251,3289.73041 Z M387.024909,3289.54667 C387.966905,3288.76301 390.101113,3289.01612 390.194331,3289.02829 L390.194331,3289.02829 L389.973551,3290.77813 C389.191008,3290.67835 388.339778,3290.7903 388.150888,3290.90712 C388.202404,3290.87548 388.312794,3290.74649 388.322606,3290.55423 L388.322606,3290.55423 L386.546552,3290.46418 C386.566177,3290.11373 386.735442,3289.78761 387.024909,3289.54667 Z M420.076681,3288.70192 L420.834693,3290.29601 C420.275383,3290.56129 419.433965,3290.63186 418.474798,3290.63186 C418.04305,3290.63186 417.589225,3290.61726 417.125586,3290.60023 L417.125586,3290.60023 L416.583448,3290.58076 L416.583448,3288.82118 C416.728182,3288.82118 416.93915,3288.82848 417.194273,3288.83821 C417.856614,3288.86742 419.588512,3288.93556 420.076681,3288.70192 L420.076681,3288.70192 Z M408.656459,3285.80434 L409.01952,3287.52984 C408.700615,3287.59555 408.342461,3287.63449 407.984306,3287.67587 C407.412731,3287.73914 406.767562,3287.81216 406.478095,3288.00442 L406.478095,3288.00442 L405.487037,3286.54175 C406.137112,3286.10612 406.973624,3286.01364 407.788057,3285.92359 C408.08979,3285.89195 408.38907,3285.86031 408.656459,3285.80434 L408.656459,3285.80434 Z M389.502799,3285.24969 L391.075244,3286.06499 C390.491403,3287.17963 389.382596,3287.39623 388.381726,3287.39623 C388.030931,3287.39623 387.689948,3287.36946 387.393122,3287.34513 L387.393122,3287.34513 L387.503512,3285.58555 L387.530496,3285.58798 C388.504382,3285.66342 389.269753,3285.6902 389.502799,3285.24969 L389.502799,3285.24969 Z M420.048225,3285.58335 L420.048225,3287.34537 L416.378368,3287.34537 L416.378368,3285.58335 L420.048225,3285.58335 Z M416.786321,3281.96709 L417.156741,3282.05957 C418.719374,3282.45383 419.077528,3282.35405 419.156028,3282.26644 L419.156028,3282.26644 L420.532224,3283.38352 C420.083304,3283.92867 419.433229,3284.10146 418.753717,3284.10146 C418.044768,3284.10146 417.306381,3283.91407 416.717633,3283.76561 L416.717633,3283.76561 L416.379104,3283.68286 L416.786321,3281.96709 Z M389.565598,3281.59449 L390.191142,3283.24455 C389.695613,3283.43195 389.160835,3283.46602 388.69229,3283.49766 C388.358667,3283.51713 387.980888,3283.5439 387.811623,3283.62178 L387.811623,3283.62178 L387.056064,3282.02769 C387.529515,3281.80622 388.059387,3281.77215 388.572088,3281.73808 C388.937602,3281.71374 389.315381,3281.6894 389.565598,3281.59449 L389.565598,3281.59449 Z M389.257242,3278.15126 L390.503424,3279.40706 C389.941661,3279.95951 389.13704,3280.13474 388.494324,3280.28076 C388.285809,3280.32457 388.094467,3280.36351 387.939921,3280.41705 L387.939921,3280.41705 L387.336455,3278.75969 C387.549876,3278.68424 387.817265,3278.62097 388.104279,3278.55769 C388.50659,3278.46764 389.05854,3278.34839 389.257242,3278.15126 L389.257242,3278.15126 Z M389.371557,3273.65642 L389.575166,3275.4087 C389.11398,3275.46224 388.370687,3275.67154 388.228407,3275.72995 L388.228407,3275.72995 L387.323208,3274.22348 C387.656831,3273.98254 388.922638,3273.70996 389.371557,3273.65642 L389.371557,3273.65642 Z M389.303115,3270.69969 L390.051315,3272.29865 C389.592583,3272.51038 389.067617,3272.6199 388.525479,3272.6199 C388.32187,3272.6199 388.113356,3272.6053 387.907294,3272.57123 L387.907294,3272.57123 L388.182043,3270.83112 C388.58926,3270.89683 388.984211,3270.84572 389.303115,3270.69969 L389.303115,3270.69969 Z M417.452831,3270.54442 C417.531331,3270.5931 418.259906,3271.01413 418.615607,3270.66611 L418.615607,3270.66611 L419.854429,3271.92921 C419.410416,3272.35511 418.851106,3272.56928 418.237828,3272.56928 C417.68833,3272.56928 417.102036,3272.39648 416.528008,3272.0509 L416.528008,3272.0509 Z M417.51882,3267.39203 C417.867162,3267.43827 418.208145,3267.51128 418.544221,3267.58672 C419.0005,3267.68407 419.432248,3267.77899 419.861543,3267.78872 L419.861543,3267.78872 L419.827199,3269.55074 C419.221281,3269.53857 418.684049,3269.41931 418.161536,3269.30736 C417.872068,3269.24409 417.580148,3269.17838 417.278415,3269.137 L417.278415,3269.137 Z M387.63966,3267.30417 C387.777034,3266.99022 388.363328,3265.99483 390.080507,3266.39396 L390.080507,3266.39396 L389.678196,3268.11216 C389.386276,3268.04402 389.234183,3268.06592 389.199839,3268.07809 L389.199839,3268.07809 Z M418.819706,3263.84488 L419.646405,3265.40489 C419.148423,3265.6653 418.481176,3265.71398 417.762414,3265.71398 C417.629946,3265.71398 417.490119,3265.71154 417.355198,3265.71154 L417.355198,3265.71154 L417.205558,3263.94466 L417.384635,3263.94709 C417.686368,3263.95926 418.581754,3263.97143 418.819706,3263.84488 L418.819706,3263.84488 Z M389.678687,3263.13472 L389.678687,3264.89917 L388.044914,3264.89917 L388.044914,3263.13472 L389.678687,3263.13472 Z M416.875123,3259.95823 C417.706729,3259.64428 418.619287,3259.64184 419.524485,3259.94849 L419.524485,3259.94849 L418.943098,3261.61559 C418.440209,3261.4428 417.947134,3261.43793 417.512933,3261.60586 L417.512933,3261.60586 Z M418.826575,3256.86789 L418.826575,3258.6299 L417.590206,3258.6299 L417.590206,3256.86789 L418.826575,3256.86789 Z" id="Petite-fourchette"></path>
        </g>
    </g>
</svg>