<?xml version="1.0" encoding="UTF-8"?>
<svg width="30px" height="321px" viewBox="0 0 30 321" version="1.1" xmlns="http://www.w3.org/2000/svg" xmlns:xlink="http://www.w3.org/1999/xlink">
    <title>DD4C1066-0989-43A8-9C69-1E3CB5123CB6</title>
    <g id="Marque" stroke="none" stroke-width="1" fill="none" fill-rule="evenodd">
        <g id="Page-la-marque" transform="translate(-1052.000000, -3199.000000)" fill="#005844">
            <path d="M1074.59183,3199 C1077.57157,3199 1079.90754,3200.07835 1080.27308,3200.25558 L1080.31952,3200.27842 L1080.77704,3200.51127 L1080.77924,3201.03294 L1080.77924,3201.03294 L1080.77999,3201.51178 C1080.78004,3201.54277 1080.78009,3201.5752 1080.78015,3201.60906 L1080.78092,3202.08337 C1080.78099,3202.12851 1080.78106,3202.17503 1080.78114,3202.22293 L1080.78184,3202.69097 C1080.78192,3202.74705 1080.78201,3202.80447 1080.78209,3202.86322 L1080.78286,3203.42782 C1080.78295,3203.4945 1080.78304,3203.56248 1080.78313,3203.63176 L1080.78393,3204.28988 C1080.78402,3204.36683 1080.78411,3204.44503 1080.78419,3204.52449 L1080.78498,3205.27312 C1080.78507,3205.35999 1080.78516,3205.44808 1080.78524,3205.53739 L1080.78598,3206.37349 C1080.78606,3206.46995 1080.78614,3206.5676 1080.78622,3206.66641 L1080.78687,3207.58695 C1080.78694,3207.69267 1080.787,3207.79953 1080.78707,3207.90752 L1080.78799,3209.9705 C1080.78802,3210.09161 1080.78806,3210.21379 1080.78809,3210.33701 L1080.78803,3214.33881 C1081.19276,3214.53136 1081.60188,3214.71942 1082,3214.9366 L1082,3214.9366 L1081.22135,3216.42772 C1081.08058,3216.34935 1080.93101,3216.28666 1080.78803,3216.21502 C1080.78064,3229.49268 1080.736,3249.766 1080.56058,3269.98836 L1080.53462,3272.87616 C1080.28382,3299.81154 1079.79259,3326.05979 1078.83921,3334.91783 C1077.18073,3350.29246 1075.48926,3353.14708 1074.44006,3353.67322 C1074.78539,3365.40738 1078.56426,3493.35691 1078.56426,3502.982 C1078.56426,3514.05344 1075.34409,3519.67536 1068.99391,3519.67536 C1068.77396,3519.67536 1068.5386,3519.64625 1068.30985,3519.63058 C1068.18887,3519.75596 1068.0569,3519.87686 1067.93812,3520 L1067.93812,3520 L1067.507,3519.57461 L1066.28624,3519.44475 C1059.2652,3518.72606 1055.91304,3517.50809 1056.42774,3497.88847 C1056.58171,3492.0449 1056.96664,3478.52857 1057.43955,3461.98747 C1057.74309,3451.36101 1058.08526,3439.37638 1058.42499,3427.34532 L1058.50646,3424.45765 C1059.49657,3389.32979 1060.43785,3354.70089 1060.30779,3353.22992 C1060.14503,3351.89776 1056.6411,3348.12519 1054.21057,3345.87284 L1054.21057,3345.87284 L1053.95322,3345.63776 L1053.93783,3345.28177 C1053.92179,3344.88823 1052.66032,3312.87109 1052.18155,3281.17667 L1052.14754,3278.83001 C1052.05543,3272.18552 1052,3265.59 1052,3259.33877 C1052,3223.98406 1059.50275,3210.66699 1066.03989,3203.01438 C1068.28125,3200.38813 1071.23968,3199 1074.59183,3199 Z M1073.67681,3509.45023 C1071.673,3511.75855 1069.22927,3513.76462 1066.82293,3515.6968 C1066.05088,3516.31251 1065.30963,3516.92597 1064.57717,3517.53943 C1065.16665,3517.62451 1065.78913,3517.69168 1066.45341,3517.75885 C1066.85153,3517.80139 1067.26505,3517.84616 1067.68737,3517.89542 C1068.29445,3517.30435 1068.91913,3516.72223 1069.54381,3516.15354 C1071.19789,3514.64899 1072.90256,3513.09071 1074.09253,3511.3645 L1074.09253,3511.3645 L1074.19371,3511.43615 C1074.00235,3510.84955 1073.83078,3510.18236 1073.67681,3509.45023 Z M1074.89317,3513.05488 C1073.66361,3514.63556 1072.14371,3516.04608 1070.65019,3517.40734 C1070.47863,3517.5663 1070.31366,3517.72078 1070.14429,3517.87527 C1072.42085,3517.50809 1074.12112,3516.06399 1075.24291,3513.54297 C1075.12413,3513.39968 1075.00535,3513.23848 1074.89317,3513.05488 Z M1061.91348,3358.2518 C1061.63414,3372.75998 1060.42877,3415.46281 1059.09803,3462.03448 C1058.62732,3478.57783 1058.24239,3492.08968 1058.08842,3497.93549 C1057.99384,3501.57821 1058.02683,3504.5179 1058.1852,3506.91802 C1058.7197,3507.78448 1059.98446,3509.26664 1060.88848,3509.08753 C1061.53296,3508.95543 1063.14744,3507.81358 1064.18344,3500.05126 L1064.18344,3500.05126 L1065.82873,3500.27963 C1065.54718,3502.39541 1065.19965,3504.13729 1064.79273,3505.59706 C1065.15346,3505.32391 1065.52079,3505.053 1065.88592,3504.78881 C1066.51059,3504.3455 1067.12428,3503.90668 1067.65437,3503.44994 C1068.32084,3502.86782 1068.91253,3502.1648 1069.48442,3501.48641 C1070.00792,3500.86175 1070.54901,3500.21918 1071.1539,3499.65945 L1071.1539,3499.65945 L1072.26908,3500.91101 C1071.74338,3501.39909 1071.25728,3501.97449 1070.74478,3502.58124 C1070.13109,3503.31113 1069.49762,3504.06564 1068.73217,3504.73284 C1068.16907,3505.22764 1067.5114,3505.69781 1066.84713,3506.1747 C1065.71435,3506.98742 1064.54417,3507.82254 1063.86891,3508.78975 L1063.86891,3508.78975 L1063.62915,3508.61288 C1062.94728,3509.83532 1062.14884,3510.55626 1061.20742,3510.74656 C1061.03805,3510.77567 1060.87088,3510.79582 1060.70812,3510.79582 C1059.87228,3510.79582 1059.11562,3510.38386 1058.48655,3509.85324 C1059.219,3515.04528 1060.84669,3516.64834 1063.30801,3517.28643 L1063.30801,3517.28643 L1062.8725,3516.76253 C1063.80292,3515.96547 1064.79053,3515.17514 1065.79353,3514.36913 C1068.50561,3512.1929 1071.29687,3509.93608 1073.30288,3507.28968 C1073.2215,3506.73219 1073.14891,3506.15455 1073.08292,3505.55452 C1072.46924,3506.64711 1071.21109,3507.54715 1070.04531,3508.34645 C1069.601,3508.65094 1069.18528,3508.93304 1068.86634,3509.19499 C1066.16526,3511.40704 1063.44659,3513.63924 1061.16123,3516.0013 L1061.16123,3516.0013 L1059.97786,3514.81691 C1062.3314,3512.37649 1065.08967,3510.11967 1067.75775,3507.93449 C1068.17787,3507.58969 1068.63318,3507.27624 1069.11489,3506.94489 C1070.14429,3506.2441 1071.55202,3505.27689 1071.79177,3504.48432 L1071.79177,3504.48432 L1073.01254,3504.86941 C1072.75519,3502.2857 1072.61221,3499.39526 1072.54623,3496.49139 C1072.05352,3497.12724 1071.25288,3497.89071 1070.33785,3498.75717 C1069.37664,3499.66617 1067.59059,3501.36103 1067.48501,3501.91628 L1067.48501,3501.91628 L1065.91891,3502.3775 C1065.4394,3501.16624 1066.78774,3499.81394 1069.20507,3497.51905 C1069.31945,3497.41102 1069.43575,3497.30114 1069.55224,3497.19062 L1069.90052,3496.85833 C1070.59122,3496.19473 1071.22593,3495.5516 1071.42884,3495.19058 L1071.42884,3495.19058 L1072.53303,3495.83539 C1072.51103,3494.6913 1072.49784,3493.54945 1072.49564,3492.42776 C1071.91715,3492.97853 1071.27487,3493.5405 1070.6106,3494.11814 C1068.97852,3495.53985 1067.29144,3497.01082 1066.28184,3498.53552 L1066.28184,3498.53552 L1064.90491,3497.5907 C1066.03989,3495.87569 1067.81274,3494.33084 1069.53061,3492.83748 C1070.25867,3492.20163 1070.96033,3491.59264 1071.57622,3490.99933 L1071.57622,3490.99933 L1072.49564,3491.98669 C1072.49564,3491.14262 1072.50004,3490.31198 1072.50883,3489.5015 C1071.91935,3489.81271 1071.37605,3490.22019 1070.82176,3490.67917 C1070.40824,3491.01276 1069.99032,3491.35756 1069.54161,3491.66653 C1069.03791,3492.00908 1068.46162,3492.28671 1067.90073,3492.5509 C1067.07589,3492.94495 1066.22685,3493.35243 1065.81993,3493.89873 L1065.81993,3493.89873 L1064.49358,3492.88226 C1065.14686,3492.0046 1066.18726,3491.50309 1067.19466,3491.0262 C1067.69836,3490.78216 1068.19987,3490.54707 1068.61559,3490.26273 C1069.02471,3489.9851 1069.40084,3489.67613 1069.77256,3489.36716 C1070.51822,3488.74922 1071.28587,3488.11561 1072.28008,3487.71036 L1072.28008,3487.71036 L1072.52423,3488.33278 C1072.53963,3487.23795 1072.56382,3486.19462 1072.58582,3485.21845 C1069.6076,3487.49767 1066.60738,3489.64479 1064.78393,3489.78136 L1064.78393,3489.78136 L1064.65855,3488.0977 C1066.24445,3487.97903 1070.28287,3484.8759 1072.00733,3483.55046 L1072.00733,3483.55046 L1072.52643,3483.14969 L1072.64301,3483.3109 C1072.65841,3482.84968 1072.6738,3482.40413 1072.687,3481.99889 C1071.54542,3482.76236 1070.19268,3483.31313 1068.85754,3483.83256 C1067.72696,3484.27811 1066.65797,3484.69231 1065.80233,3485.21845 L1065.80233,3485.21845 L1064.9489,3483.77211 C1065.92551,3483.16984 1067.11328,3482.70639 1068.26586,3482.25637 C1070.01012,3481.57126 1071.82257,3480.86824 1072.84317,3479.704 L1072.84317,3479.704 L1073.66361,3480.44956 L1074.41147,3480.48538 C1073.84838,3493.53602 1074.30149,3507.95911 1075.92038,3511.64437 C1076.57365,3509.36515 1076.90359,3506.48815 1076.90359,3502.982 C1076.90359,3494.27039 1073.79339,3388.15252 1072.95755,3359.80785 C1071.78957,3361.22508 1070.45003,3362.02214 1068.94112,3362.11617 C1068.83994,3362.12065 1068.73656,3362.12289 1068.63758,3362.12289 C1065.92551,3362.12289 1063.42019,3359.9198 1061.91348,3358.2518 Z M1060.45846,3499.6458 C1060.52665,3499.70177 1060.8038,3499.84506 1061.13813,3499.89656 L1061.13813,3499.89656 L1060.88518,3501.56679 C1060.42987,3501.49514 1059.78979,3501.28692 1059.37847,3500.92646 L1059.37847,3500.92646 Z M1060.67072,3496.74819 C1060.7675,3496.82432 1061.05345,3496.96089 1061.33719,3497.00119 L1061.33719,3497.00119 L1061.11504,3498.68038 C1060.56514,3498.59754 1059.97346,3498.3535 1059.60393,3498.04676 L1059.60393,3498.04676 Z M1059.77792,3492.55896 C1060.3938,3492.44925 1061.28682,3492.48507 1061.9137,3492.91271 L1061.9137,3492.91271 L1060.98108,3494.31203 C1060.8799,3494.24038 1060.50598,3494.14411 1060.05946,3494.22247 L1060.05946,3494.22247 Z M1060.27678,3488.56048 C1060.57592,3488.85602 1061.07523,3489.02617 1061.61412,3488.99259 L1061.61412,3488.99259 L1061.7175,3490.67849 C1061.64052,3490.68297 1061.56133,3490.68521 1061.48215,3490.68521 C1060.57812,3490.68521 1059.71149,3490.35161 1059.122,3489.77621 L1059.122,3489.77621 Z M1059.68553,3485.20479 C1059.94948,3485.22494 1060.25962,3485.26748 1060.60496,3485.34137 C1060.8997,3485.40406 1061.4254,3485.51824 1061.60796,3485.48018 L1061.60796,3485.48018 L1062.17105,3487.06757 C1061.96649,3487.14817 1061.73994,3487.17056 1061.50898,3487.17056 C1061.09546,3487.17056 1060.66215,3487.08324 1060.26622,3486.99593 C1060.08146,3486.9601 1059.80431,3486.89517 1059.71633,3486.89517 L1059.71633,3486.89517 Z M1060.75959,3480.82861 C1060.97514,3481.06817 1061.29628,3481.07713 1061.7208,3480.85324 L1061.7208,3480.85324 L1062.48625,3482.35331 C1062.04194,3482.5884 1061.59542,3482.70482 1061.16871,3482.70482 C1060.53083,3482.70482 1059.94794,3482.44287 1059.51463,3481.93687 L1059.51463,3481.93687 Z M1072.68964,3476.07965 L1073.79603,3477.34016 C1072.25632,3478.73948 1070.39768,3479.21637 1068.60723,3479.67758 C1067.43046,3479.98208 1066.32187,3480.26866 1065.31887,3480.7948 L1065.31887,3480.7948 L1064.55781,3479.29697 C1065.73019,3478.67903 1066.98174,3478.35438 1068.20031,3478.04094 C1069.86979,3477.60883 1071.45348,3477.20582 1072.68964,3476.07965 L1072.68964,3476.07965 Z M1060.33661,3476.42802 C1060.84471,3476.72356 1061.38141,3476.90939 1061.98409,3476.98551 L1061.98409,3476.98551 L1061.78393,3478.6647 C1060.96569,3478.56171 1060.19804,3478.29528 1059.50297,3477.88779 L1059.50297,3477.88779 Z M1072.57438,3471.76481 L1073.91392,3472.76113 C1072.78334,3474.33732 1067.70672,3476.66356 1065.44116,3476.66356 L1065.44116,3476.66356 L1065.35098,3476.66356 L1065.39717,3474.97541 C1067.04685,3474.9978 1071.74294,3472.92233 1072.57438,3471.76481 L1072.57438,3471.76481 Z M1060.62255,3472.70359 C1060.69294,3472.82001 1060.81392,3472.95658 1060.99208,3472.99688 C1061.12406,3473.03047 1061.28243,3472.99017 1061.4232,3472.89837 L1061.4232,3472.89837 L1062.34262,3474.29993 C1061.95769,3474.55965 1061.52438,3474.69622 1061.09106,3474.69622 C1060.94149,3474.69622 1060.79192,3474.68503 1060.64455,3474.65368 C1060.06166,3474.52606 1059.55576,3474.1544 1059.21702,3473.60587 L1059.21702,3473.60587 Z M1071.93651,3468.3321 L1072.35882,3469.96427 C1069.93269,3470.62028 1067.26901,3471.62555 1064.86047,3472.80098 L1064.86047,3472.80098 L1064.14341,3471.27628 C1066.63993,3470.05831 1069.40919,3469.00826 1071.93651,3468.3321 L1071.93651,3468.3321 Z M1061.07743,3468.03791 C1061.2248,3468.12523 1061.77689,3468.2215 1062.06723,3468.12523 L1062.06723,3468.12523 L1062.57973,3469.73053 C1062.33118,3469.81113 1062.04084,3469.85143 1061.7461,3469.85143 C1061.09502,3469.85143 1060.41095,3469.67008 1060.04143,3469.35439 L1060.04143,3469.35439 Z M1070.46279,3464.29959 L1072.08828,3464.65558 C1071.70995,3466.45791 1068.82851,3467.50124 1065.7689,3468.35651 L1065.7689,3468.35651 L1065.15522,3466.77807 L1065.33118,3466.73329 C1069.60276,3465.531 1070.38141,3464.69588 1070.46279,3464.29959 L1070.46279,3464.29959 Z M1061.4298,3463.75263 C1061.62996,3463.87129 1061.75093,3463.87129 1061.75973,3463.86233 L1061.75973,3463.86233 L1062.89471,3465.09374 C1062.57797,3465.39599 1062.17545,3465.55271 1061.74434,3465.55271 C1061.37261,3465.55271 1060.97448,3465.43629 1060.58956,3465.20792 L1060.58956,3465.20792 Z M1070.36095,3459.57011 L1071.75108,3460.49478 C1070.66669,3462.18516 1066.63927,3463.50164 1064.95879,3463.54418 L1064.95879,3463.54418 L1064.917,3461.85604 C1066.4765,3461.81574 1069.72527,3460.55971 1070.36095,3459.57011 L1070.36095,3459.57011 Z M1061.35457,3458.30176 C1061.97485,3458.23684 1062.56654,3458.32863 1063.11643,3458.60402 L1063.11643,3458.60402 L1062.40157,3460.12424 C1062.12882,3459.99214 1061.84508,3459.93617 1061.54154,3459.98319 L1061.54154,3459.98319 Z M1070.31278,3455.82015 L1071.36638,3457.1232 C1069.85087,3458.39938 1067.0794,3459.6487 1065.06899,3459.97558 L1065.06899,3459.97558 L1064.80944,3458.30759 C1066.51191,3458.02996 1069.03263,3456.89035 1070.31278,3455.82015 L1070.31278,3455.82015 Z M1070.52526,3451.81921 L1071.59205,3453.1133 C1070.45487,3454.08723 1069.01415,3454.59322 1067.61962,3455.07907 C1066.89596,3455.33207 1066.1723,3455.58283 1065.51243,3455.90075 L1065.51243,3455.90075 L1064.80196,3454.37157 C1065.52782,3454.02006 1066.31967,3453.74691 1067.07852,3453.48048 C1068.38947,3453.02375 1069.62123,3452.59163 1070.52526,3451.81921 L1070.52526,3451.81921 Z M1070.64404,3446.36208 L1071.90659,3447.45915 C1070.8486,3448.72413 1069.22091,3449.26819 1067.65041,3449.79657 C1066.75079,3450.10107 1065.90175,3450.38317 1065.22208,3450.77722 L1065.22208,3450.77722 L1064.34885,3449.34207 C1064.38185,3449.24132 1064.43244,3449.15176 1064.49842,3449.06669 L1064.49842,3449.06669 L1064.6414,3449.17415 C1065.40905,3448.77115 1066.28228,3448.47561 1067.12912,3448.18903 C1068.54564,3447.71438 1069.88738,3447.26436 1070.64404,3446.36208 L1070.64404,3446.36208 Z M1069.90322,3442.92668 L1071.33734,3443.77971 C1070.55649,3445.13649 1068.52628,3445.71861 1066.8964,3446.18655 C1066.4037,3446.32536 1065.97918,3446.44626 1065.71523,3446.56492 L1065.71523,3446.56492 L1065.03336,3445.02455 C1065.3501,3444.88126 1065.8538,3444.73125 1066.44329,3444.56109 C1067.57387,3444.23645 1069.4611,3443.69463 1069.90322,3442.92668 L1069.90322,3442.92668 Z M1070.4916,3438.28206 L1071.61779,3439.52465 C1070.11988,3440.93069 1067.3946,3441.89343 1065.50297,3442.18448 L1065.50297,3442.18448 L1065.24782,3440.51201 C1066.9173,3440.25454 1069.31703,3439.3836 1070.4916,3438.28206 L1070.4916,3438.28206 Z M1070.06709,3435.15563 L1071.17347,3436.41838 C1070.15287,3437.34529 1068.58237,3437.69232 1067.31542,3437.96995 C1066.75013,3438.09309 1066.22003,3438.20728 1065.93409,3438.33937 L1065.93409,3438.33937 L1065.25442,3436.799 C1065.69873,3436.5975 1066.28382,3436.46316 1066.96569,3436.31763 C1068.03688,3436.08031 1069.37642,3435.78477 1070.06709,3435.15563 L1070.06709,3435.15563 Z M1070.77931,3430.90819 L1072.20683,3431.77465 C1071.17963,3433.51876 1068.89867,3434.06282 1067.06643,3434.49493 C1066.61331,3434.60688 1066.1888,3434.70539 1065.84126,3434.81957 L1065.84126,3434.81957 L1065.34856,3433.20531 C1065.73129,3433.07994 1066.191,3432.97023 1066.6903,3432.85157 C1068.2168,3432.48886 1070.11724,3432.03884 1070.77931,3430.90819 L1070.77931,3430.90819 Z M1070.16365,3426.85642 L1071.07867,3428.26694 C1069.98988,3429.0013 1067.51976,3430.21032 1065.91627,3430.21032 C1065.7447,3430.21032 1065.58193,3430.19912 1065.43676,3430.16554 L1065.43676,3430.16554 L1065.7513,3428.50874 C1066.56954,3428.66547 1068.89889,3427.70721 1070.16365,3426.85642 L1070.16365,3426.85642 Z M1070.68539,3423.18729 L1071.86436,3424.37615 C1070.71618,3425.56502 1069.19628,3426.0128 1067.85893,3426.41133 C1067.23645,3426.59268 1066.64477,3426.76508 1066.15866,3426.99344 L1066.15866,3426.99344 L1065.4636,3425.45755 C1066.06408,3425.17545 1066.73715,3424.97618 1067.39042,3424.78363 C1068.59359,3424.42765 1069.83415,3424.0627 1070.68539,3423.18729 L1070.68539,3423.18729 Z M1069.40084,3419.60256 L1070.52922,3420.84068 C1069.48002,3421.83252 1067.63898,3422.17955 1066.19826,3422.17955 L1066.19826,3422.17955 L1066.01569,3422.17955 L1066.05308,3420.48917 C1067.22986,3420.55858 1068.72117,3420.24737 1069.40084,3419.60256 L1069.40084,3419.60256 Z M1069.80798,3415.84924 L1070.99575,3417.02915 C1070.08732,3417.98517 1068.88196,3418.10159 1067.81956,3418.2113 C1067.42584,3418.24936 1067.03211,3418.28518 1066.66478,3418.37026 L1066.66478,3418.37026 L1066.27326,3416.73138 C1066.71318,3416.62391 1067.18608,3416.57241 1067.66119,3416.5254 C1068.54762,3416.43584 1069.32187,3416.35972 1069.80798,3415.84924 L1069.80798,3415.84924 Z M1069.45385,3412.0957 L1070.04553,3413.67862 C1068.90615,3414.11073 1066.99912,3414.60105 1065.50781,3414.83613 L1065.50781,3414.83613 L1065.25486,3413.16143 C1066.65159,3412.94649 1068.41565,3412.49647 1069.45385,3412.0957 L1069.45385,3412.0957 Z M1069.97075,3408.95943 L1070.40626,3410.58712 C1068.77418,3411.03938 1067.18608,3411.34835 1065.68157,3411.50284 L1065.68157,3411.50284 L1065.51661,3409.82141 C1066.92653,3409.67588 1068.42664,3409.38482 1069.97075,3408.95943 L1069.97075,3408.95943 Z M1070.10976,3405.19984 L1070.69924,3406.78052 C1069.06716,3407.40741 1067.37569,3407.96043 1065.80519,3408.36343 L1065.80519,3408.36343 L1065.39387,3406.72678 C1066.90498,3406.33497 1068.53706,3405.80659 1070.10976,3405.19984 L1070.10976,3405.19984 Z M1070.05213,3401.89095 L1070.76259,3403.41789 C1069.60122,3403.97538 1067.88115,3404.61795 1066.09949,3404.61795 C1065.99391,3404.61795 1065.88614,3404.61571 1065.78056,3404.60899 L1065.78056,3404.60899 L1065.85534,3402.91861 C1067.06511,3402.99026 1068.55862,3402.6074 1070.05213,3401.89095 L1070.05213,3401.89095 Z M1069.98966,3398.59012 L1070.8233,3400.05213 C1069.46176,3400.8559 1066.7079,3401.24995 1065.84126,3401.27458 L1065.84126,3401.27458 L1065.79727,3399.58196 C1066.59792,3399.56852 1069.01305,3399.16552 1069.98966,3398.59012 L1069.98966,3398.59012 Z M1069.903,3395.33675 L1071.34372,3396.18082 C1070.51228,3397.64955 1067.96077,3397.99882 1066.11533,3398.13539 L1066.11533,3398.13539 L1065.65122,3396.48979 C1065.68641,3396.48307 1065.81179,3396.4674 1065.99435,3396.44949 C1069.16834,3396.21664 1069.79082,3395.54049 1069.903,3395.33675 L1069.903,3395.33675 Z M1069.68458,3392.196 L1070.69199,3393.54383 C1069.66259,3394.3364 1067.78415,3394.63642 1066.59638,3394.63642 C1066.32363,3394.63642 1066.08388,3394.62298 1065.90351,3394.59612 L1065.90351,3394.59612 L1066.16746,3392.92589 C1066.79654,3393.03111 1068.87954,3392.82066 1069.68458,3392.196 L1069.68458,3392.196 Z M1070.11064,3388.64598 L1071.13564,3389.97813 C1069.95667,3390.914 1068.49395,3391.05057 1067.205,3391.17595 C1066.91686,3391.20058 1066.63531,3391.22521 1066.35816,3391.26103 L1066.35816,3391.26103 L1066.1514,3389.58632 C1066.44395,3389.54378 1066.74749,3389.51915 1067.05103,3389.48781 C1068.219,3389.37586 1069.32099,3389.27511 1070.11064,3388.64598 L1070.11064,3388.64598 Z M1070.13351,3384.17844 L1071.11232,3385.54642 C1070.26769,3386.17332 1069.22509,3386.46885 1068.30127,3386.73305 C1067.51822,3386.95694 1066.77476,3387.1674 1066.33485,3387.52562 L1066.33485,3387.52562 L1065.29885,3386.2069 C1065.99831,3385.63374 1066.94413,3385.36507 1067.85695,3385.10312 C1068.6796,3384.87027 1069.53083,3384.6307 1070.13351,3384.17844 L1070.13351,3384.17844 Z M1069.72483,3381.26673 L1071.08637,3382.23171 C1070.24173,3383.46983 1068.56126,3383.74074 1067.26131,3383.74074 C1066.94897,3383.74074 1066.65863,3383.72282 1066.40567,3383.70715 L1066.40567,3383.70715 L1066.54205,3382.02125 C1068.07075,3382.16006 1069.32451,3381.85781 1069.72483,3381.26673 L1069.72483,3381.26673 Z M1069.74617,3377.4561 L1071.06591,3378.48152 C1070.28067,3379.52934 1068.76956,3379.71293 1067.66537,3379.85398 C1067.40142,3379.88532 1067.03409,3379.92786 1066.93291,3379.96816 C1066.9879,3379.95025 1067.14847,3379.8495 1067.23865,3379.63457 L1067.23865,3379.63457 L1065.70995,3378.97409 C1065.9651,3378.36062 1066.59418,3378.28226 1067.46301,3378.17255 C1068.18227,3378.08524 1069.38544,3377.93747 1069.74617,3377.4561 L1069.74617,3377.4561 Z M1069.52225,3374.57171 L1070.8508,3375.57922 C1070.17993,3376.49941 1069.19232,3376.62479 1068.39827,3376.72106 C1067.92316,3376.77704 1067.47665,3376.83749 1067.23909,3377.04571 L1067.23909,3377.04571 L1066.14151,3375.78072 C1066.76619,3375.22099 1067.52504,3375.12696 1068.20031,3375.04636 C1068.86678,3374.95904 1069.2847,3374.89411 1069.52225,3374.57171 L1069.52225,3374.57171 Z M1065.90835,3372.80319 C1066.26248,3371.73522 1067.7186,3371.70836 1070.09854,3371.77105 C1070.38229,3371.77776 1070.63524,3371.78672 1070.842,3371.78672 L1070.842,3371.78672 L1070.842,3373.47934 C1070.62424,3373.47934 1070.35369,3373.46814 1070.05455,3373.45919 C1069.33969,3373.44128 1067.67021,3373.39426 1067.30288,3373.59576 C1067.33148,3373.58009 1067.42606,3373.49949 1067.47665,3373.34724 L1067.47665,3373.34724 Z M1069.97822,3368.56962 L1070.82946,3370.02268 C1069.5867,3370.77943 1067.96121,3371.03915 1066.80424,3371.03915 C1066.67006,3371.03915 1066.54689,3371.03691 1066.43031,3371.02795 L1066.43031,3371.02795 L1066.51829,3369.33757 C1067.48391,3369.38683 1068.98842,3369.17413 1069.97822,3368.56962 L1069.97822,3368.56962 Z M1069.69514,3365.60552 L1070.24063,3367.20411 C1069.8975,3367.32501 1069.40919,3367.43919 1068.91429,3367.55786 C1068.39299,3367.681 1067.52636,3367.88474 1067.3196,3368.02803 C1067.35259,3368.00564 1067.43618,3367.92056 1067.48237,3367.77279 L1067.48237,3367.77279 L1065.89867,3367.2556 C1066.14942,3366.47422 1067.15243,3366.2369 1068.53816,3365.91001 C1068.97368,3365.80926 1069.3982,3365.71075 1069.69514,3365.60552 L1069.69514,3365.60552 Z M1068.55906,3362.95375 L1069.19694,3364.51651 C1068.68663,3364.73369 1068.09935,3364.84563 1067.50106,3364.84563 C1067.26131,3364.84563 1067.02815,3364.82772 1066.7884,3364.79414 L1066.7884,3364.79414 L1067.03255,3363.11943 C1067.56925,3363.20451 1068.12574,3363.14182 1068.55906,3362.95375 L1068.55906,3362.95375 Z M1072.83437,3355.65914 C1072.28668,3356.47858 1071.6378,3357.23758 1070.98453,3357.97418 C1070.27847,3358.77795 1069.6032,3359.54814 1069.0885,3360.36982 C1070.49842,3360.16832 1071.76758,3359.04886 1072.84977,3356.96443 L1072.84977,3356.96443 L1072.87396,3356.97786 C1072.85857,3356.50321 1072.84757,3356.05767 1072.83437,3355.65914 Z M1072.01173,3353.73367 L1070.24767,3353.77397 C1069.73957,3354.52401 1069.10389,3355.22703 1068.47042,3355.90094 C1067.46961,3356.95771 1066.52599,3357.95627 1066.16526,3359.10035 L1066.16526,3359.10035 L1064.64975,3358.60555 C1065.4438,3359.28394 1066.34563,3359.88397 1067.28704,3360.19742 C1067.91832,3358.95259 1068.83774,3357.88014 1069.74837,3356.84577 C1070.66119,3355.81139 1071.51243,3354.81955 1072.01173,3353.73367 L1072.01173,3353.73367 Z M1068.10529,3353.82323 L1066.34563,3353.86129 L1066.58538,3354.1322 C1066.07728,3354.59342 1065.63516,3355.11508 1065.17105,3355.67034 C1064.78833,3356.1226 1064.4078,3356.57486 1063.99208,3356.99577 L1063.99208,3356.99577 L1062.82411,3355.79348 C1063.20683,3355.40838 1063.55877,3354.98971 1063.9085,3354.57327 C1064.09546,3354.34938 1064.28902,3354.12772 1064.48259,3353.90383 L1064.48259,3353.90383 L1061.97287,3353.9598 C1061.97067,3354.39191 1061.96627,3354.96732 1061.95528,3355.6681 C1062.30721,3356.14946 1063.29702,3357.43908 1064.59696,3358.56078 C1065.07427,3357.05846 1066.19166,3355.87184 1067.27165,3354.72775 C1067.56639,3354.41878 1067.84134,3354.12324 1068.10529,3353.82323 L1068.10529,3353.82323 Z M1074.59183,3200.69038 C1071.69279,3200.69038 1069.23807,3201.84342 1067.29364,3204.12488 C1063.21563,3208.89824 1053.66068,3220.08163 1053.66068,3259.33877 C1053.66068,3264.95289 1053.7055,3270.84529 1053.7815,3276.80153 L1053.81144,3279.03769 C1053.81667,3279.41074 1053.822,3279.78394 1053.82746,3280.15723 L1053.86148,3282.39766 C1053.87325,3283.14456 1053.88544,3283.89141 1053.89802,3284.63779 L1053.93693,3286.87512 L1053.93693,3286.87512 L1053.97804,3289.10712 C1054.49101,3316.22056 1055.45786,3341.59428 1055.58311,3344.86309 C1056.90065,3346.10121 1060.75431,3349.86931 1061.72212,3352.2739 L1061.72212,3352.2739 L1072.72879,3352.02762 L1072.6848,3350.55665 L1073.91876,3351.96269 C1073.94408,3351.91974 1073.97463,3351.86521 1074.01004,3351.7963 L1074.04707,3351.7225 C1074.54918,3350.6981 1075.85449,3347.08644 1077.18513,3334.732 C1078.13192,3325.94435 1078.62203,3299.87589 1078.87264,3273.06328 L1078.89414,3270.69596 L1078.89414,3270.69596 L1078.92413,3267.14324 C1079.01011,3256.48911 1079.06086,3245.90935 1079.08996,3236.43914 C1076.65723,3236.49064 1074.16951,3236.90931 1071.76538,3237.31903 C1069.74397,3237.66383 1067.65437,3238.02205 1065.56258,3238.16758 C1065.02808,3238.20565 1064.44959,3238.19669 1063.86671,3238.18773 C1062.79771,3238.1743 1061.70232,3238.15863 1060.84449,3238.45193 L1060.84449,3238.45193 L1060.31439,3236.8511 C1061.44497,3236.46377 1062.68773,3236.4884 1063.8887,3236.49959 C1064.4254,3236.50407 1064.9555,3236.51303 1065.4504,3236.48168 C1067.45861,3236.34063 1069.50862,3235.99136 1071.49043,3235.65328 C1073.96495,3235.23013 1076.52526,3234.79802 1079.09656,3234.74652 C1079.10976,3230.08958 1079.11856,3225.73265 1079.12296,3221.78992 C1079.01518,3221.79664 1078.9074,3221.80783 1078.80182,3221.80783 C1077.76142,3221.80783 1076.831,3221.42498 1076.00616,3221.08242 C1075.61903,3220.91898 1075.22751,3220.75778 1074.82939,3220.63688 C1074.29929,3220.47791 1073.68561,3220.38388 1073.06313,3220.28761 C1071.80277,3220.08834 1070.50062,3219.88236 1069.51961,3219.19278 L1069.51961,3219.19278 L1070.46103,3217.80241 C1071.01642,3218.19235 1071.8819,3218.38018 1072.77868,3218.52913 L1073.31828,3218.61514 C1074.01774,3218.72708 1074.69961,3218.83903 1075.2979,3219.0159 C1075.75101,3219.15248 1076.19532,3219.33383 1076.63304,3219.51518 C1077.52167,3219.8846 1078.27612,3220.20253 1079.11196,3220.10178 L1079.11196,3220.10178 L1079.12516,3220.20477 L1079.12516,3220.20477 L1079.12581,3218.83074 L1079.12581,3218.83074 L1079.12736,3218.1584 C1078.24533,3217.94794 1077.38749,3217.67927 1076.56265,3217.37926 C1075.96877,3217.16656 1075.37268,3216.94938 1074.7612,3216.77027 C1073.89897,3216.51727 1073.00814,3216.30682 1072.11291,3216.09636 C1070.1201,3215.62842 1068.06569,3215.14706 1066.27744,3214.17313 L1066.27744,3214.17313 L1067.05829,3212.68201 C1068.65298,3213.54847 1070.6018,3214.00745 1072.48244,3214.45075 C1073.41066,3214.66793 1074.33228,3214.88286 1075.22311,3215.14706 C1075.86979,3215.33736 1076.49666,3215.5635 1077.11914,3215.78739 C1077.80101,3216.03591 1078.46528,3216.25308 1079.12736,3216.43443 L1079.12736,3216.43443 L1079.12736,3215.43812 C1077.60305,3214.78883 1076.01936,3214.24701 1074.46866,3213.72982 C1072.29548,3213.00218 1070.04751,3212.2499 1067.95572,3211.17746 L1067.95572,3211.17746 L1068.70357,3209.66843 C1070.68099,3210.6849 1072.86957,3211.41702 1074.98556,3212.12452 C1076.35809,3212.5835 1077.75482,3213.06263 1079.12955,3213.61564 L1079.12955,3213.61564 L1079.12955,3211.92078 C1078.68964,3211.77749 1078.23433,3211.63644 1077.75042,3211.49091 C1075.06914,3210.67147 1072.02713,3209.74232 1070.17289,3208.04746 L1070.17289,3208.04746 L1071.27927,3206.78919 C1072.85857,3208.22881 1075.71362,3209.10199 1078.22993,3209.86993 C1078.55107,3209.96845 1078.82381,3210.06024 1079.12955,3210.15651 C1079.12955,3209.69978 1079.12736,3209.25423 1079.12736,3208.82884 C1078.06716,3208.01163 1076.88379,3207.5437 1075.63003,3207.07577 C1074.737,3206.74665 1073.81538,3206.40185 1072.91576,3205.91153 L1072.91576,3205.91153 L1073.7032,3204.42041 C1074.49945,3204.857 1075.32429,3205.16373 1076.19972,3205.49062 C1077.17413,3205.85332 1078.16614,3206.24513 1079.12736,3206.80486 L1079.12736,3206.80486 L1079.12736,3206.43992 L1078.95359,3206.47798 C1078.83481,3205.94064 1078.21893,3205.57346 1077.50407,3205.14806 C1076.88159,3204.78088 1076.24151,3204.39802 1075.7884,3203.80471 L1075.7884,3203.80471 L1077.09935,3202.77033 C1077.3545,3203.10393 1077.83621,3203.38827 1078.33991,3203.68829 C1078.59286,3203.84053 1078.86121,3204.00845 1079.12516,3204.19204 C1079.12387,3203.49593 1079.12259,3202.90495 1079.12174,3202.42933 L1079.12113,3202.05014 C1079.12105,3201.99173 1079.12099,3201.93573 1079.12093,3201.88218 L1079.12076,3201.59042 C1078.33551,3201.2725 1076.61544,3200.69038 1074.59183,3200.69038 Z M1071.50715,3349.11121 L1071.78869,3350.77696 C1071.04964,3350.90458 1070.37217,3351.15758 1069.65291,3351.43073 C1069.23499,3351.58745 1068.81927,3351.74417 1068.38815,3351.87851 L1068.38815,3351.87851 L1067.90425,3350.26201 C1068.30017,3350.13887 1068.68949,3349.99334 1069.07662,3349.84557 C1069.83547,3349.56123 1070.61852,3349.26569 1071.50715,3349.11121 L1071.50715,3349.11121 Z M1072.28382,3346.10054 L1072.48838,3347.77749 C1070.3262,3348.0484 1067.92206,3348.78276 1065.34856,3349.95819 L1065.34856,3349.95819 L1064.66889,3348.42006 C1067.39196,3347.17074 1069.95667,3346.3916 1072.28382,3346.10054 L1072.28382,3346.10054 Z M1072.57482,3342.35954 L1072.93775,3344.00514 C1071.53662,3344.32754 1070.0783,3344.83802 1068.67278,3345.33505 C1066.67336,3346.03807 1064.61016,3346.76796 1062.52497,3347.0232 L1062.52497,3347.0232 L1062.3248,3345.34849 C1064.23403,3345.10892 1066.21365,3344.41262 1068.12948,3343.73871 C1069.579,3343.226 1071.08131,3342.69985 1072.57482,3342.35954 L1072.57482,3342.35954 Z M1073.57915,3337.69498 L1074.14664,3339.28013 C1072.2704,3339.98091 1070.39416,3340.6302 1068.51573,3341.27724 C1067.47093,3341.63995 1066.42393,3342.00265 1065.37253,3342.37207 L1065.37253,3342.37207 L1065.0382,3342.49074 C1064.56969,3342.65194 1063.32253,3343.08181 1063.15536,3343.39526 L1063.15536,3343.39526 L1061.69485,3342.59373 C1062.16995,3341.69144 1063.4677,3341.2459 1064.5081,3340.88991 L1064.5081,3340.88991 L1064.82704,3340.77797 C1065.88504,3340.40631 1066.93203,3340.04136 1067.98123,3339.67866 C1069.85087,3339.03385 1071.71391,3338.38904 1073.57915,3337.69498 L1073.57915,3337.69498 Z M1074.28829,3333.57336 L1074.91077,3335.14284 C1073.37107,3335.77645 1071.62241,3336.26006 1069.93313,3336.72799 L1069.93313,3336.72799 L1068.9776,3336.99352 C1066.4266,3337.70985 1063.87966,3338.51365 1061.99487,3339.92069 L1061.99487,3339.92069 L1061.01386,3338.55719 C1063.3806,3336.79068 1066.493,3335.9287 1069.49982,3335.09582 C1071.21549,3334.61893 1072.83877,3334.17115 1074.28829,3333.57336 L1074.28829,3333.57336 Z M1073.35083,3327.68098 L1074.37363,3329.01538 C1072.85813,3330.21767 1070.85871,3330.91398 1068.92089,3331.58565 C1066.42437,3332.45659 1064.06423,3333.28051 1062.71369,3335.05821 L1062.71369,3335.05821 L1061.40054,3334.02831 C1063.05242,3331.84537 1065.7667,3330.90054 1068.38639,3329.98931 C1070.27363,3329.33106 1072.05308,3328.70865 1073.35083,3327.68098 L1073.35083,3327.68098 Z M1074.28015,3323.25219 L1074.92243,3324.80823 L1072.95161,3325.63663 C1069.13535,3327.23074 1065.19151,3328.88306 1061.97133,3331.11302 L1061.97133,3331.11302 L1061.03651,3329.71593 C1064.39966,3327.38746 1068.42488,3325.7038 1072.31813,3324.07387 L1072.31813,3324.07387 L1074.28015,3323.25219 Z M1075.20309,3320.37943 L1075.47804,3322.04519 L1075.09531,3322.11011 C1070.78195,3322.84 1064.87829,3323.84304 1061.44035,3326.39988 L1061.44035,3326.39988 L1060.45934,3325.03638 C1064.21622,3322.24221 1070.34643,3321.20335 1074.82477,3320.44436 L1074.82477,3320.44436 L1075.20309,3320.37943 Z M1074.70533,3315.71891 L1075.23763,3317.31749 C1072.05044,3318.4168 1068.79067,3319.24296 1065.63868,3320.03777 L1065.63868,3320.03777 L1063.02779,3320.69154 C1062.35032,3320.83931 1061.82682,3320.97364 1061.75203,3321.25127 L1061.75203,3321.25127 L1060.14854,3320.79901 C1060.50268,3319.51835 1061.80922,3319.22953 1062.67806,3319.03698 L1062.67806,3319.03698 L1065.24056,3318.39889 C1068.50253,3317.57497 1071.58413,3316.79806 1074.70533,3315.71891 L1074.70533,3315.71891 Z M1075.75563,3310.80135 L1076.03057,3312.46935 C1073.8244,3312.84324 1071.59623,3313.41417 1069.44505,3313.96494 C1068.02852,3314.32988 1066.612,3314.69259 1065.19107,3315.00604 C1064.91392,3315.06649 1064.59498,3315.12022 1064.26065,3315.17172 C1063.43361,3315.30381 1062.30083,3315.48069 1061.97309,3315.91056 L1061.97309,3315.91056 L1060.65995,3314.86946 C1061.3946,3313.91568 1062.78254,3313.69403 1064.0033,3313.50149 C1064.30464,3313.45447 1064.59059,3313.40969 1064.84134,3313.35372 C1066.24247,3313.04475 1067.6392,3312.68652 1069.03593,3312.32829 C1071.2223,3311.76857 1073.48347,3311.18869 1075.75563,3310.80135 L1075.75563,3310.80135 Z M1075.38874,3307.23476 L1075.65709,3308.90051 C1071.69565,3309.56099 1067.52746,3310.35133 1063.27568,3311.2469 C1062.98974,3311.30511 1062.6642,3311.35213 1062.32766,3311.39467 C1061.56441,3311.49766 1060.61639,3311.62527 1060.27546,3312.01261 L1060.27546,3312.01261 L1059.0393,3310.88195 C1059.79155,3310.03117 1061.02112,3309.86549 1062.10991,3309.71996 C1062.40685,3309.6819 1062.69059,3309.64383 1062.93915,3309.59234 C1067.21732,3308.69006 1071.40531,3307.89748 1075.38874,3307.23476 L1075.38874,3307.23476 Z M1075.03483,3303.47518 L1075.27238,3305.14988 C1073.44893,3305.41408 1071.64088,3305.73424 1069.83063,3306.05441 C1067.55627,3306.45741 1065.20273,3306.86937 1062.86238,3307.16939 C1062.65562,3307.19625 1062.45106,3307.21416 1062.2399,3307.23208 C1061.57563,3307.28581 1060.94655,3307.34178 1060.65401,3307.68434 L1060.65401,3307.68434 L1059.40025,3306.57383 C1060.13491,3305.71409 1061.2281,3305.62006 1062.09913,3305.54617 C1062.28389,3305.5305 1062.47306,3305.51707 1062.65342,3305.49244 C1064.95857,3305.19914 1067.29452,3304.78718 1069.54689,3304.38641 C1071.37473,3304.06625 1073.19818,3303.74385 1075.03483,3303.47518 L1075.03483,3303.47518 Z M1076.12032,3299.72231 L1076.40186,3301.38806 C1072.00931,3302.15601 1067.88731,3302.7135 1063.7939,3303.08963 C1063.51895,3303.1165 1063.22421,3303.12322 1062.91627,3303.1277 C1062.17501,3303.14113 1061.33478,3303.1568 1061.04003,3303.52846 L1061.04003,3303.52846 L1059.74888,3302.46722 C1060.53193,3301.47985 1061.83848,3301.45746 1062.88548,3301.43731 C1063.14942,3301.43284 1063.41117,3301.4306 1063.64433,3301.40821 C1067.69375,3301.03431 1071.77396,3300.48354 1076.12032,3299.72231 L1076.12032,3299.72231 Z M1075.79324,3295.06962 L1076.35853,3296.65701 C1073.9214,3297.55481 1071.27311,3297.65556 1068.71061,3297.75184 C1065.88855,3297.8593 1063.22267,3297.96006 1060.93731,3299.06608 L1060.93731,3299.06608 L1060.22245,3297.53914 C1062.81795,3296.28311 1065.78298,3296.1734 1068.65342,3296.06369 C1071.08615,3295.9719 1073.60246,3295.87786 1075.79324,3295.06962 L1075.79324,3295.06962 Z M1076.06269,3290.90993 L1076.46081,3292.55106 C1072.58736,3293.51827 1069.255,3294.06681 1065.96664,3294.27726 C1065.6367,3294.30189 1065.28257,3294.31309 1064.90864,3294.32204 C1063.81106,3294.35339 1062.5705,3294.38921 1061.87323,3294.74072 L1061.87323,3294.74072 L1061.13417,3293.22721 C1062.16138,3292.71002 1063.5955,3292.66972 1064.86465,3292.6339 C1065.21658,3292.62271 1065.55092,3292.61375 1065.86546,3292.5936 C1069.04824,3292.38762 1072.29042,3291.85252 1076.06269,3290.90993 L1076.06269,3290.90993 Z M1076.86685,3286.95265 L1077.1286,3288.62288 C1073.45751,3289.22515 1069.30251,3289.65502 1064.43706,3289.9416 L1064.43706,3289.9416 L1063.709,3289.97743 C1062.43324,3290.0334 1061.51162,3290.07594 1060.37884,3290.61776 L1060.37884,3290.61776 L1059.67498,3289.08858 C1061.1069,3288.40123 1062.28147,3288.34974 1063.63641,3288.28705 L1063.63641,3288.28705 L1064.34467,3288.25346 C1069.15294,3287.9736 1073.24855,3287.5482 1076.86685,3286.95265 L1076.86685,3286.95265 Z M1076.63062,3284.12557 L1076.63062,3285.81595 L1076.59323,3285.81595 C1074.45744,3285.81595 1072.12809,3285.97268 1069.88012,3286.12493 C1067.62336,3286.27717 1065.30281,3286.4339 1063.14063,3286.4339 C1062.43676,3286.4339 1061.75269,3286.41598 1061.08622,3286.37792 L1061.08622,3286.37792 L1061.183,3284.68978 C1063.7785,3284.83979 1066.82491,3284.63605 1069.77014,3284.43902 C1072.0467,3284.28454 1074.40245,3284.12557 1076.59323,3284.12557 L1076.59323,3284.12557 L1076.63062,3284.12557 Z M1060.3839,3280.41099 C1061.32532,3279.51095 1062.75504,3279.7214 1063.90762,3279.8938 C1064.14077,3279.92962 1064.35633,3279.96097 1064.54769,3279.97888 C1067.46653,3280.26098 1070.60532,3280.40203 1074.41279,3280.37069 L1074.41279,3280.37069 L1074.41939,3282.06107 C1074.21043,3282.06331 1074.00367,3282.06331 1073.79911,3282.06331 C1070.2072,3282.06331 1067.20478,3281.93569 1064.39372,3281.66254 C1064.17377,3281.64015 1063.92741,3281.60433 1063.67226,3281.56627 C1062.9574,3281.46104 1061.88181,3281.2976 1061.51888,3281.64463 L1061.51888,3281.64463 Z M1076.41836,3274.95139 L1076.84288,3276.58804 C1073.79647,3277.40525 1070.59608,3277.37166 1067.48149,3277.34256 C1065.29731,3277.32017 1063.24511,3277.30002 1061.2325,3277.54854 L1061.2325,3277.54854 L1061.03453,3275.87159 C1063.15492,3275.60964 1065.3655,3275.63426 1067.49468,3275.65218 C1070.5037,3275.68128 1073.58751,3275.71039 1076.41836,3274.95139 L1076.41836,3274.95139 Z M1058.90798,3271.1927 C1061.10976,3270.65536 1063.65247,3271.10315 1065.40553,3271.57108 L1065.40553,3271.57108 L1064.98101,3273.20549 C1063.41271,3272.78457 1061.15595,3272.37709 1059.29951,3272.83607 L1059.29951,3272.83607 Z M1067.83958,3271.04113 C1069.62783,3270.32244 1072.3597,3270.37169 1074.54608,3270.40528 C1075.10037,3270.41423 1075.62167,3270.41871 1076.06599,3270.41871 L1076.06599,3270.41871 L1076.08578,3272.10685 C1075.62167,3272.11581 1075.08498,3272.10461 1074.51969,3272.09566 C1072.46528,3272.06207 1069.93137,3272.01954 1068.44886,3272.61285 L1068.44886,3272.61285 Z M1064.59806,3265.71139 C1068.79925,3265.66437 1073.00704,3265.689 1077.21263,3265.71587 L1077.21263,3265.71587 L1078.48178,3265.72482 L1078.46858,3267.41297 L1077.19943,3267.40625 C1073.00924,3267.38386 1068.81025,3267.35699 1064.61566,3267.40177 L1064.61566,3267.40177 L1063.80182,3267.39729 C1062.91759,3267.39729 1060.58384,3267.37714 1060.12413,3267.64358 L1060.12413,3267.64358 L1059.18491,3266.25097 C1059.92837,3265.72482 1061.62864,3265.70244 1063.81282,3265.70915 L1063.81282,3265.70915 Z M1061.20676,3261.21162 C1065.08241,3260.82653 1069.04604,3260.90041 1072.8843,3260.97206 C1074.32062,3260.99892 1075.75035,3261.02579 1077.18447,3261.02803 L1077.18447,3261.02803 L1077.18007,3262.71841 C1075.73935,3262.71393 1074.29863,3262.6893 1072.85131,3262.6602 C1069.07024,3262.59303 1065.155,3262.51915 1061.36953,3262.89304 L1061.36953,3262.89304 L1061.35413,3262.75423 L1061.27715,3263.02066 L1060.43031,3262.42959 L1060.73385,3261.41984 L1060.93841,3261.23849 Z M1077.51991,3255.80016 L1077.95542,3257.43233 C1075.26534,3258.17117 1072.3773,3258.18237 1069.58604,3258.19356 C1066.52203,3258.20476 1063.63179,3258.21595 1061.02969,3259.10704 L1061.02969,3259.10704 L1060.5018,3257.50398 C1063.35464,3256.52781 1066.51763,3256.51661 1069.57724,3256.50318 C1072.26512,3256.49199 1075.04318,3256.48079 1077.51991,3255.80016 L1077.51991,3255.80016 Z M1076.40428,3252.23693 L1076.85739,3253.86238 C1074.82939,3254.4445 1072.53743,3254.43106 1070.31146,3254.41091 C1068.82235,3254.40196 1067.41902,3254.38853 1066.11687,3254.54749 C1065.76714,3254.59003 1065.25244,3254.6057 1064.67835,3254.62361 C1063.81172,3254.64376 1061.78811,3254.6975 1061.43178,3255.05124 L1061.43178,3255.05124 L1060.08564,3254.06612 C1060.74551,3253.10787 1062.38859,3252.99144 1064.63656,3252.93099 C1065.14686,3252.91756 1065.60217,3252.90636 1065.92111,3252.8683 C1067.33104,3252.69814 1068.85314,3252.71158 1070.32246,3252.72053 C1072.42965,3252.73844 1074.60503,3252.75636 1076.40428,3252.23693 L1076.40428,3252.23693 Z M1077.54322,3247.32072 L1077.55642,3249.0111 C1075.03351,3249.03573 1072.52379,3249.65591 1069.86671,3250.31191 C1067.16343,3250.9791 1064.37217,3251.67093 1061.55231,3251.67093 C1061.21358,3251.67093 1060.87045,3251.66197 1060.52731,3251.63958 L1060.52731,3251.63958 L1060.63289,3249.95144 C1063.51873,3250.13503 1066.55855,3249.39171 1069.47738,3248.66854 C1072.10587,3248.01926 1074.82675,3247.34758 1077.54322,3247.32072 L1077.54322,3247.32072 Z M1077.22318,3243.39075 L1077.50693,3245.0565 C1071.10397,3246.18044 1065.40927,3246.7536 1060.5812,3246.75808 L1060.5812,3246.75808 L1060.5812,3245.0677 C1065.31469,3245.06322 1070.917,3244.49901 1077.22318,3243.39075 L1077.22318,3243.39075 Z M1067.54505,3240.59367 L1068.00477,3242.21912 C1066.67402,3242.6087 1064.97375,3242.71393 1063.35706,3242.71393 C1062.27487,3242.71393 1061.22788,3242.66467 1060.35684,3242.62661 L1060.35684,3242.62661 L1060.43163,3240.93847 C1062.35846,3241.02578 1065.57863,3241.17131 1067.54505,3240.59367 L1067.54505,3240.59367 Z M1076.7131,3239.06651 L1076.91766,3240.74346 L1076.34137,3240.81062 C1073.5963,3241.13079 1072.02581,3241.4017 1071.66288,3241.62111 L1071.66288,3241.62111 L1071.40773,3241.18228 L1070.34753,3240.66509 C1070.67087,3239.98446 1071.5551,3239.6643 1076.15221,3239.13144 L1076.15221,3239.13144 L1076.7131,3239.06651 Z M1078.61112,3231.39397 L1079.07303,3233.01942 C1076.64689,3233.73364 1073.97221,3233.85454 1071.38331,3233.9732 C1070.07237,3234.03365 1068.77462,3234.09186 1067.53186,3234.22844 L1067.53186,3234.22844 L1066.41447,3234.35605 C1064.92976,3234.53069 1063.39666,3234.7098 1061.88775,3234.74115 L1061.88775,3234.74115 L1061.85256,3233.05077 C1063.28448,3233.02166 1064.78239,3232.84479 1066.22531,3232.67911 L1066.22531,3232.67911 L1067.35589,3232.54701 C1068.62944,3232.4082 1069.96019,3232.34551 1071.30853,3232.28506 C1073.80065,3232.17087 1076.37415,3232.05445 1078.61112,3231.39397 L1078.61112,3231.39397 Z M1076.69397,3228.36405 L1076.93152,3230.03652 C1073.85431,3230.49102 1070.67593,3230.61192 1067.60312,3230.72834 C1065.88526,3230.79551 1064.16959,3230.86044 1062.48251,3230.98134 L1062.48251,3230.98134 L1062.36594,3229.29543 C1064.07281,3229.17453 1065.80387,3229.10737 1067.54373,3229.04244 C1070.56815,3228.92377 1073.70254,3228.80287 1076.69397,3228.36405 L1076.69397,3228.36405 Z M1078.2913,3224.78671 L1078.2913,3226.47709 C1077.29049,3226.47709 1076.28528,3226.53082 1075.28448,3226.58456 C1073.87455,3226.65844 1072.41183,3226.73904 1070.97991,3226.66292 C1070.35963,3226.63829 1069.54799,3226.68755 1068.68135,3226.74352 C1067.84552,3226.79501 1066.99648,3226.84875 1066.20023,3226.84875 C1065.10045,3226.84875 1064.09744,3226.74576 1063.36498,3226.39873 L1063.36498,3226.39873 L1064.06445,3224.86731 C1064.95308,3225.28822 1066.96789,3225.16061 1068.58017,3225.05762 C1069.51279,3224.99716 1070.39042,3224.94791 1071.0591,3224.97478 C1072.40304,3225.0397 1073.76457,3224.9703 1075.19869,3224.89641 C1076.2281,3224.84268 1077.2575,3224.78671 1078.2913,3224.78671 L1078.2913,3224.78671 Z M1065.52672,3220.16648 C1066.56526,3220.63063 1067.97074,3220.8431 1069.39802,3221.01414 L1070.17663,3221.10459 C1071.12904,3221.20982 1072.06606,3221.31728 1072.9151,3221.48296 C1075.03549,3221.89492 1076.83694,3222.20166 1078.72417,3222.34942 L1078.72417,3222.34942 L1078.5922,3224.03533 C1076.63458,3223.8786 1074.78254,3223.56515 1072.60276,3223.142 C1071.79551,3222.98528 1070.90029,3222.88452 1069.99406,3222.78153 C1068.18821,3222.57779 1066.31857,3222.36733 1064.85805,3221.71357 L1064.85805,3221.71357 Z M1065.91869,3216.3563 C1066.31681,3216.70557 1066.94369,3216.96304 1067.72894,3217.10185 L1067.72894,3217.10185 L1067.44739,3218.76761 C1066.34761,3218.57506 1065.46778,3218.19444 1064.8321,3217.63472 L1064.8321,3217.63472 Z" id="Petit-couteau"></path>
        </g>
    </g>
</svg>