<?xml version="1.0" encoding="utf-8"?>
<!-- Generator: Adobe Illustrator 25.1.0, SVG Export Plug-In . SVG Version: 6.00 Build 0)  -->
<svg version="1.1" id="Calque_1" xmlns="http://www.w3.org/2000/svg" xmlns:xlink="http://www.w3.org/1999/xlink" x="0px" y="0px"
	 viewBox="0 0 279.7 299.2" style="enable-background:new 0 0 279.7 299.2;" xml:space="preserve">
<style type="text/css">
	.st0{fill:none;stroke:#FFFFFF;stroke-width:10;stroke-miterlimit:10;}
	.st1{fill:#FFFFFF;stroke:#FFFFFF;stroke-width:3;stroke-miterlimit:10;}
</style>
<g id="Calque_2_1_">
	<g id="Calque_1-2">
		<path class="st0" d="M60.7,53.1c0,0,19.8,32.9,11,30.7s-43.9-11-50.5-6.6s-11,15.5-11,19.8s8.8,6.6,15.4,11s47.2,23,53.8,60.4
			C81.3,179,64,164,63,167.3c-2.2,6.6,13.2,24.1,6.6,39.5s-30.7,52.7-24.1,54.9c6.6,2.2,94.4,13.2,120.7,26.3c0,0,2.2-41.7,11-41.7
			s37.3,19.8,43.9,15.4c6.6-4.4,32.9-21.9,32.9-26.3s-26.3-76.8-24.1-79s24.1-22,21.9-26.3s-4.4-17.6,11-26.3s1.1-25.2-9.9-25.2
			c-11,0-62.7-21.1-73.7-38.6s-19.7-35.2-30.7-26.4S120,61.9,106.8,61.9S78.2,35.6,60.7,53.1z"/>
		<path class="st1" d="M189.6,108.5c-13.9-20-41.3-25-61.3-11.1c-4.3,3-8.1,6.8-11.1,11.1c-8.3,11.9-10.2,27.1-5.1,40.6
			c1.5,3.9,3.7,7.5,6.4,10.6l32.1,37.7c1.4,1.6,3.8,1.8,5.4,0.4c0.2-0.1,0.3-0.3,0.4-0.4l32-37.6c2.7-3.1,4.9-6.7,6.4-10.6
			C199.7,135.6,197.9,120.4,189.6,108.5z M187.6,146.5c-1.2,3-2.9,5.8-5,8.2l0,0L153.3,189l-29.2-34.3c-2.1-2.4-3.8-5.2-5-8.3
			c-4.2-11.2-2.6-23.8,4.3-33.6c11.5-16.5,34.2-20.7,50.7-9.2c3.6,2.5,6.7,5.6,9.2,9.2C190.2,122.7,191.8,135.2,187.6,146.5
			L187.6,146.5z"/>
		<path class="st1" d="M153.3,112.1c-11.8,0-21.4,9.6-21.4,21.4s9.6,21.4,21.4,21.4s21.4-9.6,21.4-21.4
			C174.7,121.7,165.2,112.2,153.3,112.1z M153.3,147.3c-7.6,0-13.7-6.2-13.7-13.7s6.2-13.7,13.7-13.7c7.6,0,13.7,6.2,13.7,13.7
			C167.1,141.1,160.9,147.2,153.3,147.3z"/>
	</g>
</g>
</svg>
