<svg xmlns="http://www.w3.org/2000/svg" viewBox="0 0 81.1 81.1"><g id="Layer_2" data-name="Layer 2"><g id="Layer_1-2" data-name="Layer 1"><path d="M69.89,0H11.21A11.21,11.21,0,0,0,0,11.21V69.89A11.21,11.21,0,0,0,11.21,81.1H69.89A11.21,11.21,0,0,0,81.1,69.89V11.21A11.21,11.21,0,0,0,69.89,0ZM61.05,36.59a20.91,20.91,0,0,1-8.26-1.9,23.83,23.83,0,0,1-3.18-1.83c0,5.75,0,11.49,0,17.21a14.94,14.94,0,0,1-2.66,7.75,14.66,14.66,0,0,1-11.62,6.31,14.36,14.36,0,0,1-8-2A14.8,14.8,0,0,1,20.1,50.88c-.05-1-.07-2,0-2.93A14.82,14.82,0,0,1,37.24,34.8c0,2.92-.08,5.83-.08,8.74a6.78,6.78,0,0,0-8.62,4.17,7.86,7.86,0,0,0-.26,3.17,6.72,6.72,0,0,0,12.33,2.48,4.63,4.63,0,0,0,.8-2.09c.2-3.52.12-7,.14-10.54,0-7.93,0-15.83,0-23.74,2.57,0,5.13,0,7.69,0a12.21,12.21,0,0,0,3.44,8.21,13.91,13.91,0,0,0,8.33,3.52Z"/></g></g></svg>