<svg xmlns="http://www.w3.org/2000/svg" width="179.523" height="134.708" viewBox="0 0 179.523 134.708"><g transform="translate(-870 -5733.493)"><g transform="translate(896 5836.226)"><path d="M24.207,16.99H20.822L23.737,2.468h3.385Z" transform="translate(37.767 4.479)" fill="#fff"/><path d="M33.718,5.467H30.392l-2.3,11.525H24.7l2.3-11.525H23.541l.611-3H34.329Z" transform="translate(42.698 4.477)" fill="#fff"/><path d="M40.327,16.992l-.2-2.285H35.82L34.7,16.992H31.087L39,2.467h2.631l2.141,14.525ZM39.41,7.67l-2.2,4.283h2.651Z" transform="translate(56.385 4.477)" fill="#fff"/><path d="M49.075,16.99H45.69L47,9.832l-2.591,3.588H42.251L40.923,9.832,39.477,16.99H36.089L39.007,2.468h3.16l1.86,6.4,4.527-6.4h3.323Z" transform="translate(65.457 4.479)" fill="#fff"/><g transform="translate(36.438 5.784)"><path d="M14.025,12.1c.065-4.119,4.24-7.729,10.723-10.042-7.094,2.214-11.731,5.875-11.8,10.09-.076,4.823,5.853,9.117,14.671,11.432-8.225-2.445-13.672-6.711-13.6-11.48" transform="translate(-12.95 -2.055)" fill="#fff"/><path d="M61.566,20.589a44.979,44.979,0,0,1-7.164,1.77,60.816,60.816,0,0,1-10.9.779C27.666,22.885,14.923,16.959,15.035,9.9c.042-2.62,1.851-5.028,4.921-7.006C16.11,5,13.794,7.7,13.746,10.668c-.11,6.832,11.838,12.606,26.973,13.194.5.02.993.034,1.5.042a59.43,59.43,0,0,0,12.713-1.114,33.435,33.435,0,0,0,11.244-4.2,29.393,29.393,0,0,1-4.606,1.995" transform="translate(-11.506 -0.53)" fill="#fff"/><path d="M26.483,6.321a2.758,2.758,0,0,0-2.366-.937c-1.387,0-2.183.855-2.183,1.59,0,.774.653.937,1.246,1.1l1.1.287c2.549.653,3.388,1.835,3.388,3.917,0,3.509-2.918,4.916-6.019,4.916-2.428,0-3.875-.551-5.141-2l2.448-2.141a3.752,3.752,0,0,0,3,1.142c1.325,0,2.3-.734,2.3-1.57,0-.774-.428-1.041-1.224-1.244l-1.1-.287C19,10.339,18.548,8.645,18.548,7.525c0-3.182,2.468-5.1,5.957-5.1a5.39,5.39,0,0,1,4.344,1.818Z" transform="translate(-6.496 -1.386)" fill="#fff"/><path d="M24.207,16.99H20.822L23.737,2.468h3.385Z" transform="translate(1.329 -1.306)" fill="#fff"/><path d="M33.718,5.467H30.392l-2.3,11.525H24.7l2.3-11.525H23.541l.611-3H34.329Z" transform="translate(6.26 -1.307)" fill="#fff"/><path d="M36.153,11.056l1.939,5.934H34.38L32.85,11.483H31.564l-1.12,5.507H27.056L29.974,2.468h5.16c3.039,0,4.162,1.958,4.162,4.2a4.837,4.837,0,0,1-3.143,4.387m-1.59-5.568h-1.8L32.115,8.67h1.775a1.828,1.828,0,0,0,2-1.815,1.216,1.216,0,0,0-1.325-1.367" transform="translate(12.636 -1.306)" fill="#fff"/><path d="M40.327,16.992l-.2-2.285H35.82L34.7,16.992H31.087L39,2.467h2.631l2.141,14.525ZM39.41,7.67l-2.2,4.283h2.651Z" transform="translate(19.947 -1.308)" fill="#fff"/><path d="M49.075,16.99H45.69L47,9.832l-2.591,3.588H42.251L40.923,9.832,39.477,16.99H36.089L39.007,2.468h3.16l1.86,6.4,4.527-6.4h3.323Z" transform="translate(29.02 -1.306)" fill="#fff"/></g><g transform="translate(10.982 8.82)"><path d="M7.44,3.134,5.949,9.1l.045.017a4.989,4.989,0,0,1,4.049-2.085,2.928,2.928,0,0,1,3.225,3.118,6.3,6.3,0,0,1-6.384,5.827c-1.466,0-2.98-.481-2.98-2.085A7.262,7.262,0,0,1,4.061,12.7l2.378-9.57Zm-2.38,9.533A4.018,4.018,0,0,0,4.9,13.826c0,.945.667,1.46,2.068,1.46a5.354,5.354,0,0,0,5.27-5.149A2.243,2.243,0,0,0,9.8,7.732a5.04,5.04,0,0,0-4.471,3.883Z" transform="translate(-3.903 -3.134)" fill="#fff"/><path d="M10.326,4.59l1.308,5.149c.27,1.052.425,1.694.557,2.389h.068c.31-.571.667-1.2,1.244-2.155L16.75,4.59h1.069l-4.136,6.716a15.635,15.635,0,0,1-3.4,4.26,7.143,7.143,0,0,1-2.909,1.5l-.293-.695a7.591,7.591,0,0,0,2.048-.929,7.879,7.879,0,0,0,2.265-2.279.4.4,0,0,0,.07-.374L9.3,4.59Z" transform="translate(1.852 -0.493)" fill="#fff"/></g><rect width="126.895" height="31.973" transform="translate(0 0.002)" fill="none"/></g><g transform="translate(870 5733.493)"><path d="M74.373,39.586c-.09.587-.195,1.174-.265,1.764-.034.288.126.445.4.274.6-.372,1.175-.777,1.765-1.162a8.7,8.7,0,0,1,1.13-.7,1.718,1.718,0,0,1,2.311.679,2.886,2.886,0,0,1,.377.683c.2.6.317,1.205,1.206,1.131.348-.028.506.433.36.78a1.819,1.819,0,0,1-1.713,1.042,1.352,1.352,0,0,1-1.431-1c-.081-.209-.145-.423-.226-.631-.3-.772-.518-.832-1.219-.316s-1.356,1.044-2.057,1.534a5.959,5.959,0,0,1-2.382,1.181c-.747.125-1.052-.036-1.189-.787-.094-.509-.047-1.041-.089-1.56-.036-.434-.21-.532-.571-.273-.6.431-1.184.9-1.754,1.376-1.483,1.238-2.951,2.5-4.436,3.732-.4.333-.849.723-1.39.316a1.124,1.124,0,0,1-.223-1.432c.4-1.04.808-2.077,1.244-3.1.32-.754.7-1.484,1.028-2.233a1.085,1.085,0,0,0-.007-.428,1.142,1.142,0,0,0-.377.1c-.672.467-1.362.914-1.992,1.434-2.868,2.365-5.7,4.778-8.581,7.12-1.587,1.287-3.257,2.469-4.9,3.692a2.665,2.665,0,0,1-.579.32c-.128.052-.381.093-.4.048a.647.647,0,0,1-.089-.5c.583-1.082,1.136-2.186,1.809-3.21,2.789-4.235,5.873-8.258,9.037-12.217,2.345-2.937,4.77-5.812,7.184-8.7,3.28-3.92,7.034-7.391,10.57-11.069,2.45-2.548,4.925-5.073,7.342-7.651,1.678-1.792,3.286-3.652,4.908-5.5a11.717,11.717,0,0,0,.9-1.28c.055-.084.091-.278.052-.308-.1-.078-.282-.161-.383-.121-.827.332-1.661.655-2.458,1.051q-2.794,1.391-5.555,2.849c-1.609.849-3.2,1.733-4.792,2.61-2.214,1.219-4.435,2.427-6.63,3.678-2.356,1.342-4.693,2.718-7.027,4.1q-3.119,1.845-6.211,3.735-1.856,1.131-3.678,2.316c-2.337,1.522-4.673,3.044-6.983,4.6-2.9,1.954-5.751,3.97-8.656,5.912-2.625,1.756-5.3,3.442-7.945,5.169-2.179,1.422-4.336,2.875-6.522,4.285s-4.4,2.772-6.595,4.167-4.367,2.83-6.578,4.2c-2.937,1.824-5.9,3.6-8.854,5.4a1.673,1.673,0,0,1-.59.3A.717.717,0,0,1,.093,56.8a.615.615,0,0,1-.03-.59,10.262,10.262,0,0,1,1.527-1.275c2.687-1.731,5.4-3.428,8.1-5.137,1.884-1.193,3.775-2.379,5.653-3.584,2.187-1.4,4.365-2.827,6.545-4.245Q24.6,40.207,27.3,38.437q3.178-2.069,6.358-4.136,2.987-1.95,5.966-3.911c1.521-1,3.029-2.024,4.554-3.02q3.5-2.286,7.017-4.545c2.693-1.723,5.385-3.448,8.1-5.133,2.337-1.449,4.7-2.858,7.065-4.261,2.971-1.763,5.93-3.548,8.942-5.239q4.468-2.512,9.032-4.848C86.388,2.292,88.5,1.359,90.6.406a5.487,5.487,0,0,1,1.4-.368c.758-.124.978.035.93.818A5.436,5.436,0,0,1,92.5,2.673a14.125,14.125,0,0,1-2.8,3.883c-3.622,3.853-7.3,7.658-10.927,11.5-2.965,3.138-5.96,6.253-8.835,9.474-3.244,3.638-6.411,7.348-9.529,11.1-1.64,1.971-3.1,4.086-4.643,6.14a2.732,2.732,0,0,0-.332.579,1.231,1.231,0,0,0-.038.394,1.148,1.148,0,0,0,.3-.113c.95-.716,1.9-1.429,2.836-2.164,2.6-2.047,5.185-4.117,7.8-6.148a10.037,10.037,0,0,1,1.738-1c.51-.251.928.028.859.591a5.661,5.661,0,0,1-.4,1.39c-.433,1.07-.906,2.123-1.357,3.184a2.313,2.313,0,0,0-.216.629,2.6,2.6,0,0,0,.086.636,2.14,2.14,0,0,0,.494-.185c.7-.485,1.408-.964,2.075-1.491.875-.691,1.709-1.433,2.573-2.138a3.941,3.941,0,0,1,.833-.543c.775-.353,1.206-.1,1.307.738a3.756,3.756,0,0,1,0,.448l.048.007" transform="translate(0 0)" fill="#fff"/><path d="M145.722,48.4a18.694,18.694,0,0,1,.882-2.624,17.586,17.586,0,0,1,6.3-7.1,6.781,6.781,0,0,1,1.74-.746,1.58,1.58,0,0,1,2.023,1.873,3.5,3.5,0,0,1-.449,1.135q-.947,1.514-1.974,2.979a10.105,10.105,0,0,0-1.629,3.166,3,3,0,0,0-.133.653c-.008.267.149.446.421.313a4.4,4.4,0,0,0,.835-.543,52.439,52.439,0,0,0,6.907-7.116,4.867,4.867,0,0,1,1.093-1.1,3.211,3.211,0,0,1,1.472-.406c.6-.024.68.244.305.752-.685.928-1.383,1.845-2.062,2.777a3.267,3.267,0,0,0-.427.781,3.033,3.033,0,0,0-.091.7,2.27,2.27,0,0,0,.72-.235,21.207,21.207,0,0,0,3.558-3.372,6.03,6.03,0,0,1,.805-.926,2.175,2.175,0,0,1,.972-.48c.493-.08.739.323.543.8a4.371,4.371,0,0,1-.334.579c-1.057,1.754-2.135,3.5-3.16,5.27a6.075,6.075,0,0,0-.565,1.57c-.124.493.13.794.593.634a7.746,7.746,0,0,0,1.963-.995,4.121,4.121,0,0,0,1.184-1.321A36.484,36.484,0,0,1,169.8,41.7a13.939,13.939,0,0,1,3.671-3.553,1.5,1.5,0,0,1,2.025.007,1.549,1.549,0,0,0,1.371.283c.735-.136.906.014.688.725a6.12,6.12,0,0,1-.826,1.686c-.765,1.1-1.646,2.12-2.394,3.23a15.045,15.045,0,0,0-1.1,2.182c-.059.129.042.332.069.5a1.567,1.567,0,0,0,.512-.1,17.038,17.038,0,0,0,3.749-3.3c1.415-1.529,2.795-3.09,4.2-4.624a4.438,4.438,0,0,1,1.007-.869,1.052,1.052,0,0,1,.9-.1,1.021,1.021,0,0,1,.232.881,14.565,14.565,0,0,1-.665,2c-.23.589-.526,1.152-.773,1.735a3.377,3.377,0,0,0-.206.747,1.473,1.473,0,0,0,.055.435,1.388,1.388,0,0,0,.371-.165c.478-.413.965-.82,1.407-1.268.81-.822,1.567-1.7,2.4-2.5a3.2,3.2,0,0,1,1.21-.747c.733-.231,1.183.216,1.016.957a6.387,6.387,0,0,1-.422,1.151,27.524,27.524,0,0,1-3.868,5.853c-.74.933-1.446,1.893-2.2,2.81-.193.234-.672.555-.771.485-.379-.267-.155-.67.022-.991.481-.881,1-1.742,1.477-2.626.292-.542.723-1.056.526-1.75-.466.363-.94.716-1.4,1.092-.515.424-.979.921-1.529,1.289-.407.272-.883.665-1.433.283-.59-.411-.32-1.017-.247-1.54a12.481,12.481,0,0,1,.376-1.283c.026-.1-.081-.244-.127-.368a.854.854,0,0,0-.3.116c-.588.571-1.151,1.17-1.751,1.728-.79.734-1.576,1.477-2.419,2.147a2.864,2.864,0,0,1-3.947-.141c-.326-.293-.553-.316-.841-.011a2.4,2.4,0,0,1-2.1.818,1.321,1.321,0,0,1-.744-.39c-.5-.545-.692-.637-1.261-.321-.455.253-.883.554-1.318.84-.124.081-.222.2-.347.28-1.218.74-1.993.393-2.187-1a6.777,6.777,0,0,1,.02-1.11,11.946,11.946,0,0,0,.024-1.227c-.027-.362-.261-.419-.538-.206-.353.272-.677.584-1.042.835a17.556,17.556,0,0,1-1.7,1.064c-.5.264-.866.185-1.107-.345a.614.614,0,0,0-.884-.372,3.1,3.1,0,0,0-1.039.628c-.486.459-.89,1-1.353,1.488a9.923,9.923,0,0,1-1.441,1.381,1.585,1.585,0,0,1-2.533-.918c-.341-.952-.809-1.082-1.6-.442-.23.185-.451.383-.684.567a1.372,1.372,0,0,1-1.563.215c-.618-.3-.67-.841-.753-1.469m2.292-.7a18.393,18.393,0,0,0,1.869-1.208,18.617,18.617,0,0,0,4.348-5.616,4.175,4.175,0,0,0,.249-.89c-.316.059-.634.108-.946.181a1.018,1.018,0,0,0-.285.17,15.165,15.165,0,0,0-4.912,5.395,6.828,6.828,0,0,0-.553,1.338c-.042.136.114.333.229.63m21.03-2.065c-.064.628.17.84.644.7a1.775,1.775,0,0,0,.6-.293,16.431,16.431,0,0,0,4.4-5.111c.224-.43.591-.92.124-1.308-.434-.361-.909-.039-1.294.29-.056.048-.131.074-.185.123a19.4,19.4,0,0,0-4,4.9,5.043,5.043,0,0,0-.282.7" transform="translate(-9.241 -2.391)" fill="#fff"/><path d="M105.463,96.144a2.688,2.688,0,0,1-.554-.06c-.282-.091-.456-.28-.267-.588a7.307,7.307,0,0,1,.515-.729c4-5,7.717-10.218,11.412-15.446,2.215-3.134,4.315-6.35,6.455-9.537,1.786-2.66,3.583-5.312,5.327-8q4.656-7.178,9.25-14.4c3.064-4.809,6.068-9.657,9.149-14.456,3.5-5.458,7.345-10.68,11.26-15.849a59.12,59.12,0,0,1,5.675-6.588,11.87,11.87,0,0,1,2.676-1.965,2.478,2.478,0,0,1,.729-.276c.261-.046.459.1.33.39a2.569,2.569,0,0,1-.491.736c-.643.656-1.312,1.288-1.975,1.926a44.159,44.159,0,0,0-4.962,5.744c-2.447,3.335-4.956,6.627-7.312,10.026-2.527,3.643-4.957,7.357-7.341,11.1-3.864,6.066-7.648,12.183-11.483,18.267-1.093,1.733-2.247,3.428-3.375,5.138-.2.305-.589.657-.286.971a1.352,1.352,0,0,0,1.043.149c2.486-.465,4.946-1.037,7.381-1.732,1.464-.417,2.969-.69,4.45-1.055,2.165-.533,4.322-1.1,6.487-1.633,2.345-.581,4.7-1.143,7.041-1.72.576-.142,1.143-.324,1.719-.465a1.308,1.308,0,0,1,.546,0c.084.017.163.139.209.23.018.035-.051.138-.1.177a1.008,1.008,0,0,1-.3.15q-3.414,1.042-6.831,2.078c-2.1.639-4.182,1.308-6.287,1.913-1.394.4-2.815.7-4.22,1.056-2.74.695-5.474,1.4-8.215,2.1-1.261.318-2.519.662-3.8.9a2.486,2.486,0,0,0-1.7,1.142q-1.923,2.811-3.862,5.613c-2.852,4.1-5.694,8.2-8.575,12.282-2.714,3.84-5.479,7.643-8.211,11.47-.381.534-.733,1.063-1.511.949" transform="translate(-6.631 -0.523)" fill="#fff"/><path d="M90.169,46.195a6.184,6.184,0,0,1,1.81-3.515,10.368,10.368,0,0,1,3.527-2.308c.324-.145.791-.39,1.025-.022.273.429-.235.633-.518.835a9.214,9.214,0,0,0-2.993,2.793,3.949,3.949,0,0,0-.41,1.136.4.4,0,0,0,.53.5,3.723,3.723,0,0,0,1.113-.469,53.149,53.149,0,0,0,6.351-5.271,84.106,84.106,0,0,0,6.8-7.095,42.126,42.126,0,0,0,4.185-5.654q2.994-4.918,6.051-9.8a11.04,11.04,0,0,1,1.292-1.67c.371-.4.684-.3.987.155a1.409,1.409,0,0,1-.1,1.58c-.45.815-.942,1.609-1.439,2.4-1.548,2.459-3.147,4.888-4.652,7.374-1.484,2.453-2.891,4.953-4.305,7.447a18.938,18.938,0,0,0-1.116,2.311c-.309.773-.263.791.5,1.161.066.033.133.068.2.1a1.784,1.784,0,0,1,1.069,2.465c-.311,1.029-.645,2.052-.969,3.077a.9.9,0,0,1-.041.1c-.163.365-.256.878-.774.806a1.071,1.071,0,0,1-.927-.865,2.606,2.606,0,0,1,.066-1.085c.125-.465.357-.9.524-1.355a.689.689,0,0,0-.256-.892.748.748,0,0,0-.923.116,9,9,0,0,0-1.725,2.459c-.194.318-.33.672-.539.977-.352.511-.692.625-1.129.437a1.058,1.058,0,0,1-.721-1.134,2.76,2.76,0,0,1,.353-.925c.86-1.484,1.744-2.952,2.61-4.432.4-.675.79-1.353,1.143-2.051a4.1,4.1,0,0,0,.229-.907,4.776,4.776,0,0,0-.706.489q-1.786,1.77-3.543,3.567c-1.479,1.517-2.928,3.065-4.419,4.57a24.019,24.019,0,0,1-3.912,3.306,8.14,8.14,0,0,1-2.029.917,1.83,1.83,0,0,1-2.21-1.636" transform="translate(-5.718 -0.977)" fill="#fff"/><path d="M120.414,43.722c.679-2.007,1.349-4.137,2.12-6.228a52.56,52.56,0,0,1,4.179-7.9c.539-.936,1.041-1.893,1.558-2.841a1.335,1.335,0,0,0,.2-.4,1.168,1.168,0,0,0-.035-.617c-.032-.071-.351-.072-.508-.016-.523.186-1.027.426-1.548.62-.19.07-.5.16-.592.072a.736.736,0,0,1-.126-.611,2,2,0,0,1,1.424-1.573c.749-.217,1.5-.454,2.256-.622a4.422,4.422,0,0,0,2.591-1.824q3.4-4.5,6.789-9.011a10.136,10.136,0,0,1,2.888-2.431,2.9,2.9,0,0,1,1.055-.353c.669-.107,1.128.363.908,1.01a11.536,11.536,0,0,1-1.063,2.327,25.43,25.43,0,0,1-4.143,4.808,58,58,0,0,0-4.279,4.25c-1.671,1.993-3.177,4.131-4.666,6.269-3.206,4.6-5.6,9.667-8.123,14.652-.118.233-.217.477-.356.7a1.484,1.484,0,0,1-.322.278l-.21-.561" transform="translate(-7.636 -0.633)" fill="#fff"/><path d="M103.085,72.52a3.632,3.632,0,0,1-1.054-.391c-.2-.153.281-.79.861-1.006A6.538,6.538,0,0,1,104.3,70.8c1.916-.262,3.835-.507,5.755-.75,3.026-.384,6.048-.8,9.082-1.108a4.91,4.91,0,0,1,1.786.5c.024.008.016.3-.036.325a2.623,2.623,0,0,1-.643.16q-3.368.5-6.736.989c-2.5.361-5.011.7-7.513,1.072-.954.141-1.9.344-2.914.53" transform="translate(-6.467 -4.372)" fill="#fff"/><path d="M113.35,44.606a6.879,6.879,0,0,1,2.315-4.24,1.49,1.49,0,0,1,1.578-.238.98.98,0,0,1,.567,1.006c-.018.647-.478.97-1.01,1.2-.238.1-.5.152-.736.258a1.874,1.874,0,0,0-1.126,1.425c-.11.572.064.745.662.634.364-.066.716-.2,1.077-.28a.92.92,0,0,1,.312.042.79.79,0,0,1-.052.3,3.971,3.971,0,0,1-2.282,1.5c-.678.207-1.31-.518-1.306-1.609" transform="translate(-7.188 -2.537)" fill="#fff"/><path d="M90.9,31.153a.47.47,0,0,1-.666.459A18.521,18.521,0,0,1,88.2,30.542c-.074-.042-.1-.275-.06-.393a1.309,1.309,0,0,1,1.131-.765,2.047,2.047,0,0,1,1.632,1.77" transform="translate(-5.588 -1.863)" fill="#fff"/></g></g></svg>