<svg xmlns="http://www.w3.org/2000/svg" width="48" height="47.989" viewBox="0 0 48 47.989"><defs><style>.a{fill:#fff;}</style></defs><path class="a" d="M24,13.928a12.3,12.3,0,1,0,12.3,12.3A12.284,12.284,0,0,0,24,13.928Zm0,20.3a8,8,0,1,1,8-8,8.014,8.014,0,0,1-8,8ZM39.677,13.425a2.87,2.87,0,1,1-2.87-2.87A2.863,2.863,0,0,1,39.677,13.425Zm8.149,2.913c-.182-3.844-1.06-7.25-3.876-10.055S37.739,2.6,33.895,2.406c-3.962-.225-15.838-.225-19.8,0-3.834.182-7.239,1.06-10.055,3.866S.356,12.483.163,16.327c-.225,3.962-.225,15.838,0,19.8.182,3.844,1.06,7.25,3.876,10.055s6.211,3.684,10.055,3.876c3.962.225,15.838.225,19.8,0,3.844-.182,7.25-1.06,10.055-3.876s3.684-6.211,3.876-10.055c.225-3.962.225-15.827,0-19.789Zm-5.119,24.04a8.1,8.1,0,0,1-4.562,4.562C34.987,46.193,27.491,45.9,24,45.9s-11,.278-14.146-.964a8.1,8.1,0,0,1-4.562-4.562c-1.253-3.159-.964-10.655-.964-14.146s-.278-11,.964-14.146A8.1,8.1,0,0,1,9.854,7.525C13.013,6.272,20.509,6.561,24,6.561s11-.278,14.146.964a8.1,8.1,0,0,1,4.562,4.562c1.253,3.159.964,10.655.964,14.146S43.96,37.23,42.708,40.378Z" transform="translate(0.005 -2.238)"/></svg>