<svg xmlns="http://www.w3.org/2000/svg" width="374.707" height="136.373" viewBox="0 0 374.707 136.373"><defs><style>.a{fill:#fff;}.b{fill:none;stroke:#fff;stroke-miterlimit:10;stroke-width:0.571px;}</style></defs><g transform="translate(149.106 95.62)"><path class="a" d="M70.592,191.088c.115-7.178,7.388-13.471,18.683-17.5-12.36,3.858-20.434,10.24-20.555,17.579-.135,8.4,10.2,15.886,25.559,19.922-14.326-4.259-23.82-11.693-23.687-20" transform="translate(-68.718 -173.589)"/><path class="a" d="M154.616,207.139a78.466,78.466,0,0,1-12.481,3.085,105.965,105.965,0,0,1-18.99,1.362c-27.592-.442-49.8-10.766-49.6-23.062.073-4.565,3.227-8.761,8.575-12.207-6.7,3.672-10.735,8.369-10.818,13.541-.191,11.9,20.625,21.961,46.992,22.99q1.3.05,2.611.071a103.581,103.581,0,0,0,22.147-1.942,58.2,58.2,0,0,0,19.592-7.311,51.688,51.688,0,0,1-8.022,3.481" transform="translate(-67.394 -172.188)"/><path class="a" d="M97.623,181.58a4.8,4.8,0,0,0-4.126-1.635c-2.422,0-3.8,1.492-3.8,2.771,0,1.35,1.137,1.635,2.169,1.919l1.919.5c4.441,1.137,5.9,3.2,5.9,6.823,0,6.112-5.081,8.564-10.483,8.564-4.229,0-6.752-.958-8.956-3.481l4.265-3.731a6.533,6.533,0,0,0,5.224,1.99c2.31,0,4.016-1.279,4.016-2.737,0-1.35-.746-1.816-2.133-2.168l-1.919-.5c-5.118-1.315-5.9-4.264-5.9-6.22,0-5.544,4.3-8.885,10.377-8.885a9.4,9.4,0,0,1,7.568,3.163Z" transform="translate(-62.798 -172.978)"/><path class="a" d="M100.116,200.231h-5.9l5.083-25.3h5.9Z" transform="translate(-55.623 -172.901)"/><path class="a" d="M120.756,180.153h-5.793l-4.016,20.08h-5.9l4.016-20.08h-6.041l1.06-5.224h17.734Z" transform="translate(-51.1 -172.901)"/><path class="a" d="M127.487,180.185H124.36l-1.137,5.544h3.091a3.188,3.188,0,0,0,3.481-3.163,2.119,2.119,0,0,0-2.311-2.381m2.773,9.7,3.375,10.341h-6.468l-2.665-9.595h-2.233l-1.954,9.595h-5.9l5.083-25.3h8.989c5.3,0,7.25,3.412,7.25,7.321a8.426,8.426,0,0,1-5.472,7.641" transform="translate(-45.25 -172.903)"/><path class="a" d="M141.964,183.99l-3.839,7.464h4.62Zm1.6,16.241-.354-3.979h-7.5l-1.954,3.979h-6.291l13.788-25.3h4.58l3.731,25.3Z" transform="translate(-38.544 -172.901)"/><path class="a" d="M166.292,200.231h-5.9l2.289-12.474-4.514,6.254H154.4l-2.31-6.254-2.525,12.474h-5.9l5.081-25.3h5.51l3.245,11.158,7.889-11.158h5.793Z" transform="translate(-30.226 -172.901)"/><path class="a" d="M70.592,191.088c.115-7.178,7.388-13.471,18.683-17.5-12.36,3.858-20.434,10.24-20.555,17.579-.135,8.4,10.2,15.886,25.559,19.922-14.326-4.259-23.82-11.693-23.687-20" transform="translate(-68.718 -173.589)"/><path class="a" d="M154.616,207.139a78.466,78.466,0,0,1-12.481,3.085,105.965,105.965,0,0,1-18.99,1.362c-27.592-.442-49.8-10.766-49.6-23.062.073-4.565,3.227-8.761,8.575-12.207-6.7,3.672-10.735,8.369-10.818,13.541-.191,11.9,20.625,21.961,46.992,22.99q1.3.05,2.611.071a103.581,103.581,0,0,0,22.147-1.942,58.2,58.2,0,0,0,19.592-7.311,51.688,51.688,0,0,1-8.022,3.481" transform="translate(-67.394 -172.188)"/><path class="a" d="M97.623,181.58a4.8,4.8,0,0,0-4.126-1.635c-2.422,0-3.8,1.492-3.8,2.771,0,1.35,1.137,1.635,2.169,1.919l1.919.5c4.441,1.137,5.9,3.2,5.9,6.823,0,6.112-5.081,8.564-10.483,8.564-4.229,0-6.752-.958-8.956-3.481l4.265-3.731a6.533,6.533,0,0,0,5.224,1.99c2.31,0,4.016-1.279,4.016-2.737,0-1.35-.746-1.816-2.133-2.168l-1.919-.5c-5.118-1.315-5.9-4.264-5.9-6.22,0-5.544,4.3-8.885,10.377-8.885a9.4,9.4,0,0,1,7.568,3.163Z" transform="translate(-62.798 -172.978)"/><path class="a" d="M100.116,200.231h-5.9l5.083-25.3h5.9Z" transform="translate(-55.623 -172.901)"/><path class="a" d="M120.756,180.153h-5.793l-4.016,20.08h-5.9l4.016-20.08h-6.041l1.06-5.224h17.734Z" transform="translate(-51.1 -172.901)"/><path class="a" d="M127.487,180.185H124.36l-1.137,5.544h3.091a3.188,3.188,0,0,0,3.481-3.163,2.119,2.119,0,0,0-2.311-2.381m2.773,9.7,3.375,10.341h-6.468l-2.665-9.595h-2.233l-1.954,9.595h-5.9l5.083-25.3h8.989c5.3,0,7.25,3.412,7.25,7.321a8.426,8.426,0,0,1-5.472,7.641" transform="translate(-45.25 -172.903)"/><path class="a" d="M141.964,183.99l-3.839,7.464h4.62Zm1.6,16.241-.354-3.979h-7.5l-1.954,3.979h-6.291l13.788-25.3h4.58l3.731,25.3Z" transform="translate(-38.544 -172.901)"/><path class="a" d="M166.292,200.231h-5.9l2.289-12.474-4.514,6.254H154.4l-2.31-6.254-2.525,12.474h-5.9l5.081-25.3h5.51l3.245,11.158,7.889-11.158h5.793Z" transform="translate(-30.226 -172.901)"/></g><g transform="translate(0 46.43)"><path class="a" d="M-72.772,149.588V136.257l-9.769-17.44h2.419l5.068,9.176c1.324,2.42,2.42,4.429,3.515,6.621h.092c.913-2.055,2.191-4.2,3.561-6.666l5.25-9.131h2.42L-70.58,136.3v13.285Z" transform="translate(82.541 -118.27)"/><path class="a" d="M-48.436,149.588l-10.227-30.771h2.283l5.433,16.481c1.461,4.475,2.739,8.355,3.607,11.779h.137c.913-3.469,2.328-7.442,3.926-11.779l5.98-16.481h2.329l-11.414,30.771Z" transform="translate(82.541 -118.27)"/><path class="a" d="M-17.253,134.294h-12.28v13.468h13.741v1.826H-31.725V118.817h15.2v1.826H-29.533v11.825h12.28Z" transform="translate(82.541 -118.27)"/><path class="a" d="M-11.407,146.209a12.139,12.139,0,0,0,6.711,2.01c4.611,0,7.441-2.6,7.441-6.393,0-3.423-1.78-5.478-6.254-7.166-4.931-1.781-7.9-4.337-7.9-8.493,0-4.519,3.7-7.806,8.948-7.806a11.945,11.945,0,0,1,6.118,1.415l-.822,1.872A9.821,9.821,0,0,0-2.6,120.187c-4.976,0-6.666,3.2-6.666,5.615,0,3.379,1.964,5.113,6.392,6.849,5.068,2.054,7.761,4.383,7.761,8.948,0,4.474-3.2,8.446-9.77,8.446a13.834,13.834,0,0,1-7.35-2.054Z" transform="translate(82.541 -118.27)"/><path class="a" d="M41.782,148.721a20.367,20.367,0,0,1-7.989,1.369c-9.771,0-15.7-6.117-15.7-15.522,0-10.135,7.076-16.253,16.481-16.253a17.418,17.418,0,0,1,7.442,1.37l-1.188,4.474a15.125,15.125,0,0,0-6.026-1.187c-6.255,0-10.775,3.926-10.775,11.322,0,6.8,3.927,11.094,10.729,11.094a17.026,17.026,0,0,0,6.118-1.1Z" transform="translate(82.541 -118.27)"/><path class="a" d="M51.919,140.868l-2.648,8.72h-5.8l9.861-30.771H60.5l10,30.771H64.428l-2.785-8.72Zm8.811-4.246-2.42-7.579c-.593-1.871-1.1-3.971-1.552-5.752h-.091c-.457,1.781-.959,3.926-1.461,5.752l-2.374,7.579Z" transform="translate(82.541 -118.27)"/><path class="a" d="M99.494,137.034c-.183-3.973-.411-8.766-.365-12.92h-.137c-1,3.743-2.283,7.9-3.652,11.778l-4.52,13.331H86.528l-4.109-13.148c-1.187-3.926-2.282-8.127-3.1-11.961h-.091c-.137,4.017-.32,8.9-.548,13.1L78,149.586h-5.25L74.8,118.815h7.4l4.018,12.373c1.1,3.606,2.054,7.259,2.83,10.682h.137c.822-3.333,1.872-7.122,3.059-10.728l4.246-12.327h7.305l1.78,30.771H100.1Z" transform="translate(82.541 -118.27)"/><path class="a" d="M110.135,119.228a63.271,63.271,0,0,1,8.948-.639c5.753,0,9.679,1.187,12.51,3.561,3.012,2.42,4.839,6.118,4.839,11.322,0,5.524-1.872,9.588-4.794,12.235-3.059,2.786-7.944,4.2-13.924,4.2a62.294,62.294,0,0,1-7.579-.412Zm5.615,26.114a20.923,20.923,0,0,0,3.105.137c7.3.046,11.642-4.018,11.642-11.824.045-6.757-3.881-10.683-10.912-10.683a18.346,18.346,0,0,0-3.835.319Z" transform="translate(82.541 -118.27)"/><path class="a" d="M157.39,135.938h-11.6v9.039h12.97v4.611H140.179V118.817h17.9v4.611H145.794v7.944h11.6Z" transform="translate(82.541 -118.27)"/><path class="a" d="M162.551,119.274a46.439,46.439,0,0,1,8.217-.685c4.11,0,6.712.548,8.766,1.963a6.512,6.512,0,0,1,3.2,5.8c0,2.831-1.78,5.388-5.113,6.62v.137a7.746,7.746,0,0,1,6.209,7.579,8.253,8.253,0,0,1-2.922,6.391c-2.191,1.873-5.8,2.831-11.459,2.831a54.725,54.725,0,0,1-6.894-.412Zm5.57,12.144H171c3.926,0,6.072-1.826,6.072-4.428,0-2.922-2.191-4.247-5.753-4.247a15.177,15.177,0,0,0-3.195.229Zm0,14.107a17.828,17.828,0,0,0,2.967.137c3.607,0,6.848-1.324,6.848-5.113,0-3.607-3.15-5.068-7.03-5.068h-2.785Z" transform="translate(82.541 -118.27)"/><path class="a" d="M215.01,133.883c0,10.318-6.255,16.207-14.7,16.207-8.72,0-14.2-6.665-14.2-15.659,0-9.5,5.981-16.161,14.654-16.161C209.714,118.27,215.01,125.072,215.01,133.883Zm-22.964.411c0,6.3,3.15,11.277,8.537,11.277,5.433,0,8.492-5.068,8.492-11.505,0-5.8-2.876-11.277-8.492-11.277-5.569,0-8.537,5.159-8.537,11.505Z" transform="translate(82.541 -118.27)"/><path class="a" d="M218.711,119.274a48.263,48.263,0,0,1,8.491-.685c4.429,0,7.4.731,9.5,2.465a7.817,7.817,0,0,1,2.649,6.209,8.082,8.082,0,0,1-5.616,7.67v.138c2.237.821,3.561,2.966,4.291,5.934a78.25,78.25,0,0,0,2.42,8.583h-5.753a39.3,39.3,0,0,1-2.054-7.259c-.913-4.017-2.328-5.3-5.524-5.387H224.28v12.646h-5.569Zm5.569,13.559h3.333c3.789,0,6.118-2.008,6.118-5.067,0-3.333-2.329-4.932-5.981-4.932a16.13,16.13,0,0,0-3.47.275Z" transform="translate(82.541 -118.27)"/><path class="a" d="M243.548,119.228a63.267,63.267,0,0,1,8.948-.639c5.753,0,9.679,1.187,12.51,3.561,3.012,2.42,4.839,6.118,4.839,11.322,0,5.524-1.872,9.588-4.794,12.235-3.059,2.786-7.944,4.2-13.924,4.2a62.294,62.294,0,0,1-7.579-.412Zm5.615,26.114a20.921,20.921,0,0,0,3.105.137c7.3.046,11.642-4.018,11.642-11.824.045-6.757-3.881-10.683-10.912-10.683a18.346,18.346,0,0,0-3.835.319Z" transform="translate(82.541 -118.27)"/><path class="a" d="M290.8,135.938H279.2v9.039h12.966v4.611H273.592V118.817h17.9v4.611H279.207v7.944h11.6Z" transform="translate(82.541 -118.27)"/></g><g transform="translate(127.573 109.522)"><path class="a" d="M45.034,181.714h1.44v3.544H46.5a1.744,1.744,0,0,1,.572-.543,1.479,1.479,0,0,1,.755-.191,1.514,1.514,0,0,1,.812.183,1.573,1.573,0,0,1,.474.466,1.431,1.431,0,0,1,.183.594,10.782,10.782,0,0,1,.043,1.143v2.726a6.184,6.184,0,0,1-.057.945,1.916,1.916,0,0,1-.184.594,1.31,1.31,0,0,1-1.256.678,1.349,1.349,0,0,1-.819-.212,3.52,3.52,0,0,1-.551-.523v.65h-1.44Zm2.866,5.1a1.156,1.156,0,0,0-.148-.594.591.591,0,0,0-.558-.254.674.674,0,0,0-.515.219.783.783,0,0,0-.2.558v2.782a1,1,0,0,0,.2.642.634.634,0,0,0,.522.247.588.588,0,0,0,.537-.268,1.306,1.306,0,0,0,.169-.706Z" transform="translate(-45.032 -181.714)"/><path class="a" d="M51.275,184.609l.989,4.462h.027l.975-4.462h1.482l-2.061,8.4a2.552,2.552,0,0,1-.317.8,1.833,1.833,0,0,1-.474.509,1.7,1.7,0,0,1-.571.268,2.527,2.527,0,0,1-.629.077h-.4v-1.355h.324a1.074,1.074,0,0,0,.368-.057.565.565,0,0,0,.275-.247,2.1,2.1,0,0,0,.219-.564c.066-.25.141-.581.226-1l-1.963-6.834Z" transform="translate(-45.032 -181.714)"/></g><g transform="translate(92.312)"><path class="a" d="M10.919,74.749q0,.313.368.332h.389a.972.972,0,0,1,.708.37,1.185,1.185,0,0,1,.3.794,1.208,1.208,0,0,1-.388.913,1.353,1.353,0,0,1-.97.369,1.377,1.377,0,0,1-1.116-.534,2.092,2.092,0,0,1-.437-1.368A5.334,5.334,0,0,1,11,72.443q.447-.6.777-.6.367,0,.368.391a.808.808,0,0,1-.213.428,6.051,6.051,0,0,0-.7,1.133,2.537,2.537,0,0,0-.313.954Zm3.532,0q0,.313.368.332h.388a.955.955,0,0,1,.689.37,1.18,1.18,0,0,1,.3.794,1.208,1.208,0,0,1-.388.913,1.353,1.353,0,0,1-.97.369,1.378,1.378,0,0,1-1.116-.534,2.092,2.092,0,0,1-.437-1.368,5.329,5.329,0,0,1,1.223-3.182q.447-.6.776-.6.369,0,.369.391a.811.811,0,0,1-.214.428,5.981,5.981,0,0,0-.873,1.582,1.552,1.552,0,0,0-.115.5Z" transform="translate(-9.771 -71.84)"/><path class="a" d="M28.307,85.463l1.048-7.453c.156-1.106.349-2.193.582-3.513h-.1c-.466,1.359-.971,2.64-1.437,3.688l-3.2,7.2h-.93L23.8,78.01c-.058-1.087-.1-2.193-.078-3.513h-.058c-.291,1.359-.485,2.407-.737,3.533L21.2,85.463H19.922l3.2-13.082h1.553l.465,7.57c.059,1.009.1,1.96.078,3.008h.058c.35-1.048.757-2.018,1.184-3.027l3.261-7.551h1.611L29.588,85.463Z" transform="translate(-9.771 -71.84)"/><path class="a" d="M35.854,85.463c.02-.524.078-1.048.137-1.785h-.059c-.912,1.591-1.747,1.94-2.426,1.94-1.106,0-1.766-.931-1.766-2.639,0-2.854,1.514-7.046,5.143-7.046a4.762,4.762,0,0,1,1.728.31L37.524,81.6a20.273,20.273,0,0,0-.408,3.862Zm1.184-8.326a1.811,1.811,0,0,0-.582-.078c-2.076,0-3.26,3.455-3.3,5.493-.039,1.184.194,1.863.854,1.863.951,0,1.96-1.843,2.329-3.726Z" transform="translate(-9.771 -71.84)"/><path class="a" d="M46.139,85.308a3.96,3.96,0,0,1-1.534.271c-1.882,0-2.562-1.533-2.562-3.357,0-2.737,1.611-6.289,4.678-6.289a2.2,2.2,0,0,1,.931.155l-.368,1.185a2.156,2.156,0,0,0-.7-.116c-1.941,0-3.106,2.794-3.106,4.91,0,1.378.408,2.309,1.495,2.309a3.323,3.323,0,0,0,1.145-.233Z" transform="translate(-9.771 -71.84)"/><path class="a" d="M54.58,76.069l-1.165,6.173c-.252,1.377-.349,2.464-.427,3.221H51.746l.117-1.474h-.039A2.969,2.969,0,0,1,49.3,85.618c-1.107,0-1.573-.912-1.573-1.921a7.668,7.668,0,0,1,.156-1.5l1.145-6.133h1.4l-1.107,5.9a6.608,6.608,0,0,0-.175,1.476c0,.582.233.97.816.97.931,0,1.9-1.261,2.212-2.93l1.009-5.416Z" transform="translate(-9.771 -71.84)"/><path class="a" d="M54.909,85.463l1.785-9.394h1.4l-1.786,9.394Zm2.1-11.762a1.032,1.032,0,0,1,.951-1.009.753.753,0,0,1,.757.912.969.969,0,0,1-.99.99c-.509,0-.742-.369-.722-.894Z" transform="translate(-9.771 -71.84)"/><path class="a" d="M58.42,84.007a2.532,2.532,0,0,0,1.456.446,1.477,1.477,0,0,0,1.514-1.59,2.318,2.318,0,0,0-.951-1.826,3.291,3.291,0,0,1-1.223-2.29,2.763,2.763,0,0,1,2.912-2.833,2.833,2.833,0,0,1,1.474.349l-.387,1.087a2.214,2.214,0,0,0-1.087-.291,1.4,1.4,0,0,0-1.514,1.456,2.036,2.036,0,0,0,.873,1.572,3.42,3.42,0,0,1,1.32,2.465,2.821,2.821,0,0,1-3.067,3.027,3.278,3.278,0,0,1-1.746-.5Z" transform="translate(-9.771 -71.84)"/><path class="a" d="M63.854,85.463l1.786-9.394h1.4l-1.786,9.394ZM65.95,73.7a1.033,1.033,0,0,1,.951-1.009.753.753,0,0,1,.757.912.969.969,0,0,1-.99.99C66.163,74.594,65.931,74.225,65.95,73.7Z" transform="translate(-9.771 -71.84)"/><path class="a" d="M67.327,85.463l1.165-6.172c.252-1.378.388-2.465.484-3.222H70.2l-.156,1.475h.039a3.011,3.011,0,0,1,2.523-1.63c1.165,0,1.611.893,1.611,1.882a8.368,8.368,0,0,1-.175,1.553L72.9,85.463H71.5l1.145-6.1a6.81,6.81,0,0,0,.136-1.3c0-.583-.233-.951-.815-.951-.874,0-1.922,1.338-2.252,3.105l-.99,5.24Z" transform="translate(-9.771 -71.84)"/><path class="a" d="M80.116,85a4.524,4.524,0,0,1-2.213.582c-1.98,0-2.62-1.513-2.62-3.318,0-2.543,1.417-6.328,4.114-6.328a1.893,1.893,0,0,1,1.922,2.116c0,2.29-2,3.261-4.58,3.261a5.846,5.846,0,0,0,.058,1.9,1.428,1.428,0,0,0,1.436,1.2,3.227,3.227,0,0,0,1.689-.5Zm-.932-7.879c-.854,0-1.747,1.028-2.271,3.066,1.514,0,3.1-.5,3.1-2.038.005-.663-.286-1.031-.829-1.031Z" transform="translate(-9.771 -71.84)"/><path class="a" d="M84.365,85.463l1.164-6.172c.252-1.378.388-2.465.486-3.222h1.222l-.155,1.514h.038a2.934,2.934,0,0,1,2.427-1.65,1.564,1.564,0,0,1,1.533,1.65,3.049,3.049,0,0,1,2.484-1.65c1.087,0,1.573.854,1.573,1.883a8.855,8.855,0,0,1-.214,1.688L93.8,85.463H92.419l1.126-5.978A7.409,7.409,0,0,0,93.7,78.03c0-.563-.232-.912-.776-.912-.854,0-1.825,1.281-2.193,3.105l-.99,5.24H88.382l1.126-5.978a7.079,7.079,0,0,0,.155-1.436c0-.563-.213-.931-.757-.931-.776,0-1.844,1.358-2.174,3.105l-.989,5.24Z" transform="translate(-9.771 -71.84)"/><path class="a" d="M101.034,85a4.517,4.517,0,0,1-2.212.582c-1.98,0-2.621-1.513-2.621-3.318,0-2.543,1.417-6.328,4.115-6.328a1.893,1.893,0,0,1,1.922,2.116c0,2.29-2,3.261-4.581,3.261a5.846,5.846,0,0,0,.058,1.9,1.429,1.429,0,0,0,1.436,1.2,3.227,3.227,0,0,0,1.689-.5Zm-.932-7.879c-.854,0-1.746,1.028-2.27,3.066,1.514,0,3.1-.5,3.1-2.038,0-.663-.286-1.031-.832-1.031Zm2.834-4.737L100.743,75H99.714l1.67-2.62Z" transform="translate(-9.771 -71.84)"/><path class="a" d="M102.431,85.463l1.183-6.307c.234-1.262.35-2.388.408-3.087h1.223c-.039.485-.059.99-.155,1.766h.058c.582-1.164,1.4-1.921,2.348-1.921a1.123,1.123,0,0,1,.252.019l-.271,1.476c-.039,0-.136-.02-.194-.02-1.243,0-2.271,1.747-2.543,3.145l-.912,4.929Z" transform="translate(-9.771 -71.84)"/><path class="a" d="M107.224,85.463l1.785-9.394h1.4l-1.786,9.394Zm2.1-11.762a1.031,1.031,0,0,1,.95-1.009.753.753,0,0,1,.758.912.969.969,0,0,1-.99.99c-.509,0-.742-.369-.722-.894Z" transform="translate(-9.771 -71.84)"/><path class="a" d="M114.539,73.876l-.446,2.193h1.766l-.213,1.068H113.88l-1.01,5.356a7.043,7.043,0,0,0-.136,1.185c0,.465.2.718.66.718a2.464,2.464,0,0,0,.563-.039l-.116,1.087a3.1,3.1,0,0,1-1.01.135,1.4,1.4,0,0,1-1.552-1.494,8.3,8.3,0,0,1,.174-1.533l1.029-5.415h-1.126l.195-1.068H112.7l.291-1.591Z" transform="translate(-9.771 -71.84)"/><path class="a" d="M120.3,85a4.524,4.524,0,0,1-2.213.582c-1.98,0-2.62-1.513-2.62-3.318,0-2.543,1.417-6.328,4.115-6.328a1.893,1.893,0,0,1,1.921,2.116c0,2.29-2,3.261-4.58,3.261a5.845,5.845,0,0,0,.058,1.9,1.428,1.428,0,0,0,1.436,1.2,3.227,3.227,0,0,0,1.689-.5Zm-.932-7.879c-.854,0-1.747,1.028-2.271,3.066,1.514,0,3.106-.5,3.106-2.038,0-.663-.288-1.031-.831-1.031Z" transform="translate(-9.771 -71.84)"/><path class="a" d="M124.553,85.463,127.1,72.032h1.4l-2.55,13.431Z" transform="translate(-9.771 -71.84)"/><path class="a" d="M132.392,72.206a27.069,27.069,0,0,1-2.387,4.465l-.95.136a29.03,29.03,0,0,0,1.8-4.406Z" transform="translate(-9.771 -71.84)"/><path class="a" d="M135.012,85a4.517,4.517,0,0,1-2.212.582c-1.98,0-2.62-1.513-2.62-3.318,0-2.543,1.416-6.328,4.114-6.328a1.893,1.893,0,0,1,1.922,2.116c0,2.29-2,3.261-4.581,3.261a5.846,5.846,0,0,0,.058,1.9,1.429,1.429,0,0,0,1.437,1.2,3.223,3.223,0,0,0,1.688-.5Zm-.932-7.879c-.854,0-1.746,1.028-2.271,3.066,1.515,0,3.106-.5,3.106-2.038,0-.663-.291-1.031-.835-1.031Z" transform="translate(-9.771 -71.84)"/><path class="a" d="M138.757,76.069l.5,2.019c.135.64.213,1.164.349,1.63h.039c.33-.582.621-1.087.912-1.572l1.223-2.077h1.52l-3.145,4.677,1.32,4.717h-1.456l-.485-2.077c-.116-.543-.232-.989-.369-1.708h-.038c-.291.524-.563,1.029-.912,1.65l-1.262,2.135h-1.514l3.183-4.774-1.32-4.62Z" transform="translate(-9.771 -71.84)"/><path class="a" d="M146.752,85.308a3.951,3.951,0,0,1-1.533.271c-1.883,0-2.562-1.533-2.562-3.357,0-2.737,1.611-6.289,4.677-6.289a2.2,2.2,0,0,1,.932.155l-.369,1.185a2.144,2.144,0,0,0-.7-.116c-1.941,0-3.106,2.794-3.106,4.91,0,1.378.408,2.309,1.495,2.309a3.323,3.323,0,0,0,1.145-.233Z" transform="translate(-9.771 -71.84)"/><path class="a" d="M152.787,85a4.517,4.517,0,0,1-2.212.582c-1.98,0-2.621-1.513-2.621-3.318,0-2.543,1.417-6.328,4.115-6.328a1.893,1.893,0,0,1,1.922,2.116c0,2.29-2,3.261-4.581,3.261a5.845,5.845,0,0,0,.058,1.9,1.429,1.429,0,0,0,1.436,1.2,3.227,3.227,0,0,0,1.689-.5Zm-.932-7.879c-.854,0-1.746,1.028-2.27,3.066,1.514,0,3.1-.5,3.1-2.038.005-.663-.285-1.031-.83-1.031Z" transform="translate(-9.771 -71.84)"/><path class="a" d="M154.183,85.463l2.543-13.431h1.4l-2.542,13.431Z" transform="translate(-9.771 -71.84)"/><path class="a" d="M157.657,85.463,160.2,72.032h1.4l-2.543,13.431Z" transform="translate(-9.771 -71.84)"/><path class="a" d="M166.292,85a4.517,4.517,0,0,1-2.212.582c-1.98,0-2.62-1.513-2.62-3.318,0-2.543,1.416-6.328,4.114-6.328a1.893,1.893,0,0,1,1.922,2.116c0,2.29-2,3.261-4.581,3.261a5.851,5.851,0,0,0,.059,1.9,1.428,1.428,0,0,0,1.436,1.2,3.23,3.23,0,0,0,1.689-.5Zm-.931-7.879c-.854,0-1.747,1.028-2.271,3.066,1.514,0,3.1-.5,3.1-2.038,0-.663-.3-1.031-.834-1.031Z" transform="translate(-9.771 -71.84)"/><path class="a" d="M167.689,85.463l1.164-6.172c.252-1.378.389-2.465.486-3.222h1.222l-.155,1.475h.039a3.01,3.01,0,0,1,2.523-1.63c1.165,0,1.611.893,1.611,1.882a8.453,8.453,0,0,1-.175,1.553l-1.145,6.114h-1.4l1.145-6.1a6.9,6.9,0,0,0,.135-1.3c0-.583-.232-.951-.814-.951-.874,0-1.922,1.338-2.252,3.105l-.99,5.24Z" transform="translate(-9.771 -71.84)"/><path class="a" d="M179.74,85.308a3.955,3.955,0,0,1-1.533.271c-1.883,0-2.563-1.533-2.563-3.357,0-2.737,1.612-6.289,4.678-6.289a2.2,2.2,0,0,1,.932.155l-.369,1.185a2.156,2.156,0,0,0-.7-.116c-1.941,0-3.1,2.794-3.1,4.91,0,1.378.408,2.309,1.5,2.309a3.323,3.323,0,0,0,1.145-.233Z" transform="translate(-9.771 -71.84)"/><path class="a" d="M185.775,85a4.521,4.521,0,0,1-2.213.582c-1.98,0-2.62-1.513-2.62-3.318,0-2.543,1.417-6.328,4.115-6.328a1.893,1.893,0,0,1,1.921,2.116c0,2.29-2,3.261-4.58,3.261a5.846,5.846,0,0,0,.058,1.9,1.428,1.428,0,0,0,1.436,1.2,3.224,3.224,0,0,0,1.689-.5Zm-.932-7.879c-.854,0-1.746,1.028-2.271,3.066,1.514,0,3.106-.5,3.106-2.038,0-.663-.291-1.031-.835-1.031Z" transform="translate(-9.771 -71.84)"/><path class="a" d="M192.662,74.635c0-.207-.123-.316-.369-.33h-.387a.967.967,0,0,1-.689-.361,1.189,1.189,0,0,1-.3-.812,1.223,1.223,0,0,1,.388-.92,1.42,1.42,0,0,1,2.066.162,2.1,2.1,0,0,1,.437,1.369,5.264,5.264,0,0,1-1.2,3.182q-.445.6-.776.6a.343.343,0,0,1-.388-.389.809.809,0,0,1,.213-.427,5.916,5.916,0,0,0,.7-1.125,2.523,2.523,0,0,0,.3-.949Zm3.513,0c0-.207-.117-.316-.35-.33h-.388a.984.984,0,0,1-.708-.361,1.189,1.189,0,0,1-.3-.812,1.223,1.223,0,0,1,.388-.92,1.35,1.35,0,0,1,.97-.371,1.38,1.38,0,0,1,1.116.533,2.1,2.1,0,0,1,.437,1.369,5.273,5.273,0,0,1-1.222,3.182q-.467.6-.777.6c-.246,0-.368-.129-.368-.389a.8.8,0,0,1,.213-.427,6.611,6.611,0,0,0,.679-1.125,2.511,2.511,0,0,0,.31-.949Z" transform="translate(-9.771 -71.84)"/><line class="b" x2="177.407" transform="translate(3.528 29.069)"/></g></svg>