<svg xmlns="http://www.w3.org/2000/svg" width="48" height="48" viewBox="0 0 48 48"><defs><style>.a{fill:#fff;}</style></defs><path class="a" d="M48,24.563A24,24,0,0,1,16.9,47.488a26.978,26.978,0,0,0,2.981-6.29c.29-1.123,1.49-5.71,1.49-5.71.784,1.49,3.068,2.758,5.5,2.758,7.239,0,12.455-6.658,12.455-14.932,0-7.926-6.474-13.858-14.8-13.858C14.168,9.456,8.661,16.4,8.661,23.982c0,3.523,1.877,7.906,4.868,9.3.455.213.7.116.8-.319.077-.329.484-1.965.668-2.719a.718.718,0,0,0-.165-.687,9.451,9.451,0,0,1-1.771-5.477A10.386,10.386,0,0,1,23.9,13.666c5.894,0,10.026,4.016,10.026,9.765,0,6.494-3.281,10.994-7.548,10.994a3.481,3.481,0,0,1-3.552-4.335c.677-2.855,1.984-5.932,1.984-7.994,0-1.839-.987-3.377-3.039-3.377-2.41,0-4.345,2.487-4.345,5.826a8.648,8.648,0,0,0,.716,3.561S15.774,38.15,15.339,40.027a23.231,23.231,0,0,0-.087,6.89A24,24,0,1,1,48,24.563Z" transform="translate(0 -0.563)"/></svg>