<svg xmlns="http://www.w3.org/2000/svg" width="85.805" height="103" viewBox="0 0 85.805 103"><defs><style>.a{fill:#fff;}</style></defs><g transform="translate(-0.341 -0.735)"><path class="a" d="M50.817.735C29.948.735,22.584,33.064,15.724,59.07,13.242,56.57,5.606,48.975,5.6,48.988a2.96,2.96,0,0,0-4.38.027,3.09,3.09,0,0,0,0,4.31c.063.054,10.347,10.279,13.9,13.824a3.086,3.086,0,0,0,3.817.686,4.052,4.052,0,0,0,1.711-2.495C32.832,10.9,43.72,6.845,50.788,6.845a12.7,12.7,0,0,1,12.8,13.137c8.867,0,14.424,11.617,7.288,18.768,5.916,2.854,8.555,6.364,8.555,10.8a9.153,9.153,0,0,1-9.183,8.972c-5.4,0-8.15-3.463-12.36-3.478A3.029,3.029,0,0,0,54.818,58.1v10.99H46.869V58.146A2.974,2.974,0,0,0,44,55.081a6.147,6.147,0,0,0-.67.042L32.685,56.43a3.181,3.181,0,0,0-2.47,3.02,3.108,3.108,0,0,0,3.27,3.057,1.953,1.953,0,0,0,.531-.028c-.019,0,6.739-.856,6.739-.856V72.471a3.118,3.118,0,0,0,2.964,2.719H57.863a3.136,3.136,0,0,0,3.074-3.078V62.205a20.035,20.035,0,0,0,9.188,2.5,15.3,15.3,0,0,0,9.1-27.734,17.079,17.079,0,0,0-10.1-22.093A18.843,18.843,0,0,0,50.817.735" transform="translate(0 0)"/><path class="a" d="M50.817.735C29.948.735,22.584,33.064,15.724,59.07,13.242,56.57,5.606,48.975,5.6,48.988a2.96,2.96,0,0,0-4.38.027,3.09,3.09,0,0,0,0,4.31c.063.054,10.347,10.279,13.9,13.824a3.086,3.086,0,0,0,3.817.686,4.052,4.052,0,0,0,1.711-2.495C32.832,10.9,43.72,6.845,50.788,6.845a12.7,12.7,0,0,1,12.8,13.137c8.867,0,14.424,11.617,7.288,18.768,5.916,2.854,8.555,6.364,8.555,10.8a9.153,9.153,0,0,1-9.183,8.972c-5.4,0-8.15-3.463-12.36-3.478A3.029,3.029,0,0,0,54.818,58.1v10.99H46.869V58.146A2.974,2.974,0,0,0,44,55.081a6.147,6.147,0,0,0-.67.042L32.685,56.43a3.181,3.181,0,0,0-2.47,3.02,3.108,3.108,0,0,0,3.27,3.057,1.953,1.953,0,0,0,.531-.028c-.019,0,6.739-.856,6.739-.856V72.471a3.118,3.118,0,0,0,2.964,2.719H57.863a3.136,3.136,0,0,0,3.074-3.078V62.205a20.035,20.035,0,0,0,9.188,2.5,15.3,15.3,0,0,0,9.1-27.734,17.079,17.079,0,0,0-10.1-22.093A18.843,18.843,0,0,0,50.817.735M41.909,87.286c0,2.556,2.86,4.1,7.573,6.332,3.738,1.743,5.888,3.59,5.888,5.076,0,2.4-2.588,3.251-5.014,3.251-3.754,0-5.97-1.492-7.2-4.84l-.107-.283h-.3c-.659,0-1.185.031-1.478.386a1.427,1.427,0,0,0-.08,1.231c-.008-.01.829,3.433.829,3.433.224.837.526.973,1.867,1.236a40.7,40.7,0,0,0,6.194.626c7.172,0,10.373-2.9,10.373-5.787,0-2.1-2.084-4.1-6.58-6.344l-2.043-.982c-3.076-1.461-4.94-2.329-4.94-3.871,0-1.493,1.929-2.531,4.682-2.531,3.595,0,4.553,2,4.994,3.745l.077.327h.34c.8,0,1.3-.066,1.6-.387a.851.851,0,0,0,.2-.729L58.5,84.2c-.079-.958-.808-1.095-1.822-1.3a24.951,24.951,0,0,0-4.824-.475c-6.23,0-9.948,1.819-9.948,4.859m20.656,6.02c0,5.177,4.5,10.429,13.13,10.429a16.994,16.994,0,0,0,8.612-1.96l.491-.258L84,100.63l.044.045a.649.649,0,0,0-.635-.318l-.419.144a14.157,14.157,0,0,1-6.267,1.224c-4.461,0-9.26-2.9-9.26-9.284,0-6.074,5.209-8.22,9.649-8.22,3.2,0,4.9,1.137,5.218,3.493l.036.384h.4c.38,0,1.392,0,1.392-.756V83.8c0-.873-1-.992-1.421-1.055l-.418-.06a29.881,29.881,0,0,0-4.6-.261c-8.784,0-15.155,4.576-15.155,10.879M30.075,82.683l-7.767.063-5.175-.085-.787-.018a.769.769,0,0,0-.793.809.794.794,0,0,0,.857.917c3.128,0,3.243.251,3.272,1.447l.03.753.049,3.19v6.864c0,1.135-.041,2.946-.115,4.4-.021.422-.042.819-2.8.819-.783,0-1.246.158-1.246.914a.689.689,0,0,0,.751.809h.173c.33-.016,1.205-.057,5.527-.057,4.6,0,5.527.048,5.841.057h.162c.6,0,1.13-.057,1.13-.809,0-.843-.7-.914-1.866-.914-2.774,0-2.8-.4-2.817-.81-.066-1.34-.122-3.149-.122-4.414V94.143H26.7c3.561,0,3.955.1,4.465,2.835a.9.9,0,0,0,1.019.671c.837,0,.929-.456.929-.659l-.071-1.027a21.655,21.655,0,0,1-.117-2.31V89.447c0-.63-.762-.63-1.168-.63-.671,0-.828.425-1.254,2.414-.2.754-1.666,1.193-4.033,1.193h-2.1V86.245c0-1.683.3-1.7.669-1.7,1.362-.063,4.662-.176,5.654-.176a4.466,4.466,0,0,1,2.366.582,26.612,26.612,0,0,1,3.215,2.278c.535.428.835.68,1.27.68.258,0,1.007,0,1.007-.647a2.47,2.47,0,0,0-.312-.838c-.285-.636-.769-1.676-1.383-3.278-.178-.509-.76-.509-1.849-.509l-4.937.048ZM79.322,6.991h1.1a1.893,1.893,0,0,0,1.052-.224.729.729,0,0,0,.293-.621.746.746,0,0,0-.282-.608,2.013,2.013,0,0,0-1.13-.222h-1.03Zm3.79,3.125h-1.1a10.571,10.571,0,0,0-1.354-2.122,1.3,1.3,0,0,0-.8-.235h-.534v2.357h-.9V4.568h1.933A5.1,5.1,0,0,1,81.68,4.7a1.268,1.268,0,0,1,.757.513,1.415,1.415,0,0,1,.3.857A1.5,1.5,0,0,1,82.313,7.1a1.658,1.658,0,0,1-1.178.526v.016c.327.082.766.546,1.292,1.4l.684,1.079Zm-2.427,1.456A4.136,4.136,0,0,0,83.73,10.31a4.206,4.206,0,0,0,1.285-3.056,4.121,4.121,0,0,0-1.271-3.037,4.213,4.213,0,0,0-3.059-1.266A4.16,4.16,0,0,0,77.636,4.21a4.178,4.178,0,0,0-1.27,3.044A4.172,4.172,0,0,0,77.628,10.3a4.162,4.162,0,0,0,3.056,1.27M80.706,2.1a5,5,0,0,1,3.637,1.5,4.954,4.954,0,0,1,1.53,3.652,4.979,4.979,0,0,1-1.518,3.65,5.187,5.187,0,0,1-7.317.013,4.961,4.961,0,0,1-1.529-3.663A4.942,4.942,0,0,1,77.038,3.61,4.993,4.993,0,0,1,80.706,2.1" transform="translate(0 0)"/><path class="a" d="M150.171,13.7A5.45,5.45,0,0,1,144.7,8.261a5.209,5.209,0,0,1,1.6-3.833,5.438,5.438,0,0,1,7.7-.01,5.212,5.212,0,0,1,1.6,3.842,5.216,5.216,0,0,1-1.6,3.837,5.258,5.258,0,0,1-3.842,1.6m0-10.324a4.76,4.76,0,0,0-3.478,1.439,4.645,4.645,0,0,0-1.45,3.447,4.654,4.654,0,0,0,1.45,3.461,4.763,4.763,0,0,0,3.478,1.431,4.667,4.667,0,0,0,3.456-1.44,4.722,4.722,0,0,0,1.438-3.452,4.906,4.906,0,0,0-4.893-4.886" transform="translate(-69.464 -1.006)"/><path class="a" d="M150.94,13.648a4.607,4.607,0,0,1-4.6-4.594,4.473,4.473,0,0,1,1.356-3.24,4.6,4.6,0,0,1,6.491.007,4.391,4.391,0,0,1,1.355,3.232,4.48,4.48,0,0,1-1.367,3.251,4.413,4.413,0,0,1-3.235,1.343m0-8.625a4.053,4.053,0,0,0-4.046,4.034,3.9,3.9,0,0,0,1.184,2.851,4.024,4.024,0,0,0,5.715,0A3.93,3.93,0,0,0,155,9.05a3.848,3.848,0,0,0-1.193-2.842,3.958,3.958,0,0,0-2.865-1.184" transform="translate(-70.253 -1.801)"/><path class="a" d="M155.769,13.688h-1.76l-.078-.142a9.378,9.378,0,0,0-1.285-2.041,1.074,1.074,0,0,0-.627-.174h-.265v2.356h-1.448V7.6h2.206a5.549,5.549,0,0,1,1.4.132,1.6,1.6,0,0,1,.908.62,1.694,1.694,0,0,1,.342,1.018,1.765,1.765,0,0,1-.489,1.218,1.726,1.726,0,0,1-.7.48,6.076,6.076,0,0,1,.857,1.128l.944,1.5Zm-1.439-.546h.443l-.416-.659c-.676-1.091-1.032-1.25-1.122-1.269l-.147-.032a12.086,12.086,0,0,1,1.242,1.96m-3.478,0h.356V10.785h.811a1.582,1.582,0,0,1,.959.288.324.324,0,0,1,.045.035v-.417l.252-.044a1.374,1.374,0,0,0,.989-.43,1.213,1.213,0,0,0,.355-.853,1.167,1.167,0,0,0-.241-.7,1.03,1.03,0,0,0-.606-.407,4.617,4.617,0,0,0-1.259-.121h-1.66v5Z" transform="translate(-72.16 -3.301)"/><path class="a" d="M153.42,11.257h-1.372V9.037h1.3a2.169,2.169,0,0,1,1.3.283,1.072,1.072,0,0,1-.011,1.662,2.076,2.076,0,0,1-1.217.274m-.824-.545h.826a1.579,1.579,0,0,0,.894-.175.459.459,0,0,0,.178-.395.49.49,0,0,0-.178-.394,1.748,1.748,0,0,0-.962-.164H152.6Z" transform="translate(-72.999 -3.995)"/></g></svg>