<svg xmlns="http://www.w3.org/2000/svg" width="153.525" height="153.525" viewBox="0 0 153.525 153.525"><path d="M130.547,153.525H22.978A22.979,22.979,0,0,1,0,130.547V22.978A22.979,22.979,0,0,1,22.978,0H130.547a22.979,22.979,0,0,1,22.978,22.978V130.547a22.979,22.979,0,0,1-22.978,22.978" fill="#004c95"/><path d="M134.341,117.417a54.358,54.358,0,0,1-1.505,6.59,9.619,9.619,0,0,1-9.424,6.56,2.364,2.364,0,0,0-2.152,1.118,11.944,11.944,0,0,1-19.748-.913,2.22,2.22,0,0,0-2.212-1.257q-15.9.009-31.808-.1a2.408,2.408,0,0,0-2.375,1.315c-2.732,4.4-6.846,6.07-11.856,5.462-4.358-.529-7.329-3.052-9.206-6.986a4.105,4.105,0,0,0-1.568-1.713A12.325,12.325,0,0,1,36.5,112.815c1.691-5.645,3.47-11.264,5.244-16.884.726-2.3.484-3.277-1.6-4.476C36.792,89.532,33.394,87.7,30,85.86c-2.828-1.532-5.69-3-8.521-4.531-1.05-.566-1.921-1.489-1.482-2.671a3.687,3.687,0,0,1,2-1.908c.6-.223,1.569.244,2.264.609q7.457,3.917,14.859,7.935c2.1,1.144,4.107,2.454,6.19,3.627a1.6,1.6,0,0,0,1.246.022c5.012-2.182,10.353-2.746,15.707-3.219,2.853-.251,5.714-.475,8.576-.544,9.988-.242,19.717.665,28.565,6.035,4.846,2.942,9.862,5.613,14.865,8.288,2.416,1.292,5.023,2.225,7.46,3.481a56.481,56.481,0,0,1,7.427,4.274c3.34,2.426,5.407,5.672,4.765,10.107l.42.052M102.961,100.9l.066-.317q-4.047-2.232-8.094-4.464c-5.88-3.258-12.309-4.211-18.895-4.568-1.214-.066-1.469.4-1.14,1.4a56.52,56.52,0,0,0,1.912,5.412,4.668,4.668,0,0,0,3.657,2.729,27.813,27.813,0,0,0,4,.425c3.688.052,7.38.082,11.066-.024,2.48-.071,4.952-.388,7.428-.6m-31.27,1.953c-.884-1.966-1.7-3.454-2.225-5.04a49.477,49.477,0,0,1-1.179-5.091c-.173-.809-.494-1.133-1.441-.994-2.536.372-5.107.506-7.638.9a43.534,43.534,0,0,0-4.536,1.184c.468,1.558.876,3.138,1.431,4.664a4.186,4.186,0,0,0,1.231,1.881,7.616,7.616,0,0,0,3.26,1.793c3.581.409,7.2.484,11.1.7m-16.668,16.81a5.336,5.336,0,0,0-5.409,5.1,5.4,5.4,0,0,0,5.459,5.252,5.175,5.175,0,1,0-.05-10.348m56.711,10.42a5,5,0,0,0,5.2-5.149,5.257,5.257,0,1,0-10.513.09,5.043,5.043,0,0,0,5.311,5.059" fill="#fff"/><path d="M37.034,32.293c.744-3.5,1.447-6.9,2.194-10.286.593-2.695,1.612-3.5,4.224-3.431,2.639.066,3.76,1.393,3.255,3.959-.462,2.345-1.007,4.673-1.51,7.01C43.873,35.7,42.52,41.852,41.257,48.02c-.274,1.338-.535,2.769,1.233,3.6,1.145.535.264,1.326-.192,1.812-1.961,2.091-6.617,1.391-7.958-1.169a14.293,14.293,0,0,1-.6-1.6c-.336.312-.671.586-.963.9a9.4,9.4,0,0,1-10.261,2.655c-3.83-1.162-5.883-4-6.563-7.907a16.674,16.674,0,0,1,2.689-12.187c3.931-6.142,12.715-8.169,18.389-1.825M23.156,42.68c-.092,4.249,2.424,6.581,6.33,5.73a6.513,6.513,0,0,0,4.768-4.276,22.384,22.384,0,0,0,1.1-4.392,4.008,4.008,0,0,0-.263-2.3C33.38,34,28.524,33.354,25.68,36.16a8.722,8.722,0,0,0-2.524,6.52" fill="#fff"/><path d="M92.054,45.222c2.223-3.758,4.352-7.576,6.694-11.258,2.949-4.636,6.042-9.181,9.131-13.726,1.847-2.718,4.543-3.493,7.692-3.085a3.145,3.145,0,0,1,2.708,2.18c.38,1.013.326,1.63-1.047,1.99a6.305,6.305,0,0,0-3.145,2.053c-3.44,4.354-6.915,8.7-10,13.306-3.221,4.8-6.093,9.849-8.961,14.878A5.643,5.643,0,0,1,88.973,54.2a3.3,3.3,0,0,1-2.959-3.007c-.606-4.392-1.206-8.784-1.846-13.171a11.184,11.184,0,0,0-.727-3.044,4.587,4.587,0,0,0-1.7-1.85c-1.214-.751-1.4-1.149-.609-2.371a4.922,4.922,0,0,1,8.407.742,27.007,27.007,0,0,1,1.5,6.771c.357,2.278.492,4.591.724,6.889l.284.066" fill="#fff"/><path d="M117.625,44.085c-1.229,0-2.458.029-3.686-.01-.823-.026-.954.277-.824,1.056a4.637,4.637,0,0,0,4.108,3.969,8.463,8.463,0,0,0,7.716-2.422c.755-.8,1.413-1.317,2.549-.681,1.193.669,2.052,1.651,1.686,2.948a5.789,5.789,0,0,1-1.924,3.16,16.629,16.629,0,0,1-5.391,2.285,15.727,15.727,0,0,1-8.806-.576c-4.3-1.545-6.559-5.19-6.489-10.164.151-10.764,10.06-17.123,19.665-14.756,4.68,1.154,6.893,4.981,5.605,9.45a6.58,6.58,0,0,1-4.224,4.369,24.5,24.5,0,0,1-9.985,1.372M117.51,39.3c.019.1.037.2.056.3,2.092-.408,4.206-.731,6.268-1.257a2.172,2.172,0,0,0,1.812-2.436c-.135-1.228-1.063-1.69-2.114-2.014-3.429-1.057-7.517,1.384-9.109,4.551-.083.165.276.8.47.815a24.8,24.8,0,0,0,2.617.04" fill="#fff"/><path d="M56.776,32.257c1.242-1.717,2.645-3.226,4.784-3.627a7.843,7.843,0,0,1,2.937-.024,3.664,3.664,0,0,1,3.192,3.267,4.7,4.7,0,0,1-2.416,4.521,2.195,2.195,0,0,1-1.7-.182c-2.519-1.436-4.532-1.077-6.25,1.293-1.693,2.336-2.212,5.107-2.806,7.846-.456,2.106-.823,4.238-1.413,6.306a4.041,4.041,0,0,1-6.351,1.917,3.455,3.455,0,0,1-.831-2.64c.314-2.478.89-4.926,1.41-7.376.883-4.16,1.8-8.312,2.706-12.468.445-2.047,1.425-2.672,3.45-2.19,1.646.391,2.28,1.029,3.292,3.357" fill="#fff"/><path d="M72.664,54.636c-3.894,0-5.967-2.493-5.179-6.307q1.644-7.962,3.366-15.91c.61-2.829,1.7-3.723,4.272-3.631,2.628.095,3.731,1.413,3.232,4-.452,2.347-1.01,4.673-1.515,7.009-.616,2.848-1.244,5.695-1.829,8.551-.274,1.336-.257,2.628,1.324,3.2,1.037.374.605.944.239,1.484a4.723,4.723,0,0,1-3.91,1.6" fill="#fff"/><path d="M20.666,111.376c2.514,0,5.026-.017,7.54.007,1.408.014,2.387.8,2.27,1.854a1.962,1.962,0,0,1-2.17,1.841c-5.087.019-10.173.034-15.257-.005-1.505-.011-2.121-.7-2.068-2,.057-1.4.953-1.712,2.144-1.7,2.514.016,5.027,0,7.541,0" fill="#fff"/><path d="M24.14,106.691c-2.046,0-4.091-.008-6.137,0-1.147.006-1.952-.418-2.041-1.66a1.757,1.757,0,0,1,1.924-2.008q6.4-.1,12.8,0a1.812,1.812,0,0,1,1.987,1.984c-.081,1.29-1,1.709-2.219,1.693-2.1-.029-4.208-.008-6.312-.009" fill="#fff"/><path d="M81.222,21.186a4.352,4.352,0,0,1-4.447,4.236c-2.37-.03-4.1-1.472-4.1-3.423a4.174,4.174,0,0,1,4.56-4.216c2.545.065,4.027,1.33,3.988,3.4" fill="#fff"/><path d="M29.352,94.848c1.346,0,2.692.017,4.038-.006A1.747,1.747,0,0,1,35.4,96.576a1.717,1.717,0,0,1-1.739,1.856c-2.92.086-5.847.087-8.767-.017A1.651,1.651,0,0,1,23.254,96.5a1.682,1.682,0,0,1,1.884-1.656c1.4.007,2.809,0,4.214,0" fill="#fff"/><rect width="153.525" height="153.525" fill="none"/></svg>