<svg xmlns="http://www.w3.org/2000/svg" xmlns:xlink="http://www.w3.org/1999/xlink" width="164.057" height="238.462" viewBox="0 0 164.057 238.462"><defs><clipPath id="a"><rect width="137.868" height="223.324" fill="#fff"/></clipPath></defs><g transform="translate(27.216) rotate(7)"><g clip-path="url(#a)"><path d="M17.2.011a2.557,2.557,0,0,1,2.761,2.6,17.564,17.564,0,0,1-.676,3.284c-.736,2.1-1.562,4.17-2.433,6.205C10.877,26.031,8.169,41,6.359,56.175A104.579,104.579,0,0,0,8.23,89.917c1.2,5.778,2.639,11.514,4.3,17.142,2.886,9.761,7.74,18.4,12.994,26.66,6.9,10.848,15.453,19.95,24.622,28.364a194.374,194.374,0,0,0,31.424,22.965,234.921,234.921,0,0,0,29.935,15.509,37.951,37.951,0,0,1,4.674,2.554,2.814,2.814,0,0,1,.458,3.08,3.733,3.733,0,0,1-1.676,1.453,3.688,3.688,0,0,1-2.185-.067,30.692,30.692,0,0,1-4.26-1.6c-12.2-5.787-24.391-11.619-35.812-19.262-5.374-3.6-10.759-7.2-15.922-11.163a164.26,164.26,0,0,1-13.119-11.286A145.97,145.97,0,0,1,20,135.994,126.727,126.727,0,0,1,2.763,91.184c-1.371-7.507-2-15.1-2.639-22.713-.5-6.005.65-11.87,1.36-17.732A162.415,162.415,0,0,1,13.759,4.611,21.584,21.584,0,0,1,15.639.98C16.044.4,16.875.2,17.2.011" transform="translate(0 0)" fill="#fff"/><path d="M94.075,162.164c-3.478-.34-6.953-.7-10.432-1.015-3.233-.3-6.47-.53-9.7-.831-13.04-1.221-25.687-4.111-37.261-11.458a29.607,29.607,0,0,1-3.086-2.34,3.006,3.006,0,0,1-.358-3.109c.556-1.015,1.345-1.777,2.425-1.566a8.174,8.174,0,0,1,2.8,1.093c11.127,7.073,23.271,9.993,35.8,11.169,10.943,1.027,21.9,2.145,32.882.512a11.03,11.03,0,0,0,2.869-.808,1.607,1.607,0,0,0,.587-1.334,30.872,30.872,0,0,0-1.863-3.615C98.6,131.377,87.728,114.423,79.13,95.828a39.767,39.767,0,0,1-3.876-11.876,10.349,10.349,0,0,1-.044-2.5,2.318,2.318,0,0,1,2.008-2.156,2.765,2.765,0,0,1,1.971.81,4.317,4.317,0,0,1,1.159,2.1c1.755,8.124,5.735,15.038,9.388,22.1,5.054,9.766,10.545,19.209,16.3,28.481,3.726,6,7.072,12.313,10.962,18.2a29.191,29.191,0,0,1,2.186,4.409,2.964,2.964,0,0,1-1.4,3.495,7.489,7.489,0,0,1-2.1.836c-7.2.771-14.32,2.445-21.61,2.437" transform="translate(18.517 61.16)" fill="#fff"/></g></g></svg>