<svg xmlns="http://www.w3.org/2000/svg" width="102.618" height="102.618" viewBox="0 0 102.618 102.618"><g transform="translate(-1.5 -1.5)"><path d="M52.809,1.5a51.322,51.322,0,0,1,19.972,98.586A51.322,51.322,0,0,1,32.837,5.533,50.99,50.99,0,0,1,52.809,1.5Zm0,99.618A48.322,48.322,0,0,0,71.613,8.3,48.322,48.322,0,0,0,34.006,97.323,48.005,48.005,0,0,0,52.809,101.118Z" transform="translate(0 0)" fill="#7e132d"/><path d="M18,53.347a1.5,1.5,0,0,1-1.061-2.561L35.8,31.924,16.939,13.061a1.5,1.5,0,1,1,2.121-2.121L38.984,30.863a1.5,1.5,0,0,1,0,2.121L19.061,52.908A1.5,1.5,0,0,1,18,53.347Z" transform="translate(34.809 20.886)" fill="#7e132d"/><path d="M51.847,19.5H12a1.5,1.5,0,0,1,0-3H51.847a1.5,1.5,0,0,1,0,3Z" transform="translate(20.886 34.809)" fill="#7e132d"/></g></svg>