<svg xmlns="http://www.w3.org/2000/svg" width="102.618" height="102.618" viewBox="0 0 102.618 102.618"><g transform="translate(-1.5 -1.5)"><path d="M52.809,104.118A51.322,51.322,0,0,1,32.838,5.533,50.984,50.984,0,0,1,52.809,1.5h0a51.322,51.322,0,0,1,19.972,98.586A50.989,50.989,0,0,1,52.809,104.118Zm0-99.618a48.322,48.322,0,0,0-18.8,92.823A48.322,48.322,0,0,0,71.613,8.3a48.005,48.005,0,0,0-18.8-3.8Z" transform="translate(0 0)" fill="#7e132d"/><path d="M31.924,53.347a1.5,1.5,0,0,1-1.061-.439L10.939,32.984a1.5,1.5,0,0,1,0-2.121L30.863,10.939a1.5,1.5,0,0,1,2.121,2.121L14.121,31.924,32.984,50.787a1.5,1.5,0,0,1-1.061,2.561Z" transform="translate(20.886 20.886)" fill="#7e132d"/><path d="M51.847,19.5H12a1.5,1.5,0,0,1,0-3H51.847a1.5,1.5,0,0,1,0,3Z" transform="translate(20.886 34.809)" fill="#7e132d"/></g></svg>