<svg xmlns="http://www.w3.org/2000/svg" width="80.883" height="79.01" viewBox="0 0 80.883 79.01"><path d="M69.566,78.249H9.173A8.892,8.892,0,0,1,.291,69.371V8.969A8.889,8.889,0,0,1,9.173.091H69.566a8.893,8.893,0,0,1,8.887,8.878v60.4a8.9,8.9,0,0,1-8.887,8.878M9.173,2.757A6.228,6.228,0,0,0,2.952,8.969v60.4a6.226,6.226,0,0,0,6.221,6.216H69.566a6.219,6.219,0,0,0,6.216-6.216V8.969a6.221,6.221,0,0,0-6.216-6.211Z" transform="translate(1.071 0.336)" fill="#fff"/><path d="M5.986,12.961A4.448,4.448,0,1,0,1.533,8.518a4.455,4.455,0,0,0,4.453,4.443m0-6.23A1.784,1.784,0,1,1,4.2,8.518,1.787,1.787,0,0,1,5.986,6.731" transform="translate(5.639 14.95)" fill="#fff"/><path d="M13.389,12.28A4.909,4.909,0,1,0,18.3,7.369a4.92,4.92,0,0,0-4.911,4.911m7.161,0a2.245,2.245,0,1,1-2.25-2.24,2.25,2.25,0,0,1,2.25,2.24" transform="translate(49.237 27.099)" fill="#fff"/><path d="M57.138,14.615c3.279-.781,4.635-1.572,5.22-2.226a3.918,3.918,0,0,0,1.66.388,3.99,3.99,0,1,0-3.985-3.99c0,.042.019.075.019.122a26.612,26.612,0,0,0-6.511-.692H52.03c-1.908-.028-7.189.206-8.728,1.712a1.76,1.76,0,0,0-.571,1.291c0,.664,0,2.03,5.678,3.4a2.455,2.455,0,0,1,1,1.712c.075,4.289.122,9.074.042,9.958v0A2.647,2.647,0,0,1,47.821,27.9c-1.389.524-2.788,2.081-3.681,4.855A19.141,19.141,0,0,0,44.6,28.7,18.524,18.524,0,0,0,15.15,13.675a7.241,7.241,0,0,0-6.127-3.536A7.371,7.371,0,0,0,1.665,17.5,7.282,7.282,0,0,0,7.9,24.624,18.5,18.5,0,0,0,7.418,28.7a18.363,18.363,0,0,0,1.263,6.431H2.128l-.019,1.3c0,.07-.126,6.8-.126,12.376,0,5.426,4.813,7.25,7.465,7.465H58.471c6.038,0,7.867-5.2,7.989-7.989V35.129H62c-.753-4.322-2.521-6.567-4.27-7.231a2.67,2.67,0,0,1-1.628-1.59l-.009-.037c-.075-.917-.033-5.674.042-9.883a2.458,2.458,0,0,1,1.006-1.773m6.88-7.156a1.328,1.328,0,1,1-1.324,1.328,1.334,1.334,0,0,1,1.324-1.328M43.887,33.567c-.122.458-.178,1.043-.276,1.562h-.29c.182-.524.416-1.029.566-1.562M8.681,22.112a4.659,4.659,0,1,1,4.448-6.763,18.413,18.413,0,0,0-4.448,6.763m1.4,6.586a16.67,16.67,0,0,1,2.128-7.806,15.187,15.187,0,0,1,1.174-1.8A15.849,15.849,0,0,1,40.515,35.129H37.942a13.139,13.139,0,1,0-23.555,0h-2.9a15.783,15.783,0,0,1-1.4-6.431m5.6.716a10.477,10.477,0,1,1,20.954,0,10.388,10.388,0,0,1-1.712,5.716H17.4a10.434,10.434,0,0,1-1.721-5.716m46.623,8.377h1.5v10.43c-.009.215-.3,5.384-5.332,5.384H9.556c-.2-.009-4.906-.449-4.906-4.8,0-4.088.061-8.784.1-11.015H62.306ZM53.475,16.27c-.131,6.922-.182,9.588.061,10.7h-.019A5.391,5.391,0,0,0,56.792,30.4c.809.295,1.885,1.833,2.474,4.729H46.277c.6-2.9,1.665-4.434,2.479-4.729a5.357,5.357,0,0,0,3.269-3.428h-.009c.239-1.118.192-3.793.051-10.762A4.941,4.941,0,0,0,49.43,12.14l-.248-.08a21.918,21.918,0,0,1-2.484-.73,25.575,25.575,0,0,1,5.3-.449h1.567a25.781,25.781,0,0,1,5.281.449,22.116,22.116,0,0,1-2.479.73l-.257.08a4.962,4.962,0,0,0-2.638,4.13" transform="translate(6.124 17.641)" fill="#fff"/><path d="M2.579,12.179l.047.987c0,.023.089,1.946,0,6.848a4.886,4.886,0,0,0,1.548,4.051,5.088,5.088,0,0,0,3.3,1.076,6.258,6.258,0,0,0,.992-.075l.772-.145V12.179H2.579ZM7.35,23.255a3.081,3.081,0,0,1-1.955-.631,3.124,3.124,0,0,1-.889-2.577c.061-3.054.042-4.953.023-5.982H7.35Z" transform="translate(9.485 44.787)" fill="#fff"/><path d="M19.866,13.171l.047-.992h-6.66V24.92l.767.145a6.14,6.14,0,0,0,.992.08,5.147,5.147,0,0,0,3.307-1.071,4.922,4.922,0,0,0,1.548-4.06c-.089-4.892,0-6.829,0-6.843M17.1,22.623a3.154,3.154,0,0,1-1.96.636v-9.2h2.811c-.019,1.034-.028,2.928.023,5.982,0,.131-.037.206-.042.323a2.961,2.961,0,0,1-.833,2.254" transform="translate(48.733 44.787)" fill="#fff"/><path d="M4.494,12.207V24.854H9.9V12.207H4.494Zm3.779,6.328v4.691H6.131v-9.4H8.273v4.705Z" transform="translate(16.527 44.89)" fill="#fff"/><path d="M11.146,12.206H9.827V24.853h5.4V12.206H11.146ZM13.6,13.834v9.392H11.455V13.834H13.6Z" transform="translate(36.138 44.886)" fill="#fff"/><path d="M11.6,19.919v4.935h5.407V12.206H11.6Zm1.628-6.085h2.152v9.392H13.232V13.834Z" transform="translate(42.673 44.886)" fill="#fff"/><path d="M6.271,12.206V24.849h5.407V12.206H6.271Zm3.779,5.108v5.912H7.9V13.834H10.05v3.48Z" transform="translate(23.062 44.886)" fill="#fff"/><path d="M8.048,12.206V24.853h5.407V12.206H8.048Zm3.779,1.628v9.392H9.685V13.834Z" transform="translate(29.596 44.886)" fill="#fff"/><path d="M9,2.777a1,1,0,1,0-.992-.992A.992.992,0,0,0,9,2.777" transform="translate(29.46 2.884)" fill="#fff"/><path d="M8.566,3.2a.994.994,0,1,0-.992-.992,1,1,0,0,0,.992.992" transform="translate(27.853 4.476)" fill="#fff"/><path d="M8.129,3.637a.994.994,0,1,0-.992-.992.993.993,0,0,0,.992.992" transform="translate(26.246 6.065)" fill="#fff"/><path d="M7.7,4.068a.994.994,0,1,0-1-1,.99.99,0,0,0,1,1" transform="translate(24.636 7.65)" fill="#fff"/><path d="M7.259,4.5a.994.994,0,1,0-1-.992.992.992,0,0,0,1,.992" transform="translate(23.032 9.239)" fill="#fff"/><path d="M6.819,4.928a.992.992,0,1,0-.992-.992.992.992,0,0,0,.992.992" transform="translate(21.429 10.831)" fill="#fff"/><path d="M6.382,5.359a.992.992,0,1,0,0-1.983.992.992,0,0,0,0,1.983" transform="translate(19.822 12.416)" fill="#fff"/><path d="M5.948,5.795a.994.994,0,1,0-1-.992.989.989,0,0,0,1,.992" transform="translate(18.211 14.001)" fill="#fff"/><path d="M5.511,6.232a1,1,0,1,0-1-1,.994.994,0,0,0,1,1" transform="translate(16.604 15.589)" fill="#fff"/><path d="M5.075,6.663a1,1,0,1,0-1-1,.993.993,0,0,0,1,1" transform="translate(15.001 17.174)" fill="#fff"/><path d="M8.914,3.9a1,1,0,1,0-1.165-.79.994.994,0,0,0,1.165.79" transform="translate(28.426 7.081)" fill="#fff"/><path d="M8.565,4.405A1,1,0,1,0,7.4,3.615a1,1,0,0,0,1.165.79" transform="translate(27.148 8.945)" fill="#fff"/><path d="M7.841,2.956a1,1,0,1,0,1.165.79.994.994,0,0,0-1.165-.79" transform="translate(25.874 10.806)" fill="#fff"/><path d="M7.871,5.413a.987.987,0,0,0,.79-1.16,1,1,0,1,0-.79,1.16" transform="translate(24.596 12.67)" fill="#fff"/><path d="M7.524,5.921a.993.993,0,1,0-1.165-.786.99.99,0,0,0,1.165.786" transform="translate(23.319 14.535)" fill="#fff"/><path d="M6.8,4.476a.993.993,0,1,0,1.165.786A.984.984,0,0,0,6.8,4.476" transform="translate(22.043 16.395)" fill="#fff"/><path d="M10.106,2.447a1,1,0,1,0-.028,1.408,1,1,0,0,0,.028-1.408" transform="translate(30.854 7.873)" fill="#fff"/><path d="M10.089,3.062a1,1,0,1,0-.033,1.408,1,1,0,0,0,.033-1.408" transform="translate(30.792 10.129)" fill="#fff"/><path d="M10.069,3.673a.994.994,0,1,0-.028,1.408.991.991,0,0,0,.028-1.408" transform="translate(30.732 12.385)" fill="#fff"/><path d="M8.644,4.258a1,1,0,1,0,1.408.028,1,1,0,0,0-1.408-.028" transform="translate(30.67 14.645)" fill="#fff"/><path d="M9.839,2.777a1,1,0,1,0-.992-.992,1,1,0,0,0,.992.992" transform="translate(32.534 2.884)" fill="#fff"/><path d="M10.276,3.2a.994.994,0,1,0-.992-.992,1,1,0,0,0,.992.992" transform="translate(34.141 4.476)" fill="#fff"/><path d="M10.713,3.637a.994.994,0,1,0-.992-.992.993.993,0,0,0,.992.992" transform="translate(35.748 6.065)" fill="#fff"/><path d="M11.149,4.068a.994.994,0,1,0-.992-1,.994.994,0,0,0,.992,1" transform="translate(37.352 7.65)" fill="#fff"/><path d="M11.59,4.5a.994.994,0,1,0-1-.992.992.992,0,0,0,1,.992" transform="translate(38.959 9.239)" fill="#fff"/><path d="M12.026,4.928a.992.992,0,1,0-1-.992,1,1,0,0,0,1,.992" transform="translate(40.562 10.831)" fill="#fff"/><path d="M12.464,5.359a.992.992,0,1,0-1-.992.992.992,0,0,0,1,.992" transform="translate(42.173 12.416)" fill="#fff"/><path d="M12.9,5.795a.994.994,0,1,0-1-.992.993.993,0,0,0,1,.992" transform="translate(43.776 14.001)" fill="#fff"/><path d="M13.333,6.232a1,1,0,1,0-.992-1,1,1,0,0,0,.992,1" transform="translate(45.383 15.589)" fill="#fff"/><path d="M13.774,6.663a1,1,0,1,0-1-1,.994.994,0,0,0,1,1" transform="translate(46.99 17.174)" fill="#fff"/><path d="M8.452,1.974c0,.042-.028.075-.023.108.023.1.112.154.154.234l.019.037c.023.042.014.08.047.112s.014.084.042.117.07.023.1.047a.907.907,0,0,0,.313.14c.061.023.089.084.154.1l.061-.019a1.084,1.084,0,0,0,.173,0c.037,0,.065.028.108.023.061-.019.1-.08.15-.1a1.124,1.124,0,0,0,.313-.14l.037-.014c.023-.028.019-.075.042-.1a.974.974,0,0,0,.117-.178c.047-.089.145-.145.164-.253.009-.051-.028-.089-.028-.14s-.023-.07-.023-.1l0-.033c0-.037.028-.065.023-.1s-.051-.047-.061-.08a.867.867,0,0,0-.182-.365l-.019-.051c-.028-.033-.07-.023-.1-.042a.614.614,0,0,0-.206-.122c-.07-.033-.1-.112-.187-.126-.037-.009-.07.023-.108.023a.691.691,0,0,0-.2,0c-.042,0-.07-.033-.108-.023-.08.014-.117.094-.187.126a1.028,1.028,0,0,0-.182.08c-.037.028-.094.019-.131.051s-.019.075-.042.108a.826.826,0,0,0-.15.332l0,.009c-.009.033-.047.051-.056.08l.009.033a.811.811,0,0,0-.023.239" transform="translate(30.993 3.368)" fill="#fff"/><path d="M12.172,3.39a1,1,0,1,0-.79-1.165c-.014.089.047.159.051.248-.047-.084-.028-.173-.094-.248a.985.985,0,0,0-1.328-.061.987.987,0,0,0-1.127-.73A1,1,0,1,0,9.263,3.39a1.08,1.08,0,0,0,.444-.29.876.876,0,0,0,.192.505,1,1,0,0,0,1.4.028.95.95,0,0,0,.285-.627,1.006,1.006,0,0,0,.585.384" transform="translate(29.7 5.217)" fill="#fff"/><path d="M9.932,3.9a1,1,0,1,0-.786-1.165A.992.992,0,0,0,9.932,3.9" transform="translate(33.564 7.081)" fill="#fff"/><path d="M10.279,4.405A1,1,0,1,0,9.493,3.24a1,1,0,0,0,.786,1.165" transform="translate(34.84 8.945)" fill="#fff"/><path d="M10.626,4.911A1,1,0,1,0,9.84,3.746a1,1,0,0,0,.786,1.165" transform="translate(36.115 10.806)" fill="#fff"/><path d="M11.351,3.463a1,1,0,1,0,.79,1.165,1,1,0,0,0-.79-1.165" transform="translate(37.393 12.67)" fill="#fff"/><path d="M11.7,3.97a.993.993,0,1,0,.79,1.165A1,1,0,0,0,11.7,3.97" transform="translate(38.67 14.535)" fill="#fff"/><path d="M11.668,6.427a.993.993,0,1,0-.786-1.165.992.992,0,0,0,.786,1.165" transform="translate(39.947 16.395)" fill="#fff"/><path d="M79.562,79.01a1.3,1.3,0,0,1-.926-.374L.389,2.19a1.252,1.252,0,0,1,0-1.815,1.33,1.33,0,0,1,1.852,0L80.492,76.816a1.265,1.265,0,0,1,0,1.819,1.312,1.312,0,0,1-.931.374" transform="translate(0 0)" fill="#fff"/><path d="M1.316,79.01a1.3,1.3,0,0,1-.926-.374,1.257,1.257,0,0,1,0-1.819L78.632.375a1.342,1.342,0,0,1,1.862,0,1.26,1.26,0,0,1,0,1.815L2.242,78.636a1.3,1.3,0,0,1-.926.374" transform="translate(0.004 0)" fill="#fff"/></svg>