<svg xmlns="http://www.w3.org/2000/svg" xmlns:xlink="http://www.w3.org/1999/xlink" width="171.894" height="171.896" viewBox="0 0 171.894 171.896"><defs><clipPath id="a"><rect width="171.894" height="171.894" fill="none"/></clipPath></defs><path d="M29.071,0,16.81,12.257l73.655,73.73L16.81,159.629l12.261,12.266L114.987,86Z" transform="translate(56.905 0.001)" fill="#124287"/><path d="M1.488,71.488l67.191-67.2,67.134,67.2L68.679,138.61Z" transform="translate(5.037 14.503)" fill="#fff"/><g transform="translate(0 0)"><g clip-path="url(#a)"><path d="M40,13.415c3.947-3.478,10.02-4.157,14.9-2.434,8.051,2.785,13.151,8.849,18.195,15.3C78.357,32.5,86.68,37.385,95.477,34.543c4.995-1.719,10.507-4.995,13.831-9.235l26.5,26.588L68.678,119.012,1.487,51.9Z" transform="translate(5.034 34.095)" fill="#124287"/></g></g><path d="M6.525,76.525l67.191-67.2,67.134,67.2L73.717,143.65ZM0,76.533l73.717,73.633,73.655-73.633L73.717,2.8Z" transform="translate(0 9.462)" fill="#b0b7d7"/><path d="M20.832,20.019H16.043v16.41H12.877V20.019H8.058V17.374H21.244Z" transform="translate(27.278 58.817)" fill="#fff"/><g transform="translate(0 0)"><g clip-path="url(#a)"><path d="M16.879,20.752c-1.706,0-2.644,1.351-2.644,3.609h5.148c0-2.258-.991-3.609-2.5-3.609m-2.671,5.837v.219c0,1.93.715,3.964,3.442,3.964A5.121,5.121,0,0,0,21.12,29.4L22.3,31.241a7.521,7.521,0,0,1-5.012,1.846c-3.938,0-6.416-2.837-6.416-7.3a7.6,7.6,0,0,1,1.737-5.451,5.3,5.3,0,0,1,4.267-1.873,5.4,5.4,0,0,1,3.828,1.43c1.21,1.105,1.816,2.811,1.816,6.06v.631Z" transform="translate(36.818 62.516)" fill="#fff"/><path d="M21.644,19.832a3.622,3.622,0,0,0-1.68-.5c-1.048,0-1.706.715-1.706,1.956V23.41H21.89L21.122,25.5H18.285v11.84h-3V25.5H13.992V23.41h1.346s-.083-.772-.083-2.065c0-2.89,1.763-4.241,4.241-4.241a6.046,6.046,0,0,1,3.14.8Z" transform="translate(47.367 57.902)" fill="#fff"/><path d="M19.61,37.665c-3.057,0-3.057-2.754-3.057-3.938V21.86a22.955,22.955,0,0,0-.276-4.074l3.109-.688a16.681,16.681,0,0,1,.246,3.828v11.81c0,1.873.088,2.175.3,2.508a.868.868,0,0,0,1,.219l.5,1.873a4.751,4.751,0,0,1-1.816.329" transform="translate(55.102 57.882)" fill="#fff"/><path d="M23.941,20.752c-1.93,0-2.754,1.46-2.754,4.846,0,4.048,1.017,5.232,2.833,5.232,1.794,0,2.785-1.46,2.785-4.955,0-3.938-1.1-5.122-2.864-5.122m.026,12.336c-3.771,0-6.139-2.837-6.139-7.3s2.394-7.323,6.082-7.323c3.969,0,6.223,2.947,6.223,7.35,0,4.491-2.394,7.271-6.166,7.271" transform="translate(60.353 62.516)" fill="#fff"/><path d="M29.326,32.772V23.519c0-1.9-.439-2.421-1.6-2.421a5.031,5.031,0,0,0-3.057,1.57v10.1H21.7V22.528a8.226,8.226,0,0,0-.526-3.3l2.754-.772a4.054,4.054,0,0,1,.5,1.982,6.5,6.5,0,0,1,4.271-1.925c2.144,0,3.631,1.294,3.631,3.855V32.772Z" transform="translate(71.68 62.472)" fill="#fff"/></g></g><path d="M24.149,18.5v.649h1V21.8h.715V19.145h.987V18.5Zm6.174,0-.868,2.329L28.578,18.5H27.561V21.8h.715V19.395l.039.009.9,2.4h.46l.908-2.416h.039V21.8h.719V18.5Z" transform="translate(81.751 62.614)" fill="#fff"/><g transform="translate(0 0)"><g clip-path="url(#a)"><path d="M11.681,23.307a1.418,1.418,0,0,0-1.272.7,3.33,3.33,0,0,0-.311,1.644,4.557,4.557,0,0,0,.39,2.083,1.508,1.508,0,0,0,1.272.645,1.3,1.3,0,0,0,1.105-.513,2.82,2.82,0,0,0,.443-1.837,4.548,4.548,0,0,0-.294-1.9,1.384,1.384,0,0,0-1.333-.82m-.026,5.618a2.092,2.092,0,0,1-1.627-.759A3.528,3.528,0,0,1,9.313,25.8c0-1.9.895-3.065,2.368-3.065a2.149,2.149,0,0,1,1.881.978,3.925,3.925,0,0,1,.548,2.21,2.964,2.964,0,0,1-.881,2.429,1.842,1.842,0,0,1-.382.285,5.565,5.565,0,0,1,.8.412,1.562,1.562,0,0,0,.8.241,1.623,1.623,0,0,0,.36-.039l-.237.561a1.182,1.182,0,0,1-.513.079,2.6,2.6,0,0,1-1.14-.452,2.935,2.935,0,0,0-1.263-.513" transform="translate(31.527 76.958)" fill="#fff"/><path d="M10.61,23.24l.671-.132v3.118c0,.425.053.583.25.715a1.021,1.021,0,0,0,.544.167,1.333,1.333,0,0,0,1.105-.785V23.248l.671-.114v3.074a1.683,1.683,0,0,0,.1.811.654.654,0,0,0,.193.246l-.434.46a1.124,1.124,0,0,1-.469-.7,1.617,1.617,0,0,1-1.377.662,1.16,1.16,0,0,1-1.14-.618,1.557,1.557,0,0,1-.114-.645Z" transform="translate(35.918 78.227)" fill="#fff"/><path d="M14.116,25.349c-.149-.009-.219-.018-.342-.018a1.627,1.627,0,0,0-1.241.351.926.926,0,0,0-.246.688.688.688,0,0,0,.75.789,1.186,1.186,0,0,0,1.052-.68Zm-2.429-1.662a3.278,3.278,0,0,1,1.82-.583,1.175,1.175,0,0,1,1.2.68,1.7,1.7,0,0,1,.1.741v.215l-.035,1.43a1.486,1.486,0,0,0-.009.2c0,.531.079.719.355.86l-.346.487a.877.877,0,0,1-.592-.636,1.616,1.616,0,0,1-1.254.583,1.358,1.358,0,0,1-1.044-.346,1.277,1.277,0,0,1-.351-.89c0-.982.846-1.557,2.3-1.557.105,0,.158,0,.307.009v-.307c0-.382-.018-.539-.14-.68a.719.719,0,0,0-.583-.232,2.043,2.043,0,0,0-.838.193,1.823,1.823,0,0,0-.548.32Z" transform="translate(39.029 78.214)" fill="#fff"/><path d="M12.515,22.815l.706-.14a4.681,4.681,0,0,1,.105,1.342v4.118c0,.342.053.434.241.434l.088-.013L13.8,29a.859.859,0,0,1-.434.1.718.718,0,0,1-.517-.184.736.736,0,0,1-.206-.618V24.017a3.34,3.34,0,0,0-.123-1.2" transform="translate(42.367 76.761)" fill="#fff"/><path d="M13.1,24.593l.724-.114v4.434H13.1Zm.364-1.89a.531.531,0,1,1-.531.539.537.537,0,0,1,.531-.539" transform="translate(43.778 76.856)" fill="#fff"/><path d="M15.644,24.076l-.21.531h-.912v2.785c0,.482.132.645.557.645a.889.889,0,0,0,.434-.088l.1.439a1.652,1.652,0,0,1-.767.171,1.328,1.328,0,0,1-.566-.118.842.842,0,0,1-.417-.864V24.606h-.566v-.531h.566v-.053c0-.219.018-.46.061-.9l.009-.114.706-.158a10.848,10.848,0,0,0-.088,1.228Z" transform="translate(45.001 77.347)" fill="#fff"/><path d="M14.7,26.54h1.987a1.855,1.855,0,0,0-.2-.969.929.929,0,0,0-.785-.382c-.618,0-.965.452-1,1.351m1.758-3.894.373.671-1.947.873-.228-.412Zm.583,5.582.263.434a2.163,2.163,0,0,1-1.465.539c-1.2,0-1.925-.868-1.925-2.307a2.263,2.263,0,0,1,.522-1.636,1.621,1.621,0,0,1,1.3-.61,1.565,1.565,0,0,1,1.175.478c.377.382.478.794.5,1.829v.1H14.7v.105a1.72,1.72,0,0,0,.2.947,1.227,1.227,0,0,0,1.079.531,1.505,1.505,0,0,0,1.061-.408" transform="translate(47.103 76.663)" fill="#fff"/><path d="M18.019,25.349c-.149-.009-.219-.018-.342-.018a1.627,1.627,0,0,0-1.241.351.926.926,0,0,0-.246.688.688.688,0,0,0,.75.789,1.186,1.186,0,0,0,1.052-.68ZM15.59,23.687a3.278,3.278,0,0,1,1.82-.583,1.175,1.175,0,0,1,1.2.68,1.705,1.705,0,0,1,.1.741v.215l-.035,1.43a1.489,1.489,0,0,0-.009.2c0,.531.079.719.355.86l-.346.487a.877.877,0,0,1-.592-.636,1.61,1.61,0,0,1-1.254.583,1.358,1.358,0,0,1-1.044-.346,1.277,1.277,0,0,1-.351-.89c0-.982.846-1.557,2.3-1.557.105,0,.158,0,.307.009v-.307c0-.382-.018-.539-.14-.68a.719.719,0,0,0-.583-.232,2.043,2.043,0,0,0-.838.193,1.823,1.823,0,0,0-.548.32Z" transform="translate(52.242 78.214)" fill="#fff"/><path d="M17.2,26.533a1.457,1.457,0,0,0,1.061.57,1,1,0,0,0,.912-.544,2.482,2.482,0,0,0,.184-1.1,3.043,3.043,0,0,0-.2-1.245.868.868,0,0,0-.8-.478,1.484,1.484,0,0,0-1.158.61Zm-.785-3.306.706-.123a2.9,2.9,0,0,1,.044.548v.114a1.664,1.664,0,0,1,1.281-.636,1.536,1.536,0,0,1,1.158.539,2.6,2.6,0,0,1,.478,1.706,2.61,2.61,0,0,1-.351,1.5,1.536,1.536,0,0,1-1.338.794A1.687,1.687,0,0,1,17.2,27.16v2.074l-.68.132v-5.1a3.684,3.684,0,0,0-.105-1.044" transform="translate(55.586 78.214)" fill="#fff"/><path d="M18.243,26.533a1.457,1.457,0,0,0,1.061.57,1,1,0,0,0,.912-.544,2.482,2.482,0,0,0,.184-1.1,3.043,3.043,0,0,0-.2-1.245.868.868,0,0,0-.8-.478,1.484,1.484,0,0,0-1.158.61Zm-.785-3.306.706-.123a2.9,2.9,0,0,1,.044.548v.114a1.664,1.664,0,0,1,1.28-.636,1.536,1.536,0,0,1,1.158.539,2.6,2.6,0,0,1,.478,1.706,2.647,2.647,0,0,1-.346,1.5,1.548,1.548,0,0,1-1.342.794,1.687,1.687,0,0,1-1.193-.509v2.074l-.68.132v-5.1a3.684,3.684,0,0,0-.105-1.044" transform="translate(59.1 78.214)" fill="#fff"/><path d="M18.49,23.3l.68-.184a1.285,1.285,0,0,1,.149.645v.061a1.568,1.568,0,0,1,1.219-.724.815.815,0,0,1,.232.044l-.276.741a.53.53,0,0,0-.193-.035,1.031,1.031,0,0,0-.724.316.779.779,0,0,0-.25.684v2.719h-.68V24.258a1.99,1.99,0,0,0-.158-.956" transform="translate(62.594 78.2)" fill="#fff"/><path d="M20.864,23.665a1.031,1.031,0,0,0-.89.469,2.478,2.478,0,0,0-.206,1.131,3.106,3.106,0,0,0,.268,1.421,1.026,1.026,0,0,0,.881.434.934.934,0,0,0,.938-.653,2.538,2.538,0,0,0,.132-.938,3.058,3.058,0,0,0-.2-1.307,1,1,0,0,0-.921-.557m.009-.557a1.728,1.728,0,0,1,1.491.759,2.762,2.762,0,0,1,.4,1.609,2.144,2.144,0,0,1-.68,1.794,1.656,1.656,0,0,1-1.184.417c-1.158,0-1.873-.877-1.873-2.307,0-1.412.706-2.272,1.846-2.272" transform="translate(64.412 78.227)" fill="#fff"/><path d="M20.105,23.24l.671-.132v3.118c0,.425.053.583.254.715a.994.994,0,0,0,.539.167,1.333,1.333,0,0,0,1.105-.785V23.248l.671-.114v3.074a1.61,1.61,0,0,0,.105.811.636.636,0,0,0,.189.246l-.434.46a1.124,1.124,0,0,1-.469-.7,1.617,1.617,0,0,1-1.377.662,1.16,1.16,0,0,1-1.14-.618,1.557,1.557,0,0,1-.114-.645Z" transform="translate(68.061 78.227)" fill="#fff"/><path d="M20.978,23.25l.7-.145,1.009,2.982c.088.281.167.548.21.741h.018a5.286,5.286,0,0,1,.206-.732l.987-2.864.724-.009L23.206,27.6h-.667Z" transform="translate(71.016 78.217)" fill="#fff"/><path d="M22.715,26.54H24.7a1.856,1.856,0,0,0-.2-.969.929.929,0,0,0-.785-.382c-.618,0-.965.452-1,1.351m1.758-3.894.373.671L22.9,24.19l-.228-.412Zm.583,5.582.263.434a2.163,2.163,0,0,1-1.465.539c-1.2,0-1.925-.868-1.925-2.307a2.263,2.263,0,0,1,.522-1.636,1.621,1.621,0,0,1,1.3-.61,1.565,1.565,0,0,1,1.175.478c.377.382.482.794.5,1.829v.1H22.715v.105a1.762,1.762,0,0,0,.2.947A1.234,1.234,0,0,0,24,28.636a1.5,1.5,0,0,0,1.061-.408" transform="translate(74.239 76.663)" fill="#fff"/><path d="M23.646,24.993h1.987a1.856,1.856,0,0,0-.2-.969.929.929,0,0,0-.785-.382c-.618,0-.965.452-1,1.351m2.342,1.688.263.434a2.163,2.163,0,0,1-1.465.539c-1.2,0-1.925-.868-1.925-2.307a2.263,2.263,0,0,1,.522-1.636,1.621,1.621,0,0,1,1.3-.61,1.559,1.559,0,0,1,1.175.478c.377.382.482.794.5,1.829v.1H23.646v.105a1.762,1.762,0,0,0,.2.947,1.239,1.239,0,0,0,1.083.531,1.5,1.5,0,0,0,1.061-.408" transform="translate(77.391 78.21)" fill="#fff"/><path d="M12.283,25.467v2.228h.636a1.458,1.458,0,0,0,1.079-.3,1.2,1.2,0,0,0,.3-.9.981.981,0,0,0-.583-.9,1.91,1.91,0,0,0-.745-.123Zm-.724-.6h1.395a2.22,2.22,0,0,1,1.5.382A1.566,1.566,0,0,1,15.05,26.5a1.52,1.52,0,0,1-1.583,1.636h-.088a3.49,3.49,0,0,1,.6.675c.123.162.281.4.487.693.219.325.89,1.324.89,1.324h-.9A4.586,4.586,0,0,0,14,30c-.373-.561-.741-1.088-1.061-1.478a.758.758,0,0,0-.662-.386V30.83h-.715Z" transform="translate(39.13 84.178)" fill="#fff"/><path d="M13.308,27.1h1.987a1.855,1.855,0,0,0-.2-.969.929.929,0,0,0-.785-.382c-.618,0-.965.452-1,1.351m2.342,1.688.263.434a2.163,2.163,0,0,1-1.465.539c-1.2,0-1.925-.868-1.925-2.307a2.263,2.263,0,0,1,.522-1.636,1.634,1.634,0,0,1,1.3-.61,1.565,1.565,0,0,1,1.175.478c.377.382.478.794.5,1.829v.1H13.308v.105a1.72,1.72,0,0,0,.2.947,1.222,1.222,0,0,0,1.079.531,1.486,1.486,0,0,0,1.061-.408" transform="translate(42.394 85.343)" fill="#fff"/><path d="M13.4,25.36l.7-.149L15.1,28.2c.088.281.167.548.21.741h.018a5.978,5.978,0,0,1,.206-.732l.987-2.864.724-.009-1.623,4.372h-.671Z" transform="translate(45.349 85.346)" fill="#fff"/><path d="M15.133,28.634h1.987a1.855,1.855,0,0,0-.2-.969.929.929,0,0,0-.785-.382c-.618,0-.965.452-1,1.351m-.539-2.7,1.478-1.175,1.491,1.175-.316.386-1.21-.741-1.175.741Zm2.881,4.39.259.434a2.144,2.144,0,0,1-1.46.539c-1.2,0-1.925-.868-1.925-2.307a2.263,2.263,0,0,1,.522-1.636,1.634,1.634,0,0,1,1.3-.61,1.565,1.565,0,0,1,1.175.478c.377.382.478.794.5,1.829v.1H15.133v.105a1.72,1.72,0,0,0,.2.947,1.222,1.222,0,0,0,1.079.531,1.486,1.486,0,0,0,1.061-.408" transform="translate(48.572 83.809)" fill="#fff"/><path d="M17.586,26.183l-.21.531h-.912V29.5c0,.478.132.645.557.645a.889.889,0,0,0,.434-.088l.1.434a1.6,1.6,0,0,1-.767.171,1.265,1.265,0,0,1-.566-.118c-.3-.149-.417-.425-.417-.864V26.713h-.566v-.531H15.8V26.13c0-.215.018-.46.061-.9l.009-.114.706-.158a10.846,10.846,0,0,0-.088,1.228Z" transform="translate(51.575 84.48)" fill="#fff"/><path d="M16.641,27.1h1.987a1.855,1.855,0,0,0-.2-.969.929.929,0,0,0-.785-.382c-.618,0-.965.452-1,1.351m2.342,1.688.263.434a2.163,2.163,0,0,1-1.465.539c-1.2,0-1.925-.868-1.925-2.307a2.263,2.263,0,0,1,.522-1.636,1.634,1.634,0,0,1,1.3-.61,1.565,1.565,0,0,1,1.175.478c.377.382.478.794.5,1.829v.1H16.641v.105a1.72,1.72,0,0,0,.2.947,1.222,1.222,0,0,0,1.079.531,1.486,1.486,0,0,0,1.061-.408" transform="translate(53.677 85.343)" fill="#fff"/><path d="M16.821,25.378l.662-.158a1.533,1.533,0,0,1,.158.61v.035a1.957,1.957,0,0,1,.531-.417,1.366,1.366,0,0,1,.732-.237,1.1,1.1,0,0,1,.86.434.977.977,0,0,1,.149.289,2.083,2.083,0,0,1,1.395-.724,1.084,1.084,0,0,1,1.088,1.175v3.276h-.7V26.456c0-.417-.193-.636-.557-.636a1.1,1.1,0,0,0-.636.237,4.065,4.065,0,0,0-.434.364l-.079.07v3.171H19.3V26.579c0-.377-.009-.434-.123-.557a.537.537,0,0,0-.443-.175,1.692,1.692,0,0,0-1.105.574v3.241h-.653V26.43a2.136,2.136,0,0,0-.158-1.052" transform="translate(56.944 85.346)" fill="#fff"/><path d="M19.068,27.1h1.987a1.855,1.855,0,0,0-.2-.969.929.929,0,0,0-.785-.382c-.618,0-.965.452-1,1.351m2.342,1.688.259.434a2.144,2.144,0,0,1-1.46.539c-1.2,0-1.925-.868-1.925-2.307A2.263,2.263,0,0,1,18.8,25.82a1.634,1.634,0,0,1,1.3-.61,1.565,1.565,0,0,1,1.175.478c.377.382.478.794.5,1.829v.1H19.068v.105a1.762,1.762,0,0,0,.2.947,1.239,1.239,0,0,0,1.083.531,1.479,1.479,0,0,0,1.061-.408" transform="translate(61.893 85.343)" fill="#fff"/><path d="M19.25,25.4l.662-.184a1.457,1.457,0,0,1,.158.68,1.944,1.944,0,0,1,1.368-.671,1.155,1.155,0,0,1,1.061.636,1.253,1.253,0,0,1,.105.5v3.293h-.693V26.722c0-.46-.022-.583-.153-.724a.636.636,0,0,0-.478-.184,2,2,0,0,0-1.2.61v3.232h-.662V26.423A1.868,1.868,0,0,0,19.25,25.4" transform="translate(65.167 85.353)" fill="#fff"/><path d="M22.523,26.183l-.21.531H21.4V29.5c0,.478.127.645.557.645a.889.889,0,0,0,.434-.088l.1.434a1.6,1.6,0,0,1-.767.171,1.265,1.265,0,0,1-.566-.118c-.3-.149-.417-.425-.417-.864V26.713h-.566v-.531h.566V26.13c0-.215.018-.46.061-.9l.009-.114.7-.158a11.408,11.408,0,0,0-.083,1.228Z" transform="translate(68.288 84.48)" fill="#fff"/><path d="M23.784,25.544l-.254.5a2.447,2.447,0,0,0-1.088-.316.73.73,0,0,0-.82.715.6.6,0,0,0,.123.386.768.768,0,0,0,.5.241l.574.123c.785.175,1.162.566,1.162,1.21a1.463,1.463,0,0,1-1.64,1.421,3.187,3.187,0,0,1-1.592-.439l.263-.5a2.581,2.581,0,0,0,1.373.412c.531,0,.881-.289.881-.75,0-.395-.219-.61-.715-.715l-.539-.114a1.37,1.37,0,0,1-.82-.434,1.146,1.146,0,0,1-.276-.759A1.383,1.383,0,0,1,22.46,25.2a2.821,2.821,0,0,1,1.324.346" transform="translate(70.258 85.302)" fill="#fff"/><path d="M12.189,30.523h1.846s-.469-1.491-.627-2l-.285-.921-.3.877c-.035.123-.636,2.048-.636,2.048m1.43-3.552L15.6,32.944h-.811l-.566-1.837H11.992l-.574,1.837h-.724l1.991-5.973Z" transform="translate(36.202 91.304)" fill="#fff"/><path d="M11.89,27.505l.662-.184a1.469,1.469,0,0,1,.158.68,1.943,1.943,0,0,1,1.364-.671,1.157,1.157,0,0,1,1.066.636,1.249,1.249,0,0,1,.1.5v3.293h-.684V28.83c0-.46-.026-.583-.158-.724a.636.636,0,0,0-.478-.184,2,2,0,0,0-1.2.61v3.232h-.662V28.531a1.876,1.876,0,0,0-.167-1.026" transform="translate(40.251 92.489)" fill="#fff"/><path d="M15.164,28.291l-.21.531h-.912v2.785c0,.482.132.645.557.645a.889.889,0,0,0,.434-.088l.1.439a1.6,1.6,0,0,1-.767.171,1.266,1.266,0,0,1-.566-.123c-.3-.145-.417-.425-.417-.86V28.822h-.566v-.531h.566v-.053c0-.219.018-.46.061-.908l.009-.11.706-.158a10.847,10.847,0,0,0-.088,1.228Z" transform="translate(43.376 91.616)" fill="#fff"/><path d="M13.629,28.808l.719-.114v4.434h-.719Zm.364-1.89a.531.531,0,1,1-.531.539.537.537,0,0,1,.531-.539" transform="translate(45.573 91.125)" fill="#fff"/></g></g><rect width="1.662" height="0.662" transform="translate(60.876 121.599)" fill="#fff"/><g transform="translate(0 0)"><g clip-path="url(#a)"><path d="M15.81,30.523h1.846s-.469-1.491-.627-2l-.285-.921-.3.877c-.035.123-.636,2.048-.636,2.048m1.43-3.552,1.978,5.973h-.811l-.566-1.837H15.613l-.574,1.837h-.724l2-5.973Z" transform="translate(48.46 91.304)" fill="#fff"/><path d="M18.364,29.835a1.174,1.174,0,0,0-1.052-.452.924.924,0,0,0-.811.452,2.123,2.123,0,0,0-.276,1.254c0,.75.079,1.083.338,1.359a.838.838,0,0,0,.706.281,1.193,1.193,0,0,0,.838-.281.844.844,0,0,0,.259-.311ZM19.052,27v4.841a9.715,9.715,0,0,0,.044,1.052,1.582,1.582,0,0,0,.088.351h-.7a1.539,1.539,0,0,1-.1-.443,1.54,1.54,0,0,1-.294.268,1.458,1.458,0,0,1-.855.237c-1.123,0-1.767-.811-1.767-2.2a2.279,2.279,0,0,1,.895-2.008,1.385,1.385,0,0,1,.838-.281,1.454,1.454,0,0,1,1.175.557s-.009-.355-.009-.671v-1.82Z" transform="translate(52.384 91.01)" fill="#fff"/><path d="M16.523,27.02l.68-.132a3.542,3.542,0,0,1,.114,1V28.9q0,.25-.026.592a2.33,2.33,0,0,1,.434-.342,1.759,1.759,0,0,1,1.009-.346,1.139,1.139,0,0,1,1.114.688,1.919,1.919,0,0,1,.07.627v3.109h-.671v-3a.949.949,0,0,0-.162-.649.741.741,0,0,0-.5-.171,1.746,1.746,0,0,0-1.263.732v3.083h-.68V27.883a2.628,2.628,0,0,0-.114-.864" transform="translate(55.935 91.023)" fill="#fff"/><path d="M18.274,30.754H20.26a1.867,1.867,0,0,0-.2-.969.929.929,0,0,0-.785-.382c-.618,0-.965.452-1,1.351m1.758-3.894.373.671-1.947.873-.228-.412Zm.583,5.582.259.434a2.144,2.144,0,0,1-1.46.539c-1.2,0-1.925-.868-1.925-2.307a2.263,2.263,0,0,1,.522-1.636,1.634,1.634,0,0,1,1.3-.61,1.565,1.565,0,0,1,1.175.478c.377.382.478.794.5,1.829v.1H18.274v.105a1.72,1.72,0,0,0,.2.947,1.222,1.222,0,0,0,1.079.531,1.479,1.479,0,0,0,1.061-.408" transform="translate(59.205 90.929)" fill="#fff"/><path d="M18.46,27.517l.68-.184a1.283,1.283,0,0,1,.145.645v.061a1.582,1.582,0,0,1,1.223-.724.815.815,0,0,1,.232.044l-.276.741a.531.531,0,0,0-.193-.035,1.044,1.044,0,0,0-.724.311.792.792,0,0,0-.25.689v2.719h-.68V28.473a1.98,1.98,0,0,0-.158-.956" transform="translate(62.492 92.469)" fill="#fff"/><path d="M19.761,29.207h1.987a1.912,1.912,0,0,0-.2-.969.929.929,0,0,0-.785-.382c-.618,0-.965.452-1,1.351M22.1,30.9l.259.434a2.144,2.144,0,0,1-1.46.539c-1.2,0-1.925-.868-1.925-2.307a2.263,2.263,0,0,1,.522-1.636,1.634,1.634,0,0,1,1.3-.61,1.565,1.565,0,0,1,1.175.478c.377.382.478.794.5,1.829v.1H19.761v.105a1.761,1.761,0,0,0,.2.947,1.234,1.234,0,0,0,1.083.531A1.486,1.486,0,0,0,22.1,30.9" transform="translate(64.239 92.476)" fill="#fff"/><path d="M19.942,27.505l.662-.184a1.469,1.469,0,0,1,.158.68,1.944,1.944,0,0,1,1.368-.671,1.155,1.155,0,0,1,1.061.636,1.253,1.253,0,0,1,.105.5v3.293h-.689V28.83c0-.46-.026-.583-.158-.724a.636.636,0,0,0-.478-.184,2,2,0,0,0-1.2.61v3.232h-.662V28.531a1.876,1.876,0,0,0-.167-1.026" transform="translate(67.509 92.489)" fill="#fff"/><path d="M23.216,28.291l-.21.531h-.912v2.785c0,.482.132.645.557.645a.878.878,0,0,0,.434-.088l.1.439a1.582,1.582,0,0,1-.763.171,1.271,1.271,0,0,1-.57-.123c-.3-.145-.417-.425-.417-.86V28.822h-.566v-.531h.566v-.053c0-.219.018-.46.061-.908l.009-.11.706-.158a10.846,10.846,0,0,0-.088,1.228Z" transform="translate(70.634 91.616)" fill="#fff"/><path d="M24.476,27.652l-.254.5a2.424,2.424,0,0,0-1.088-.311.723.723,0,0,0-.816.71.622.622,0,0,0,.118.386.811.811,0,0,0,.5.241l.579.123c.781.175,1.158.566,1.158,1.21a1.463,1.463,0,0,1-1.64,1.421,3.229,3.229,0,0,1-1.592-.434l.263-.509a2.58,2.58,0,0,0,1.373.412c.535,0,.881-.289.881-.75,0-.39-.219-.61-.715-.715l-.539-.114a1.407,1.407,0,0,1-.82-.434,1.146,1.146,0,0,1-.276-.759,1.385,1.385,0,0,1,1.539-1.329,2.807,2.807,0,0,1,1.324.346" transform="translate(72.601 92.438)" fill="#fff"/></g></g><path d="M34.966,11.865l1.416,4.53,4.745-.053L37.26,19.088l1.513,4.5-3.806-2.833L31.16,23.587l1.517-4.5L28.8,16.343l4.745.053Z" transform="translate(97.512 40.168)" fill="#fff"/><path d="M37.233,14.132l1.416,4.53,4.745-.053-3.868,2.745,1.513,4.5-3.806-2.833-3.806,2.833,1.517-4.5-3.872-2.745,4.745.053Z" transform="translate(105.185 47.84)" fill="#fff"/><path d="M32.612,9.512l1.416,4.53,4.745-.053-3.868,2.745,1.513,4.5L32.612,18.4l-3.806,2.833,1.517-4.5-3.872-2.745,4.745.053Z" transform="translate(89.544 32.2)" fill="#fff"/><path d="M30.259,7.158l1.416,4.53,4.745-.053-3.868,2.745,1.513,4.5-3.806-2.833L26.452,18.88l1.517-4.5L24.1,11.635l4.745.053Z" transform="translate(81.577 24.232)" fill="#fff"/><path d="M27.905,4.8l1.416,4.53,4.745-.053L30.2,12.027l1.513,4.5-3.806-2.833L24.1,16.526l1.517-4.5L21.744,9.282l4.745.053Z" transform="translate(73.609 16.264)" fill="#fff"/><path d="M25.551,2.451l1.416,4.53,4.745-.053L27.845,9.673l1.513,4.5L25.551,11.34l-3.806,2.833,1.517-4.5L19.39,6.928l4.745.053Z" transform="translate(65.641 8.296)" fill="#fff"/><g transform="translate(0 0)"><g clip-path="url(#a)"><path d="M24.6,36.342l-.728.728,1.566,1.557.605-.605c.653-.658.811-1.105.066-1.846-.561-.566-1-.333-1.509.167m2.872,3.013-.653.653,2.408,2.416-2.087,2.087-6.788-6.784,2.653-2.649c2.07-2.07,3.85-2.719,5.4-1.171,1,1,1.728,2.785-.93,5.447" transform="translate(68.904 111.893)" fill="#fff"/><path d="M26.754,34.273l-.588.583,1.386,1.381.592-.6c.715-.71.675-1.237.219-1.7-.487-.487-.956-.325-1.609.329M33.332,38.4l-2.75-1.044c-1.017-.386-1.294-.289-1.745.167l2.684,2.688L29.429,42.3l-6.784-6.788,2.807-2.8c2.394-2.394,3.973-2.355,5.1-1.228a2.549,2.549,0,0,1,.206,3.592,2.215,2.215,0,0,1,1.548-.088c.724.189,2.671.754,3.442,1Z" transform="translate(76.66 104.06)" fill="#fff"/><path d="M28.4,31.45c-.947.947-.517,2.171.781,3.464,1.732,1.732,2.662,1.658,3.526.794.886-.886.838-1.71-.908-3.451-1.693-1.7-2.5-1.706-3.4-.807m5.644,5.666c-2.359,2.359-4.973,2.364-7.008.329-2.412-2.412-2.087-5.267.061-7.416,2.767-2.767,5.332-1.816,6.823-.325,1.947,1.947,3.03,4.5.123,7.411" transform="translate(85.845 95.675)" fill="#fff"/></g></g><path d="M33.353,27.447,31.1,29.7l1.14,1.14,1.833-1.833,1.381,1.381-1.824,1.82,2.833,2.833-2.087,2.092L27.587,30.35l4.486-4.486Z" transform="translate(93.389 87.555)" fill="#fff"/><rect width="3.022" height="9.596" transform="translate(129.338 109.544) rotate(-45)" fill="#fff"/><path d="M42.322,27.352l-4.486,4.486-6.784-6.784,2.114-2.114,5.341,5.341,2.771-2.767Z" transform="translate(105.118 77.66)" fill="#fff"/><path d="M39.86,31.835l-6.784-6.784,4.732-4.732L39.083,21.9,36.6,24.389l1.14,1.14,2.03-2.03,1.381,1.381-2.03,2.03L40.5,28.292,43.293,25.5,44.74,26.95Z" transform="translate(111.97 68.788)" fill="#fff"/></svg>