<svg xmlns="http://www.w3.org/2000/svg" width="70.476" height="102.58" viewBox="0 0 70.476 102.58">
    <defs>
        <style>.a{fill:#202041;}</style>
    </defs>
    <g transform="translate(-643.247 -106.521)">
        <path class="a"
              d="M661.026,157.379a1.907,1.907,0,0,0-.2,2.69l.076.088a1.823,1.823,0,0,0,1.378.625,1.924,1.924,0,0,0,1.433-3.2A1.907,1.907,0,0,0,661.026,157.379Z"
              transform="translate(-0.795 -2.341)"/>
        <path class="a"
              d="M660.055,151.475l-.038-.1a1.884,1.884,0,0,0-2.456-1.047,1.932,1.932,0,0,0-1.077,2.486l.019.048a1.907,1.907,0,0,0,3.552-1.387Z"
              transform="translate(-0.609 -2.028)"/>
        <path class="a"
              d="M654.851,144.486a1.907,1.907,0,0,0,1.906,1.878h.029a1.907,1.907,0,0,0,1.879-1.935c0-.01,0-.113,0-.123a1.907,1.907,0,0,0-3.812.112Z"
              transform="translate(-0.539 -1.669)"/>
        <path class="a"
              d="M660.489,131.264a1.908,1.908,0,0,0,2.683-.279l.084-.1a1.908,1.908,0,0,0-3.011-2.343l-.035.044A1.909,1.909,0,0,0,660.489,131.264Z"
              transform="translate(-0.768 -0.988)"/>
        <path class="a"
              d="M657.323,138.494a1.9,1.9,0,0,0,2.417-1.195l.03-.092a1.907,1.907,0,0,0-3.613-1.222l-.031.091A1.907,1.907,0,0,0,657.323,138.494Z"
              transform="translate(-0.594 -1.308)"/>
        <path class="a" d="M689.294,125.49l.1.051a1.907,1.907,0,1,0,1.772-3.377l-.072-.039a1.907,1.907,0,1,0-1.8,3.365Z"
              transform="translate(-2.092 -0.714)"/>
        <path class="a"
              d="M700.646,137.261a1.908,1.908,0,0,0,1.761-2.636l-.036-.088a1.868,1.868,0,0,0-2.472-.992,1.95,1.95,0,0,0-1.017,2.536A1.907,1.907,0,0,0,700.646,137.261Z"
              transform="translate(-2.577 -1.248)"/>
        <path class="a"
              d="M682.556,123.291a1.939,1.939,0,0,0,.256.017,1.891,1.891,0,0,0,1.866-1.651,1.926,1.926,0,0,0-1.646-2.151l-.066-.01a1.867,1.867,0,0,0-2.094,1.646A1.949,1.949,0,0,0,682.556,123.291Z"
              transform="translate(-1.747 -0.602)"/>
        <path class="a"
              d="M668.631,126.146a1.907,1.907,0,0,0-1.971-3.266l-.1.063a1.866,1.866,0,0,0-.581,2.591,1.9,1.9,0,0,0,1.635.893A1.968,1.968,0,0,0,668.631,126.146Z"
              transform="translate(-1.042 -0.747)"/>
        <path class="a" d="M674.469,119.781a1.907,1.907,0,1,0,.781,3.733l.1-.02a1.907,1.907,0,1,0-.791-3.731Z"
              transform="translate(-1.38 -0.613)"/>
        <path class="a"
              d="M669.281,162.143a1.9,1.9,0,0,0-2.582.739,1.92,1.92,0,0,0,.743,2.6l.072.041a1.844,1.844,0,0,0,.889.231,1.9,1.9,0,0,0,1.656-1A1.948,1.948,0,0,0,669.281,162.143Z"
              transform="translate(-1.078 -2.572)"/>
        <path class="a"
              d="M695.593,157.3l-.075.09A1.9,1.9,0,0,0,697,160.46a1.958,1.958,0,0,0,1.5-.7l.022-.028a1.907,1.907,0,1,0-2.934-2.435Z"
              transform="translate(-2.408 -2.326)"/>
        <path class="a"
              d="M697.736,130.089a1.928,1.928,0,0,0,.107-2.709l-.039-.042a1.867,1.867,0,0,0-2.662-.077,1.948,1.948,0,0,0-.08,2.73,1.863,1.863,0,0,0,1.379.606A1.915,1.915,0,0,0,697.736,130.089Z"
              transform="translate(-2.383 -0.939)"/>
        <path class="a"
              d="M701.6,149.942a1.939,1.939,0,0,0-2.453,1.187,1.907,1.907,0,1,0,3.578,1.321l.038-.1A1.874,1.874,0,0,0,701.6,149.942Z"
              transform="translate(-2.591 -2.012)"/>
        <path class="a" d="M684.047,168.234a1.907,1.907,0,0,0-.672-3.755l-.121.023a1.907,1.907,0,1,0,.727,3.744Z"
              transform="translate(-1.786 -2.691)"/>
        <path class="a"
              d="M675.544,168.325a1.928,1.928,0,0,0,.312.026,1.907,1.907,0,0,0,.307-3.789l-.1-.016a1.907,1.907,0,1,0-.608,3.765Z"
              transform="translate(-1.421 -2.694)"/>
        <path class="a"
              d="M690.1,161.965l-.094.056a1.882,1.882,0,0,0-.628,2.594,1.906,1.906,0,0,0,1.646.92,1.936,1.936,0,0,0,.983-.266l.04-.023a1.907,1.907,0,0,0-1.946-3.281Z"
              transform="translate(-2.13 -2.563)"/>
        <path class="a"
              d="M704.662,143.307a1.907,1.907,0,0,0-3.812.112v.068a1.907,1.907,0,0,0,1.906,1.878h.029a1.907,1.907,0,0,0,1.879-1.935C704.664,143.42,704.662,143.316,704.662,143.307Z"
              transform="translate(-2.675 -1.623)"/>
        <path class="a"
              d="M678.485,106.521a35.278,35.278,0,0,0-35.238,35.239c0,18.8,32.306,64.6,33.681,66.538a1.908,1.908,0,0,0,3.112,0c1.375-1.94,33.682-47.739,33.682-66.538A35.279,35.279,0,0,0,678.485,106.521Zm0,97.331c-6.539-9.513-31.423-46.73-31.423-62.093a31.424,31.424,0,1,1,62.848,0C709.909,157.118,685.023,194.339,678.485,203.852Z"/>
        <path class="a"
              d="M691.358,156.266a1.907,1.907,0,0,0,.489-1.46L690,134.9a1.907,1.907,0,0,0-1.9-1.731h-3.079V131.2a5.6,5.6,0,0,0-11.195,0v1.969h-3.079a1.907,1.907,0,0,0-1.9,1.731L667,154.806a1.908,1.908,0,0,0,1.9,2.083h21.045A1.9,1.9,0,0,0,691.358,156.266ZM677.642,131.2a1.783,1.783,0,0,1,3.566,0v1.969h-3.566ZM671,153.075l1.492-16.093h1.341v1.227a1.907,1.907,0,0,0,3.814,0v-1.227h3.566v1.227a1.907,1.907,0,0,0,3.814,0v-1.227h1.341l1.492,16.093Z"
              transform="translate(-1.103 -0.886)"/>
    </g>
</svg>