<svg xmlns="http://www.w3.org/2000/svg" width="113.498" height="68.211" viewBox="0 0 113.498 68.211">
    <defs>
        <style>.a{fill:#202041;}</style>
    </defs>
    <g transform="translate(-359.55 -119.255)">
        <path class="a"
              d="M407.8,153.359a4.106,4.106,0,0,1,.142-1.089,2.556,2.556,0,0,1,.462-.925,2.3,2.3,0,0,1,.806-.639,2.712,2.712,0,0,1,1.2-.237,1.709,1.709,0,0,1,1.493.628,2.852,2.852,0,0,1,.451,1.694v6.777H415.2v-6.161a4.512,4.512,0,0,1,.13-1.078,2.712,2.712,0,0,1,.427-.948,2.191,2.191,0,0,1,.758-.664,2.345,2.345,0,0,1,1.126-.248,2.223,2.223,0,0,1,1.042.213,1.684,1.684,0,0,1,.64.58,2.429,2.429,0,0,1,.332.853,5.271,5.271,0,0,1,.1,1.008v6.445h2.843v-6.777a8.177,8.177,0,0,0-.213-1.908,4.284,4.284,0,0,0-.7-1.552,3.355,3.355,0,0,0-1.268-1.042,4.37,4.37,0,0,0-1.919-.38,4.5,4.5,0,0,0-2.2.51,4.018,4.018,0,0,0-1.54,1.6,3.46,3.46,0,0,0-3.555-2.109,3.7,3.7,0,0,0-2.263.628,3.85,3.85,0,0,0-1.22,1.434h-.047v-1.777h-2.7v11.374H407.8Z"/>
        <path class="a"
              d="M424.983,145.777l2.274.142a1.377,1.377,0,0,1,.439-.913,1.448,1.448,0,0,1,1.031-.367,1.921,1.921,0,0,1,.936.214.745.745,0,0,1,.391.71.986.986,0,0,1-.321.687c-.212.222-.43.427-.651.617l-4.266,3.6v2.251h7.655v-1.991h-4.692v-.047l3.317-2.559a3.137,3.137,0,0,0,1.375-2.583,2.643,2.643,0,0,0-1.031-2.275,4.259,4.259,0,0,0-2.6-.759,4.393,4.393,0,0,0-2.69.783A3.185,3.185,0,0,0,424.983,145.777Z"/>
        <path class="a"
              d="M415.982,123.826a2.256,2.256,0,0,0,1.12-.3l.1-.057a2.257,2.257,0,0,0-2.244-3.916l-.1.056a2.258,2.258,0,0,0,1.124,4.216Z"/>
        <path class="a"
              d="M453.979,144.718l.1.054a2.257,2.257,0,1,0,2.159-3.964l-.1-.054a2.257,2.257,0,0,0-2.159,3.964Z"/>
        <path class="a"
              d="M422.809,127.625a2.257,2.257,0,1,0,2.168-3.959l-.1-.054a2.208,2.208,0,0,0-3.014.922A2.306,2.306,0,0,0,422.809,127.625Z"/>
        <path class="a"
              d="M446.155,140.427l.1.054a2.257,2.257,0,1,0,2.175-3.955l-.1-.054a2.257,2.257,0,0,0-2.175,3.955Z"/>
        <path class="a"
              d="M430.625,131.911a2.257,2.257,0,1,0,2.168-3.959l-.1-.054a2.209,2.209,0,0,0-3.014.922A2.306,2.306,0,0,0,430.625,131.911Z"/>
        <path class="a"
              d="M438.339,136.141l.1.054a2.257,2.257,0,0,0,2.175-3.955l-.1-.054a2.257,2.257,0,0,0-2.175,3.955Z"/>
        <path class="a"
              d="M408.238,128.241a2.256,2.256,0,0,0,1.12-.3l.1-.057a2.257,2.257,0,0,0-2.244-3.916l-.1.056a2.258,2.258,0,0,0,1.124,4.216Z"/>
        <path class="a"
              d="M368.5,146.04l-.1.056a2.209,2.209,0,0,0-.8,3.048,2.258,2.258,0,0,0,1.977,1.122,2.315,2.315,0,0,0,1.148-.3,2.256,2.256,0,0,0-2.227-3.925Z"/>
        <path class="a"
              d="M464.058,145.1l-.1-.054a2.21,2.21,0,0,0-3.014.923,2.3,2.3,0,0,0,.945,3.09,2.257,2.257,0,1,0,2.168-3.959Z"/>
        <path class="a"
              d="M378.483,145.542a2.256,2.256,0,1,0-2.253-3.91l-.1.056a2.208,2.208,0,0,0-.779,3.054,2.258,2.258,0,0,0,1.968,1.11A2.322,2.322,0,0,0,378.483,145.542Z"/>
        <path class="a"
              d="M471.878,149.385l-.1-.055a2.257,2.257,0,1,0-2.175,3.955l.1.055a2.257,2.257,0,1,0,2.175-3.955Z"/>
        <path class="a"
              d="M392.75,137.071a2.243,2.243,0,0,0,1.119-.3l.1-.056a2.256,2.256,0,1,0-2.243-3.916l-.1.056a2.257,2.257,0,0,0,1.124,4.216Z"/>
        <path class="a"
              d="M360.75,150.457l-.1.056a2.211,2.211,0,0,0-.793,3.051,2.262,2.262,0,0,0,1.975,1.118,2.332,2.332,0,0,0,1.153-.3,2.257,2.257,0,1,0-2.237-3.921Z"/>
        <path class="a"
              d="M400.494,132.656a2.252,2.252,0,0,0,1.119-.3l.1-.057a2.256,2.256,0,1,0-2.243-3.916l-.1.056a2.258,2.258,0,0,0,1.125,4.216Z"/>
        <path class="a"
              d="M385.005,141.486a2.247,2.247,0,0,0,1.12-.3l.1-.056a2.257,2.257,0,0,0-2.244-3.916l-.1.056a2.258,2.258,0,0,0,1.124,4.216Z"/>
        <path class="a"
              d="M455.84,161.7l-7.494-1.561a2,2,0,0,0-.816,3.916l2.124.442L416.9,183.166l-32.927-18.6,2.234-.446a2,2,0,0,0-.784-3.923l-7.507,1.5a2,2,0,0,0-1.569,2.354l1.5,7.506a2,2,0,0,0,1.96,1.608,2.055,2.055,0,0,0,.394-.039,2,2,0,0,0,1.569-2.354l-.644-3.22,34.795,19.653a2,2,0,0,0,1.974,0l34.706-19.785-.693,3.325a2,2,0,1,0,3.916.815l1.561-7.494a2,2,0,0,0-1.55-2.365Z"/>
    </g>
</svg>