<svg xmlns="http://www.w3.org/2000/svg" width="83.913" height="103.162" viewBox="0 0 83.913 103.162">
    <defs>
        <style>.a{fill:#202041;}</style>
    </defs>
    <g transform="translate(-125.816 -101.281)">
        <path class="a" d="M143.716,143.78a2,2,0,0,0,0-4h-.1a2,2,0,0,0,0,4Z"/>
        <path class="a" d="M159.517,143.78a2,2,0,0,0,0-4h-.1a2,2,0,0,0,0,4Z"/>
        <path class="a" d="M151.517,139.78a1.959,1.959,0,0,0-1.951,2,2.043,2.043,0,0,0,2.05,2,2,2,0,0,0,0-4Z"/>
        <path class="a" d="M183.116,143.78h.1a2,2,0,0,0,0-4h-.1a2,2,0,0,0,0,4Z"/>
        <path class="a" d="M135.716,143.78h.1a2,2,0,0,0,0-4h-.1a2,2,0,0,0,0,4Z"/>
        <path class="a" d="M175.316,143.78a2,2,0,0,0,0-4h-.1a2,2,0,0,0,0,4Z"/>
        <path class="a" d="M206.816,143.78h.1a2,2,0,0,0,0-4h-.1a2,2,0,0,0,0,4Z"/>
        <path class="a" d="M167.417,143.78a2,2,0,0,0,0-4h-.1a2,2,0,0,0,0,4Z"/>
        <path class="a" d="M127.816,143.78h.1a2,2,0,1,0,0-4h-.1a2,2,0,0,0,0,4Z"/>
        <path class="a"
              d="M193.116,141.78a2,2,0,0,0-2-2h-.1a1.959,1.959,0,0,0-1.951,2,2.043,2.043,0,0,0,2.05,2A2,2,0,0,0,193.116,141.78Z"/>
        <path class="a" d="M196.917,141.78a2,2,0,0,0,2,2h.1a2,2,0,0,0,0-4h-.1A2,2,0,0,0,196.917,141.78Z"/>
        <path class="a" d="M143.616,169.435a2,2,0,1,0,0,4h.1a2,2,0,0,0,0-4Z"/>
        <path class="a" d="M191.017,169.435a1.958,1.958,0,0,0-1.951,2,2.044,2.044,0,0,0,2.05,2,2,2,0,0,0,0-4Z"/>
        <path class="a" d="M183.116,169.435a2,2,0,1,0,0,4h.1a2,2,0,0,0,0-4Z"/>
        <path class="a" d="M159.417,169.435a2,2,0,0,0,0,4h.1a2,2,0,0,0,0-4Z"/>
        <path class="a" d="M206.917,173.435a2,2,0,1,0,0-4h-.1a2,2,0,0,0,0,4Z"/>
        <path class="a" d="M198.917,173.435h.1a2,2,0,0,0,0-4h-.1a2,2,0,0,0,0,4Z"/>
        <path class="a" d="M175.216,169.435a2,2,0,0,0,0,4h.1a2,2,0,0,0,0-4Z"/>
        <path class="a" d="M135.816,173.435a2,2,0,0,0,0-4h-.1a2,2,0,0,0,0,4Z"/>
        <path class="a" d="M127.917,173.435a2,2,0,1,0,0-4h-.1a2,2,0,1,0,0,4Z"/>
        <path class="a" d="M167.316,169.435a2,2,0,0,0,0,4h.1a2,2,0,1,0,0-4Z"/>
        <path class="a"
              d="M139.887,139.205h10.7a2,2,0,0,0,2-2V118.392a7.339,7.339,0,0,0-3.442-6.222v-8.889a2,2,0,0,0-2-2h-3.813a2,2,0,0,0-2,2v8.89a7.389,7.389,0,0,0-3.441,6.221v18.813A2,2,0,0,0,139.887,139.205Zm2-20.813a3.354,3.354,0,0,1,2.15-3.124,2,2,0,0,0,1.2-1.266,2,2,0,0,0,1.2,1.267,3.343,3.343,0,0,1,2.147,3.123v16.813h-6.7Z"/>
        <path class="a"
              d="M166.638,139.205a13.111,13.111,0,1,0-13.11-13.111A13.126,13.126,0,0,0,166.638,139.205Zm0-22.221a9.111,9.111,0,1,1-9.11,9.11A9.121,9.121,0,0,1,166.638,116.984Z"/>
        <path class="a"
              d="M149.579,144.641a12.485,12.485,0,1,0,1.343,24.895,1.972,1.972,0,0,0-1.356,1.9,2.044,2.044,0,0,0,2.05,2,2,2,0,0,0,0-4h-.029a12.478,12.478,0,0,0-2.008-24.794Zm0,20.97a8.485,8.485,0,1,1,8.486-8.485A8.494,8.494,0,0,1,149.579,165.611Z"/>
        <path class="a"
              d="M187.692,179.409a10.32,10.32,0,1,0,10.319,10.32A10.332,10.332,0,0,0,187.692,179.409Zm0,16.639a6.32,6.32,0,1,1,6.319-6.319A6.327,6.327,0,0,1,187.692,196.048Z"/>
        <path class="a"
              d="M183.326,139.432h13.5a2,2,0,0,0,2-2V114.984a2,2,0,0,0-2-2h-13.5a2,2,0,0,0-2,2v22.448A2,2,0,0,0,183.326,139.432Zm2-22.448h9.5v18.448h-9.5Z"/>
        <path class="a"
              d="M198.011,167.059v-13.5a2,2,0,0,0-2-2H166.638a2,2,0,0,0-2,2v13.5a2,2,0,0,0,2,2h29.373A2,2,0,0,0,198.011,167.059Zm-4-2H168.638v-9.5h25.373Z"/>
        <path class="a" d="M128.729,200.443h-.1a2,2,0,1,0,0,4h.1a2,2,0,0,0,0-4Z"/>
        <path class="a" d="M136.629,200.443h-.1a2,2,0,0,0,0,4h.1a2,2,0,0,0,0-4Z"/>
        <path class="a" d="M176.129,200.443h-.1a2,2,0,0,0,0,4h.1a2,2,0,0,0,0-4Z"/>
        <path class="a" d="M184.029,200.443h-.1a2,2,0,0,0,0,4h.1a2,2,0,0,0,0-4Z"/>
        <path class="a" d="M191.929,200.443h-.1a1.959,1.959,0,0,0-1.95,2,2.043,2.043,0,0,0,2.05,2,2,2,0,0,0,0-4Z"/>
        <path class="a" d="M144.529,200.443h-.1a2,2,0,0,0,0,4h.1a2,2,0,0,0,0-4Z"/>
        <path class="a" d="M152.429,200.443h-.1a1.959,1.959,0,0,0-1.95,2,2.043,2.043,0,0,0,2.05,2,2,2,0,0,0,0-4Z"/>
        <path class="a" d="M199.829,200.443h-.1a2,2,0,0,0,0,4h.1a2,2,0,0,0,0-4Z"/>
        <path class="a" d="M168.229,200.443h-.1a2,2,0,1,0,0,4h.1a2,2,0,0,0,0-4Z"/>
        <path class="a" d="M160.329,200.443h-.1a2,2,0,0,0,0,4h.1a2,2,0,0,0,0-4Z"/>
        <path class="a" d="M207.729,200.443h-.1a2,2,0,1,0,0,4h.1a2,2,0,0,0,0-4Z"/>
        <path class="a"
              d="M175.468,198.067V181.409a2,2,0,0,0-2-2H138.857a2,2,0,0,0-2,2v16.658a2,2,0,0,0,2,2h34.611A2,2,0,0,0,175.468,198.067Zm-4-2H140.857V183.409h30.611Z"/>
    </g>
</svg>