<svg xmlns="http://www.w3.org/2000/svg" width="75" height="75" viewBox="0 0 75 75"><g transform="translate(-4973 -2150.69)"><path d="M66.48,75H8.524A8.533,8.533,0,0,1,0,66.476V8.524A8.536,8.536,0,0,1,8.524,0H66.48A8.529,8.529,0,0,1,75,8.524V66.476A8.526,8.526,0,0,1,66.48,75M8.524,2.558A5.971,5.971,0,0,0,2.558,8.524V66.476a5.977,5.977,0,0,0,5.966,5.971H66.48a5.977,5.977,0,0,0,5.966-5.971V8.524A5.97,5.97,0,0,0,66.48,2.558Z" transform="translate(4973 2150.69)" fill="#1a1818"/><path d="M32.451,58.016a31.124,31.124,0,0,1-18.5-6.323A29.97,29.97,0,0,1,1.79,28.141a1.279,1.279,0,0,1,1.239-1.314,1.312,1.312,0,0,1,1.318,1.239A27.476,27.476,0,0,0,15.482,49.651c6.76,5.058,15.593,6.994,23.076,5.04,11.624-3.029,20.351-14.446,19.87-26-.437-10.517-6.4-18.706-16.351-22.454a22.273,22.273,0,0,0-25.259,6.548c-6.09,7.28-7.324,15.125-3.678,23.314,3.409,7.642,9.529,11.836,18.2,12.462,7.726.551,15.011-3.911,18.512-11.4A17.766,17.766,0,0,0,33.849,11.657a15.747,15.747,0,0,0-11.8,5.468,15.232,15.232,0,0,0-3.193,14.993A14.2,14.2,0,0,0,29.624,41.48a11.743,11.743,0,0,0,12.321-4.467A11.288,11.288,0,0,0,43.7,24.7a10.818,10.818,0,0,0-10.843-6.143,9.3,9.3,0,0,0-7.779,7.236,1.278,1.278,0,0,1-2.5-.547,11.781,11.781,0,0,1,10.05-9.234,13.406,13.406,0,0,1,13.405,7.664,13.827,13.827,0,0,1-2.095,14.931,14.292,14.292,0,0,1-14.83,5.371A16.73,16.73,0,0,1,16.435,32.939a17.8,17.8,0,0,1,3.682-17.493A18.3,18.3,0,0,1,33.813,9.1a20.154,20.154,0,0,1,15.028,6.579,20.391,20.391,0,0,1,3.329,22.569C48.216,46.706,40,51.755,31.163,51.115c-9.551-.692-16.589-5.521-20.351-13.965-4.026-9.031-2.628-18.018,4.048-26a24.8,24.8,0,0,1,28.121-7.3C53.939,7.98,60.5,17,60.982,28.591c.529,12.7-9.04,25.254-21.779,28.579a26.851,26.851,0,0,1-6.751.847" transform="translate(4979.103 2158.096)" fill="#1a1818"/></g></svg>