<svg xmlns="http://www.w3.org/2000/svg" width="75" height="75" viewBox="0 0 75 75"><g transform="translate(-5379 -2300)"><path d="M66.48,75H8.524A8.53,8.53,0,0,1,0,66.476V8.524A8.533,8.533,0,0,1,8.524,0H66.48A8.532,8.532,0,0,1,75,8.524V66.476A8.529,8.529,0,0,1,66.48,75M8.524,2.558A5.971,5.971,0,0,0,2.558,8.524V66.476a5.977,5.977,0,0,0,5.966,5.971H66.48a5.977,5.977,0,0,0,5.966-5.971V8.524A5.97,5.97,0,0,0,66.48,2.558Z" transform="translate(5379 2300)" fill="#fff"/><path d="M7.288,12.04a15.367,15.367,0,0,1,1.57-3.828l-1.87-1.9A18.159,18.159,0,0,0,4.625,12.04Z" transform="translate(5394.77 2321.536)" fill="#fff"/><path d="M8.85,13.215A15.363,15.363,0,0,1,7.285,9.4H4.626a17.992,17.992,0,0,0,2.355,5.715Z" transform="translate(5394.773 2332.037)" fill="#fff"/><path d="M9.463,7.178a15.26,15.26,0,0,1,3.731,1.579L15.05,6.879A17.545,17.545,0,0,0,9.463,4.515Z" transform="translate(5411.266 2315.395)" fill="#fff"/><path d="M8.271,8.761A15.02,15.02,0,0,1,12,7.182V4.514A17.6,17.6,0,0,0,6.415,6.878Z" transform="translate(5400.873 2315.391)" fill="#fff"/><path d="M13.2,11.531a15.093,15.093,0,0,1-3.739,1.583v2.668a17.761,17.761,0,0,0,5.6-2.368Z" transform="translate(5411.266 2339.317)" fill="#fff"/><path d="M12.008,13.115a15.063,15.063,0,0,1-3.735-1.583L6.412,13.411a17.56,17.56,0,0,0,5.6,2.368Z" transform="translate(5400.863 2339.321)" fill="#fff"/><path d="M11.56,8.209a15.494,15.494,0,0,1,1.565,3.828h2.663A17.982,17.982,0,0,0,13.43,6.317Z" transform="translate(5418.416 2321.539)" fill="#fff"/><path d="M13.122,9.395a15.421,15.421,0,0,1-1.561,3.814l1.865,1.9a18.078,18.078,0,0,0,2.359-5.711Z" transform="translate(5418.419 2332.034)" fill="#fff"/><rect width="19.314" height="2.553" transform="translate(5407.597 2329.201)" fill="#fff"/><rect width="19.314" height="2.553" transform="translate(5407.597 2343.378)" fill="#fff"/><path d="M5.665,15.763A22.2,22.2,0,0,1,9.206,7.045l-1.8-1.821a24.8,24.8,0,0,0-4.3,10.539Z" transform="translate(5389.594 2317.812)" fill="#fff"/><path d="M7.126,9.122a21.539,21.539,0,0,1,8.555-3.585V2.975A24.083,24.083,0,0,0,5.336,7.31Z" transform="translate(5397.194 2310.144)" fill="#fff"/><path d="M9.2,18.1A22.156,22.156,0,0,1,5.666,9.395H3.108a24.731,24.731,0,0,0,4.3,10.53Z" transform="translate(5389.597 2332.034)" fill="#fff"/><path d="M9.463,5.534a21.584,21.584,0,0,1,8.55,3.585l1.795-1.812A24.1,24.1,0,0,0,9.463,2.976Z" transform="translate(5411.266 2310.147)" fill="#fff"/><path d="M15.684,16.233a21.681,21.681,0,0,1-8.555-3.594L5.334,14.456a24.04,24.04,0,0,0,10.35,4.33Z" transform="translate(5397.188 2343.095)" fill="#fff"/><path d="M12.654,7.043a22.3,22.3,0,0,1,3.541,8.718h2.553a24.67,24.67,0,0,0-4.3-10.535Z" transform="translate(5422.146 2317.819)" fill="#fff"/><path d="M16.192,9.395a22.163,22.163,0,0,1-3.537,8.7l1.8,1.821a24.736,24.736,0,0,0,4.3-10.526Z" transform="translate(5422.15 2332.034)" fill="#fff"/><path d="M18.022,12.639a21.636,21.636,0,0,1-8.559,3.594v2.558a24.093,24.093,0,0,0,10.354-4.339Z" transform="translate(5411.266 2343.095)" fill="#fff"/><path d="M4.156,19.487A28.95,28.95,0,0,1,9.685,5.971L7.869,4.132A31.489,31.489,0,0,0,1.576,19.487Z" transform="translate(5384.374 2314.089)" fill="#fff"/><path d="M6.064,9.6A28.22,28.22,0,0,1,19.359,4V1.425a30.726,30.726,0,0,0-15.1,6.35Z" transform="translate(5393.512 2304.859)" fill="#fff"/><path d="M9.684,22.9A28.9,28.9,0,0,1,4.159,9.4H1.575A31.517,31.517,0,0,0,7.868,24.742Z" transform="translate(5384.37 2332.037)" fill="#fff"/><path d="M9.463,4.009a28.113,28.113,0,0,1,13.3,5.6l1.808-1.834a30.784,30.784,0,0,0-15.1-6.35Z" transform="translate(5411.266 2304.859)" fill="#fff"/><path d="M22.763,13.727a28.223,28.223,0,0,1-13.3,5.6v2.58a30.689,30.689,0,0,0,15.108-6.354Z" transform="translate(5411.266 2346.805)" fill="#fff"/><path d="M19.363,19.332a28.091,28.091,0,0,1-13.3-5.6L4.255,15.566a30.782,30.782,0,0,0,15.108,6.35Z" transform="translate(5393.508 2346.805)" fill="#fff"/><path d="M13.729,5.967a28.969,28.969,0,0,1,5.53,13.516h2.58a31.533,31.533,0,0,0-6.293-15.35Z" transform="translate(5425.812 2314.092)" fill="#fff"/><path d="M19.252,9.395A29,29,0,0,1,13.731,22.9l1.812,1.834A31.5,31.5,0,0,0,21.832,9.395Z" transform="translate(5425.818 2332.034)" fill="#fff"/></g></svg>