<svg xmlns="http://www.w3.org/2000/svg" width="75" height="74.995" viewBox="0 0 75 74.995"><g transform="translate(-5265.625 -1532.628)"><path d="M66.481,75H8.523A8.532,8.532,0,0,1,0,66.472V8.523A8.535,8.535,0,0,1,8.523,0H66.481A8.531,8.531,0,0,1,75,8.523V66.472A8.529,8.529,0,0,1,66.481,75M8.523,2.557A5.973,5.973,0,0,0,2.557,8.523V66.472a5.98,5.98,0,0,0,5.966,5.97H66.481a5.973,5.973,0,0,0,5.962-5.97V8.523a5.966,5.966,0,0,0-5.962-5.966Z" transform="translate(5265.625 1532.628)" fill="#1a1818"/><path d="M32.473,22.449C15.087,22.449,1.462,16.4,1.462,8.679a1.279,1.279,0,1,1,2.557,0c0,5.975,13.294,11.218,28.454,11.218,15.261,0,28.644-5.243,28.644-11.218a1.279,1.279,0,0,1,2.557,0c0,7.593-14,13.771-31.2,13.771" transform="translate(5270.609 1557.858)" fill="#1a1818"/><path d="M33.291,38.361c-17.973,0-32.057-7.395-32.057-16.84S15.318,4.686,33.291,4.686s32.061,7.395,32.061,16.835-14.084,16.84-32.061,16.84m0-31.122C17.3,7.239,3.8,13.778,3.8,21.521S17.3,35.808,33.291,35.808s29.5-6.544,29.5-14.287S49.284,7.239,33.291,7.239" transform="translate(5269.832 1548.605)" fill="#1a1818"/><path d="M24.875,9.817c0,1.38-4.136,2.5-9.251,2.5s-9.247-1.12-9.247-2.5,4.14-2.5,9.247-2.5,9.251,1.12,9.251,2.5" transform="translate(5287.366 1557.575)" fill="#1a1818"/></g></svg>