<svg xmlns="http://www.w3.org/2000/svg" width="75" height="75" viewBox="0 0 75 75"><g transform="translate(-806 -2272)"><path d="M66.48,75H8.524A8.529,8.529,0,0,1,0,66.48V8.524A8.533,8.533,0,0,1,8.524,0H66.48A8.532,8.532,0,0,1,75,8.524V66.48A8.528,8.528,0,0,1,66.48,75M8.524,2.558A5.971,5.971,0,0,0,2.558,8.524V66.48a5.976,5.976,0,0,0,5.966,5.966H66.48a5.976,5.976,0,0,0,5.966-5.966V8.524A5.971,5.971,0,0,0,66.48,2.558Z" transform="translate(806 2272)" fill="#1a1818"/><rect width="58.605" height="6.39" transform="translate(814.198 2284.779)" fill="#1a1818"/><rect width="58.605" height="6.39" transform="translate(814.198 2327.831)" fill="#1a1818"/></g></svg>