<svg xmlns="http://www.w3.org/2000/svg" width="75" height="75" viewBox="0 0 75 75"><g transform="translate(-5274 -1709)"><path d="M66.48,75H8.524A8.529,8.529,0,0,1,0,66.48V8.524A8.533,8.533,0,0,1,8.524,0H66.48A8.532,8.532,0,0,1,75,8.524V66.48A8.528,8.528,0,0,1,66.48,75M8.524,2.558A5.971,5.971,0,0,0,2.558,8.524V66.48a5.976,5.976,0,0,0,5.966,5.966H66.48a5.976,5.976,0,0,0,5.966-5.966V8.524A5.97,5.97,0,0,0,66.48,2.558Z" transform="translate(5274 1709)" fill="#1a1818"/><path d="M32.879,29.879c-20.5,0-31.565-6.05-31.565-11.747,0-3.5,3.664-6.623,10.319-8.811l.794,2.43C7.069,13.51,3.872,15.9,3.872,18.132c0,4.348,11.915,9.194,29.007,9.194s29.007-4.846,29.007-9.194c0-2.293-2.813-4.8-7.166-6.381l.878-2.4c5.539,2.02,8.846,5.3,8.846,8.784,0,5.7-11.064,11.747-31.565,11.747" transform="translate(5278.48 1740.782)" fill="#1a1818"/><path d="M26.407,23.843c-11.465,0-23.067-2.857-23.067-8.312s11.6-8.317,23.067-8.317,23.067,2.853,23.067,8.317-11.6,8.312-23.067,8.312m0-14.076c-12.519,0-20.514,3.409-20.514,5.763s7.995,5.755,20.514,5.755,20.514-3.409,20.514-5.755-7.99-5.763-20.514-5.763" transform="translate(5285.388 1733.598)" fill="#1a1818"/><path d="M26.758,23.13C9.084,23.13,3.924,17.636,3.713,17.4l-.331-.366.044-7.713,2.558.013-.04,6.645c1.323,1.045,6.844,4.6,20.814,4.6,14.054,0,18.728-3.814,19.729-4.842V10.126H49.04v6.46l-.207.317c-.168.256-4.277,6.226-22.075,6.226" transform="translate(5285.531 1740.775)" fill="#1a1818"/><rect width="2.558" height="6.513" transform="translate(5298.787 1755.011)" fill="#1a1818"/><rect width="2.558" height="6.513" transform="translate(5321.144 1755.011)" fill="#1a1818"/><rect width="2.558" height="6.509" transform="translate(5310.517 1755.994)" fill="#1a1818"/><path d="M8.443,21.828s-5.772-1.782-6.817-6.7,1.292-4.361,0-10.072c0,0,10.014-.057,10.2,12.466a5.543,5.543,0,0,1-3.867-3.069s-1.6,1.041-.062,3.806.551,3.567.551,3.567" transform="translate(5278.597 1726.246)" fill="#1a1818"/><path d="M9.321,21.05s-5.186-3.1-5.04-8.118S6.565,9,6.662,3.147c0,0,9.741,2.311,6.958,14.526a5.547,5.547,0,0,1-3.034-3.9s-1.8.635-.961,3.687-.3,3.589-.3,3.589" transform="translate(5288.584 1719.73)" fill="#1a1818"/><path d="M13.807,20.927s4.582-3.938,3.581-8.859S14.46,8.585,13.366,2.83c0,0-9.207,3.942-4.374,15.5a5.551,5.551,0,0,0,2.324-4.357s1.879.317,1.574,3.466.917,3.484.917,3.484" transform="translate(5299.876 1718.649)" fill="#1a1818"/><path d="M15.17,21.043s5.322-2.857,5.4-7.88-2.1-4.03-1.94-9.887c0,0-9.838,1.87-7.6,14.195a5.55,5.55,0,0,0,3.206-3.753s1.764.714.789,3.726.146,3.6.146,3.6" transform="translate(5310.48 1720.17)" fill="#1a1818"/><path d="M16.807,21.706s5.724-1.927,6.641-6.87-1.407-4.326-.265-10.072c0,0-10.01.2-9.869,12.735A5.548,5.548,0,0,0,17.1,14.324s1.627,1.005.163,3.806-.459,3.576-.459,3.576" transform="translate(5319.392 1725.244)" fill="#1a1818"/></g></svg>