<svg xmlns="http://www.w3.org/2000/svg" viewBox="0 0 269.2 66.41"><defs><style>.cls-1{fill:#e81000;}.cls-2{fill:#b51006;}.cls-3{fill:#fff;}.cls-4{fill:none;}.cls-5{fill:#0c0c0c;}</style></defs><g id="Calque_2" data-name="Calque 2"><g id="Calque_1-2" data-name="Calque 1"><rect class="cls-1" x="202.32" y="7.05" width="59.04" height="59.31"/><path class="cls-2" d="M232.15,23c0-1.37,4.86-2.83,4.7-4.23s-5.2-1.9-5.51-3.15,3.94-3.88,3.44-5.14-5.53-.66-6.19-1.85c-.21-.36,0-1,.31-1.63h-6.51a24.39,24.39,0,0,1,5.28,12.52C229.23,33.09,219,45,204.78,46.19c-.83.08-1.65.1-2.46.1v4.82c1.15,1.3,2.36,3.93,3.46,3.84,1.36-.12,1.88-4.9,3.19-5.17s4.16,3.82,5.49,3.38.57-5.24,1.78-5.86,5,2.71,6.15,2-.83-5.28.23-6.18,5.61,1.34,6.51.31-2.23-4.94-1.46-6.07,5.76-.1,6.36-1.35-3.52-4.18-3.09-5.47,5.49-1.48,5.72-2.84S232.13,24.43,232.15,23Z"/><path class="cls-3" d="M231.74,24.33c0-1.34,4.86-2.82,4.71-4.2s-5.21-1.9-5.51-3.15,3.93-3.9,3.44-5.15-5.54-.65-6.19-1.84c-.33-.6.35-1.77,1-2.94h-8.34a24.51,24.51,0,0,1,6.42,13.83c1.55,13.54-8.7,25.46-22.9,26.64-.69,0-1.36.09-2,.09v5.32c1,1.38,2.09,3.42,3,3.34,1.39-.11,1.89-4.89,3.19-5.16s4.17,3.82,5.49,3.38.58-5.25,1.81-5.86,5,2.71,6.15,2-.83-5.28.23-6.19,5.6,1.35,6.51.31-2.23-4.93-1.46-6.07,5.76-.09,6.35-1.34-3.51-4.19-3.09-5.48,5.5-1.47,5.73-2.84S231.72,25.74,231.74,24.33Z"/><path class="cls-2" d="M259.09,32.75c-1.42-.08-3-4.73-4.45-4.63s-2,4.88-3.27,5.13-4.11-3.9-5.43-3.46-.66,5.24-1.89,5.82-5-2.81-6.1-2.08.73,5.29-.33,6.19-5.59-1.44-6.51-.42,2.15,5,1.36,6.1-5.76,0-6.37,1.25,3.44,4.25,3,5.53-5.51,1.4-5.76,2.75,4.46,3.32,4.4,4.72-4.9,2.75-4.76,4.15c.09,1.08,3.51,1.71,4.89,2.61h4.84a21.63,21.63,0,0,1-.53-3.22c-1.35-13.6,9.08-25.37,23.29-26.31a27.32,27.32,0,0,1,5.88.24V30.84C260.57,31.82,259.77,32.78,259.09,32.75Z"/><path class="cls-3" d="M258,33.55c-1.42-.07-3-4.72-4.46-4.63s-2,4.88-3.26,5.13-4.11-3.9-5.44-3.46-.65,5.25-1.88,5.82-5-2.78-6.11-2.07.73,5.28-.33,6.18-5.57-1.44-6.51-.42,2.15,5,1.37,6.11-5.76,0-6.38,1.23,3.44,4.24,3,5.53-5.52,1.4-5.77,2.75,4.46,3.32,4.4,4.72-4.89,2.75-4.76,4.13c.08.73,1.65,1.25,3.09,1.79h6.46c-.16-.79-.29-1.6-.37-2.4-1.34-13.56,9.1-25.32,23.32-26.28a28,28,0,0,1,6.93.42V30.38C260.25,31.61,259,33.61,258,33.55Z"/><path class="cls-2" d="M203.15,54.14a1.28,1.28,0,0,1-.1-.17c.12.15.15.23.1.17"/><path class="cls-2" d="M203.09,54.33l-.46-.73a5.46,5.46,0,0,1,.46.73"/><polygon class="cls-2" points="202.99 54.01 203.05 54.03 203.28 54.43 202.99 54.01"/><path class="cls-2" d="M228.29,43c0,.08,0,.14,0,.12Z"/><path class="cls-2" d="M227.61,41.08c-.07-.17-.11-.29-.15-.38a1.77,1.77,0,0,1,.15.38"/><path class="cls-2" d="M228.56,44.48l0-.1a.34.34,0,0,0,0-.11.46.46,0,0,1-.05.21"/><path class="cls-2" d="M214.94,50.82c-.06.33-.12.63-.15.88a1.77,1.77,0,0,1,.15-.88"/><path class="cls-2" d="M234,37.43l0-.15c0-.08,0-.14,0-.12a.46.46,0,0,1-.06.27"/><path class="cls-2" d="M227.86,40.47s0,0-.05,0,0-.06,0-.1Z"/><path class="cls-2" d="M227.52,44.77h0l-.29-.06.29.06"/><path class="cls-2" d="M232.68,34.59a2.49,2.49,0,0,1-.17-.31c.17.21.23.33.17.31"/><path class="cls-2" d="M227.44,40.66h0l0,0s0,0,0,0"/><path class="cls-2" d="M229,43.16c-.06-.16-.1-.29-.16-.47a2.6,2.6,0,0,1,.16.47"/><path class="cls-2" d="M214.94,50.82q0-.15.06-.27c0,.12,0,.19-.06.27"/><path class="cls-2" d="M204.64,55.91l.31.25a1.68,1.68,0,0,1-.31-.25"/><path class="cls-2" d="M228.69,7.57l.06-.1-.06.1"/><path class="cls-2" d="M233.59,13.06l-.1.1c.06-.08.1-.12.1-.1"/><path class="cls-4" d="M222,44.48a.55.55,0,0,1,.1-.08l.12,0-.1,0-.08,0S222,44.46,222,44.48Z"/><path class="cls-4" d="M222.33,47.5a8.06,8.06,0,0,0-.21-1.29C222.1,46.06,222.26,47.09,222.33,47.5Z"/><path class="cls-4" d="M222.41,47.36l0,.33S222.47,47.69,222.41,47.36Z"/><path class="cls-4" d="M222.47,44.65Z"/><path class="cls-4" d="M222.45,47.69c0-.08-.14-.44,0,.29Z"/><path class="cls-4" d="M232.28,34.17s.14.17.29.34Z"/><path class="cls-4" d="M217.93,49.15a9.26,9.26,0,0,0-1.11-.42,2,2,0,0,0-.67-.1.54.54,0,0,0-.27.08.36.36,0,0,0-.19.17c-.08.13,0,0,.15-.08a.92.92,0,0,1,.5-.06c-.17-.11.06-.11.4,0s.77.35,1,.45c-.13-.1-.5-.25-.59-.31a4.61,4.61,0,0,1,.76.33S217.9,49.15,217.93,49.15Z"/><path class="cls-4" d="M232.55,34.49l.17.22A1.63,1.63,0,0,0,232.55,34.49Z"/><path class="cls-4" d="M232.86,35.49l.23.33.21.34,0,0-.23-.36A4.09,4.09,0,0,0,232.86,35.49Z"/><path class="cls-4" d="M225.83,44.94l-.33-.06A1.29,1.29,0,0,0,225.83,44.94Z"/><path class="cls-4" d="M224.39,44.62l.46.11a3.19,3.19,0,0,0-.94-.19A1.58,1.58,0,0,1,224.39,44.62Z"/><path class="cls-4" d="M226.35,45l.52.07a3.48,3.48,0,0,0-1-.17Z"/><path class="cls-4" d="M222.74,44.12a1.09,1.09,0,0,0-.48.15l-.08.06s0,0-.06.05l0,0,0,0,0,0,.13-.1a1.24,1.24,0,0,1,.47-.13,2.85,2.85,0,0,1,.67,0A4,4,0,0,0,222.74,44.12Z"/><path class="cls-4" d="M228.44,7.78c-.15.42.29-.37.52-.73h-.12l-.17.31Z"/><path class="cls-4" d="M231.32,16.88Z"/><path class="cls-4" d="M231.3,16.84h0v0s0,0,0,0Z"/><path class="cls-4" d="M232.17,24.31Z"/><path class="cls-4" d="M231,31.92h0v0S231,31.9,231,31.92Z"/><path class="cls-4" d="M215.15,52.28c0,.17-.06.36-.06.36s0-.15.06-.27c-.06.22,0-.3,0-.46C215.19,51.91,215.17,52.11,215.15,52.28Z"/><path class="cls-4" d="M221.93,46.25a2.82,2.82,0,0,1,0-.41C221.91,45.9,221.91,46,221.93,46.25Z"/><path class="cls-4" d="M218.15,49.32a1.4,1.4,0,0,0-.2-.13A.46.46,0,0,0,218.15,49.32Z"/><path class="cls-4" d="M217.93,49.15a1,1,0,0,0,.2.07Z"/><path class="cls-4" d="M221.91,45.84c0-.13.06.2.06-.3C221.93,45.48,221.91,45.63,221.91,45.84Z"/><path class="cls-4" d="M234.14,26.35a3.15,3.15,0,0,0-.82-.63A8.21,8.21,0,0,0,234.14,26.35Z"/><path class="cls-4" d="M233.15,13.64l.23-.22c.11-.09.23-.21.23-.21C233.68,13,233.24,13.52,233.15,13.64Z"/><path class="cls-4" d="M234.3,11.87a.45.45,0,0,0-.12-.21c-.07-.06-.11-.08-.15-.08A.8.8,0,0,1,234.3,11.87Z"/><path class="cls-4" d="M234.34,12.12a.22.22,0,0,0,0-.1.56.56,0,0,0,0-.15,1.37,1.37,0,0,1,0,.29Z"/><path class="cls-4" d="M232.09,15.46c.38-.4.4-.27.79-.71C232.55,15.06,232.57,14.88,232.09,15.46Z"/><path class="cls-4" d="M232.65,18.21,232.2,18a3.23,3.23,0,0,1-.44-.24c-.15,0-.44-.26-.32-.13A4,4,0,0,0,232.65,18.21Z"/><path class="cls-4" d="M233.66,22.49c.1-.1.64-.4,1.1-.71A5.22,5.22,0,0,0,233.66,22.49Z"/><path class="cls-4" d="M235.68,21.15l-.08.09-.07.1c.34-.25.67-.54.61-.44a1.64,1.64,0,0,0,.23-.39c0-.11,0-.15,0-.09a1.12,1.12,0,0,1-.3.42A1.08,1.08,0,0,1,235.68,21.15Z"/><path class="cls-4" d="M232.38,11.12c-.31-.06-.56-.06-.71-.08a3.44,3.44,0,0,1,.5.08,7.55,7.55,0,0,1-.91-.12c.1.08,0,.14,1,.22C232.26,11.18,232,11.14,232.38,11.12Z"/><path class="cls-4" d="M233.53,11.47a1.11,1.11,0,0,1,.23.09l.21.12c-.17-.12-.15-.1-.17-.14a.63.63,0,0,1,.34.25s0,.06,0,.08v0h0V12a.37.37,0,0,1,0,.15.46.46,0,0,0,0-.31c0-.11-.15-.19-.11-.19a2.38,2.38,0,0,0-.65-.25C233.24,11.33,233.24,11.35,233.53,11.47Z"/><polygon class="cls-4" points="230.65 10.95 230.61 11.04 231.01 11.08 230.65 10.95"/><path class="cls-4" d="M231.26,11l-.19-.07S231.13,11,231.26,11Z"/><polygon class="cls-4" points="234.07 22.82 234.61 22.53 234.64 22.49 234.09 22.78 234.07 22.82"/><path class="cls-4" d="M231.63,16c.19-.23.46-.52.5-.6A2.72,2.72,0,0,0,231.63,16Z"/><path class="cls-4" d="M232.72,25.37l-.11-.1-.06-.05c.25.23.1.23.6.55l-.31-.25c.38.29-.42-.46.17,0,.23.18-.36-.34-.59-.57C232.4,25,232.92,25.49,232.72,25.37Z"/><path class="cls-2" d="M228.54,43.94v0Z"/><path class="cls-2" d="M222.47,44.65h0l0,0h0l0,0Z"/><path class="cls-2" d="M231.38,16.81h0v0h0Z"/><path class="cls-2" d="M227.54,38s0,0,0,0S227.52,38,227.54,38Z"/><path class="cls-2" d="M224.93,44.25a.07.07,0,0,1-.06,0Z"/><path class="cls-2" d="M221.7,51h-.1C221.68,51,221.7,51,221.7,51Z"/><path class="cls-2" d="M231,32h0v0Z"/><path class="cls-2" d="M231.38,16.81Z"/><path class="cls-2" d="M222.22,46.48v0Z"/><path class="cls-2" d="M236.93,20.47s0,0,0,.06v0S236.93,20.49,236.93,20.47Z"/><path class="cls-2" d="M212.17,54a1.11,1.11,0,0,0-.13-.12S212.1,53.87,212.17,54Z"/><path class="cls-2" d="M236.87,20.61s0,0,0-.08S236.89,20.59,236.87,20.61Z"/><path class="cls-2" d="M236.93,20.47a.61.61,0,0,0,0-.19C237,20.36,237,20.42,236.93,20.47Z"/><path class="cls-2" d="M228.69,37.84a.07.07,0,0,0,.06,0S228.73,37.84,228.69,37.84Z"/><path class="cls-2" d="M205.05,56.23s.06,0,.09,0Z"/><path class="cls-2" d="M208.62,51.28Z"/><path class="cls-2" d="M231.4,16.86Z"/><path class="cls-2" d="M235.12,30.11c-.4.14-1,.2-1.74.47l.59-.14-.13,0H234C233.8,30.42,234.78,30.25,235.12,30.11Z"/><path class="cls-2" d="M235.57,27.69a.8.8,0,0,1-.14-.17.63.63,0,0,1-.13-.17l-.27-.21-.27-.19.42.34C235.37,27.5,235.57,27.69,235.57,27.69Z"/><path class="cls-2" d="M232.86,35.32a2.22,2.22,0,0,0-.19-.23A1.66,1.66,0,0,0,232.86,35.32Z"/><path class="cls-2" d="M233,23.14l-.21.14A1.91,1.91,0,0,0,233,23.14Z"/><path class="cls-2" d="M232.55,25.24s0,0-.06,0S232.51,25.2,232.55,25.24Z"/><path class="cls-2" d="M231.13,32.69c-.15-.23,0,.11,0,.21a1.57,1.57,0,0,1-.21-.37c0,.16.28.43.61.93C231.59,33.44,231.19,32.88,231.13,32.69Z"/><path class="cls-2" d="M232.51,35.05a11,11,0,0,1-1-1.25C231.21,33.57,232.09,34.61,232.51,35.05Z"/><path class="cls-2" d="M234.14,26.35a.35.35,0,0,1,.1.08A.44.44,0,0,1,234.14,26.35Z"/><path class="cls-2" d="M230.61,10.83c-.06,0,.06,0-.1-.07l-.3-.06C229.78,10.68,230.25,10.79,230.61,10.83Z"/><path class="cls-2" d="M228.09,8.07a4.82,4.82,0,0,0-.42,1,2.13,2.13,0,0,0-.09.55c0-.17.15-.65.13-.46a1.78,1.78,0,0,0,0,.94l0,.1,0,0v0l0,0,0,0s0,0,0,.05l0,0,0,.06a1.31,1.31,0,0,0,.48.34l-.17-.11-.17-.15c0,.05.17.15,0,0l-.12-.11-.06-.06,0,0s0,0,0-.05l0,0h0l0,0h0v0c0-.1,0-.14,0-.16s0,.06,0,.08l0,0,0,0v0h0s0,.06.1.13a1.62,1.62,0,0,0,.38.31c.25.15.5.23.6.29,1,.23.21,0,.42,0a14,14,0,0,0,2.1.32l-.35-.09a6.79,6.79,0,0,1,1.69.23l-.13-.08a6.14,6.14,0,0,1,1.09.25,1.45,1.45,0,0,1,.33.21.24.24,0,0,1,0,.14V12l0,.06s0-.06,0,0a.8.8,0,0,1-.15.5,2.31,2.31,0,0,1-.4.5s0,.08-.12.21a7.55,7.55,0,0,0-.82.87c.28-.27.25-.12.55-.41-.57.71-.65.52-1.17,1.08-.29.36.33-.27.42-.33a8.3,8.3,0,0,0-1.13,1.33,2.86,2.86,0,0,0-.36.69,2.09,2.09,0,0,0-.08.34.55.55,0,0,0,0,.18c0,.05,0,.09,0,.15a.14.14,0,0,1,0-.08s0,0,0-.07a.83.83,0,0,0,0-.12.61.61,0,0,1,0-.29.79.79,0,0,0,0,.37s0,0,0,.06l0,0s0,0,0,.06,0,.08.06.12.11.15.11.13a.46.46,0,0,1-.13-.27,1.89,1.89,0,0,0,.77.69c.27.16.52.29.77.41a12.25,12.25,0,0,0,1.69.69c-.1-.06-.27-.14-.27-.17.61.19.55.34,1.51.69l-.17-.12c.33.12.52.29.46.27s.16,0,.33.14a1,1,0,0,1,.25.23.24.24,0,0,1,.07.15s0,.06,0,.08v.09a.58.58,0,0,1-.15.35,4.38,4.38,0,0,1-.29.34c-.21.21-.42.39-.54.52a20.72,20.72,0,0,0-2.13,1.21c-.5.42.54-.23.37,0a6.5,6.5,0,0,0-1.29.85c-.08-.06,1.13-1.06-.08-.19l-.13.17a2.41,2.41,0,0,1,.44-.38c.37-.22-.17.19-.23.26a1.56,1.56,0,0,0-.19.18,1.54,1.54,0,0,0-.37.46.7.7,0,0,0-.09.32v.16s0,.09,0,.13a.54.54,0,0,0,.07.19l0,.08s0,0-.07-.06a.4.4,0,0,1-.08-.15,1.08,1.08,0,0,1,0-.19,1,1,0,0,1,.06-.44,1,1,0,0,1,.11-.21,1.06,1.06,0,0,0-.19.59l0,.12s0,.11,0,.17a2.24,2.24,0,0,0,.13.27,3.47,3.47,0,0,0,.73.75c.52.42,1.08.76,1.52,1.13l-.08-.08a4.87,4.87,0,0,0,.91.62,1.88,1.88,0,0,1,.67.55c.23.2.19.16.19.12s0,0,.33.31c.13.21,0,.09,0,.07a1.21,1.21,0,0,1,.19.48V29s0,.06,0,.1a.35.35,0,0,1-.1.17,1.17,1.17,0,0,1-.4.29.44.44,0,0,1,.12,0l.11,0a5.67,5.67,0,0,1-1.73.61,16.2,16.2,0,0,0-1.67.43c.08,0,.71-.16,1-.18a10.77,10.77,0,0,0-2.34.73,1.76,1.76,0,0,0-.54.41.9.9,0,0,0-.17.3.92.92,0,0,0,0,.33,3,3,0,0,0,.46,1.06c-.29-.31.27.61-.27-.1a1.71,1.71,0,0,0-.19-.44,1.27,1.27,0,0,1-.12-.33,1.18,1.18,0,0,1,0-.44,1.47,1.47,0,0,0,.18,1,4.83,4.83,0,0,0,.63.9,6.66,6.66,0,0,1,.92,1.16l.18.11c.13.15.4.6.17.33,0,0,.25.27.46.55a4.46,4.46,0,0,1,.4.56,5.26,5.26,0,0,0-1.05-1.55c-.21-.37.42.42.25.09a3.5,3.5,0,0,0,.48.64,2.71,2.71,0,0,1,.5.65c-.16-.17,0,.06,0,.32a1,1,0,0,1,.08.37c0,.1,0,.13,0,.13s0,.1-.09.18-.14.09-.23.13a1.81,1.81,0,0,1-.58.12,18.94,18.94,0,0,1-2.82.21c.36,0,.92,0,.88.11a2.76,2.76,0,0,0-1.06.08c1.65.08.54-.17,2-.15a5.66,5.66,0,0,0,.61,0,3,3,0,0,0,.89-.15c-.31.15-.18.12-.29.21-1,.06-2.44.14-3.67.14a1.44,1.44,0,0,1-.42-.06,2.17,2.17,0,0,0-.92.11,4.85,4.85,0,0,1,.52-.15,2.8,2.8,0,0,1,.44-.08c-.5.08-.58.1-.62.08a.18.18,0,0,0-.11,0,1.79,1.79,0,0,0-.43.12L228,38a1.74,1.74,0,0,0-.67.31,1.12,1.12,0,0,0-.23.21s-.06.07-.08.11,0,.1-.08.16l.06-.12s0,0,0-.06l0,0h0l0,0h0l0,0a.44.44,0,0,1,.17-.14l.08-.06a.53.53,0,0,1-.12.1,1.34,1.34,0,0,0-.11.14.74.74,0,0,0-.08.15l-.06.19c0,.21,0,.37-.06.39a.43.43,0,0,0,.06.11,1.63,1.63,0,0,0,.12.58c-.06-.21-.1-.37-.06-.37.15.69.25.73.27.75s0,0,.19.35c0-.14.08.07.21.34a18.66,18.66,0,0,0,.63,2h0a5.34,5.34,0,0,1,.16.52,1.87,1.87,0,0,1,.07.34.87.87,0,0,0,0,.1c0-.1.08.1.08.33v0c0,.13,0,.06.08.06s0,0,0,.07a.44.44,0,0,1-.2.33,1.16,1.16,0,0,1-.19.08,1.67,1.67,0,0,1-.25,0c.1,0,0,0,0,0l-.26,0-.27,0a13.55,13.55,0,0,1-2.58-.52c.29.06.68.15.48.15a4.35,4.35,0,0,1-.65-.17l.06,0s-.48-.14-1-.23a5.47,5.47,0,0,0-.71-.1,1.71,1.71,0,0,0-.35,0,5.8,5.8,0,0,1,.69.06c.25,0,.41.08.14.06a3.55,3.55,0,0,0-1.31.09.74.74,0,0,1,.31-.15s.08,0,0,0a.8.8,0,0,0-.33.08,1,1,0,0,0-.15.11l-.06,0,0,0h0l0,0h0l0,0a.14.14,0,0,1-.06.07c-.09.18-.13.27,0,.1a2.36,2.36,0,0,0-.27,1.25c0,.42,0,.83.05,1.13s0-.11,0-.21v-.06a4.64,4.64,0,0,0,0-.9c.05,0,.07.27.11.65s.12.87.17,1.23l0-.55,0-.58c.09.46.21,1,.31,1.5a8.17,8.17,0,0,1,.15,1.63,1.75,1.75,0,0,1-.19.77.77.77,0,0,1-.12.13s-.06,0-.07.06l-.1,0a1.11,1.11,0,0,1-.37,0,5.19,5.19,0,0,1-1.4-.5c.52.21.92.38.89.27a9.21,9.21,0,0,1-1-.44l-1-.52.07,0a10.43,10.43,0,0,0-1.67-.78c.23.15.81.32.77.44l-.67-.33-.71-.29c.44.2,1.36.6,1.86.89s-.71-.39-.52-.37a19.16,19.16,0,0,1,2,1.23c.34.23-.58-.19-.79-.31-.36-.25-.83-.53-1.34-.82a5.48,5.48,0,0,0-.85-.4,2.94,2.94,0,0,0-1-.25.93.93,0,0,0-.38.09,1.07,1.07,0,0,0-.29.27,2.49,2.49,0,0,0-.38.5,2.15,2.15,0,0,0-.27,1,1,1,0,0,1,.05-.17l.06-.18c0,.27,0,.44-.06.58a5.06,5.06,0,0,1,.5-1.48,17,17,0,0,0-.59,2.94c0-.06.06-.4.09-.5a8.29,8.29,0,0,1-.4,2.23c-.11.32-.34.65-.63.69a1.26,1.26,0,0,1-.81-.27c-.21-.1,0,0,.21.15s.52.16.41.2a2.56,2.56,0,0,1-.83-.35,1.26,1.26,0,0,1-.44-.37c.13.25-1.1-.9-.25-.07-.89-.69-1.67-1.56-2.63-2.25a2.36,2.36,0,0,0-.79-.36.68.68,0,0,0-.42,0,1.36,1.36,0,0,0-.35.27,5.33,5.33,0,0,0-.82,1.52c.07-.1.09-.08.07,0a7.13,7.13,0,0,1,.56-1.15,2.21,2.21,0,0,1,.36-.45.71.71,0,0,1,.37-.15,2.27,2.27,0,0,0-.31.17,3.44,3.44,0,0,0-.27.27,2.82,2.82,0,0,0-.29.43c.08-.12.18-.27.25-.39s.2-.21.22-.19c-.18.25-.29.46-.41.65a5.28,5.28,0,0,0-.3.58l.07-.23a14.46,14.46,0,0,0-1,2.09c-.15.54.06,0,.12,0s-.21.52-.39.86a2.7,2.7,0,0,1-.3.47.65.65,0,0,1-.33.24.18.18,0,0,0,.11-.09,1,1,0,0,0,.22-.23c.13-.19.25-.39.25-.39a2.1,2.1,0,0,1-.62.7.72.72,0,0,1-.73,0l.1.07.09,0s-.07,0-.09,0a2.38,2.38,0,0,1-1-.88l-.16-.06c.12.12.31.35.52.54a4.63,4.63,0,0,0,.5.4,1,1,0,0,1-.52-.32,8.4,8.4,0,0,1-.55-.64,4.33,4.33,0,0,0,.71.81,1.34,1.34,0,0,0,.69.35.85.85,0,0,0,.69-.27,3.49,3.49,0,0,0,.54-.79l-.16.23c.41-.88.79-1.77,1.08-2.54-.06.22-.06.27,0,.18a10.52,10.52,0,0,1,.5-1.23,1.86,1.86,0,0,1,.36-.52.92.92,0,0,1,.19-.15l.08,0h.21A2.57,2.57,0,0,1,210,52c.38.29.74.62,1.13,1l.4.48.08,0c.69.58.25.31.48.52,0,0,0,0,0-.06a2.77,2.77,0,0,0,.69.54,1.77,1.77,0,0,1,.44.23c-.28-.19-1-.77-.76-.65a4.74,4.74,0,0,0,.8.59,1.56,1.56,0,0,0,.52.2,1.62,1.62,0,0,0,.31,0l.11,0,.16-.06a1.66,1.66,0,0,0,.57-.71c.1-.21.16-.35.19-.39.24-1.11.24-2.34.47-3.47.11-.54.3-1.12.61-1.12a1.37,1.37,0,0,1,.63.1,5.33,5.33,0,0,1,.64.25c.23.08-.14-.08,0-.06.59.35,2.17,1.06,2.15,1.12a2.7,2.7,0,0,0,.58.17c.21.11.44.23.71.34a2.21,2.21,0,0,0,.84.18.44.44,0,0,1-.15,0l-.25,0h.06a1.77,1.77,0,0,0,.36,0A.83.83,0,0,0,222,51h0v0l.05,0,0,0h0l0,0h0a.37.37,0,0,0,.15-.13,1,1,0,0,0,.21-.33,2,2,0,0,0,.14-.65,8.31,8.31,0,0,0-.06-1.23c-.1-.79-.23-1.54-.27-2.19,0,.65-.08.06-.09.1v0a8.6,8.6,0,0,1,.05-1.39,1,1,0,0,1,.12-.28l0,0,0,0h0l0,0h0l0,0h0s0,0,.05,0,0,0,.08,0l.08,0a2.88,2.88,0,0,1,.88,0s.1,0,0-.07l.37.07.36.1-.09-.06a21.29,21.29,0,0,0,3.76.75c-.61,0-.6-.08-.65-.11a4,4,0,0,0,.78,0,2.27,2.27,0,0,0,.43-.05,1.46,1.46,0,0,0,.23-.1c.07-.06.17-.12.21-.15a1,1,0,0,0,.27-.46,2.07,2.07,0,0,0,0-.48,3.38,3.38,0,0,0-.2-.89.43.43,0,0,1,0,.12c-.11-.31-.21-.66-.32-.94l-.08,0c-.21-.56-.58-1.23-.79-1.87a3.07,3.07,0,0,1-.3-.94c-.08-.5,0-.71.28-.84s-.5.17.12-.12a1.64,1.64,0,0,0,.56-.06c.25,0,.51,0,.55,0l.37-.05.36,0,.18.06c.63-.16,1,0,1.95-.06-.05,0-.15,0-.11,0,.31,0,1.07-.1.5,0a3.19,3.19,0,0,0,1.38-.42c.06-.06.12-.08.17-.16l.16-.17s0-.06,0-.08,0,0,0-.06l0,0s0,0,0-.06,0-.06,0,0,0,0,0,0a.06.06,0,0,1,0,0v.07h0s0,.06-.08.1,0,0,0,0a.74.74,0,0,1-.1.11.5.5,0,0,1-.07.08l-.08.06-.17.11a2.62,2.62,0,0,1-.71.23s.23-.07.48-.19a1.81,1.81,0,0,0,.36-.23c.1-.08.23-.25.21-.29s0,0,.06,0h0l0,0,0,0,0,0s0-.06,0-.1a1,1,0,0,0,0-.17,1.5,1.5,0,0,0-.2-.86,3.86,3.86,0,0,0-.38-.64c-.27-.38-.54-.71-.73-1a1.82,1.82,0,0,1-.36-.38l.05-.06-.32-.38-.31-.39.21.43a6.22,6.22,0,0,1-.81-1.17,1.84,1.84,0,0,1-.17-.5v-.1h0v0l0,0h0v0h0v0h0l0,0c0-.08.23-.29.69-.47s1-.3,1.36-.48l-.69.18,1.56-.46c.42-.14.82-.25,1.53-.52-.59.27-.88.34-1.24.48s-.79.25-1.62.55c.83-.26,1.58-.44,2.33-.67a3.78,3.78,0,0,0,1.13-.52,1.29,1.29,0,0,0,.29-.25.34.34,0,0,0,.13-.17.92.92,0,0,0,.14-.25.48.48,0,0,0,.05-.19v0h0l0-.06h0V29a1.9,1.9,0,0,0,0-.25c0-.07-.06-.15-.08-.21a2,2,0,0,1,.08.38c0,.12,0,.1-.08-.19a1.85,1.85,0,0,0-.56-.9c-.25-.25-.44-.4-.33-.35A8.81,8.81,0,0,0,235,27l-1.31-1.06,0,0a8.83,8.83,0,0,1-.83-.6,2.67,2.67,0,0,1-.59-.65.59.59,0,0,0-.06-.12.14.14,0,0,1,0-.07v0h0v0h0v0a.49.49,0,0,1,.14-.25,3.82,3.82,0,0,1,.67-.56c.54-.34,1.11-.65,1.71-1,.31-.17.59-.34.9-.55a4.91,4.91,0,0,0,.9-.77l-.07,0a2.57,2.57,0,0,0,.3-.35,1,1,0,0,0,.14-.25.06.06,0,0,0,0,0,1.3,1.3,0,0,0,0-.19.82.82,0,0,0,0-.21.25.25,0,0,0,0-.12v-.06h0v0h0l0,0s0-.06,0-.08l0-.08-.06-.11a1.07,1.07,0,0,0-.17-.27,2.37,2.37,0,0,0-.59-.5,8.53,8.53,0,0,0-.89-.46c-.06,0,0,.13.46.31-.69-.29-1.34-.58-1.92-.79l.19.09-.55-.23,0,.06A11,11,0,0,1,232,17.5a1.32,1.32,0,0,1-.43-.31s0,0,0-.06,0,0,0,0,0,0,0-.06h0l0,0h0v0a.2.2,0,0,1,0,.07.06.06,0,0,0,0,0h0v0h0v0h0v0s0-.09,0-.19a2.06,2.06,0,0,1,.21-.36.81.81,0,0,0-.16.21.59.59,0,0,0-.09.19,2.18,2.18,0,0,1,.4-.71c.21-.25.44-.5.67-.73.46-.44.85-.81.92-.9l-.09.06c.13-.16.25-.25.4-.41l-.15.1a11.28,11.28,0,0,0,.79-.92,2.45,2.45,0,0,0,.46-1,1.15,1.15,0,0,0,0-.37l0-.05v0l0,0v0l0,0a.65.65,0,0,0-.1-.15,1.22,1.22,0,0,0-.51-.41,4.85,4.85,0,0,0-1.33-.38c-.56-.08.31.06.31.09-.31,0-1-.15-1.17-.19.15.08,1,.19.34.16-.46-.1.31.09-.5,0l-.3-.14a6.11,6.11,0,0,1-.81,0c-.81-.13,1,0-.29-.15-.33,0-.67,0-1.08-.1a2.28,2.28,0,0,1-.63-.17.55.55,0,0,1-.34-.56c0-.25,0-.34,0-.36s0,0-.05.08,0,.07,0,0a2.73,2.73,0,0,1,.19-.6,3.7,3.7,0,0,0-.19.44,1.13,1.13,0,0,0-.08.33.77.77,0,0,0,0,.15,1.11,1.11,0,0,1,0-.23,1.27,1.27,0,0,1,.14-.54c.11-.21.32-.55.5-.86-.37.61-.23.33-.12,0s.27-.62-.09,0l.25-.44c0,.06-.06.06,0,0l.3-.54h0c-.23.36-.67,1.15-.51.73l.23-.42.17-.31h-.14l-.09.17C228.44,7.43,228.27,7.74,228.09,8.07Zm5.09,22.31-.59.14,0,0,.59-.14ZM221.91,45.84a2.82,2.82,0,0,0,0,.41c0-.25,0-.35,0-.41,0-.21,0-.38.06-.3C222,46.06,221.91,45.73,221.91,45.84Zm0-1a2.24,2.24,0,0,0-.08.29,2.56,2.56,0,0,0,0,.42,1.21,1.21,0,0,0,0-.21l0-.21a3.55,3.55,0,0,0-.06.61c0,.31,0,.61,0,.61a4.18,4.18,0,0,1-.05-1,1,1,0,0,1,.19-.6S222,44.73,221.93,44.81ZM210,51.89a.4.4,0,0,1-.09-.11l-.12-.12.25.2.23.19Zm4.82,1.23,0,.18s0-.14,0-.25l0-.25V53S214.86,53,214.84,53.12Zm.31-.75c0,.1-.06.37-.06.27s0-.17.06-.36,0-.37,0-.37C215.19,52.07,215.09,52.59,215.15,52.37Zm2.8-3.16a3.36,3.36,0,0,0-.76-.33c.09.06.46.23.59.31-.29-.1-.71-.33-1-.45s-.55-.11-.4,0a.92.92,0,0,0-.5.06c-.13.08-.23.21-.15.08a.64.64,0,0,1,.19-.17.61.61,0,0,1,.27-.08,2,2,0,0,1,.67.1,9.26,9.26,0,0,1,1.11.42.52.52,0,0,1,.2.07,1,1,0,0,1-.2-.07s0,0,0,.06a.52.52,0,0,1,.2.13Zm4.5-1.52,0-.33c0,.33,0,.37,0,.33l0,.29C222.31,47.27,222.41,47.63,222.45,47.69Zm-.12-.19c-.07-.41-.23-1.44-.21-1.29A8.06,8.06,0,0,1,222.33,47.5Zm.43-3.36a1,1,0,0,0-.47.13l-.13.1,0,0,.08,0,.09,0-.11.05c-.06,0-.12.08-.1.08l.06-.08,0,0,0,0,.06-.06.08-.06a1.09,1.09,0,0,1,.48-.15,2.68,2.68,0,0,1,.69,0A4.56,4.56,0,0,0,222.76,44.14Zm.48.11h0s.23.06.48.12a9,9,0,0,1,1,.25,2.32,2.32,0,0,0-.45-.1A7.3,7.3,0,0,1,223.24,44.25Zm1.15.37-.46-.1a6.24,6.24,0,0,1,.94.19A4.08,4.08,0,0,0,224.39,44.62Zm.88,0a1.93,1.93,0,0,0-.75-.14l.19,0a9.32,9.32,0,0,1,1.43.5C225.37,44.81,225.18,44.63,225.27,44.62Zm1.08.42-.52-.1-.33-.06.33.06a3.48,3.48,0,0,1,1,.17A3.05,3.05,0,0,1,226.35,45ZM229.06,44c0-.34-.12-.61-.14-.79,0,.16,0,.12.06.12s.08.08.13.48a1.18,1.18,0,0,1-.17,1l-.08.09s0,0-.05,0l-.1.06c-.06,0-.08,0,0,0a.72.72,0,0,0,.33-.44A1.47,1.47,0,0,0,229.06,44Zm-1.16-3.24.14.38-.19-.54Zm0-2.48a1,1,0,0,0-.61.38,1.59,1.59,0,0,0-.08.18s0,.09,0,.15,0,.19,0,.31a1.55,1.55,0,0,1,0-.33.65.65,0,0,1,.06-.21l0-.1a.82.82,0,0,0-.14.46,2.78,2.78,0,0,0,.14.83.88.88,0,0,1-.17-.52v-.27a1.14,1.14,0,0,1,0-.25.63.63,0,0,1,.15-.34.7.7,0,0,0-.17.4,1.57,1.57,0,0,0,0,.29v.23s-.08-.12-.12-.14a3.15,3.15,0,0,1,.06-.46l.06-.17,0-.08s0,0,0,0l0,0a1,1,0,0,1,.27-.23,1.88,1.88,0,0,1,.48-.16C228,38.16,228.06,38.18,227.94,38.26Zm3.78-3.92-.17-.27.37.42Zm1.6,1.82-.21-.34-.23-.33.25.35a2.91,2.91,0,0,1,.23.36Zm-.27-.51a3.3,3.3,0,0,1,.31.48,4.88,4.88,0,0,1-.5-.79,2.59,2.59,0,0,1-.19-.23,2.59,2.59,0,0,0,.19.23C233.05,35.57,233.11,35.65,233.05,35.65Zm-.5-1.16a1.28,1.28,0,0,1,.17.22l-.17-.22c-.15-.17-.29-.27-.29-.34Zm0,.56c-.4-.44-1.3-1.48-1-1.25C231.55,34,232.36,34.84,232.51,35.05ZM231,32.53a1.57,1.57,0,0,0,.21.37c0-.1-.19-.44,0-.21s.46.73.44.77C231.24,33,230.92,32.69,231,32.53Zm3-2.05h-.17l.13,0-.59.14c.75-.27,1.34-.33,1.74-.47C234.78,30.25,233.8,30.42,234,30.48Zm1-3.32c.13.09.27.21.27.21a1.87,1.87,0,0,1,.13.17,1.27,1.27,0,0,1,.14.17l-.41-.38-.42-.35Zm-.87-.81s.06.06.1.08l-.1-.08a8.21,8.21,0,0,1-.82-.63A3.54,3.54,0,0,1,234.14,26.35ZM233,25.56c-.59-.46.23.29-.17,0l.31.25c-.5-.32-.35-.32-.6-.55l-.06,0s0,0,.06,0l.06,0a.6.6,0,0,1,.11.1c.21.11-.3-.33-.3-.4C232.63,25.22,233.24,25.74,233,25.56Zm.1-2.4.25-.15a1.94,1.94,0,0,1-.23.13l-.23.16.15-.12s.06-.09-.08,0a1.91,1.91,0,0,1-.21.14,1.2,1.2,0,0,1,.21-.14,4,4,0,0,1,.83-.46A2.71,2.71,0,0,0,233.11,23.16Zm1.5-.63-.54.29,0,0,.53-.29Zm-1,0a5.22,5.22,0,0,1,1.1-.71C234.3,22.09,233.76,22.39,233.66,22.49Zm2.71-2a3.17,3.17,0,0,1-.23.39h0c.06-.1-.27.19-.61.44l.07-.1a.72.72,0,0,1,.08-.1s.21-.11.39-.28a2,2,0,0,0,.3-.43C236.43,20.38,236.41,20.42,236.37,20.53Zm-4.61-2.75.44.24.45.19a3.53,3.53,0,0,1-1.21-.56C231.32,17.52,231.61,17.75,231.76,17.78ZM231.63,16a2.72,2.72,0,0,1,.5-.6C232.07,15.44,231.82,15.75,231.63,16Zm.46-.5c.48-.58.46-.4.79-.71A7.34,7.34,0,0,1,232.09,15.46Zm1.52-2.25-.23.21a2.74,2.74,0,0,0-.23.22C233.24,13.52,233.68,13,233.61,13.21Zm.44-.36a.6.6,0,0,1-.1.11l-.07,0a.44.44,0,0,1,.13-.1l.13-.12A.45.45,0,0,1,234.05,12.85Zm-.67-1.5a1.87,1.87,0,0,1,.65.25.41.41,0,0,1,.15.08.4.4,0,0,1,.12.21.56.56,0,0,1,0,.15.15.15,0,0,0,0,.1l0,.06a1.19,1.19,0,0,0,0-.29.75.75,0,0,0-.25-.29c-.06,0,0,.08.11.19a.36.36,0,0,1,0,.31.37.37,0,0,0,0-.15v-.08s0-.06,0-.08a.63.63,0,0,0-.34-.25s0,0,.17.14l-.21-.12a1.4,1.4,0,0,0-.23-.09C233.24,11.35,233.24,11.33,233.38,11.35ZM231.26,11a7.55,7.55,0,0,0,.91.12c-.06-.06-.29-.06-.5-.08.15,0,.4,0,.71.08-.35,0-.1.06-.16.12-.92-.1-.88-.16-1-.24s-.19-.05-.19-.07Zm-.61-.05.34.11-.4,0Zm-.44-.23.3,0c.16,0,.06,0,.1.08C230.25,10.79,229.78,10.68,230.21,10.72Z"/><path class="cls-2" d="M233.82,22.68a3.51,3.51,0,0,0-.83.46c.14-.07.06,0,.08,0l-.15.12.23-.16.23-.13-.25.15A3.07,3.07,0,0,1,233.82,22.68Z"/><path class="cls-2" d="M233.88,12.93l.07,0,.1-.11a.52.52,0,0,0,.09-.12.85.85,0,0,1-.13.12Z"/><path class="cls-2" d="M236.14,20.92h0Z"/><polygon class="cls-2" points="232.59 30.54 233.18 30.38 233.22 30.36 232.63 30.52 232.59 30.54"/><path class="cls-2" d="M221.85,46.32s0-.3,0-.61a3.55,3.55,0,0,1,.06-.61s0,.09,0,.21a1.17,1.17,0,0,0,0,.21,2.56,2.56,0,0,1,0-.42,1.11,1.11,0,0,1,.08-.29.27.27,0,0,1,.06-.12,1.11,1.11,0,0,0-.2.6A3,3,0,0,0,221.85,46.32Z"/><path class="cls-2" d="M232.17,24.31h0v0h0v0Z"/><path class="cls-2" d="M209.81,51.64l.12.12.09.12.27.13-.23-.19Z"/><path class="cls-2" d="M214.84,53.05l0,.25s0-.1,0-.18l0-.17V52.8Z"/><path class="cls-2" d="M233.05,35.65c.06,0,0-.08-.19-.33a4.6,4.6,0,0,0,.5.79A4.63,4.63,0,0,0,233.05,35.65Z"/><path class="cls-2" d="M231.32,16.86Z"/><path class="cls-2" d="M224.68,44.62l-1-.25a2.15,2.15,0,0,1-.48-.12,5.4,5.4,0,0,0,1,.25Z"/><polygon class="cls-2" points="227.9 40.74 227.83 40.58 228.02 41.12 227.9 40.74"/><polygon class="cls-2" points="231.72 34.34 231.92 34.49 231.55 34.09 231.72 34.34"/><path class="cls-2" d="M227.94,38.16a1,1,0,0,0-.48.16.64.64,0,0,0-.27.23l0,0,0,0,0,.08-.06.17a3.15,3.15,0,0,0-.06.46s.1.18.12.14,0-.08,0-.23a1.57,1.57,0,0,1,0-.29.66.66,0,0,1,.17-.4.66.66,0,0,0-.16.34,2.45,2.45,0,0,0,0,.25v.27c0,.12,0,.19.17.52a2.07,2.07,0,0,1-.14-.83,1,1,0,0,1,.14-.46l0,.1a1.42,1.42,0,0,0-.06.21,1.61,1.61,0,0,0,0,.33c0-.12,0-.22,0-.31a.3.3,0,0,1,0-.15.49.49,0,0,1,.08-.18.91.91,0,0,1,.61-.38C228.06,38.18,228,38.16,227.94,38.16Z"/><path class="cls-2" d="M224.73,44.46l-.19,0a3.68,3.68,0,0,1,.75.14c-.1,0,.08.19.88.32A13.41,13.41,0,0,0,224.73,44.46Z"/><path class="cls-2" d="M228.69,45s0,0,0,0l.09-.06.06,0c.06-.05.06-.05.08-.09a1.18,1.18,0,0,0,.17-1c-.06-.42-.11-.48-.13-.48s0,0-.06-.12c0,.18.1.45.13.79a1.43,1.43,0,0,1,0,.54A1.07,1.07,0,0,1,228.69,45Z"/><path class="cls-2" d="M232.36,14.42a2.31,2.31,0,0,1,.29-.28l-.29.28"/><path class="cls-2" d="M233.4,37a.35.35,0,0,1,0,.12s0,0,0-.12"/><path class="cls-2" d="M232.57,37.55h0Z"/><path class="cls-2" d="M205,56.08c-.12-.09-.06-.06.06,0s0,0,.09,0l.1,0h.09s.06,0,.08,0l-.11,0s-.1,0-.12,0l-.19-.08"/><path class="cls-2" d="M206.41,55.14c-.08.13-.19.31-.34.52.09-.12.17-.25.34-.52"/><path class="cls-2" d="M205.34,56.22a.65.65,0,0,0,.44-.22,2.92,2.92,0,0,0,.29-.34l-.23.31a.65.65,0,0,1-.5.25"/><path class="cls-2" d="M209.25,51.18a1.09,1.09,0,0,0-.57-.15.44.44,0,0,0-.16,0s-.07,0-.09,0l-.1.06a.77.77,0,0,1,.21-.1.62.62,0,0,1,.18,0h.15s0,0-.17,0a.68.68,0,0,0-.48.16,1.36,1.36,0,0,0-.25.21,1.06,1.06,0,0,1,.44-.33l.08,0,0,0h.2a1,1,0,0,1,.51.19"/><path class="cls-2" d="M210.66,52.2a2.64,2.64,0,0,0-.29-.23,2.45,2.45,0,0,1,.29.23"/><path class="cls-2" d="M211.06,52.51a6.84,6.84,0,0,1,.56.61,10.4,10.4,0,0,1-.94-.92c.23.23.46.44.38.31"/><path class="cls-2" d="M219.64,49.7a1.78,1.78,0,0,1-.3-.19l.67.35c.27.15-.21-.08-.37-.16"/><path class="cls-2" d="M222,50.36a.89.89,0,0,0,.11-.23c0-.06,0-.08,0-.1a.29.29,0,0,1,0-.17l.08,0-.08.25a1.48,1.48,0,0,1-.08.13.34.34,0,0,1-.05.08"/><path class="cls-2" d="M222,50.91l-.14,0-.11,0a1.21,1.21,0,0,0,.29-.07Z"/><path class="cls-2" d="M221.91,47.63l0,.42c-.06-.5,0-.52,0-.42"/><path class="cls-2" d="M221.6,45.27a1,1,0,0,0,0,.19,1,1,0,0,1,0,.19,3.64,3.64,0,0,1,0-.61,2,2,0,0,1,.23-.67,1.23,1.23,0,0,0-.19.46,2.89,2.89,0,0,0,0,.44"/><path class="cls-2" d="M224,44h.1l.38.08.39.09-.43-.09Z"/><path class="cls-2" d="M235.78,29.33c.07,0-.12.17-.43.3a5.79,5.79,0,0,1-.82.33,3,3,0,0,1,.57-.25,1.29,1.29,0,0,0,.68-.38"/><path class="cls-2" d="M231.65,15.23a5.56,5.56,0,0,0-.39.44,3.39,3.39,0,0,0-.34.52,5.05,5.05,0,0,1,.32-.52,3.26,3.26,0,0,1,.41-.44"/><path class="cls-2" d="M260.11,31.61a.77.77,0,0,0,.12-.13c-.12.13-.16.19-.12.13"/><path class="cls-2" d="M259.92,31.59l.48-.55a3.37,3.37,0,0,1-.48.55"/><polygon class="cls-2" points="260.15 31.44 260.15 31.5 259.88 31.79 260.15 31.44"/><path class="cls-2" d="M236.51,36.15c0-.08,0-.12,0-.1Z"/><path class="cls-2" d="M236.58,37.85c0,.16,0,.27,0,.35a1.53,1.53,0,0,1,0-.35"/><path class="cls-2" d="M236.6,34.78s-.07.21-.07.21a.74.74,0,0,1,.07-.21"/><path class="cls-2" d="M249.05,34a1.81,1.81,0,0,0,.75.34,1.19,1.19,0,0,1-.56-.19,1.14,1.14,0,0,1-.19-.15"/><path class="cls-2" d="M231.42,39.56l-.08,0c-.08,0-.11,0,.08,0"/><path class="cls-2" d="M236.16,38.32s0,0,0,0v.1Z"/><path class="cls-2" d="M237.39,34.55h0l.23.08a.46.46,0,0,1-.23-.08"/><path class="cls-2" d="M229.17,40.91v.36c-.06-.27,0-.42,0-.36"/><path class="cls-2" d="M236.62,38.24h0v0"/><path class="cls-2" d="M235.89,35.84a2.68,2.68,0,0,0,0,.4.94.94,0,0,1,0-.4"/><path class="cls-2" d="M249.05,34c-.06-.06-.14-.1-.19-.16a1.19,1.19,0,0,1,.19.16"/><path class="cls-2" d="M258.82,33.15a.69.69,0,0,1-.28.19l.28-.19"/><path class="cls-2" d="M221.85,64.67l0,0a.06.06,0,0,1,0,0"/><path class="cls-2" d="M225,58.41a.61.61,0,0,1-.07-.1.16.16,0,0,1,.07.1"/><path class="cls-2" d="M226.94,51.91l0,0-.13-.21a.86.86,0,0,1-.13-.21l0,0,.14.21c.07.1.13.21.13.21m-4.22,5.5c.53.38.38.38.69.63-.42-.27-.31-.31-.69-.63m1.73-9.47c.09.38.11.27.07.15s0-.29,0,0l0-.19a.66.66,0,0,1,0-.21.81.81,0,0,0,0,.35.52.52,0,0,1,0,.17.59.59,0,0,0,.1.34l-.12-.25c-.06-.09,0,0,0,.16a2.08,2.08,0,0,1,.13.32,2,2,0,0,1-.26-.59c0-.23,0-.38,0-.21m-2.17,9a5.71,5.71,0,0,1,.53.48,3.59,3.59,0,0,1-.53-.48m4-6.27a3.09,3.09,0,0,1,.46.56,2.88,2.88,0,0,0-.46-.67,1.33,1.33,0,0,0-.14-.17c0,.05.1.11.14.17s0,.06,0,.06l-.12-.12.29.39Zm.73-3.93-.37-.06a2.07,2.07,0,0,1-.28,0l-.29,0a3,3,0,0,1,.46,0Zm2.5-6.21a1,1,0,0,1,.07-.27.52.52,0,0,1,.25-.23,3.57,3.57,0,0,1,.48-.15,1.33,1.33,0,0,0-.48.15h-.06a.56.56,0,0,0-.19.25.35.35,0,0,0-.07.25m.09.12a2.14,2.14,0,0,0,.1.69,3.55,3.55,0,0,1,.15.63c.21.29-.27-.8-.25-1.32m-2,12.56c-.06.06,0,0,.09-.06a.51.51,0,0,0,.12-.48.15.15,0,0,1,0,.1l0,.11s0,0,0,.12l-.06.11-.1.12a2,2,0,0,1-.38.29c-.16,0,.15-.06.31-.31M224.91,62s0-.05-.12,0l-.23.12c-.27.21.08,0,.35-.12m1-2.63a1.26,1.26,0,0,0-.2-.15l0,0a.84.84,0,0,1,.22.19l.28.27c.1,0-.25-.42-.34-.52.19.2.31.39.56.68,0,0,0,0-.12-.21a1.46,1.46,0,0,1,.15.21,1,1,0,0,1,.1.15l0,.08a.58.58,0,0,1,0,.28s0,0-.06-.09a2,2,0,0,0-.37-.58s0,0-.13-.09-.1-.12-.15-.18m-.62,2.46a.29.29,0,0,1,.17-.06,2.26,2.26,0,0,0,.64-.48c-.06,0-.21.18-.37.27.1-.09.27-.23.46-.42-.17.27,0,.12,0,.17a1.92,1.92,0,0,1-.57.45.39.39,0,0,1-.18,0c-.09.06-.15.08-.17.06m-.25.23.31-.09-.29.19Zm-.57-4c.11.08.55.42.4.36Zm.59.67.19.17-.15-.25Zm-2.34-3.61a2.09,2.09,0,0,1,.38-.15,2.32,2.32,0,0,1,.39-.12c-.12.14-.7.23-1,.46-.12,0,.13-.11.23-.19m4.24-4.07a2.37,2.37,0,0,1,.67.9,5.63,5.63,0,0,0-.67-.9m3.4-11.12A1.45,1.45,0,0,0,230,40a.41.41,0,0,0-.2.13.27.27,0,0,0-.07.08.59.59,0,0,1,.07-.1A.92.92,0,0,1,230,40a1,1,0,0,1,.37-.08Zm5.9.65c-.06.1,0,.12,0,.08l0,0,0,0,0,0a.28.28,0,0,1,.08-.06.49.49,0,0,0,.15-.23,3.3,3.3,0,0,0,.22-.9s-.06-.15-.1-.11,0,.05,0,.19,0,.3-.08.59c.06-.5.06-.65.08-.75s0-.17-.08-.46a4.27,4.27,0,0,1,0,.71,1.84,1.84,0,0,1-.07.41,2.63,2.63,0,0,0,0-.56c-.05.15,0,.36-.07.58a.73.73,0,0,1-.25.57m5.38-4.13-.12-.09.1,0,.09.06-.07,0v0a3.33,3.33,0,0,1-.53-.23c-.27-.13-.52-.27-.52-.27s.25.14.52.27l.52.21m1.55-.3-.11.13a.81.81,0,0,1-.31.23,1,1,0,0,1-.39.06c-.05,0-.09,0-.11,0h0l.17,0a.58.58,0,0,0,.2,0l-.12,0a1.14,1.14,0,0,1-.25,0,1.28,1.28,0,0,1-.34-.1.85.85,0,0,0,.49.15.72.72,0,0,0,.48-.11,1.12,1.12,0,0,0,.2-.17l.13-.21m-.11,0a.87.87,0,0,1-.25.25c-.16.09-.31.07-.25.05l.19-.05s0,0,0,0,0,0,0,0a.88.88,0,0,0,.25-.26m3.09-4.88s0,0,0-.06l-.14-.13a.36.36,0,0,1,.14.13c.17.15.42.36.56.46a3.14,3.14,0,0,0-.41-.4c.46.27,1.15,1.23,1.06.84.13.18.65.71.44.56a17.16,17.16,0,0,0-1.65-1.4.56.56,0,0,1-.16-.1l.16.1m4.63,2-.08.14-.08.11-.05.12a1,1,0,0,1,.11-.17,1.58,1.58,0,0,0,.1-.2m2.8-4.43h-.15l-.14,0a1.53,1.53,0,0,1,.27,0,.89.89,0,0,1,.25.12,1.14,1.14,0,0,0-.23-.17m-10.37,6.18c0,.17-.1.46-.17.69s-.18.37-.16.31.1-.21.16-.42.13-.46.17-.58m-3.63,0,.71.4a3.6,3.6,0,0,1-.71-.4m3.59-.21-.08.27c0-.25.06-.29.08-.27l.06-.23c-.08.61-.06.31-.06.23m-4.09-.08-.27-.11a2.48,2.48,0,0,1-.82-.35l.42.17.4.18a.77.77,0,0,1,.27.11m.71.58a2.44,2.44,0,0,1-.58-.29c.1,0,0-.19-.65-.48.44.31.46.36,1.06.75Zm-.08-.16a10,10,0,0,1,1.06.71c.06,0-.54-.42-.71-.51a1.82,1.82,0,0,1-.35-.2M229.57,46.57h.62a1.2,1.2,0,0,0,.75-.29l-.19.11-.24.08.12,0h-.13c.07,0-.06.1-.29.14h-.64M236,35.82c0-.14,0-.39.08-.67a1.26,1.26,0,0,1,.36-.81c.06-.08-.08,0-.23.15a1.48,1.48,0,0,0-.25.79c-.08.69.08.27,0,.54m.21,2.27,0,.13,0-.48Zm-6.49,4.18a3.61,3.61,0,0,0,.23.77c.11.23,0-.11,0-.21a2.18,2.18,0,0,1,.15.36c0-.13-.25-.4-.38-.92m-4.42,4.5.12,0a.25.25,0,0,0-.12,0,1,1,0,0,0-.52.27,1.39,1.39,0,0,0-.21.21.29.29,0,0,1-.08.07l-.09.2a1.07,1.07,0,0,1,.07-.25.34.34,0,0,1,.08-.14,1.1,1.1,0,0,1,.16-.15.35.35,0,0,1,.13-.08,1.36,1.36,0,0,1,.46-.13m5.88-.39.07-.07a1.15,1.15,0,0,0,.1-.18.45.45,0,0,0,.06-.21.32.32,0,0,0,0-.09v-.06a.91.91,0,0,1-.06.29s0,.07,0,.11a.15.15,0,0,0,0,.08s0,0,0,0h0l0,0h0v0Zm-1.23-4.63,0-.27-.1-.17.08.23Zm20.38-8.08a1.53,1.53,0,0,1-.2.15l-.05,0a.12.12,0,0,1-.08,0s0,0,0,0h0s0,0,0,0h0l.08,0c.06,0,.06,0,.09,0s.1-.08,0-.06.19-.17.16-.09m-21,7.8,0-.2,0-.21a.68.68,0,0,1,0-.29l0,.29a1.57,1.57,0,0,1,.07.41m-3.59,12.21c-.55.19-1.17.27-1.69.4l.19,0-.51.12,0,0a5.91,5.91,0,0,0-1.33.52,2.18,2.18,0,0,0-.56.44,2.66,2.66,0,0,0-.21.33s0,.05,0,.07l0,0,0,.1a0,0,0,0,1,0,0v0h0l0-.06h0l0,0,.06,0a.06.06,0,0,1,0,0v0l0,.06v0a.16.16,0,0,1,0,.09,1,1,0,0,0,.06.48,4,4,0,0,0,.17.39l.1.15a2.64,2.64,0,0,1-.15-.29.94.94,0,0,1-.1-.23.39.39,0,0,0,0-.11,2.61,2.61,0,0,0,.56.86c.23.23.46.44.67.63l.88.72-.05-.08a3.8,3.8,0,0,1,.38.29L224,58.5c.62.46,1,.73,1.41,1.06a2.4,2.4,0,0,1,.51.54,1,1,0,0,1,.1.15l0,.08s0,0,0,0v.14h0v0h0v.06a.38.38,0,0,1-.1.17c-.09.15-.08.12,0,0s.12-.17.14-.17a.68.68,0,0,1-.22.34,2.66,2.66,0,0,1-.32.25c.15,0,.59-.5.29-.11-.31.21.25-.12-.27.3l-.27.08c-.31.23,0,.1-.54.42s.67-.52-.29,0c-.48.29-.92.75-1.88,1.31-.38.3-.25.25-.17.23s.07,0,0,0-.18.13-.43.34l.33-.25.35-.23a2,2,0,0,1-.48.43,1.2,1.2,0,0,0-.56.59c.13-.27.23-.31.21-.29a1.89,1.89,0,0,0-.11.27.47.47,0,0,0,0,.15.71.71,0,0,0,0,.12s0,0,0,0,0-.08,0-.09,0-.06.06-.12a.06.06,0,0,1,0,0s0,.06,0,.08v.11h0v.06s0,0,0,0a.61.61,0,0,0,.08.17.89.89,0,0,0,.15.18c-.11-.1-.25-.31-.21-.41v-.08h0a0,0,0,0,1,0,0s0,0,0,0v.1a.17.17,0,0,0,0,.12,1.07,1.07,0,0,0,.19.21c-.1-.16.09,0,.09-.06a2,2,0,0,1-.15-.19.07.07,0,0,1,0-.06v0h0v.06h0v-.08c0-.06,0,0,0,0l0,0a.35.35,0,0,0,.06-.09,1.78,1.78,0,0,1,.5-.44l.29-.2c-.1,0-.37.2-.29.1.46-.36.42-.23.9-.58l-.25.1s.12-.06,0,0-.25.15-.27.13A2.66,2.66,0,0,1,224,63c.67-.38.09-.15.23-.25a12.19,12.19,0,0,0,1.57-.92l-.15.08-.16.06a4.9,4.9,0,0,0,1.18-1.12l-.06.06-.06.06c0-.06.06-.12.1-.17l0-.18,0-.09V60.5h0v0h0s0-.08,0-.13a1.05,1.05,0,0,0-.25-.52,7,7,0,0,1-.55-.73l0,.07c-.27-.23-.7-.53-.93-.76,0,0-.07,0-.19-.08a5.29,5.29,0,0,0-.82-.62c.25.22.11.22.38.45-.67-.39-.52-.48-1-.89-.32-.21.23.25.31.33-.39-.33-.81-.6-1.13-.92a1.45,1.45,0,0,1-.39-.52s0-.1,0-.14v-.13s0-.1,0-.12l.06-.11a.15.15,0,0,1,0,.06.11.11,0,0,1,0,.07v.06a.37.37,0,0,0,0,.17.55.55,0,0,1,.06-.34c0-.06,0-.08,0-.06a.28.28,0,0,1-.06.08s0,0,0,.06a.82.82,0,0,1,.48-.52,2.24,2.24,0,0,1,.65-.25c.45-.12.91-.21,1.48-.39-.09,0-.27,0-.27,0a10.32,10.32,0,0,0,1.42-.28h-.17a1.23,1.23,0,0,1,.48-.09c0-.08.46-.19,1-.44a1.52,1.52,0,0,0,.69-.62.68.68,0,0,0,.06-.44.92.92,0,0,0-.11-.29,3.2,3.2,0,0,0-.45-1,4.53,4.53,0,0,0-.63-.82c-.4-.39.23.44.06.32-.27-.34-.37-.55-.79-1,.06-.06.92.88.19-.08l-.13-.1a4.71,4.71,0,0,1,.3.37c.2.31-.17-.14-.23-.17l-.4-.52c-.19-.25-.36-.52-.36-.52s.44.5.51.56a8.07,8.07,0,0,1-.9-1.29.65.65,0,0,1,0-.63,1,1,0,0,1,.56-.31h-.1c.56-.12.75-.14.89-.19a1.51,1.51,0,0,1,.75,0c.51,0-.2-.08.59-.1.21,0,.1,0,.06,0,1,0,.42-.08,1.31,0l-.2-.08a8.6,8.6,0,0,0,1.6,0,1.45,1.45,0,0,0,.77-.3l.07-.08,0-.06,0,0a.1.1,0,0,0,0-.07l0-.12a1.43,1.43,0,0,0,0-.4,2.51,2.51,0,0,0-.1.38.63.63,0,0,1-.35.39.69.69,0,0,0,.33-.41,1.26,1.26,0,0,0,0-.55,4.15,4.15,0,0,0-.29-1.06c-.27-.69-.58-1.32-.77-1.86.19.29-.09-.54.23.09a3.64,3.64,0,0,0,.33.87,8.19,8.19,0,0,0-.58-1.46c-.25-.54-.4-1-.32-1.13l-.08-.14a1.1,1.1,0,0,1,0-.27c0-.06,0-.07,0,0a.34.34,0,0,1,0-.11.93.93,0,0,1,0-.1l0,0h0l0,0h0l0,0,0,0s.06-.06.08-.06l0,0,.07,0a.47.47,0,0,1,.16,0l.15,0a.86.86,0,0,0-.32,0l-.08,0-.06,0-.1.05,0,0a.67.67,0,0,0-.08.6c0,.17,0,.06-.08-.08s0-.25-.07-.09a.92.92,0,0,1,.09-.39.33.33,0,0,1,.08-.15l.06-.08.09-.08a1.42,1.42,0,0,1,.42-.11c-.17.08,0,.06.27.1a1.77,1.77,0,0,1,.52.11,4.94,4.94,0,0,1,1.1.29l2.42.52c-.31-.08-.77-.23-.73-.27a2.07,2.07,0,0,0,.9.13c-.69-.17-.81-.17-.9-.15s-.2.06-.81-.14A5.5,5.5,0,0,0,232,40.1c.31,0,.17,0,.31-.06a13.46,13.46,0,0,0,3,.73,2.49,2.49,0,0,1,.35.1.76.76,0,0,0,.25,0,1,1,0,0,0,.58-.27,0,0,0,0,1,0,0,.07.07,0,0,0,0,0l-.08.06a1,1,0,0,1-.33.17,2.06,2.06,0,0,1-.48.09,2.07,2.07,0,0,0,.5-.07l.16,0,.11,0a.5.5,0,0,0,.16-.1l.09-.09.12-.16-.06.06-.06.06s0,0,0,0,0,0,0,0h0l0,0h0l-.06,0a.93.93,0,0,0,.4-.57,3.59,3.59,0,0,0,.14-.43s0,.12-.08.22a.44.44,0,0,1-.08.15.14.14,0,0,1,0,.06c.09-.29.09-.79.13-.81s0-.1-.06-.1a1.66,1.66,0,0,0,0-.48c0,.18,0,.31,0,.31,0-.59-.07-.65-.09-.65s0,0-.08-.33c0,.12-.06-.07-.1-.32.14,0-.05-1.41,0-1.77h0v-.46a2.66,2.66,0,0,1,0-.44c0,.17,0,0,0-.27v0c0-.12,0-.06-.05-.06s0,0,0-.08a.68.68,0,0,1,.17-.31l0,0,0,0,.07,0c.06,0,.08,0,.12,0H237c-.06,0,0,0,0,0a.77.77,0,0,1,.22,0,1.24,1.24,0,0,1,.21.06,2.41,2.41,0,0,1,1,.38c.32.19.63.4,1,.6-.23-.12-.55-.31-.4-.27a4.08,4.08,0,0,1,.48.28l0,0,.73.44c.37.23.75.42.75.42s-1-.54-.56-.38a9.08,9.08,0,0,1,1,.46s-.59-.19,0,.06c.07,0,.61.15.38.05a1.65,1.65,0,0,0,.5.14,1.17,1.17,0,0,0,.65-.06l.12-.06.15-.11a1.77,1.77,0,0,0,.19-.23,1.6,1.6,0,0,0,.23-.45c0-.17-.05.08-.09.18v0a1,1,0,0,1-.17.23l-.12.13a.91.91,0,0,1-.35.29s0,0,0-.06l.08-.08a1.22,1.22,0,0,0,.31-.38,2.82,2.82,0,0,0,.34-1s-.06.23-.15.48a3.27,3.27,0,0,1-.21.46,7.46,7.46,0,0,0,.29-1.28c.05-.46.11-.92.19-1.4a10.34,10.34,0,0,1,.25-1.39,2.53,2.53,0,0,1,.5-1.11c-.25.33-.37.71-.27.69a1.22,1.22,0,0,1,.42-.65.56.56,0,0,1,.23-.08,1,1,0,0,1,.42.12l-.05,0c.44.13.92.67,1.22.82-.13-.19-.57-.42-.53-.5l.48.39.46.42a6.74,6.74,0,0,0-1.31-1.08c-.15-.07,0,0,.16.12s.3.27.23.23a2.86,2.86,0,0,0-1-.56.58.58,0,0,0-.62.2c-.11.11-.07,0,0-.16a.66.66,0,0,1,.27-.19l.15,0h.12a3.06,3.06,0,0,1,1.13.67c.39.33.79.71,1.23,1.08l.52.38a1.88,1.88,0,0,1,.29.44,2.19,2.19,0,0,0,.63.6l-.21-.23.42.27c-.34-.29-.67-.65-1-.94a6.93,6.93,0,0,1,.9.75,4,4,0,0,0,.58.4.94.94,0,0,0,.69.15.71.71,0,0,1-.21,0,.57.57,0,0,1-.23-.07.87.87,0,0,0,.48,0,1.23,1.23,0,0,0,.4-.27,3.55,3.55,0,0,0,.56-.79,14,14,0,0,0,.73-1.56c.12-.4-.33.77-.33.54a7.21,7.21,0,0,1,.5-1.15c-.19.17.48-1.11,0-.23a5.61,5.61,0,0,1,.7-1.29,1,1,0,0,1,.65-.38,1,1,0,0,1,.71.29,5.44,5.44,0,0,1,.94,1.15c.27.42.52.84.77,1.25q0-.15.06-.06c-.35-.54-.85-1.36-1-1.67a5.26,5.26,0,0,1,.61.94c-.09-.19-.34-.56-.3-.6a6.28,6.28,0,0,1,.67,1.08l-.14-.17a8.65,8.65,0,0,1,.45.86,3,3,0,0,0,.57.85c.37.32,0,0,.1-.1a2.43,2.43,0,0,0,.56.56,1.62,1.62,0,0,0,.38.21l.17,0a.39.39,0,0,1,.16,0l-.12,0h-.11a.37.37,0,0,1-.14,0,1.44,1.44,0,0,1-.33-.18.88.88,0,0,0,.72.24,1.46,1.46,0,0,0,.59-.27.39.39,0,0,0-.17.07,6.23,6.23,0,0,0,.94-.75l0-.15a3,3,0,0,1-.41.48l-.25.21a.35.35,0,0,1-.17.1,2.12,2.12,0,0,1,.35-.35c.17-.17.36-.36.48-.5a3.27,3.27,0,0,1-1.14.91,1.29,1.29,0,0,1-.21,0,.83.83,0,0,1-.82-.27l.13.16a2.69,2.69,0,0,1-.79-.85c-.21-.32-.4-.65-.59-.94.11.16.17.17.13.1-.46-.64-.84-1.29-1.36-1.92a2.43,2.43,0,0,0-1-.83l-.19-.06c-.08,0-.12,0-.17,0a1.1,1.1,0,0,0-.41.12,1.46,1.46,0,0,0-.5.52l-.19.21-.17.23,0,.06c-.35.8-.17.13-.39.65.08-.19.08-.15.12-.19-.46.92-.15.54-.38,1.05.15-.23.42-1,.4-.73-.23.45-.46,1.06-.67,1.54a2.46,2.46,0,0,1-.52.87,2.44,2.44,0,0,1-.35.53.61.61,0,0,1-.19.16.21.21,0,0,1-.08,0l0,0H250a1.79,1.79,0,0,1-.58-.23,5.32,5.32,0,0,1-.57-.43c-.75-.63-1.4-1.34-2-1.86-.19-.12.1.1,0,.06a4.42,4.42,0,0,0-1.06-.81,2.55,2.55,0,0,0-.63-.23l-.13,0h-.12c-.08,0-.1,0-.1,0s-.07,0-.09,0l0,0h0l0,0-.06,0a.67.67,0,0,0-.15.13.71.71,0,0,0-.13.19,2.8,2.8,0,0,0-.6,1.37l.06-.2a1.45,1.45,0,0,1,.06-.19v0l-.08.27-.06.27v0c-.11.63-.17,1.31-.27,2a4.54,4.54,0,0,1-.46,1.67c.27-.48,0,.17.16-.06a1.1,1.1,0,0,1-.14.18c-.06,0-.11.11-.13.11l-.08,0,0,0h0c.06,0,0,0,0,0h0l-.09,0a.91.91,0,0,1-.31,0,7.33,7.33,0,0,1-1.52-.63s-.1,0,0,.07l-.54-.34.06.07c-1-.51-2.06-1.34-3-1.38a2.56,2.56,0,0,1,.48.12l.09.07a2.17,2.17,0,0,0-.69-.13.62.62,0,0,0-.19,0l-.23.06-.08,0,0,0,0,0h0v0l-.18.15a1.45,1.45,0,0,0-.3.75,3.15,3.15,0,0,0,0,.75.22.22,0,0,1,0-.09c0,.27,0,.57,0,.84l.06,0c0,.5.17,1.13.19,1.73a3.51,3.51,0,0,1,.08.86,3.18,3.18,0,0,1-.15,1s0,0,0,0,0,0,0,0a.07.07,0,0,1,0,.06.1.1,0,0,0,0,0,0,0,0,0,1,0,0s0,0,0,0-.14,0-.33.07-.38,0-.4-.05h-.29l-.31,0-.11-.1c-.54,0-.77-.23-1.58-.38,0,0,.12.06.08.06-.25-.08-.85-.24-.37-.16l-1-.25c-.35-.06-.58-.07-.23,0a3.17,3.17,0,0,1,.82.17c0,.06-.69-.11-.86-.07a1.07,1.07,0,0,0-.17-.06l-.1,0a3.4,3.4,0,0,0-.65-.08,2,2,0,0,0-.73.12.84.84,0,0,0-.21.11l-.12.1,0,0h0v0l0,0,0,0-.05.1c0,.06-.06.12-.1.19a1.59,1.59,0,0,0-.1.64,3.34,3.34,0,0,1,.12.52l-.08,0s.06.23.14.45l.15.42a1.56,1.56,0,0,1,0-.21,1.42,1.42,0,0,1,0-.21c.37.92.56,1.55.83,2.28a2.21,2.21,0,0,1,.34.81,3.37,3.37,0,0,1,.14.57c0,.18,0,.35,0,.37l0,0s0-.08,0-.14a1.54,1.54,0,0,0,0-.23,1.79,1.79,0,0,1,0,.33v.1l0,0,0,.07h0c0-.07,0,0,0,0h0l0,0a0,0,0,0,1,0,0l-.06.06-.17.1a3.47,3.47,0,0,1-1.19.19,5.55,5.55,0,0,0,1-.18,1,1,0,0,0,.36-.17l.06-.06h0s0,.07,0,0h0v0a.15.15,0,0,0,0-.09s0-.1,0-.23c0,.06,0,.13,0,.17v0h0a.2.2,0,0,0,0,.06s-.06.07-.15.13a2.63,2.63,0,0,1-.79.17c-.6.06-1.19,0-1.88.08.09,0,.44,0,.09.08s-1.3,0-1.11-.06c-.44,0-.52.12-.79.15l-.23,0c-.15,0-.35,0-.54.08a1.91,1.91,0,0,0-.59.23.42.42,0,0,1-.12.08l-.09.09c-.06.06-.1.1-.08.1l.06-.06a.55.55,0,0,0-.08.14l-.06.09,0,.1a1,1,0,0,0,0,.38,1.82,1.82,0,0,0,.13.6A5.14,5.14,0,0,0,225,49c.35.5.71,1,1.06,1.4s.69.91,1,1.37a3.23,3.23,0,0,1,.32.65.63.63,0,0,1,0,.17l0,.12s0-.1,0-.06h0s0,0-.06.08l0,0a.41.41,0,0,1-.17.09,1.22,1.22,0,0,1-.23.1c.36-.15-.12.13-.15.17s-.35.12-.72.21-.74.18-.74.18c-.16.21,0,.27.32.15"/><path class="cls-2" d="M223.68,57.5l.29.21-.29-.21"/><path class="cls-2" d="M231.07,40.2a.16.16,0,0,1,.14,0h-.14"/><path class="cls-2" d="M232.26,40.45s0,0,0,0l0,0Z"/><path class="cls-2" d="M258.57,33.44c.14-.06.08,0,0,.06a4.28,4.28,0,0,1-.43.19.61.61,0,0,0,.25-.14,1.43,1.43,0,0,0,.21-.11"/><path class="cls-2" d="M257,33.21a1.84,1.84,0,0,0,.42.36,1.12,1.12,0,0,1-.42-.36"/><path class="cls-2" d="M258.25,33.53l-.23.1-.23,0a.66.66,0,0,1-.41-.12.88.88,0,0,0,.87,0"/><path class="cls-2" d="M254.25,29.54l.48.61c-.71-.84.1.21.1.33-.4-.6-.37-.61-.58-.94"/><path class="cls-2" d="M253,29.1a.85.85,0,0,1,.28-.12,2,2,0,0,0-.28.12"/><path class="cls-2" d="M252.72,29.4c-.25.29-.33.41-.46.54a1.86,1.86,0,0,1,.73-.84c-.23.15-.39.38-.27.3"/><path class="cls-2" d="M244.8,30.88s.22,0,.2.06l-.08,0-.12,0a.23.23,0,0,0-.09,0,.07.07,0,0,0-.06,0h0s-.06,0,0,0,0,0,0,0,0,0,0,0h0l0,0,.07,0h0"/><path class="cls-2" d="M243.88,32.59c-.07.52,0,.25,0,.52l-.07,0Z"/><path class="cls-2" d="M243.5,32.23l0-.16c0,.06,0,.12,0,.18Z"/><path class="cls-2" d="M243.63,35.09l.16-.35c-.08.45-.18.43-.16.35"/><path class="cls-2" d="M242.36,36.84a.58.58,0,0,0,.2,0,.82.82,0,0,0,.21,0,1.24,1.24,0,0,1-.21.06,1.55,1.55,0,0,1-.43,0,2.22,2.22,0,0,1-.51-.14s.17.06.34.1l.4,0"/><polygon class="cls-2" points="240.04 35.9 239.96 35.88 239.39 35.53 240.04 35.9"/><rect class="cls-2" x="250.03" width="19.17" height="19.59"/><polygon class="cls-5" points="0 18.39 0 20.61 3.03 20.61 3.03 34.71 5.42 34.71 5.42 20.61 8.51 20.61 8.51 18.39 0 18.39"/><polygon class="cls-5" points="18.89 34.71 10.38 34.71 10.38 18.39 18.89 18.39 18.89 20.55 12.71 20.55 12.71 25.44 18.89 25.44 18.89 27.54 12.71 27.54 12.71 32.44 18.89 32.44 18.89 34.71"/><path class="cls-5" d="M37,30.57a7.73,7.73,0,0,1-3,3.27A8.51,8.51,0,0,1,29.67,35a8.36,8.36,0,0,1-3.44-.7,7.92,7.92,0,0,1-2.8-2.1,7.42,7.42,0,0,1-1.57-2.62,9.38,9.38,0,0,1-.53-3.15,8.66,8.66,0,0,1,.64-3.2,10,10,0,0,1,1.93-2.8,8.8,8.8,0,0,1,2.68-1.75,8.13,8.13,0,0,1,3.15-.58,8.6,8.6,0,0,1,4.43,1.16,8,8,0,0,1,2.91,3.38H34.21A5.18,5.18,0,0,0,32.29,21a6.19,6.19,0,0,0-2.62-.52,5.61,5.61,0,0,0-2.22.41,5,5,0,0,0-1.86,1.28,6.37,6.37,0,0,0-1.4,6.7,6.27,6.27,0,0,0,1.22,2,5.7,5.7,0,0,0,2,1.34,5.33,5.33,0,0,0,2.28.47,6.26,6.26,0,0,0,2.56-.52,4.82,4.82,0,0,0,1.87-1.52H37Z"/><polygon class="cls-5" points="42.08 34.71 39.69 34.71 39.69 18.39 42.08 18.39 42.08 25.33 48.78 25.33 48.78 18.39 51.17 18.39 51.17 34.71 48.78 34.71 48.78 27.6 42.08 27.6 42.08 34.71"/><polygon class="cls-5" points="56.65 34.71 54.26 34.71 54.26 18.39 56.77 18.39 64.81 30.75 64.7 18.39 67.09 18.39 67.09 34.71 64.76 34.71 56.54 21.95 56.65 34.71"/><path class="cls-5" d="M71.92,26.43a6.42,6.42,0,0,0,.41,2.39,6.12,6.12,0,0,0,1.23,2,6.05,6.05,0,0,0,1.92,1.35A5.89,5.89,0,0,0,82,30.8a6.16,6.16,0,0,0,1.69-4.48,5.5,5.5,0,0,0-.41-2.16,6.62,6.62,0,0,0-1.22-1.87,6.4,6.4,0,0,0-2-1.45,6.19,6.19,0,0,0-2.38-.47,7.21,7.21,0,0,0-2.22.41,5,5,0,0,0-1.86,1.28,6.56,6.56,0,0,0-1.35,2,12.32,12.32,0,0,0-.35,2.39m-2.5,0a8.77,8.77,0,0,1,.64-3.26A8.2,8.2,0,0,1,72,20.43a8.92,8.92,0,0,1,2.68-1.75,8.24,8.24,0,0,1,9,1.81,8.38,8.38,0,0,1,1.86,2.74,8.53,8.53,0,0,1,.64,3.26,9.48,9.48,0,0,1-.52,3.21,7.66,7.66,0,0,1-1.63,2.62,8.78,8.78,0,0,1-2.86,2,8.8,8.8,0,0,1-6.88,0,8.13,8.13,0,0,1-2.79-2.1,7.53,7.53,0,0,1-1.58-2.62,10,10,0,0,1-.52-3.21"/><rect class="cls-5" x="88.89" y="27.48" width="5.65" height="2.04"/><path class="cls-5" d="M96.29,30h2.15a3.43,3.43,0,0,0,.76,2,2.28,2.28,0,0,0,1.81.76,2.64,2.64,0,0,0,2-.76,2.92,2.92,0,0,0,.76-2,2.44,2.44,0,0,0-.53-1.69A5,5,0,0,0,101,27.19a2.35,2.35,0,0,0-.29-.06,5,5,0,0,1-3-1.8,4.45,4.45,0,0,1-.64-1.17,4.82,4.82,0,0,1-.24-1.34,4.5,4.5,0,0,1,1.29-3.38,4.22,4.22,0,0,1,3.26-1.28,4.08,4.08,0,0,1,3,1.16,4.59,4.59,0,0,1,1.28,3.15h-2.21a2.44,2.44,0,0,0-.64-1.57,2.08,2.08,0,0,0-1.52-.59,2.18,2.18,0,0,0-1.57.64,2.44,2.44,0,0,0-.64,1.69,2.76,2.76,0,0,0,.11.7,1.28,1.28,0,0,0,.35.59,4.15,4.15,0,0,0,2.1,1,5.64,5.64,0,0,1,1.11.35A5,5,0,0,1,105.21,27a4.36,4.36,0,0,1,.81,2.74,5.32,5.32,0,0,1-1.34,3.78A4.84,4.84,0,0,1,101.07,35a4.53,4.53,0,0,1-3.44-1.4A4.9,4.9,0,0,1,96.29,30"/><path class="cls-5" d="M110.16,26.43a6.42,6.42,0,0,0,.41,2.39,6.27,6.27,0,0,0,1.22,2,6.2,6.2,0,0,0,1.93,1.35,5.4,5.4,0,0,0,2.27.46,5.47,5.47,0,0,0,4.25-1.81,6.12,6.12,0,0,0,1.69-4.48,5.49,5.49,0,0,0-.4-2.16,6.66,6.66,0,0,0-1.23-1.87,6.36,6.36,0,0,0-2-1.45,6.28,6.28,0,0,0-2.39-.47,7.15,7.15,0,0,0-2.21.41,5.17,5.17,0,0,0-1.87,1.28,6.72,6.72,0,0,0-1.34,2,12.32,12.32,0,0,0-.35,2.39m-2.51,0a8.77,8.77,0,0,1,.65-3.26,7.93,7.93,0,0,1,1.92-2.74,8.8,8.8,0,0,1,2.68-1.75,9,9,0,0,1,6.35,0,8,8,0,0,1,2.68,1.81,8.41,8.41,0,0,1,1.87,2.74,8.53,8.53,0,0,1,.64,3.26,9.48,9.48,0,0,1-.52,3.21,7.68,7.68,0,0,1-1.64,2.62,8.64,8.64,0,0,1-2.85,2,8.8,8.8,0,0,1-6.88,0,8.16,8.16,0,0,1-2.8-2.1,7.51,7.51,0,0,1-1.57-2.62,10,10,0,0,1-.53-3.21"/><path class="cls-5" d="M126.71,18.39h2.39V28.76a5.74,5.74,0,0,0,.64,3.09,2.74,2.74,0,0,0,2.28.88,2.39,2.39,0,0,0,2.15-.88,5.63,5.63,0,0,0,.65-3.09V18.39h2.38V28.71a14.38,14.38,0,0,1-.17,2.56,4.11,4.11,0,0,1-.64,1.52A4.66,4.66,0,0,1,132.08,35a6.33,6.33,0,0,1-2.69-.52,5.53,5.53,0,0,1-1.86-1.64,4,4,0,0,1-.64-1.45,13.33,13.33,0,0,1-.18-2.63V18.39Z"/><path class="cls-5" d="M142.57,26.84h1.22a6.74,6.74,0,0,0,3.67-.81,2.72,2.72,0,0,0,1.23-2.45,2.7,2.7,0,0,0-1.05-2.33,5.56,5.56,0,0,0-3.32-.76h-1.81v6.35Zm0,7.87h-2.39V18.39h4.72a6.92,6.92,0,0,1,4.54,1.34A4.93,4.93,0,0,1,151,23.64,4.5,4.5,0,0,1,149.74,27a4.9,4.9,0,0,1-3.38,1.45L151,34.65h-3l-5.48-7.58Z"/><path class="cls-5" d="M168.5,30.57a7.66,7.66,0,0,1-3,3.27A8.51,8.51,0,0,1,161.16,35a8.4,8.4,0,0,1-3.44-.7,7.92,7.92,0,0,1-2.8-2.1,7.42,7.42,0,0,1-1.57-2.62,9.38,9.38,0,0,1-.52-3.15,8.46,8.46,0,0,1,.64-3.2,9.71,9.71,0,0,1,1.92-2.8,8.92,8.92,0,0,1,2.68-1.75,8.13,8.13,0,0,1,3.15-.58,8.57,8.57,0,0,1,4.43,1.16,8,8,0,0,1,2.91,3.38h-2.79A5.29,5.29,0,0,0,163.84,21a6.19,6.19,0,0,0-2.62-.52,5.61,5.61,0,0,0-2.22.41,5,5,0,0,0-1.86,1.28,6.59,6.59,0,0,0-1.34,2,6.54,6.54,0,0,0-.06,4.72,6.27,6.27,0,0,0,1.22,2,5.64,5.64,0,0,0,2,1.34,5.26,5.26,0,0,0,2.27.47,6.23,6.23,0,0,0,2.56-.52,4.82,4.82,0,0,0,1.87-1.52h2.85Z"/><polygon class="cls-5" points="179.69 34.71 171.13 34.71 171.13 18.39 179.69 18.39 179.69 20.55 173.52 20.55 173.52 25.44 179.69 25.44 179.69 27.54 173.52 27.54 173.52 32.44 179.69 32.44 179.69 34.71"/><rect class="cls-5" x="1.11" y="47.59" width="1.52" height="10.49"/><polygon class="cls-5" points="23.31 47.59 23.37 55.58 18.24 47.59 16.67 47.59 16.67 58.14 18.18 58.14 18.07 49.92 23.37 58.14 24.83 58.14 24.83 47.59 23.31 47.59"/><path class="cls-5" d="M40.22,56.74h1.86a3.61,3.61,0,0,0,3.85-3.84A3.64,3.64,0,0,0,44.82,50a4.11,4.11,0,0,0-3-1H40.28v7.75Zm1.45,1.4h-3V47.65h3.38A5,5,0,0,1,47.39,53a5.77,5.77,0,0,1-.53,2.45,4.85,4.85,0,0,1-1.57,1.87,3.79,3.79,0,0,1-1.46.7,18.53,18.53,0,0,1-2.16.17"/><path class="cls-5" d="M60.85,47.59h1.52v6.7a3.38,3.38,0,0,0,.4,2,1.81,1.81,0,0,0,1.46.58,1.61,1.61,0,0,0,1.4-.58,3.5,3.5,0,0,0,.41-2v-6.7h1.51v6.7a10.56,10.56,0,0,1-.11,1.64,3.1,3.1,0,0,1-.41,1,3,3,0,0,1-1.17,1,3.57,3.57,0,0,1-1.63.35A3.68,3.68,0,0,1,62.54,58a3.57,3.57,0,0,1-1.22-1,2.64,2.64,0,0,1-.41-.94,10.44,10.44,0,0,1-.12-1.69v-6.7Z"/><path class="cls-5" d="M81,55.11h1.4a1.82,1.82,0,0,0,.46,1.28,1.44,1.44,0,0,0,1.17.47,1.62,1.62,0,0,0,1.75-1.75A1.7,1.7,0,0,0,85.39,54a3.05,3.05,0,0,0-1.46-.76.23.23,0,0,1-.17-.05A3.52,3.52,0,0,1,81.83,52a3,3,0,0,1-.4-.76,2,2,0,0,1-.12-.87,3.27,3.27,0,0,1,.81-2.22,2.67,2.67,0,0,1,2.1-.81,2.42,2.42,0,0,1,1.93.76,3.26,3.26,0,0,1,.81,2H85.51a1.38,1.38,0,0,0-1.4-1.4,1.4,1.4,0,0,0-1,.4,1.49,1.49,0,0,0-.41,1.11,1.27,1.27,0,0,0,.06.47,1.41,1.41,0,0,0,.23.41,2.9,2.9,0,0,0,1.34.64A3.33,3.33,0,0,1,85,52a2.89,2.89,0,0,1,2.1,2.92,3.45,3.45,0,0,1-.88,2.44,2.91,2.91,0,0,1-2.27.94,2.81,2.81,0,0,1-2.15-.88A3.41,3.41,0,0,1,81,55.11"/><polygon class="cls-5" points="99.9 47.59 99.9 48.99 101.88 48.99 101.88 58.14 103.4 58.14 103.4 48.99 105.38 48.99 105.38 47.59 99.9 47.59"/><path class="cls-5" d="M120.07,53.07h.76a4.06,4.06,0,0,0,2.33-.52,1.77,1.77,0,0,0,.76-1.58,1.84,1.84,0,0,0-.65-1.51,3.87,3.87,0,0,0-2.09-.47H120v4.08Zm0,5.07h-1.52V47.65h3a4.37,4.37,0,0,1,2.92.87,3.22,3.22,0,0,1,1,2.51,3.1,3.1,0,0,1-.82,2.16,3.2,3.2,0,0,1-2.15.93l3,4h-1.92l-3.5-4.9Z"/><rect class="cls-5" x="139.07" y="47.59" width="1.52" height="10.49"/><polygon class="cls-5" points="154.63 47.59 154.63 58.14 160.05 58.14 160.05 56.68 156.15 56.68 156.15 53.54 160.05 53.54 160.05 52.14 156.15 52.14 156.15 48.99 160.05 48.99 160.05 47.59 154.63 47.59"/><path class="cls-5" d="M173.52,55.11h1.4a1.82,1.82,0,0,0,.46,1.28,1.43,1.43,0,0,0,1.17.47,1.62,1.62,0,0,0,1.75-1.75A1.7,1.7,0,0,0,178,54a3.11,3.11,0,0,0-1.46-.76.25.25,0,0,1-.18-.05A3.53,3.53,0,0,1,174.39,52a3.44,3.44,0,0,1-.41-.76,2.22,2.22,0,0,1-.11-.87,3.27,3.27,0,0,1,.81-2.22,2.67,2.67,0,0,1,2.1-.81,2.39,2.39,0,0,1,1.92.76,2.92,2.92,0,0,1,.82,2h-1.4a1.45,1.45,0,0,0-2.45-1,1.76,1.76,0,0,0-.4,1.11,1.51,1.51,0,0,0,0,.47,1.46,1.46,0,0,0,.24.41,2.9,2.9,0,0,0,1.34.64,3.33,3.33,0,0,1,.7.23,2.89,2.89,0,0,1,2.1,2.92,3.5,3.5,0,0,1-.88,2.44,2.91,2.91,0,0,1-2.27.94,3.06,3.06,0,0,1-2.22-.88,4.19,4.19,0,0,1-.81-2.33"/></g></g></svg>