<?xml version="1.0" encoding="utf-8"?>
<!-- Generator: Adobe Illustrator 21.1.0, SVG Export Plug-In . SVG Version: 6.00 Build 0)  -->
<svg version="1.1" id="Calque_1" xmlns="http://www.w3.org/2000/svg" xmlns:xlink="http://www.w3.org/1999/xlink" x="0px" y="0px"
	 viewBox="0 0 366.7 462.2" style="enable-background:new 0 0 366.7 462.2;" xml:space="preserve">
<metadata><?xpacket begin="﻿" id="W5M0MpCehiHzreSzNTczkc9d"?>
<x:xmpmeta xmlns:x="adobe:ns:meta/" x:xmptk="Adobe XMP Core 5.6-c137 79.159768, 2016/08/11-13:24:42        ">
   <rdf:RDF xmlns:rdf="http://www.w3.org/1999/02/22-rdf-syntax-ns#">
      <rdf:Description rdf:about=""/>
   </rdf:RDF>
</x:xmpmeta>
<?xpacket end="w"?></metadata>
<style type="text/css">
	.st0{fill:#E81000;}
	.st1{fill:#B51006;}
	.st2{fill:#FFFFFF;}
	.st3{fill:none;}
</style>
<g>
	<g>
		<g>
			<rect x="10.2" y="45.7" class="st0" width="307.4" height="308.8"/>
		</g>
		<g>
			<path class="st1" d="M165.5,128.9c0.2-7.1,25.3-14.7,24.5-22c-0.8-6.8-27.1-9.9-28.7-16.4c-1.7-6.9,20.5-20.2,17.9-26.8
				c-2.6-6.6-28.8-3.4-32.2-9.6c-1.1-1.9-0.1-5,1.6-8.5h-33.9c14.8,18.4,24.7,40.7,27.5,65.2c8.1,70.5-45.3,132.5-119.2,138.7
				c-4.3,0.4-8.6,0.5-12.8,0.5v25.1c6,6.8,12.3,20.5,18,20c7.1-0.6,9.8-25.5,16.6-26.9c7.2-1.5,21.7,19.9,28.6,17.6
				c6.9-2.3,3-27.3,9.3-30.5c6.5-3.2,26.1,14.1,32,10.2c6.1-4-4.3-27.5,1.2-32.2c5.5-4.8,29.2,7,33.9,1.6
				c4.8-5.4-11.6-25.7-7.6-31.6c4-6,30-0.5,33.1-7c3-6.3-18.3-21.8-16.1-28.5c2.1-6.7,28.6-7.7,29.8-14.8
				C190,146,165.4,136.2,165.5,128.9z"/>
		</g>
		<g>
			<path class="st2" d="M163.4,135.7c0.2-7,25.3-14.7,24.5-21.9c-0.8-6.8-27.1-9.9-28.7-16.4c-1.7-6.9,20.5-20.3,17.9-26.8
				c-2.6-6.6-28.8-3.4-32.2-9.6c-1.7-3.1,1.8-9.2,5.3-15.3h-43.4c18.1,19.6,30.2,44.4,33.4,72c8.1,70.5-45.3,132.6-119.2,138.7
				c-3.6,0.3-7.1,0.5-10.7,0.5v27.7c5.3,7.2,10.9,17.8,15.9,17.4c7.2-0.6,9.8-25.5,16.6-26.9c7.2-1.5,21.7,19.9,28.6,17.6
				c6.9-2.3,3-27.3,9.4-30.5c6.4-3.2,26.1,14.1,32,10.2c6.1-4-4.3-27.5,1.2-32.2c5.5-4.8,29.2,7,33.9,1.6
				c4.8-5.4-11.6-25.7-7.6-31.6c3.9-6,30-0.5,33.1-7c3-6.3-18.3-21.8-16.1-28.5c2.1-6.7,28.6-7.7,29.8-14.8
				C187.9,152.9,163.3,143,163.4,135.7z"/>
		</g>
		<g>
			<path class="st1" d="M305.8,179.5c-7.4-0.4-15.6-24.6-23.2-24.1c-7.1,0.5-10.2,25.4-17,26.7c-7.2,1.4-21.4-20.3-28.3-18
				c-6.9,2.2-3.4,27.3-9.8,30.3c-6.5,3.1-25.8-14.6-31.8-10.8c-6.2,3.9,3.8,27.5-1.7,32.2c-5.5,4.7-29.1-7.5-33.9-2.2
				c-4.8,5.3,11.2,25.8,7.1,31.8c-4.1,6-30,0-33.2,6.5c-3.1,6.3,17.9,22.1,15.7,28.8c-2.2,6.7-28.7,7.3-30,14.3
				c-1.3,7,23.2,17.3,22.9,24.6c-0.3,7-25.5,14.3-24.8,21.6c0.5,5.6,18.3,8.9,25.5,13.6h25.2c-1.3-5.5-2.3-11.1-2.8-16.8
				C158.7,267.2,213,205.9,287,201c10.4-0.7,20.7-0.2,30.6,1.3v-32.7C313.5,174.7,309.3,179.7,305.8,179.5z"/>
		</g>
		<g>
			<path class="st2" d="M300.3,183.7c-7.4-0.4-15.6-24.6-23.2-24.1c-7.1,0.5-10.2,25.4-17,26.7c-7.3,1.4-21.4-20.3-28.3-18
				c-6.9,2.2-3.4,27.3-9.8,30.3c-6.5,3-25.8-14.5-31.8-10.8c-6.2,3.9,3.8,27.5-1.7,32.2c-5.5,4.7-29-7.5-33.9-2.2
				c-4.8,5.3,11.2,25.8,7.1,31.8c-4,5.9-30,0-33.2,6.4c-3.1,6.3,17.9,22.1,15.7,28.8s-28.7,7.3-30,14.3c-1.3,7,23.2,17.3,22.9,24.6
				c-0.3,7-25.5,14.3-24.8,21.5c0.4,3.8,8.6,6.5,16.1,9.3h33.6c-0.8-4.1-1.5-8.3-1.9-12.5c-7-70.6,47.4-131.8,121.4-136.8
				c12.3-0.8,24.5,0,36.1,2.2v-40.2C311.8,173.6,305.5,184,300.3,183.7z"/>
		</g>
		<g>
			<path class="st1" d="M14.5,290.9c-0.1-0.2-0.4-0.6-0.5-0.9C14.6,290.8,14.8,291.2,14.5,290.9"/>
		</g>
		<g>
			<g>
				<path class="st1" d="M14.2,291.9l-2.4-3.8C13.4,290.1,12.9,289.9,14.2,291.9"/>
			</g>
		</g>
		<g>
			<polygon class="st1" points="13.7,290.2 14,290.3 15.2,292.4 			"/>
		</g>
		<g>
			<g>
				<path class="st1" d="M145.4,232.8c0.1,0.4,0.1,0.7-0.1,0.6L145.4,232.8z"/>
			</g>
			<g>
				<path class="st1" d="M141.9,222.9c-0.4-0.9-0.6-1.5-0.8-2C141.4,221.5,141.6,222,141.9,222.9"/>
			</g>
			<g>
				<path class="st1" d="M146.8,240.6c0,0,0.1-0.2,0.2-0.5c0.1-0.3,0.1-0.6,0.1-0.6C147.1,239.9,147,240.3,146.8,240.6"/>
			</g>
			<g>
				<path class="st1" d="M75.9,273.6c-0.3,1.7-0.6,3.3-0.8,4.6C75.2,274.8,75.6,274.5,75.9,273.6"/>
			</g>
			<g>
				<path class="st1" d="M175,203.9l0.1-0.8c0.1-0.4,0.2-0.7,0.2-0.6C175.3,202.6,175.4,203,175,203.9"/>
			</g>
			<g>
				<path class="st1" d="M143.2,219.7c-0.1,0.1-0.2,0-0.3-0.1c-0.1-0.2-0.1-0.3-0.2-0.5L143.2,219.7z"/>
			</g>
			<g>
				<path class="st1" d="M141.4,242.1C141.3,242.1,141.3,242.1,141.4,242.1l-1.5-0.3C140.6,241.9,141.1,242,141.4,242.1"/>
			</g>
			<g>
				<path class="st1" d="M168.3,189.1c-0.4-0.6-0.7-1.1-0.9-1.6C168.3,188.6,168.6,189.2,168.3,189.1"/>
			</g>
			<g>
				<path class="st1" d="M141,220.7C141,220.6,141,220.7,141,220.7c0,0,0.1,0.2,0.1,0.2C141.1,220.8,141,220.8,141,220.7"/>
			</g>
			<g>
				<path class="st1" d="M149.1,233.7c-0.3-0.8-0.5-1.5-0.8-2.4C148.7,232.3,149,233.1,149.1,233.7"/>
			</g>
			<g>
				<path class="st1" d="M75.9,273.6c0.1-0.5,0.2-1,0.3-1.4C76.1,272.8,76,273.2,75.9,273.6"/>
			</g>
			<g>
				<path class="st1" d="M22.3,300.1c1.1,0.9,1.4,1.1,1.6,1.3C23.2,301,22.7,300.5,22.3,300.1"/>
			</g>
			<g>
				<path class="st1" d="M147.5,48.4l0.3-0.5C147.7,48.1,147.6,48.2,147.5,48.4"/>
			</g>
			<g>
			</g>
		</g>
		<g>
			<g>
				<path class="st1" d="M173,77c-0.2,0.2-0.4,0.4-0.5,0.5C172.8,77.1,173,76.9,173,77"/>
			</g>
			<g>
				<path class="st3" d="M119.1,239.4C119.1,239.4,119.1,239.4,119.1,239.4C119.1,239.4,119.1,239.4,119.1,239.4z"/>
				<path class="st3" d="M112.9,240.6c0,0,0.3-0.3,0.5-0.4c0.3-0.2,0.7-0.3,0.6-0.3c0,0-0.2,0.1-0.5,0.2c-0.2,0.1-0.4,0.2-0.4,0.2
					C113.2,240.2,112.9,240.5,112.9,240.6z"/>
				<path class="st3" d="M114.4,256.3c-0.1-1.4-0.8-6.3-1.1-6.7C113.2,248.8,114,254.2,114.4,256.3z"/>
				<path class="st3" d="M114.8,255.6l0.1,1.7C115.1,257.5,115.1,257.3,114.8,255.6z"/>
				<path class="st3" d="M115.1,241.5L115.1,241.5C115.1,241.4,115.1,241.4,115.1,241.5z"/>
				<path class="st3" d="M115,257.3c-0.2-0.4-0.7-2.3,0.1,1.5L115,257.3z"/>
				<path class="st3" d="M166.2,186.9c0,0.3,0.7,0.9,1.5,1.8L166.2,186.9z"/>
				<path class="st3" d="M91.5,264.9c-1.3-0.5-3.4-1.5-5.8-2.2c-1.2-0.3-2.4-0.6-3.5-0.5c-0.5,0-1.1,0.2-1.4,0.4
					c-0.5,0.3-0.8,0.5-1,0.9c-0.4,0.7,0.1,0,0.8-0.4c0.8-0.5,2-0.4,2.6-0.3c-0.9-0.6,0.3-0.6,2.1,0c1.8,0.6,4,1.8,5.4,2.3
					c-0.7-0.5-2.6-1.3-3.1-1.6c0.9,0.2,2.8,1.1,4,1.7C91.3,265,91.3,264.9,91.5,264.9z"/>
				<path class="st3" d="M167.6,188.6l0.9,1.1C168.3,189.3,167.9,189,167.6,188.6z"/>
				<path class="st3" d="M169.2,193.8c0,0,0.6,0.8,1.2,1.7c0.6,0.9,1.1,1.8,1.1,1.8l0.2,0.2c0,0-0.6-1-1.2-1.9
					C169.9,194.6,169.2,193.8,169.2,193.8z"/>
				<path class="st3" d="M132.6,243l-1.7-0.3C131.6,242.9,132.2,243,132.6,243z"/>
				<path class="st3" d="M125.1,241.3c1.2,0.3,2.4,0.6,2.4,0.6c-0.2-0.3-3.3-0.9-4.9-1C122.7,240.8,123.9,241,125.1,241.3z"/>
				<path class="st3" d="M135.3,243.5c1.3,0.2,2.7,0.4,2.7,0.4c-2.8-1-3.3-0.6-5.4-0.9C132.6,243,134,243.3,135.3,243.5z"/>
				<path class="st3" d="M116.5,238.7c-0.9,0.1-1.9,0.4-2.5,0.8c-0.2,0.1-0.3,0.2-0.4,0.3c-0.2,0.1-0.2,0.2-0.3,0.3
					c-0.1,0.1-0.2,0.2-0.2,0.2l0.2-0.1c0,0,0.1-0.1,0.2-0.2c0.2-0.2,0.4-0.3,0.7-0.5c0.6-0.3,1.5-0.6,2.4-0.7
					c1.8-0.2,3.5,0.1,3.5,0.1S118.3,238.6,116.5,238.7z"/>
				<path class="st3" d="M146.2,49.5c-0.8,2.2,1.5-1.9,2.7-3.8h-0.6l-0.9,1.6L146.2,49.5z"/>
				<path class="st3" d="M161.2,96.9L161.2,96.9C161.2,97,161.2,96.9,161.2,96.9z"/>
				<polygon class="st3" points="159.4,175.4 159.4,175.4 159.4,175.4 				"/>
				<path class="st3" d="M161.1,96.7L161.1,96.7L161.1,96.7l0,0.1C161.2,96.7,161.1,96.7,161.1,96.7L161.1,96.7z"/>
				<path class="st3" d="M165.6,135.6L165.6,135.6C165.6,135.5,165.6,135.5,165.6,135.6z"/>
				<path class="st3" d="M159.4,175.2L159.4,175.2l0,0.1C159.4,175.2,159.5,175.1,159.4,175.2z"/>
				
					<ellipse transform="matrix(0.7098 -0.7044 0.7044 0.7098 -136.6776 151.1429)" class="st3" cx="115.1" cy="241.5" rx="0" ry="0"/>
				<path class="st3" d="M77,281.2c-0.1,0.9-0.3,1.9-0.3,1.9c0,0.5,0.2-0.8,0.3-1.4c-0.3,1.1,0.1-1.6,0.2-2.4
					C77.2,279.3,77.1,280.3,77,281.2z"/>
				<path class="st3" d="M112.3,249.8c-0.1-0.7-0.1-1.4-0.1-2.1C112.2,248,112.2,248.5,112.3,249.8z"/>
				<path class="st3" d="M115.1,241.5L115.1,241.5C115.1,241.5,115.1,241.5,115.1,241.5C115.1,241.5,115.1,241.5,115.1,241.5z"/>
				<path class="st3" d="M92.6,265.8c-0.2-0.2-0.6-0.4-1-0.7C91.8,265.4,92.1,265.6,92.6,265.8z"/>
				<path class="st3" d="M91.5,264.9c0.4,0.2,0.8,0.3,1,0.4C91.9,265,91.6,264.9,91.5,264.9z"/>
				<path class="st3" d="M112.2,247.7c0.1-0.7,0.3,1,0.3-1.6C112.3,245.8,112.2,246.6,112.2,247.7z"/>
				<path class="st3" d="M175.9,146.2c-1.1-1-2.1-2.2-4.3-3.3C172.9,144.4,174,144.6,175.9,146.2z"/>
				<path class="st3" d="M170.7,80c0,0,0.6-0.5,1.2-1.1c0.6-0.5,1.2-1.1,1.2-1.1C173.5,76.9,171.2,79.4,170.7,80z"/>
				<path class="st3" d="M176.7,70.8c-0.1-0.4-0.3-0.8-0.6-1.1c-0.4-0.3-0.6-0.4-0.8-0.4C176,69.8,176.5,70.3,176.7,70.8z"/>
				<path class="st3" d="M176.9,72.1c0-0.1,0-0.3-0.1-0.5c0-0.2-0.1-0.5-0.2-0.8c0.1,0.6,0.1,0.9,0.1,1.5L176.9,72.1z"/>
				<path class="st3" d="M165.2,89.5c2-2.1,2.1-1.4,4.1-3.7C167.6,87.4,167.7,86.5,165.2,89.5z"/>
				<path class="st3" d="M168.1,103.8c0,0-1.2-0.5-2.3-1c-1.2-0.5-2.3-1.2-2.3-1.2c-0.8-0.2-2.3-1.4-1.7-0.7
					C163.9,102.1,167,103.9,168.1,103.8z"/>
				<path class="st3" d="M173.4,126.1c0.5-0.5,3.3-2.1,5.7-3.7C177.8,122.8,173,126.1,173.4,126.1z"/>
				<path class="st3" d="M183.9,119.1c0,0-0.2,0.3-0.4,0.5l-0.4,0.5c1.8-1.3,3.5-2.8,3.2-2.3c0.5-0.7,1-1.4,1.2-2
					c0.2-0.6,0.2-0.8-0.1-0.5c0,0.3-0.7,1.4-1.6,2.2C185,118.5,184,119.2,183.9,119.1z"/>
				<path class="st3" d="M166.7,66.9c-1.6-0.3-2.9-0.3-3.7-0.4c1.1,0.2,2.3,0.2,2.6,0.4c-1.8-0.1-3.6-0.4-4.7-0.6
					c0.5,0.4,0.2,0.7,5,1.1C166.1,67.2,164.8,67,166.7,66.9z"/>
				<path class="st3" d="M172.7,68.7c0,0,0.6,0.2,1.2,0.5c0.6,0.3,1.1,0.6,1.1,0.6c-0.9-0.6-0.8-0.5-0.9-0.7
					c0.9,0.3,1.5,0.8,1.8,1.3c0.1,0.1,0.1,0.3,0.2,0.4c0,0,0,0.1,0,0.1l0,0c0,0.1,0,0.1,0,0l0,0.3c0.1,0.5,0,0.5,0,0.8
					c0.1-0.2,0.1-1.1-0.2-1.6c-0.3-0.6-0.8-1-0.6-1c-1.2-0.8-2.7-1.1-3.4-1.3C171.2,68,171.2,68.1,172.7,68.7z"/>
				<polygon class="st3" points="157.7,66 157.5,66.5 159.6,66.7 				"/>
				<path class="st3" d="M160.9,66.3c-0.2-0.1-0.4-0.2-1-0.4C159.8,66.1,160.2,66.2,160.9,66.3z"/>
				<polygon class="st3" points="175.5,127.8 178.3,126.3 178.5,126.1 175.6,127.6 				"/>
				<path class="st3" d="M162.8,92.1c1-1.2,2.4-2.7,2.6-3.1C164.3,90.1,164,90.2,162.8,92.1z"/>
				<path class="st3" d="M168.5,141.1c0,0-0.3-0.2-0.6-0.5c-0.1-0.1-0.2-0.2-0.3-0.3c1.3,1.2,0.5,1.2,3.1,2.9l-1.6-1.3
					c2,1.5-2.2-2.4,0.9,0c1.2,0.9-1.9-1.8-3.1-3C166.8,139.4,169.5,141.7,168.5,141.1z"/>
				<path class="st1" d="M146.7,237.8c0,0.1,0,0.1,0,0.3C146.7,238,146.7,237.9,146.7,237.8z"/>
				<path class="st1" d="M115.1,241.5L115.1,241.5c0,0,0,0-0.1,0.1l0,0L115.1,241.5C115,241.6,115,241.6,115.1,241.5L115.1,241.5
					L115.1,241.5z"/>
				<path class="st1" d="M165.6,135.6L165.6,135.6C165.6,135.6,165.6,135.6,165.6,135.6z"/>
				<path class="st1" d="M161.5,96.5L161.5,96.5L161.5,96.5l0,0.2c0,0,0,0,0,0C161.5,96.6,161.5,96.6,161.5,96.5z"/>
				<path class="st1" d="M159.3,175.8C159.3,175.8,159.3,175.8,159.3,175.8C159.3,175.8,159.3,175.8,159.3,175.8z"/>
				<path class="st1" d="M141.5,207c-0.1,0-0.1,0-0.1,0.1C141.4,207,141.4,207,141.5,207z"/>
				<path class="st1" d="M127.9,239.4c-0.1,0-0.2,0-0.3-0.1C127.6,239.3,127.7,239.3,127.9,239.4z"/>
				<path class="st1" d="M111.1,274.3c-0.2,0-0.4,0-0.6,0c0,0,0.1,0,0.1,0C111,274.4,111.1,274.3,111.1,274.3z"/>
				<path class="st1" d="M159.4,175.4L159.4,175.4L159.4,175.4l0-0.1C159.4,175.4,159.4,175.4,159.4,175.4z"/>
				<path class="st1" d="M161.5,96.5L161.5,96.5C161.5,96.6,161.5,96.6,161.5,96.5z"/>
				<path class="st1" d="M161.5,96.5C161.5,96.5,161.5,96.5,161.5,96.5L161.5,96.5L161.5,96.5z"/>
				<path class="st1" d="M113.8,251c0-0.1,0-0.3,0-0.4C113.8,250.6,113.8,250.8,113.8,251z"/>
				<path class="st1" d="M190.4,115.6c0,0.1-0.1,0.2-0.1,0.3c0,0,0-0.1,0-0.1C190.4,115.8,190.4,115.7,190.4,115.6z"/>
				<path class="st1" d="M115.1,241.5C115.1,241.5,115.1,241.5,115.1,241.5L115.1,241.5C115.1,241.5,115.1,241.5,115.1,241.5z"/>
				<path class="st1" d="M61.5,289.9c-0.3-0.3-0.6-0.5-0.7-0.6C60.9,289.3,61.1,289.5,61.5,289.9z"/>
				<path class="st1" d="M190.1,116.3c0-0.1,0.1-0.2,0.2-0.4C190.2,116.1,190.2,116.2,190.1,116.3z"/>
				<path class="st1" d="M190.4,115.6c0.2-0.6,0.2-1,0.2-1C190.5,115,190.5,115.3,190.4,115.6z"/>
				<path class="st1" d="M190.4,115.6C190.4,115.6,190.4,115.6,190.4,115.6C190.4,115.6,190.4,115.6,190.4,115.6z"/>
				<path class="st1" d="M147.5,206c0.1,0,0.2,0,0.3-0.1C147.9,205.9,147.7,206,147.5,206z"/>
				<path class="st1" d="M24.4,301.8c0.1,0.1,0.3,0.1,0.5,0.2C24.7,301.9,24.5,301.8,24.4,301.8z"/>
				<path class="st1" d="M112.8,273.9L112.8,273.9C112.8,273.9,112.8,273.9,112.8,273.9z"/>
				<path class="st1" d="M43,276C42.8,276.1,43,276,43,276L43,276L43,276L43,276z"/>
				<path class="st1" d="M161.6,96.8L161.6,96.8L161.6,96.8C161.6,96.8,161.6,96.8,161.6,96.8C161.5,96.8,161.5,96.8,161.6,96.8
					L161.6,96.8z"/>
				<path class="st1" d="M181,165.8c-2.1,0.7-5.2,1-9.1,2.4l3.1-0.7l-0.7,0.2l0.9,0C174.1,167.4,179.2,166.5,181,165.8z"/>
				<path class="st1" d="M183.3,153.2c0,0-0.4-0.4-0.7-0.9c-0.4-0.4-0.7-0.9-0.7-0.9s-0.7-0.5-1.4-1.1l-1.4-1l2.2,1.8
					C182.3,152.2,183.3,153.2,183.3,153.2z"/>
				<path class="st1" d="M169.2,192.9c-0.2-0.3-0.5-0.7-1-1.2C168.6,192.2,168.9,192.6,169.2,192.9z"/>
				<path class="st1" d="M169.9,129.5c-0.2,0.1-0.6,0.4-1.1,0.7C169.1,130,169.5,129.8,169.9,129.5z"/>
				<path class="st1" d="M167.6,140.4c-0.1-0.1-0.2-0.2-0.3-0.2C167.3,140.1,167.4,140.2,167.6,140.4z"/>
				<path class="st1" d="M160.2,179.2c-0.8-1.2,0,0.6,0.2,1.1c-0.4-0.6-0.7-1-1.1-1.9c-0.2,0.8,1.5,2.2,3.2,4.8
					C162.6,183.1,160.5,180.2,160.2,179.2z"/>
				<path class="st1" d="M167.4,191.5c-0.7-1.1-4.9-5.5-5-6.5C160.6,183.8,165.2,189.2,167.4,191.5z"/>
				<path class="st1" d="M175.9,146.2c0.2,0.1,0.3,0.2,0.5,0.4C176.2,146.5,176,146.3,175.9,146.2z"/>
				<path class="st1" d="M157.5,65.4c-0.3-0.1,0.3-0.2-0.5-0.4l-1.6-0.3C153.2,64.6,155.6,65.2,157.5,65.4z"/>
				<path class="st1" d="M144.4,51c-0.9,1.7-1.8,3.5-2.2,5.1c-0.5,1.6-0.5,2.9-0.5,2.9c0.1-0.9,0.8-3.4,0.7-2.4
					c-0.4,2.3-0.3,3.7,0.1,4.9l0.2,0.5l0.1,0.1l0,0.1l0.2,0.2l0.1,0.1c0.1,0.1,0.1,0.2,0.2,0.3l0.1,0.2l0.2,0.3
					c0.7,0.8,1.4,1.3,2.5,1.8l-0.9-0.6c-0.4-0.4-0.8-0.7-0.9-0.8c0.3,0.3,0.9,0.8-0.1,0.1c-0.2-0.2-0.4-0.4-0.6-0.6
					c-0.1-0.1-0.2-0.2-0.3-0.3l-0.1-0.1c-0.1-0.1-0.1-0.2-0.2-0.3l-0.1-0.1l0,0l-0.1-0.2l0,0l0,0l0,0l0-0.1
					c-0.2-0.5-0.2-0.7-0.1-0.8c0.1,0.1,0.1,0.3,0.2,0.4l0.1,0.2l0.1,0.1l0.1,0.2l0,0c0.2,0.2,0.2,0.3,0.5,0.7c0.7,0.8,1.4,1.2,2,1.6
					c1.3,0.8,2.6,1.2,3.1,1.5c5,1.2,1.1-0.2,2.2,0c2.5,1,8.1,1.2,10.9,1.7l-1.8-0.5c3.6,0,6.8,0.7,8.8,1.2l-0.7-0.4
					c2.4,0.4,4.2,0.7,5.7,1.3c0.7,0.3,1.3,0.7,1.7,1.1c0.2,0.2,0.3,0.6,0.3,0.7l0,0.3l0,0.2l0,0.1c-0.1,0.1-0.1,0.1-0.2,0.3
					c0,0,0.2-0.3,0.2-0.2c0.1,0.5-0.2,1.7-0.8,2.6c-0.6,1-1.4,2-2.1,2.6c0,0.1-0.1,0.4-0.6,1.1c-1,0.6-2.2,2.3-4.3,4.5
					c1.5-1.4,1.3-0.6,2.9-2.1c-3,3.7-3.4,2.7-6.1,5.6c-1.5,1.9,1.7-1.4,2.2-1.7c-2.2,2.1-4.3,4.5-5.9,6.9c-0.8,1.2-1.5,2.4-1.9,3.6
					c-0.2,0.6-0.3,1.2-0.4,1.8c0,0.3,0,0.6,0.1,0.9c0.1,0.3,0.1,0.5,0.2,0.8c0,0-0.2-0.2-0.2-0.4c-0.1-0.1-0.1-0.2-0.2-0.4
					c-0.1-0.3-0.1-0.4-0.2-0.6c-0.2-0.8,0-1.5,0-1.5c-0.2,0.7-0.2,1.3-0.1,1.9c0,0.1,0,0.1,0.1,0.3l0.1,0.2c0,0.1,0.1,0.2,0.1,0.3
					c0,0.2,0.2,0.4,0.3,0.6c0.4,0.7,0.6,0.8,0.6,0.7c-0.6-0.7-0.7-1.2-0.7-1.4c1.1,2,2.7,2.7,4,3.6c1.4,0.8,2.7,1.5,4,2.1
					c2.6,1.3,5.3,2.4,8.8,3.6c-0.5-0.3-1.4-0.7-1.4-0.9c3.2,1,2.9,1.8,7.9,3.6l-0.9-0.6c1.7,0.6,2.7,1.5,2.4,1.4
					c0.1-0.1,0.8,0.1,1.7,0.7c0.4,0.3,0.9,0.7,1.3,1.2c0.2,0.2,0.3,0.5,0.4,0.8c0,0.1,0.1,0.3,0.1,0.4l0,0.5c0,0.5-0.3,1.2-0.8,1.8
					c-0.4,0.6-1,1.2-1.5,1.8c-1.1,1.1-2.2,2-2.8,2.7c-2.4,1.2-9.2,4.8-11.1,6.3c-2.6,2.2,2.8-1.2,1.9-0.2c-2.2,1.4-3.7,1.7-6.7,4.4
					c-0.4-0.3,5.9-5.5-0.4-1l-0.7,0.9c0.6-0.6,1.4-1.4,2.3-2c1.9-1.1-0.9,1-1.2,1.4c0,0-0.4,0.3-1,0.9c-0.6,0.5-1.3,1.3-1.9,2.4
					c-0.3,0.5-0.5,1.1-0.5,1.7l0,0.2c0,0.3,0,0.2,0,0.3l0,0.3c0,0.2,0.1,0.5,0.1,0.7c0.1,0.5,0.3,0.8,0.4,1c0.1,0.2,0.2,0.4,0.2,0.4
					c0,0.2-0.2,0.1-0.4-0.3c-0.1-0.2-0.3-0.4-0.4-0.8c-0.1-0.4-0.2-0.8-0.2-1c-0.1-0.8,0.1-1.7,0.3-2.3c0.3-0.6,0.5-1,0.6-1.1
					c-0.5,0.8-1,1.7-1,3.1l0.1,0.6c0.1,0.3,0.1,0.6,0.2,0.9c0.2,0.5,0.4,1,0.7,1.4c1.1,1.6,2.4,2.8,3.8,3.9c2.7,2.2,5.6,4,7.9,5.9
					l-0.4-0.4c2.9,2.3,3.9,2.8,4.7,3.2c0.8,0.4,1.5,0.7,3.5,2.9c1.2,1,1,0.8,1,0.6c0-0.1,0.2-0.2,1.7,1.6c0.7,1.1,0.2,0.5,0,0.4
					c0.8,1.2,0.9,2,1,2.5c0,0.2,0,0.5,0,0.6c0,0.2-0.1,0.3-0.1,0.5c-0.1,0.3-0.1,0.5-0.5,0.9c-0.3,0.4-0.9,0.9-2.1,1.5
					c0,0,0.3-0.1,0.6-0.1c0.3-0.1,0.6-0.2,0.6-0.2c-2.7,1.8-6,2.4-9,3.2c-3.1,0.7-6.1,1.3-8.7,2.2c0.4,0.2,3.7-0.8,5.1-0.9
					c-3.7,0.8-8.1,1.8-12.2,3.8c-1,0.5-2,1.2-2.8,2.1c-0.4,0.5-0.7,1-0.9,1.6c-0.1,0.5-0.2,1.2-0.1,1.7c0.4,2.3,1.5,4,2.4,5.5
					c-1.5-1.6,1.4,3.2-1.4-0.5c-0.1-0.6-0.5-1.4-1-2.3c-0.2-0.5-0.5-1-0.6-1.7c-0.2-0.6-0.3-1.4-0.2-2.3c-0.4,1.6,0.1,3.3,0.9,5
					c0.9,1.7,2.1,3.3,3.3,4.7c2.4,2.9,4.8,5.3,4.8,6l0.9,0.6c0.7,0.8,2.1,3.1,0.9,1.7c0,0,1.3,1.4,2.4,2.9c1.2,1.4,2.1,2.9,2.1,2.9
					c-0.9-2.3-4.1-7.1-5.5-8.1c-1.1-1.9,2.2,2.2,1.3,0.5c1.4,2.1,1.9,2.7,2.5,3.3c0.5,0.6,1.3,1.1,2.6,3.4c-0.8-0.9-0.2,0.3,0.3,1.7
					c0.3,0.7,0.4,1.4,0.4,1.9c0,0.5-0.2,0.7-0.2,0.7c0,0.3-0.1,0.5-0.5,0.9c-0.1,0.2-0.7,0.5-1.2,0.7c-1,0.4-2.3,0.6-3,0.6
					c-2.8,0.6-9.8,1.1-14.7,1.1c1.9,0.1,4.8,0.2,4.6,0.6c-2.4-0.1-5.1,0-5.5,0.4c8.6,0.4,2.8-0.9,10.5-0.8c1,0.1,2,0.2,3.2,0.2
					c1.2-0.1,2.8-0.2,4.6-0.8c-1.6,0.8-0.9,0.6-1.5,1.1c-5,0.3-12.7,0.7-19.1,0.7c-1.4,0-1.5-0.2-2.2-0.3c-0.6,0-1.7-0.3-4.8,0.6
					c0,0,1.3-0.5,2.7-0.8c0.9-0.2,1.9-0.4,2.3-0.4c-2.6,0.4-3,0.5-3.2,0.4c-0.1,0-0.2-0.1-0.6,0c-0.4,0.1-1,0.1-2.2,0.6
					c0.5-0.1,2-0.4,2-0.4c-1.5,0.4-2.6,0.9-3.5,1.6c-0.4,0.3-0.8,0.7-1.2,1.1c-0.1,0.2-0.3,0.4-0.4,0.6c-0.1,0.1-0.2,0.5-0.4,0.8
					c0,0,0.1-0.2,0.3-0.6c0.1-0.1,0.2-0.2,0.2-0.3l0.1-0.2l0,0l0,0l0.1-0.1l0,0l0.1-0.1c0.3-0.3,0.6-0.6,0.9-0.7
					c0.3-0.2,0.4-0.3,0.4-0.3c-0.2,0.2-0.4,0.4-0.6,0.5c-0.2,0.2-0.4,0.5-0.6,0.7c-0.2,0.4-0.3,0.5-0.4,0.8c-0.1,0.3-0.2,0.7-0.3,1
					c-0.2,1.1-0.1,1.9-0.3,2c0.2,0.5,0.3,0.6,0.3,0.6c0,0.4,0,1.2,0.6,3c-0.3-1.1-0.5-1.9-0.3-1.9c0.8,3.6,1.3,3.8,1.4,3.9
					c0.2,0,0.2-0.2,1,1.8c-0.2-0.7,0.4,0.4,1.1,1.8c-0.7,0.2,2.9,8.1,3.3,10.3l0,0c0,0,0.5,1.4,0.8,2.7c0.2,0.7,0.3,1.3,0.4,1.8
					c0,0.2,0.1,0.4,0.1,0.5c0-0.5,0.4,0.5,0.4,1.7l0-0.2c0,0.7,0.2,0.3,0.4,0.3c0.1,0,0.2,0,0.1,0.4c-0.1,0.4-0.1,1-1,1.7
					c0,0-0.4,0.2-1,0.4c-0.6,0.1-1.3,0.1-1.3,0.1c0.5,0,0,0.1-0.2,0.2c0,0-0.7,0-1.4-0.1c-0.7-0.1-1.4-0.2-1.4-0.2
					c-4.5,0.2-8.2-1.8-13.4-2.7c1.5,0.3,3.5,0.8,2.5,0.8c-1.1-0.2-2.6-0.6-3.4-0.9l0.3,0.1c0,0-2.5-0.7-5.1-1.2
					c-1.3-0.3-2.7-0.4-3.7-0.5c-1-0.1-1.8,0-1.8,0c0.5,0,2.3,0.1,3.6,0.3c1.3,0.2,2.1,0.4,0.7,0.3c-1.6,0.1-4.7-0.5-6.8,0.5
					c0.1-0.2,1.1-0.7,1.6-0.8c0.2-0.1,0.4-0.1,0.2-0.1c-0.2,0-0.7,0-1.7,0.4c-0.1,0.1-0.4,0.2-0.8,0.6l-0.3,0.2l-0.1,0.1l0,0
					l-0.1,0.1l0,0l-0.1,0.1c-0.1,0.2-0.2,0.3-0.3,0.4c-0.5,0.9-0.7,1.4-0.1,0.5c-1.3,1.9-1.3,4.3-1.4,6.5c0,2.2,0.2,4.3,0.3,5.9
					c0.2,1,0.1-0.6,0-1.1l-0.1-0.3c-0.1-2.2,0.3-0.3-0.2-4.7c0.3-0.2,0.4,1.4,0.6,3.4c0.2,2,0.6,4.5,0.9,6.4l-0.3-2.9l-0.2-3
					c0.5,2.4,1.1,5.1,1.6,7.8c0.5,2.8,0.9,5.7,0.8,8.5c-0.1,1.4-0.3,2.9-1,4c-0.2,0.3-0.4,0.5-0.6,0.7c-0.1,0.1-0.3,0.2-0.4,0.3
					l-0.5,0.2c-0.6,0.2-1.2,0.2-1.9,0.2c-2.6-0.3-5.1-1.6-7.3-2.6c2.7,1.1,4.8,2,4.6,1.4c-2.7-1.1-3.9-1.7-5-2.3
					c-1.2-0.6-2.3-1.2-5-2.7l0.4,0.3c-2.9-1.3-6.5-3.7-8.7-4.1c1.2,0.8,4.2,1.7,4,2.3c0,0-1.7-0.9-3.5-1.7c-1.8-0.8-3.7-1.5-3.7-1.5
					c2.3,1,7.1,3.1,9.7,4.6c1.9,1-3.7-2-2.7-1.9c6.4,3.4,7.6,4.5,10.5,6.4c1.8,1.2-3-1-4.1-1.6c-1.9-1.3-4.3-2.8-7-4.3
					c-1.4-0.8-2.9-1.5-4.4-2.1c-1.6-0.6-3.3-1.2-5.2-1.3c0,0-1.1,0-2,0.5c-0.9,0.5-1.5,1.4-1.5,1.4c-1.2,1.3-1.5,1.8-2,2.6
					c-0.5,0.8-1,2-1.4,5.2c0,0,0.1-0.5,0.3-0.9l0.3-0.9c-0.1,1.4-0.2,2.3-0.3,3c0.6-2.7,1.3-5.6,2.6-7.7c-1.1,3.3-2.5,10-3.1,15.3
					c0.1-0.3,0.3-2.1,0.5-2.6c-0.3,3.9-0.8,8-2.1,11.6c-0.6,1.7-1.8,3.4-3.3,3.6c-1.5,0.2-3-0.6-4.2-1.4c-1.1-0.5-0.1,0.2,1.1,0.8
					c1.2,0.7,2.7,0.8,2.1,1c-1.5-0.2-3.1-1.1-4.3-1.8c-1.2-0.7-2.1-1.5-2.3-1.9c0.7,1.3-5.7-4.7-1.3-0.4c-4.6-3.6-8.7-8.1-13.7-11.7
					c-1.3-0.8-2.6-1.6-4.1-1.9c-0.7-0.1-1.5-0.1-2.2,0.3c-0.7,0.3-1.3,0.9-1.8,1.4c-2,2.3-3.2,5.2-4.3,7.9c0.4-0.5,0.5-0.4,0.4,0.1
					c0.7-1.8,1.7-4.1,2.9-6c0.6-0.9,1.3-1.8,1.9-2.3c0.7-0.6,1.3-0.7,1.9-0.8c-0.7,0.3-1,0.5-1.6,0.9c-0.5,0.4-1,0.9-1.4,1.4
					c-0.8,1-1.4,1.9-1.5,2.2c0.4-0.6,0.9-1.4,1.3-2c0.5-0.6,1-1.1,1.1-1c-0.9,1.3-1.5,2.4-2.1,3.4c-0.6,1-1.1,1.9-1.6,3l0.4-1.2
					c-3.1,6.7-2.3,3.5-5,10.9c-0.8,2.8,0.3,0.1,0.6,0.2c-0.4,0.8-1.1,2.7-2,4.5c-0.5,0.9-1,1.7-1.6,2.4c-0.6,0.7-1.2,1.2-1.7,1.3
					c0,0,0.3-0.1,0.6-0.5c0.4-0.3,0.8-0.7,1.1-1.2c0.7-1,1.3-2,1.3-2c-0.9,1.4-1.8,2.8-3.2,3.6c-1.3,0.8-2.9,0.5-3.8-0.1
					c0.1,0.1,0.2,0.2,0.5,0.4c0.2,0.1,0.3,0.1,0.5,0.2c-0.2-0.1-0.4-0.1-0.5-0.2c-2.4-1-4.4-3.6-5-4.6l-0.8-0.3
					c0.6,0.6,1.6,1.8,2.7,2.8c1.1,1,2.2,1.8,2.6,2.1c-0.3,0.1-1.6-0.6-2.7-1.7c-1.1-1.1-2.2-2.5-2.9-3.3c1.4,1.9,2.6,3.2,3.7,4.2
					c1.2,1,2.2,1.6,3.6,1.8c1.2,0.2,2.7-0.4,3.6-1.4c1-1,1.9-2.3,2.8-4.1l-0.8,1.2c2.1-4.6,4.1-9.2,5.6-13.2c-0.3,1.1-0.3,1.4,0,0.9
					c0.8-2.2,1.6-4.4,2.6-6.4c0.5-1,1.1-1.9,1.9-2.7c0.3-0.4,0.8-0.6,1-0.8l0.4-0.1l0.1,0l0,0l0,0c0,0-0.1,0,0.1,0l0,0l0,0l0.2,0
					c0.2,0,0.4,0,0.7,0c2,0.2,4.1,1.7,6,3.1c2,1.5,3.9,3.2,5.9,5l2.1,2.5l0.4-0.1c3.6,3,1.3,1.6,2.5,2.7c-0.2-0.2-0.1-0.2-0.2-0.3
					c2.3,2.1,3.1,2.6,3.6,2.8c0.5,0.2,0.7,0.2,2.3,1.2c-1.5-1-5.5-4-4-3.4c1.2,1,2.5,2.2,4.2,3.1c0.8,0.5,1.7,0.8,2.7,1
					c0.5,0.1,1.1,0.1,1.6,0.1l0.6-0.1c0.4-0.1,0.5-0.2,0.8-0.3c1.8-1.1,2.4-2.7,3-3.7c0.5-1.1,0.8-1.8,1-2
					c1.2-5.8,1.2-12.2,2.4-18.1c0.6-2.8,1.6-5.8,3.2-5.8c0.9-0.2,2.1,0.1,3.3,0.5c1.1,0.4,2.3,0.8,3.3,1.3c1.2,0.4-0.7-0.4-0.2-0.3
					c3.1,1.8,11.3,5.5,11.2,5.8c1.7,0.7,2.5,0.8,3,0.9c1.1,0.6,2.3,1.2,3.7,1.8c1.3,0.4,2.7,1,4.4,0.9c-0.2,0-0.5,0-0.8-0.1
					c-0.7-0.1-1.3-0.2-1.3-0.2l0.3,0c0,0,0.9,0.2,1.9,0.2c0.8,0.1,1.9-0.3,2.1-0.4l0,0c0,0,0,0,0,0l-0.1,0.1l0.3-0.2l0.2-0.1l0.1,0
					l0.2-0.1l0.1,0c0.3-0.2,0.6-0.4,0.8-0.7c0.5-0.5,0.8-1.1,1.1-1.7c0.5-1.2,0.6-2.3,0.7-3.4c0.1-2.2-0.1-4.3-0.3-6.4
					c-0.5-4.1-1.2-8-1.4-11.4c0.2,3.4-0.4,0.3-0.5,0.5c0,0.1,0,0.3,0,0.4c0-0.3,0-0.4,0-0.4c0.1-1.8-0.2-4.6,0.3-7.2
					c0.1-0.6,0.5-1.3,0.6-1.5l0.2-0.2l0.1-0.1c0,0,0,0,0,0l0,0l0,0c0.1-0.1,0.1-0.1,0.1-0.1l0,0l0,0c0,0,0,0,0,0l0,0c0,0,0,0,0,0
					c0,0,0,0,0,0l0,0l-0.1,0.1l0,0c0.1,0,0.2-0.1,0.3-0.2c0.1,0,0.2-0.1,0.4-0.2l0.4-0.1c1.3-0.3,3-0.2,4.6,0c0-0.1,0.5-0.2-0.2-0.4
					c0,0,0.9,0.2,1.9,0.4l1.9,0.5l-0.5-0.3c6.9,1.2,14.2,4.2,19.6,3.9c-3.2-0.2-3.1-0.4-3.4-0.6c1.3,0.2,2.7,0.3,4.1,0.2
					c0.7,0,1.4-0.1,2.2-0.3c0.4-0.1,0.8-0.3,1.2-0.5c0.4-0.3,0.9-0.6,1.1-0.8c0.7-0.6,1.2-1.6,1.4-2.4c0.2-0.9,0.2-1.7,0.2-2.5
					c-0.1-1.6-0.5-3.1-1-4.6c0.1,0.3,0.1,0.6,0.1,0.6c-0.6-1.6-1.1-3.4-1.7-4.9l-0.4-0.1c-1.1-2.9-3-6.4-4.1-9.7
					c-0.4-0.6-1.2-2.6-1.6-4.9c-0.4-2.6-0.1-3.7,1.5-4.4c1.2-0.5-2.6,0.9,0.6-0.6c0.4,0.2,1.6-0.1,2.9-0.3c1.3-0.2,2.7-0.3,2.9,0.1
					c0,0,0.9-0.1,1.9-0.3c1-0.1,1.9-0.2,1.9-0.2l0.9,0.3c3.3-0.8,5,0.3,10.2-0.3c-0.3-0.1-0.8,0-0.6-0.1c1.6,0,5.6-0.5,2.6,0.1
					c1.4-0.2,4.5-0.4,7.2-2.2c0.3-0.3,0.6-0.4,0.9-0.8c0.3-0.3,0.7-0.8,0.8-0.9c0.1-0.2,0.2-0.3,0.2-0.4c0.1-0.1,0.1-0.2,0.2-0.3
					l0.1-0.2c0-0.1,0.1-0.2,0.1-0.3c0.1-0.3,0.1-0.3,0-0.1c0,0.1-0.1,0.1-0.1,0.2c0,0,0,0.1-0.1,0.2l0,0.1l-0.1,0.3l0,0
					c-0.1,0.1-0.2,0.3-0.4,0.5c0,0,0.1,0,0,0.1c-0.1,0.1-0.2,0.3-0.5,0.6c-0.1,0.1-0.2,0.3-0.4,0.4c-0.1,0.1-0.3,0.2-0.4,0.3
					c-0.3,0.2-0.6,0.4-0.9,0.6c-1.3,0.7-2.8,1-3.7,1.2c0.1-0.2,1.2-0.4,2.5-1c0.6-0.3,1.3-0.7,1.9-1.2c0.5-0.4,1.2-1.3,1.1-1.5
					c0.1,0,0.2-0.2,0.3-0.3l0,0l0,0l0.1-0.2l0.1-0.1l0.1-0.2c0.1-0.2,0.1-0.3,0.2-0.5c0.1,0-0.1-0.9-0.1-0.9c0.2-1.9-0.4-3.3-1-4.5
					c-0.6-1.3-1.3-2.3-2-3.3c-1.4-2-2.8-3.7-3.8-5.3c-0.2-0.1-0.8-0.7-1.9-2l0.3-0.3l-1.7-2c-0.8-1-1.6-2-1.6-2l1.1,2.2
					c-1.9-2.2-3.3-4.2-4.2-6.1c-0.5-0.9-0.8-1.9-0.9-2.6l0-0.5c0,0,0,0,0,0c0,0,0,0,0-0.2l0.1-0.2l0,0h0c0,0,0,0,0,0v0h0
					c0,0,0-0.1,0-0.1l0-0.1l0-0.1c0-0.1,0,0,0,0.1l0,0.1l0,0l0,0l0,0l0,0c0,0,0.1-0.1,0.2-0.2c-0.2-0.4,1.2-1.5,3.6-2.4
					c2.3-0.9,5.2-1.6,7.1-2.5l-3.6,0.9c3.7-1.1,6-1.7,8.1-2.4c2.2-0.7,4.3-1.3,8-2.7c-3.1,1.4-4.6,1.8-6.5,2.5
					c-1.9,0.6-4.1,1.3-8.4,2.9c4.3-1.4,8.2-2.3,12.1-3.5c1.9-0.6,3.9-1.3,5.9-2.7c0.5-0.4,1-0.7,1.5-1.3c0.3-0.2,0.5-0.5,0.7-0.9
					c0.2-0.3,0.5-0.7,0.7-1.3c0.3-0.6,0.2-0.7,0.3-1l0-0.1l0,0l0.1-0.3l0,0l0,0l0-0.4l0-0.7c0-0.5-0.1-0.9-0.2-1.3
					c-0.1-0.4-0.3-0.8-0.4-1.1c0.1,0.4,0.4,1.4,0.4,2c0,0.6,0,0.5-0.4-1c-0.1-1.3-1.6-3.5-2.9-4.7c-1.3-1.3-2.3-2.1-1.7-1.8
					c-2.2-1.7-2.8-1.6-4.2-2.6l-6.8-5.5l0.2,0.2c-1.5-1-3-2-4.3-3.1c-1.3-1.1-2.5-2.3-3.1-3.4c-0.1-0.3-0.3-0.6-0.3-0.6
					c0,0-0.1-0.2-0.1-0.4l0-0.1c0,0,0,0,0,0l0,0c0-0.1,0-0.2,0-0.2l0,0c0,0,0,0,0,0l0,0c0,0,0-0.1,0,0l0,0v0l0,0.1l0,0.1
					c0,0,0-0.1,0-0.1c0-0.3,0.3-0.8,0.7-1.3c0.9-1,2.2-2,3.5-2.9c2.8-1.8,5.8-3.4,8.9-5.2c1.6-0.9,3.1-1.8,4.7-2.9
					c1.6-1.1,3.2-2.3,4.7-4l-0.4,0.1c0,0,0.8-0.7,1.6-1.8c0.3-0.4,0.5-0.8,0.7-1.3c-0.1,0.1-0.1,0.2-0.1,0.2c0,0,0.1-0.3,0.2-1
					c0.1-0.3,0.1-0.9,0.1-1.1c0-0.2,0-0.4-0.1-0.6l0-0.3l0,0l0,0l0-0.1l0-0.1l-0.1-0.2c0-0.1-0.1-0.3-0.1-0.4
					c-0.1-0.2-0.2-0.4-0.2-0.4c0,0-0.1-0.2-0.3-0.6c-0.2-0.4-0.5-0.9-0.9-1.4c-0.8-1-2-1.9-3.1-2.6c-2.3-1.4-4.6-2.4-4.6-2.4
					c-0.3,0.1,0.1,0.7,2.4,1.6c-3.6-1.5-7-3-10-4.1l1,0.5l-2.9-1.2l-0.1,0.3c-2.4-0.9-5.2-2-7.2-3.1c-1-0.5-1.8-1.1-2.2-1.6
					c-0.1-0.1-0.2-0.2-0.2-0.3c-0.1-0.1,0-0.1,0-0.1c0,0.1-0.1-0.2-0.1-0.3l0-0.1c0,0,0,0,0,0l0,0l0,0l-0.1-0.2l0,0v0l0,0l0,0.1
					l0,0.1c0,0.2-0.1,0.4-0.1,0.4s0-0.1-0.1-0.2c0,0,0,0,0,0l0,0c0,0.1,0,0.1,0,0l0,0c0,0,0-0.1,0-0.1l0-0.1l0,0l0,0v0c0,0,0,0,0,0
					l0,0v0c0,0,0,0.1,0,0.1l0,0c0,0,0,0.1,0,0.1l0,0c0,0,0-0.1,0-0.1c0-0.2,0.1-0.5,0.2-1c0.4-0.9,1.1-1.9,1.1-1.9s-0.5,0.5-0.8,1.1
					c-0.4,0.5-0.5,1-0.5,1c0.2-1,1.1-2.4,2.1-3.7c1.1-1.3,2.3-2.6,3.5-3.8c2.4-2.3,4.4-4.2,4.8-4.7l-0.5,0.3
					c0.7-0.8,1.3-1.3,2.1-2.1l-0.8,0.5c1.7-1.7,3-3.3,4.1-4.8c1-1.6,2.1-3,2.4-5.3c0.1-0.4,0-1.5-0.1-1.9l-0.1-0.3l0-0.1l-0.1-0.2
					l0-0.1l-0.1-0.1c-0.2-0.3-0.3-0.6-0.5-0.8c-0.8-1-1.7-1.7-2.7-2.1c-2-1-4.2-1.5-6.9-2c-2.9-0.4,1.6,0.3,1.6,0.5
					c-1.6-0.2-5.4-0.8-6.1-1c0.8,0.4,5.3,1,1.8,0.8c-2.4-0.5,1.6,0.5-2.6-0.1l-1.6-0.7c-2.4-0.2-0.5,0.3-4.2-0.1
					c-4.2-0.7,5.2,0.1-1.5-0.8c-1.7-0.2-3.5-0.2-5.6-0.5c-1-0.2-2.2-0.4-3.3-0.9c-1.1-0.5-1.9-1.5-1.8-2.9c0-1.3,0.1-1.8,0.1-1.9
					c0-0.1-0.2,0.1-0.3,0.4c-0.1,0.2-0.2,0.4-0.2,0c0.1-0.4,0.2-1.3,1-3.1c0,0-0.6,1.1-1,2.3c-0.2,0.6-0.4,1.2-0.4,1.7
					c-0.1,0.5-0.1,0.8-0.1,0.8c-0.1-0.7-0.1-0.8-0.1-1.2c0-0.4,0-1.1,0.7-2.8c0.6-1.1,1.7-2.9,2.6-4.5c-1.9,3.2-1.2,1.7-0.6,0.1
					c0.7-1.6,1.4-3.2-0.5-0.2l1.3-2.3c-0.2,0.3-0.3,0.3-0.2,0.2l1.6-2.8h0c-1.2,1.9-3.5,6-2.7,3.8l1.2-2.2l0.9-1.6h-0.7
					c-0.2,0.3-0.3,0.5-0.5,0.9C146.2,47.7,145.3,49.3,144.4,51z M170.9,167.2l-3.1,0.7l0.2-0.1l3.1-0.7L170.9,167.2z M112.2,247.7
					c0,0.7,0,1.4,0.1,2.1C112.2,248.5,112.2,248,112.2,247.7c0-1.1,0.1-2,0.3-1.6C112.4,248.8,112.2,247.1,112.2,247.7z
					 M112.3,242.3c-0.1,0.4-0.3,0.9-0.4,1.5c-0.2,1.1-0.2,2.2-0.2,2.2s0.1-0.5,0.1-1.1c0.1-0.5,0.2-1.1,0.2-1.1s-0.3,1.6-0.3,3.2
					c0,1.6,0.1,3.2,0.1,3.2c-0.3-1.8-0.5-3.9-0.3-5.5c0.1-1.7,0.7-2.9,1-3.1C112.6,241.7,112.4,241.9,112.3,242.3z M50.3,279.2
					c0,0-0.3-0.3-0.5-0.6c-0.3-0.3-0.6-0.6-0.6-0.6s0.6,0.5,1.3,1c0.6,0.5,1.2,1,1.2,1L50.3,279.2z M75.4,285.6
					c-0.1,0.5-0.2,0.9-0.2,0.9s0.1-0.7,0.2-1.3l0.1-1.3l0,0.8C75.6,284.7,75.5,285.1,75.4,285.6z M77,281.7
					c-0.1,0.5-0.3,1.9-0.3,1.4c0,0,0.1-0.9,0.3-1.9c0.1-0.9,0.2-1.9,0.2-1.9C77.2,280.1,76.7,282.8,77,281.7z M91.6,265.2
					c-1.2-0.7-3.1-1.5-4-1.7c0.5,0.3,2.4,1.2,3.1,1.6c-1.5-0.5-3.7-1.7-5.4-2.3c-1.8-0.6-2.9-0.6-2.1,0c-0.6-0.1-1.8-0.2-2.6,0.3
					c-0.7,0.4-1.2,1.1-0.8,0.4c0.3-0.3,0.5-0.6,1-0.9c0.4-0.2,0.9-0.4,1.4-0.4c1.1-0.1,2.3,0.2,3.5,0.5c2.4,0.7,4.5,1.7,5.8,2.2
					c0.2,0,0.5,0.1,1,0.4c-0.2-0.1-0.6-0.2-1-0.4C91.3,264.9,91.3,265,91.6,265.2c0.5,0.3,0.9,0.5,1,0.7
					C92.1,265.6,91.8,265.4,91.6,265.2z M115,257.3l-0.1-1.7C115.1,257.3,115.1,257.5,115,257.3l0.1,1.5
					C114.3,255.1,114.8,257,115,257.3z M114.4,256.3c-0.4-2.1-1.2-7.5-1.1-6.7C113.6,250,114.3,254.9,114.4,256.3z M116.6,238.8
					c-0.9,0.1-1.8,0.3-2.4,0.7c-0.3,0.2-0.5,0.3-0.7,0.5c-0.1,0.1-0.2,0.2-0.2,0.2s0.2-0.1,0.4-0.2c0.2-0.1,0.5-0.2,0.5-0.2
					c0,0-0.3,0.1-0.6,0.3c-0.3,0.2-0.6,0.4-0.5,0.4c0,0,0.3-0.4,0.3-0.4l-0.2,0.1c0,0,0.1-0.1,0.2-0.2c0.1-0.1,0.1-0.1,0.3-0.3
					c0.1-0.1,0.3-0.2,0.4-0.3c0.6-0.4,1.6-0.7,2.5-0.8c1.9-0.2,3.6,0.1,3.6,0.1S118.4,238.6,116.6,238.8z M119.1,239.4
					C119.1,239.4,119.1,239.4,119.1,239.4C119.1,239.4,119.1,239.4,119.1,239.4c0.2,0.1,1.2,0.3,2.5,0.6c1.6,0.3,3.6,0.9,5,1.3
					c-1-0.3-1.5-0.4-2.3-0.5C123.1,240.4,119.4,239.8,119.1,239.4z M125.1,241.3c-1.2-0.2-2.4-0.5-2.4-0.5c1.6,0.2,4.6,0.8,4.9,1
					C127.6,241.8,126.4,241.5,125.1,241.3z M129.7,241.3c-2.8-0.9-2.3-0.5-3.9-0.7l1-0.1c4.1,1.1,4.3,1.4,7.4,2.6
					C130.2,242.3,129.2,241.4,129.7,241.3z M135.3,243.5c-1.3-0.2-2.7-0.5-2.7-0.5c-0.5-0.1-1-0.2-1.7-0.3l1.7,0.3
					c2.1,0.3,2.6-0.1,5.4,0.9C138,243.9,136.6,243.8,135.3,243.5z M149.4,238c-0.2-1.8-0.6-3.2-0.7-4.1c0.2,0.8,0.2,0.6,0.3,0.6
					c0.1,0.1,0.4,0.4,0.7,2.5c0.4,1.8,0.2,4-0.9,5.2c-0.2,0.2-0.2,0.2-0.4,0.5c-0.1,0.1-0.2,0.1-0.3,0.2c-0.2,0.1-0.3,0.2-0.5,0.3
					c-0.3,0.1-0.4,0.1-0.2-0.1c0.7-0.4,1.5-1.3,1.7-2.3C149.5,239.8,149.4,238.9,149.4,238z M143.4,221.1l0.7,2l-1-2.8L143.4,221.1z
					 M143.6,208.2c-1.1,0.2-2.5,0.9-3.2,2c-0.1,0.2-0.3,0.6-0.4,0.9c-0.1,0.3-0.1,0.5-0.2,0.8c-0.1,0.5-0.1,1-0.2,1.6
					c0,0-0.1-0.8,0-1.7c0-0.4,0.2-0.8,0.3-1.1l0.2-0.5c-0.1,0.2-0.7,1-0.7,2.4c-0.1,1.3,0.3,2.9,0.7,4.3c-0.9-1.6-0.9-2-0.9-2.7
					c0-0.3,0-0.7,0-1.4c0-0.4,0-0.8,0.1-1.3c0.1-0.5,0.3-1.2,0.8-1.8c-0.6,0.7-0.8,1.4-0.9,2.1c-0.1,0.6-0.1,1.1-0.1,1.5
					c0,0.7,0,1.1,0,1.2c-0.1,0.2-0.4-0.6-0.6-0.7c0.1-0.4,0-1.3,0.3-2.4c0.1-0.3,0.2-0.6,0.3-0.9l0.2-0.4c0.1-0.1,0-0.1,0.1-0.2
					l0.2-0.2c0.4-0.5,0.9-0.9,1.4-1.2c1-0.5,2-0.7,2.5-0.8C144.1,207.7,144.2,207.8,143.6,208.2z M163.3,187.8l-0.9-1.4l1.9,2.2
					L163.3,187.8z M171.6,197.3c0,0-0.5-0.9-1.1-1.8c-0.6-0.9-1.2-1.7-1.2-1.7s0.7,0.9,1.3,1.8c0.7,0.9,1.2,1.9,1.2,1.9L171.6,197.3
					z M170.2,194.6c0.4,0.7,1.3,1.7,1.6,2.5c-2-2.6-1.6-2.6-2.6-4.1c-0.3-0.3-0.6-0.7-1-1.2c0.4,0.5,0.7,0.9,1,1.2
					C170.2,194.2,170.5,194.6,170.2,194.6z M167.6,188.6c0.3,0.3,0.6,0.7,0.9,1.1L167.6,188.6c-0.8-0.9-1.5-1.4-1.5-1.8L167.6,188.6
					z M167.4,191.5c-2.1-2.3-6.8-7.7-5-6.5C162.4,186,166.6,190.4,167.4,191.5z M159.3,178.4c0.4,0.9,0.7,1.3,1.1,1.9
					c-0.2-0.5-1-2.3-0.2-1.1c0.3,1,2.4,3.8,2.3,4C160.8,180.7,159.1,179.2,159.3,178.4z M175.1,167.7l-0.9,0l0.7-0.2l-3.1,0.7
					c3.9-1.4,7-1.7,9.1-2.4C179.2,166.5,174.1,167.4,175.1,167.7z M180.4,150.4c0.7,0.5,1.4,1.1,1.4,1.1s0.4,0.4,0.7,0.9
					c0.4,0.4,0.7,0.9,0.7,0.9s-1-1-2.1-2l-2.2-1.8L180.4,150.4z M175.9,146.2c0.2,0.1,0.3,0.3,0.5,0.4
					C176.1,146.4,176,146.3,175.9,146.2c-1.9-1.6-3-1.8-4.3-3.3C173.7,144,174.8,145.2,175.9,146.2z M170,142.1
					c-3.1-2.4,1.2,1.5-0.9,0l1.6,1.3c-2.6-1.7-1.8-1.7-3.1-2.9c-0.2-0.1-0.3-0.2-0.3-0.2c0.1,0.1,0.2,0.2,0.3,0.2
					c0.1,0.1,0.2,0.2,0.3,0.3c0.3,0.2,0.6,0.5,0.6,0.5c1.1,0.6-1.6-1.7-1.6-2.1C168,140.3,171.2,143,170,142.1z M170.5,129.6
					l1.3-0.8c0,0-0.6,0.4-1.2,0.7l-1.2,0.8l0.8-0.6c-0.1-0.1,0.3-0.5-0.4-0.1c-0.4,0.3-0.8,0.5-1.1,0.7c0.5-0.4,0.9-0.6,1.1-0.7
					c1.7-1.1,4-2.5,4.3-2.4C173.5,127.4,170.2,129.5,170.5,129.6z M178.3,126.3l-2.8,1.5l0.2-0.2l2.8-1.5L178.3,126.3z M173.4,126.1
					c-0.4,0,4.4-3.3,5.7-3.7C176.7,124,173.9,125.6,173.4,126.1z M187.5,115.9c-0.2,0.5-0.7,1.2-1.2,2c0,0-0.1,0.1-0.1,0.1
					c0,0,0.1-0.1,0.1-0.1c0.3-0.5-1.4,1-3.2,2.3l0.4-0.5c0.2-0.3,0.4-0.5,0.4-0.5c0.1,0.1,1.1-0.6,2-1.5c0.9-0.9,1.5-2,1.6-2.2
					C187.8,115.1,187.7,115.3,187.5,115.9z M163.5,101.6c0,0,1.1,0.6,2.3,1.2c1.1,0.5,2.3,1,2.3,1c-1.1,0.1-4.2-1.6-6.3-2.9
					C161.2,100.2,162.7,101.4,163.5,101.6z M162.8,92.1c1.2-1.9,1.5-2,2.6-3.1C165.1,89.4,163.8,91,162.8,92.1z M165.2,89.5
					c2.5-3,2.4-2.1,4.1-3.7C167.3,88.1,167.3,87.5,165.2,89.5z M173.1,77.8c0,0-0.6,0.5-1.2,1.1c-0.6,0.5-1.2,1.1-1.2,1.1
					C171.2,79.4,173.5,76.9,173.1,77.8z M175.4,75.9c-0.2,0.3-0.5,0.6-0.5,0.6l-0.4-0.2c0,0,0.3-0.3,0.7-0.5
					c0.3-0.3,0.7-0.6,0.7-0.6S175.7,75.6,175.4,75.9z M171.9,68.1c0.7,0.1,2.2,0.5,3.4,1.3c0.1,0,0.3,0.1,0.8,0.4
					c0.3,0.3,0.5,0.7,0.6,1.1c0.1,0.3,0.2,0.6,0.2,0.8c0,0.2,0,0.4,0.1,0.5l-0.1,0.3c0-0.7,0-1-0.1-1.5c-0.2-0.5-0.7-1.1-1.3-1.5
					c-0.3,0,0.2,0.4,0.6,1c0.4,0.5,0.3,1.4,0.2,1.6c0-0.3,0.1-0.3,0-0.8l0-0.3c0,0,0-0.1,0-0.1c-0.1-0.1-0.1-0.3-0.2-0.4
					c-0.3-0.5-0.9-1-1.8-1.3c0.2,0.2,0,0.1,0.9,0.7c0,0-0.5-0.3-1.1-0.6c-0.6-0.3-1.2-0.5-1.2-0.5C171.2,68.1,171.2,68,171.9,68.1z
					 M160.9,66.3c1.1,0.2,2.9,0.5,4.7,0.6c-0.3-0.3-1.5-0.3-2.6-0.4c0.8,0.1,2.1,0.1,3.7,0.4c-1.8,0.1-0.5,0.3-0.8,0.6
					C161.1,67,161.3,66.7,160.9,66.3c-0.6-0.1-1-0.3-1-0.4C160.5,66.1,160.7,66.2,160.9,66.3z M157.7,66l1.8,0.6l-2.1-0.2L157.7,66z
					 M155.4,64.8l1.6,0.3c0.8,0.2,0.3,0.2,0.5,0.4C155.6,65.2,153.2,64.6,155.4,64.8z"/>
				<path class="st1" d="M174.2,127.1c-0.4-0.1-2.6,1.3-4.3,2.4c0.7-0.4,0.3,0,0.4,0.1l-0.8,0.6l1.2-0.8c0.6-0.4,1.2-0.7,1.2-0.7
					l-1.3,0.8C170.2,129.5,173.5,127.4,174.2,127.1z"/>
				<path class="st1" d="M176.1,70.9L176.1,70.9C176.1,70.9,176.1,70.9,176.1,70.9z"/>
				<path class="st1" d="M174.5,76.3l0.4,0.2c0,0,0.2-0.3,0.5-0.6c0.3-0.3,0.5-0.6,0.5-0.6s-0.3,0.3-0.7,0.6
					C174.9,76.1,174.5,76.3,174.5,76.3z"/>
				<path class="st1" d="M186.3,117.9c0,0-0.1,0.1-0.1,0.1C186.2,117.9,186.3,117.9,186.3,117.9z"/>
				<polygon class="st1" points="167.8,168 170.9,167.2 171.1,167.1 168,167.9 				"/>
				<path class="st1" d="M111.9,250.2c0,0-0.1-1.6-0.1-3.2c0-1.6,0.3-3.2,0.3-3.2s-0.1,0.5-0.2,1.1c-0.1,0.5-0.1,1.1-0.1,1.1
					s0-1.1,0.2-2.2c0.1-0.5,0.2-1.1,0.4-1.5c0.1-0.4,0.3-0.6,0.3-0.6c-0.3,0.2-0.8,1.4-1,3.1C111.4,246.4,111.5,248.4,111.9,250.2z"
					/>
				<path class="st1" d="M165.6,135.6L165.6,135.6L165.6,135.6c0,0,0,0.1,0,0.2l0,0c0,0,0,0,0,0L165.6,135.6L165.6,135.6z"/>
				<path class="st1" d="M49.2,277.9c0,0,0.3,0.3,0.6,0.6c0.3,0.3,0.5,0.6,0.5,0.6l1.4,0.7c0,0-0.6-0.5-1.2-1
					C49.9,278.4,49.2,277.9,49.2,277.9z"/>
				<path class="st1" d="M161.1,96.7C161.1,96.7,161.1,96.7,161.1,96.7L161.1,96.7L161.1,96.7z"/>
				<path class="st1" d="M75.4,285.2c-0.1,0.7-0.2,1.3-0.2,1.3s0.1-0.5,0.2-0.9c0.1-0.5,0.2-0.9,0.2-0.9l0-0.8L75.4,285.2z"/>
				<path class="st1" d="M170.2,194.6c0.3,0,0-0.4-1-1.7c1,1.6,0.7,1.6,2.6,4.1C171.5,196.3,170.6,195.3,170.2,194.6z"/>
				<path class="st1" d="M161.2,96.8C161.2,96.8,161.2,96.9,161.2,96.8L161.2,96.8C161.2,96.9,161.2,96.8,161.2,96.8L161.2,96.8z"/>
				<path class="st1" d="M126.6,241.3c-1.4-0.4-3.4-0.9-5-1.3c-1.3-0.3-2.3-0.4-2.5-0.6c0.3,0.4,4,1,5.2,1.3
					C125,240.9,125.6,241,126.6,241.3z"/>
				<polygon class="st1" points="143.4,221.1 143,220.3 144,223.1 				"/>
				<polygon class="st1" points="163.3,187.8 164.3,188.6 162.4,186.5 				"/>
				<path class="st1" d="M143.6,207.7c-0.5,0-1.5,0.2-2.5,0.8c-0.5,0.3-1,0.6-1.4,1.2l-0.2,0.2c-0.1,0.2-0.1,0.2-0.1,0.2l-0.2,0.4
					c-0.1,0.3-0.2,0.6-0.3,0.9c-0.3,1.1-0.2,2-0.3,2.4c0.1,0.2,0.5,0.9,0.6,0.7c0.1-0.1,0.1-0.4,0-1.2c0-0.4,0-0.9,0.1-1.5
					c0.1-0.6,0.3-1.4,0.9-2.1c-0.5,0.6-0.7,1.2-0.8,1.8c-0.1,0.5-0.1,1-0.1,1.3c0,0.7,0,1.1,0,1.4c0,0.6,0,1,0.9,2.7
					c-0.5-1.4-0.8-3-0.7-4.3c0-1.3,0.6-2.1,0.7-2.4l-0.2,0.5c-0.1,0.3-0.2,0.6-0.3,1.1c-0.1,0.8,0,1.7,0,1.7
					c0.1-0.6,0.1-1.1,0.2-1.6c0-0.3,0.1-0.6,0.2-0.8c0.1-0.3,0.2-0.7,0.4-0.9c0.7-1.1,2-1.8,3.2-2
					C144.2,207.8,144.1,207.7,143.6,207.7z"/>
				<path class="st1" d="M126.9,240.5l-1,0.1c1.5,0.3,1-0.1,3.9,0.7c-0.5,0.1,0.4,1,4.6,1.7C131.2,241.9,131,241.6,126.9,240.5z"/>
				<path class="st1" d="M147.5,243.1c-0.2,0.2-0.1,0.2,0.2,0.1c0.2-0.1,0.3-0.2,0.5-0.3c0.1-0.1,0.2-0.1,0.3-0.2
					c0.3-0.3,0.3-0.3,0.4-0.5c1.1-1.2,1.3-3.4,0.9-5.2c-0.3-2.2-0.6-2.5-0.7-2.5c-0.1,0-0.2,0.2-0.3-0.6c0.1,0.9,0.5,2.3,0.7,4.1
					c0.1,0.9,0.1,1.8-0.2,2.8C148.9,241.8,148.1,242.7,147.5,243.1z"/>
			</g>
		</g>
		<g>
			<g>
				<path class="st1" d="M166.6,84.1c0.7-0.7,1.1-1.2,1.5-1.5C167.6,83.1,167.1,83.6,166.6,84.1"/>
			</g>
			<g>
				<path class="st1" d="M172,201.6c0.1,0.1,0.1,0.3,0.1,0.6C172,202.2,172.1,202.1,172,201.6"/>
			</g>
			<g>
				<path class="st1" d="M167.7,204.5c-0.1,0-0.2,0-0.3,0c-0.1,0-0.2,0-0.2,0L167.7,204.5z"/>
			</g>
			<g>
				<path class="st1" d="M24.3,301c-0.6-0.5-0.3-0.3,0.3,0c0.1,0.1,0.3,0.1,0.5,0.2c0.2,0,0.3,0.1,0.5,0.1l0.3,0c0,0,0.2,0,0.1,0
					l0.1,0c0.2,0,0.3,0,0.4-0.1c-0.2,0.1-0.4,0.1-0.6,0.2c-0.2,0-0.5,0.1-0.6,0C25.1,301.3,24.7,301.2,24.3,301"/>
			</g>
			<g>
				<path class="st1" d="M31.5,296.1c-0.4,0.7-1,1.6-1.8,2.7C30.2,298.2,30.6,297.5,31.5,296.1"/>
			</g>
			<g>
				<path class="st1" d="M25.9,301.7c0.9,0,1.7-0.5,2.3-1.1c0.6-0.6,1.1-1.2,1.5-1.8c-0.4,0.6-0.7,1-1.2,1.6
					C28,301,27.2,301.7,25.9,301.7"/>
			</g>
			<g>
				<path class="st1" d="M46.3,275.5c-0.7-0.4-1.9-0.9-3-0.8c-0.3,0-0.5,0-0.8,0.1c-0.2,0.1-0.4,0.1-0.5,0.2
					c-0.3,0.2-0.5,0.3-0.5,0.3c0.4-0.3,0.8-0.4,1.1-0.5c0.4-0.1,0.6-0.1,0.9-0.1c0.5,0,0.7,0,0.8,0c0.2,0-0.2-0.1-0.9-0.2
					c-0.7-0.1-1.7,0.2-2.5,0.8c-0.7,0.5-1.2,1-1.3,1.1c0.8-0.9,1.5-1.4,2.3-1.7c0.2,0,0.3-0.1,0.4-0.1l0.3-0.1l0.2,0
					c0.3,0,0.6,0,0.8,0C44.6,274.5,45.2,274.9,46.3,275.5"/>
			</g>
			<g>
				<path class="st1" d="M53.6,280.8c-0.5-0.5-1-0.9-1.5-1.2C52.7,280,53.2,280.4,53.6,280.8"/>
			</g>
			<g>
				<path class="st1" d="M55.7,282.4c1.7,1.6,2.2,2.4,2.9,3.2c-2.2-1.8-3.3-3.3-4.9-4.8C54.9,282,56.1,283.1,55.7,282.4"/>
			</g>
			<g>
				<path class="st1" d="M100.4,267.8c-0.5-0.3-1.6-0.9-1.6-1l3.5,1.8C103.7,269.4,101.2,268.2,100.4,267.8"/>
			</g>
			<g>
				<path class="st1" d="M112.7,271.2c0.4-0.5,0.5-0.9,0.6-1.2c0.1-0.3,0.1-0.4,0-0.5c0-0.2-0.1-0.2,0.1-0.9l0.4,0.2
					c0,0-0.2,0.7-0.4,1.3c-0.1,0.3-0.3,0.5-0.4,0.7C112.8,271.1,112.7,271.2,112.7,271.2"/>
			</g>
			<g>
				<path class="st1" d="M112.5,274.1c0,0-0.4,0.1-0.7,0.2c-0.4,0.1-0.6,0.1-0.6,0.1c0.4,0,1-0.2,1.5-0.4L112.5,274.1z"/>
			</g>
			<g>
				<path class="st1" d="M112.2,257l-0.1,2.2C111.8,256.6,112.2,256.5,112.2,257"/>
			</g>
			<g>
				<path class="st1" d="M110.6,244.7c0,0-0.1,0.5-0.1,1c0,0.5-0.1,1-0.1,1s-0.1-1.5,0.2-3.2c0.2-1.6,1.1-3.4,1.2-3.5
					c-0.1,0-0.8,1.3-1,2.4C110.6,243.6,110.6,244.7,110.6,244.7"/>
			</g>
			<g>
				<path class="st1" d="M123.3,238.2l0.5,0c0,0,1,0.2,2,0.4c1,0.2,2,0.5,2,0.5s-1.1-0.2-2.2-0.5L123.3,238.2z"/>
			</g>
			<g>
				<path class="st1" d="M184.4,161.7c0.4,0-0.6,0.9-2.2,1.6c-1.5,0.8-3.5,1.4-4.3,1.7c0.5-0.4,1.7-0.8,3-1.3
					C182.3,163.3,183.7,162.7,184.4,161.7"/>
			</g>
			<g>
				<path class="st1" d="M162.9,88.3c0,0-1.1,1.1-2,2.3c-1,1.2-1.8,2.7-1.8,2.7c1.2-2.2,1.5-2.4,1.7-2.7
					C161,90.3,161.2,90,162.9,88.3"/>
			</g>
		</g>
		<g>
			<path class="st1" d="M311.1,173.6c0.2-0.2,0.4-0.4,0.6-0.7C311.1,173.6,310.9,173.9,311.1,173.6"/>
		</g>
		<g>
			<g>
				<path class="st1" d="M310.1,173.5l2.5-2.9C311.3,172.5,311.4,172,310.1,173.5"/>
			</g>
		</g>
		<g>
			<polygon class="st1" points="311.3,172.7 311.3,173 309.9,174.5 			"/>
		</g>
		<g>
			<path class="st1" d="M188.2,197.2c0-0.4,0.1-0.6,0.2-0.5L188.2,197.2z"/>
		</g>
		<g>
			<path class="st1" d="M188.6,206.1c0.1,0.8,0.2,1.4,0.2,1.8C188.7,207.4,188.6,206.9,188.6,206.1"/>
		</g>
		<g>
			<path class="st1" d="M188.7,190.1c0-0.1-0.4,1.1-0.4,1.1C188.4,190.8,188.5,190.4,188.7,190.1"/>
		</g>
		<g>
			<path class="st1" d="M253.5,185.8c1.2,0.9,2.6,1.6,3.9,1.8c-1.7-0.2-2.4-0.7-2.9-1C254,186.3,253.8,186.1,253.5,185.8"/>
		</g>
		<g>
			<path class="st1" d="M161.7,215l-0.4,0.1C160.9,215,160.7,214.9,161.7,215"/>
		</g>
		<g>
			<path class="st1" d="M186.4,208.5c0.1,0,0.2,0,0.2,0.2c0,0.1,0,0.3,0,0.5L186.4,208.5z"/>
		</g>
		<g>
			<path class="st1" d="M192.8,188.9C192.8,188.9,192.8,188.9,192.8,188.9l1.2,0.4C193.4,189.2,193,189.1,192.8,188.9"/>
		</g>
		<g>
			<path class="st1" d="M150,222c0,0.6,0,1.2,0,1.9C149.7,222.5,149.9,221.7,150,222"/>
		</g>
		<g>
			<path class="st1" d="M188.8,208.1C188.8,208.1,188.8,208.1,188.8,208.1c0,0,0-0.2,0-0.2C188.8,208,188.8,208.1,188.8,208.1"/>
		</g>
		<g>
			<path class="st1" d="M185,195.6c0,0.7,0,1.4,0.1,2.1C184.9,196.8,184.9,196.1,185,195.6"/>
		</g>
		<g>
			<path class="st1" d="M253.5,185.8c-0.3-0.3-0.7-0.5-1-0.8C253,185.3,253.3,185.6,253.5,185.8"/>
		</g>
		<g>
			<path class="st1" d="M304.4,181.6c-0.9,0.9-1.3,0.9-1.5,1C303.5,182.2,304,181.8,304.4,181.6"/>
		</g>
		<g>
			<path class="st1" d="M111.9,345.7l0.1,0.3C111.9,345.9,111.9,345.8,111.9,345.7"/>
		</g>
		<g>
			<path class="st1" d="M128.2,313.1c-0.2-0.2-0.3-0.3-0.4-0.5C128.1,312.8,128.2,313,128.2,313.1"/>
		</g>
		<g>
			<path class="st1" d="M138.4,279.3l-0.2-0.1c0,0-0.3-0.5-0.7-1.1c-0.4-0.5-0.7-1.1-0.7-1.1l0.2,0.1l0.7,1.1
				C138.1,278.7,138.4,279.3,138.4,279.3 M116.4,307.9c2.8,2,2,2,3.6,3.3C117.8,309.8,118.4,309.6,116.4,307.9 M125.4,258.6
				c0.5,2,0.6,1.4,0.4,0.8c0-0.7-0.1-1.5,0.2-0.2c0,0-0.1-0.5-0.2-1c-0.1-0.5,0-1.1,0-1.1c-0.1,0.9,0.1,1.4,0.2,1.8
				c0.1,0.4,0.1,0.6,0.1,0.9c0,0.5,0,0.8,0.5,1.8c0,0-0.6-1.3-0.6-1.3c-0.3-0.5-0.2,0.1,0.1,0.8c0.3,0.7,0.7,1.5,0.7,1.7
				c-0.5-0.7-1.1-2-1.4-3.1C125.2,258.5,125.3,257.7,125.4,258.6 M114.1,305.5c1.6,1.4,1.8,1.5,2.8,2.5
				C116.5,307.8,115.1,306.6,114.1,305.5 M135,272.9c0-0.3,2.1,2.3,2.4,2.9c0.1-0.3-1.3-2.1-2.4-3.5c-0.1-0.2-0.4-0.5-0.7-0.9
				c0.2,0.3,0.5,0.6,0.7,0.9c0.4,0.6,0,0.3-0.1,0.3l-0.6-0.6l1.5,2L135,272.9z M138.8,252.4l-1.9-0.3c0,0-0.7,0.1-1.5,0.1l-1.5,0.2
				c0,0,1.2-0.1,2.4,0L138.8,252.4z M151.8,220.1c0.1-0.6,0.2-1,0.4-1.4c0.4-0.8,0.9-1,1.3-1.2c0.5-0.2,1.1-0.5,2.5-0.8
				c-0.7,0-1.8,0.4-2.5,0.8c0-0.1-0.1-0.1-0.3,0c-0.2,0.1-0.7,0.5-1,1.3C152,219,151.8,219.4,151.8,220.1 M152.3,220.7
				c-0.1,0.6,0.1,2.1,0.5,3.6c0.4,1.5,0.9,2.9,0.8,3.3C154.7,229.1,152.2,223.4,152.3,220.7 M141.8,286.1c-0.3,0.3,0,0.2,0.5-0.3
				c0.5-0.5,0.9-1.5,0.6-2.5c0,0,0.2,0.2,0.2,0.5c0.1,0.3,0.2,0.6,0.2,0.6c-0.1,0-0.2,0.2-0.3,0.6c-0.1,0.2-0.2,0.4-0.3,0.6
				c-0.2,0.2-0.3,0.4-0.5,0.6c-0.8,0.8-1.8,1.4-2,1.5C139.4,288,141,287.4,141.8,286.1 M127.8,332c-0.2,0.1,0.1-0.3-0.6,0l-1.2,0.6
				C124.6,333.7,126.4,332.8,127.8,332 M132.9,318.3c-0.4-0.4-0.8-0.7-1-0.8l-0.1-0.2C132.3,317.6,132.6,317.9,132.9,318.3
				c0.5,0.4,1,0.9,1.5,1.4c0.5,0.2-1.3-2.2-1.8-2.7c1,1,1.6,2,2.9,3.5c-0.1-0.2,0.1-0.1-0.6-1.1c0,0,0.4,0.5,0.8,1.1
				c0.2,0.3,0.4,0.6,0.5,0.8c0.1,0.2,0.2,0.4,0.2,0.4c0.3,0.8,0.2,1.4,0.2,1.5c-0.1,0.1-0.1-0.1-0.3-0.5c-0.3-0.8-1-2-1.9-3
				c-0.1,0-0.3-0.2-0.7-0.5C133.4,318.9,133.2,318.6,132.9,318.3 M129.7,331.1c0.5-0.3,0.7-0.3,0.9-0.3c0.9-0.5,2.2-1.3,3.3-2.5
				c-0.3,0-1.1,0.9-1.9,1.4c0.5-0.5,1.4-1.2,2.4-2.2c-0.9,1.4,0,0.6,0.1,0.9c-1.6,1.6-2.5,2.1-3,2.3c-0.5,0.2-0.7,0.1-0.9,0.1
				C130.1,331.1,129.8,331.2,129.7,331.1 M128.4,332.3l1.6-0.5l-1.5,1L128.4,332.3z M125.4,311.3c0.6,0.4,2.9,2.2,2.1,1.9
				L125.4,311.3z M128.5,314.8l1,0.9l-0.8-1.3L128.5,314.8z M116.3,296c0,0,1-0.5,2-0.8c1-0.4,2-0.6,2-0.6c-0.6,0.7-3.6,1.2-5.2,2.4
				C114.5,297.1,115.8,296.4,116.3,296 M138.4,274.8c0-0.4,3.3,3.4,3.5,4.7C140.6,277.4,138.9,275.2,138.4,274.8 M156.1,216.9
				c0,0-0.9,0.1-1.7,0.4c-0.4,0.2-0.8,0.4-1,0.7c-0.3,0.2-0.4,0.4-0.4,0.4c0,0,0.1-0.2,0.4-0.5c0.3-0.3,0.7-0.5,1.1-0.7
				c0.9-0.4,1.9-0.4,1.9-0.4L156.1,216.9z M186.8,220.3c-0.3,0.5-0.2,0.6,0.2,0.4l0.2-0.1c0,0,0,0,0.1-0.1l0.1-0.1
				c0.1-0.1,0.2-0.2,0.4-0.3c0.3-0.3,0.6-0.7,0.8-1.2c0.9-1.8,0.9-4.1,1.1-4.7c-0.1-0.1-0.3-0.8-0.5-0.6c-0.1,0.1-0.1,0.3-0.2,1
				c-0.1,0.6-0.1,1.6-0.4,3.1c0.3-2.6,0.3-3.4,0.4-3.9c0.1-0.5,0.1-0.9-0.4-2.4c0.1,1.2,0.2,2.6,0.1,3.7c-0.1,1.1-0.3,1.9-0.4,2.1
				c0.1,0,0.3-2.9,0.2-2.9c-0.3,0.8-0.2,1.9-0.4,3C188,218.5,187.7,219.7,186.8,220.3 M214.8,198.8l-0.6-0.5l0.5,0.3
				c0.3,0.2,0.5,0.3,0.5,0.3L214.8,198.8l0.1,0.1c0,0-1.5-0.5-2.8-1.2c-1.4-0.7-2.7-1.4-2.7-1.4s1.3,0.7,2.7,1.4
				C213.3,198.2,214.8,198.8,214.8,198.8 M222.9,197.2c0,0-0.2,0.3-0.6,0.7c-0.3,0.4-1,1-1.6,1.2c-0.8,0.3-1.5,0.3-2,0.3
				c-0.3,0-0.5,0-0.6-0.1c-0.1,0-0.2,0-0.2,0s0.4,0.1,0.9,0.2c0.5,0.1,1,0,1,0c0,0-0.2,0-0.6,0.1c-0.4,0-0.8,0-1.3-0.1
				c-0.9-0.1-1.8-0.5-1.8-0.5c0.2,0.2,1.2,0.7,2.6,0.8c0.7,0.1,1.7-0.1,2.5-0.6c0.3-0.2,0.8-0.6,1-0.9
				C222.5,197.9,222.7,197.6,222.9,197.2 M222.3,197.2c-0.6,0.9-1.1,1.2-1.3,1.3c-0.8,0.5-1.6,0.4-1.3,0.3c0.5-0.1,0.8-0.2,1-0.3
				c0.2-0.1,0.2-0.1,0.2,0c0,0.1-0.1,0.2,0.1,0.1C221.6,198.2,222,197.7,222.3,197.2 M238.4,171.8c0.2,0,0.2-0.1,0-0.3
				c-0.3-0.3-0.6-0.6-0.7-0.7c0.3,0.2,0.6,0.5,0.7,0.7c0.9,0.8,2.2,1.9,2.9,2.4c-0.2-0.4-1.6-1.6-2.1-2.1c2.4,1.4,6,6.4,5.5,4.4
				c0.7,0.9,3.4,3.7,2.3,2.9C244.7,177,240.4,173,238.4,171.8c-0.1,0-0.4-0.2-0.8-0.5C237.7,171.4,238,171.5,238.4,171.8
				 M262.5,182.4c0,0-0.2,0.3-0.4,0.7c-0.2,0.3-0.4,0.6-0.4,0.6l-0.3,0.6c0,0,0.3-0.5,0.6-0.9C262.3,182.9,262.5,182.4,262.5,182.4
				 M277.1,159.3c0,0-0.4,0-0.8,0l-0.7,0.1c0,0,0.6,0,1.4,0.2c0.7,0.2,1.3,0.6,1.3,0.6C278.4,160.2,277.2,159.3,277.1,159.3
				 M223.1,191.5c-0.2,0.9-0.5,2.4-0.9,3.6c-0.4,1.2-0.9,1.9-0.8,1.6c0-0.2,0.5-1.1,0.8-2.2C222.6,193.4,222.9,192.1,223.1,191.5
				 M204.2,191.6l3.7,2.1C206.7,193.1,204.3,191.9,204.2,191.6 M222.9,190.5l-0.4,1.4C222.7,190.6,222.8,190.4,222.9,190.5l0.3-1.2
				C222.8,192.5,222.9,190.9,222.9,190.5 M201.6,190.1l-1.4-0.6c-1.7-0.6-2.2-0.4-4.3-1.8c0,0,1.1,0.4,2.2,0.9
				c1.1,0.5,2.1,0.9,2.1,0.9C200.7,189.6,201.1,189.8,201.6,190.1 M205.3,193.1c-1.2-0.6-0.9-0.1-3-1.5c0.5,0-0.1-1-3.4-2.5
				c2.3,1.6,2.4,1.9,5.5,3.9L205.3,193.1z M204.9,192.3c2.1,1.4,5.9,3.7,5.5,3.7c0.3-0.3-2.8-2.2-3.7-2.7
				C206,193,205.6,192.8,204.9,192.3 M152.1,251.5c0.9,0,2,0,3.2-0.1c1.2-0.1,2.8-0.4,3.9-1.5c0,0-0.4,0.3-1,0.6
				c-0.6,0.2-1.2,0.4-1.2,0.4s0.6-0.2,0.6-0.2c0,0-0.7,0-0.7,0c0.4,0.2-0.3,0.5-1.5,0.7C154.4,251.5,152.9,251.5,152.1,251.5
				 M185.5,195.5c0.1-0.7,0.2-2,0.4-3.5c0.2-1.4,0.7-3.2,1.9-4.2c0.3-0.4-0.4-0.2-1.2,0.8c-0.8,1-1.2,2.5-1.3,4.1
				C184.9,196.3,185.7,194.1,185.5,195.5 M186.6,207.3l0.1,0.7l-0.2-2.5L186.6,207.3z M152.8,229.1c-0.2,0.2,0.9,3.1,1.2,4
				c0.6,1.2,0.1-0.6,0-1.1c0.3,0.6,0.5,1,0.8,1.9C155,233.2,153.5,231.8,152.8,229.1 M129.8,252.5c0.2,0,0.4-0.1,0.6-0.1
				C130.2,252.4,130,252.4,129.8,252.5c-1.2,0.3-2,0.7-2.7,1.4c-0.3,0.2-0.8,0.8-1.1,1.1c-0.1,0.1-0.2,0.3-0.4,0.4
				c-0.2,0.3-0.3,0.6-0.5,1c0.1-0.4,0.1-0.7,0.4-1.3c0.1-0.3,0.1-0.3,0.4-0.7c0.2-0.3,0.6-0.6,0.8-0.8c0.2-0.2,0.5-0.3,0.7-0.4
				C128.4,252.7,129.2,252.6,129.8,252.5 M160.4,250.5c0,0,0.1-0.1,0.4-0.4c0.1-0.2,0.3-0.4,0.5-0.9c0.2-0.4,0.3-0.8,0.3-1.1
				c0.1-0.3,0.1-0.5,0.1-0.5l0-0.3c0,0,0,0.7-0.3,1.5c-0.1,0.2-0.1,0.4-0.2,0.6c-0.1,0.1-0.2,0.3-0.2,0.4c0,0.1-0.1,0.1-0.1,0.2l0,0
				c-0.1,0.1,0,0-0.1,0.1l0,0.1c-0.1,0.1-0.1,0.1-0.1,0.1L160.4,250.5z M154,226.4l-0.2-1.4l-0.5-0.9c0,0,0.2,0.6,0.4,1.2L154,226.4
				z M260.1,184.3c0,0-0.5,0.5-1,0.8c-0.1,0-0.2,0.1-0.3,0.1c-0.1,0.1-0.3,0.1-0.4,0.1c-0.1,0-0.1,0-0.2,0.1l0,0h0
				c0.2-0.1,0.1,0,0.1,0h0h0h0c0,0,0,0,0,0l-0.1,0c-0.1,0-0.1,0-0.1,0s0.2,0,0.1,0c0.1,0,0.3-0.1,0.4-0.1c0.3-0.1,0.3-0.2,0.5-0.2
				c0.3-0.2,0.5-0.4,0.2-0.3C259.7,184.6,260.3,183.9,260.1,184.3 M150.8,224.9c0,0-0.1-0.5-0.2-1l-0.2-1.1
				c-0.1-0.5-0.2-0.9-0.1-1.5c0,0,0.1,1.5,0.1,1.5C150.6,223.9,150.9,224.6,150.8,224.9 M132.1,288.5c-2.9,1-6.1,1.4-8.8,2.1l1-0.1
				l-2.7,0.6l0.1,0.2c-2.2,0.6-4.7,1.5-6.9,2.7c-1.1,0.6-2.1,1.4-2.9,2.3c-0.4,0.4-0.8,1.2-1.1,1.7c-0.1,0.1-0.1,0.3-0.2,0.4
				l-0.1,0.2l-0.1,0.5c0,0,0-0.1,0.1-0.1l0-0.1l0,0l0,0l0,0l0,0l0.1-0.3l0,0l0.1-0.1c0.1-0.1,0.3-0.2,0.3-0.2s0,0.1-0.1,0.2
				c0,0,0,0.1,0,0.1l0,0.1l-0.1,0.3l0,0.1c0,0.2,0,0.3-0.1,0.5c-0.1,0.8,0,1.7,0.3,2.5c0.3,0.8,0.6,1.5,0.9,2
				c0.3,0.5,0.5,0.8,0.5,0.8s-0.4-0.7-0.8-1.5c-0.2-0.4-0.4-0.8-0.5-1.2c-0.1-0.4-0.2-0.6-0.2-0.6c0.6,1.9,1.8,3.2,2.9,4.5
				c1.2,1.2,2.4,2.3,3.5,3.3c2.3,1.9,4.1,3.3,4.6,3.7l-0.3-0.4c0.8,0.5,1.3,1,2,1.5l-0.4-0.6c3.2,2.4,5.3,3.8,7.3,5.5
				c1,0.8,1.9,1.7,2.7,2.8c0.2,0.3,0.4,0.6,0.5,0.8l0.2,0.4c0,0.1,0,0.2,0.1,0.2c0,0.2,0,0.5,0,0.7v0c0-0.3,0-0.1,0-0.2l0,0l0,0l0,0
				l0,0l0,0.1c0,0.1,0,0.1,0,0.2c-0.1,0.3-0.2,0.6-0.5,0.9c-0.5,0.8-0.4,0.6,0,0.2c0.4-0.4,0.6-0.9,0.7-0.9c0,0.4-0.5,1.2-1.1,1.8
				c-0.7,0.6-1.4,1.1-1.7,1.3c0.8-0.1,3.1-2.6,1.5-0.6c-1.6,1.1,1.3-0.6-1.4,1.6l-1.4,0.4c-1.6,1.2-0.1,0.5-2.8,2.2
				c-3.2,1.7,3.5-2.7-1.5,0.2c-2.5,1.5-4.8,3.9-9.8,6.8c-2,1.6-1.3,1.3-0.9,1.2c0.2-0.1,0.4-0.1,0.1,0.1c-0.2,0.2-0.9,0.7-2.2,1.8
				c0,0,0.8-0.7,1.7-1.3c0.9-0.6,1.8-1.2,1.8-1.2c-0.8,0.8-0.2,0.5-2.5,2.2c-0.8,0.5-2.3,1.5-2.9,3.1c0.7-1.4,1.2-1.6,1.1-1.5
				c0,0.1-0.4,0.7-0.6,1.4c-0.1,0.3-0.1,0.6-0.1,0.8c0,0.3,0.1,0.5,0.1,0.6c0,0.1,0.1,0.1,0.1-0.2c0-0.1,0-0.4,0.1-0.5
				c0.1-0.1,0.1-0.3,0.3-0.6c0,0,0,0.1-0.1,0.2c0,0.1-0.1,0.3-0.1,0.4c0,0.1,0,0.3,0,0.4l0,0.2c0,0,0,0.2,0,0l0,0.1
				c0,0.1,0,0.2,0,0.2c0-0.2,0-0.2,0.1-0.1c0,0,0.1,0.4,0.4,0.9c0.3,0.5,0.8,0.9,0.8,0.9c-0.6-0.5-1.3-1.6-1.1-2.1
				c0-0.1,0-0.3,0-0.4c0,0,0.1-0.1,0.1-0.1c0-0.1,0.1-0.1,0.1-0.1c0.1-0.1,0.1,0.1,0.2,0.2l0,0.1c0,0,0,0.3,0,0.4
				c0,0.1,0,0.4,0.2,0.6c0.3,0.5,1,1.1,1,1.1c-0.5-0.8,0.5-0.1,0.5-0.3c0,0-0.5-0.5-0.8-1c-0.1-0.1-0.1-0.2-0.1-0.3c0,0,0-0.1,0-0.1
				l0,0v0c0-0.1,0,0.5,0,0.3v0l0,0l0,0l0-0.1l0-0.3c0-0.3,0.1-0.2,0.1-0.2c0,0,0,0,0.1-0.1c0.1-0.1,0.2-0.3,0.3-0.5
				c0.6-0.8,1.7-1.7,2.6-2.3c0.9-0.6,1.5-1,1.5-1c-0.5,0.1-1.9,1-1.5,0.5c2.4-1.9,2.2-1.2,4.7-3l-1.3,0.5c0.2-0.1,0.6-0.3,0.1,0.1
				c-0.8,0.7-1.3,0.8-1.4,0.7c0.7-0.8,3.5-2.3,4.4-2.5c3.5-2,0.5-0.8,1.2-1.3c2-0.7,5.9-3.4,8.2-4.8c0,0-0.4,0.2-0.8,0.4
				c-0.4,0.2-0.8,0.3-0.8,0.3c2.4-2,4.9-3.6,6.1-5.8c0,0-0.2,0.2-0.3,0.3c-0.2,0.2-0.3,0.3-0.3,0.3c0.2-0.3,0.3-0.6,0.5-0.9
				c0.1-0.3,0.2-0.6,0.3-0.9l0.1-0.5l0-0.2l0-0.1l0,0v-0.2l0,0c0-0.2-0.1-0.4-0.1-0.7c-0.3-1.4-0.8-2-1.3-2.7c-1-1.3-2-2.3-2.9-3.8
				l0.2,0.4c-1.4-1.2-3.6-2.8-4.8-4c-0.1,0.1-0.4,0-1-0.4c-0.6-0.8-2.2-1.7-4.3-3.2c1.3,1.1,0.6,1.1,2,2.3c-3.5-2-2.7-2.5-5.3-4.6
				c-1.7-1.1,1.2,1.3,1.6,1.7c-2-1.7-4.2-3.1-5.9-4.8c-0.9-0.8-1.6-1.7-2-2.7c-0.1-0.2-0.1-0.5-0.2-0.7c0-0.2,0-0.5,0-0.7
				c0-0.2,0.1-0.5,0.1-0.6c0.1-0.2,0.2-0.4,0.3-0.6c0,0,0,0.1-0.1,0.3c0,0.1,0,0.2-0.1,0.4c0,0,0,0.2,0,0.3c0,0.5,0.2,0.9,0.2,0.9
				c-0.1-0.9,0.1-1.3,0.3-1.8c0.2-0.3,0.2-0.4,0.2-0.3c-0.1,0.2-0.2,0.3-0.3,0.4c-0.1,0.1-0.1,0.2-0.2,0.3c0.2-1.2,1.4-2.1,2.5-2.7
				c1.1-0.6,2.2-1,3.4-1.3c2.3-0.6,4.7-1.1,7.7-2c-0.5,0-1.4,0.2-1.4,0c2.8-0.9,2.9,0.1,7.4-1.5l-0.9,0.1c1.5-0.5,2.7-0.6,2.5-0.5
				c-0.1-0.4,2.4-1,5.1-2.3c1.3-0.7,2.8-1.6,3.6-3.2c0.4-0.8,0.4-1.5,0.3-2.3c-0.1-0.7-0.4-1.2-0.6-1.5c-0.2-1.2-1.1-3.4-2.3-5.2
				c-1.2-1.9-2.5-3.6-3.3-4.3c-2.1-2,1.2,2.3,0.3,1.7c-1.4-1.8-1.9-2.9-4.1-5.4c0.3-0.3,4.8,4.6,1-0.4l-0.7-0.5
				c0.4,0.5,1.1,1.1,1.6,1.9c1,1.6-0.9-0.7-1.2-0.9c0,0-1-1.3-2.1-2.7c-1-1.3-1.9-2.7-1.9-2.7c0-0.6,2.3,2.6,2.7,2.9
				c-1.6-2.1-3.6-4.3-4.7-6.7c-0.5-1.2-0.8-2.4-0.1-3.3c0.5-0.8,1.8-1.3,2.9-1.6l-0.5,0c2.9-0.6,3.9-0.7,4.6-1
				c0.7-0.2,1.3-0.4,3.9-0.1c2.7-0.2-1-0.4,3.1-0.5c1.1,0,0.5,0.2,0.3,0.2c5,0.1,2.2-0.4,6.8-0.1l-1-0.4c2.7,0.1,5.5,0.2,8.3-0.2
				c1.4-0.2,2.8-0.6,4-1.6c0.1-0.1,0.3-0.3,0.4-0.4c0.1-0.1,0.1-0.1,0.2-0.3l0.1-0.2c0.1-0.1,0.2-0.3,0.2-0.4l0.2-0.6
				c0.2-0.8,0.2-1.4,0.2-2.1c-0.2,0.2-0.2,1-0.5,2c-0.3,1-1.2,1.8-1.8,2c0.7-0.4,1.4-1.1,1.7-2.1c0.3-0.9,0.3-1.9,0.2-2.9
				c-0.2-1.9-0.8-3.8-1.5-5.5c-1.4-3.6-3-6.9-4-9.7c1,1.5-0.5-2.8,1.2,0.5c0,1.1,1,2.6,1.7,4.5c-0.2-1.7-1.8-4.8-3-7.6
				c-1.3-2.8-2.1-5.4-1.7-5.9c0,0-0.4-0.7-0.4-0.7c0-0.4,0.1-1.1,0.2-1.4c0.1-0.3,0.2-0.4,0.2,0.1c0,0,0-0.3,0.1-0.6
				c0.1-0.1,0.1-0.3,0.2-0.5l0.1-0.1l0,0v0l0,0c-0.1,0.1,0.1-0.1-0.1,0.1l0,0l0,0l0.1-0.1l0.1-0.1c0.1-0.1,0.3-0.3,0.4-0.3
				c0.1,0,0.1-0.1,0.2-0.1c0.1-0.1,0.2-0.1,0.4-0.2c0.3-0.1,0.5-0.2,0.8-0.2c0.5-0.1,0.8-0.1,0.8-0.1c-0.5-0.1-1.1-0.1-1.7,0
				l-0.4,0.1c-0.1,0-0.2,0.1-0.3,0.1c-0.1,0-0.3,0.2-0.5,0.3c0,0-0.2,0.2-0.2,0.2c-0.7,0.9-0.7,2.5-0.4,3.1c0,0.9-0.2,0.3-0.4-0.4
				c-0.1-0.6-0.2-1.3-0.4-0.5c0.1-1,0.3-1.6,0.5-2c0.1-0.4,0.3-0.7,0.4-0.8c0.1-0.1,0.2-0.3,0.3-0.4c0.1-0.1,0.3-0.2,0.5-0.4
				c0.4-0.2,1.1-0.5,2.2-0.6c-0.9,0.4,0.1,0.3,1.4,0.5c1.3,0.2,2.8,0.5,2.7,0.6c1.4,0.1,4.5,1,5.7,1.5c2.5,0.6,8.4,1.8,12.6,2.7
				c-1.6-0.4-4-1.2-3.8-1.4c2,0.6,4.3,1,4.7,0.7c-3.6-0.9-4.2-0.9-4.7-0.8c-0.5,0.1-1,0.3-4.2-0.7c-1.5-0.8-3.2-1.4-6.5-2.2
				c1.6,0.1,0.9-0.1,1.6-0.3c3.9,1.7,10.4,3,15.8,3.8c1.2,0.2,1.3,0.4,1.8,0.5c0.3,0.1,0.6,0.1,1.3,0.1c0.6-0.1,1.8-0.2,3-1.4
				c0,0,0,0.1-0.1,0.1c0,0-0.1,0.1-0.1,0.2c-0.2,0.2-0.2,0.2-0.4,0.3c-0.4,0.4-1.1,0.7-1.7,0.9c-1.3,0.4-2.5,0.5-2.5,0.5
				c1.4-0.1,2.2-0.3,2.6-0.4c0.5-0.1,0.6-0.2,0.8-0.2c0.1,0,0.2,0,0.6-0.1c0.2-0.1,0.5-0.2,0.8-0.5c0.1-0.1,0.3-0.3,0.5-0.5
				c0.1-0.1,0.4-0.5,0.6-0.8c0,0-0.1,0.1-0.3,0.3c-0.1,0.1-0.2,0.2-0.3,0.3c-0.1,0.1-0.2,0.1-0.2,0.2c-0.1,0.1-0.2,0.1-0.2,0.2
				l-0.1,0l0,0l-0.1,0.1l0,0l0,0l0,0c-0.1,0-0.1,0.1-0.2,0.1c-0.2,0.1-0.3,0.2-0.3,0.2c1.4-1,1.9-2.2,2.1-3c0.3-0.8,0.5-1.4,0.7-2.2
				c0,0-0.2,0.6-0.4,1.1c-0.1,0.3-0.2,0.6-0.4,0.8c-0.1,0.2-0.2,0.3-0.2,0.3c0.5-1.5,0.5-4.1,0.7-4.2c-0.1-0.4-0.2-0.5-0.3-0.5
				c0.1-0.3,0.1-1,0-2.5c0,0.9,0.1,1.6-0.1,1.6c-0.1-3.1-0.4-3.4-0.5-3.4c-0.1,0-0.2,0.2-0.4-1.7c0,0.6-0.3-0.4-0.5-1.7
				c0.7,0-0.3-7.3,0-9.2l0,0c0,0,0-1.2,0-2.4c0-1.2,0.2-2.3,0.2-2.3c-0.1,0.9-0.3-0.1-0.1-1.4l0,0.2c0.1-0.6-0.2-0.3-0.3-0.3
				c-0.1,0-0.1-0.1-0.1-0.4c0.1-0.3,0.2-0.9,0.9-1.6c0,0,0.1-0.1,0.2-0.2c0,0,0.2-0.1,0.2-0.1c0.1-0.1,0.3-0.1,0.4-0.2
				c0.3-0.1,0.4,0,0.6-0.1c0.2,0,0.3,0,0.3,0c-0.3,0,0-0.1,0.2-0.2c0,0,0.5,0,1.1,0.2c0.6,0.1,1.1,0.3,1.1,0.3c1.9,0.2,3.5,1,5.2,2
				c1.7,1,3.3,2.1,5.4,3.1c-1.2-0.6-2.9-1.6-2.1-1.4c0.8,0.4,2,1.1,2.5,1.5l-0.2-0.2l3.8,2.3c1.9,1.2,3.9,2.2,3.9,2.2
				c-0.6-0.5-5-2.8-2.9-2c1.3,0.3,3.4,1.8,5,2.4c-0.3,0.1-3.1-1-0.3,0.3c0.4,0.1,3.2,0.8,2,0.3c0.7,0.3,1.6,0.6,2.6,0.7
				c1,0.1,2,0.3,3.4-0.3l0.6-0.3c0.3-0.2,0.5-0.4,0.8-0.6c0.4-0.4,0.7-0.8,1-1.2c0.6-0.8,0.9-1.6,1.2-2.3c0.2-0.9-0.3,0.4-0.5,0.9
				l0,0.2c-0.5,0.9-0.6,0.9-0.9,1.2c-0.1,0.1-0.2,0.3-0.6,0.7c-0.2,0.3-0.9,1.1-1.8,1.5c-0.1-0.1-0.1-0.1,0.2-0.3
				c0.1-0.1,0.2-0.2,0.4-0.4c0.5-0.5,1.2-1.1,1.6-2c1-1.6,1.6-3.8,1.8-5.4c0,0-0.3,1.2-0.8,2.5c-0.4,1.2-1.1,2.4-1.1,2.4
				c0.8-2.1,1.1-4.4,1.5-6.7c0.3-2.4,0.6-4.8,1-7.3c0.3-2.4,0.7-4.9,1.3-7.2c0.6-2.2,1.3-4.5,2.6-5.8c-1.3,1.7-1.9,3.7-1.4,3.6
				c0.9-2.3,1.6-3,2.2-3.4c0.3-0.2,0.6-0.3,1.2-0.4c0.3,0,1.2,0.1,2.2,0.6c0,0-0.3-0.2-0.3-0.2c2.3,0.7,4.8,3.5,6.4,4.3
				c-0.7-1-3-2.2-2.8-2.6c0,0,1.3,1,2.5,2c1.2,1.1,2.4,2.2,2.4,2.2c-1.3-1.6-4.8-4.4-6.8-5.6c-0.8-0.4,0,0,0.8,0.6
				c0.8,0.6,1.6,1.4,1.2,1.2c-2.3-1.8-3.9-2.6-5.1-2.9c-1.1-0.3-2.2-0.1-3.2,1c-0.6,0.6-0.4,0,0.2-0.8c0.3-0.4,0.9-0.8,1.4-1
				c0.3-0.1,0.5-0.1,0.8-0.2c0.2,0,0.4,0,0.6,0c2,0.4,3.9,1.9,5.9,3.5c2,1.7,4.1,3.7,6.4,5.6l2.7,2c1,1.1,1.1,1.6,1.5,2.3
				c0.4,0.6,1.1,1.5,3.3,3.1l-1.1-1.2c1,0.7,1.7,1.1,2.2,1.4c-1.8-1.5-3.5-3.4-5-4.9c1.3,0.8,2.9,2.3,4.7,3.9c0.9,0.8,1.9,1.5,3,2.1
				c1.1,0.6,2.3,1.1,3.6,0.8c-0.1,0-0.7,0.1-1.1,0c-0.5-0.1-1-0.2-1.2-0.4c0.8,0.2,1.7,0.3,2.5,0c0.8-0.3,1.5-0.8,2.1-1.4
				c1.2-1.2,2.1-2.7,2.9-4.1c1.6-2.9,2.8-5.7,3.8-8.1c0.6-2.1-1.7,4-1.7,2.8c1.1-2.5,1.9-5.5,2.6-6c-1,0.9,2.5-5.8-0.1-1.2
				c0.9-2.3,2-4.6,3.6-6.7c0.8-1,2-1.9,3.4-2c1.4,0,2.7,0.6,3.7,1.5c2,1.7,3.5,3.9,4.9,6c1.4,2.2,2.7,4.4,4,6.5
				c-0.1-0.5,0-0.6,0.3-0.3c-1.8-2.8-4.4-7.1-5.4-8.7c1.6,1.6,2.8,4.5,3.2,4.9c-0.5-1-1.8-2.9-1.6-3.1c1.9,2.2,2.4,3.8,3.5,5.6
				l-0.7-0.9c1.6,2.8,1.9,3.6,2.3,4.5c0.4,0.8,0.8,1.8,3,4.4c1.9,1.7,0.2-0.2,0.5-0.5c0.4,0.7,1.6,1.9,2.9,2.9
				c0.7,0.5,1.4,0.9,2,1.1c0.3,0.1,0.7,0.2,0.9,0.2c0.3,0,0.6,0,0.8,0.1c0,0-0.3,0-0.6,0.1c-0.2,0-0.4,0-0.6,0
				c-0.2,0-0.5-0.1-0.7-0.2c-0.9-0.3-1.7-0.9-1.7-0.9c1.1,0.9,2.4,1.5,3.7,1.2c1.2-0.2,2.3-0.8,3.1-1.4c-0.2,0-0.4,0.1-0.9,0.4
				c2-1,4-3.3,4.9-3.9l0.1-0.8c-0.4,0.6-1.2,1.6-2.1,2.5c-0.5,0.4-0.9,0.8-1.3,1.1c-0.4,0.3-0.7,0.5-0.9,0.5
				c0.1-0.3,0.9-0.9,1.8-1.8c0.9-0.9,1.9-1.9,2.5-2.6c-2.6,2.9-4.3,4-5.9,4.7c-0.4,0.2-0.7,0.2-1.1,0.3c-0.3,0.1-1.1,0.1-1.3,0.1
				c-0.8-0.1-1.8-0.5-3-1.5c0,0,0.7,0.8,0.7,0.8c-1.7-1-3-2.7-4.1-4.4c-1.1-1.7-2.1-3.4-3.1-4.9c0.6,0.8,0.9,0.9,0.7,0.5
				c-2.4-3.3-4.4-6.7-7.1-10c-1.4-1.6-2.8-3.4-5.3-4.3c-0.3-0.1-0.7-0.2-1-0.3c-0.4-0.1-0.6,0-0.9-0.1c-0.9,0.1-1.5,0.3-2.1,0.6
				c-1.2,0.7-2,1.7-2.6,2.7c0,0-0.5,0.5-1,1.1l-0.9,1.2l0.2,0.3c-1.8,4.2-0.9,0.7-2,3.4c0.4-1,0.4-0.8,0.6-1c-2.4,4.8-0.8,2.8-2,5.5
				c0.8-1.2,2.2-5.2,2.1-3.8c-1.2,2.3-2.4,5.5-3.5,8c-1.1,2.5-2.2,4.4-2.7,4.5c-0.5,1-1.1,2-1.8,2.8c-0.3,0.4-0.8,0.7-1,0.8
				c0,0-0.2,0.1-0.4,0.1l-0.2,0.1l-0.1,0l0,0l0,0c-0.1,0,0.2,0,0.1,0h0l-0.1,0c-0.2,0-0.4,0-0.6,0c-0.9-0.1-2-0.6-3-1.2
				c-1-0.6-2-1.4-3-2.2c-3.9-3.3-7.3-7-10.4-9.7c-1-0.6,0.5,0.5,0.1,0.3c-1.1-1.2-3.3-3-5.5-4.2c-1.1-0.6-2.3-1-3.3-1.2
				c-0.2,0-0.5-0.1-0.7-0.1c-0.2,0-0.5,0-0.6,0c-0.4,0-0.5,0-0.5-0.1c-0.2,0.1-0.4,0.1-0.5,0.2l-0.2,0.1l-0.1,0l-0.2,0.1l-0.3,0.2
				c-0.4,0.2-0.6,0.5-0.8,0.7c-0.4,0.4-0.5,0.7-0.7,1c-1.8,1.8-2.5,4.5-3.1,7.1l0.3-1c0.1-0.5,0.3-1,0.3-1l0,0.2
				c0,0-0.2,0.7-0.4,1.4l-0.3,1.4l0-0.1c-0.6,3.3-0.9,6.8-1.4,10.2c-0.5,3.3-1.1,6.7-2.4,8.7c1.4-2.5,0.1,0.9,0.8-0.3
				c-0.2,0.3-0.4,0.6-0.7,0.9c-0.3,0.3-0.6,0.6-0.7,0.6c-0.1,0.1-0.3,0.1-0.4,0.2l-0.2,0.1l0,0l0,0c0.3-0.2,0.1,0,0.1-0.1h0l0,0l0,0
				l-0.1,0c-0.1,0-0.3,0.1-0.5,0.1c-0.4,0-1,0-1.6-0.2c-2.4-0.5-5.3-2-7.9-3.3c0,0.1-0.5,0,0.1,0.4l-2.8-1.8l0.3,0.4
				c-5.4-2.7-10.7-7-15.8-7.2c1.5,0.2,2.1,0.5,2.5,0.6c0.3,0.2,0.4,0.3,0.5,0.4c-1.1-0.4-2.3-0.7-3.6-0.7c-0.3,0-0.7,0-1,0.1
				c-0.4,0.1-0.9,0.2-1.2,0.3l-0.4,0.2l-0.2,0.1l-0.2,0.1l0,0l-0.1,0l-0.1,0.1c-0.3,0.2-0.6,0.5-0.9,0.8c-1,1.2-1.4,2.6-1.6,3.9
				c-0.2,1.3-0.3,2.6-0.2,3.9c0-0.3,0.1-0.5,0.1-0.5c0.1,1.4,0.1,3,0.2,4.4l0.3,0.2c0.2,2.6,0.9,5.9,1,9c0.2,0.6,0.4,2.4,0.4,4.5
				c0,2-0.4,4.4-0.8,5.2c-0.1,0.1,0,0.1,0.2-0.2c0.1-0.1,0.2-0.2,0.2-0.1c0,0.1,0,0.2-0.1,0.3c0,0-0.1,0.1-0.1,0.2
				c0,0,0,0.1-0.1,0.1c-0.1,0.1-0.1,0.2-0.2,0.2c-0.3-0.1-0.7,0.2-1.7,0.4c-0.9,0.2-2,0.1-2.1-0.3c0,0-0.7,0-1.5,0
				c-0.8,0-1.6-0.1-1.6-0.1l-0.6-0.5c-2.8,0.2-4-1.2-8.2-2c0.2,0.1,0.6,0.3,0.4,0.3c-1.3-0.4-4.4-1.2-1.9-0.8
				c-1.1-0.3-3.5-0.9-5.4-1.3c-1.8-0.3-3-0.4-1.2,0c-0.2-0.3,3,0.5,4.3,0.9c-0.2,0.3-3.6-0.6-4.5-0.4c-0.1-0.1-0.6-0.2-0.9-0.3
				l-0.5,0.1c-1.1-0.2-2.2-0.4-3.4-0.4c-1.2,0-2.4,0.1-3.8,0.6c-0.3,0.1-0.8,0.4-1.1,0.6c-0.3,0.2-0.4,0.3-0.6,0.5l-0.2,0.2l0,0
				l0,0.1l-0.1,0.1l-0.2,0.2l-0.3,0.5c-0.2,0.3-0.3,0.6-0.5,1c-0.5,1.3-0.5,2.4-0.5,3.3c0.1,0.2,0.3,1.1,0.6,2.7l-0.4,0.2
				c0,0,0.3,1.2,0.7,2.3c0.4,1.1,0.8,2.2,0.8,2.2s-0.1-0.6-0.1-1.1c-0.1-0.6-0.1-1.1-0.1-1.1c1.9,4.8,2.9,8.1,4.3,11.9
				c0.5,0.3,1.2,2.2,1.8,4.2c0.3,1,0.6,2.1,0.7,3c0.2,0.9,0.1,1.8,0.2,1.9c0,0,0,0,0.1-0.1c0-0.2,0.1-0.4,0.1-0.7
				c0.1-0.6,0-1.2,0-1.2c0.1,0.7,0.1,1.3,0,1.7l0,0.3c0,0,0,0.1,0,0.1l0,0.1l-0.1,0.2l-0.2,0.4l0,0c0.2-0.4,0.1-0.1,0.1-0.2h0l0,0
				l0,0l0,0l0,0l-0.1,0.1c0,0,0,0.1-0.1,0.1c-0.1,0.1-0.2,0.2-0.3,0.3c-0.3,0.2-0.6,0.3-0.9,0.5c-1.4,0.6-3.2,0.9-6.2,1
				c2.6-0.3,3.8-0.5,5.2-0.9c0.6-0.2,1.4-0.5,1.9-0.9c0.1-0.1,0.2-0.2,0.3-0.3l0-0.1l0,0l0,0l0,0c0,0-0.2,0.4-0.1,0.2l0,0l0-0.1
				c0.1-0.2,0.2-0.3,0.2-0.5c-0.1,0,0-0.5-0.1-1.2c0,0.3,0.1,0.7,0,0.9l0,0.2c0,0,0,0,0,0l0,0c0,0-0.1,0.2-0.1,0.3
				c-0.1,0.2-0.3,0.4-0.8,0.7c-1.1,0.5-2.6,0.7-4.1,0.9c-3.1,0.3-6.2,0.2-9.8,0.4c0.5,0.2,2.3,0.2,0.5,0.4c-1.4-0.4-6.8,0.1-5.8-0.3
				c-2.3,0.2-2.7,0.6-4.1,0.8c0,0-0.5,0-1.2,0.1c-0.8,0.1-1.8,0.2-2.8,0.4c-1.1,0.2-2.2,0.7-3.1,1.2c-0.2,0.2-0.4,0.3-0.6,0.4
				c-0.2,0.2-0.4,0.4-0.5,0.5c-0.3,0.3-0.5,0.5-0.4,0.5l0.3-0.3c-0.3,0.4-0.3,0.5-0.4,0.7l-0.3,0.5l-0.2,0.5c-0.3,0.7-0.3,1.4-0.3,2
				c0,1.2,0.4,2.2,0.7,3.1c0.7,1.7,1.6,3.1,2.5,4.4c1.8,2.6,3.7,5,5.5,7.3c1.8,2.4,3.6,4.7,5.1,7.1c0.7,1.2,1.4,2.4,1.7,3.4
				c0.2,0.5,0.2,1,0.2,0.9l-0.1,0.6c0,0.1,0.1-0.5,0.1-0.3v0l0,0l0,0l0,0l0,0c0,0,0,0,0,0c-0.1,0.1-0.1,0.2-0.3,0.4l0.2,0.1
				c0,0-0.3,0.3-0.9,0.5c-0.5,0.3-1.2,0.5-1.2,0.5c1.9-0.8-0.6,0.7-0.8,0.9c0,0-1.8,0.6-3.7,1.1c-1.9,0.5-3.9,0.9-3.9,0.9
				C129.6,288.8,130.2,289.1,132.1,288.5"/>
		</g>
		<g>
			<path class="st1" d="M121.4,308.4c0.7,0.5,1.1,0.8,1.5,1.1C122.4,309.1,121.9,308.7,121.4,308.4"/>
		</g>
		<g>
			<path class="st1" d="M159.9,218.3c0.1-0.1,0.4-0.1,0.7,0C160.6,218.3,160.4,218.3,159.9,218.3"/>
		</g>
		<g>
			<path class="st1" d="M166.1,219.6c0.1,0,0.2,0,0.2,0.1c0.1,0,0.1,0,0.2,0.1L166.1,219.6z"/>
		</g>
		<g>
			<path class="st1" d="M303.1,183.1c0.7-0.3,0.4-0.1-0.2,0.3c-0.6,0.3-1.5,0.8-2.2,1c0.7-0.2,1-0.5,1.3-0.7
				C302.3,183.5,302.7,183.4,303.1,183.1"/>
		</g>
		<g>
			<path class="st1" d="M294.8,181.9c0.4,0.5,1.1,1.2,2.2,1.9C296.2,183.4,295.6,182.9,294.8,181.9"/>
		</g>
		<g>
			<path class="st1" d="M301.4,183.6c-0.4,0.2-0.8,0.3-1.2,0.5c-0.4,0.1-0.8,0.1-1.2,0.2c-0.9,0-1.5-0.2-2.1-0.6
				C298,184.2,299.1,184.6,301.4,183.6"/>
		</g>
		<g>
			<path class="st1" d="M280.6,162.8c0.8,1.1,2.5,3.2,2.5,3.2c-3.7-4.4,0.5,1.1,0.5,1.7C281.5,164.6,281.7,164.5,280.6,162.8"/>
		</g>
		<g>
			<path class="st1" d="M274,160.5c0.5-0.3,1-0.5,1.5-0.6C274.9,160.1,274.4,160.3,274,160.5"/>
		</g>
		<g>
			<path class="st1" d="M272.6,162.1c-1.3,1.5-1.7,2.1-2.4,2.8c1-2.2,2.3-3.4,3.8-4.4C272.8,161.3,272,162.5,272.6,162.1"/>
		</g>
		<g>
			<path class="st1" d="M231.4,169.8c0.1,0,1.1,0.2,1,0.3c0,0-0.2,0-0.4-0.1c-0.2,0-0.5-0.1-0.6-0.1c0,0-0.3,0-0.5,0.1
				c-0.1,0-0.2,0-0.3,0.1l0,0c0.1,0-0.2,0,0.2,0l0,0h0l0,0l0,0l0,0l-0.1,0c-0.1,0.1-0.3,0.1-0.2,0.1c-0.3,0.2-0.2,0.1,0-0.1
				c0.1,0,0.1-0.1,0.2-0.1l0.1,0l0,0l0,0l0,0c-0.1,0,0.1,0-0.1,0h0l0,0l0,0l0.2-0.1c0.1,0,0.3-0.1,0.4-0.1
				C231.3,169.8,231.4,169.8,231.4,169.8"/>
		</g>
		<g>
			<path class="st1" d="M226.6,178.7c-0.4,2.7,0.1,1.3-0.1,2.7l-0.4-0.2L226.6,178.7z"/>
		</g>
		<g>
			<path class="st1" d="M224.6,176.8l0.2-0.8c-0.1,0.3-0.1,0.6-0.2,0.9L224.6,176.8z"/>
		</g>
		<g>
			<path class="st1" d="M225.3,191.7l0.8-1.8C225.7,192.2,225.2,192.1,225.3,191.7"/>
		</g>
		<g>
			<path class="st1" d="M218.7,200.8c0,0,0.5,0.1,1,0c0.5,0,1.1-0.2,1.1-0.2c0,0-0.5,0.2-1.1,0.3c-0.6,0.1-1.5,0.1-2.2,0
				c-1.5-0.2-2.7-0.7-2.7-0.7s0.9,0.3,1.8,0.5C217.7,200.8,218.7,200.8,218.7,200.8"/>
		</g>
		<g>
			<polygon class="st1" points="206.6,195.9 206.2,195.8 203.2,194 			"/>
		</g>
		<g>
			<rect x="356.3" y="146.1" class="st0" width="0.8" height="307.1"/>
		</g>
		<g>
			<polygon class="st2" points="8.3,384.5 8.3,388.3 13.5,388.3 13.5,412.5 17.6,412.5 17.6,388.3 22.9,388.3 22.9,384.5 			"/>
		</g>
		<g>
			<polygon class="st2" points="40.7,412.5 26.1,412.5 26.1,384.5 40.7,384.5 40.7,388.2 30.1,388.2 30.1,396.6 40.7,396.6 
				40.7,400.2 30.1,400.2 30.1,408.6 40.7,408.6 			"/>
		</g>
		<g>
			<path class="st2" d="M71.8,405.4c-1.2,2.4-2.9,4.3-5.1,5.6c-2.2,1.3-4.7,2-7.5,2c-2.1,0-4.1-0.4-5.9-1.2c-1.8-0.8-3.4-2-4.8-3.6
				c-1.2-1.3-2.1-2.8-2.7-4.5c-0.6-1.7-0.9-3.5-0.9-5.4c0-1.9,0.4-3.8,1.1-5.5c0.8-1.8,1.9-3.3,3.3-4.8c1.4-1.3,2.9-2.3,4.6-3
				c1.7-0.7,3.5-1,5.4-1c2.9,0,5.4,0.7,7.6,2c2.2,1.4,3.8,3.3,5,5.8H67c-0.9-1.2-2-2.2-3.3-2.8c-1.3-0.6-2.8-0.9-4.5-0.9
				c-1.3,0-2.6,0.2-3.8,0.7c-1.2,0.5-2.3,1.2-3.2,2.2c-1,1-1.7,2.1-2.3,3.4c-0.5,1.3-0.8,2.6-0.8,4c0,1.5,0.2,2.8,0.7,4.1
				c0.5,1.3,1.2,2.4,2.1,3.4c1,1,2.1,1.8,3.4,2.3c1.3,0.6,2.6,0.8,3.9,0.8c1.6,0,3.1-0.3,4.4-0.9c1.3-0.6,2.4-1.5,3.2-2.6H71.8z"/>
		</g>
		<g>
			<polygon class="st2" points="80.5,412.5 76.4,412.5 76.4,384.5 80.5,384.5 80.5,396.4 92,396.4 92,384.5 96.1,384.5 96.1,412.5 
				92,412.5 92,400.3 80.5,400.3 			"/>
		</g>
		<g>
			<polygon class="st2" points="105.5,412.5 101.4,412.5 101.4,384.5 105.7,384.5 119.5,405.7 119.3,384.5 123.4,384.5 123.4,412.5 
				119.4,412.5 105.3,390.6 			"/>
		</g>
		<g>
			<path class="st2" d="M131.7,398.3c0,1.5,0.2,2.8,0.7,4.1c0.5,1.3,1.2,2.4,2.1,3.4c1,1,2.1,1.8,3.3,2.3c1.3,0.6,2.6,0.8,3.9,0.8
				c2.9,0,5.4-1,7.3-3.1c2-2.1,2.9-4.6,2.9-7.7c0-1.3-0.2-2.5-0.7-3.7c-0.5-1.2-1.2-2.2-2.1-3.2c-1.1-1.1-2.2-2-3.4-2.5
				c-1.2-0.5-2.6-0.8-4.1-0.8c-1.3,0-2.6,0.3-3.8,0.7c-1.2,0.5-2.3,1.2-3.2,2.2c-1,1-1.7,2.1-2.3,3.4
				C132,395.6,131.7,397,131.7,398.3 M127.4,398.3c0-2,0.4-3.8,1.1-5.6c0.8-1.8,1.8-3.3,3.3-4.7c1.4-1.3,2.9-2.3,4.6-3
				c1.7-0.7,3.5-1,5.4-1c2,0,3.8,0.3,5.5,1c1.7,0.7,3.2,1.7,4.6,3.1c1.4,1.4,2.5,3,3.2,4.7c0.7,1.7,1.1,3.6,1.1,5.6
				c0,2-0.3,3.8-0.9,5.5c-0.6,1.7-1.6,3.2-2.8,4.5c-1.5,1.6-3.1,2.7-4.9,3.5c-1.8,0.8-3.8,1.2-5.9,1.2c-2.1,0-4.1-0.4-5.9-1.2
				c-1.8-0.8-3.4-2-4.8-3.6c-1.2-1.3-2.1-2.8-2.7-4.5C127.7,402,127.4,400.2,127.4,398.3"/>
		</g>
		<g>
			<rect x="160.8" y="400.1" class="st2" width="9.7" height="3.5"/>
		</g>
		<g>
			<path class="st2" d="M173.5,404.4h3.7c0.1,1.4,0.5,2.6,1.3,3.5c0.8,0.9,1.8,1.3,3.1,1.3c1.4,0,2.5-0.4,3.4-1.3
				c0.8-0.9,1.3-2,1.3-3.5c0-1.3-0.3-2.2-0.9-2.9c-0.6-0.7-1.9-1.3-3.9-1.9c-0.1,0-0.3-0.1-0.5-0.1c-2.4-0.6-4.1-1.7-5.1-3.1
				c-0.5-0.6-0.8-1.3-1.1-2c-0.2-0.7-0.4-1.5-0.4-2.3c0-2.4,0.7-4.3,2.2-5.8c1.4-1.5,3.3-2.2,5.6-2.2c2.2,0,3.9,0.7,5.2,2
				c1.3,1.3,2.1,3.1,2.2,5.4h-3.8c-0.1-1.1-0.4-2-1.1-2.7c-0.7-0.7-1.6-1-2.6-1c-1.1,0-2,0.4-2.7,1.1c-0.7,0.8-1.1,1.7-1.1,2.9
				c0,0.4,0.1,0.8,0.2,1.2c0.1,0.4,0.3,0.7,0.6,1c0.6,0.7,1.7,1.2,3.6,1.7c0.8,0.2,1.5,0.4,1.9,0.6c1.9,0.7,3.3,1.7,4.2,3
				c1,1.3,1.4,2.9,1.4,4.7c0,2.7-0.8,4.9-2.3,6.5c-1.6,1.6-3.6,2.5-6.2,2.5c-2.4,0-4.4-0.8-5.9-2.4
				C174.3,409.1,173.5,407,173.5,404.4"/>
		</g>
		<g>
			<path class="st2" d="M197.3,398.3c0,1.5,0.2,2.8,0.7,4.1c0.5,1.3,1.2,2.4,2.1,3.4c1,1,2.1,1.8,3.3,2.3c1.3,0.6,2.6,0.8,3.9,0.8
				c2.9,0,5.4-1,7.3-3.1c2-2.1,2.9-4.6,2.9-7.7c0-1.3-0.2-2.5-0.7-3.7c-0.5-1.2-1.2-2.2-2.1-3.2c-1.1-1.1-2.2-2-3.4-2.5
				c-1.2-0.5-2.6-0.8-4.1-0.8c-1.3,0-2.6,0.3-3.8,0.7c-1.2,0.5-2.3,1.2-3.2,2.2c-1,1-1.7,2.1-2.3,3.4
				C197.6,395.6,197.3,397,197.3,398.3 M193,398.3c0-2,0.4-3.8,1.1-5.6c0.8-1.8,1.8-3.3,3.3-4.7c1.4-1.3,2.9-2.3,4.6-3
				c1.7-0.7,3.5-1,5.4-1c2,0,3.8,0.3,5.5,1c1.7,0.7,3.2,1.7,4.6,3.1c1.4,1.4,2.5,3,3.2,4.7c0.7,1.7,1.1,3.6,1.1,5.6
				c0,2-0.3,3.8-0.9,5.5c-0.6,1.7-1.6,3.2-2.8,4.5c-1.5,1.6-3.1,2.7-4.9,3.5c-1.8,0.8-3.8,1.2-5.9,1.2c-2.1,0-4.1-0.4-5.9-1.2
				c-1.8-0.8-3.4-2-4.8-3.6c-1.2-1.3-2.1-2.8-2.7-4.5C193.3,402,193,400.2,193,398.3"/>
		</g>
		<g>
			<path class="st2" d="M225.7,384.5h4.1v17.8c0,2.5,0.4,4.3,1.1,5.3c0.8,1,2.1,1.5,3.9,1.5c1.8,0,3-0.5,3.7-1.5
				c0.7-1,1.1-2.8,1.1-5.3v-17.8h4.1v17.7c0,1.9-0.1,3.3-0.3,4.4c-0.2,1-0.6,1.9-1.1,2.6c-0.9,1.3-1.9,2.2-3.1,2.9
				c-1.2,0.6-2.7,0.9-4.3,0.9c-1.8,0-3.3-0.3-4.6-0.9c-1.2-0.6-2.3-1.6-3.2-2.8c-0.5-0.7-0.9-1.6-1.1-2.5c-0.2-0.9-0.3-2.4-0.3-4.5
				V384.5z"/>
		</g>
		<g>
			<path class="st2" d="M252.9,399h2.1c2.8,0,5-0.5,6.3-1.4c1.4-0.9,2.1-2.3,2.1-4.2c0-1.8-0.6-3.1-1.8-4c-1.2-0.9-3.1-1.3-5.7-1.3
				h-3.1V399z M252.9,412.5h-4.1v-28h8.1c3.4,0,6,0.8,7.8,2.3c1.8,1.6,2.7,3.8,2.7,6.7c0,2.3-0.7,4.2-2.2,5.7
				c-1.5,1.5-3.4,2.4-5.8,2.5l8,10.7h-5.1l-9.4-13V412.5z"/>
		</g>
		<g>
			<path class="st2" d="M297.4,405.4c-1.2,2.4-2.9,4.3-5.1,5.6c-2.2,1.3-4.7,2-7.5,2c-2.1,0-4.1-0.4-5.9-1.2c-1.8-0.8-3.4-2-4.8-3.6
				c-1.2-1.3-2.1-2.8-2.7-4.5c-0.6-1.7-0.9-3.5-0.9-5.4c0-1.9,0.4-3.8,1.1-5.5c0.8-1.8,1.9-3.3,3.3-4.8c1.4-1.3,2.9-2.3,4.6-3
				c1.7-0.7,3.5-1,5.4-1c2.9,0,5.4,0.7,7.6,2c2.2,1.4,3.8,3.3,5,5.8h-4.8c-0.9-1.2-2-2.2-3.3-2.8c-1.3-0.6-2.8-0.9-4.5-0.9
				c-1.3,0-2.6,0.2-3.8,0.7c-1.2,0.5-2.3,1.2-3.2,2.2c-1,1-1.7,2.1-2.3,3.4c-0.5,1.3-0.8,2.6-0.8,4c0,1.5,0.2,2.8,0.7,4.1
				c0.5,1.3,1.2,2.4,2.1,3.4c1,1,2.1,1.8,3.4,2.3c1.3,0.6,2.6,0.8,3.9,0.8c1.6,0,3.1-0.3,4.4-0.9c1.3-0.6,2.4-1.5,3.2-2.6H297.4z"/>
		</g>
		<g>
			<polygon class="st2" points="316.6,412.5 301.9,412.5 301.9,384.5 316.6,384.5 316.6,388.2 306,388.2 306,396.6 316.6,396.6 
				316.6,400.2 306,400.2 306,408.6 316.6,408.6 			"/>
		</g>
		<g>
			<rect x="10.2" y="434.6" class="st2" width="2.6" height="18"/>
		</g>
		<g>
			<polygon class="st2" points="48.3,434.6 48.4,448.3 39.6,434.6 36.9,434.6 36.9,452.7 39.5,452.7 39.3,438.6 48.4,452.7 
				50.9,452.7 50.9,434.6 			"/>
		</g>
		<g>
			<path class="st2" d="M77.3,450.3h3.2c2,0,3.6-0.6,4.8-1.8c1.2-1.2,1.8-2.8,1.8-4.8c0-2.1-0.6-3.7-1.9-4.9c-1.2-1.2-3-1.8-5.1-1.8
				h-2.7V450.3z M79.8,452.7h-5.1v-18h5.8c2.7,0,4.9,0.8,6.6,2.5c1.7,1.7,2.5,3.9,2.5,6.6c0,1.5-0.3,2.9-0.9,4.2
				c-0.6,1.3-1.5,2.3-2.7,3.2c-0.8,0.6-1.6,1-2.5,1.2C82.6,452.5,81.4,452.7,79.8,452.7"/>
		</g>
		<g>
			<path class="st2" d="M112.7,434.6h2.6v11.5c0,1.6,0.2,2.8,0.7,3.4c0.5,0.6,1.3,1,2.5,1c1.1,0,1.9-0.3,2.4-1
				c0.5-0.7,0.7-1.8,0.7-3.4v-11.5h2.6v11.5c0,1.2-0.1,2.2-0.2,2.8c-0.1,0.6-0.4,1.2-0.7,1.7c-0.5,0.8-1.2,1.4-2,1.8
				c-0.8,0.4-1.7,0.6-2.8,0.6c-1.2,0-2.1-0.2-2.9-0.6c-0.8-0.4-1.5-1-2.1-1.8c-0.3-0.5-0.6-1-0.7-1.6c-0.1-0.6-0.2-1.6-0.2-2.9
				V434.6z"/>
		</g>
		<g>
			<path class="st2" d="M147.2,447.5h2.4c0,0.9,0.3,1.7,0.8,2.2c0.5,0.6,1.2,0.8,2,0.8c0.9,0,1.6-0.3,2.2-0.8
				c0.5-0.6,0.8-1.3,0.8-2.2c0-0.8-0.2-1.4-0.6-1.9c-0.4-0.5-1.2-0.9-2.5-1.3c-0.1,0-0.2,0-0.3-0.1c-1.5-0.4-2.6-1.1-3.3-2
				c-0.3-0.4-0.5-0.8-0.7-1.3c-0.2-0.5-0.2-0.9-0.2-1.5c0-1.5,0.5-2.8,1.4-3.8c0.9-1,2.1-1.4,3.6-1.4c1.4,0,2.5,0.4,3.3,1.3
				c0.8,0.9,1.3,2,1.4,3.5H155c0-0.7-0.3-1.3-0.7-1.7c-0.4-0.4-1-0.7-1.7-0.7c-0.7,0-1.3,0.2-1.8,0.7c-0.5,0.5-0.7,1.1-0.7,1.9
				c0,0.3,0,0.5,0.1,0.8c0.1,0.2,0.2,0.5,0.4,0.7c0.4,0.4,1.1,0.8,2.3,1.1c0.5,0.1,1,0.3,1.2,0.4c1.2,0.4,2.1,1.1,2.7,1.9
				c0.6,0.9,0.9,1.9,0.9,3.1c0,1.7-0.5,3.1-1.5,4.2c-1,1.1-2.3,1.6-3.9,1.6c-1.5,0-2.8-0.5-3.7-1.5
				C147.7,450.5,147.2,449.1,147.2,447.5"/>
		</g>
		<g>
			<polygon class="st2" points="179.7,434.6 179.7,437 183.1,437 183.1,452.7 185.7,452.7 185.7,437 189.1,437 189.1,434.6 			"/>
		</g>
		<g>
			<path class="st2" d="M214.3,444h1.3c1.8,0,3.2-0.3,4-0.9c0.9-0.6,1.3-1.5,1.3-2.7c0-1.2-0.4-2-1.1-2.6c-0.8-0.5-2-0.8-3.6-0.8h-2
				V444z M214.3,452.7h-2.6v-18h5.2c2.2,0,3.8,0.5,5,1.5c1.1,1,1.7,2.4,1.7,4.3c0,1.5-0.5,2.7-1.4,3.7c-1,1-2.2,1.5-3.7,1.6l5.1,6.9
				h-3.3l-6-8.4V452.7z"/>
		</g>
		<g>
			<rect x="246.9" y="434.6" class="st2" width="2.6" height="18"/>
		</g>
		<g>
			<polygon class="st2" points="273.6,434.6 273.6,452.7 282.9,452.7 282.9,450.2 276.2,450.2 276.2,444.8 282.9,444.8 282.9,442.4 
				276.2,442.4 276.2,437 282.9,437 282.9,434.6 			"/>
		</g>
		<g>
			<path class="st2" d="M306,447.5h2.4c0,0.9,0.3,1.7,0.8,2.2c0.5,0.6,1.2,0.8,2,0.8c0.9,0,1.6-0.3,2.2-0.8c0.5-0.6,0.8-1.3,0.8-2.2
				c0-0.8-0.2-1.4-0.6-1.9c-0.4-0.5-1.2-0.9-2.5-1.3c-0.1,0-0.2,0-0.3-0.1c-1.5-0.4-2.6-1.1-3.3-2c-0.3-0.4-0.5-0.8-0.7-1.3
				c-0.2-0.5-0.2-0.9-0.2-1.5c0-1.5,0.5-2.8,1.4-3.8c0.9-1,2.1-1.4,3.6-1.4c1.4,0,2.5,0.4,3.3,1.3c0.9,0.9,1.3,2,1.4,3.5h-2.4
				c0-0.7-0.3-1.3-0.7-1.7c-0.4-0.4-1-0.7-1.7-0.7c-0.7,0-1.3,0.2-1.8,0.7c-0.4,0.5-0.7,1.1-0.7,1.9c0,0.3,0,0.5,0.1,0.8
				c0.1,0.2,0.2,0.5,0.4,0.7c0.4,0.4,1.1,0.8,2.3,1.1c0.5,0.1,1,0.3,1.2,0.4c1.2,0.4,2.1,1.1,2.7,1.9c0.6,0.9,0.9,1.9,0.9,3.1
				c0,1.7-0.5,3.1-1.5,4.2c-1,1.1-2.3,1.6-3.9,1.6c-1.5,0-2.8-0.5-3.8-1.5C306.6,450.5,306.1,449.1,306,447.5"/>
		</g>
	</g>
	<g>
		<rect x="258.6" y="9" class="st1" width="99.8" height="102"/>
	</g>
</g>
</svg>
