<svg xmlns="http://www.w3.org/2000/svg" viewBox="0 0 48.14 36.34"><defs><style>.cls-1{fill:#4b4b4b;}</style></defs><title>comptoir-de-famille_logo</title><g id="Calque_2" data-name="Calque 2"><g id="Calque_1-2" data-name="Calque 1"><path class="cls-1" d="M40.51,28.85l.36.54c.16-.13.32-.25.47-.39L41,28.47c-.15.14-.3.26-.45.38m.9-.78.39.52.44-.43-.41-.5Zm.85-.84.42.49.42-.45-.44-.47Zm.79-.9.45.45c.13-.16.26-.32.39-.49l-.47-.43c-.12.16-.24.32-.37.47m.73-.95.48.41.35-.52-.5-.39Zm.64-1,.51.37c.1-.18.22-.36.31-.55l-.53-.34c-.09.18-.19.35-.29.52M45,23.33l.54.31.25-.58-.55-.28Zm.46-1.11.57.25c.07-.2.15-.4.2-.6l-.58-.22c-.05.19-.12.38-.19.57m.36-1.15.59.18.14-.62-.6-.15ZM46,19.89l.6.11c0-.21.06-.42.08-.64l-.61-.07a6,6,0,0,1-.07.6m.13-1.8c0,.2,0,.4,0,.6l.61,0c0-.21,0-.43,0-.64Zm0-.6.61,0c0-.21,0-.43-.06-.64l-.61.08c0,.2,0,.4.05.6M46,16.29l.6-.12c0-.21-.07-.42-.12-.63l-.59.16c.05.19.08.39.11.59m-.25-1.18.58-.19-.18-.61-.58.23ZM45.39,14l.56-.26c-.07-.2-.15-.4-.24-.59l-.55.29a6,6,0,0,1,.23.56m-.48-1.1.54-.32L45.17,12l-.52.35Zm-.58-1.05.51-.37c-.1-.18-.22-.36-.33-.53l-.49.4c.11.16.22.33.32.51m-.66-1,.48-.42-.37-.5-.46.44ZM43,9.87l.45-.46c-.13-.16-.26-.32-.41-.47l-.43.48c.14.14.26.3.39.45m-.38-1.38-.44-.43-.4.51.42.42Zm-.89-.86-.46-.41-.37.53.45.4ZM40.27,6.46,39.93,7c.16.11.31.25.47.37l.36-.54c-.16-.13-.31-.26-.48-.38m-1-.71L39,6.33c.17.11.33.22.49.34l.33-.57c-.16-.12-.33-.24-.5-.35m-1-.65L38,5.69l.51.31.3-.58Zm-1.05-.6-.27.6.52.28.28-.6ZM36.13,4l-.24.62.53.26.25-.61ZM35,3.47l-.21.63.54.23.23-.62ZM33.91,3l-.19.64.55.21.2-.64Zm-1.13-.38-.17.65c.19.05.37.12.56.18l.18-.64c-.19-.06-.38-.13-.57-.19m-1.15-.33L31.49,3l.56.16.15-.65-.58-.16m-1.28.38.57.13.13-.66-.58-.13Zm-1.14-.23.57.1.11-.66-.59-.11Zm-1.15-.18.58.08.09-.67-.59-.08ZM26.9,2.17l.58.06.06-.67-.59-.06Zm-1.16-.09.58,0,0-.67-.59,0ZM24.57,2h.58l0-.67h-.59Zm-1.18-.67V2H24V1.36Zm-1.19,0,0,.67.58,0,0-.67ZM21,1.52l.06.67.58-.06,0-.67Zm-1.18.14.08.67.58-.08-.07-.67Zm-1.17.19.1.66.58-.1-.09-.67Zm-1.17.24.12.66.57-.12L18.08,2Zm-1.16.28.14.65.57-.14-.13-.66Zm-.57.17-.57.17.17.65.56-.17Zm-1.14.36-.57.2.19.64.55-.19Zm-1.12.41c-.19.07-.37.14-.56.23l.22.63.54-.22Zm-1.11.47L11.86,4l.24.62.53-.25Zm-1.09.52-.53.28.27.6.52-.28Zm-1.06.57-.52.31.3.59.51-.3Zm-1,.63-.51.34L9,6.41l.49-.33Zm-1,.69-.49.36.35.55.48-.35Zm-1,.75c-.16.13-.32.26-.47.4l.38.53c.15-.14.3-.26.46-.38Zm-.93.8-.44.43.41.5.43-.41ZM5.86,9.1l-.42-.49L5,9.06l.44.47Zm-.79.9-.45-.45c-.13.16-.27.32-.39.49l.47.43c.12-.16.24-.32.37-.47m-.73.95-.48-.41L3.52,11l.5.39Zm-.64,1-.51-.37c-.1.18-.22.36-.31.55l.53.34c.09-.18.19-.35.29-.52M3.13,13l-.54-.31-.25.58.55.28Zm-.46,1.11-.57-.25c-.07.2-.15.4-.2.6l.58.22a6,6,0,0,1,.19-.57m-.36,1.15-.59-.18-.14.62.6.15Zm-.24,1.18-.6-.11c0,.21-.06.42-.08.64L2,17c0-.2,0-.4.07-.6M2,17.64l-.61,0c0,.21,0,.43,0,.64h.61c0-.2,0-.4,0-.6m0,1.21-.61,0c0,.21,0,.42.06.64L2,19.45c0-.2,0-.4-.06-.6M2.11,20l-.6.12c0,.21.07.42.12.63l.59-.16c-.05-.19-.08-.39-.11-.59m.25,1.18-.59.19L2,22l.57-.23Zm.37,1.14-.56.26c.07.2.15.4.24.59L3,22.92a5.75,5.75,0,0,1-.23-.56m.48,1.1-.54.32.29.56L3.48,24Zm.57,1.05-.51.37c.1.18.22.36.34.53L4.1,25c-.11-.17-.22-.33-.32-.51m.66,1L4,25.94l.37.5L4.8,26Zm.74.94-.45.46c.13.16.26.32.41.47l.43-.48c-.14-.14-.26-.3-.39-.45m.38,1.38.44.43.4-.51L6,27.35Zm.89.86.46.41.37-.53-.44-.4Zm.93.8c.16.13.31.26.48.38l.35-.56c-.16-.11-.31-.25-.47-.37Zm1,.74c.16.12.33.24.5.35L9.16,30c-.17-.11-.33-.22-.49-.34Zm1,.68.52.32.29-.59-.5-.31Zm1,.62.53.29.26-.61-.52-.28Zm1.07.57.54.26.24-.62-.53-.26Zm1.09.51.55.24.21-.63L12.77,32Zm1.11.46.56.21.19-.64-.55-.21Zm1.13.41.57.19.17-.65c-.19-.05-.37-.12-.56-.18Zm1.14.36.58.16.14-.65-.56-.16Zm1.15.3.58.13.12-.66-.57-.13Zm1.16.26.58.11.1-.67-.57-.1Zm1.17.21.59.08.07-.67-.58-.08Zm1.18.16.59.06.05-.67-.58-.06Zm1.18.11.59,0,0-.67-.58,0ZM23,35h.59v-.67H23Zm1.19-.65V35h.59v-.67Zm1.17,0,0,.67.59,0,0-.67Zm1.16-.07,0,.67.59-.05L27,34.15Zm1.16-.12.07.67.59-.08L28.21,34Zm1.15-.16.09.67.59-.1-.1-.66Zm1.15-.21.11.66.58-.12-.12-.66Zm1.14-.26.13.66.58-.15-.15-.65Zm1.13-.31.16.65.57-.17L32.76,33Zm1.11-.35.18.64.57-.2-.19-.64-.55.19m1.1-.4.2.63.56-.22L35,32.17l-.54.22m1.08-.45.23.62.55-.25L36,31.69l-.53.25m1.06-.51.26.61.53-.28-.27-.6Zm1-.56.28.6.52-.31-.29-.59Zm1-.62.31.58.51-.34-.32-.57Zm1-.67.34.56.49-.36-.35-.55Zm7.7-10.15c0,.22-.05.45-.08.67l-.54-.1c0,.21-.06.42-.11.63l.53.13c0,.22-.1.44-.15.65l-.52-.16c0,.21-.12.41-.18.61l.51.19c-.07.21-.14.42-.21.63l-.5-.22c-.08.2-.14.4-.23.59l.49.25q-.13.3-.27.6l-.47-.27-.29.56.46.3-.32.57-.44-.32c-.11.18-.21.36-.33.54l.43.33-.36.54-.41-.35-.37.5.4.37-.4.5-.38-.38-.4.48.36.39-.43.47-.35-.41c-.14.15-.29.3-.43.44l.34.42-.46.43-.32-.42-.46.41.31.43-.48.4-.3-.44-.48.39.28.45-.5.37-.27-.46c-.16.12-.32.25-.5.35l.26.46-.52.34-.25-.47c-.17.12-.34.22-.52.32l.24.47-.53.31-.22-.48-.53.29.21.48-.55.28-.2-.48-.54.26.19.49-.56.26-.18-.49-.55.24.17.49-.57.23-.16-.5-.56.22.15.5-.57.2-.14-.5-.57.19.13.5-.58.18-.12-.51-.57.17.11.5-.59.15-.1-.51-.58.14.09.51-.59.13L30,34.37l-.59.11.08.51-.6.1-.07-.51-.59.09.06.51-.6.08-.05-.51-.59.06,0,.51-.6.05,0-.51-.59,0,0,.52-.6,0,0-.51-.59,0v.52h-.6V35h-.59v.52l-.6,0V35l-.59,0,0,.52-.6,0,0-.51-.59-.06,0,.51-.6-.06,0-.51L20,34.7l-.06.51-.6-.09.07-.51-.59-.1-.07.51-.59-.11.08-.51-.58-.12-.09.51L17,34.65l.1-.5L16.49,34l-.11.5-.58-.16.12-.5-.57-.17-.13.5L14.64,34l.14-.5-.57-.19-.15.49-.57-.21.16-.49-.56-.22-.17.49-.56-.24.18-.49c-.18-.08-.37-.16-.55-.25l-.19.48-.55-.27.2-.48c-.18-.08-.36-.18-.54-.28l-.21.48-.54-.3.22-.47-.52-.31-.23.47-.53-.32.24-.46-.51-.34L8.59,31l-.51-.35.26-.45-.49-.36-.28.44-.18-.14-.31-.24.29-.44-.47-.39-.3.43-.47-.42.32-.42c-.16-.13-.3-.28-.45-.42l-.33.41-.45-.45.34-.4-.42-.45-.36.39-.42-.48.37-.38c-.13-.16-.27-.31-.39-.48l-.38.36-.39-.51.4-.35c-.13-.16-.23-.34-.35-.52l-.42.33-.35-.55.43-.31L3,24.35l-.44.29c-.11-.19-.21-.39-.3-.58l.46-.27c-.1-.18-.18-.38-.26-.57l-.47.25c-.09-.2-.17-.41-.25-.61l.49-.22c-.07-.2-.15-.4-.21-.6l-.49.2q-.1-.32-.19-.64l.51-.17c-.06-.2-.1-.41-.15-.62l-.52.14c0-.22-.09-.44-.13-.66l.53-.1c0-.21-.07-.42-.09-.64l-.53.07c0-.22,0-.45-.06-.67l.53,0,0-.64H.81s0-.06,0-.09c0-.2,0-.39,0-.59l.53,0c0-.22,0-.43,0-.64l-.53-.06c0-.22.05-.45.08-.67l.53.1c0-.21.06-.42.11-.63l-.52-.13q.07-.33.15-.65l.51.16c.05-.21.12-.41.18-.61l-.5-.19c.07-.21.14-.42.21-.63l.49.22c.07-.2.14-.4.23-.59L1.87,13q.13-.3.27-.6l.46.27.29-.56-.45-.29.32-.57.43.31c.11-.18.21-.36.33-.53l-.42-.33.36-.54.4.34.37-.5-.39-.36.4-.5.37.37L5,9.06l-.36-.38.43-.47.35.4c.14-.15.29-.3.43-.44l-.33-.41L6,7.32l.32.42.46-.41-.3-.43L7,6.5l.29.44.48-.39-.28-.44.5-.37.27.45c.17-.12.33-.25.5-.35l-.26-.45L9,5l.24.46c.17-.12.34-.22.51-.32L9.5,4.71,10,4.4l.22.47.53-.29-.21-.48.55-.28.2.48L11.86,4l-.19-.48.55-.26.18.48L13,3.53,12.78,3l.57-.23.16.49.56-.22-.15-.49.57-.2.14.5.57-.19-.13-.49L15.65,2l.12.5.57-.16-.11-.5.59-.15.1.5c.19,0,.38-.1.58-.14l-.09-.5L18,1.45l.08.51.58-.11-.08-.51.59-.1.07.51.59-.09-.06-.51.6-.08,0,.51L21,1.52,21,1l.6-.05,0,.51c.2,0,.4,0,.59,0l0-.51.6,0,0,.51.59,0V.86H24v.51h.59V.86l.6,0,0,.51.59,0,0-.51.6,0,0,.51.59.06L27,1l.6.06,0,.51.59.08.06-.51.6.09-.07.51.59.1.07-.51.59.11-.08.51.58.12.09-.51.59.13-.1.51.58.15.11-.51.58.16-.12.5.57.17.13-.5.58.19-.14.5.57.19.15-.49.57.21-.16.5.56.22L35.2,3l.56.24-.18.49.55.25.19-.49.55.27-.2.48.54.28L37.42,4l.54.29-.22.47.52.31.23-.47.53.32-.24.47.51.34.26-.46.51.35-.27.46.49.36L40.55,6l.2.15.3.24-.29.44.47.39.31-.44.47.42-.32.43c.15.13.3.28.45.42l.33-.42.45.45-.35.41.42.45.36-.4.42.48-.38.39c.13.16.27.31.39.48l.39-.37.39.51-.41.36c.13.16.23.34.35.52l.42-.34.35.55-.44.32.32.54.45-.3c.11.19.21.39.3.58l-.47.28c.1.18.18.38.26.58l.49-.26q.13.31.25.61l-.5.23c.07.2.15.39.21.6l.51-.2c.07.21.13.43.19.64l-.52.17c.06.2.1.41.15.62L47,15.4c0,.22.09.44.13.66l-.54.11c0,.21.07.42.09.64l.54-.07c0,.22,0,.45.06.67l-.55,0,0,.64h.55s0,.06,0,.09c0,.2,0,.39,0,.59l-.55,0c0,.21,0,.43,0,.64Zm-6-14A28.13,28.13,0,0,0,24.07,0,28.13,28.13,0,0,0,6.92,5.47C2.46,8.91,0,13.42,0,18.17s2.46,9.26,6.92,12.7a28.14,28.14,0,0,0,17.15,5.47,28.13,28.13,0,0,0,17.15-5.47c4.46-3.44,6.92-7.95,6.92-12.7s-2.46-9.26-6.92-12.7"/><path class="cls-1" d="M24.26,20.25H23.13c-.09,0-.2,0-.2.2a.17.17,0,0,0,0,.13.25.25,0,0,0,.14,0,.34.34,0,0,1,.25.06.57.57,0,0,1,.15.45v2.44a.27.27,0,0,1-.06.23.33.33,0,0,1-.24.09h0a.07.07,0,0,0-.07.07v.21a.07.07,0,0,0,.07.07H25a.07.07,0,0,0,.07-.07v-.21a.07.07,0,0,0-.07-.07h0a.31.31,0,0,1-.23-.08.29.29,0,0,1-.08-.23V21.17c0-.14.11-.4.53-.4s.52.33.52.43v2.36a.27.27,0,0,1-.08.24.31.31,0,0,1-.23.08h0a.07.07,0,0,0-.07.06v.21a.07.07,0,0,0,.07.07h1.83a.07.07,0,0,0,.07-.07v-.21a.07.07,0,0,0-.07-.06h0A.31.31,0,0,1,27,23.8a.32.32,0,0,1-.08-.23V21.25h0a.45.45,0,0,1,.13-.35.61.61,0,0,1,.42-.13.5.5,0,0,1,.35.11.48.48,0,0,1,.12.38v2.29a.27.27,0,0,1-.31.32h0a.07.07,0,0,0-.07.06v.21a.07.07,0,0,0,.07.07h1.82a.07.07,0,0,0,.07-.07v-.21a.07.07,0,0,0-.07-.06h0a.31.31,0,0,1-.23-.08.28.28,0,0,1-.08-.23s0-2.34,0-2.35a1,1,0,0,0-.32-.78,1.58,1.58,0,0,0-2,.2.24.24,0,0,1-.16.08c-.09,0-.14,0-.19-.16s-.21-.35-.86-.35c-.86,0-1,.41-1,.41s-.15-.37-.42-.37"/><path class="cls-1" d="M38.07,21.93v-.71a.65.65,0,0,1,.68-.62c.25,0,.59,0,.59.44s-.37.68-.71.86l-.4.21s-.15.09-.15-.17m1.33.89a1.35,1.35,0,0,1-.28.92.56.56,0,0,1-.4.15c-.17,0-.65,0-.65-.76s-.05-.62.31-.81l1.67-.88a.54.54,0,0,0,.33-.66c-.08-.51-.91-.59-1-.6s-1.45-.21-2,.39a3.07,3.07,0,0,0-.48,2.28c0,.51.21,1.42,1.87,1.42,1.51,0,1.78-.78,1.83-1.11,0-.15,0-.19-.06-.21l-.95-.33c-.06,0-.16,0-.15.19"/><path class="cls-1" d="M30.9,19.07h-.56a.34.34,0,1,0,0,.68h.56a.34.34,0,1,0,0-.68"/><path class="cls-1" d="M36.41,23.87h-.07a.31.31,0,0,1-.23-.08.29.29,0,0,1-.08-.23v-5a.07.07,0,0,0-.07-.07h-1.5a.07.07,0,0,0-.07.07v.21a.07.07,0,0,0,.08.06h0a.31.31,0,0,1,.23.08.26.26,0,0,1,.08.23v4.39a.3.3,0,0,1-.08.23.31.31,0,0,1-.23.08h0a.07.07,0,0,0-.07.07v.21a.07.07,0,0,0,.07.07h2a.07.07,0,0,0,.07-.07v-.21a.07.07,0,0,0-.07-.07"/><path class="cls-1" d="M34.06,23.87H34a.31.31,0,0,1-.23-.08.29.29,0,0,1-.08-.23c0-.13,0-5,0-5a.07.07,0,0,0-.07-.07h-1.5a.07.07,0,0,0-.07.07v.21a.07.07,0,0,0,.08.06h0a.31.31,0,0,1,.23.08.26.26,0,0,1,.08.23v4.39a.3.3,0,0,1-.08.23.31.31,0,0,1-.23.08h0a.07.07,0,0,0-.07.07v.21a.07.07,0,0,0,.07.07h2a.07.07,0,0,0,.07-.07v-.21a.07.07,0,0,0-.07-.07"/><path class="cls-1" d="M9.51,23.45a.44.44,0,0,1-.88,0V22.27a.44.44,0,0,1,.88,0Zm1.05.27a.4.4,0,0,1,0,0h0V19.11a.06.06,0,0,0-.06-.05H9.09a.06.06,0,0,0-.06.05v.19a.05.05,0,0,0,.06.05h.21a.29.29,0,0,1,.21.07.27.27,0,0,1,.07.21V21.7l-.08-.07a.86.86,0,0,0-.68-.2c-1,0-1.25.61-1.25,1.52s.3,1.27,1,1.27a1.62,1.62,0,0,0,.82-.15A.22.22,0,0,1,9.52,24a.15.15,0,0,1,.1.1v0l0,0c0,.05.06.09.1.09h1.16A.05.05,0,0,0,11,24.2V24a.05.05,0,0,0-.06-.05h-.07a.25.25,0,0,1-.28-.24"/><path class="cls-1" d="M12.14,22.61V22.1a.47.47,0,0,1,.49-.45c.18,0,.43,0,.43.31s-.27.49-.52.62l-.29.15s-.11.06-.11-.13m1,.64a1,1,0,0,1-.2.66.4.4,0,0,1-.29.11c-.12,0-.47,0-.47-.55s0-.45.22-.59l1.21-.63a.39.39,0,0,0,.24-.47c-.06-.37-.66-.43-.73-.43s-1.07-.16-1.49.27a2.21,2.21,0,0,0-.32,1.65c0,.37.15,1,1.35,1s1.29-.56,1.32-.8,0-.14,0-.15l-.69-.23s-.11,0-.11.14"/><path class="cls-1" d="M18.44,22.31c0,.11-.09.15-.2.15s-.2,0-.2-.14v0c0-.11-.12-.17-.31-.17h-1v2.82a.35.35,0,0,0,.09.26.36.36,0,0,0,.26.09h.08a.09.09,0,0,1,.09.08v.24a.09.09,0,0,1-.09.08H15.05a.09.09,0,0,1-.09-.08v-.24a.09.09,0,0,1,.09-.08h0a.35.35,0,0,0,.26-.09.34.34,0,0,0,.09-.26V19.41a.22.22,0,0,0-.06-.18.43.43,0,0,0-.32-.1.07.07,0,0,1-.07-.06v-.43a.07.07,0,0,1,.07-.07h4.23a1.26,1.26,0,0,1,.72.14.19.19,0,0,1,.07.15.42.42,0,0,1-.23.39l-1.31.82c-.09,0-.11,0-.11-.07v-.14c0-.11,0-.17.16-.31a.32.32,0,0,0,.08-.25c0-.24-.26-.24-.38-.24H16.71v2a.26.26,0,0,0,.27.28h1.13a.41.41,0,0,1,.24.08.27.27,0,0,1,.09.21v.66"/><path class="cls-1" d="M31.7,23.88h-.07a.32.32,0,0,1-.23-.08.37.37,0,0,1-.08-.23s0-3.25,0-3.27,0-.08,0-.09H29.8a.07.07,0,0,0-.07.06v.21a.07.07,0,0,0,.07.07h.08a.32.32,0,0,1,.23.08.3.3,0,0,1,.08.23s0,2.66,0,2.72a.27.27,0,0,1-.08.23.31.31,0,0,1-.23.08h0a.07.07,0,0,0-.07.06v.21a.07.07,0,0,0,.07.07H31.7a.07.07,0,0,0,.07-.07v-.21a.07.07,0,0,0-.07-.06"/><path class="cls-1" d="M21.09,21.64c-.36,0-1.21-.1-1.21-.53a.49.49,0,0,1,.52-.49h.1a1,1,0,0,1,.62.11.3.3,0,0,1,.09.24v.69h-.13m.13,1.83c0,.31-.35.34-.73.34a.67.67,0,0,1-.46-.15.7.7,0,0,1-.18-.54h0a1,1,0,0,1,.4-.81,3.61,3.61,0,0,1,.89-.37l.09,0Zm1.55.4a.37.37,0,0,1-.34-.35V21.1s0-.82-1.15-.88a6.09,6.09,0,0,0-1.56,0c-.69.13-.84.55-.83.89s.21.6.82.6h.16c.25,0,.35,0,.39,0a.09.09,0,0,1,0,.07c0,.06-.1.1-.31.18-.49.19-1.41.53-1.41,1.44a.71.71,0,0,0,.42.6,2.53,2.53,0,0,0,2.17,0l0,0a.2.2,0,0,1,.26,0l0,0a.31.31,0,0,0,.25.14h1.07a.07.07,0,0,0,.07-.07v-.21s0-.05-.09-.06"/><path class="cls-1" d="M32.08,13.68a.06.06,0,0,0,0,.06s0,0,.08,0h0c.21,0,.42,0,.52.74.07.47.17,1.62-.27,2.08a.6.6,0,0,1-.44.18.48.48,0,0,1-.34-.14c-.47-.44-.41-1.84-.4-1.9a2,2,0,0,1,.54-1.38.79.79,0,0,1,.61-.14.11.11,0,0,0,.09,0,.06.06,0,0,0,0-.06s0,0-.13-.09a1.76,1.76,0,0,0-1.28.06,2,2,0,0,0-1.11,2c0,1.84,1.09,2,1.5,2h0c.42.06,1.82.16,2.26-.86a3.33,3.33,0,0,0-.1-2.53.93.93,0,0,0-.51-.5,1.25,1.25,0,0,0-1.1.44"/><path class="cls-1" d="M16.14,13.74a.92.92,0,0,0-.51-.5,1.26,1.26,0,0,0-1.1.44.06.06,0,0,0,0,.06.1.1,0,0,0,.08,0h0c.21,0,.42,0,.53.74.05.37.19,1.61-.27,2.08a.59.59,0,0,1-.44.18.49.49,0,0,1-.34-.14c-.47-.44-.41-1.84-.4-1.9a2,2,0,0,1,.54-1.38.79.79,0,0,1,.61-.14.11.11,0,0,0,.09,0,.06.06,0,0,0,0-.06s0,0-.13-.09a1.75,1.75,0,0,0-1.28.06,2,2,0,0,0-1.11,2c0,1.85,1.09,2,1.5,2h0c.42.06,1.82.16,2.26-.86a3.34,3.34,0,0,0-.1-2.53"/><path class="cls-1" d="M17.85,13.06H16.71c-.09,0-.2,0-.2.2a.17.17,0,0,0,0,.13.26.26,0,0,0,.14,0,.34.34,0,0,1,.25.07.57.57,0,0,1,.15.45v2.44a.27.27,0,0,1-.06.23.33.33,0,0,1-.24.09h0a.07.07,0,0,0-.07.06V17a.07.07,0,0,0,.07.07h1.82a.07.07,0,0,0,.07-.07v-.21a.07.07,0,0,0-.07-.06h0a.3.3,0,0,1-.23-.08.28.28,0,0,1-.08-.23c0-.06,0-2.4,0-2.4s.11-.4.54-.4.52.33.52.43,0,2.28,0,2.36a.27.27,0,0,1-.08.24.31.31,0,0,1-.23.08h0a.07.07,0,0,0-.08.06V17A.07.07,0,0,0,19,17h1.83a.07.07,0,0,0,.07-.07v-.21a.07.07,0,0,0-.07-.06h0a.3.3,0,0,1-.22-.08.31.31,0,0,1-.08-.23V14.06h0a.45.45,0,0,1,.13-.35.61.61,0,0,1,.42-.13.5.5,0,0,1,.34.11.48.48,0,0,1,.13.38v2.3a.27.27,0,0,1-.31.32h0a.07.07,0,0,0-.07.06V17a.07.07,0,0,0,.07.07H23a.07.07,0,0,0,.07-.07v-.21a.07.07,0,0,0-.07-.06h0a.31.31,0,0,1-.23-.08.28.28,0,0,1-.08-.23s0-2.34,0-2.34a1.06,1.06,0,0,0-.32-.78,1.58,1.58,0,0,0-2,.19.24.24,0,0,1-.16.08c-.09,0-.14,0-.19-.16s-.21-.35-.86-.35c-.86,0-1,.42-1,.42s-.15-.37-.42-.37"/><path class="cls-1" d="M30.24,12.47s0-.07,0-.08-.09,0-.13,0a2.55,2.55,0,0,1-.8.11.36.36,0,0,1-.25-.08.17.17,0,0,1-.06-.12V11.6c0-.28-.21-.3-.21-.3H27.54a.06.06,0,0,0-.06.05v.19a.06.06,0,0,0,.06.05.37.37,0,0,1,.28.09.19.19,0,0,1,.05.16s0,.43,0,.43a.2.2,0,0,1-.06.16.17.17,0,0,1-.11,0h-.45a.06.06,0,0,0-.06.05v.58a.06.06,0,0,0,.06.05h.6v3.24c0,.73.45.73.64.73a1.65,1.65,0,0,0,1.32-.64.14.14,0,0,0-.06-.17.14.14,0,0,0-.1,0c-.23.07-.65,0-.65-.41V13.19h0c.67,0,1.07-.24,1.19-.72"/><path class="cls-1" d="M36.14,16.68h-.07a.32.32,0,0,1-.23-.08.37.37,0,0,1-.08-.23s0-3.25,0-3.27,0-.08,0-.09H34.24a.07.07,0,0,0-.07.07v.21a.07.07,0,0,0,.07.06h.08a.31.31,0,0,1,.23.08.3.3,0,0,1,.08.23v2.72a.27.27,0,0,1-.08.23.31.31,0,0,1-.23.08h0a.07.07,0,0,0-.07.06V17a.07.07,0,0,0,.07.07h1.83a.07.07,0,0,0,.07-.07v-.21a.07.07,0,0,0-.07-.06"/><path class="cls-1" d="M40.16,13.7a1,1,0,0,0-.58-.66,1.27,1.27,0,0,0-1.24.24c-.09.09-.17.12-.23.09a.09.09,0,0,1-.06-.09v-.22A.07.07,0,0,0,38,13H36.43a.07.07,0,0,0-.07.07v.21a.07.07,0,0,0,.07.06h.24a.31.31,0,0,1,.23.08.29.29,0,0,1,.07.23v2.71a.34.34,0,0,1-.09.24.27.27,0,0,1-.19.07h0a.07.07,0,0,0-.07.06V17a.07.07,0,0,0,.07.07h1.83a.07.07,0,0,0,.07-.07v-.21a.07.07,0,0,0-.07-.06h-.07a.31.31,0,0,1-.23-.08.3.3,0,0,1-.08-.24c0-.14,0-2.23,0-2.23a.46.46,0,0,1,.44-.52.55.55,0,0,1,.39.12.54.54,0,0,1,.13.43v0c0,.19.27.25.34.26l.74-.5a.34.34,0,0,0,0-.26"/><path class="cls-1" d="M35.4,11.87h-.56a.34.34,0,1,0,0,.68h.56a.34.34,0,1,0,0-.68"/><path class="cls-1" d="M25.91,13.12a1.2,1.2,0,0,0-.84.21.39.39,0,0,1-.24.1.25.25,0,0,1-.19-.07.26.26,0,0,1-.06-.2v-.07a.06.06,0,0,0-.06-.05H23.28a.06.06,0,0,0-.06.05v.19a.06.06,0,0,0,.06.05.38.38,0,0,1,.28.09.2.2,0,0,1,.05.16V17.8a.3.3,0,0,1-.08.23.31.31,0,0,1-.23.08h0a.07.07,0,0,0-.07.06v.21a.07.07,0,0,0,.07.07h1.86a.07.07,0,0,0,.07-.07v-.21a.07.07,0,0,0-.07-.06h-.07a.28.28,0,0,1-.31-.31V14.08a.54.54,0,0,1,1.08,0V16c0,.76-.42.79-.57.7s-.17-.08-.22,0-.08.13.13.29a1.08,1.08,0,0,0,1,.11,1.8,1.8,0,0,0,1-1.79c0-1.4-.43-2.1-1.27-2.11"/><path class="cls-1" d="M13.35,17.26a2.89,2.89,0,0,1-.72-.44,1.72,1.72,0,0,1-1.75.38c-1.14-.26-1.44-1.34-1.44-3.06,0-1.37.4-2.63,1.63-2.63a1,1,0,0,1,1,.71s0,0,0,0a.42.42,0,0,1-.08.31.59.59,0,0,0-.17.38v.17c0,.08,0,.13.12.08l1-.73a.5.5,0,0,0,.25-.48.33.33,0,0,0-.06-.17,2.28,2.28,0,0,0-2-.95,3.49,3.49,0,0,0-3.26,3.69,3.42,3.42,0,0,0,3,3.52,4.57,4.57,0,0,0,.93,0,2.47,2.47,0,0,0,1.47-.79"/></g></g></svg>