<svg xmlns="http://www.w3.org/2000/svg" viewBox="0 0 30.97 30.97"><defs><style>.cls-1{fill:#4b4b4b;}</style></defs><title>Corep_logo</title><g id="Calque_2" data-name="Calque 2"><g id="Calque_1-2" data-name="Calque 1"><path class="cls-1" d="M25.32,17.7a2.4,2.4,0,0,1-1.61-.76v3.25h-.83V15h0v0a2.39,2.39,0,0,1,2.57-2.55,2.45,2.45,0,0,1,2.33,2.69,2.4,2.4,0,0,1-2.44,2.58m-3-2.34H18.55a1.58,1.58,0,0,0,2,1.6,1.08,1.08,0,0,0,.42-.1v.73s-.19.17-1,.14a2.09,2.09,0,0,1-1.83-.95,3.28,3.28,0,0,1-.46-2.05,2.51,2.51,0,0,1,1.17-1.94,2.4,2.4,0,0,1,2.08-.18,2.52,2.52,0,0,1,1.33,1.86,3.12,3.12,0,0,1,.08.88m-.62,4.88c-.29,0-.46-.13-.47-.37h.22c0,.13.1.2.25.2S22,20,22,19.92s0-.11-.25-.16a1,1,0,0,1-.3-.09.25.25,0,0,1-.13-.23c0-.19.16-.31.43-.31s.42.11.44.33h-.22c0-.11-.08-.16-.23-.16s-.19,0-.19.12,0,.1.27.15.41.15.41.32-.18.34-.47.34m-1-.17a.24.24,0,0,0,.26-.19h.22a.46.46,0,0,1-.48.36.5.5,0,0,1-.52-.54.52.52,0,0,1,.51-.57c.31,0,.5.23.5.61h-.78c0,.21.11.33.29.33m-.55-.71H20a.28.28,0,0,0-.26.16.62.62,0,0,0,0,.28v.42H19.5V19.16h.22v.21a.37.37,0,0,1,.36-.23h0Zm-1.59-.66h.25l.15.31h-.15Zm.3,1.37a.25.25,0,0,0,.26-.19h.22a.46.46,0,0,1-.48.36.5.5,0,0,1-.52-.54.52.52,0,0,1,.51-.57c.31,0,.5.23.5.61h-.78c0,.21.11.33.29.33M18.14,19h-.23v-.22h.23Zm0,1.24h-.23V19.16h.23Zm-.47,0h-.23v-.65c0-.18-.05-.24-.19-.24a.22.22,0,0,0-.21.14.47.47,0,0,0,0,.19v.57h-.23v-.66c0-.17,0-.23-.17-.23a.23.23,0,0,0-.22.14.5.5,0,0,0,0,.18v.57h-.23V19.16h.22v.15a.38.38,0,0,1,.33-.18.3.3,0,0,1,.3.18.39.39,0,0,1,.34-.18.32.32,0,0,1,.35.36Zm-1.78,0h-.22v-.16a.4.4,0,0,1-.35.18.36.36,0,0,1-.29-.13.43.43,0,0,1-.07-.28v-.68h.23v.6a.52.52,0,0,0,0,.18.18.18,0,0,0,.19.11.24.24,0,0,0,.22-.14.52.52,0,0,0,0-.23v-.52h.23Zm-1.16,0H14.5V18.75h.23Zm-2.84-2.47A2.44,2.44,0,0,1,9.44,15,2.39,2.39,0,0,1,12,12.46a2.45,2.45,0,0,1,2.33,2.7,2.41,2.41,0,0,1-2.45,2.59m1.42,2.33a.24.24,0,0,0,.26-.19h.22a.46.46,0,0,1-.48.36.5.5,0,0,1-.52-.54.52.52,0,0,1,.51-.57c.32,0,.5.23.5.61H13c0,.21.11.33.29.33m-.7.14h-.22v-.14a.36.36,0,0,1-.34.17c-.3,0-.48-.22-.48-.56s.18-.55.48-.55a.37.37,0,0,1,.33.17v-.54h.23ZM11,19.36h-.08a.28.28,0,0,0-.26.16.64.64,0,0,0,0,.28v.42h-.23V19.16h.22v.21a.37.37,0,0,1,.36-.23h0Zm-.86.85H9.93v-.16a.4.4,0,0,1-.35.18.37.37,0,0,1-.3-.13.44.44,0,0,1-.07-.28v-.68h.23v.6a.52.52,0,0,0,0,.18.18.18,0,0,0,.19.11.24.24,0,0,0,.22-.14.54.54,0,0,0,0-.23v-.52h.23Zm-1.59-.14a.24.24,0,0,0,.26-.19H9a.46.46,0,0,1-.48.36A.5.5,0,0,1,8,19.7a.52.52,0,0,1,.51-.57c.31,0,.5.23.5.61H8.27c0,.21.11.33.29.33M8,19.33H7.77v.55c0,.13,0,.16.13.16H8v.18H7.83c-.15,0-.22,0-.26-.1s0-.09,0-.29v-.5H7.36v-.17h.18v-.32h.23v.32H8Zm-.63.89-.15,0c-.1,0-.15,0-.17-.13a.53.53,0,0,1-.37.13.31.31,0,0,1-.35-.31.28.28,0,0,1,.17-.27.58.58,0,0,1,.17,0h.13c.23,0,.24,0,.24-.14s-.07-.16-.21-.16-.22,0-.24.18H6.35c0-.24.18-.36.47-.36a.54.54,0,0,1,.36.11.28.28,0,0,1,.07.22s0,0,0,.15a.8.8,0,0,0,0,.08v.09c0,.07,0,.11,0,.13s0,.14.06.14h.05Zm-1.64-.15A.24.24,0,0,0,6,19.88h.22a.46.46,0,0,1-.48.36.5.5,0,0,1-.52-.54.52.52,0,0,1,.51-.57c.31,0,.5.23.5.61H5.42c0,.21.11.33.29.33m-.55-.71H5.08a.28.28,0,0,0-.26.16.62.62,0,0,0,0,.28v.42H4.55V19.16h.22v.21a.37.37,0,0,1,.36-.23h0ZM6,18.7,5.74,19H5.58l.15-.31Zm-2.4-2.85a5,5,0,0,1-.32-1.94c.08-2.36,1.36-3.57,3.46-3.56a2.75,2.75,0,0,1,2.68,1.9h-1a1.91,1.91,0,0,0-2-1.08c-1.21,0-2.25,1-2.27,2.77,0,2.82,1.84,3,2.38,3a2.1,2.1,0,0,0,1.65-.8h1a2.77,2.77,0,0,1-2.75,1.6,2.89,2.89,0,0,1-2.93-1.89m.31,4.39a.5.5,0,0,1-.52-.54.51.51,0,0,1,.52-.57.43.43,0,0,1,.48.38H4.15a.22.22,0,0,0-.24-.2c-.18,0-.29.14-.29.37s.1.37.28.37a.25.25,0,0,0,.26-.24h.23a.46.46,0,0,1-.49.42M15,16.31v-3.6h.83v.34a2.61,2.61,0,0,1,1.89-.58v.7a1.9,1.9,0,0,0-1.48.51,1.78,1.78,0,0,0-.37,1.41c0,1.17,0,2.65,0,2.65H15s0-.74,0-1.43M15.48,0A15.48,15.48,0,1,0,31,15.48,15.48,15.48,0,0,0,15.48,0"/></g></g></svg>