<svg xmlns="http://www.w3.org/2000/svg" viewBox="0 0 36.94 36.94"><defs><style>.cls-1{fill:#4b4b4b;}</style></defs><title>cote-table_logo</title><g id="Calque_2" data-name="Calque 2"><g id="Calque_1-2" data-name="Calque 1"><path class="cls-1" d="M18.51,1.8A16.63,16.63,0,1,0,35.17,18.44,16.67,16.67,0,0,0,18.51,1.8m0,34.14A17.51,17.51,0,1,1,36,18.44,17.54,17.54,0,0,1,18.51,35.94"/><path class="cls-1" d="M31.18,16a1,1,0,0,0-.37.36,1,1,0,0,0-.13.5,1,1,0,0,0,0,.26,1,1,0,0,0,.1.23,1,1,0,0,0,.35.35,1,1,0,0,0,.88,0,1,1,0,0,0,.32-.22,1,1,0,0,0,.21-.32,1,1,0,0,0,.07-.38,1.08,1.08,0,0,0-.07-.38.9.9,0,0,0-.2-.3.88.88,0,0,0-.3-.2l-.19-.06-.2,0a1,1,0,0,0-.5.13m.94,1.21-.31-.37a.45.45,0,0,0,.14-.12.24.24,0,0,0,.05-.14c0-.11-.08-.18-.23-.2l-.16,0h-.27v.94h.17v-.09c0-.05,0-.1,0-.13v-.18c0-.06,0-.12,0-.19s0-.14,0-.22a.58.58,0,0,1,.23,0,.11.11,0,0,1,.07.11h0c0,.07-.07.15-.2.22l.1.13.14.18.12.16ZM32,16.13a.73.73,0,0,1,.25.19.86.86,0,0,1,.16.27.88.88,0,0,1,.06.31.84.84,0,0,1-.1.42.8.8,0,0,1-.29.31.74.74,0,0,1-.4.11.78.78,0,0,1-.24,0,.76.76,0,0,1-.45-.4.93.93,0,0,1-.07-.18.87.87,0,0,1,0-.21.89.89,0,0,1,.1-.4.81.81,0,0,1,.27-.31.71.71,0,0,1,.41-.12.77.77,0,0,1,.32.07"/><path class="cls-1" d="M18.47,9.46a9,9,0,1,0,9.06,9,9.06,9.06,0,0,0-9.06-9m0,18.76a9.71,9.71,0,1,1,9.73-9.71,9.74,9.74,0,0,1-9.73,9.71"/><path class="cls-1" d="M18.47.33A18.14,18.14,0,1,0,36.61,18.47,18.16,18.16,0,0,0,18.47.33m0,36.61A18.47,18.47,0,1,1,36.94,18.47,18.49,18.49,0,0,1,18.47,36.94"/><path class="cls-1" d="M7,8.51l1.07,1a2,2,0,0,0-.69.1,1.21,1.21,0,0,0-.49.33,1.16,1.16,0,0,0-.32.93,1.44,1.44,0,0,0,.51.93,1.35,1.35,0,0,0,.95.38,1.18,1.18,0,0,0,.89-.42,1.21,1.21,0,0,0,.28-.52,1.93,1.93,0,0,0,0-.69l1.07,1a3.09,3.09,0,0,1-.25.61,2.59,2.59,0,0,1-.36.51,2.69,2.69,0,0,1-.56.48,2.05,2.05,0,0,1-.62.26,2.42,2.42,0,0,1-1.22,0,2.87,2.87,0,0,1-1.73-1.41A2.42,2.42,0,0,1,5.31,11a2.22,2.22,0,0,1,.12-.92,2.51,2.51,0,0,1,.51-.82,2.62,2.62,0,0,1,.47-.41A3.08,3.08,0,0,1,7,8.51"/><polygon class="cls-1" points="21.32 8.27 22.57 4.83 21.56 4.46 21.95 3.4 25.2 4.58 24.81 5.65 23.8 5.28 22.55 8.71 21.32 8.27"/><path class="cls-1" d="M30.88,8.51l1.23,2.1-.26.17L30.66,8.62Zm-4.63,2.41L30.4,8.52l1.47,2.54-.91.52-.83-1.44-.73.42.78,1.36-.89.51-.78-1.36-.7.4.83,1.44-.93.54Z"/><polygon class="cls-1" points="27.6 31.23 24.21 27.85 25.13 26.93 27.73 29.52 28.89 28.37 29.68 29.16 27.6 31.23"/><polygon class="cls-1" points="32.28 25.91 27.94 23.88 29.18 21.23 30.13 21.67 29.43 23.18 30.19 23.53 30.85 22.11 31.78 22.54 31.12 23.96 31.85 24.3 32.55 22.8 33.53 23.25 32.28 25.91"/><polygon class="cls-1" points="4.01 24.49 7.18 22.66 6.65 21.73 7.63 21.16 9.36 24.15 8.38 24.72 7.84 23.79 4.67 25.62 4.01 24.49"/><path class="cls-1" d="M19.83,32.67a1,1,0,0,1-.46.08H19V32h.34a.91.91,0,0,1,.46.08.33.33,0,0,1,.12.29.29.29,0,0,1-.14.27m-1-2V30h.34a.89.89,0,0,1,.46.09.33.33,0,0,1,.12.29.29.29,0,0,1-.14.27,1,1,0,0,1-.46.08Zm2.64,1.7a1.22,1.22,0,0,0-.29-.85,1.15,1.15,0,0,0-.8-.36,1.3,1.3,0,0,0,.67-.36,1,1,0,0,0,.21-.65,1.13,1.13,0,0,0-.14-.57,1,1,0,0,0-.4-.4A1.74,1.74,0,0,0,20.2,29,8.29,8.29,0,0,0,19.06,29H17.75v4.79h1.35a8.89,8.89,0,0,0,1.18-.05,1.92,1.92,0,0,0,.61-.18,1.12,1.12,0,0,0,.47-.45,1.36,1.36,0,0,0,.16-.67"/><path class="cls-1" d="M9.51,30.82l.65-.6,1.59,1-.23.85,1.11.67,1.06-5-1.4-.84-3.9,3.24ZM12,28.64l.16-.15.17-.17-.09.28,0,.16-.28,1.12-.78-.47Z"/><path class="cls-1" d="M13.22,4.16l.68-.56.77.26.66-.14-.89-.63-1.2.25-.7,1Zm3.45,1.06A2.43,2.43,0,0,0,16,4.49a2.53,2.53,0,0,0-.89-.44,2.64,2.64,0,0,0-2,.24,2.52,2.52,0,0,0-.76.64,2.46,2.46,0,0,0,.43,3.53,2.54,2.54,0,0,0,.89.44A2.63,2.63,0,0,0,16.46,8a2.48,2.48,0,0,0,.45-.87,2.54,2.54,0,0,0-.24-1.92m-3,2.36a1.48,1.48,0,0,1-.47-1,1.47,1.47,0,0,1,.23-1,1.2,1.2,0,0,1,1.78-.22,1.46,1.46,0,0,1,.48,1,1.46,1.46,0,0,1-.23,1,1.22,1.22,0,0,1-1.79.22"/><polygon class="cls-1" points="22.82 15.39 23.36 14.84 21.77 13.27 21.26 13.73 18.4 10.72 10.29 19.29 12.98 19.29 12.98 24 17.63 23.97 17.63 21.26 19.2 21.26 19.27 24.12 23.95 23.99 23.95 19.31 26.46 19.31 22.82 15.39"/></g></g></svg>