<svg xmlns="http://www.w3.org/2000/svg" viewBox="0 0 36.95 36.95"><defs><style>.cls-1{fill:#4b4b4b;}</style></defs><title>genevieve-lethu_logo</title><g id="Calque_2" data-name="Calque 2"><g id="Calque_1-2" data-name="Calque 1"><path class="cls-1" d="M36.95,36.95H0V0H36.95ZM.62,36.33H36.33V.62H.62Z"/><path class="cls-1" d="M4.61,15.27a2.36,2.36,0,1,1,0-4.73,2.48,2.48,0,0,1,1.86.84,1.61,1.61,0,0,1,.3.46H6.23A1.91,1.91,0,0,0,4.61,11a2,2,0,1,0,0,3.9A1.94,1.94,0,0,0,6.47,13.5H3.93v-.41H7a2.4,2.4,0,0,1-2.41,2.18"/><polygon class="cls-1" points="7.73 15.19 7.73 10.62 10.23 10.62 10.23 11.03 8.18 11.03 8.18 12.68 10.16 12.68 10.16 13.09 8.18 13.09 8.18 14.77 10.23 14.77 10.23 15.19 7.73 15.19"/><polygon class="cls-1" points="14.26 15.19 11.55 11.17 11.54 11.17 11.54 15.19 11.08 15.19 11.08 10.62 11.7 10.62 14.25 14.41 14.26 14.41 14.26 10.62 14.72 10.62 14.72 15.19 14.26 15.19"/><polygon class="cls-1" points="15.62 15.19 15.62 10.62 18.12 10.62 18.12 11.03 16.08 11.03 16.08 12.68 18.05 12.68 18.05 13.09 16.08 13.09 16.08 14.77 18.12 14.77 18.12 15.19 15.62 15.19"/><polygon class="cls-1" points="20.9 15.19 20.45 15.19 18.57 10.62 19.08 10.62 20.68 14.62 22.3 10.62 22.8 10.62 20.9 15.19"/><rect class="cls-1" x="23.32" y="10.62" width="0.46" height="4.57"/><path class="cls-1" d="M24.68,15.19V10.62h2.5V11h-2v1.64h2v.41h-2v1.68h2v.41Zm1.7-4.82L25.16,9.7l.2-.37,1.23.67Z"/><polygon class="cls-1" points="29.91 15.19 29.45 15.19 27.57 10.62 28.08 10.62 29.69 14.62 31.3 10.62 31.8 10.62 29.91 15.19"/><polygon class="cls-1" points="32.29 15.19 32.29 10.62 34.78 10.62 34.78 11.03 32.74 11.03 32.74 12.68 34.72 12.68 34.72 13.09 32.74 13.09 32.74 14.77 34.78 14.77 34.78 15.19 32.29 15.19"/><polygon class="cls-1" points="2.29 25.78 2.29 16.43 4.02 16.43 4.02 24.16 6.87 24.16 6.87 25.78 2.29 25.78"/><polygon class="cls-1" points="7.71 25.78 7.71 16.43 12.73 16.43 12.73 18.05 9.44 18.05 9.44 20.34 12.59 20.34 12.59 21.95 9.44 21.95 9.44 24.16 12.73 24.16 12.73 25.78 7.71 25.78"/><polygon class="cls-1" points="17.04 18.05 17.04 25.78 15.31 25.78 15.31 18.05 13.58 18.05 13.58 16.43 18.78 16.43 18.78 18.05 17.04 18.05"/><polygon class="cls-1" points="24.78 25.78 24.78 21.85 21.44 21.85 21.44 25.78 19.71 25.78 19.71 16.43 21.44 16.43 21.44 20.23 24.78 20.23 24.78 16.43 26.51 16.43 26.51 25.78 24.78 25.78"/><path class="cls-1" d="M34.24,24.58A3.43,3.43,0,0,1,31.45,26a3.5,3.5,0,0,1-2.78-1.34,3.82,3.82,0,0,1-.58-2.26V16.43h1.73v5.94c0,1.09.35,2,1.62,2s1.62-.9,1.62-2V16.43h1.73v5.94a3.86,3.86,0,0,1-.54,2.21"/></g></g></svg>