<svg xmlns="http://www.w3.org/2000/svg" viewBox="0 0 57.16 18.57"><defs><style>.cls-1{fill:#4b4b4b;}</style></defs><title>Harmony_logo</title><g id="Calque_2" data-name="Calque 2"><g id="Calque_1-2" data-name="Calque 1"><path class="cls-1" d="M51.18,14a.48.48,0,0,0,.54-.48c0-.61-.89-.46-.89-.86,0-.18.12-.28.32-.28a.32.32,0,0,1,.35.34h.2a.51.51,0,0,0-.54-.53.47.47,0,0,0-.52.47c0,.6.89.44.89.86,0,.19-.13.3-.34.3a.34.34,0,0,1-.38-.36h-.2a.54.54,0,0,0,.58.56m-1.27-1.81a.5.5,0,0,0-.45.26h0l0-.22h-.16v1.74h.19V12.87c0-.33.16-.53.41-.53a.62.62,0,0,1,.22,0v-.21l-.18,0m-1.89,0v1.05c0,.34-.16.54-.4.54s-.32-.16-.32-.51V12.18H47.1V13.3c0,.48.18.66.47.66a.49.49,0,0,0,.45-.25l0,.22h.16V12.18Zm-2.47.15c.24,0,.38.14.38.43V13h-.75v-.2c0-.29.14-.43.37-.43m.4,1.05a.36.36,0,0,1-.4.38c-.23,0-.37-.14-.37-.43v-.19h.94v-.38a.55.55,0,0,0-.58-.62.55.55,0,0,0-.56.62v.57a.55.55,0,0,0,.56.62.56.56,0,0,0,.61-.57Zm-2.17.53H44V12.18h-.2Zm.1-2.06A.15.15,0,0,0,44,11.7c0-.1-.06-.27-.16-.27s-.16.17-.16.27a.15.15,0,0,0,.16.16m-1.15.29a.5.5,0,0,0-.45.26h0l0-.22h-.16v1.74h.19V12.87c0-.33.16-.53.41-.53a.62.62,0,0,1,.22,0v-.21l-.17,0m-2.22.19c.24,0,.38.14.38.43V13h-.75v-.2c0-.29.14-.43.37-.43m.4,1.05a.36.36,0,0,1-.4.38c-.23,0-.37-.14-.37-.43v-.19h.94v-.38a.55.55,0,0,0-.58-.62.55.55,0,0,0-.56.62v.57a.54.54,0,0,0,.56.62.55.55,0,0,0,.61-.57Zm-.1-2h-.23l-.25.48h.19ZM39,13.75c-.21,0-.3-.12-.3-.35v-1H39v-.18h-.36v-.4H38.5v.4h-.27v.18h.27v1a.47.47,0,0,0,.49.53h.1v-.19ZM36.9,12.14a.49.49,0,0,0-.45.25l0-.22h-.16v1.74h.19V12.87c0-.34.16-.54.4-.54s.32.16.32.51v1.08h.19V12.81c0-.48-.18-.67-.47-.67M35,13.92h.2V12.18H35Zm.1-2.06a.15.15,0,0,0,.16-.16c0-.1-.06-.27-.16-.27s-.16.17-.16.27a.15.15,0,0,0,.16.16m-1-.39-.07.8h.14l.15-.8Zm-1.26,2.31c-.24,0-.38-.14-.38-.48v-.5c0-.33.13-.47.38-.47s.36.19.36.47v.51c0,.32-.16.48-.36.48m.36-2.36v.92a.49.49,0,0,0-.4-.19c-.33,0-.54.22-.54.65v.5c0,.44.22.66.54.66a.49.49,0,0,0,.41-.2l0,.16h.16V11.42Zm-2.35.73a.5.5,0,0,0-.45.26h0l0-.22h-.16v1.74h.2V12.87c0-.33.16-.53.41-.53a.62.62,0,0,1,.22,0v-.21l-.18,0m-1.89,0v1.05c0,.34-.16.54-.4.54s-.32-.16-.32-.51V12.18h-.19V13.3c0,.48.19.66.47.66a.49.49,0,0,0,.45-.25l0,.22h.16V12.18Zm-2.47.15c.24,0,.38.14.38.43V13h-.75v-.2c0-.29.14-.43.37-.43m.4,1.05a.36.36,0,0,1-.4.38c-.23,0-.37-.14-.37-.43v-.19h.94v-.38a.55.55,0,0,0-.58-.62.55.55,0,0,0-.56.62v.57a.54.54,0,0,0,.56.62.55.55,0,0,0,.61-.57ZM25,13.75c-.2,0-.3-.12-.3-.35v-1h.36v-.18h-.36v-.4h-.19v.4h-.26v.18h.26v1a.47.47,0,0,0,.49.53h.1v-.19Zm-2.2,0c-.23,0-.38-.11-.38-.34s.14-.34.39-.34h.35v.34a.33.33,0,0,1-.36.34m0-1.63a.5.5,0,0,0-.55.49h.19a.32.32,0,0,1,.35-.31c.22,0,.34.14.34.39v.19h-.34c-.38,0-.6.19-.6.52a.51.51,0,0,0,.55.53.47.47,0,0,0,.4-.2l0,.16h.17v-1.2a.52.52,0,0,0-.53-.58m-2.09.19c.24,0,.38.14.38.43V13h-.75v-.2c0-.29.14-.43.37-.43m.41,1.05a.36.36,0,0,1-.41.38c-.23,0-.37-.14-.37-.43v-.19h.94v-.38a.55.55,0,0,0-.58-.62.55.55,0,0,0-.56.62v.57a.55.55,0,0,0,.56.62.55.55,0,0,0,.61-.57ZM21,11.54h-.23l-.25.37h.19Zm-1.85.6a.5.5,0,0,0-.45.26h0l0-.22h-.16v1.74h.19V12.87c0-.33.16-.53.41-.53a.62.62,0,0,1,.22,0v-.21l-.17,0M17,14a.56.56,0,0,0,.58-.62h-.2c0,.29-.15.43-.38.43s-.36-.14-.36-.43v-.57c0-.29.13-.43.36-.43s.36.14.38.43h.2a.56.56,0,0,0-.57-.62.54.54,0,0,0-.56.62v.57A.54.54,0,0,0,17,14"/><path class="cls-1" d="M38.37,4.65a2.05,2.05,0,0,0-1.86,1,1.61,1.61,0,0,0-1.59-1,2,2,0,0,0-1.61.73V4.73l-.77.3v5.82h.77V7.17c0-1.1.6-1.83,1.49-1.83S36,5.89,36,7v3.83h.78V7.17c0-1.11.6-1.83,1.52-1.83.76,0,1.13.55,1.13,1.68v3.83h.78V7c0-1.48-.65-2.33-1.79-2.33"/><path class="cls-1" d="M30.84,4.65a2.13,2.13,0,0,0-1.68.76V4.73l-.78.3v5.81h.78V7.17a1.61,1.61,0,0,1,1.57-1.81,2.89,2.89,0,0,1,.78.1l.14,0V4.75l-.08,0a3.11,3.11,0,0,0-.72-.07"/><path class="cls-1" d="M43.72,4.65a2,2,0,0,0-2.24,2.11V8.86A2,2,0,0,0,43.72,11,2,2,0,0,0,46,8.86V6.77a2,2,0,0,0-2.24-2.11m0,5.62a1.31,1.31,0,0,1-1.47-1.42V6.77a1.31,1.31,0,0,1,1.47-1.42,1.3,1.3,0,0,1,1.45,1.42V8.86a1.3,1.3,0,0,1-1.45,1.42"/><path class="cls-1" d="M56.24,5l-1.43,4.1-1.7-4.36-.72.3,2.07,5.11-.78,2.3c-.19.5-.39.81-.84.81h-.44V14h.51c.94,0,1.31-.72,1.53-1.35l2.74-7.89Z"/><polygon class="cls-1" points="20.51 7.25 17.28 7.25 17.28 4.66 16.48 4.66 16.48 10.85 17.28 10.85 17.28 7.91 20.51 7.91 20.51 10.85 21.32 10.85 21.32 4.66 20.51 4.66 20.51 7.25"/><path class="cls-1" d="M25,4.65a1.91,1.91,0,0,0-2.15,1.69v.12h.79V6.36c0-.61.57-1,1.35-1a1.16,1.16,0,0,1,1.3,1.29v.63H25c-1.51,0-2.37.67-2.37,1.83A1.88,1.88,0,0,0,24.76,11a2.15,2.15,0,0,0,1.54-.55v.43h.76V6.61a1.87,1.87,0,0,0-2.06-2m-.17,5.62c-.88,0-1.4-.44-1.4-1.18,0-1,.85-1.17,1.57-1.17h1.29V9c0,.79-.53,1.24-1.45,1.24"/><path class="cls-1" d="M49.74,4.65A2.15,2.15,0,0,0,48,5.4V4.73l-.77.3v5.82H48V7.17c0-1.11.62-1.83,1.57-1.83s1.21.54,1.21,1.69v3.82h.78V7c0-1.49-.66-2.3-1.86-2.3"/><path class="cls-1" d="M6.69,0,0,4.66V13.9l6.69,4.66,6.69-4.66V4.66Zm.23.72,1.49,1-1.49,1ZM3.7,2.65,6.46.72v3.8Zm3.22.72L8.82,2l2.35,1.64-4.25,3Zm-4.69.3,1.06-.74L6.46,5.07V6.63ZM.46,6.8V4.9l1.37-1L6.46,7.19v3.75Zm6.46.42L11.58,4l1.18.82L6.92,8.88Zm0,2.23,6-4.22v4l-6,4.12Zm-6.46,2V7.36l6,4.14v4.06Zm6.46,2.45,6-4.12v1.63l-6,4.1Zm0,2.18,6-4.1v1.67l-6,4.18ZM.46,13.66V12l6,4.08v1.73Z"/></g></g></svg>