<svg 
 xmlns="http://www.w3.org/2000/svg"
 xmlns:xlink="http://www.w3.org/1999/xlink"
 width="19px" height="13px">
<path fill-rule="evenodd"  fill="rgb(255, 255, 255)"
 d="M14.390,2.236 C12.807,1.226 11.067,0.720 9.171,0.720 C7.275,0.720 5.535,1.226 3.952,2.236 C2.369,3.247 1.140,4.585 0.265,6.252 C0.203,6.397 0.171,6.554 0.171,6.721 C0.171,6.888 0.203,7.044 0.265,7.189 C0.848,8.294 1.588,9.257 2.484,10.080 C3.379,10.903 4.406,11.549 5.562,12.017 C6.718,12.486 7.921,12.720 9.171,12.720 C11.067,12.720 12.807,12.216 14.390,11.205 C15.973,10.195 17.202,8.856 18.078,7.189 C18.140,7.044 18.171,6.888 18.171,6.721 C18.171,6.554 18.140,6.397 18.078,6.252 C17.202,4.585 15.973,3.247 14.390,2.236 ZM5.984,9.908 C5.109,9.033 4.671,7.970 4.671,6.721 C4.671,5.470 5.109,4.408 5.984,3.533 C6.859,2.658 7.921,2.220 9.171,2.220 C10.421,2.220 11.484,2.658 12.359,3.533 C13.234,4.408 13.671,5.470 13.671,6.721 C13.671,7.970 13.234,9.033 12.359,9.908 C11.484,10.783 10.421,11.220 9.171,11.220 C7.921,11.220 6.859,10.783 5.984,9.908 ZM8.390,3.845 C8.577,4.096 8.671,4.388 8.671,4.720 C8.671,5.137 8.526,5.491 8.234,5.783 C7.942,6.075 7.588,6.220 7.171,6.220 C6.838,6.220 6.546,6.127 6.296,5.939 C6.213,6.189 6.171,6.450 6.171,6.721 C6.171,7.533 6.468,8.236 7.062,8.830 C7.656,9.424 8.364,9.721 9.187,9.721 C10.010,9.721 10.713,9.424 11.296,8.830 C11.879,8.236 12.171,7.528 12.171,6.704 C12.171,5.882 11.879,5.179 11.296,4.595 C10.713,4.012 10.004,3.720 9.171,3.720 C8.900,3.720 8.640,3.762 8.390,3.845 L8.390,3.845 Z"/>
</svg>