<svg xmlns="http://www.w3.org/2000/svg" viewBox="0 0 40.02 40.02"><rect x="6.48" y="7.26" width="27.18" height="25.12" style="fill:#f7fff5"/><path d="M0,20A19.29,19.29,0,0,0,5.85,34.17,19.29,19.29,0,0,0,20,40a19.29,19.29,0,0,0,14.16-5.85A19.29,19.29,0,0,0,40,20,19.29,19.29,0,0,0,34.17,5.85,19.29,19.29,0,0,0,20,0,19.29,19.29,0,0,0,5.85,5.85,19.29,19.29,0,0,0,0,20Zm29.85,6.61-3.23,3.23a.89.89,0,0,1-1.37,0L20,24.53l-5.25,5.32a.89.89,0,0,1-1.37,0l-3.22-3.23a.88.88,0,0,1,0-1.37L15.49,20l-5.32-5.25a.88.88,0,0,1,0-1.37l3.22-3.22a.89.89,0,0,1,1.37,0L20,15.49l5.24-5.32a.89.89,0,0,1,1.37,0l3.23,3.22a.89.89,0,0,1,0,1.37L24.53,20l5.32,5.24a.89.89,0,0,1,0,1.37Z" style="fill:#bb9469;fill-rule:evenodd"/></svg>