<svg xmlns="http://www.w3.org/2000/svg" viewBox="0 0 89.09 70.5"><defs><style>.cls-1{fill:#4b4b4b;}</style></defs><title>Icone-pano</title><g id="Calque_2" data-name="Calque 2"><g id="Calque_1-2" data-name="Calque 1"><path class="cls-1" d="M89.09,68.7l-.19-67A1.7,1.7,0,0,0,87.2,0h0a1.8,1.8,0,0,0-1.8,1.8h0c0,6.9-16.8,14.5-41,14.5C21.74,16.3,5.65,9.46,3.7,3A1.87,1.87,0,0,0,1.9,1.7h0A1.9,1.9,0,0,0,0,3.6V66.8a1.9,1.9,0,0,0,1.9,1.9h0a1.87,1.87,0,0,0,1.8-1.3c2-6.44,18.13-13.2,40.8-13.2,24.2,0,41,7.6,41,14.5h0a1.8,1.8,0,0,0,1.8,1.8h0A1.8,1.8,0,0,0,89.09,68.7ZM44.4,19.7A101.25,101.25,0,0,0,64,17.9V40.32L57.2,33.6l-7.6,5.3-14-10.6L24.8,38.46V17.9A101.25,101.25,0,0,0,44.4,19.7ZM21.3,53.2a70.33,70.33,0,0,0-7.7,2.3,30.61,30.61,0,0,0-10.1,6V8.9a30.57,30.57,0,0,0,10.1,5.9,53.6,53.6,0,0,0,7.7,2.3Zm54,2.4a53.6,53.6,0,0,0-7.7-2.3V17.2a70.33,70.33,0,0,0,7.7-2.3q6.75-2.55,10.2-6V61.6C83.2,59.3,79.7,57.3,75.3,55.6Z"/><polygon class="cls-1" points="17.8 43.6 17.8 28.3 8.5 35.9 17.8 43.6"/><polygon class="cls-1" points="71.1 43.6 80.5 35.9 71.1 28.3 71.1 43.6"/><path class="cls-1" d="M49.09,33.47a5.31,5.31,0,0,0,6.38-6.38,5.26,5.26,0,0,0-4-4,5.31,5.31,0,0,0-6.38,6.38A5.26,5.26,0,0,0,49.09,33.47Z"/></g></g></svg>