<svg xmlns="http://www.w3.org/2000/svg" viewBox="0 0 36.95 36.95"><defs><style>.cls-1{fill:#4b4b4b;}</style></defs><title>jardin-d-ulysse_logo</title><g id="Calque_2" data-name="Calque 2"><g id="Calque_1-2" data-name="Calque 1"><path class="cls-1" d="M36.95,36.95H0V0H36.95ZM.61,36.33H36.33V.61H.61Z"/><path class="cls-1" d="M11.32,13.21V15a2.85,2.85,0,0,1-.26,1.29,6.87,6.87,0,0,1-1.15,1.1,1.73,1.73,0,0,1-1.79,0S7.86,17,7.8,17s-.07-.25-.13-.33-.12-.24-.28-.16a.81.81,0,0,0-.35.27.8.8,0,0,0,.29.67c.26.24,1.55,1.21,2.71.48A5.82,5.82,0,0,0,11.1,17a2.74,2.74,0,0,0,.72-1.57c0-.2.11-1,.13-1.21s0-.94,0-1a1,1,0,0,0-.11-.39c-.07-.1-.47-.19-.54.26Z"/><path class="cls-1" d="M12.84,14.91a3.49,3.49,0,0,1,1.46-.54c.4,0,1.13.06,1.29.25a5.82,5.82,0,0,1,.58.69c.15.25.33.93.42,1.12s.41.93-.16.82A1.75,1.75,0,0,1,16.1,17c-.07-.11-.13-.09-.19-.23a3.19,3.19,0,0,1-.11-.55s0-.35-.11-.46a1.35,1.35,0,0,1-.23-.27c0-.06-.09-.33-.15-.41s-.14-.14-.41-.21a2.3,2.3,0,0,0-1.49.16s-.41.39-.58.41-.2-.14-.19-.27,0-.12.08-.16,0,.06.11-.06"/><path class="cls-1" d="M15.37,15.08a8,8,0,0,0-1.37.16,2.48,2.48,0,0,0-1,.63c-.09.09-.93,1,.11,1.32a2.26,2.26,0,0,0,1.23,0,4.55,4.55,0,0,0,1-.41,5.1,5.1,0,0,1,.62-.19l-.14-.48a4,4,0,0,0-.46.22,5.73,5.73,0,0,1-.89.45,2.51,2.51,0,0,1-.63.08c-.17,0-.74,0-.51-.47a1.61,1.61,0,0,1,1-.79,2.71,2.71,0,0,1,.8-.21,2.26,2.26,0,0,1,.3,0s.17-.32,0-.33"/><path class="cls-1" d="M17.39,14.36c.14,0,.34-.06.42.15s.19.55.19.55a4,4,0,0,1,.48-.38,4.79,4.79,0,0,1,.53-.15c.11,0,.41-.21.56-.15s.22.21.12.33-.15.28-.32.32a2.53,2.53,0,0,1-.43,0,.94.94,0,0,0-.55.18.41.41,0,0,0-.21.42c0,.24,0,.76,0,.93s0,.45-.11.52-.25.15-.35,0,0-.21,0-.33a5.68,5.68,0,0,0,0-.73,1.56,1.56,0,0,0-.2-.53c-.07-.09-.07-.33-.13-.43s-.12-.25-.16-.33-.13-.22,0-.31a.34.34,0,0,1,.26-.12"/><path class="cls-1" d="M23.07,14.87a3.68,3.68,0,0,0-.92-.12A3.41,3.41,0,0,0,21,15a3.06,3.06,0,0,0-.89.87c-.17.35,0,1.06.46,1.15a2,2,0,0,0,1.21,0c.31-.15.72-.22.89-.33a5.45,5.45,0,0,1,.56-.26c.13-.06.14-.81.14-.81a.64.64,0,0,1-.22.28A3.94,3.94,0,0,1,22,16.4a1.75,1.75,0,0,1-.91.15c-.29-.07-.33,0-.47-.2s-.34-.47,0-.74a1.8,1.8,0,0,1,.81-.36,2.51,2.51,0,0,1,1-.06,2.74,2.74,0,0,1,.61.13,1.86,1.86,0,0,0,.35.17s-.18-.55-.36-.61"/><path class="cls-1" d="M23,13.86a4.43,4.43,0,0,1,.08.75,1.23,1.23,0,0,0,0,.31s0,.41.08.58a5.32,5.32,0,0,1,0,.8s0,0,.11.18,0,.34.1.48.14.39.35.2.18-.14.12-.39-.09-.7-.15-1.07-.11-1.41-.11-1.62,0-.59,0-.74a5,5,0,0,0-.12-.75c0-.13-.35-.59-.58-.32s-.19.19-.13.27a.56.56,0,0,1,.16.39l.12.93s0-.26,0,0"/><path class="cls-1" d="M25,13.32a2.09,2.09,0,0,1,.28.26c.09.08.24.21.2.26s0,.2-.16.2A.61.61,0,0,1,25,14c-.15-.06-.22,0-.25-.19s0-.19,0-.25.08-.36.23-.26"/><path class="cls-1" d="M25.1,14.87c-.09.06-.14.11-.28.21s-.15.15-.13.47,0,.83,0,1a.76.76,0,0,0,.2.47c.13.12.28.17.33,0a.91.91,0,0,0,0-.42,2.53,2.53,0,0,1,0-.62c0-.18,0-.32,0-.45a2,2,0,0,1,.08-.35c0-.13-.19-.36-.28-.3"/><path class="cls-1" d="M26,15a2,2,0,0,1,.13.78,5.26,5.26,0,0,0,0,1.26c.08.21.19.36.43.21s.2-.28.2-.49-.06-.89-.06-1-.07-.14.27-.33a1.57,1.57,0,0,1,.89-.19,1.52,1.52,0,0,1,1,.56,4.51,4.51,0,0,1,.51,1,5,5,0,0,0,.15.66c0,.15.41.66.42.11A6.94,6.94,0,0,0,29.54,16c-.22-.33-.65-1-1-1.15a2.27,2.27,0,0,0-1.33.08,3.73,3.73,0,0,1-.51.18.45.45,0,0,0-.21-.22.32.32,0,0,0-.28,0c-.08,0-.2,0-.16.18"/><path class="cls-1" d="M4.76,19.21c.07.37.33,1.73.34,2a6.58,6.58,0,0,0,0,.71c0,.27.11.49.14.78s-.1.31.05.59.3.5.46.49.14,0,.15-.14,0-.74,0-1-.16-.84-.19-1.11-.1-.94-.11-1.1a8.19,8.19,0,0,0-.1-1c0-.13-.1-.58-.22-.66s-.18-.19-.32-.06-.29.13-.2.3.11.17.11.17-.13-.33-.06,0"/><path class="cls-1" d="M5.34,21.49a7.52,7.52,0,0,0-1.24-.07c-.17,0-.4.06-.6.11s-.63.23-.79.27a1.81,1.81,0,0,0-.72.71c-.08.18-.21.91.28,1.14a1.59,1.59,0,0,0,1.19.14,4.28,4.28,0,0,0,1.07-.49,8.68,8.68,0,0,0,.78-.51,3.3,3.3,0,0,0,.21-.54s-.43-.19-.44-.1,0,.09,0,.21a2.33,2.33,0,0,1-.78.64c-.35.18-.7.47-1.09.4s-.51-.15-.59-.35a.76.76,0,0,1,.14-.83,2.05,2.05,0,0,1,.86-.39,1.76,1.76,0,0,1,.79,0L5,22l.39.1s.25-.56,0-.59"/><path class="cls-1" d="M7.93,19.56a2.06,2.06,0,0,1-.28.49c-.11.13-.41.56.07.35a1.64,1.64,0,0,0,.69-.52.7.7,0,0,0,.19-.51.23.23,0,0,0,0-.07c0-.06,0-.12-.21-.12a.48.48,0,0,0-.39.14c0,.08,0,.07,0,.22"/><path class="cls-1" d="M11.19,18.94a9.68,9.68,0,0,0-.67,1.1,11.08,11.08,0,0,0-.44,1.38,2,2,0,0,0,.37,1.69,2,2,0,0,0,1.58.83,1.81,1.81,0,0,0,1.39-.39,2.52,2.52,0,0,1,.41-.33c.15-.08.1-.06.13,0a1.07,1.07,0,0,0,.28.58c.14.11.4.09.45,0a3.47,3.47,0,0,0,0-.89c0-.38-.13-.72-.14-1s.05-1,.05-1.25a5.84,5.84,0,0,1,0-.75c0-.17-.07-.47.06-.6s.18-.17.21-.31a.53.53,0,0,0-.26-.46c-.13,0-.17,0-.35.19s-.37.13-.4.72,0,1.14,0,1.59,0,.72-.08,1a.93.93,0,0,1-.33.7,1.37,1.37,0,0,1-.88.44c-.57.08-.71.13-.89.05a1.36,1.36,0,0,1-.69-.44,1.41,1.41,0,0,1-.37-1,3,3,0,0,1,.18-1.1,3.21,3.21,0,0,1,.39-.76c.22-.25.36-.42.5-.56s.13-.06.16-.25a.35.35,0,0,0-.09-.37c-.12-.15-.06-.23-.25-.14s-.23.23-.33.37"/><path class="cls-1" d="M15.77,19a13.7,13.7,0,0,1,0,1.4,13.82,13.82,0,0,0,0,1.4,5.43,5.43,0,0,0,.25,1.2,1.29,1.29,0,0,0,.54.57c.26.12.43.35.61.11s.18-.28-.06-.41-.56-.25-.63-.5a4.17,4.17,0,0,1-.16-.95,11.45,11.45,0,0,1,0-1.79c0-.46,0-.53,0-.68s.1-1-.24-.9,0,0,0,0-.3-.07-.36.1a.82.82,0,0,0,0,.46"/><path class="cls-1" d="M17.84,21.18c.2-.12.22-.1.41,0a1.59,1.59,0,0,1,.5.83,2.62,2.62,0,0,0,.54.75c.12.14,0,0,0,0s.09.11.29-.1a1,1,0,0,0,.33-.65,1.7,1.7,0,0,0,.05-.58,3.59,3.59,0,0,1-.11-.43c0-.12.36-.47.57-.15a1.37,1.37,0,0,1,.13.67c-.06.24-.1.47-.2.82a3.72,3.72,0,0,1-1,1.62,3.83,3.83,0,0,1-1.39.62,8.24,8.24,0,0,1-1.22.15c-.14,0,0,0,0,0s-.33-.31,0-.39l.79-.18a4.88,4.88,0,0,0,1-.3,1.46,1.46,0,0,0,.64-.41c.14-.17.12-.2.12-.2a.83.83,0,0,1-.31-.24c-.12-.16-.2-.3-.38-.52L18,22a1.23,1.23,0,0,0-.28-.27c-.1-.07-.17-.3-.08-.4s0,0,.15-.11"/><path class="cls-1" d="M23.54,21.07c.1.1.27.11.39.18s.38.16.52,0a.34.34,0,0,0,0-.48c-.13-.11-.3-.18-.81-.2a2.51,2.51,0,0,0-1.18.13c-.22.14-1,.54-.35,1.22,0,0,.16.32.79.34s1,.1,1.08.36.08.26-.28.48a2,2,0,0,1-1.41.25c-.45-.12-.45-.12-.61-.39s-.19-.51-.4-.52-.7.13-.48.51.08.35.55.64a2,2,0,0,0,1.28.29A2.59,2.59,0,0,0,24,23.67a1.37,1.37,0,0,0,.63-.75.76.76,0,0,0-.55-1,3.57,3.57,0,0,0-1.13-.1c-.35,0-.82-.26-.39-.59a.89.89,0,0,1,1-.18"/><path class="cls-1" d="M28,20.92c.1.1.27.11.39.18s.38.16.52,0a.34.34,0,0,0,0-.48c-.13-.11-.3-.18-.81-.2a2.5,2.5,0,0,0-1.18.13c-.22.14-1,.54-.35,1.22,0,0,.16.32.79.34s1,.1,1.08.36.08.26-.28.48a2,2,0,0,1-1.41.25c-.45-.11-.45-.11-.61-.39s-.19-.51-.4-.52-.7.13-.48.51.08.35.55.64a2,2,0,0,0,1.28.29,2.59,2.59,0,0,0,1.41-.23,1.38,1.38,0,0,0,.63-.75.76.76,0,0,0-.55-1,3.57,3.57,0,0,0-1.13-.1c-.35,0-.82-.26-.4-.59a.89.89,0,0,1,1-.18"/><path class="cls-1" d="M34.27,19.53v-.22h.15c.08,0,.16,0,.16.1s-.08.12-.17.12Zm0,.09h.12l.2.3h.12l-.21-.31a.19.19,0,0,0,.18-.2c0-.14-.09-.2-.26-.19h-.27l0,.71h.11Zm.15.56a.62.62,0,1,0-.65-.6.61.61,0,0,0,.65.6m-.52-.6a.5.5,0,1,1,.52.5.5.5,0,0,1-.52-.5"/><path class="cls-1" d="M30.42,22.25,30.6,22a1.82,1.82,0,0,1,1-.67c.32,0,.53-.09.41.32a2.28,2.28,0,0,1-1.17,1c-.43.15-.61,0-.41-.41m2.47.31c-.16.35-.52.5-.73.66a2.42,2.42,0,0,1-1.07.25c-.69.09-.63-.29-.63-.29l.45-.12c.18-.05.51-.2.79-.33a1.64,1.64,0,0,0,.63-.56,1.21,1.21,0,0,0,.17-.86c-.06-.28-.28-.38-.66-.4a1.56,1.56,0,0,0-.88.19c-.36.15-.5.43-.89.8a1.08,1.08,0,0,0-.39.68,1.1,1.1,0,0,0,.65,1.33,2.37,2.37,0,0,0,1.85-.1,2.21,2.21,0,0,0,.92-.59,4.49,4.49,0,0,0,.56-.63c.19-1-.56-.5-.78,0"/></g></g></svg>