<?xml version="1.0" encoding="utf-8"?>
<!-- Generator: Adobe Illustrator 21.1.0, SVG Export Plug-In . SVG Version: 6.00 Build 0)  -->
<svg version="1.1" id="Calque_1" xmlns="http://www.w3.org/2000/svg" xmlns:xlink="http://www.w3.org/1999/xlink" x="0px" y="0px"
	 viewBox="0 0 289.5 36.9" style="enable-background:new 0 0 289.5 36.9;" xml:space="preserve">
<metadata><?xpacket begin="﻿" id="W5M0MpCehiHzreSzNTczkc9d"?>
<x:xmpmeta xmlns:x="adobe:ns:meta/" x:xmptk="Adobe XMP Core 5.6-c137 79.159768, 2016/08/11-13:24:42        ">
   <rdf:RDF xmlns:rdf="http://www.w3.org/1999/02/22-rdf-syntax-ns#">
      <rdf:Description rdf:about=""/>
   </rdf:RDF>
</x:xmpmeta>
                                                                                                    
                                                                                                    
                                                                                                    
                                                                                                    
                                                                                                    
                                                                                                    
                                                                                                    
                                                                                                    
                                                                                                    
                                                                                                    
                                                                                                    
                                                                                                    
                                                                                                    
                                                                                                    
                                                                                                    
                                                                                                    
                                                                                                    
                                                                                                    
                                                                                                    
                                                                                                    
                           
<?xpacket end="w"?></metadata>
<style type="text/css">
	.st0{fill:#4B4B4B;}
</style>
<g>
	<g>
		<path class="st0" d="M18.5,1.8C9.3,1.8,1.8,9.3,1.8,18.4s7.5,16.6,16.7,16.6c9.2,0,16.7-7.5,16.7-16.6S27.7,1.8,18.5,1.8
			 M18.5,35.9C8.8,35.9,1,28.1,1,18.4S8.8,0.9,18.5,0.9C28.2,0.9,36,8.8,36,18.4S28.2,35.9,18.5,35.9"/>
		<path class="st0" d="M31.2,16c-0.2,0.1-0.3,0.2-0.4,0.4c-0.1,0.2-0.1,0.3-0.1,0.5c0,0.1,0,0.2,0,0.3c0,0.1,0.1,0.2,0.1,0.2
			c0.1,0.1,0.2,0.3,0.4,0.3c0.1,0.1,0.3,0.1,0.5,0.1c0.1,0,0.3,0,0.4-0.1c0.1-0.1,0.2-0.1,0.3-0.2c0.1-0.1,0.2-0.2,0.2-0.3
			s0.1-0.2,0.1-0.4c0-0.1,0-0.1,0-0.2c0-0.1,0-0.1-0.1-0.2c0-0.1-0.1-0.2-0.2-0.3c-0.1-0.1-0.2-0.2-0.3-0.2c-0.1,0-0.1,0-0.2-0.1
			c-0.1,0-0.1,0-0.2,0C31.5,15.9,31.3,16,31.2,16 M32.1,17.3c-0.1-0.2-0.2-0.3-0.3-0.4c0.1,0,0.1-0.1,0.1-0.1s0.1-0.1,0.1-0.1
			c0-0.1-0.1-0.2-0.2-0.2c0,0-0.1,0-0.2,0c-0.1,0-0.2,0-0.3,0v0.3v0.6l0.2,0c0,0,0,0,0-0.1c0-0.1,0-0.1,0-0.1l0-0.2
			c0-0.1,0-0.1,0-0.2c0-0.1,0-0.1,0-0.2c0.1,0,0.2,0,0.2,0c0,0,0.1,0.1,0.1,0.1v0c0,0.1-0.1,0.1-0.2,0.2l0.1,0.1l0.1,0.2l0.1,0.2
			L32.1,17.3z M32,16.1c0.1,0,0.2,0.1,0.3,0.2c0.1,0.1,0.1,0.2,0.2,0.3c0,0.1,0.1,0.2,0.1,0.3c0,0.1,0,0.1,0,0.2
			c0,0.1,0,0.1-0.1,0.2c-0.1,0.1-0.2,0.2-0.3,0.3c-0.1,0.1-0.3,0.1-0.4,0.1c-0.1,0-0.2,0-0.2,0c-0.1,0-0.2-0.1-0.2-0.1
			c-0.1-0.1-0.1-0.2-0.2-0.3c0-0.1-0.1-0.1-0.1-0.2c0-0.1,0-0.1,0-0.2c0-0.1,0-0.3,0.1-0.4c0.1-0.1,0.2-0.2,0.3-0.3
			c0.1-0.1,0.3-0.1,0.4-0.1C31.8,16.1,31.9,16.1,32,16.1"/>
		<path class="st0" d="M18.5,9.5c-5,0-9.1,4.1-9.1,9s4.1,9,9.1,9s9.1-4.1,9.1-9S23.5,9.5,18.5,9.5 M18.5,28.2
			c-5.4,0-9.7-4.4-9.7-9.7s4.4-9.7,9.7-9.7s9.7,4.4,9.7,9.7S23.8,28.2,18.5,28.2"/>
		<path class="st0" d="M18.5,0.3c-10,0-18.1,8.1-18.1,18.1c0,10,8.1,18.1,18.1,18.1s18.1-8.1,18.1-18.1C36.6,8.5,28.5,0.3,18.5,0.3
			 M18.5,36.9C8.3,36.9,0,28.7,0,18.5C0,8.3,8.3,0,18.5,0s18.5,8.3,18.5,18.5C36.9,28.7,28.7,36.9,18.5,36.9"/>
		<path class="st0" d="M7,8.5l1.1,1c-0.3,0-0.5,0-0.7,0.1C7.2,9.6,7,9.7,6.9,9.9c-0.3,0.3-0.4,0.6-0.3,0.9c0,0.3,0.2,0.7,0.5,0.9
			C7.4,12,7.7,12.1,8,12.1c0.3,0,0.6-0.1,0.9-0.4c0.1-0.2,0.2-0.3,0.3-0.5c0.1-0.2,0.1-0.4,0-0.7l1.1,1c-0.1,0.2-0.1,0.4-0.2,0.6
			c-0.1,0.2-0.2,0.4-0.4,0.5c-0.2,0.2-0.4,0.4-0.6,0.5c-0.2,0.1-0.4,0.2-0.6,0.3c-0.4,0.1-0.8,0.1-1.2,0c-0.4-0.1-0.8-0.3-1.1-0.6
			c-0.3-0.2-0.5-0.5-0.6-0.8c-0.1-0.3-0.2-0.6-0.2-0.9c0-0.3,0-0.6,0.1-0.9c0.1-0.3,0.3-0.6,0.5-0.8c0.1-0.2,0.3-0.3,0.5-0.4
			C6.6,8.7,6.8,8.6,7,8.5"/>
	</g>
	<polygon class="st0" points="21.3,8.3 22.6,4.8 21.6,4.5 21.9,3.4 25.2,4.6 24.8,5.6 23.8,5.3 22.5,8.7 	"/>
	<path class="st0" d="M30.9,8.5l1.2,2.1l-0.3,0.2l-1.2-2.2L30.9,8.5z M26.3,10.9l4.2-2.4l1.5,2.5L31,11.6l-0.8-1.4l-0.7,0.4l0.8,1.4
		l-0.9,0.5l-0.8-1.4l-0.7,0.4l0.8,1.4l-0.9,0.5L26.3,10.9z"/>
	<polygon class="st0" points="27.6,31.2 24.2,27.8 25.1,26.9 27.7,29.5 28.9,28.4 29.7,29.2 	"/>
	<polygon class="st0" points="32.3,25.9 27.9,23.9 29.2,21.2 30.1,21.7 29.4,23.2 30.2,23.5 30.9,22.1 31.8,22.5 31.1,24 31.8,24.3 
		32.6,22.8 33.5,23.3 	"/>
	<polygon class="st0" points="4,24.5 7.2,22.7 6.6,21.7 7.6,21.2 9.4,24.2 8.4,24.7 7.8,23.8 4.7,25.6 	"/>
	<g>
		<path class="st0" d="M19.8,32.7c-0.1,0.1-0.2,0.1-0.5,0.1l-0.3,0l0-0.7l0.3,0c0.2,0,0.4,0,0.5,0.1c0.1,0.1,0.1,0.2,0.1,0.3
			C20,32.5,19.9,32.6,19.8,32.7 M18.9,30.7l0-0.7l0.3,0c0.2,0,0.4,0,0.5,0.1c0.1,0.1,0.1,0.2,0.1,0.3c0,0.1,0,0.2-0.1,0.3
			c-0.1,0.1-0.2,0.1-0.5,0.1L18.9,30.7z M21.5,32.4c0-0.4-0.1-0.6-0.3-0.9c-0.2-0.2-0.5-0.3-0.8-0.4c0.3-0.1,0.5-0.2,0.7-0.4
			c0.1-0.2,0.2-0.4,0.2-0.6c0-0.2,0-0.4-0.1-0.6c-0.1-0.2-0.2-0.3-0.4-0.4c-0.2-0.1-0.3-0.1-0.6-0.2C20,29,19.6,29,19.1,29l-1.3,0
			l0,4.8l1.4,0c0.5,0,0.9,0,1.2-0.1c0.2,0,0.4-0.1,0.6-0.2c0.2-0.1,0.4-0.3,0.5-0.4C21.5,32.9,21.5,32.7,21.5,32.4"/>
		<path class="st0" d="M9.5,30.8l0.7-0.6l1.6,1L11.5,32l1.1,0.7l1.1-5l-1.4-0.8l-3.9,3.2L9.5,30.8z M12,28.6c0.1,0,0.1-0.1,0.2-0.2
			c0.1-0.1,0.1-0.1,0.2-0.2c0,0.1-0.1,0.2-0.1,0.3c0,0.1,0,0.1,0,0.2l-0.3,1.1l-0.8-0.5L12,28.6z"/>
		<path class="st0" d="M13.2,4.2l0.7-0.6l0.8,0.3l0.7-0.1l-0.9-0.6l-1.2,0.2l-0.7,1L13.2,4.2z M16.7,5.2c-0.2-0.3-0.4-0.5-0.6-0.7
			c-0.3-0.2-0.6-0.4-0.9-0.4c-0.3-0.1-0.7-0.1-1-0.1c-0.3,0-0.7,0.1-1,0.3c-0.3,0.2-0.5,0.4-0.8,0.6c-0.2,0.3-0.4,0.6-0.5,0.9
			c-0.1,0.3-0.1,0.6-0.1,1c0,0.3,0.1,0.6,0.3,0.9c0.2,0.3,0.4,0.5,0.7,0.7c0.3,0.2,0.6,0.4,0.9,0.4C14.1,9,14.4,9,14.7,9
			c0.3,0,0.7-0.1,0.9-0.3C16,8.5,16.2,8.3,16.5,8c0.2-0.3,0.4-0.6,0.5-0.9C17,6.8,17,6.5,17,6.2C16.9,5.8,16.8,5.5,16.7,5.2
			 M13.7,7.6c-0.3-0.2-0.4-0.6-0.5-1c0-0.4,0-0.7,0.2-1c0.2-0.3,0.5-0.5,0.8-0.5c0.4,0,0.7,0.1,0.9,0.3c0.3,0.2,0.4,0.6,0.5,1
			c0.1,0.4,0,0.8-0.2,1c-0.2,0.3-0.5,0.5-0.8,0.5C14.2,7.9,13.9,7.8,13.7,7.6"/>
	</g>
	<polygon class="st0" points="22.8,15.4 23.4,14.8 21.8,13.3 21.3,13.7 18.4,10.7 10.3,19.3 13,19.3 13,24 17.6,24 17.6,21.3 
		19.2,21.3 19.3,24.1 24,24 24,19.3 26.5,19.3 	"/>
</g>
<g>
	<path class="st0" d="M281.9,29.2l0.4,0.5c0.2-0.1,0.3-0.3,0.5-0.4l-0.4-0.5C282.2,28.9,282.1,29,281.9,29.2 M282.8,28.4l0.4,0.5
		l0.4-0.4l-0.4-0.5L282.8,28.4z M283.6,27.5l0.4,0.5l0.4-0.5l-0.4-0.5L283.6,27.5z M284.4,26.6l0.5,0.5c0.1-0.2,0.3-0.3,0.4-0.5
		l-0.5-0.4C284.7,26.3,284.6,26.5,284.4,26.6 M285.2,25.7l0.5,0.4l0.3-0.5l-0.5-0.4L285.2,25.7z M285.8,24.7l0.5,0.4
		c0.1-0.2,0.2-0.4,0.3-0.5l-0.5-0.3C286,24.3,285.9,24.5,285.8,24.7 M286.4,23.6l0.5,0.3l0.3-0.6l-0.6-0.3L286.4,23.6z M286.8,22.5
		l0.6,0.3c0.1-0.2,0.1-0.4,0.2-0.6l-0.6-0.2C287,22.1,286.9,22.3,286.8,22.5 M287.2,21.4l0.6,0.2l0.1-0.6l-0.6-0.1L287.2,21.4z
		 M287.4,20.2l0.6,0.1c0-0.2,0.1-0.4,0.1-0.6l-0.6-0.1C287.5,19.8,287.5,20,287.4,20.2 M287.6,18.4c0,0.2,0,0.4,0,0.6l0.6,0
		c0-0.2,0-0.4,0-0.6L287.6,18.4z M287.5,17.8l0.6,0c0-0.2,0-0.4-0.1-0.6l-0.6,0.1C287.5,17.4,287.5,17.6,287.5,17.8 M287.4,16.6
		l0.6-0.1c0-0.2-0.1-0.4-0.1-0.6l-0.6,0.2C287.3,16.2,287.4,16.4,287.4,16.6 M287.2,15.4l0.6-0.2l-0.2-0.6l-0.6,0.2L287.2,15.4z
		 M286.8,14.3l0.6-0.3c-0.1-0.2-0.2-0.4-0.2-0.6l-0.6,0.3C286.6,13.9,286.7,14.1,286.8,14.3 M286.3,13.2l0.5-0.3l-0.3-0.6l-0.5,0.3
		L286.3,13.2z M285.7,12.1l0.5-0.4c-0.1-0.2-0.2-0.4-0.3-0.5l-0.5,0.4C285.5,11.8,285.6,11.9,285.7,12.1 M285.1,11.1l0.5-0.4
		l-0.4-0.5l-0.5,0.4L285.1,11.1z M284.3,10.2l0.4-0.5c-0.1-0.2-0.3-0.3-0.4-0.5l-0.4,0.5C284.1,9.9,284.2,10,284.3,10.2 M284,8.8
		l-0.4-0.4l-0.4,0.5l0.4,0.4L284,8.8z M283.1,7.9l-0.5-0.4l-0.4,0.5l0.4,0.4L283.1,7.9z M281.7,6.8l-0.3,0.6
		c0.2,0.1,0.3,0.2,0.5,0.4l0.4-0.5C282,7,281.8,6.9,281.7,6.8 M280.7,6.1l-0.3,0.6c0.2,0.1,0.3,0.2,0.5,0.3l0.3-0.6
		C281,6.3,280.8,6.2,280.7,6.1 M279.6,5.4L279.3,6l0.5,0.3l0.3-0.6L279.6,5.4z M278.6,4.8l-0.3,0.6l0.5,0.3l0.3-0.6L278.6,4.8z
		 M277.5,4.3l-0.2,0.6l0.5,0.3l0.3-0.6L277.5,4.3z M276.4,3.8l-0.2,0.6l0.5,0.2L277,4L276.4,3.8z M275.3,3.3L275.1,4l0.5,0.2
		l0.2-0.6L275.3,3.3z M274.2,3L274,3.6c0.2,0.1,0.4,0.1,0.6,0.2l0.2-0.6C274.5,3.1,274.4,3,274.2,3 M273,2.6l-0.1,0.7
		c0.2,0,0.4,0.1,0.6,0.2l0.2-0.7C273.4,2.7,273.2,2.7,273,2.6 M271.7,3c0.2,0,0.4,0.1,0.6,0.1l0.1-0.7c-0.2-0.1-0.4-0.1-0.6-0.1
		L271.7,3z M270.6,2.8c0.2,0,0.4,0.1,0.6,0.1l0.1-0.7c-0.2,0-0.4-0.1-0.6-0.1L270.6,2.8z M269.4,2.6l0.6,0.1l0.1-0.7l-0.6-0.1
		L269.4,2.6z M268.3,2.5l0.6,0.1l0.1-0.7l-0.6-0.1L268.3,2.5z M267.1,2.4l0.6,0l0-0.7l-0.6,0L267.1,2.4z M266,2.3l0.6,0l0-0.7
		l-0.6,0L266,2.3z M264.8,1.7l0,0.7l0.6,0l0-0.7L264.8,1.7z M263.6,1.7l0,0.7l0.6,0l0-0.7L263.6,1.7z M262.4,1.8l0.1,0.7l0.6-0.1
		l0-0.7L262.4,1.8z M261.2,2l0.1,0.7l0.6-0.1l-0.1-0.7L261.2,2z M260.1,2.1l0.1,0.7l0.6-0.1L260.6,2L260.1,2.1z M258.9,2.4L259,3
		l0.6-0.1l-0.1-0.7L258.9,2.4z M257.7,2.7l0.1,0.7l0.6-0.1l-0.1-0.7L257.7,2.7z M257.2,2.8L256.6,3l0.2,0.6l0.6-0.2L257.2,2.8z
		 M256,3.2c-0.2,0.1-0.4,0.1-0.6,0.2l0.2,0.6c0.2-0.1,0.4-0.1,0.6-0.2L256,3.2z M254.9,3.6c-0.2,0.1-0.4,0.1-0.6,0.2l0.2,0.6
		c0.2-0.1,0.4-0.1,0.5-0.2L254.9,3.6z M253.8,4.1c-0.2,0.1-0.4,0.2-0.5,0.3l0.2,0.6c0.2-0.1,0.4-0.2,0.5-0.2L253.8,4.1z M252.7,4.6
		l-0.5,0.3l0.3,0.6l0.5-0.3L252.7,4.6z M251.6,5.2l-0.5,0.3l0.3,0.6l0.5-0.3L251.6,5.2z M250.6,5.8l-0.5,0.3l0.3,0.6l0.5-0.3
		L250.6,5.8z M249.6,6.5l-0.5,0.4l0.3,0.6l0.5-0.4L249.6,6.5z M248.6,7.2c-0.2,0.1-0.3,0.3-0.5,0.4l0.4,0.5c0.1-0.1,0.3-0.3,0.5-0.4
		L248.6,7.2z M247.7,8l-0.4,0.4l0.4,0.5l0.4-0.4L247.7,8z M247.2,9.4l-0.4-0.5l-0.4,0.5l0.4,0.5L247.2,9.4z M246.5,10.3L246,9.8
		c-0.1,0.2-0.3,0.3-0.4,0.5l0.5,0.4C246.2,10.6,246.3,10.4,246.5,10.3 M245.7,11.2l-0.5-0.4l-0.3,0.5l0.5,0.4L245.7,11.2z
		 M245.1,12.3l-0.5-0.4c-0.1,0.2-0.2,0.4-0.3,0.5l0.5,0.3C244.9,12.6,245,12.4,245.1,12.3 M244.5,13.3L244,13l-0.3,0.6l0.6,0.3
		L244.5,13.3z M244.1,14.4l-0.6-0.3c-0.1,0.2-0.1,0.4-0.2,0.6l0.6,0.2C243.9,14.8,244,14.6,244.1,14.4 M243.7,15.6l-0.6-0.2L243,16
		l0.6,0.1L243.7,15.6z M243.5,16.7l-0.6-0.1c0,0.2-0.1,0.4-0.1,0.6l0.6,0.1C243.4,17.1,243.4,16.9,243.5,16.7 M243.3,17.9l-0.6,0
		c0,0.2,0,0.4,0,0.6l0.6,0C243.3,18.3,243.3,18.1,243.3,17.9 M243.4,19.2l-0.6,0c0,0.2,0,0.4,0.1,0.6l0.6-0.1
		C243.4,19.5,243.4,19.3,243.4,19.2 M243.5,20.3l-0.6,0.1c0,0.2,0.1,0.4,0.1,0.6l0.6-0.2C243.6,20.7,243.5,20.5,243.5,20.3
		 M243.7,21.5l-0.6,0.2l0.2,0.6l0.6-0.2L243.7,21.5z M244.1,22.7l-0.6,0.3c0.1,0.2,0.2,0.4,0.2,0.6l0.6-0.3
		C244.3,23,244.2,22.9,244.1,22.7 M244.6,23.8l-0.5,0.3l0.3,0.6l0.5-0.3L244.6,23.8z M245.2,24.8l-0.5,0.4c0.1,0.2,0.2,0.4,0.3,0.5
		l0.5-0.4C245.4,25.2,245.3,25,245.2,24.8 M245.8,25.8l-0.5,0.4l0.4,0.5l0.5-0.4L245.8,25.8z M246.6,26.8l-0.4,0.5
		c0.1,0.2,0.3,0.3,0.4,0.5l0.4-0.5C246.8,27.1,246.7,26.9,246.6,26.8 M246.9,28.1l0.4,0.4l0.4-0.5l-0.4-0.4L246.9,28.1z M247.8,29
		l0.5,0.4l0.4-0.5l-0.4-0.4L247.8,29z M248.8,29.8c0.2,0.1,0.3,0.3,0.5,0.4l0.3-0.6c-0.2-0.1-0.3-0.2-0.5-0.4L248.8,29.8z
		 M249.7,30.5c0.2,0.1,0.3,0.2,0.5,0.3l0.3-0.6c-0.2-0.1-0.3-0.2-0.5-0.3L249.7,30.5z M250.7,31.2l0.5,0.3l0.3-0.6l-0.5-0.3
		L250.7,31.2z M251.8,31.8l0.5,0.3l0.3-0.6l-0.5-0.3L251.8,31.8z M252.8,32.4l0.5,0.3l0.2-0.6l-0.5-0.3L252.8,32.4z M253.9,32.9
		l0.6,0.2l0.2-0.6l-0.5-0.2L253.9,32.9z M255,33.4l0.6,0.2l0.2-0.6l-0.5-0.2L255,33.4z M256.2,33.8c0.2,0.1,0.4,0.1,0.6,0.2l0.2-0.6
		c-0.2-0.1-0.4-0.1-0.6-0.2L256.2,33.8z M257.3,34.1c0.2,0.1,0.4,0.1,0.6,0.2l0.1-0.7c-0.2,0-0.4-0.1-0.6-0.2L257.3,34.1z
		 M258.5,34.5c0.2,0.1,0.4,0.1,0.6,0.1l0.1-0.7c-0.2,0-0.4-0.1-0.6-0.1L258.5,34.5z M259.6,34.7c0.2,0,0.4,0.1,0.6,0.1l0.1-0.7
		c-0.2,0-0.4-0.1-0.6-0.1L259.6,34.7z M260.8,34.9l0.6,0.1l0.1-0.7l-0.6-0.1L260.8,34.9z M262,35.1l0.6,0.1l0.1-0.7l-0.6-0.1
		L262,35.1z M263.2,35.2l0.6,0l0-0.7l-0.6,0L263.2,35.2z M264.3,35.3l0.6,0l0-0.7l-0.6,0L264.3,35.3z M265.5,34.6l0,0.7l0.6,0l0-0.7
		L265.5,34.6z M266.7,34.6l0,0.7l0.6,0l0-0.7L266.7,34.6z M267.9,34.5l0,0.7l0.6-0.1l-0.1-0.7L267.9,34.5z M269,34.4l0.1,0.7
		l0.6-0.1l-0.1-0.7L269,34.4z M270.2,34.2l0.1,0.7l0.6-0.1l-0.1-0.7L270.2,34.2z M271.3,34l0.1,0.7l0.6-0.1l-0.1-0.7L271.3,34z
		 M272.5,33.8l0.1,0.7l0.6-0.1l-0.1-0.7L272.5,33.8z M273.6,33.5l0.2,0.7l0.6-0.2l-0.2-0.6L273.6,33.5z M274.7,33.1l0.2,0.6
		c0.2-0.1,0.4-0.1,0.6-0.2l-0.2-0.6C275.1,33,274.9,33,274.7,33.1 M275.8,32.7l0.2,0.6c0.2-0.1,0.4-0.1,0.6-0.2l-0.2-0.6
		C276.2,32.6,276,32.6,275.8,32.7 M276.9,32.2l0.2,0.6c0.2-0.1,0.4-0.2,0.5-0.3l-0.2-0.6C277.2,32.1,277.1,32.2,276.9,32.2
		 M277.9,31.7l0.3,0.6l0.5-0.3l-0.3-0.6L277.9,31.7z M279,31.2l0.3,0.6l0.5-0.3l-0.3-0.6L279,31.2z M280,30.6l0.3,0.6l0.5-0.3
		l-0.3-0.6L280,30.6z M281,29.9l0.3,0.6l0.5-0.4l-0.4-0.6L281,29.9z M288.7,19.7c0,0.2-0.1,0.4-0.1,0.7l-0.5-0.1
		c0,0.2-0.1,0.4-0.1,0.6l0.5,0.1c0,0.2-0.1,0.4-0.2,0.7l-0.5-0.2c0,0.2-0.1,0.4-0.2,0.6l0.5,0.2c-0.1,0.2-0.1,0.4-0.2,0.6l-0.5-0.2
		c-0.1,0.2-0.1,0.4-0.2,0.6l0.5,0.2c-0.1,0.2-0.2,0.4-0.3,0.6l-0.5-0.3l-0.3,0.6l0.5,0.3c-0.1,0.2-0.2,0.4-0.3,0.6l-0.4-0.3
		c-0.1,0.2-0.2,0.4-0.3,0.5l0.4,0.3c-0.1,0.2-0.2,0.4-0.4,0.5l-0.4-0.4l-0.4,0.5l0.4,0.4c-0.1,0.2-0.3,0.3-0.4,0.5l-0.4-0.4
		l-0.4,0.5l0.4,0.4c-0.1,0.2-0.3,0.3-0.4,0.5l-0.4-0.4c-0.1,0.2-0.3,0.3-0.4,0.4l0.3,0.4c-0.2,0.1-0.3,0.3-0.5,0.4l-0.3-0.4
		l-0.5,0.4l0.3,0.4c-0.2,0.1-0.3,0.3-0.5,0.4l-0.3-0.4l-0.5,0.4l0.3,0.4c-0.2,0.1-0.3,0.2-0.5,0.4l-0.3-0.5
		c-0.2,0.1-0.3,0.2-0.5,0.4l0.3,0.5c-0.2,0.1-0.3,0.2-0.5,0.3l-0.2-0.5c-0.2,0.1-0.3,0.2-0.5,0.3l0.2,0.5c-0.2,0.1-0.4,0.2-0.5,0.3
		l-0.2-0.5l-0.5,0.3l0.2,0.5c-0.2,0.1-0.4,0.2-0.5,0.3l-0.2-0.5l-0.5,0.3l0.2,0.5c-0.2,0.1-0.4,0.2-0.6,0.3l-0.2-0.5l-0.6,0.2
		l0.2,0.5c-0.2,0.1-0.4,0.2-0.6,0.2l-0.2-0.5l-0.6,0.2l0.2,0.5c-0.2,0.1-0.4,0.1-0.6,0.2l-0.1-0.5l-0.6,0.2l0.1,0.5
		c-0.2,0.1-0.4,0.1-0.6,0.2l-0.1-0.5c-0.2,0.1-0.4,0.1-0.6,0.2l0.1,0.5c-0.2,0.1-0.4,0.1-0.6,0.2l-0.1-0.5c-0.2,0-0.4,0.1-0.6,0.1
		l0.1,0.5c-0.2,0-0.4,0.1-0.6,0.1l-0.1-0.5c-0.2,0-0.4,0.1-0.6,0.1l0.1,0.5c-0.2,0-0.4,0.1-0.6,0.1l-0.1-0.5c-0.2,0-0.4,0.1-0.6,0.1
		l0.1,0.5c-0.2,0-0.4,0.1-0.6,0.1l-0.1-0.5c-0.2,0-0.4,0-0.6,0.1l0,0.5c-0.2,0-0.4,0-0.6,0.1l0-0.5c-0.2,0-0.4,0-0.6,0l0,0.5
		c-0.2,0-0.4,0-0.6,0l0-0.5c-0.2,0-0.4,0-0.6,0l0,0.5c-0.2,0-0.4,0-0.6,0l0-0.5l-0.6,0l0,0.5c-0.2,0-0.4,0-0.6,0l0-0.5l-0.6,0l0,0.5
		c-0.2,0-0.4,0-0.6,0l0-0.5l-0.6-0.1l0,0.5c-0.2,0-0.4,0-0.6-0.1l0-0.5l-0.6-0.1l-0.1,0.5c-0.2,0-0.4-0.1-0.6-0.1l0.1-0.5l-0.6-0.1
		l-0.1,0.5c-0.2,0-0.4-0.1-0.6-0.1l0.1-0.5l-0.6-0.1l-0.1,0.5c-0.2,0-0.4-0.1-0.6-0.1l0.1-0.5l-0.6-0.1l-0.1,0.5
		c-0.2-0.1-0.4-0.1-0.6-0.2l0.1-0.5l-0.6-0.2l-0.1,0.5c-0.2-0.1-0.4-0.1-0.6-0.2l0.1-0.5l-0.6-0.2l-0.1,0.5
		c-0.2-0.1-0.4-0.1-0.6-0.2l0.2-0.5l-0.6-0.2l-0.2,0.5c-0.2-0.1-0.4-0.2-0.6-0.2l0.2-0.5c-0.2-0.1-0.4-0.2-0.5-0.2l-0.2,0.5
		c-0.2-0.1-0.4-0.2-0.6-0.3l0.2-0.5c-0.2-0.1-0.4-0.2-0.5-0.3l-0.2,0.5c-0.2-0.1-0.4-0.2-0.5-0.3l0.2-0.5l-0.5-0.3L251,32
		c-0.2-0.1-0.4-0.2-0.5-0.3l0.2-0.5l-0.5-0.3l-0.3,0.5c-0.2-0.1-0.3-0.2-0.5-0.4l0.3-0.5l-0.5-0.4l-0.3,0.4c-0.1,0-0.1-0.1-0.2-0.1
		c-0.1-0.1-0.2-0.2-0.3-0.2l0.3-0.4l-0.5-0.4l-0.3,0.4c-0.2-0.1-0.3-0.3-0.5-0.4l0.3-0.4c-0.2-0.1-0.3-0.3-0.4-0.4L247,29
		c-0.2-0.1-0.3-0.3-0.4-0.4l0.3-0.4l-0.4-0.5l-0.4,0.4c-0.1-0.2-0.3-0.3-0.4-0.5l0.4-0.4c-0.1-0.2-0.3-0.3-0.4-0.5l-0.4,0.4
		c-0.1-0.2-0.3-0.3-0.4-0.5l0.4-0.3c-0.1-0.2-0.2-0.3-0.4-0.5l-0.4,0.3c-0.1-0.2-0.2-0.4-0.3-0.6l0.4-0.3l-0.3-0.5l-0.4,0.3
		c-0.1-0.2-0.2-0.4-0.3-0.6l0.5-0.3c-0.1-0.2-0.2-0.4-0.3-0.6l-0.5,0.2c-0.1-0.2-0.2-0.4-0.2-0.6l0.5-0.2c-0.1-0.2-0.2-0.4-0.2-0.6
		l-0.5,0.2c-0.1-0.2-0.1-0.4-0.2-0.6l0.5-0.2c-0.1-0.2-0.1-0.4-0.1-0.6l-0.5,0.1c0-0.2-0.1-0.4-0.1-0.7l0.5-0.1
		c0-0.2-0.1-0.4-0.1-0.6l-0.5,0.1c0-0.2,0-0.4-0.1-0.7l0.5,0l0-0.6l-0.5,0c0,0,0-0.1,0-0.1c0-0.2,0-0.4,0-0.6l0.5,0
		c0-0.2,0-0.4,0-0.6l-0.5-0.1c0-0.2,0.1-0.4,0.1-0.7l0.5,0.1c0-0.2,0.1-0.4,0.1-0.6l-0.5-0.1c0-0.2,0.1-0.4,0.2-0.7l0.5,0.2
		c0.1-0.2,0.1-0.4,0.2-0.6l-0.5-0.2c0.1-0.2,0.1-0.4,0.2-0.6l0.5,0.2c0.1-0.2,0.1-0.4,0.2-0.6l-0.5-0.2c0.1-0.2,0.2-0.4,0.3-0.6
		L244,13l0.3-0.6l-0.4-0.3c0.1-0.2,0.2-0.4,0.3-0.6l0.4,0.3c0.1-0.2,0.2-0.4,0.3-0.5l-0.4-0.3c0.1-0.2,0.2-0.4,0.4-0.5l0.4,0.3
		l0.4-0.5l-0.4-0.4c0.1-0.2,0.3-0.3,0.4-0.5l0.4,0.4l0.4-0.5L246,9c0.1-0.2,0.3-0.3,0.4-0.5l0.3,0.4c0.1-0.2,0.3-0.3,0.4-0.4
		l-0.3-0.4c0.1-0.1,0.3-0.3,0.5-0.4l0.3,0.4l0.5-0.4l-0.3-0.4c0.2-0.1,0.3-0.3,0.5-0.4l0.3,0.4l0.5-0.4l-0.3-0.4
		c0.2-0.1,0.3-0.2,0.5-0.4l0.3,0.5c0.2-0.1,0.3-0.2,0.5-0.4l-0.3-0.5c0.2-0.1,0.3-0.2,0.5-0.3l0.2,0.5c0.2-0.1,0.3-0.2,0.5-0.3
		L250.9,5c0.2-0.1,0.4-0.2,0.5-0.3l0.2,0.5l0.5-0.3L252,4.4c0.2-0.1,0.4-0.2,0.5-0.3l0.2,0.5l0.5-0.3l-0.2-0.5
		c0.2-0.1,0.4-0.2,0.6-0.3l0.2,0.5l0.6-0.2l-0.2-0.5c0.2-0.1,0.4-0.2,0.6-0.2l0.2,0.5l0.6-0.2l-0.1-0.5c0.2-0.1,0.4-0.1,0.6-0.2
		l0.1,0.5l0.6-0.2l-0.1-0.5c0.2-0.1,0.4-0.1,0.6-0.2l0.1,0.5c0.2-0.1,0.4-0.1,0.6-0.2l-0.1-0.5c0.2-0.1,0.4-0.1,0.6-0.2l0.1,0.5
		c0.2,0,0.4-0.1,0.6-0.1l-0.1-0.5c0.2,0,0.4-0.1,0.6-0.1l0.1,0.5c0.2,0,0.4-0.1,0.6-0.1L260,1.6c0.2,0,0.4-0.1,0.6-0.1l0.1,0.5
		c0.2,0,0.4-0.1,0.6-0.1l-0.1-0.5c0.2,0,0.4-0.1,0.6-0.1l0,0.5c0.2,0,0.4,0,0.6-0.1l0-0.5c0.2,0,0.4,0,0.6-0.1l0,0.5
		c0.2,0,0.4,0,0.6,0l0-0.5c0.2,0,0.4,0,0.6,0l0,0.5c0.2,0,0.4,0,0.6,0l0-0.5c0.2,0,0.4,0,0.6,0l0,0.5l0.6,0l0-0.5c0.2,0,0.4,0,0.6,0
		l0,0.5l0.6,0l0-0.5c0.2,0,0.4,0,0.6,0l0,0.5l0.6,0.1l0-0.5c0.2,0,0.4,0,0.6,0.1l0,0.5l0.6,0.1l0.1-0.5c0.2,0,0.4,0.1,0.6,0.1
		L270.1,2l0.6,0.1l0.1-0.5c0.2,0,0.4,0.1,0.6,0.1l-0.1,0.5l0.6,0.1l0.1-0.5c0.2,0,0.4,0.1,0.6,0.1l-0.1,0.5l0.6,0.1l0.1-0.5
		c0.2,0.1,0.4,0.1,0.6,0.2l-0.1,0.5l0.6,0.2l0.1-0.5c0.2,0.1,0.4,0.1,0.6,0.2l-0.1,0.5l0.6,0.2l0.1-0.5c0.2,0.1,0.4,0.1,0.6,0.2
		l-0.2,0.5l0.6,0.2l0.2-0.5c0.2,0.1,0.4,0.2,0.6,0.2L277,4c0.2,0.1,0.4,0.2,0.5,0.2l0.2-0.5c0.2,0.1,0.4,0.2,0.6,0.3l-0.2,0.5
		c0.2,0.1,0.4,0.2,0.5,0.3l0.2-0.5c0.2,0.1,0.4,0.2,0.5,0.3l-0.2,0.5l0.5,0.3l0.2-0.5c0.2,0.1,0.4,0.2,0.5,0.3l-0.2,0.5l0.5,0.3
		l0.3-0.5c0.2,0.1,0.3,0.2,0.5,0.4l-0.3,0.5l0.5,0.4l0.3-0.4c0.1,0,0.1,0.1,0.2,0.1c0.1,0.1,0.2,0.2,0.3,0.2l-0.3,0.4l0.5,0.4
		l0.3-0.4c0.2,0.1,0.3,0.3,0.5,0.4l-0.3,0.4c0.2,0.1,0.3,0.3,0.4,0.4l0.3-0.4c0.2,0.1,0.3,0.3,0.5,0.4L284,8.8l0.4,0.5l0.4-0.4
		c0.1,0.2,0.3,0.3,0.4,0.5l-0.4,0.4c0.1,0.2,0.3,0.3,0.4,0.5l0.4-0.4c0.1,0.2,0.3,0.3,0.4,0.5l-0.4,0.4c0.1,0.2,0.2,0.3,0.4,0.5
		l0.4-0.3c0.1,0.2,0.2,0.4,0.3,0.6l-0.4,0.3l0.3,0.5L287,12c0.1,0.2,0.2,0.4,0.3,0.6l-0.5,0.3c0.1,0.2,0.2,0.4,0.3,0.6l0.5-0.3
		c0.1,0.2,0.2,0.4,0.2,0.6l-0.5,0.2c0.1,0.2,0.2,0.4,0.2,0.6l0.5-0.2c0.1,0.2,0.1,0.4,0.2,0.6l-0.5,0.2c0.1,0.2,0.1,0.4,0.1,0.6
		l0.5-0.1c0,0.2,0.1,0.4,0.1,0.7l-0.5,0.1c0,0.2,0.1,0.4,0.1,0.6l0.5-0.1c0,0.2,0,0.4,0.1,0.7l-0.5,0l0,0.6l0.5,0c0,0,0,0.1,0,0.1
		c0,0.2,0,0.4,0,0.6l-0.5,0c0,0.2,0,0.4,0,0.6L288.7,19.7z M282.6,5.8c-4.6-3.5-10.7-5.5-17.2-5.5s-12.6,1.9-17.2,5.5
		c-4.5,3.4-6.9,7.9-6.9,12.7c0,4.8,2.5,9.3,6.9,12.7c4.6,3.5,10.7,5.5,17.2,5.5s12.6-1.9,17.2-5.5c4.5-3.4,6.9-7.9,6.9-12.7
		C289.5,13.7,287.1,9.2,282.6,5.8"/>
	<path class="st0" d="M265.6,20.6l-1.1,0c-0.1,0-0.2,0-0.2,0.2c0,0.1,0,0.1,0,0.1c0,0,0.1,0,0.1,0c0.1,0,0.2,0,0.2,0.1
		c0.1,0.1,0.1,0.2,0.1,0.4v2.4c0,0.1,0,0.2-0.1,0.2c-0.1,0.1-0.1,0.1-0.2,0.1c0,0,0,0,0,0c0,0-0.1,0-0.1,0.1v0.2c0,0,0,0.1,0.1,0.1
		h1.8c0,0,0.1,0,0.1-0.1v-0.2c0,0,0-0.1-0.1-0.1c0,0,0,0,0,0c-0.1,0-0.2,0-0.2-0.1c-0.1-0.1-0.1-0.2-0.1-0.2c0-0.1,0-2.4,0-2.4
		c0-0.1,0.1-0.4,0.5-0.4c0.5,0,0.5,0.3,0.5,0.4c0,0,0,2.3,0,2.4c0,0.1,0,0.1-0.1,0.2c-0.1,0.1-0.1,0.1-0.2,0.1h0c0,0-0.1,0-0.1,0.1
		v0.2c0,0,0,0.1,0.1,0.1h1.8c0,0,0.1,0,0.1-0.1v-0.2c0,0,0-0.1-0.1-0.1c0,0,0,0,0,0c-0.1,0-0.2,0-0.2-0.1c-0.1-0.1-0.1-0.2-0.1-0.2
		l0-1.2v-1.1v0c0-0.1,0-0.2,0.1-0.4c0.1-0.1,0.2-0.1,0.4-0.1c0.1,0,0.3,0,0.3,0.1c0.1,0.1,0.1,0.3,0.1,0.4c0,0,0,0,0,0v2.3
		c0,0,0,0.2-0.1,0.2c-0.1,0.1-0.1,0.1-0.2,0.1c0,0,0,0,0,0c0,0-0.1,0-0.1,0.1v0.2c0,0,0,0.1,0.1,0.1h1.8c0,0,0.1,0,0.1-0.1v-0.2
		c0,0,0-0.1-0.1-0.1c0,0,0,0,0,0c-0.1,0-0.2,0-0.2-0.1c-0.1-0.1-0.1-0.2-0.1-0.2c0,0,0-2.3,0-2.3c0,0,0-0.5-0.3-0.8
		c-0.3-0.2-1.2-0.5-2,0.2c-0.1,0-0.1,0.1-0.2,0.1c-0.1,0-0.1,0-0.2-0.2c-0.1-0.2-0.2-0.3-0.9-0.3c-0.9,0-1,0.4-1,0.4
		S265.9,20.6,265.6,20.6"/>
	<path class="st0" d="M279.5,22.2c0-0.1,0-0.4,0-0.7c0-0.4,0.4-0.6,0.7-0.6c0.3,0,0.6,0,0.6,0.4c0,0.5-0.4,0.7-0.7,0.9
		c-0.2,0.1-0.2,0.1-0.4,0.2C279.6,22.4,279.5,22.5,279.5,22.2 M280.8,23.1c0,0.1,0,0.6-0.3,0.9c-0.1,0.1-0.2,0.2-0.4,0.2
		c-0.2,0-0.6,0-0.6-0.8c0-0.6-0.1-0.6,0.3-0.8c0.1-0.1,1.7-0.9,1.7-0.9c0.2-0.1,0.4-0.2,0.3-0.7c-0.1-0.5-0.9-0.6-1-0.6
		c0,0-1.5-0.2-2,0.4c-0.6,0.6-0.5,1.8-0.5,2.3c0,0.5,0.2,1.4,1.9,1.4c1.5,0,1.8-0.8,1.8-1.1c0-0.1,0-0.2-0.1-0.2
		c0,0-0.9-0.3-0.9-0.3C280.9,22.9,280.8,22.9,280.8,23.1"/>
	<path class="st0" d="M272.3,19.4h-0.6c-0.2,0-0.4,0.2-0.4,0.3c0,0.2,0.2,0.3,0.4,0.3h0.6c0.2,0,0.4-0.2,0.4-0.3
		C272.7,19.5,272.5,19.4,272.3,19.4"/>
	<path class="st0" d="M277.8,24.2L277.8,24.2c-0.2,0-0.2,0-0.3-0.1c-0.1-0.1-0.1-0.2-0.1-0.2c0-0.1,0-5,0-5c0,0,0-0.1-0.1-0.1h-1.5
		c0,0-0.1,0-0.1,0.1v0.2c0,0,0,0.1,0.1,0.1c0,0,0,0,0,0c0.1,0,0.2,0,0.2,0.1c0.1,0.1,0.1,0.2,0.1,0.2v4.4c0,0.1,0,0.1-0.1,0.2
		c-0.1,0.1-0.1,0.1-0.2,0.1h0c0,0-0.1,0-0.1,0.1v0.2c0,0,0,0.1,0.1,0.1h2c0,0,0.1,0,0.1-0.1L277.8,24.2
		C277.9,24.2,277.8,24.2,277.8,24.2"/>
	<path class="st0" d="M275.4,24.2L275.4,24.2c-0.2,0-0.2,0-0.3-0.1c-0.1-0.1-0.1-0.2-0.1-0.2c0-0.1,0-5,0-5c0,0,0-0.1-0.1-0.1h-1.5
		c0,0-0.1,0-0.1,0.1v0.2c0,0,0,0.1,0.1,0.1c0,0,0,0,0,0c0.1,0,0.2,0,0.2,0.1c0.1,0.1,0.1,0.2,0.1,0.2v4.4c0,0.1,0,0.1-0.1,0.2
		c-0.1,0.1-0.1,0.1-0.2,0.1h0c0,0-0.1,0-0.1,0.1v0.2c0,0,0,0.1,0.1,0.1h2c0,0,0.1,0,0.1-0.1L275.4,24.2
		C275.5,24.2,275.5,24.2,275.4,24.2"/>
	<path class="st0" d="M250.9,23.8c0,0.2-0.2,0.4-0.4,0.4c-0.2,0-0.4-0.2-0.4-0.4v-1.2c0-0.2,0.2-0.4,0.4-0.4c0.2,0,0.4,0.2,0.4,0.4
		V23.8z M251.9,24C251.9,24,251.9,24,251.9,24L251.9,24l0-4.6c0,0,0-0.1-0.1-0.1h-1.4c0,0-0.1,0-0.1,0.1v0.2c0,0,0,0.1,0.1,0.1h0.2
		c0.1,0,0.2,0,0.2,0.1c0.1,0.1,0.1,0.2,0.1,0.2l0,2V22l-0.1-0.1c-0.2-0.2-0.3-0.2-0.7-0.2c-1,0-1.3,0.6-1.3,1.5c0,0.9,0.3,1.3,1,1.3
		c0.6,0,0.8-0.1,0.8-0.1c0.1,0,0.1-0.1,0.2-0.1c0.1,0,0.1,0.1,0.1,0.1c0,0,0,0,0,0c0,0,0,0,0,0c0,0.1,0.1,0.1,0.1,0.1h1.2
		c0,0,0.1,0,0.1-0.1v-0.2c0,0,0-0.1-0.1-0.1c0,0-0.1,0-0.1,0C252.1,24.3,252,24.2,251.9,24"/>
	<path class="st0" d="M253.5,22.9v-0.5c0-0.3,0.3-0.4,0.5-0.4c0.2,0,0.4,0,0.4,0.3c0,0.4-0.3,0.5-0.5,0.6c-0.1,0.1-0.2,0.1-0.3,0.2
		C253.6,23.1,253.5,23.1,253.5,22.9 M254.5,23.6c0,0,0,0.5-0.2,0.7c-0.1,0.1-0.2,0.1-0.3,0.1c-0.1,0-0.5,0-0.5-0.5
		c0-0.5,0-0.4,0.2-0.6c0.1-0.1,1.2-0.6,1.2-0.6c0.1-0.1,0.3-0.2,0.2-0.5c-0.1-0.4-0.7-0.4-0.7-0.4c0,0-1.1-0.2-1.5,0.3
		c-0.4,0.4-0.4,1.3-0.3,1.7c0,0.4,0.1,1,1.4,1c1.1,0,1.3-0.6,1.3-0.8c0-0.1,0-0.1,0-0.2c0,0-0.6-0.2-0.7-0.2
		C254.5,23.4,254.5,23.4,254.5,23.6"/>
	<path class="st0" d="M259.8,22.6c0,0.1-0.1,0.1-0.2,0.1c-0.1,0-0.2,0-0.2-0.1v0c0-0.1-0.1-0.2-0.3-0.2h-1v2.8c0,0,0,0.2,0.1,0.3
		c0.1,0.1,0.1,0.1,0.3,0.1h0.1c0.1,0,0.1,0,0.1,0.1v0.2c0,0,0,0.1-0.1,0.1h-2.1c-0.1,0-0.1,0-0.1-0.1v-0.2c0,0,0-0.1,0.1-0.1h0
		c0.1,0,0.2,0,0.3-0.1c0.1-0.1,0.1-0.2,0.1-0.3v-5.5c0,0,0-0.1-0.1-0.2c-0.1-0.1-0.2-0.1-0.3-0.1c0,0-0.1,0-0.1-0.1v-0.4
		c0,0,0-0.1,0.1-0.1l4.2,0c0.2,0,0.6,0,0.7,0.1c0,0,0.1,0.1,0.1,0.2c0,0,0,0.2-0.2,0.4c-0.2,0.1-1.3,0.8-1.3,0.8
		c-0.1,0-0.1,0-0.1-0.1v-0.1c0-0.1,0-0.2,0.2-0.3c0.1-0.1,0.1-0.1,0.1-0.3c0-0.2-0.3-0.2-0.4-0.2h-1.5v2c0,0.1,0.1,0.3,0.3,0.3
		c0.2,0,1.1,0,1.1,0c0,0,0.1,0,0.2,0.1c0.1,0,0.1,0.1,0.1,0.2V22.6"/>
	<path class="st0" d="M273.1,24.2L273.1,24.2c-0.2,0-0.2,0-0.3-0.1c-0.1-0.1-0.1-0.2-0.1-0.2c0,0,0-3.3,0-3.3c0,0,0-0.1,0-0.1
		c0,0,0,0-0.1,0h-1.4c0,0-0.1,0-0.1,0.1v0.2c0,0,0,0.1,0.1,0.1h0.1c0.1,0,0.2,0,0.2,0.1c0.1,0.1,0.1,0.2,0.1,0.2c0,0,0,2.7,0,2.7
		c0,0.1,0,0.1-0.1,0.2c-0.1,0.1-0.1,0.1-0.2,0.1c0,0,0,0,0,0c0,0-0.1,0-0.1,0.1v0.2c0,0,0,0.1,0.1,0.1h1.8c0,0,0.1,0,0.1-0.1
		L273.1,24.2C273.2,24.2,273.1,24.2,273.1,24.2"/>
	<path class="st0" d="M262.5,21.9c-0.4,0-1.2-0.1-1.2-0.5c0-0.5,0.5-0.5,0.5-0.5h0.1c0.3,0,0.5,0,0.6,0.1c0.1,0.1,0.1,0.1,0.1,0.2
		V22C262.6,22,262.5,21.9,262.5,21.9 M262.6,23.8c0,0.3-0.3,0.3-0.7,0.3c-0.2,0-0.4,0-0.5-0.1c-0.2-0.2-0.2-0.4-0.2-0.5v0
		c0-0.1,0-0.5,0.4-0.8c0.3-0.2,0.8-0.4,0.9-0.4c0.1,0,0.1,0,0.1,0V23.8z M264.2,24.2c0,0-0.3-0.1-0.3-0.4v-2.4c0,0,0-0.8-1.2-0.9
		c0,0-0.8-0.1-1.6,0c-0.7,0.1-0.8,0.6-0.8,0.9c0,0.2,0.2,0.6,0.8,0.6h0.2c0.3,0,0.3,0,0.4,0c0,0,0,0,0,0.1c0,0.1-0.1,0.1-0.3,0.2
		c-0.5,0.2-1.4,0.5-1.4,1.4c0,0.2,0.1,0.4,0.4,0.6c0.4,0.2,1.2,0.4,2.2,0c0,0,0,0,0,0c0.1,0,0.1-0.1,0.3,0c0,0,0,0,0,0
		c0,0,0.1,0.1,0.3,0.1h1.1c0,0,0.1,0,0.1-0.1L264.2,24.2C264.2,24.2,264.2,24.2,264.2,24.2"/>
	<path class="st0" d="M273.5,14C273.5,14,273.5,14,273.5,14C273.5,14.1,273.5,14.1,273.5,14c0.1,0.1,0.1,0.1,0.1,0.1
		c0.2,0,0.4,0,0.5,0.7c0.1,0.5,0.2,1.6-0.3,2.1c-0.1,0.1-0.3,0.2-0.4,0.2c-0.1,0-0.2,0-0.3-0.1c-0.5-0.4-0.4-1.8-0.4-1.9
		c0,0,0-1,0.5-1.4c0.2-0.1,0.4-0.2,0.6-0.1c0,0,0.1,0,0.1,0c0,0,0,0,0-0.1c0,0,0,0-0.1-0.1c-0.2-0.1-0.7-0.2-1.3,0.1
		c-1,0.4-1.1,1.5-1.1,2c0,1.8,1.1,2,1.5,2h0c0.4,0.1,1.8,0.2,2.3-0.9c0.3-0.7,0.3-1.8-0.1-2.5c-0.1-0.3-0.3-0.4-0.5-0.5
		C274.3,13.5,273.6,13.7,273.5,14"/>
	<path class="st0" d="M257.5,14c-0.1-0.3-0.3-0.4-0.5-0.5c-0.3-0.1-0.9,0.1-1.1,0.4c0,0,0,0,0,0.1c0,0,0.1,0,0.1,0c0,0,0,0,0,0
		c0.2,0,0.4,0,0.5,0.7c0.1,0.4,0.2,1.6-0.3,2.1c-0.1,0.1-0.3,0.2-0.4,0.2c-0.1,0-0.2,0-0.3-0.1c-0.5-0.4-0.4-1.8-0.4-1.9
		c0,0,0-1,0.5-1.4c0.2-0.1,0.4-0.2,0.6-0.1c0,0,0.1,0,0.1,0c0,0,0,0,0-0.1c0,0,0,0-0.1-0.1c-0.2-0.1-0.7-0.2-1.3,0.1
		c-1,0.4-1.1,1.5-1.1,2c0,1.8,1.1,2,1.5,2l0,0c0.4,0.1,1.8,0.2,2.3-0.9C257.9,15.9,257.9,14.7,257.5,14"/>
	<path class="st0" d="M259.2,13.4l-1.1,0c-0.1,0-0.2,0-0.2,0.2c0,0.1,0,0.1,0,0.1c0,0,0.1,0,0.1,0c0.1,0,0.2,0,0.2,0.1
		c0.1,0.1,0.1,0.2,0.1,0.4v2.4c0,0.1,0,0.2-0.1,0.2c-0.1,0.1-0.1,0.1-0.2,0.1c0,0,0,0,0,0c0,0-0.1,0-0.1,0.1v0.2c0,0,0,0.1,0.1,0.1
		h1.8c0,0,0.1,0,0.1-0.1V17c0,0,0-0.1-0.1-0.1c0,0,0,0,0,0c-0.1,0-0.2,0-0.2-0.1c-0.1-0.1-0.1-0.2-0.1-0.2c0-0.1,0-2.4,0-2.4
		c0-0.1,0.1-0.4,0.5-0.4c0.5,0,0.5,0.3,0.5,0.4c0,0,0,2.3,0,2.4c0,0.1,0,0.1-0.1,0.2c-0.1,0.1-0.1,0.1-0.2,0.1h0c0,0-0.1,0-0.1,0.1
		v0.2c0,0,0,0.1,0.1,0.1h1.8c0,0,0.1,0,0.1-0.1V17c0,0,0-0.1-0.1-0.1c0,0,0,0,0,0c-0.1,0-0.2,0-0.2-0.1c-0.1-0.1-0.1-0.2-0.1-0.2
		l0-1.2v-1.1v0c0-0.1,0-0.2,0.1-0.4c0.1-0.1,0.2-0.1,0.4-0.1c0.1,0,0.3,0,0.3,0.1c0.1,0.1,0.1,0.3,0.1,0.4c0,0,0,0,0,0
		c0,0,0,2.2,0,2.3c0,0,0,0.1-0.1,0.2c-0.1,0.1-0.1,0.1-0.2,0.1h0c0,0-0.1,0-0.1,0.1v0.2c0,0,0,0.1,0.1,0.1h1.8c0,0,0.1,0,0.1-0.1V17
		c0,0,0-0.1-0.1-0.1c0,0,0,0,0,0c-0.1,0-0.2,0-0.2-0.1c-0.1-0.1-0.1-0.2-0.1-0.2c0,0,0-2.3,0-2.3c0,0,0-0.5-0.3-0.8
		c-0.3-0.2-1.2-0.5-2,0.2c-0.1,0-0.1,0.1-0.2,0.1c-0.1,0-0.1,0-0.2-0.2c-0.1-0.2-0.2-0.3-0.9-0.3c-0.9,0-1,0.4-1,0.4
		S259.5,13.4,259.2,13.4"/>
	<path class="st0" d="M271.6,12.8C271.6,12.7,271.6,12.7,271.6,12.8c0-0.1-0.1-0.1-0.1-0.1c-0.1,0.1-0.6,0.1-0.8,0.1
		c-0.1,0-0.2,0-0.3-0.1c-0.1-0.1-0.1-0.1-0.1-0.1v-0.7c0-0.3-0.2-0.3-0.2-0.3h-1.2c0,0-0.1,0-0.1,0.1v0.2c0,0,0,0.1,0.1,0.1
		c0.1,0,0.2,0,0.3,0.1c0.1,0.1,0.1,0.1,0.1,0.2c0,0,0,0.4,0,0.4c0,0.1,0,0.1-0.1,0.2c0,0-0.1,0-0.1,0h-0.5c0,0-0.1,0-0.1,0.1v0.6
		c0,0,0,0.1,0.1,0.1h0.6l0,3.2c0,0.7,0.5,0.7,0.6,0.7c0.7,0,1.3-0.5,1.3-0.6c0-0.1,0-0.1-0.1-0.2c0,0-0.1,0-0.1,0
		c-0.2,0.1-0.6,0-0.6-0.4v-2.7h0C271.1,13.5,271.5,13.2,271.6,12.8"/>
	<path class="st0" d="M277.5,17L277.5,17c-0.2,0-0.2,0-0.3-0.1c-0.1-0.1-0.1-0.2-0.1-0.2s0-3.3,0-3.3c0,0,0-0.1,0-0.1c0,0,0,0-0.1,0
		h-1.4c0,0-0.1,0-0.1,0.1v0.2c0,0,0,0.1,0.1,0.1h0.1c0.1,0,0.2,0,0.2,0.1c0.1,0.1,0.1,0.2,0.1,0.2c0,0,0,2.7,0,2.7s0,0.1-0.1,0.2
		c-0.1,0.1-0.1,0.1-0.2,0.1c0,0,0,0,0,0c0,0-0.1,0-0.1,0.1v0.2c0,0,0,0.1,0.1,0.1h1.8c0,0,0.1,0,0.1-0.1L277.5,17
		C277.6,17,277.6,17,277.5,17"/>
	<path class="st0" d="M281.5,14c0-0.1-0.1-0.5-0.6-0.7c-0.6-0.2-1.1,0.1-1.2,0.2c-0.1,0.1-0.2,0.1-0.2,0.1c0,0-0.1,0-0.1-0.1v-0.2
		c0,0,0-0.1-0.1-0.1h-1.5c0,0-0.1,0-0.1,0.1v0.2c0,0,0,0.1,0.1,0.1l0.2,0c0.1,0,0.2,0,0.2,0.1c0.1,0.1,0.1,0.2,0.1,0.2
		c0,0,0,2.7,0,2.7c0,0,0,0.2-0.1,0.2c0,0-0.1,0.1-0.2,0.1h0c0,0-0.1,0-0.1,0.1v0.2c0,0,0,0.1,0.1,0.1h1.8c0,0,0.1,0,0.1-0.1V17
		c0,0,0-0.1-0.1-0.1h-0.1c-0.1,0-0.2,0-0.2-0.1c-0.1-0.1-0.1-0.2-0.1-0.2c0-0.1,0-2.2,0-2.2c0-0.5,0.4-0.5,0.4-0.5
		c0.2,0,0.3,0,0.4,0.1c0.1,0.1,0.1,0.3,0.1,0.4c0,0,0,0,0,0c0,0.2,0.3,0.2,0.3,0.3c0.3-0.2,0.7-0.5,0.7-0.5
		C281.6,14.2,281.6,14.1,281.5,14"/>
	<path class="st0" d="M276.8,12.2h-0.6c-0.2,0-0.4,0.2-0.4,0.3s0.2,0.3,0.4,0.3h0.6c0.2,0,0.4-0.2,0.4-0.3S277,12.2,276.8,12.2"/>
	<path class="st0" d="M267.3,13.4c-0.5,0-0.6,0.1-0.8,0.2c-0.1,0-0.1,0.1-0.2,0.1c-0.1,0-0.1,0-0.2-0.1c-0.1-0.1-0.1-0.2-0.1-0.2
		v-0.1c0,0,0-0.1-0.1-0.1h-1.2c0,0-0.1,0-0.1,0.1v0.2c0,0,0,0.1,0.1,0.1c0.1,0,0.2,0,0.3,0.1c0.1,0.1,0.1,0.1,0.1,0.2v4.2
		c0,0,0,0.1-0.1,0.2c-0.1,0.1-0.1,0.1-0.2,0.1c0,0,0,0,0,0c0,0-0.1,0-0.1,0.1v0.2c0,0,0,0.1,0.1,0.1h1.9c0,0,0.1,0,0.1-0.1v-0.2
		c0,0,0-0.1-0.1-0.1h-0.1c-0.1,0-0.2,0-0.2-0.1c-0.1-0.1-0.1-0.2-0.1-0.2c0,0,0-3.7,0-3.7c0-0.3,0.2-0.5,0.5-0.5
		c0.3,0,0.5,0.2,0.5,0.5v1.9c0,0.8-0.4,0.8-0.6,0.7c-0.1-0.1-0.2-0.1-0.2,0c-0.1,0-0.1,0.1,0.1,0.3c0.3,0.2,0.7,0.2,1,0.1
		c0.6-0.2,1-0.9,1-1.8C268.6,14.1,268.1,13.4,267.3,13.4"/>
	<path class="st0" d="M254.7,17.6c-0.3-0.1-0.7-0.4-0.7-0.4c-0.2,0.2-0.7,0.6-1.8,0.4c-1.1-0.3-1.4-1.3-1.4-3.1
		c0-1.4,0.4-2.6,1.6-2.6c0.5,0,1,0.3,1,0.7c0,0,0,0,0,0c0,0.1,0,0.2-0.1,0.3c-0.1,0.2-0.2,0.2-0.2,0.4v0.2c0,0.1,0,0.1,0.1,0.1
		c0,0,0.8-0.6,1-0.7c0.3-0.2,0.2-0.4,0.2-0.5c0,0,0-0.1-0.1-0.2c-0.4-0.6-1.1-0.9-2-0.9c-1.5,0-3.3,1.4-3.3,3.7c0,1.9,1.3,3.3,3,3.5
		c0.2,0,0.7,0,0.9,0C254.2,18.2,254.7,17.6,254.7,17.6"/>
</g>
<g>
	<path class="st0" d="M129.3,36.9H92.3V0h36.9V36.9z M92.9,36.3h35.7V0.6H92.9V36.3z"/>
	<path class="st0" d="M101.3,18.3c-0.4-0.3-1.1-0.6-2.2-1c-0.1,0-0.1,0-0.1,0c0,0,0,0,0,0l0,0c-1-0.3-1.6-0.6-1.9-0.9
		c-0.4-0.4-0.6-0.9-0.6-1.5c0-0.8,0.2-1.5,0.7-1.9c0.4-0.4,1-0.6,1.7-0.6c0.8,0,1.4,0.3,1.9,0.7c0.5,0.5,0.8,1.2,0.8,2.2l0,0.1h0.6
		l0-0.1c0-1.1-0.4-2-1-2.6c-0.6-0.6-1.3-0.9-2.3-0.9c-0.9,0-1.6,0.3-2.1,0.8c-0.6,0.6-0.9,1.4-0.9,2.4c0,0.8,0.2,1.5,0.7,2
		c0.3,0.3,1,0.7,2.2,1.1c0.1,0,0.1,0,0.1,0l0,0l0,0c1,0.3,1.7,0.6,1.9,0.8c0.6,0.4,0.9,1.1,0.9,2c0,0.8-0.3,1.5-0.8,2
		c-0.5,0.4-1.1,0.7-1.9,0.7c-0.8,0-1.5-0.3-2-0.9c-0.5-0.6-0.8-1.4-0.8-2.4l0-0.1h-0.6l0,0.1c0.1,1.2,0.4,2.2,1,2.9
		c0.6,0.7,1.4,1.1,2.4,1.1c1,0,1.8-0.3,2.4-0.8c0.7-0.6,1-1.5,1-2.6C102.4,19.7,102,18.9,101.3,18.3"/>
	<polygon class="st0" points="103.5,23.2 103.5,18 107.9,18 107.9,17.3 103.5,17.3 103.5,12.6 109.1,12.6 109.1,11.9 102.9,11.9 
		102.9,23.9 109.2,23.9 109.2,23.2 	"/>
	<polygon class="st0" points="117.4,11.9 114,20.1 110.5,11.9 109.7,11.9 109.7,23.9 110.3,23.9 110.3,13.2 113.8,21.1 113.8,21.1 
		114.2,21.1 117.6,13.2 117.6,23.9 118.2,23.9 118.2,11.9 	"/>
	<path class="st0" d="M124.1,19.2h-4l2-6.3L124.1,19.2z M122.4,11.9h-0.7l-3.9,12h0.6l1.3-4h4.5l1.3,4h0.6L122.4,11.9z"/>
	<g>
		<path class="st0" d="M99.2,25.8c-0.1-0.1-0.1-0.2-0.3-0.3c-0.1,0-0.1,0-0.2,0h-0.2v1.1h0.2c0.2,0,0.3,0,0.4-0.1
			c0.1-0.1,0.1-0.2,0.1-0.4C99.2,25.9,99.2,25.9,99.2,25.8 M99.4,26.4c-0.1,0.2-0.2,0.3-0.4,0.3c-0.1,0-0.2,0-0.3,0h-0.3v-1.4h0.4
			c0.2,0,0.4,0,0.5,0.1c0.2,0.1,0.2,0.3,0.2,0.6C99.4,26.2,99.4,26.3,99.4,26.4"/>
		<path class="st0" d="M104.4,25.9c-0.1-0.3-0.3-0.5-0.6-0.5c-0.1,0-0.3,0-0.4,0.1c-0.1,0.1-0.2,0.2-0.2,0.3H104.4z M104.6,26.1
			h-1.3c0,0.2,0.1,0.3,0.2,0.4c0.1,0.1,0.2,0.1,0.4,0.1c0.2,0,0.4-0.1,0.5-0.3h0.2c-0.1,0.3-0.4,0.5-0.7,0.5c-0.2,0-0.4-0.1-0.5-0.2
			c-0.1-0.1-0.2-0.3-0.2-0.5c0-0.2,0.1-0.4,0.2-0.5c0.1-0.1,0.3-0.2,0.5-0.2c0.2,0,0.4,0.1,0.5,0.2
			C104.5,25.7,104.6,25.9,104.6,26.1L104.6,26.1z"/>
		<path class="st0" d="M108.2,26.3h0.2v0c0,0.1,0,0.2,0.1,0.2c0.1,0.1,0.1,0.1,0.2,0.1c0.1,0,0.1,0,0.2-0.1c0,0,0.1-0.1,0.1-0.2
			c0-0.1,0-0.1-0.1-0.2c0,0-0.1-0.1-0.2-0.1c-0.1,0-0.2-0.1-0.3-0.1c-0.1-0.1-0.1-0.2-0.1-0.3c0-0.1,0-0.2,0.1-0.3
			c0.1-0.1,0.2-0.1,0.3-0.1c0.1,0,0.2,0,0.3,0.1c0.1,0.1,0.1,0.2,0.1,0.3h-0.2c0-0.1-0.1-0.2-0.2-0.2c-0.1,0-0.1,0-0.2,0.1
			c0,0-0.1,0.1-0.1,0.2c0,0.1,0,0.1,0.1,0.2c0,0,0.1,0,0.1,0.1c0.1,0,0.1,0,0.1,0c0.2,0.1,0.3,0.2,0.3,0.4c0,0.1,0,0.2-0.1,0.3
			c-0.1,0.1-0.2,0.1-0.3,0.1c-0.1,0-0.3,0-0.3-0.1C108.2,26.6,108.2,26.5,108.2,26.3"/>
	</g>
	<path class="st0" d="M112.8,26.8h0.2v-1.4h-0.2V26.8z M112.8,25.2h0.2v-0.3h-0.2V25.2z"/>
	<path class="st0" d="M117.9,26.6c-0.1,0.1-0.2,0.1-0.3,0.2c0,0-0.1,0-0.2,0c-0.2,0-0.4-0.1-0.5-0.2c-0.1-0.1-0.2-0.3-0.2-0.5
		c0-0.2,0.1-0.4,0.2-0.5c0.1-0.1,0.3-0.2,0.5-0.2c0.3,0,0.5,0.1,0.6,0.4h-0.2c-0.1-0.2-0.3-0.2-0.4-0.2c-0.2,0-0.3,0.1-0.4,0.2
		c-0.1,0.1-0.2,0.2-0.2,0.4c0,0.2,0,0.3,0.1,0.4c0.1,0.1,0.2,0.2,0.4,0.2c0.1,0,0.2,0,0.3-0.1c0.1-0.1,0.2-0.2,0.2-0.3h-0.7V26h0.9
		C118.1,26.3,118.1,26.4,117.9,26.6"/>
	<path class="st0" d="M122,25.3h0.2v0.2c0.1-0.1,0.3-0.2,0.5-0.2c0.2,0,0.4,0.1,0.5,0.2c0.1,0.1,0.1,0.3,0.1,0.5v0.8H123V26
		c0-0.2,0-0.3-0.1-0.4c-0.1-0.1-0.2-0.1-0.3-0.1c-0.2,0-0.3,0.1-0.4,0.2c0,0.1-0.1,0.2-0.1,0.4v0.7H122V25.3z"/>
</g>
<g>
	<path class="st0" d="M175.4,36.9h-36.9V0h36.9V36.9z M139.1,36.3h35.7V0.6h-35.7V36.3z"/>
	<path class="st0" d="M149.8,13.2V15c0,0.5-0.1,1.1-0.3,1.3c-0.1,0.2-0.9,1-1.2,1.1c-0.2,0.1-1.1,0.5-1.8,0c0,0-0.3-0.3-0.3-0.4
		c-0.1-0.1-0.1-0.2-0.1-0.3c-0.1-0.1-0.1-0.2-0.3-0.2c-0.2,0.1-0.3,0.2-0.4,0.3c0,0.1,0,0.4,0.3,0.7c0.3,0.2,1.6,1.2,2.7,0.5
		c0,0,0.5-0.3,1.1-0.9c0.4-0.5,0.6-1,0.7-1.6c0-0.2,0.1-1,0.1-1.2c0-0.2,0-0.9,0-1c0,0,0-0.3-0.1-0.4c-0.1-0.1-0.5-0.2-0.5,0.3V13.2
		z"/>
	<path class="st0" d="M151.3,14.9c0.1-0.1,1.1-0.6,1.5-0.5c0.4,0,1.1,0.1,1.3,0.2c0.2,0.2,0.4,0.4,0.6,0.7c0.2,0.2,0.3,0.9,0.4,1.1
		c0.1,0.2,0.4,0.9-0.2,0.8c0,0-0.2-0.2-0.3-0.3c-0.1-0.1-0.1-0.1-0.2-0.2c-0.1-0.1-0.1-0.6-0.1-0.6s0-0.4-0.1-0.5
		c-0.1-0.1-0.2-0.2-0.2-0.3c0-0.1-0.1-0.3-0.2-0.4c-0.1-0.1-0.1-0.1-0.4-0.2c-0.3-0.1-1.1-0.1-1.5,0.2c0,0-0.4,0.4-0.6,0.4
		c-0.2,0-0.2-0.1-0.2-0.3c0-0.1,0-0.1,0.1-0.2C151.3,14.9,151.2,15,151.3,14.9"/>
	<path class="st0" d="M153.8,15.1c-0.2,0-1.2,0.1-1.4,0.2c-0.5,0.2-0.9,0.5-1,0.6c-0.1,0.1-0.9,1,0.1,1.3c0,0,0.4,0.2,1.2,0
		c0.4-0.1,0.7-0.3,1-0.4c0.2-0.1,0.6-0.2,0.6-0.2l-0.1-0.5c0,0-0.2,0.1-0.5,0.2c-0.2,0.1-0.6,0.4-0.9,0.4c-0.2,0.1-0.5,0.1-0.6,0.1
		c-0.2,0-0.7,0-0.5-0.5c0.2-0.4,0.5-0.6,1-0.8c0.4-0.2,0.7-0.2,0.8-0.2c0.1,0,0.3,0,0.3,0S154.1,15.1,153.8,15.1"/>
	<path class="st0" d="M155.9,14.4c0.1,0,0.3-0.1,0.4,0.2c0.1,0.2,0.2,0.6,0.2,0.6s0.3-0.3,0.5-0.4c0.2-0.1,0.4-0.1,0.5-0.2
		c0.1,0,0.4-0.2,0.6-0.2c0.2,0.1,0.2,0.2,0.1,0.3c-0.1,0.1-0.2,0.3-0.3,0.3c-0.2,0-0.2,0-0.4,0c-0.2,0-0.4,0.1-0.6,0.2
		c-0.2,0.1-0.2,0.2-0.2,0.4c0,0.2,0,0.8,0,0.9c0,0.2,0,0.4-0.1,0.5c-0.1,0.1-0.2,0.2-0.4,0c-0.1-0.1,0-0.2,0-0.3c0-0.1,0-0.5,0-0.7
		c0-0.2-0.1-0.4-0.2-0.5c-0.1-0.1-0.1-0.3-0.1-0.4c-0.1-0.1-0.1-0.2-0.2-0.3c0-0.1-0.1-0.2,0-0.3C155.7,14.4,155.7,14.4,155.9,14.4"
		/>
	<path class="st0" d="M161.5,14.9c-0.2-0.1-0.6-0.1-0.9-0.1c-0.3,0-1,0.1-1.2,0.2c-0.2,0.1-0.7,0.5-0.9,0.9c-0.2,0.4,0,1.1,0.5,1.2
		c0.5,0.1,0.9,0.1,1.2,0c0.3-0.2,0.7-0.2,0.9-0.3c0.2-0.1,0.4-0.2,0.6-0.3c0.1-0.1,0.1-0.8,0.1-0.8s0,0.1-0.2,0.3
		c-0.2,0.2-0.7,0.5-1.1,0.6c-0.4,0.1-0.6,0.2-0.9,0.2c-0.3-0.1-0.3,0-0.5-0.2c-0.1-0.2-0.3-0.5,0-0.7c0.4-0.3,0.5-0.3,0.8-0.4
		c0.3-0.1,0.7-0.1,1-0.1c0.2,0.1,0.5,0,0.6,0.1c0.1,0.1,0.4,0.2,0.4,0.2S161.7,14.9,161.5,14.9"/>
	<path class="st0" d="M161.5,13.9c0,0.3,0.1,0.5,0.1,0.8c0,0.2,0,0.3,0,0.3s0,0.4,0.1,0.6c0,0.2,0,0.8,0,0.8s0,0,0.1,0.2
		c0.1,0.2,0,0.3,0.1,0.5c0.1,0.1,0.1,0.4,0.4,0.2c0.2-0.2,0.2-0.1,0.1-0.4c-0.1-0.2-0.1-0.7-0.2-1.1c-0.1-0.4-0.1-1.4-0.1-1.6
		c0-0.2,0-0.6,0-0.7c0-0.2-0.1-0.6-0.1-0.8c0-0.1-0.4-0.6-0.6-0.3c-0.2,0.3-0.2,0.2-0.1,0.3c0.1,0.1,0.1,0.1,0.2,0.4
		C161.4,13.2,161.5,13.8,161.5,13.9C161.5,13.8,161.4,13.6,161.5,13.9"/>
	<path class="st0" d="M163.4,13.3c0.2,0.1,0.2,0.2,0.3,0.3c0.1,0.1,0.2,0.2,0.2,0.3c0,0,0,0.2-0.2,0.2s-0.2,0-0.3,0
		c-0.2-0.1-0.2,0-0.2-0.2c0-0.2,0-0.2,0-0.2C163.3,13.5,163.3,13.2,163.4,13.3"/>
	<path class="st0" d="M163.6,14.9c-0.1,0.1-0.1,0.1-0.3,0.2c-0.1,0.1-0.2,0.2-0.1,0.5c0,0.3,0,0.8,0,1c0,0.1,0.1,0.4,0.2,0.5
		c0.1,0.1,0.3,0.2,0.3,0c0-0.1,0-0.2,0-0.4c0-0.2,0-0.4,0-0.6c0-0.2,0-0.3,0-0.4c0-0.1,0-0.2,0.1-0.4
		C163.9,15,163.7,14.8,163.6,14.9"/>
	<path class="st0" d="M164.5,15c0,0.1,0.1,0.3,0.1,0.8c0,0.4,0,1,0,1.3c0.1,0.2,0.2,0.4,0.4,0.2c0.3-0.2,0.2-0.3,0.2-0.5
		s-0.1-0.9-0.1-1c0-0.1-0.1-0.1,0.3-0.3c0.3-0.2,0.6-0.2,0.9-0.2c0.3,0,0.8,0.3,1,0.6c0.2,0.3,0.5,0.8,0.5,1c0,0.2,0.1,0.5,0.2,0.7
		c0,0.2,0.4,0.7,0.4,0.1c0,0-0.2-1.3-0.4-1.6c-0.2-0.3-0.6-1-1-1.2c-0.5-0.1-1.1,0-1.3,0.1c-0.2,0.1-0.5,0.2-0.5,0.2
		s-0.1-0.2-0.2-0.2c-0.2-0.1-0.2-0.1-0.3,0C164.6,14.9,164.4,14.9,164.5,15"/>
	<path class="st0" d="M143.2,19.2c0.1,0.4,0.3,1.7,0.3,2c0,0.2-0.1,0.4,0,0.7c0,0.3,0.1,0.5,0.1,0.8s-0.1,0.3,0.1,0.6
		c0.2,0.3,0.3,0.5,0.5,0.5c0.2,0,0.1,0,0.1-0.1c0-0.1,0-0.7,0-1c0-0.3-0.2-0.8-0.2-1.1c0-0.3-0.1-0.9-0.1-1.1c0-0.2-0.1-0.8-0.1-1
		c0-0.1-0.1-0.6-0.2-0.7c-0.1-0.1-0.2-0.2-0.3-0.1c-0.1,0.1-0.3,0.1-0.2,0.3C143.3,19.2,143.3,19.2,143.2,19.2
		C143.3,19.2,143.2,18.8,143.2,19.2"/>
	<path class="st0" d="M143.8,21.5c-0.3,0-1-0.1-1.2-0.1c-0.2,0-0.4,0.1-0.6,0.1s-0.6,0.2-0.8,0.3c-0.2,0.1-0.6,0.5-0.7,0.7
		c-0.1,0.2-0.2,0.9,0.3,1.1c0.5,0.2,0.8,0.2,1.2,0.1c0.4-0.1,0.9-0.4,1.1-0.5s0.7-0.4,0.8-0.5c0.1-0.1,0.2-0.5,0.2-0.5
		s-0.4-0.2-0.4-0.1c0,0.1,0,0.1,0,0.2c-0.1,0.1-0.4,0.5-0.8,0.6c-0.3,0.2-0.7,0.5-1.1,0.4c-0.4-0.1-0.5-0.1-0.6-0.3
		c-0.1-0.2-0.1-0.6,0.1-0.8c0.3-0.2,0.6-0.3,0.9-0.4c0.3,0,0.5-0.1,0.8,0c0.3,0.1,0.5,0.1,0.6,0.2c0.1,0,0.4,0.1,0.4,0.1
		S144.1,21.5,143.8,21.5"/>
	<path class="st0" d="M146.4,19.6c-0.1,0.2-0.2,0.4-0.3,0.5c-0.1,0.1-0.4,0.6,0.1,0.4c0.5-0.2,0.5-0.4,0.7-0.5
		c0.2-0.2,0.2-0.5,0.2-0.5c0,0,0,0,0-0.1c0-0.1,0-0.1-0.2-0.1s-0.3,0.1-0.4,0.1C146.4,19.4,146.5,19.4,146.4,19.6"/>
	<path class="st0" d="M149.7,18.9c-0.1,0.1-0.5,0.7-0.7,1.1c-0.2,0.4-0.4,1.2-0.4,1.4c0,0.2-0.2,1,0.4,1.7c0.6,0.7,0.9,0.7,1.6,0.8
		c0.7,0.1,1.2-0.2,1.4-0.4c0.2-0.2,0.3-0.3,0.4-0.3c0.2-0.1,0.1-0.1,0.1,0c0.1,0.3,0.1,0.5,0.3,0.6c0.1,0.1,0.4,0.1,0.4,0
		c0-0.1,0-0.5,0-0.9c0-0.4-0.1-0.7-0.1-1c0-0.3,0.1-1,0.1-1.2c0-0.3,0-0.6,0-0.8c0-0.2-0.1-0.5,0.1-0.6c0.1-0.1,0.2-0.2,0.2-0.3
		c0-0.1-0.1-0.4-0.3-0.5c-0.1,0-0.2,0-0.3,0.2c-0.2,0.2-0.4,0.1-0.4,0.7c0,0.6,0,1.1,0,1.6c0,0.4,0,0.7-0.1,1c0,0.3-0.1,0.5-0.3,0.7
		c-0.2,0.2-0.3,0.4-0.9,0.4c-0.6,0.1-0.7,0.1-0.9,0.1c-0.2-0.1-0.4-0.1-0.7-0.4c-0.3-0.3-0.4-0.7-0.4-1c0-0.4,0-0.8,0.2-1.1
		c0.2-0.3,0.2-0.5,0.4-0.8c0.2-0.3,0.4-0.4,0.5-0.6c0.1-0.1,0.1-0.1,0.2-0.3c0-0.2,0-0.2-0.1-0.4c-0.1-0.1-0.1-0.2-0.3-0.1
		C149.8,18.7,149.8,18.8,149.7,18.9"/>
	<path class="st0" d="M154.2,19c0,0.2,0.1,1.2,0,1.4c0,0.2,0,1.1,0,1.4c0,0.3,0.2,1,0.3,1.2c0.1,0.2,0.3,0.4,0.5,0.6
		c0.3,0.1,0.4,0.4,0.6,0.1c0.2-0.2,0.2-0.3-0.1-0.4c-0.2-0.1-0.6-0.3-0.6-0.5c-0.1-0.2-0.1-0.3-0.2-0.9c-0.1-0.7,0-1.3,0-1.8
		c0-0.5,0-0.5,0-0.7c0-0.2,0.1-1-0.2-0.9c-0.3,0.1,0,0,0,0s-0.3-0.1-0.4,0.1C154.2,18.7,154.2,18.8,154.2,19"/>
	<path class="st0" d="M156.3,21.2c0.2-0.1,0.2-0.1,0.4,0c0.3,0.2,0.4,0.5,0.5,0.8c0.1,0.3,0.4,0.6,0.5,0.7c0.1,0.1,0,0,0,0
		s0.1,0.1,0.3-0.1c0.2-0.2,0.3-0.4,0.3-0.6c0-0.3,0.1-0.4,0.1-0.6c0-0.1-0.1-0.3-0.1-0.4c0-0.1,0.4-0.5,0.6-0.1c0,0,0.2,0.4,0.1,0.7
		c-0.1,0.2-0.1,0.5-0.2,0.8c-0.2,0.8-0.8,1.4-1,1.6c-0.2,0.2-1,0.6-1.4,0.6c-0.4,0.1-1.1,0.2-1.2,0.1c-0.1,0,0,0,0,0s-0.3-0.3,0-0.4
		c0.4-0.1,0.3-0.1,0.8-0.2c0.5-0.1,0.7-0.2,1-0.3c0.3-0.1,0.5-0.2,0.6-0.4c0.1-0.2,0.1-0.2,0.1-0.2s-0.2-0.1-0.3-0.2
		c-0.1-0.2-0.2-0.3-0.4-0.5c-0.2-0.2-0.4-0.4-0.5-0.6c-0.1-0.1-0.2-0.2-0.3-0.3s-0.2-0.3-0.1-0.4C156.2,21.2,156.1,21.3,156.3,21.2"
		/>
	<path class="st0" d="M162,21.1c0.1,0.1,0.3,0.1,0.4,0.2c0.1,0.1,0.4,0.2,0.5,0c0.1-0.1,0.1-0.4,0-0.5c-0.1-0.1-0.3-0.2-0.8-0.2
		c-0.5,0-1,0-1.2,0.1c-0.2,0.1-1,0.5-0.3,1.2c0,0,0.2,0.3,0.8,0.3c0.6,0,1,0.1,1.1,0.4c0.1,0.3,0.1,0.3-0.3,0.5
		c-0.4,0.2-1,0.4-1.4,0.2c-0.4-0.1-0.4-0.1-0.6-0.4c-0.2-0.3-0.2-0.5-0.4-0.5c-0.2,0-0.7,0.1-0.5,0.5c0.2,0.4,0.1,0.4,0.5,0.6
		c0.5,0.3,0.7,0.3,1.3,0.3c0.6,0,1.1,0,1.4-0.2c0.3-0.2,0.5-0.4,0.6-0.7c0.1-0.4,0-0.8-0.5-1c-0.5-0.2-0.8-0.1-1.1-0.1
		c-0.4,0-0.8-0.3-0.4-0.6C161.5,20.9,161.9,21,162,21.1"/>
	<path class="st0" d="M166.5,20.9c0.1,0.1,0.3,0.1,0.4,0.2c0.1,0.1,0.4,0.2,0.5,0c0.1-0.1,0.1-0.4,0-0.5c-0.1-0.1-0.3-0.2-0.8-0.2
		c-0.5,0-1,0-1.2,0.1c-0.2,0.1-1,0.5-0.3,1.2c0,0,0.2,0.3,0.8,0.3c0.6,0,1,0.1,1.1,0.4c0.1,0.3,0.1,0.3-0.3,0.5
		c-0.4,0.2-1,0.4-1.4,0.2c-0.4-0.1-0.4-0.1-0.6-0.4c-0.2-0.3-0.2-0.5-0.4-0.5c-0.2,0-0.7,0.1-0.5,0.5c0.2,0.4,0.1,0.4,0.5,0.6
		c0.5,0.3,0.7,0.3,1.3,0.3c0.6,0,1.1,0,1.4-0.2c0.3-0.2,0.5-0.4,0.6-0.7c0.1-0.4,0-0.8-0.5-1c-0.5-0.2-0.8-0.1-1.1-0.1
		c-0.4,0-0.8-0.3-0.4-0.6C166,20.8,166.4,20.8,166.5,20.9"/>
	<path class="st0" d="M172.7,19.5l0-0.2l0.1,0c0.1,0,0.2,0,0.2,0.1c0,0.1-0.1,0.1-0.2,0.1L172.7,19.5z M172.7,19.6l0.1,0l0.2,0.3
		l0.1,0l-0.2-0.3c0.1,0,0.2-0.1,0.2-0.2c0-0.1-0.1-0.2-0.3-0.2l-0.3,0l0,0.7l0.1,0L172.7,19.6z M172.9,20.2c0.3,0,0.6-0.3,0.6-0.6
		c0-0.4-0.3-0.6-0.6-0.6c-0.3,0-0.6,0.3-0.6,0.6C172.2,19.9,172.5,20.2,172.9,20.2 M172.4,19.6c0-0.3,0.2-0.5,0.5-0.5
		c0.3,0,0.5,0.2,0.5,0.5c0,0.3-0.2,0.5-0.5,0.5C172.6,20.1,172.4,19.9,172.4,19.6"/>
	<path class="st0" d="M168.9,22.2c0.1-0.1,0.2-0.2,0.2-0.2c0.3-0.3,0.7-0.6,1-0.7c0.3,0,0.5-0.1,0.4,0.3c-0.3,0.4-0.4,0.6-1.2,1
		C168.9,22.8,168.7,22.7,168.9,22.2 M171.4,22.6c-0.2,0.3-0.5,0.5-0.7,0.7c-0.2,0.2-0.5,0.2-1.1,0.2c-0.7,0.1-0.6-0.3-0.6-0.3
		s0.3-0.1,0.5-0.1c0.2-0.1,0.5-0.2,0.8-0.3c0.3-0.1,0.5-0.3,0.6-0.6c0.2-0.2,0.2-0.6,0.2-0.9c-0.1-0.3-0.3-0.4-0.7-0.4
		c-0.4,0-0.5,0-0.9,0.2c-0.4,0.2-0.5,0.4-0.9,0.8c-0.4,0.4-0.4,0.7-0.4,0.7c-0.3,0.9,0.7,1.3,0.7,1.3c1.1,0.3,1.5,0,1.9-0.1
		c0.4-0.1,0.6-0.3,0.9-0.6c0.3-0.3,0.6-0.6,0.6-0.6C172.3,21.6,171.6,22.1,171.4,22.6"/>
</g>
<g>
	<path class="st0" d="M83.1,36.9H46.2V0h36.9V36.9z M46.8,36.3h35.7V0.6H46.8V36.3z"/>
	<path class="st0" d="M50.8,15.3c-1.3,0-2.4-1-2.4-2.4c0-1.3,1.1-2.4,2.4-2.4c0.7,0,1.4,0.3,1.9,0.8c0.1,0.1,0.2,0.3,0.3,0.5h-0.5
		c-0.3-0.6-1-0.9-1.6-0.9c-1.1,0-2,0.9-2,2c0,1.1,0.9,1.9,2,1.9c0.8,0,1.6-0.6,1.8-1.4h-2.5v-0.4h3.1C53.1,14.3,52,15.3,50.8,15.3"
		/>
	<polygon class="st0" points="53.9,15.2 53.9,10.6 56.4,10.6 56.4,11 54.4,11 54.4,12.7 56.3,12.7 56.3,13.1 54.4,13.1 54.4,14.8 
		56.4,14.8 56.4,15.2 	"/>
	<polygon class="st0" points="60.4,15.2 57.7,11.2 57.7,11.2 57.7,15.2 57.3,15.2 57.3,10.6 57.9,10.6 60.4,14.4 60.4,14.4 
		60.4,10.6 60.9,10.6 60.9,15.2 	"/>
	<polygon class="st0" points="61.8,15.2 61.8,10.6 64.3,10.6 64.3,11 62.3,11 62.3,12.7 64.2,12.7 64.2,13.1 62.3,13.1 62.3,14.8 
		64.3,14.8 64.3,15.2 	"/>
	<polygon class="st0" points="67.1,15.2 66.6,15.2 64.8,10.6 65.3,10.6 66.9,14.6 68.5,10.6 69,10.6 	"/>
	<rect x="69.5" y="10.6" class="st0" width="0.5" height="4.6"/>
	<path class="st0" d="M70.9,15.2v-4.6h2.5V11h-2v1.6h2v0.4h-2v1.7h2v0.4H70.9z M72.6,10.4l-1.2-0.7l0.2-0.4l1.2,0.7L72.6,10.4z"/>
	<polygon class="st0" points="76.1,15.2 75.6,15.2 73.8,10.6 74.3,10.6 75.9,14.6 77.5,10.6 78,10.6 	"/>
	<polygon class="st0" points="78.5,15.2 78.5,10.6 81,10.6 81,11 78.9,11 78.9,12.7 80.9,12.7 80.9,13.1 78.9,13.1 78.9,14.8 
		81,14.8 81,15.2 	"/>
	<polygon class="st0" points="48.5,25.8 48.5,16.4 50.2,16.4 50.2,24.2 53.1,24.2 53.1,25.8 	"/>
	<polygon class="st0" points="53.9,25.8 53.9,16.4 58.9,16.4 58.9,18 55.6,18 55.6,20.3 58.8,20.3 58.8,21.9 55.6,21.9 55.6,24.2 
		58.9,24.2 58.9,25.8 	"/>
	<polygon class="st0" points="63.2,18 63.2,25.8 61.5,25.8 61.5,18 59.8,18 59.8,16.4 65,16.4 65,18 	"/>
	<polygon class="st0" points="71,25.8 71,21.8 67.6,21.8 67.6,25.8 65.9,25.8 65.9,16.4 67.6,16.4 67.6,20.2 71,20.2 71,16.4 
		72.7,16.4 72.7,25.8 	"/>
	<path class="st0" d="M80.4,24.6c-0.6,0.9-1.7,1.4-2.8,1.4c-1,0-2.1-0.5-2.8-1.3c-0.5-0.6-0.6-1.5-0.6-2.3v-5.9H76v5.9
		c0,1.1,0.4,2,1.6,2c1.3,0,1.6-0.9,1.6-2v-5.9H81v5.9C81,23.1,80.9,23.9,80.4,24.6"/>
</g>
<path class="st0" d="M227.8,21.8c-0.6,0-0.9-0.6-0.5-1.1c0.2,0,0.2,0.1,0.3,0.1c0.5,0,1-0.5,0.7-0.9c-0.1-0.2-0.6-0.3-0.8-0.1
	c0.2-0.4,0.5-0.8,0.8-1.2c0.8-1.2,1.4-2.6,2.5-3.5c-0.1,0.2-0.2,0.5-0.3,0.8c-0.2,1-0.3,2-0.6,3c-0.2,0.6-0.4,1.2-0.7,1.7
	C228.9,21.3,228.4,21.9,227.8,21.8 M206.9,18.9c-0.2,0.4-0.5,0.9-0.8,1.3c-0.3,0.4-0.7,0.9-1.3,0.7c-0.1-0.2-0.1-0.4-0.1-0.7
	c0.1-0.8,0.6-1.5,1.1-2.2c0.2-0.4,0.5-0.7,0.7-0.9c0.4-0.5,1.2-1.4,2-0.8C208.1,17.1,207.4,18,206.9,18.9 M226,17
	c0.4-0.5,0.8-1,1.3-1.2c0.1,0,0.3-0.1,0.4,0c0.3,0.7-0.3,1.3-0.6,1.7c-0.5,0.5-1.2,0.9-2,1C225.2,18,225.6,17.5,226,17 M195,10.2
	c-2.2,0.3-4.4,0.9-6.4,1.5c-1,0.3-2,0.6-2.9,1c-1.2,0.5-2.5,0.8-3.3,1.7c-0.1,0.1-0.3,0.3-0.1,0.6v0c0.4,0.6,1.1,1,2.1,1
	c0.1-0.4-0.6-0.3-0.7-0.5c0-0.2,0.3-0.5,0.5-0.7c0.6-0.6,1.4-0.9,2.2-1.3c1.1-0.5,2.3-0.9,3.5-1.2c1.9-0.6,3.5-1.2,5.6-1.5
	c0.7-0.1,1.5-0.2,2.2-0.2c0.4,0,0.7,0.2,0.8,0.5c-1.1,2-2.7,3.8-4.2,5.7c-1.1,1.3-2.2,2.8-3.2,4.2c-0.3,0.5-0.7,1-0.9,1.6
	c0,0.1-0.1,0.4,0,0.6c0.1,0.4,0.7,0.7,1.4,0.6c0.7-0.9,1.4-1.8,2.2-2.6c0.7-0.9,1.6-1.6,2.4-2.4c1.2-1.2,2.5-2.3,4-3.3
	c0.6-0.4,1.1-1,1.8-0.9c-0.2,1.2-1,2.2-1.7,3.3c-0.3,0.5-0.6,1.1-0.9,1.6c-0.3,0.6-0.6,1.2-0.6,1.8c-0.1,0.8,0.1,1.3,0.6,1.5
	c0,0,1,0.7,3.2-1.6c0,0.2,0.1,0.3,0.1,0.5c0.2,0.4,0.5,0.6,1.1,0.6c1-0.1,1.6-1.1,2.1-1.6c-0.4,1,0.1,1.9,1.3,1.6
	c0.8-0.2,1.7-1.2,2.2-1.7c-0.4,0.9-0.1,1.9,1.1,1.7c1-0.1,1.7-1.2,2.2-1.6c-0.3,0.9,0.1,1.7,1.1,1.6c1.1-0.1,2-1.5,2.6-2.1
	c-0.3,0.6-0.1,1.5,0.4,1.8c0.8,0.6,2,0.1,2.6-0.4c0.1-0.1,0.3-0.3,0.4-0.4c0.7-0.6,1.3-1.7,1.8-2.3c0.4,0.2,1.1,0.1,1.4,0
	c-0.3,0.7-0.7,2-0.3,2.8c0.3,0.5,0.8,0.7,1.5,0.6c1-0.1,1.8-1.2,2.4-1.7c-0.4,1.2,0.4,1.8,1.7,1.7c1.2-0.1,2.1-0.9,2.9-1.7
	c0.5-0.5,1-1.2,1.5-1.9c0,0,0.1-0.1,0.2-0.3c0.2-0.3,0.2-0.2,0.1-0.3c-0.1-0.1-0.2,0-0.3,0.1c-0.1,0.1-0.1,0.2-0.2,0.3
	c-0.4,0.6-0.8,1.1-1.2,1.6c-0.4,0.5-0.9,1-1.4,1.4c-0.2,0.1-0.4,0.3-0.6,0.3c0.9-0.5,1.7-1.6,1.5-3c-0.1-0.5-0.2-1.1-0.3-1.6
	c-0.1-0.5-0.2-1.1,0.1-1.6c0.4,0.3,1-0.2,0.7-0.7c-0.2-0.1-0.4-0.1-0.6-0.1c-0.6,0.2-1.1,0.9-1.5,1.4c-0.8,1.1-1.4,2.4-2.3,3.5
	c-0.5,0.5-1,1.1-1.5,1.4c-0.2,0.1-0.5,0.2-0.7,0.1c-1-0.1-0.6-1.7-0.2-2.2c1.3-0.2,2.7-1.1,3.2-2.2c0.2-0.4,0.2-1-0.2-1.2
	c-0.2-0.1-0.6-0.1-0.8-0.1c-0.9,0.1-1.8,0.9-2.3,1.5c-0.3,0.3-0.7,0.7-1,1.1c-0.1,0.2-0.2,0.4-0.3,0.5c-0.3,0.3-1.1,0.6-1.6,0.3
	c0.3-0.4,0.5-1,0.8-1.5c0.2-0.5,0.6-1.2,0.2-1.7c-0.1,0-0.3-0.1-0.4,0c-0.9,0.1-1.7,2.4-1,3.3c-0.3,0.4-0.6,1-1,1.4
	c-0.4,0.4-0.9,0.9-1.4,1c-0.6,0.1-1-0.2-0.9-0.9c0.1-0.6,0.5-1,0.8-1.5c0.6-1,1.3-2.2,1.9-3.1c0,0,0.1-0.1,0-0.1h-1.5
	c-1,1.6-2,3.4-3.2,4.8c-0.2,0.2-0.5,0.4-0.7,0.6c-0.2,0.2-0.6,0.4-0.9,0.2c-0.1-0.3,0-0.6,0.2-0.8c0.4-0.7,0.8-1.4,1.2-2.1
	c0.5-0.9,1.1-1.7,1.6-2.6c0,0,0.1-0.1,0-0.1h-1.4c-1,1.6-1.9,3.4-3.2,4.8c-0.2,0.2-0.4,0.4-0.7,0.7c-0.2,0.2-0.7,0.4-0.9,0.2
	c-0.2-0.3,0.4-1.2,0.5-1.5c0.8-1.3,1.5-2.7,2.3-3.9c0.3,0,0.7,0.1,1,0c0.1,0,0.1-0.1,0.2-0.2c0,0,0.1-0.1,0-0.1h-1
	c0.5-0.9,1.1-1.8,1.6-2.7h-1.5c-0.4,0.7-0.8,1.3-1.2,2c-0.1,0.2-0.2,0.5-0.4,0.7c-0.4,0.1-1.2-0.2-1.2,0.3h1.1
	c-0.9,1.5-1.8,3.2-3,4.5c-0.2,0.2-0.4,0.4-0.7,0.6c-0.2,0.2-0.7,0.5-1,0.3c-0.4-0.3,0.3-1.4,0.4-1.6c0.8-1.3,1.5-2.5,2.3-3.8
	c0-0.1,0.1-0.1,0.1-0.2c0,0,0.2-0.1,0-0.1h-1.6c-0.1,0.1-0.1,0.3-0.2,0.3c-0.1-0.5-0.8-0.7-1.5-0.5c-1,0.3-1.9,1.3-2.6,2
	c-0.8,0.9-1.4,1.9-1.7,2.9c0,0-0.1,0.1-0.1,0.2c-0.7,0.5-1.9,1.7-2.4,1.8c0.4-2.3,2.2-4.2,3.1-6.3c0.2-0.5,0.5-1.3,0.1-1.8
	c-0.2-0.3-0.7-0.4-1.2-0.3c-0.5,0.1-1,0.3-1.4,0.6c-0.4,0.2-0.8,0.5-1.2,0.8c-0.8,0.5-1.6,1.1-2.3,1.7c-1.5,1.2-2.8,2.5-4.1,3.7
	c0.9-1.3,2-2.5,3-3.6c0.7-0.8,1.4-1.6,2.3-2.5c0.6-0.6,1.4-1.4,1.5-2.2c0.2-1.2-0.9-2-2.1-2.1C196.8,10,195,10.2,195,10.2
	 M217.9,14.2c0.3-0.1,0.7-0.5,0.8-0.9c0.2-0.7-0.2-1.2-0.9-1c-0.6,0.1-1.2,0.9-0.8,1.6C217.1,14.2,217.6,14.3,217.9,14.2"/>
</svg>
