<svg xmlns="http://www.w3.org/2000/svg" viewBox="0 0 62.17 13.18"><defs><style>.cls-1{fill:#4b4b4b;}</style></defs><title>Market-Set_logo</title><g id="Calque_2" data-name="Calque 2"><g id="Calque_1-2" data-name="Calque 1"><polygon class="cls-1" points="8.52 11.29 8.85 11.29 8.85 12.83 9.78 12.83 9.78 13.11 8.52 13.11 8.52 11.29"/><path class="cls-1" d="M11,12.38h.56l-.28-.78h0Zm.11-1.1h.34l.71,1.82h-.35l-.17-.48H11l-.17.48h-.33Z"/><polygon class="cls-1" points="16.31 13.14 14.94 13.14 14.94 11.25 15.42 11.25 15.42 12.74 16.31 12.74 16.31 13.14"/><path class="cls-1" d="M17.94,13.18c-.54,0-.82-.26-.82-.77V11.25h.47v1.17c0,.19,0,.36.34.36s.35-.1.35-.36V11.25h.47v1.17a.72.72,0,0,1-.82.77"/><polygon class="cls-1" points="21.74 13.14 21.3 13.14 21.3 12 20.9 13.14 20.54 13.14 20.14 12.02 20.14 13.14 19.69 13.14 19.69 11.25 20.32 11.25 20.73 12.44 21.11 11.25 21.74 11.25 21.74 13.14"/><rect class="cls-1" x="22.69" y="11.25" width="0.47" height="1.89"/><path class="cls-1" d="M25.05,11.16h-.33l-.47-.43h.51Zm.51,2H24.1V11.25h1.44v.41h-1V12h.89v.38h-.89v.38h1Z"/><path class="cls-1" d="M26.9,12.08h.41c.17,0,.24-.07.24-.22s-.08-.22-.24-.22H26.9Zm1.21,1.07h-.49v0a1,1,0,0,1-.05-.3s0-.1,0-.15-.1-.24-.27-.24H26.9v.71h-.47V11.25h1a.54.54,0,0,1,.57.54.48.48,0,0,1-.24.46.48.48,0,0,1,.22.43v.06a.79.79,0,0,0,.07.35Z"/><polygon class="cls-1" points="30.41 13.14 28.95 13.14 28.95 11.25 30.39 11.25 30.39 11.66 29.42 11.66 29.42 11.98 30.31 11.98 30.31 12.36 29.42 12.36 29.42 12.74 30.41 12.74 30.41 13.14"/><path class="cls-1" d="M33.66,12.38h.56l-.28-.78h0Zm.11-1.1h.34l.71,1.82h-.35l-.17-.48h-.73l-.17.48h-.33Z"/><path class="cls-1" d="M37.94,12.85h.32a.81.81,0,0,0,.3,0,.43.43,0,0,0,.19-.14.53.53,0,0,0,.09-.2,1.15,1.15,0,0,0,0-.26,1.17,1.17,0,0,0,0-.26.51.51,0,0,0-.09-.2.44.44,0,0,0-.19-.14.81.81,0,0,0-.3,0h-.32Zm-.32-1.56h.76a.86.86,0,0,1,.36.07.69.69,0,0,1,.26.19.8.8,0,0,1,.15.29,1.36,1.36,0,0,1,0,.72.79.79,0,0,1-.15.29.7.7,0,0,1-.26.19.86.86,0,0,1-.36.07h-.76Z"/><path class="cls-1" d="M40.12,11.29h.32v1.06a1.47,1.47,0,0,0,0,.2.44.44,0,0,0,.05.16.31.31,0,0,0,.13.12.63.63,0,0,0,.47,0,.3.3,0,0,0,.13-.12.44.44,0,0,0,.05-.16,1.47,1.47,0,0,0,0-.2V11.29h.32v1.17a.66.66,0,0,1-.2.52.95.95,0,0,1-1.1,0,.66.66,0,0,1-.2-.52Z"/><path class="cls-1" d="M45.26,13.18a.89.89,0,0,1-.65-.23.61.61,0,0,1-.17-.45v0h.46v0c0,.27.26.3.37.3s.32,0,.32-.19-.19-.18-.4-.24l-.12,0c-.2-.05-.57-.15-.57-.55a.65.65,0,0,1,.72-.59c.37,0,.77.16.77.62v0h-.46v0c0-.17-.11-.24-.33-.24,0,0-.24,0-.24.17s.05.12.48.23h.06c.15,0,.56.14.56.56s-.31.62-.8.62"/><polygon class="cls-1" points="47.77 13.14 47.3 13.14 47.3 11.66 46.75 11.66 46.75 11.25 48.32 11.25 48.32 11.66 47.77 11.66 47.77 13.14"/><polygon class="cls-1" points="50.07 13.14 49.6 13.14 49.6 12.41 48.89 11.25 49.43 11.25 49.84 11.94 50.25 11.25 50.78 11.25 50.07 12.42 50.07 13.14"/><polygon class="cls-1" points="52.87 13.14 51.5 13.14 51.5 11.25 51.97 11.25 51.97 12.74 52.87 12.74 52.87 13.14"/><polygon class="cls-1" points="55.15 13.14 53.68 13.14 53.68 11.25 55.12 11.25 55.12 11.66 54.15 11.66 54.15 11.98 55.05 11.98 55.05 12.36 54.15 12.36 54.15 12.74 55.15 12.74 55.15 13.14"/><path class="cls-1" d="M.21,9.91H62V.21H.21Zm62,.21H0V0H62.17Z"/><polygon class="cls-1" points="2.06 8.32 2.06 1.8 2.53 1.8 5.37 7.45 8.22 1.8 8.68 1.8 8.68 8.32 8.19 8.32 8.19 2.84 5.54 8.11 5.2 8.11 2.56 2.85 2.56 8.32 2.06 8.32"/><path class="cls-1" d="M11.07,6.38h3.66l-1.83-4Zm2.1-4.58,3,6.52h-.54l-.67-1.47h-4.1l-.66,1.47H9.64l3-6.52Z"/><path class="cls-1" d="M18.25,2.27V5.55h2.36a2,2,0,0,0,.75-.13,1.67,1.67,0,0,0,.55-.36,1.48,1.48,0,0,0,.34-.52,1.77,1.77,0,0,0,0-1.24,1.48,1.48,0,0,0-.34-.52,1.67,1.67,0,0,0-.55-.36,2,2,0,0,0-.75-.13Zm2.38-.47a2.5,2.5,0,0,1,.94.17,2,2,0,0,1,.7.46,2,2,0,0,1,.43.67,2.18,2.18,0,0,1,.15.81,2.21,2.21,0,0,1-.1.66,2.11,2.11,0,0,1-.29.59,1.93,1.93,0,0,1-.46.46,2.19,2.19,0,0,1-.63.31l1.71,2.41h-.6L20.83,6H18.25V8.32h-.49V1.8Z"/><polygon class="cls-1" points="25.2 1.8 25.7 1.8 25.7 5.78 29.9 1.8 30.57 1.8 27.73 4.49 30.69 8.32 30.06 8.32 27.37 4.84 25.7 6.43 25.7 8.32 25.2 8.32 25.2 1.8"/><polygon class="cls-1" points="31.67 1.8 36.15 1.8 36.15 2.29 32.16 2.29 32.16 4.88 35.55 4.88 35.55 5.35 32.16 5.35 32.16 7.84 36.15 7.84 36.15 8.32 31.67 8.32 31.67 1.8"/><polygon class="cls-1" points="36.15 1.8 41.35 1.8 41.35 2.29 38.99 2.29 38.99 8.32 38.5 8.32 38.5 2.29 36.15 2.29 36.15 1.8"/><path class="cls-1" d="M44.63,6.69v0a.94.94,0,0,0,.14.51,1.23,1.23,0,0,0,.41.4,2.25,2.25,0,0,0,.64.26,3.41,3.41,0,0,0,.85.1,2.37,2.37,0,0,0,1.39-.34,1,1,0,0,0,.48-.87.9.9,0,0,0-.16-.54,1.48,1.48,0,0,0-.44-.39,3.47,3.47,0,0,0-.64-.3l-.78-.26L45.71,5A3.63,3.63,0,0,1,45,4.65a2,2,0,0,1-.55-.52,1.27,1.27,0,0,1-.21-.75,1.5,1.5,0,0,1,.16-.7,1.6,1.6,0,0,1,.46-.54,2.22,2.22,0,0,1,.73-.35,3.56,3.56,0,0,1,1-.12,3.66,3.66,0,0,1,1,.13,2.48,2.48,0,0,1,.77.35,1.69,1.69,0,0,1,.5.53,1.32,1.32,0,0,1,.18.68v.08h-.49v0a1,1,0,0,0-.13-.51,1.18,1.18,0,0,0-.39-.4,2.08,2.08,0,0,0-.62-.26,3.19,3.19,0,0,0-.82-.1,2.21,2.21,0,0,0-1.34.34,1,1,0,0,0-.46.87.9.9,0,0,0,.15.53,1.46,1.46,0,0,0,.42.39,3.2,3.2,0,0,0,.62.29l.75.25.82.26a3.76,3.76,0,0,1,.78.37,2.1,2.1,0,0,1,.58.54,1.27,1.27,0,0,1,.23.77,1.44,1.44,0,0,1-.17.7,1.58,1.58,0,0,1-.48.53,2.4,2.4,0,0,1-.75.34,3.68,3.68,0,0,1-1,.12,3.9,3.9,0,0,1-1-.12,2.68,2.68,0,0,1-.8-.35,1.74,1.74,0,0,1-.52-.53,1.28,1.28,0,0,1-.19-.68V6.69Z"/><polygon class="cls-1" points="50.43 1.8 54.91 1.8 54.91 2.29 50.92 2.29 50.92 4.88 54.31 4.88 54.31 5.35 50.92 5.35 50.92 7.84 54.91 7.84 54.91 8.32 50.43 8.32 50.43 1.8"/><polygon class="cls-1" points="54.91 1.8 60.11 1.8 60.11 2.29 57.75 2.29 57.75 8.32 57.26 8.32 57.26 2.29 54.91 2.29 54.91 1.8"/></g></g></svg>