<svg xmlns="http://www.w3.org/2000/svg" viewBox="0 0 61.23 23.03"><defs><style>.cls-1{fill:#4b4b4b;}</style></defs><title>Mathilde-M_logo</title><g id="Calque_2" data-name="Calque 2"><g id="Calque_1-2" data-name="Calque 1"><path id="path1" class="cls-1" d="M7.24.25a5.34,5.34,0,0,0-.71.87c-.17.25-.62,1-.62,1l-.06.11-.17.3A9.61,9.61,0,0,1,4.15,4.91a2.51,2.51,0,0,1-.8.6c-.06,0-.22-.37-.19-.43s0,0,0,0A2.07,2.07,0,0,1,3,4.35a2.08,2.08,0,0,1-.08-.56s0,0,0-.05,0-.06,0-.11a.9.9,0,0,0,0-.14s0-.11,0-.2c-.25-1.36-.63-1.92-1.23-1.8a1.19,1.19,0,0,0-.64.76l-.08.2a4.37,4.37,0,0,0-.15.45.41.41,0,0,1-.07.16s0,0,0,0a.37.37,0,0,1,0,.15c0,.12-.1.41-.12.54a1,1,0,0,1,0,.12A.76.76,0,0,0,.42,4a1,1,0,0,1-.06.34s0,.06,0,.12,0,.13,0,.16,0,0,0,.06A.39.39,0,0,1,.28,5a1.64,1.64,0,0,0,0,.25c0,.94,0,1.47-.06,1.5s0,.53,0,1.15A11.22,11.22,0,0,1,.13,9.74s0,.07,0,.18a.78.78,0,0,1,0,.22,1,1,0,0,0,0,.22.36.36,0,0,1,0,.18s0,.08,0,.18a.84.84,0,0,1,0,.22,4.29,4.29,0,0,0,0,.8s0,0,0,.1a.2.2,0,0,0,0,.12.08.08,0,0,1,0,.06c0,.24.34.5.68.52H1l0-.21a9.52,9.52,0,0,0,.19-1.17.43.43,0,0,1,0-.18.58.58,0,0,0,0-.22.51.51,0,0,1,0-.25.15.15,0,0,0,0-.12,4.64,4.64,0,0,1,0-1s0-.54,0-1.82c0-1,0-1.84,0-1.85a.41.41,0,0,0,0-.18c0-.19,0-.37,0-.34s0,0,0,0a.64.64,0,0,1,0-.3.3.3,0,0,0,0-.14c0-.1,0-.14,0-.15s0,0,0,0,0-.2,0-.2,0,0,0,0a.6.6,0,0,1,0-.18l.06-.27a1.22,1.22,0,0,1,.05-.19.78.78,0,0,0,0-.14c0-.15.12,0,.13.16a.2.2,0,0,0,0,.11A3.35,3.35,0,0,1,2,4.44l0,.07a.62.62,0,0,1,0,.16.27.27,0,0,0,0,.14,1,1,0,0,1,.1.34.14.14,0,0,0,0,.07s.06.16.12.33a2.18,2.18,0,0,0,.9,1.32A1.87,1.87,0,0,0,4,7l.12-.06a2.56,2.56,0,0,0,1-1A22.43,22.43,0,0,0,6.34,3.49a4.51,4.51,0,0,1,1-1.6l.13-.1,0,.07a.36.36,0,0,1,0,.17.17.17,0,0,0,0,.13.17.17,0,0,1,0,.12.35.35,0,0,0,0,.13.37.37,0,0,1,0,.15c0,.06,0,.11,0,.11a1.31,1.31,0,0,1,.07.47s0,.07,0,.07.05.25,0,.27,0,0,0,.07,0,.08,0,.19,0,.14,0,.14,0,.07,0,.17,0,.18,0,.2,0,.08,0,.2,0,.17,0,.17a.43.43,0,0,1,0,.19.73.73,0,0,0,0,.23.82.82,0,0,1,0,.23,1.23,1.23,0,0,0,0,.24,1.22,1.22,0,0,1,0,.27A.61.61,0,0,0,8,6a5.79,5.79,0,0,1,.05,1,2.81,2.81,0,0,0,0,.38,3.94,3.94,0,0,1,0,.84s0,.22,0,.23,0,.66,0,3.13,0,3.12,0,3.13a1.71,1.71,0,0,0,0,.62s0,4.17,0,4.19a.72.72,0,0,0,0,.38,4.45,4.45,0,0,1,0,1,4.45,4.45,0,0,1,0,1s0,0,0,.08,0,.06,0,.05.06.11.06.22c0,.29.46.7.85.75,0,0,.07-.27,0-.31s0-5.36,0-5.38,0-2.22,0-2.24a8.06,8.06,0,0,1,0-1.3,3.47,3.47,0,0,0,0-.51,12.6,12.6,0,0,1,.05-1.54,10.09,10.09,0,0,0,0-1.33A8.94,8.94,0,0,1,9.2,9.23a7.63,7.63,0,0,0,0-.8,7.35,7.35,0,0,0,0-.8,3.83,3.83,0,0,1,0-.88.55.55,0,0,0,0-.25.89.89,0,0,1,0-.32,1,1,0,0,0,0-.3.7.7,0,0,1,0-.24,1.6,1.6,0,0,0,0-.28.83.83,0,0,1,0-.22A.39.39,0,0,0,9,5S9,4.65,9,4.64s0,0,0-.07,0,0,0,0-.06,0,0-.18,0-.13,0-.13S8.91,4,8.94,4s0,0,0-.06a.2.2,0,0,1,0-.15c0-.06,0-.11,0-.11s0-.06,0-.13,0-.14,0-.14a.76.76,0,0,1-.06-.24c0-.13,0-.31-.06-.39a.81.81,0,0,1,0-.22s0-.06,0-.07,0,0,0-.09a.63.63,0,0,0,0-.12L8.57,2a3.83,3.83,0,0,0-.17-.58.43.43,0,0,1,0-.12.07.07,0,0,0,0-.05.17.17,0,0,1,0-.08,3.82,3.82,0,0,0-.23-.5L7.93.45A1.59,1.59,0,0,0,7.52,0a1.69,1.69,0,0,0-.28.24M56.3.1a5.26,5.26,0,0,0-.67,1.26,1.23,1.23,0,0,1-.08.18.12.12,0,0,0,0,.07.32.32,0,0,1,0,.11.77.77,0,0,0-.06.16.66.66,0,0,1,0,.13s-.05.15-.09.28l-.09.29L55,3.1c-.08.26-.16.49-.17.5a.12.12,0,0,0,0,.07.55.55,0,0,1-.05.15.69.69,0,0,0-.05.13,4.58,4.58,0,0,1-1.07,1.61l-.17.14-.08,0a3.1,3.1,0,0,1-.77-.82,6.59,6.59,0,0,1-.36-.59L52.17,4,52,3.81a8.12,8.12,0,0,0-.46-.75A2.42,2.42,0,0,0,49.81,2c-.14,0-.13,0-.22.37a.48.48,0,0,1-.07.19s0,0,0,0a.6.6,0,0,1,0,.19c0,.08,0,.26-.06.39a.75.75,0,0,1-.06.24s0,.06,0,.11a.42.42,0,0,1,0,.15.87.87,0,0,0,0,.2.31.31,0,0,1,0,.16s0,.08,0,.19,0,.18,0,.18,0,.08,0,.18,0,.19,0,.23,0,.06,0,.1a1.1,1.1,0,0,1,0,.47,1.64,1.64,0,0,0,0,.32A9.32,9.32,0,0,1,49.1,7a6.17,6.17,0,0,0,0,.67c0,1.67,0,3.07-.06,3.08a1.83,1.83,0,0,0,0,.67.4.4,0,0,1,0,.19.82.82,0,0,0,0,.19.13.13,0,0,1,0,.07.87.87,0,0,0,.51.7l.1,0,.19,0h.19v-.13c0-.09,0-.13,0-.13s0,0,0-.05,0-.23,0-.23,0-.05,0-.12a.5.5,0,0,1,0-.16,1,1,0,0,0,0-.22.36.36,0,0,1,0-.18s0-.08,0-.19a.88.88,0,0,1,0-.23,1.81,1.81,0,0,0,0-.32.94.94,0,0,1,0-.29,1.82,1.82,0,0,0,0-.44c0-2.35,0-4.28.06-4.31a.62.62,0,0,0,0-.38,4.25,4.25,0,0,1,0-.88,1.47,1.47,0,0,0,0-.3c0-.36,0-.48.06-.47a1.64,1.64,0,0,1,.32.26L51,4l.13.16.21.3c.18.28.46.74.51.84a3.72,3.72,0,0,0,1.27,1.41l.19.09a2.69,2.69,0,0,0,.94,0,1.67,1.67,0,0,0,.89-.94l.16-.32a.21.21,0,0,0,0-.08.44.44,0,0,1,0-.11s.06-.17.1-.28l.09-.3a1.79,1.79,0,0,0,.05-.21c0-.06,0-.11,0-.11s0-.07,0-.13a.33.33,0,0,1,0-.15.12.12,0,0,0,0-.07.76.76,0,0,1,0-.16l.11-.35a2.79,2.79,0,0,1,.1-.28.21.21,0,0,0,0-.08c0-.18.42-.88.42-.72a.87.87,0,0,0,0,.11,1.31,1.31,0,0,1,0,.18c0,.06,0,.11,0,.11a1.52,1.52,0,0,1,.06.42.76.76,0,0,0,0,.17.46.46,0,0,1,0,.16c0,.07,0,.12,0,.13a.37.37,0,0,1,0,.19.83.83,0,0,0,0,.2.64.64,0,0,1,0,.19.66.66,0,0,0,0,.19.85.85,0,0,1,0,.39.07.07,0,0,0,0,.06s0,0,0,0,.06.11,0,.33a.67.67,0,0,0,0,.22,1.79,1.79,0,0,1,0,.54s0,.11,0,.12,0,.12,0,.42a3.13,3.13,0,0,0,0,.45,4.87,4.87,0,0,1,0,.6,2,2,0,0,0,0,.56s.05,1.55.05,4.43c0,1.12,0,2,0,2s.06,1.62.06,2.6a4.37,4.37,0,0,0,0,.53,2.26,2.26,0,0,1,0,.64.11.11,0,0,0,0,.08s0,.06,0,.05.06.17,0,.49a1.39,1.39,0,0,0,0,.33,4.44,4.44,0,0,1,0,.86.05.05,0,0,0,0,.07s0,.08,0,.2a.72.72,0,0,0,0,.19.29.29,0,0,1,0,.11.2.2,0,0,0,0,.11.28.28,0,0,1,0,.13,2.75,2.75,0,0,0,.4.89,5.91,5.91,0,0,0,.5.51l.07.05v-.87c0-.48,0-.88,0-.89s0-.11,0-.12,0-.11,0-.38a1.57,1.57,0,0,0,0-.37.94.94,0,0,1,0-.29.77.77,0,0,0,0-.3,3.41,3.41,0,0,1-.05-.79.8.8,0,0,0,0-.25,3.69,3.69,0,0,1-.05-.79,1,1,0,0,0,0-.26.92.92,0,0,1,0-.44s0-.06,0-.1,0-.08,0-.3a1.11,1.11,0,0,0,0-.28,2.2,2.2,0,0,1,0-.6s0-.11,0-.12,0-3.41,0-3.44,0-.06,0-.15,0-1.92,0-1.93,0-2.64,0-2.67a13.33,13.33,0,0,1,0-1.37s0-.19,0-.2,0-.12,0-.42a3.32,3.32,0,0,0,0-.45,1.48,1.48,0,0,1,0-.31c0-.17,0-.27,0-.27a.54.54,0,0,1,0-.23,1.44,1.44,0,0,0,0-.27.75.75,0,0,1,0-.2.32.32,0,0,0,0-.17.34.34,0,0,1,0-.16,1,1,0,0,0,0-.2.47.47,0,0,1,0-.16c0-.06,0-.12,0-.12a1.07,1.07,0,0,1-.06-.28A2.19,2.19,0,0,0,57.47,2a1,1,0,0,1,0-.14,3.43,3.43,0,0,0-.14-.49A2.7,2.7,0,0,0,56.47.07L56.37,0,56.3.1M32.56,5.36a3.14,3.14,0,0,0-.42.55l-.07.14a5.16,5.16,0,0,0-.32.81l-.08.27a.57.57,0,0,0,0,.13s0,0,0,0,0,0,0,.07a.23.23,0,0,1,0,.11,1.08,1.08,0,0,0-.05.32c0,.23,0,.26-.07.21s0,0,0,0a.1.1,0,0,0,0,.07.94.94,0,0,1,0,.41,9.71,9.71,0,0,0,0,1.11,1,1,0,0,1,0,.43.16.16,0,0,0,0,.09c0,.05,0,.06,0,0s.06,0,0,.18,0,.13,0,.13,0,.06,0,.12a9.88,9.88,0,0,0,.2,1.09.48.48,0,0,1,0,.16s0,0,0,.05a1.76,1.76,0,0,1,.12.33l.09.33-.06.1c-.18.28-.67.61-.78.54s0,0,0,0-.43,0-.58,0a1.81,1.81,0,0,1-.73-.58,1.55,1.55,0,0,1-.22-.51.21.21,0,0,0,0-.13s0-.06,0-.11,0-.08,0-.08,0-.07,0-.16v-.16h-.35c-.38,0-.37,0-.48.19s-.1.42-.06.42,0,0,0,0a1,1,0,0,0,.07.2c.16.35.17.4.17.54a.37.37,0,0,0,0,.17c.08.06-.59.47-.78.48a.18.18,0,0,0-.12,0c-.06.08-.28,0-.41-.23l-.09-.12-.07-.12c-.15-.31-.22-.54-.17-.56s0,0,0,0,0,0-.06-.14a.53.53,0,0,0,0-.16.45.45,0,0,1,0-.16.37.37,0,0,0,0-.17.14.14,0,0,1,0-.08c0-.05-.09-.11-.29-.17a2,2,0,0,0-.61-.06l-.1.05a1.85,1.85,0,0,0-.82.8c-.54.81-.79,1.07-1.18,1.22s-.44.05-.44-.35a.51.51,0,0,0,0-.23s0,0,0,0,0-.06,0-.21a.87.87,0,0,1,0-.24.55.55,0,0,0,0-.13A3.13,3.13,0,0,1,23.7,12a.84.84,0,0,0,0-.16c0-.06,0-.12,0-.12a1.72,1.72,0,0,0,0-.57c-.05-.05,0-.11.09-.17a5,5,0,0,0,1.26-1.19A5,5,0,0,0,26,7.91a.39.39,0,0,1,0-.15,2.28,2.28,0,0,0,0-.78.13.13,0,0,1,0-.1s0-.06,0-.06,0,0,0,0A2,2,0,0,0,25,5.7c-.1,0-.47.26-.68.54a6.49,6.49,0,0,0-.72,1.25l-.1.22-.06.14c0,.07-.09.24-.17.5s-.08.23-.09.26a.62.62,0,0,0,0,.15c0,.06,0,.11,0,.11s0,0,0,0a.67.67,0,0,1,0,.2,11.82,11.82,0,0,0-.3,1.55.35.35,0,0,1,0,.15.33.33,0,0,0,0,.16c0,.18,0,.32,0,.26s0,0,0,0,0,.07,0,.07a1.88,1.88,0,0,1,0,.49,1.88,1.88,0,0,1,0,.49s0,0,0,.05,0,0,0,0,.06.05.06.19a1.25,1.25,0,0,0,0,.23.19.19,0,0,1,0,.14s0,0,0,0,0,0,0,.1,0,.08,0,.08,0,0,0,.06l0,.18a1.85,1.85,0,0,0,.18.46,1.75,1.75,0,0,0,1.11,1c.31.07.83-.32,1.11-.85a3,3,0,0,1,.85-1.13c.18-.11.2-.1.24.11a2,2,0,0,0,3,1.17c.2-.15.18-.15.32,0a2.05,2.05,0,0,0,1.75.23,2.36,2.36,0,0,0,1.07-.79c.12-.15.12-.16.19-.09a1.85,1.85,0,0,0,1,.47c.07,0,.13,0,.13,0s.31,0,.33,0a.15.15,0,0,1,.1,0,1.54,1.54,0,0,0,.82-.39c.16-.15.17-.15.25,0a1.8,1.8,0,0,0,.81.64l.18.08a2.54,2.54,0,0,0,.48.13.09.09,0,0,1,.08,0s0,0,0,0,0,0,.12,0l.21,0,.12,0a7.47,7.47,0,0,0,1.47-.06.07.07,0,0,1,.07,0s0,0,0,0,0,0,.1-.06a.83.83,0,0,0,.37-.19c.11-.1.24-.41.17-.41s0,0,0-.08a.64.64,0,0,0-.24-.3,2.16,2.16,0,0,0-.65,0,.33.33,0,0,1-.16,0c-.19,0-.19,0-.06-.14a1,1,0,0,0,.16-.29l.1-.26a.46.46,0,0,0,0-.11.7.7,0,0,1,.23-.28c.1,0,.13,0,.15.11a.28.28,0,0,0,0,.13.08.08,0,0,1,0,.06,4.26,4.26,0,0,0,.31.64l.09.12a4.14,4.14,0,0,0,.55.54,2.55,2.55,0,0,0,1,.39.64.64,0,0,1,.23.05s.26,0,.27,0a.69.69,0,0,1,.25-.05l.3,0c.06,0,.08,0,.12.09a2.42,2.42,0,0,0,1.66.89.6.6,0,0,1,.2.06.29.29,0,0,0,.15,0h.19a4.4,4.4,0,0,0,.74,0l.17,0a1.83,1.83,0,0,0,1.33-.65.3.3,0,0,1,.08-.1s0,0,0,0a.06.06,0,0,1,0-.07,1.2,1.2,0,0,0,0-.58c-.05-.17-.07-.19-.13-.15a8.36,8.36,0,0,1-.8.32l-.28.1-.16,0-.32.08-.24,0a0,0,0,0,0,0,0,3.49,3.49,0,0,1-1,0c-.47-.17-.82-.5-.59-.56a2.29,2.29,0,0,0,1.06-1l.08-.16a.66.66,0,0,0,0-.15c0-.06,0-.11,0-.12a1.24,1.24,0,0,0,0-.5.37.37,0,0,1,0-.1,1.3,1.3,0,0,0-.24-.38c-.12-.1-.35.13-.58.6s-.54.83-.78.79c0,0-.08,0-.08,0s0,0-.05,0-.05,0-.05,0,0-.06,0-.11a.2.2,0,0,1,0-.12.16.16,0,0,0,0-.12s0-.09,0-.09,0,0,0-.07a.14.14,0,0,1,0-.1.43.43,0,0,0,0-.14.42.42,0,0,1,0-.13l0,0a2,2,0,0,1,.42-.77c.23-.24.36-.3.4-.18a.16.16,0,0,0,.12.11l.1,0h.47v-.26a.88.88,0,0,0,0-.26s0,0,0-.05-.29-.63-.38-.63l-.07,0a1.39,1.39,0,0,0-.46,0,.2.2,0,0,1-.11,0A1.81,1.81,0,0,0,42,11.06a.39.39,0,0,1,0,.12.66.66,0,0,0,0,.18.47.47,0,0,1,0,.18.38.38,0,0,0,0,.2.41.41,0,0,1,0,.2,1.29,1.29,0,0,0,0,.54.5.5,0,0,1,0,.23.49.49,0,0,0,0,.19s0,.06,0,.12,0,.06-.07.07l-.1,0a2.18,2.18,0,0,1-.42.11,2.26,2.26,0,0,1-.71,0l-.15-.08c-.17-.08-.47-.47-.42-.54s0,0,0,0a.81.81,0,0,1-.1-.37s0,0,0,0-.06-.24,0-.28,0,0,0-.06a2,2,0,0,1,0-.85c0-.07,0-.1,0-.13a1,1,0,0,1,0-.44.59.59,0,0,0,0-.19A2.44,2.44,0,0,1,40,9.57a.35.35,0,0,0,0-.17.75.75,0,0,1,0-.2,1.33,1.33,0,0,0,0-.25.63.63,0,0,1,0-.22,1.28,1.28,0,0,0,0-.33c0-.17,0-.41,0-.52a.65.65,0,0,0,0-.26,1.09,1.09,0,0,1,0-.27,1.35,1.35,0,0,0-.62-1.23c-.15-.07-.14-.08-.28.31a1.19,1.19,0,0,0-.06.24.11.11,0,0,1,0,.09s0,0,0,0,0,0,0,.07A10.35,10.35,0,0,0,39,8.44a7.46,7.46,0,0,1,0,1.09s0,.07,0,.2a2.43,2.43,0,0,1-.11.84s-.06,0-.11-.18c-.23-.53-.4-.66-.89-.71-.08,0-.14,0-.14,0a.45.45,0,0,0-.18,0c-.1,0-.18,0-.18,0s-.05,0-.12,0-.12,0-.13,0-.05,0-.11,0c-.49.09-.91.57-1.46,1.65a3.53,3.53,0,0,1-.7,1.14,1.11,1.11,0,0,1-1.39.13c-.17-.07-.17-.08-.1-.19a6,6,0,0,0,.41-.78l.09-.2a.21.21,0,0,0,0-.08.45.45,0,0,1,0-.11l.09-.25.07-.21.1-.38a2.27,2.27,0,0,1,.11-.36.32.32,0,0,0,0-.14c0-.15,0-.26.06-.24s0,0,0-.1,0-.12,0-.12,0-.05,0-.12,0-.12,0-.13,0,0,0,0a.77.77,0,0,1,0-.33s0-1.18,0-1.21a.58.58,0,0,1,0-.26,0,0,0,0,0,0,0s0-.08-.05-.19a.5.5,0,0,0,0-.19.09.09,0,0,1,0-.07,2.64,2.64,0,0,0-.6-1.15,2.26,2.26,0,0,0-.91-.56l-.18.17M29,6.07a1.52,1.52,0,0,0-.23.82v.23l.15.11a1.25,1.25,0,0,0,.41.22s0,0,0,0a1,1,0,0,0,.45,0A1.12,1.12,0,0,0,30,6.81a.13.13,0,0,1,0-.11s0,0,0-.05a.08.08,0,0,1,0-.07.71.71,0,0,0-.3-.46C29.52,6,29.09,6,29,6.07m3.84.8a1.52,1.52,0,0,1,.28.43.39.39,0,0,0,0,.09,1.6,1.6,0,0,1,.12.48s0,.06,0,.06,0,.06,0,.14,0,.15,0,.15a2.49,2.49,0,0,1,0,.77s0,.07,0,.18,0,.17,0,.17,0,0,0,.06a3,3,0,0,1-.21.84.11.11,0,0,0,0,.06,2.12,2.12,0,0,1-.47.77.87.87,0,0,1-.07-.38.75.75,0,0,0,0-.18,1.36,1.36,0,0,1,0-.31c0-.16,0-.26,0-.26a2.21,2.21,0,0,1,0-.5,2.89,2.89,0,0,1,0-.5,1.22,1.22,0,0,0,0-.32,2.77,2.77,0,0,1,0-.77s0-.07,0-.14a.56.56,0,0,1,0-.18.5.5,0,0,0,0-.16c0-.07,0-.12,0-.13s0-.07,0-.21c0-.31,0-.34.19-.18m-7.57.05a.36.36,0,0,1,0,.33.43.43,0,0,0,0,.19.52.52,0,0,1,0,.18.38.38,0,0,0,0,.12,2.8,2.8,0,0,1-.59,1.08c-.2.23-.71.58-.76.53A1.84,1.84,0,0,1,24,8.92l.18-.41a8.82,8.82,0,0,1,.59-1.16c.32-.51.38-.56.53-.43m-6.13.17c0,.06-.08.3-.11.45s0,.07,0,.07,0,0,0,0a.58.58,0,0,1-.07.3s0,0,0,.06a.76.76,0,0,1,0,.23,1.36,1.36,0,0,0,0,.22.14.14,0,0,1,0,.08.26.26,0,0,0,0,.1,1.26,1.26,0,0,1-.06.36s0,.05,0,.11a1.28,1.28,0,0,1-.06.41s0,.06,0,.13,0,.14,0,.17,0,.05,0,.06a.55.55,0,0,1,0,.3.4.4,0,0,0,0,.16.77.77,0,0,1,0,.2,1.8,1.8,0,0,0,0,.29,1,1,0,0,1,0,.26s0,2.35,0,2.37,0,.3,0,.31-.06,0-.06,0a.36.36,0,0,0-.17,0l-.17,0-.14,0a1.62,1.62,0,0,0-.44.23,1,1,0,0,1-.73.26c-.08,0-.14,0-.14,0s0,0,0,0-.52-.24-.65-.51-.13-.27-.13-.37a.24.24,0,0,0,0-.12,1.09,1.09,0,0,1-.07-.39.45.45,0,0,0,0-.13.5.5,0,0,1,0-.29s0,0,0-.07,0-.08,0-.17,0-.13,0-.13,0-.05,0-.12,0-.11,0-.1,0,0-.06-.17a1.27,1.27,0,0,0-.14-.37,1.07,1.07,0,0,0-.65-.58c-.07,0-.07,0-.07-.17a1.36,1.36,0,0,0-.51-1L14,9.38h-.24a.77.77,0,0,0-.24,0s0,0-.08,0a.14.14,0,0,0-.09,0,.08.08,0,0,1-.06,0c-.33,0-1.15.73-1.59,1.42a6.24,6.24,0,0,0-.62,1.32l0,.12a2.67,2.67,0,0,0-.1.36s0,.07,0,.07,0,0,0,0a1.34,1.34,0,0,1-.06.42,4.77,4.77,0,0,0,0,.53,4.67,4.67,0,0,0,0,.53.83.83,0,0,1,.06.2,1.93,1.93,0,0,0,.07.24l.08.17a1.69,1.69,0,0,0,1,.84q1,.29,2.18-1.29a11.21,11.21,0,0,0,.64-.93s.07-.06.09,0a.63.63,0,0,1,0,.11,2.25,2.25,0,0,0,1.86,1.71.51.51,0,0,1,.2.05s.23,0,.25,0,.07,0,.15,0,.14,0,.14,0,0,0,.05,0a1.75,1.75,0,0,0,1-.67c.11-.16.15-.17.17-.07.05.38.53.92.82.92,0,0,0,0,0,0s0,0,0,0,0,0,.08,0l.12,0s.07,0,.07,0a.41.41,0,0,0,.17,0,.52.52,0,0,1,.2,0s.19,0,.21,0a.42.42,0,0,1,.19,0l.2,0,.07,0c.5,0,1.36-.63,1.36-1a.28.28,0,0,1,0-.11c0-.06,0-.11-.08-.42l0-.14H22a1.69,1.69,0,0,0-.87.39c-.6.41-1.29.48-1.46.15-.09-.17-.16-.48-.11-.48a0,0,0,0,0,0,0s0,0,0,0a5.15,5.15,0,0,1,0-1.09l0-.09,0,.08c0,.07,0,.06,0-.06s0-.14,0-.14a2.76,2.76,0,0,1,0-.78s0,0,0-.06,0-.06.11-.17a3,3,0,0,1,.85-.45,4.57,4.57,0,0,0,.52-.23l.12-.06v-.25a.84.84,0,0,0,0-.29.33.33,0,0,1,0-.16c0-.28-.41-.35-.81-.15s-.4.19-.49.17l-.09,0V9.9a.72.72,0,0,1,0-.24s0,0,0-.1a.67.67,0,0,1,.06-.32s0,0,0,0a.61.61,0,0,1,.07-.3s0,0,0-.09,0-.09,0-.09,0,0,0-.06a.12.12,0,0,1,0-.1.17.17,0,0,0,0-.13c0-.05,0-.1,0-.11a2.16,2.16,0,0,0-.08-.88c-.16-.31-.63-.54-.69-.35M14,10.61a1.55,1.55,0,0,1,.55.27c.07.06.1.24,0,.24s0,0,0,.05a.53.53,0,0,1,0,.19l-.1.34-.08.25-.07.18a4.24,4.24,0,0,1-.2.47l-.08.16a4.17,4.17,0,0,1-1.39,1.52c-.24.15-.23.15-.36.08a.61.61,0,0,0-.18-.06c-.07,0-.11,0-.13-.17a.42.42,0,0,0,0-.14.23.23,0,0,1,0-.12.21.21,0,0,0,0-.11,2.5,2.5,0,0,1,0-.62s0-.05,0-.11a.22.22,0,0,1,0-.15.31.31,0,0,0,0-.16,1.86,1.86,0,0,1,.14-.54.11.11,0,0,0,0-.06,3.37,3.37,0,0,1,.41-.79l0-.05a3,3,0,0,1,.37-.39,1.06,1.06,0,0,1,.57-.27s.06,0,.06,0,.14-.05.4,0m23.61.26s0,0,.08,0,.23,0,.22.06,0,0,0,0S38,11,38,11c.56,1.06-1,2.57-1.84,1.73-.18-.19-.29-.44-.2-.44s0,0,0,0a.15.15,0,0,1,0-.1l.07-.19c.2-.57.78-1.16,1.1-1.11,0,0,.07,0,.07,0s.35,0,.36,0m22.56,2.46s0,0-.09,0-.08,0-.08,0,0,0-.07,0a1,1,0,0,0-.47.48.37.37,0,0,1-.06.14.78.78,0,0,0,0,.23.9.9,0,0,0,.52.81l.16.09a1.4,1.4,0,0,0,.64-.08,1,1,0,0,0,.5-.6s0-.05,0-.05a.87.87,0,0,0,0-.37s0,0,0-.05a.69.69,0,0,0-.11-.25,1,1,0,0,0-.6-.41s-.06,0-.06,0a.49.49,0,0,0-.28,0m.39.19a.77.77,0,0,1,.25,1.32c-.18.15-.52.24-.59.16a.09.09,0,0,0-.08,0c-.2.05-.66-.48-.54-.62s0,0,0,0,0-.18,0-.33a.77.77,0,0,1,1-.47m-.7.21c-.05,0,0,.06,0,.07s.06,0,.07.42,0,.48,0,.42-.09,0-.09,0,0,.07.22.07h.22v-.07c0-.06,0-.06,0,0s-.07,0-.06-.17.1-.18.27.07.14.2.26.21.15,0,0-.16-.22-.27-.12-.36a.29.29,0,0,0,0-.45,2.72,2.72,0,0,0-.7,0m.59.14c.09.09,0,.34-.06.3s0,0,0,0-.15,0-.17,0a.87.87,0,0,1,0-.34.29.29,0,0,1,.27,0M9,16.43c0,.16,0,0,0-.27s0-.43,0-.28,0,.4,0,.55"/></g></g></svg>