<svg xmlns="http://www.w3.org/2000/svg" viewBox="0 0 51.18 13.9"><defs><style>.cls-1{fill:#4b4b4b;}</style></defs><title>natives_logo</title><g id="Calque_2" data-name="Calque 2"><g id="Calque_1-2" data-name="Calque 1"><path class="cls-1" d="M45.57,11.76A.68.68,0,0,1,45,10.66c.15,0,.2.13.34.14.48,0,1-.46.75-.92-.11-.24-.58-.26-.83-.09.22-.4.51-.77.78-1.18a16.18,16.18,0,0,1,2.47-3.51,4.39,4.39,0,0,0-.32.83c-.22,1-.3,2-.57,3a7.14,7.14,0,0,1-.69,1.73,1.65,1.65,0,0,1-1.38,1M24.72,8.82a12.38,12.38,0,0,1-.8,1.29c-.28.35-.7.86-1.29.69a.93.93,0,0,1-.12-.66A5.42,5.42,0,0,1,23.63,7.9,9.15,9.15,0,0,1,24.35,7c.42-.48,1.16-1.35,2-.78-.45.87-1.06,1.76-1.58,2.65m19-1.9a3.56,3.56,0,0,1,1.29-1.18.64.64,0,0,1,.4,0,1.66,1.66,0,0,1-.63,1.7,4.05,4.05,0,0,1-2,1,6.58,6.58,0,0,1,.95-1.52M12.83.15A38.48,38.48,0,0,0,6.4,1.65a30.66,30.66,0,0,0-2.93,1A9.57,9.57,0,0,0,.19,4.36.37.37,0,0,0,.13,5h0A2.51,2.51,0,0,0,2.19,6c.11-.35-.59-.27-.65-.51s.31-.48.52-.66a8.31,8.31,0,0,1,2.22-1.3A31.29,31.29,0,0,1,7.76,2.29,37.25,37.25,0,0,1,13.37.79a9.07,9.07,0,0,1,2.2-.18.89.89,0,0,1,.81.51,38.74,38.74,0,0,1-4.23,5.72C11.09,8.16,10,9.6,8.92,11.06a5,5,0,0,0-.87,1.6,1.71,1.71,0,0,0,0,.59c.11.45.67.72,1.44.64.71-.88,1.43-1.77,2.2-2.65S13.24,9.6,14.08,8.8a30.26,30.26,0,0,1,4-3.28c.58-.39,1.11-1,1.85-.92a10.13,10.13,0,0,1-1.68,3.28,16.53,16.53,0,0,0-.9,1.6,5.28,5.28,0,0,0-.62,1.83c-.07.79.1,1.25.64,1.53,0,0,1,.68,3.2-1.61a4,4,0,0,0,.09.47.92.92,0,0,0,1.12.56c1-.14,1.64-1.15,2.13-1.64-.37,1,.11,1.88,1.26,1.61.82-.19,1.67-1.24,2.16-1.7-.38.91-.08,1.88,1.06,1.73,1-.13,1.7-1.2,2.19-1.58-.29.94.06,1.73,1.12,1.58s2-1.53,2.62-2.1A1.7,1.7,0,0,0,34.7,12c.83.64,2,.09,2.62-.4.14-.12.29-.26.43-.4a18.32,18.32,0,0,0,1.78-2.33,1.74,1.74,0,0,0,1.44,0,3.65,3.65,0,0,0-.32,2.82,1.36,1.36,0,0,0,1.52.6c1-.13,1.83-1.16,2.44-1.67-.36,1.25.45,1.81,1.73,1.7a4.89,4.89,0,0,0,2.93-1.67A13.07,13.07,0,0,0,50.8,8.71s.1-.14.23-.35.19-.24.09-.32-.15,0-.26.09a2.21,2.21,0,0,0-.17.29A12.75,12.75,0,0,1,49.48,10a8.28,8.28,0,0,1-1.41,1.35,1.39,1.39,0,0,1-.58.29,3,3,0,0,0,1.5-3c-.06-.5-.17-1.06-.26-1.61a2.28,2.28,0,0,1,.06-1.58c.38.33,1-.23.75-.72a.8.8,0,0,0-.63-.06c-.57.15-1.13.9-1.5,1.41C46.62,7.11,46,8.39,45.08,9.48a5,5,0,0,1-1.52,1.35,1.52,1.52,0,0,1-.66.14c-1-.09-.63-1.69-.2-2.19a4.24,4.24,0,0,0,3.16-2.24c.15-.43.18-1-.2-1.21a1.75,1.75,0,0,0-.78-.06,4.62,4.62,0,0,0-2.33,1.47,10.44,10.44,0,0,0-1,1.12,4.24,4.24,0,0,1-.35.49,1.44,1.44,0,0,1-1.58.26,13.26,13.26,0,0,0,.8-1.5c.22-.45.6-1.18.17-1.7a1.38,1.38,0,0,0-.43,0c-.86.13-1.7,2.36-1,3.28-.32.42-.64,1-1,1.41a2.89,2.89,0,0,1-1.41,1c-.63.14-1-.17-.92-.89a4.13,4.13,0,0,1,.78-1.52c.59-1,1.32-2.19,1.87-3.11,0,0,.1-.11,0-.09H37a35.22,35.22,0,0,1-3.25,4.83A5.25,5.25,0,0,1,33,11c-.24.18-.57.45-.92.23-.14-.31,0-.58.17-.83.35-.71.82-1.42,1.24-2.1.53-.87,1.08-1.71,1.55-2.65,0,0,.13-.09,0-.11H33.66a34.43,34.43,0,0,1-3.25,4.83,4.77,4.77,0,0,1-.69.66c-.22.16-.73.44-.92.17s.38-1.23.52-1.47c.79-1.34,1.51-2.68,2.33-3.94.26,0,.69.06,1,0,.11,0,.13-.08.2-.2s.1-.07,0-.06h-1c.51-.92,1.07-1.79,1.58-2.7h-1.5c-.43.65-.82,1.35-1.24,2a2.87,2.87,0,0,1-.43.66c-.42.06-1.17-.17-1.24.26h1.06a24,24,0,0,1-3,4.54,5.88,5.88,0,0,1-.66.6c-.23.18-.69.53-1,.32s.32-1.38.43-1.58c.78-1.34,1.53-2.5,2.33-3.82,0-.06.05-.14.09-.2s.15-.09,0-.11H26.73c-.1.09-.13.26-.23.35-.11-.53-.84-.71-1.52-.52a5.86,5.86,0,0,0-2.56,2,8.18,8.18,0,0,0-1.7,2.88.57.57,0,0,0-.11.21,10.55,10.55,0,0,1-2.39,1.76C18.67,9.9,20.4,8,21.32,5.9c.21-.47.54-1.28.14-1.76a1.52,1.52,0,0,0-1.25-.33,4,4,0,0,0-1.44.56c-.42.23-.84.52-1.22.76a26.21,26.21,0,0,0-2.28,1.65C13.79,8,12.5,9.33,11.15,10.48a35.48,35.48,0,0,1,3-3.61c.73-.8,1.44-1.6,2.25-2.47A5.37,5.37,0,0,0,18,2.19C18.2,1,17.1.21,15.86,0a14.56,14.56,0,0,0-3,.1m22.9,4a1.5,1.5,0,0,0,.78-.86c.19-.73-.2-1.15-.92-1a1.21,1.21,0,0,0-.83,1.58.89.89,0,0,0,1,.29"/></g></g></svg>