<svg xmlns="http://www.w3.org/2000/svg" viewBox="0 0 338.42 30.97"><defs><style>.cls-1{fill:#4b4b4b;}</style></defs><title>Partenaires_logo</title><g id="Calque_2" data-name="Calque 2"><g id="Calque_1-2" data-name="Calque 1"><path class="cls-1" d="M51.18,20.16a.48.48,0,0,0,.54-.48c0-.61-.89-.46-.89-.86,0-.18.12-.28.32-.28a.32.32,0,0,1,.35.34h.2a.51.51,0,0,0-.54-.53.47.47,0,0,0-.52.47c0,.6.89.44.89.86,0,.19-.13.3-.34.3a.34.34,0,0,1-.38-.36h-.2a.54.54,0,0,0,.58.56m-1.27-1.81a.5.5,0,0,0-.45.26h0l0-.22h-.16v1.74h.19V19.07c0-.33.16-.53.41-.53a.62.62,0,0,1,.22,0v-.21l-.18,0m-1.89,0v1.05c0,.34-.16.54-.4.54s-.32-.16-.32-.51V18.38H47.1V19.5c0,.48.18.66.47.66a.49.49,0,0,0,.45-.25l0,.22h.16V18.38Zm-2.47.15c.24,0,.38.14.38.43v.2h-.75V19c0-.29.14-.43.37-.43m.4,1.05a.36.36,0,0,1-.4.38c-.23,0-.37-.14-.37-.43v-.19h.94V19a.55.55,0,0,0-.58-.62A.55.55,0,0,0,45,19v.57a.55.55,0,0,0,.56.62.56.56,0,0,0,.61-.57Zm-2.17.53H44V18.38h-.2Zm.1-2.06A.15.15,0,0,0,44,17.9c0-.1-.06-.27-.16-.27s-.16.17-.16.27a.15.15,0,0,0,.16.16m-1.15.29a.5.5,0,0,0-.45.26h0l0-.22h-.16v1.74h.19V19.07c0-.33.16-.53.41-.53a.62.62,0,0,1,.22,0v-.21l-.17,0m-2.22.19c.24,0,.38.14.38.43v.2h-.75V19c0-.29.14-.43.37-.43m.4,1.05a.36.36,0,0,1-.4.38c-.23,0-.37-.14-.37-.43v-.19h.94V19a.55.55,0,0,0-.58-.62.55.55,0,0,0-.56.62v.57a.54.54,0,0,0,.56.62.55.55,0,0,0,.61-.57Zm-.1-2h-.23l-.25.48h.19ZM39,20c-.21,0-.3-.12-.3-.35v-1H39v-.18h-.36V18H38.5v.4h-.27v.18h.27v1a.47.47,0,0,0,.49.53h.1V20ZM36.9,18.34a.49.49,0,0,0-.45.25l0-.22h-.16v1.74h.19V19.07c0-.34.16-.54.4-.54s.32.16.32.51v1.08h.19V19c0-.48-.18-.67-.47-.67M35,20.12h.2V18.38H35Zm.1-2.06a.15.15,0,0,0,.16-.16c0-.1-.06-.27-.16-.27s-.16.17-.16.27a.15.15,0,0,0,.16.16m-1-.39-.07.8h.14l.15-.8ZM32.88,20c-.24,0-.38-.14-.38-.48V19c0-.33.13-.47.38-.47s.36.19.36.47v.51c0,.32-.16.48-.36.48m.36-2.36v.92a.49.49,0,0,0-.4-.19c-.33,0-.54.22-.54.65v.5c0,.44.22.66.54.66a.49.49,0,0,0,.41-.2l0,.16h.16V17.62Zm-2.35.73a.5.5,0,0,0-.45.26h0l0-.22h-.16v1.74h.2V19.07c0-.33.16-.53.41-.53a.62.62,0,0,1,.22,0v-.21l-.18,0m-1.89,0v1.05c0,.34-.16.54-.4.54s-.32-.16-.32-.51V18.38h-.19V19.5c0,.48.19.66.47.66a.49.49,0,0,0,.45-.25l0,.22h.16V18.38Zm-2.47.15c.24,0,.38.14.38.43v.2h-.75V19c0-.29.14-.43.37-.43m.4,1.05a.36.36,0,0,1-.4.38c-.23,0-.37-.14-.37-.43v-.19h.94V19a.55.55,0,0,0-.58-.62A.55.55,0,0,0,26,19v.57a.54.54,0,0,0,.56.62.55.55,0,0,0,.61-.57ZM25,20c-.2,0-.3-.12-.3-.35v-1h.36v-.18h-.36V18h-.19v.4h-.26v.18h.26v1a.47.47,0,0,0,.49.53h.1V20Zm-2.2,0c-.23,0-.38-.11-.38-.34s.14-.34.39-.34h.35v.34a.33.33,0,0,1-.36.34m0-1.63a.5.5,0,0,0-.55.49h.19a.32.32,0,0,1,.35-.31c.22,0,.34.14.34.39v.19h-.34c-.38,0-.6.19-.6.52a.51.51,0,0,0,.55.53.47.47,0,0,0,.4-.2l0,.16h.17v-1.2a.52.52,0,0,0-.53-.58m-2.09.19c.24,0,.38.14.38.43v.2h-.75V19c0-.29.14-.43.37-.43m.41,1.05a.36.36,0,0,1-.41.38c-.23,0-.37-.14-.37-.43v-.19h.94V19a.55.55,0,0,0-.58-.62.55.55,0,0,0-.56.62v.57a.55.55,0,0,0,.56.62.55.55,0,0,0,.61-.57ZM21,17.74h-.23l-.25.37h.19Zm-1.85.6a.5.5,0,0,0-.45.26h0l0-.22h-.16v1.74h.19V19.07c0-.33.16-.53.41-.53a.62.62,0,0,1,.22,0v-.21l-.17,0M17,20.15a.56.56,0,0,0,.58-.62h-.2c0,.29-.15.43-.38.43s-.36-.14-.36-.43V19c0-.29.13-.43.36-.43s.36.14.38.43h.2a.56.56,0,0,0-.57-.62.54.54,0,0,0-.56.62v.57a.54.54,0,0,0,.56.62"/><path class="cls-1" d="M38.37,10.85a2.05,2.05,0,0,0-1.86,1,1.61,1.61,0,0,0-1.59-1,2,2,0,0,0-1.61.73v-.66l-.77.3V17h.77V13.37c0-1.1.6-1.83,1.49-1.83S36,12.08,36,13.21V17h.78V13.37c0-1.11.6-1.83,1.52-1.83.76,0,1.13.55,1.13,1.68V17h.78V13.18c0-1.48-.65-2.33-1.79-2.33"/><path class="cls-1" d="M30.84,10.85a2.13,2.13,0,0,0-1.68.76v-.68l-.78.3V17h.78V13.37a1.61,1.61,0,0,1,1.57-1.81,2.89,2.89,0,0,1,.78.1l.14,0v-.75l-.08,0a3.11,3.11,0,0,0-.72-.07"/><path class="cls-1" d="M43.72,10.85A2,2,0,0,0,41.48,13v2.09a2,2,0,0,0,2.24,2.11A2,2,0,0,0,46,15.06V13a2,2,0,0,0-2.24-2.11m0,5.62a1.31,1.31,0,0,1-1.47-1.42V13a1.31,1.31,0,0,1,1.47-1.42A1.3,1.3,0,0,1,45.17,13v2.09a1.3,1.3,0,0,1-1.45,1.42"/><path class="cls-1" d="M56.24,11.22l-1.43,4.1-1.7-4.36-.72.3,2.07,5.11-.78,2.3c-.19.5-.39.81-.84.81h-.44v.7h.51c.94,0,1.31-.72,1.53-1.35l2.74-7.89Z"/><polygon class="cls-1" points="20.51 13.45 17.28 13.45 17.28 10.86 16.48 10.86 16.48 17.05 17.28 17.05 17.28 14.11 20.51 14.11 20.51 17.05 21.32 17.05 21.32 10.86 20.51 10.86 20.51 13.45"/><path class="cls-1" d="M25,10.85a1.91,1.91,0,0,0-2.15,1.69v.12h.79v-.11c0-.61.57-1,1.35-1a1.16,1.16,0,0,1,1.3,1.29v.63H25c-1.51,0-2.37.67-2.37,1.83a1.88,1.88,0,0,0,2.11,1.89,2.15,2.15,0,0,0,1.54-.55V17h.76V12.81a1.87,1.87,0,0,0-2.06-2m-.17,5.62c-.88,0-1.4-.44-1.4-1.18,0-1,.85-1.17,1.57-1.17h1.29v1.12c0,.79-.53,1.24-1.45,1.24"/><path class="cls-1" d="M49.74,10.85a2.15,2.15,0,0,0-1.7.75v-.67l-.77.3V17H48V13.37c0-1.11.62-1.83,1.57-1.83s1.21.54,1.21,1.69V17h.78V13.16c0-1.49-.66-2.3-1.86-2.3"/><path class="cls-1" d="M6.69,6.2,0,10.86V20.1l6.69,4.66,6.69-4.66V10.86Zm.23.72L8.42,8,6.92,9ZM3.7,8.85,6.46,6.92v3.8Zm3.22.72,1.9-1.33,2.35,1.64-4.25,3Zm-4.69.3,1.06-.74,3.17,2.15v1.56ZM.46,13V11.1l1.37-1,4.63,3.25v3.75Zm6.46.42,4.66-3.25,1.18.82-5.83,4.1Zm0,2.23,6-4.22v4l-6,4.12Zm-6.46,2V13.56l6,4.14v4.06Zm6.46,2.45,6-4.12v1.63l-6,4.1Zm0,2.18,6-4.1v1.67L6.92,24ZM.46,19.86V18.23l6,4.08V24Z"/><path class="cls-1" d="M133,17.7a2.4,2.4,0,0,1-1.61-.76v3.25h-.83V15h0v0a2.39,2.39,0,0,1,2.57-2.55,2.45,2.45,0,0,1,2.33,2.69A2.4,2.4,0,0,1,133,17.7m-3-2.34h-3.78a1.58,1.58,0,0,0,2,1.6,1.08,1.08,0,0,0,.42-.1v.73s-.19.17-1,.14a2.09,2.09,0,0,1-1.83-.95,3.28,3.28,0,0,1-.46-2.05,2.51,2.51,0,0,1,1.17-1.94,2.4,2.4,0,0,1,2.08-.18,2.52,2.52,0,0,1,1.33,1.86,3.12,3.12,0,0,1,.08.88m-.62,4.88c-.29,0-.46-.13-.47-.37h.22c0,.13.1.2.25.2s.23-.06.23-.15,0-.11-.25-.16a1,1,0,0,1-.3-.09.25.25,0,0,1-.13-.23c0-.19.16-.31.43-.31s.42.11.44.33h-.22c0-.11-.08-.16-.23-.16s-.19,0-.19.12,0,.1.27.15.41.15.41.32-.18.34-.47.34m-1-.17a.24.24,0,0,0,.26-.19h.22a.46.46,0,0,1-.48.36.5.5,0,0,1-.52-.54.52.52,0,0,1,.51-.57c.31,0,.5.23.5.61h-.78c0,.21.11.33.29.33m-.55-.71h-.08a.28.28,0,0,0-.26.16.62.62,0,0,0,0,.28v.42h-.23V19.16h.22v.21a.37.37,0,0,1,.36-.23h0Zm-1.59-.66h.25l.15.31h-.15Zm.3,1.37a.25.25,0,0,0,.26-.19H127a.46.46,0,0,1-.48.36.5.5,0,0,1-.52-.54.52.52,0,0,1,.51-.57c.31,0,.5.23.5.61h-.78c0,.21.11.33.29.33m-.7-1.09h-.23v-.22h.23Zm0,1.24h-.23V19.16h.23Zm-.47,0h-.23v-.65c0-.18-.05-.24-.19-.24a.22.22,0,0,0-.21.14.47.47,0,0,0,0,.19v.57h-.23v-.66c0-.17,0-.23-.17-.23a.23.23,0,0,0-.22.14.5.5,0,0,0,0,.18v.57h-.23V19.16H124v.15a.38.38,0,0,1,.33-.18.3.3,0,0,1,.3.18.39.39,0,0,1,.34-.18.32.32,0,0,1,.35.36Zm-1.78,0h-.22v-.16a.4.4,0,0,1-.35.18.36.36,0,0,1-.29-.13.43.43,0,0,1-.07-.28v-.68h.23v.6a.52.52,0,0,0,0,.18.18.18,0,0,0,.19.11.24.24,0,0,0,.22-.14.52.52,0,0,0,0-.23v-.52h.23Zm-1.16,0h-.23V18.75h.23Zm-2.84-2.47A2.44,2.44,0,0,1,117.14,15a2.39,2.39,0,0,1,2.57-2.56,2.45,2.45,0,0,1,2.33,2.7,2.41,2.41,0,0,1-2.45,2.59M121,20.07a.24.24,0,0,0,.26-.19h.22a.46.46,0,0,1-.48.36.5.5,0,0,1-.52-.54.52.52,0,0,1,.51-.57c.32,0,.5.23.5.61h-.78c0,.21.11.33.29.33m-.7.14h-.22v-.14a.36.36,0,0,1-.34.17c-.3,0-.48-.22-.48-.56s.18-.55.48-.55a.37.37,0,0,1,.33.17v-.54h.23Zm-1.6-.85h-.08a.28.28,0,0,0-.26.16.64.64,0,0,0,0,.28v.42h-.23V19.16h.22v.21a.37.37,0,0,1,.36-.23h0Zm-.86.85h-.22v-.16a.4.4,0,0,1-.35.18.37.37,0,0,1-.3-.13.44.44,0,0,1-.07-.28v-.68h.23v.6a.52.52,0,0,0,0,.18.18.18,0,0,0,.19.11.24.24,0,0,0,.22-.14.54.54,0,0,0,0-.23v-.52h.23Zm-1.59-.14a.24.24,0,0,0,.26-.19h.22a.46.46,0,0,1-.48.36.5.5,0,0,1-.52-.54.52.52,0,0,1,.51-.57c.31,0,.5.23.5.61H116c0,.21.11.33.29.33m-.58-.74h-.21v.55c0,.13,0,.16.13.16h.09v.18h-.15c-.15,0-.22,0-.26-.1s0-.09,0-.29v-.5h-.18v-.17h.18v-.32h.23v.32h.21Zm-.63.89-.15,0c-.1,0-.15,0-.17-.13a.53.53,0,0,1-.37.13.31.31,0,0,1-.35-.31.28.28,0,0,1,.17-.27.58.58,0,0,1,.17,0h.13c.23,0,.24,0,.24-.14s-.07-.16-.21-.16-.22,0-.24.18H114c0-.24.18-.36.47-.36a.54.54,0,0,1,.36.11.28.28,0,0,1,.07.22s0,0,0,.15a.8.8,0,0,0,0,.08v.09c0,.07,0,.11,0,.13s0,.14.06.14H115Zm-1.64-.15a.24.24,0,0,0,.26-.19h.22a.46.46,0,0,1-.48.36.5.5,0,0,1-.52-.54.52.52,0,0,1,.51-.57c.31,0,.5.23.5.61h-.78c0,.21.11.33.29.33m-.55-.71h-.08a.28.28,0,0,0-.26.16.62.62,0,0,0,0,.28v.42h-.23V19.16h.22v.21a.37.37,0,0,1,.36-.23h0Zm.82-.66-.25.31h-.15l.15-.31Zm-2.4-2.85a5,5,0,0,1-.32-1.94c.08-2.36,1.36-3.57,3.46-3.56a2.75,2.75,0,0,1,2.68,1.9h-1a1.91,1.91,0,0,0-2-1.08c-1.21,0-2.25,1-2.27,2.77,0,2.82,1.84,3,2.38,3a2.1,2.1,0,0,0,1.65-.8h1a2.77,2.77,0,0,1-2.75,1.6,2.89,2.89,0,0,1-2.93-1.89m.31,4.39a.5.5,0,0,1-.52-.54.51.51,0,0,1,.52-.57.43.43,0,0,1,.48.38h-.23a.22.22,0,0,0-.24-.2c-.18,0-.29.14-.29.37s.1.37.28.37a.25.25,0,0,0,.26-.24h.23a.46.46,0,0,1-.49.42m11.1-3.93v-3.6h.83v.34a2.61,2.61,0,0,1,1.89-.58v.7a1.9,1.9,0,0,0-1.48.51,1.78,1.78,0,0,0-.37,1.41c0,1.17,0,2.65,0,2.65h-.88s0-.74,0-1.43M123.18,0a15.48,15.48,0,1,0,15.48,15.48A15.48,15.48,0,0,0,123.18,0"/><polygon class="cls-1" points="191.03 20.18 191.35 20.18 191.35 21.72 192.29 21.72 192.29 22 191.03 22 191.03 20.18"/><path class="cls-1" d="M193.55,21.27h.56l-.28-.78h0Zm.11-1.1H194l.71,1.82h-.35l-.17-.48h-.73l-.17.48H193Z"/><polygon class="cls-1" points="198.82 22.03 197.45 22.03 197.45 20.14 197.93 20.14 197.93 21.63 198.82 21.63 198.82 22.03"/><path class="cls-1" d="M200.45,22.07c-.54,0-.82-.26-.82-.77V20.14h.47v1.17c0,.19,0,.36.34.36s.35-.1.35-.36V20.14h.47v1.17a.72.72,0,0,1-.82.77"/><polygon class="cls-1" points="204.25 22.03 203.8 22.03 203.8 20.89 203.41 22.03 203.05 22.03 202.65 20.91 202.65 22.03 202.2 22.03 202.2 20.14 202.83 20.14 203.24 21.33 203.62 20.14 204.25 20.14 204.25 22.03"/><rect class="cls-1" x="205.2" y="20.14" width="0.47" height="1.89"/><path class="cls-1" d="M207.56,20h-.33l-.47-.43h.51Zm.51,2h-1.47V20.14h1.44v.41h-1v.32H208v.38h-.89v.38h1Z"/><path class="cls-1" d="M209.41,21h.41c.17,0,.24-.07.24-.22s-.08-.22-.24-.22h-.41ZM210.62,22h-.49v0a1,1,0,0,1-.05-.3s0-.1,0-.15-.1-.24-.27-.24h-.37V22h-.47V20.14h1a.54.54,0,0,1,.57.54.48.48,0,0,1-.24.46.48.48,0,0,1,.22.43v.06a.79.79,0,0,0,.07.35Z"/><polygon class="cls-1" points="212.92 22.03 211.45 22.03 211.45 20.14 212.9 20.14 212.9 20.55 211.93 20.55 211.93 20.87 212.82 20.87 212.82 21.25 211.93 21.25 211.93 21.63 212.92 21.63 212.92 22.03"/><path class="cls-1" d="M216.17,21.27h.56l-.28-.78h0Zm.11-1.1h.34l.71,1.82H217l-.17-.48h-.73l-.17.48h-.33Z"/><path class="cls-1" d="M220.45,21.74h.32a.81.81,0,0,0,.3,0,.43.43,0,0,0,.19-.14.53.53,0,0,0,.09-.2,1.15,1.15,0,0,0,0-.26,1.17,1.17,0,0,0,0-.26.51.51,0,0,0-.09-.2.44.44,0,0,0-.19-.14.81.81,0,0,0-.3,0h-.32Zm-.32-1.56h.76a.86.86,0,0,1,.36.07.69.69,0,0,1,.26.19.8.8,0,0,1,.15.29,1.36,1.36,0,0,1,0,.72.79.79,0,0,1-.15.29.7.7,0,0,1-.26.19.86.86,0,0,1-.36.07h-.76Z"/><path class="cls-1" d="M222.63,20.18h.32v1.06a1.47,1.47,0,0,0,0,.2.44.44,0,0,0,.05.16.31.31,0,0,0,.13.12.63.63,0,0,0,.47,0,.3.3,0,0,0,.13-.12.44.44,0,0,0,.05-.16,1.47,1.47,0,0,0,0-.2V20.18h.32v1.17a.66.66,0,0,1-.2.52.95.95,0,0,1-1.1,0,.66.66,0,0,1-.2-.52Z"/><path class="cls-1" d="M227.77,22.07a.89.89,0,0,1-.65-.23.61.61,0,0,1-.17-.45v0h.46v0c0,.27.26.3.37.3s.32,0,.32-.19-.19-.18-.4-.24l-.12,0c-.2-.05-.57-.15-.57-.55a.65.65,0,0,1,.72-.59c.37,0,.77.16.77.62v0h-.46v0c0-.17-.11-.24-.33-.24,0,0-.24,0-.24.17s.05.12.48.23H228c.15,0,.56.14.56.56s-.31.62-.8.62"/><polygon class="cls-1" points="230.28 22.03 229.81 22.03 229.81 20.55 229.26 20.55 229.26 20.14 230.83 20.14 230.83 20.55 230.28 20.55 230.28 22.03"/><polygon class="cls-1" points="232.58 22.03 232.11 22.03 232.11 21.3 231.4 20.14 231.94 20.14 232.35 20.83 232.76 20.14 233.29 20.14 232.58 21.31 232.58 22.03"/><polygon class="cls-1" points="235.38 22.03 234 22.03 234 20.14 234.48 20.14 234.48 21.63 235.38 21.63 235.38 22.03"/><polygon class="cls-1" points="237.65 22.03 236.19 22.03 236.19 20.14 237.63 20.14 237.63 20.55 236.66 20.55 236.66 20.87 237.55 20.87 237.55 21.25 236.66 21.25 236.66 21.63 237.65 21.63 237.65 22.03"/><path class="cls-1" d="M182.72,18.8h61.76V9.1H182.72Zm62,.21H182.51V8.89h62.17Z"/><polygon class="cls-1" points="184.57 17.21 184.57 10.69 185.04 10.69 187.88 16.34 190.72 10.69 191.19 10.69 191.19 17.21 190.7 17.21 190.7 11.73 188.05 17 187.71 17 185.06 11.74 185.06 17.21 184.57 17.21"/><path class="cls-1" d="M193.58,15.27h3.66l-1.83-4Zm2.1-4.58,3,6.52h-.54l-.67-1.47h-4.1l-.66,1.47h-.55l3-6.52Z"/><path class="cls-1" d="M200.76,11.16v3.28h2.36a2,2,0,0,0,.75-.13,1.67,1.67,0,0,0,.55-.36,1.48,1.48,0,0,0,.34-.52,1.77,1.77,0,0,0,0-1.24,1.48,1.48,0,0,0-.34-.52,1.67,1.67,0,0,0-.55-.36,2,2,0,0,0-.75-.13Zm2.38-.47a2.5,2.5,0,0,1,.94.17,2,2,0,0,1,.7.46,2,2,0,0,1,.43.67,2.18,2.18,0,0,1,.15.81,2.21,2.21,0,0,1-.1.66A2.11,2.11,0,0,1,205,14a1.93,1.93,0,0,1-.46.46,2.19,2.19,0,0,1-.63.31l1.71,2.41H205l-1.65-2.32h-2.58v2.31h-.49V10.69Z"/><polygon class="cls-1" points="207.71 10.69 208.2 10.69 208.2 14.67 212.41 10.69 213.08 10.69 210.24 13.38 213.19 17.21 212.57 17.21 209.88 13.73 208.2 15.32 208.2 17.21 207.71 17.21 207.71 10.69"/><polygon class="cls-1" points="214.18 10.69 218.66 10.69 218.66 11.18 214.67 11.18 214.67 13.78 218.06 13.78 218.06 14.24 214.67 14.24 214.67 16.73 218.66 16.73 218.66 17.21 214.18 17.21 214.18 10.69"/><polygon class="cls-1" points="218.66 10.69 223.86 10.69 223.86 11.18 221.5 11.18 221.5 17.21 221.01 17.21 221.01 11.18 218.66 11.18 218.66 10.69"/><path class="cls-1" d="M227.14,15.58v0a.94.94,0,0,0,.14.51,1.23,1.23,0,0,0,.41.4,2.25,2.25,0,0,0,.64.26,3.41,3.41,0,0,0,.85.1,2.37,2.37,0,0,0,1.39-.34,1,1,0,0,0,.48-.87.9.9,0,0,0-.16-.54,1.48,1.48,0,0,0-.44-.39,3.47,3.47,0,0,0-.64-.3l-.78-.26-.81-.27a3.63,3.63,0,0,1-.75-.36,2,2,0,0,1-.55-.52,1.27,1.27,0,0,1-.21-.75,1.5,1.5,0,0,1,.16-.7,1.6,1.6,0,0,1,.46-.54,2.22,2.22,0,0,1,.73-.35,3.56,3.56,0,0,1,1-.12,3.66,3.66,0,0,1,1,.13,2.48,2.48,0,0,1,.77.35,1.69,1.69,0,0,1,.5.53,1.32,1.32,0,0,1,.18.68v.08H231v0a1,1,0,0,0-.13-.51,1.18,1.18,0,0,0-.39-.4,2.08,2.08,0,0,0-.62-.26A3.19,3.19,0,0,0,229,11a2.21,2.21,0,0,0-1.34.34,1,1,0,0,0-.46.87.9.9,0,0,0,.15.53,1.46,1.46,0,0,0,.42.39,3.2,3.2,0,0,0,.62.29l.75.25L230,14a3.76,3.76,0,0,1,.78.37,2.1,2.1,0,0,1,.58.54,1.27,1.27,0,0,1,.23.77,1.44,1.44,0,0,1-.17.7,1.58,1.58,0,0,1-.48.53,2.4,2.4,0,0,1-.75.34,3.68,3.68,0,0,1-1,.12,3.9,3.9,0,0,1-1-.12,2.68,2.68,0,0,1-.8-.35,1.74,1.74,0,0,1-.52-.53,1.28,1.28,0,0,1-.19-.68v-.07Z"/><polygon class="cls-1" points="232.94 10.69 237.42 10.69 237.42 11.18 233.43 11.18 233.43 13.78 236.82 13.78 236.82 14.24 233.43 14.24 233.43 16.73 237.42 16.73 237.42 17.21 232.94 17.21 232.94 10.69"/><polygon class="cls-1" points="237.42 10.69 242.62 10.69 242.62 11.18 240.26 11.18 240.26 17.21 239.77 17.21 239.77 11.18 237.42 11.18 237.42 10.69"/><path id="path1" class="cls-1" d="M284.44,4.85a5.34,5.34,0,0,0-.71.87c-.17.25-.62,1-.62,1l-.06.11-.17.3a9.61,9.61,0,0,1-1.53,2.35,2.51,2.51,0,0,1-.8.6c-.06,0-.22-.37-.19-.43s0,0,0,0a2.07,2.07,0,0,1-.17-.68,2.08,2.08,0,0,1-.08-.56s0,0,0-.05,0-.06,0-.11a.9.9,0,0,0,0-.14s0-.11,0-.2c-.25-1.36-.63-1.92-1.23-1.8a1.19,1.19,0,0,0-.64.76L278,7a4.37,4.37,0,0,0-.15.45.41.41,0,0,1-.07.16s0,0,0,0a.37.37,0,0,1,0,.15c0,.12-.1.41-.12.54a1,1,0,0,1,0,.12.76.76,0,0,0,0,.13,1,1,0,0,1-.06.34s0,.06,0,.12,0,.13,0,.16,0,0,0,.06a.39.39,0,0,1,0,.26,1.64,1.64,0,0,0,0,.25c0,.94,0,1.47-.06,1.5s0,.53,0,1.15a11.22,11.22,0,0,1-.05,1.86s0,.07,0,.18a.78.78,0,0,1,0,.22,1,1,0,0,0,0,.22.36.36,0,0,1,0,.18s0,.08,0,.18a.84.84,0,0,1,0,.22,4.29,4.29,0,0,0,0,.8s0,0,0,.1a.2.2,0,0,0,0,.12.08.08,0,0,1,0,.06c0,.24.34.5.68.52h.2l0-.21a9.52,9.52,0,0,0,.19-1.17.43.43,0,0,1,0-.18.58.58,0,0,0,0-.22.51.51,0,0,1,0-.25.15.15,0,0,0,0-.12,4.64,4.64,0,0,1,0-1s0-.54,0-1.82c0-1,0-1.84,0-1.85a.41.41,0,0,0,0-.18c0-.19,0-.37,0-.34s0,0,0,0a.64.64,0,0,1,0-.3.3.3,0,0,0,0-.14c0-.1,0-.14,0-.15s0,0,0,0,0-.2,0-.2,0,0,0,0a.6.6,0,0,1,0-.18l.06-.27a1.22,1.22,0,0,1,.05-.19.78.78,0,0,0,0-.14c0-.15.12,0,.13.16a.2.2,0,0,0,0,.11,3.35,3.35,0,0,1,.18.66l0,.07a.62.62,0,0,1,0,.16.27.27,0,0,0,0,.14,1,1,0,0,1,.1.34.14.14,0,0,0,0,.07s.06.16.12.33a2.18,2.18,0,0,0,.9,1.32,1.87,1.87,0,0,0,.75.09l.12-.06a2.56,2.56,0,0,0,1-1,22.43,22.43,0,0,0,1.25-2.41,4.51,4.51,0,0,1,1-1.6l.13-.1,0,.07a.36.36,0,0,1,0,.17.17.17,0,0,0,0,.13.17.17,0,0,1,0,.12.35.35,0,0,0,0,.13.37.37,0,0,1,0,.15c0,.06,0,.11,0,.11a1.31,1.31,0,0,1,.07.47s0,.07,0,.07.05.25,0,.27,0,0,0,.07,0,.08,0,.19,0,.14,0,.14,0,.07,0,.17,0,.18,0,.2,0,.08,0,.2,0,.17,0,.17a.43.43,0,0,1,0,.19.73.73,0,0,0,0,.23.82.82,0,0,1,0,.23,1.23,1.23,0,0,0,0,.24,1.22,1.22,0,0,1,0,.27.61.61,0,0,0,0,.23,5.79,5.79,0,0,1,.05,1,2.81,2.81,0,0,0,0,.38,3.94,3.94,0,0,1,0,.84s0,.22,0,.23,0,.66,0,3.13,0,3.12,0,3.13a1.71,1.71,0,0,0,0,.62s0,4.17,0,4.19a.72.72,0,0,0,0,.38,4.45,4.45,0,0,1,0,1,4.45,4.45,0,0,1,0,1s0,0,0,.08,0,.06,0,.05.06.11.06.22c0,.29.46.7.85.75,0,0,.07-.27,0-.31s0-5.36,0-5.38,0-2.22,0-2.24a8.06,8.06,0,0,1,0-1.3,3.47,3.47,0,0,0,0-.51,12.6,12.6,0,0,1,.05-1.54,10.09,10.09,0,0,0,0-1.33,8.94,8.94,0,0,1,.06-1.19,7.63,7.63,0,0,0,0-.8,7.35,7.35,0,0,0,0-.8,3.83,3.83,0,0,1,0-.88.55.55,0,0,0,0-.25.89.89,0,0,1,0-.32,1,1,0,0,0,0-.3.7.7,0,0,1,0-.24,1.6,1.6,0,0,0,0-.28.83.83,0,0,1,0-.22.39.39,0,0,0,0-.17s-.06-.3,0-.31,0,0,0-.07,0,0,0,0-.06,0,0-.18,0-.13,0-.13-.05-.22,0-.25,0,0,0-.06a.2.2,0,0,1,0-.15c0-.06,0-.11,0-.11s0-.06,0-.13,0-.14,0-.14a.76.76,0,0,1-.06-.24c0-.13,0-.31-.06-.39a.81.81,0,0,1,0-.22s0-.06,0-.07,0,0,0-.09a.63.63,0,0,0,0-.12l-.07-.28a3.83,3.83,0,0,0-.17-.58.43.43,0,0,1,0-.12.07.07,0,0,0,0-.05.17.17,0,0,1,0-.08,3.82,3.82,0,0,0-.23-.5l-.13-.2a1.59,1.59,0,0,0-.41-.45,1.69,1.69,0,0,0-.28.24m49.05-.15A5.26,5.26,0,0,0,332.82,6a1.23,1.23,0,0,1-.08.18.12.12,0,0,0,0,.07.32.32,0,0,1,0,.11.77.77,0,0,0-.06.16.66.66,0,0,1,0,.13s-.05.15-.09.28l-.09.29-.17.53c-.08.26-.16.49-.17.5a.12.12,0,0,0,0,.07.55.55,0,0,1-.05.15.69.69,0,0,0-.05.13,4.58,4.58,0,0,1-1.07,1.61l-.17.14-.08,0a3.1,3.1,0,0,1-.77-.82,6.59,6.59,0,0,1-.36-.59l-.12-.21-.12-.21a8.12,8.12,0,0,0-.46-.75A2.42,2.42,0,0,0,327,6.6c-.14,0-.13,0-.22.37a.48.48,0,0,1-.07.19s0,0,0,0a.6.6,0,0,1,0,.19c0,.08,0,.26-.06.39a.75.75,0,0,1-.06.24s0,.06,0,.11a.42.42,0,0,1,0,.15.87.87,0,0,0,0,.2.31.31,0,0,1,0,.16s0,.08,0,.19,0,.18,0,.18,0,.08,0,.18,0,.19,0,.23,0,.06,0,.1a1.1,1.1,0,0,1,0,.47,1.64,1.64,0,0,0,0,.32,9.32,9.32,0,0,1-.06,1.25,6.17,6.17,0,0,0,0,.67c0,1.67,0,3.07-.06,3.08a1.83,1.83,0,0,0,0,.67.4.4,0,0,1,0,.19.82.82,0,0,0,0,.19.13.13,0,0,1,0,.07.87.87,0,0,0,.51.7l.1,0,.19,0h.19v-.13c0-.09,0-.13,0-.13s0,0,0-.05,0-.23,0-.23,0-.05,0-.12a.5.5,0,0,1,0-.16,1,1,0,0,0,0-.22.36.36,0,0,1,0-.18s0-.08,0-.19a.88.88,0,0,1,0-.23,1.81,1.81,0,0,0,0-.32.94.94,0,0,1,0-.29,1.82,1.82,0,0,0,0-.44c0-2.35,0-4.28.06-4.31a.62.62,0,0,0,0-.38,4.25,4.25,0,0,1,0-.88,1.47,1.47,0,0,0,0-.3c0-.36,0-.48.06-.47a1.64,1.64,0,0,1,.32.26l.16.19.13.16.21.3c.18.28.46.74.51.84a3.72,3.72,0,0,0,1.27,1.41l.19.09a2.69,2.69,0,0,0,.94,0,1.67,1.67,0,0,0,.89-.94l.16-.32a.21.21,0,0,0,0-.08.44.44,0,0,1,0-.11s.06-.17.1-.28l.09-.3a1.79,1.79,0,0,0,.05-.21c0-.06,0-.11,0-.11s0-.07,0-.13a.33.33,0,0,1,0-.15.12.12,0,0,0,0-.07.76.76,0,0,1,0-.16L333,8.2a2.79,2.79,0,0,1,.1-.28.21.21,0,0,0,0-.08c0-.18.42-.88.42-.72a.87.87,0,0,0,0,.11,1.31,1.31,0,0,1,0,.18c0,.06,0,.11,0,.11a1.52,1.52,0,0,1,.06.42.76.76,0,0,0,0,.17.46.46,0,0,1,0,.16c0,.07,0,.12,0,.13a.37.37,0,0,1,0,.19.83.83,0,0,0,0,.2.64.64,0,0,1,0,.19.66.66,0,0,0,0,.19.85.85,0,0,1,0,.39.07.07,0,0,0,0,.06s0,0,0,0,.06.11,0,.33a.67.67,0,0,0,0,.22,1.79,1.79,0,0,1,0,.54s0,.11,0,.12,0,.12,0,.42a3.13,3.13,0,0,0,0,.45,4.87,4.87,0,0,1,0,.6,2,2,0,0,0,0,.56s.05,1.55.05,4.43c0,1.12,0,2,0,2s.06,1.62.06,2.6a4.37,4.37,0,0,0,0,.53,2.26,2.26,0,0,1,0,.64.11.11,0,0,0,0,.08s0,.06,0,.05.06.17,0,.49a1.39,1.39,0,0,0,0,.33,4.44,4.44,0,0,1,0,.86.05.05,0,0,0,0,.07s0,.08,0,.2a.72.72,0,0,0,0,.19.29.29,0,0,1,0,.11.2.2,0,0,0,0,.11.28.28,0,0,1,0,.13,2.75,2.75,0,0,0,.4.89,5.91,5.91,0,0,0,.5.51l.07.05v-.87c0-.48,0-.88,0-.89s0-.11,0-.12,0-.11,0-.38a1.57,1.57,0,0,0,0-.37.94.94,0,0,1,0-.29.77.77,0,0,0,0-.3,3.41,3.41,0,0,1-.05-.79.8.8,0,0,0,0-.25,3.69,3.69,0,0,1-.05-.79,1,1,0,0,0,0-.26.92.92,0,0,1,0-.44s0-.06,0-.1,0-.08,0-.3a1.11,1.11,0,0,0,0-.28,2.2,2.2,0,0,1,0-.6s0-.11,0-.12,0-3.41,0-3.44,0-.06,0-.15,0-1.92,0-1.93,0-2.64,0-2.67a13.33,13.33,0,0,1,0-1.37s0-.19,0-.2,0-.12,0-.42a3.32,3.32,0,0,0,0-.45,1.48,1.48,0,0,1,0-.31c0-.17,0-.27,0-.27a.54.54,0,0,1,0-.23,1.44,1.44,0,0,0,0-.27.75.75,0,0,1,0-.2.32.32,0,0,0,0-.17.34.34,0,0,1,0-.16,1,1,0,0,0,0-.2.47.47,0,0,1,0-.16c0-.06,0-.12,0-.12a1.07,1.07,0,0,1-.06-.28,2.19,2.19,0,0,0-.07-.42,1,1,0,0,1,0-.14,3.43,3.43,0,0,0-.14-.49,2.7,2.7,0,0,0-.83-1.27l-.1-.07-.08.1M309.76,10a3.14,3.14,0,0,0-.42.55l-.07.14a5.16,5.16,0,0,0-.32.81l-.08.27a.57.57,0,0,0,0,.13s0,0,0,0,0,0,0,.07a.23.23,0,0,1,0,.11,1.08,1.08,0,0,0-.05.32c0,.23,0,.26-.07.21s0,0,0,0a.1.1,0,0,0,0,.07.94.94,0,0,1,0,.41,9.71,9.71,0,0,0,0,1.11,1,1,0,0,1,0,.43.16.16,0,0,0,0,.09c0,.05,0,.06,0,0s.06,0,0,.18,0,.13,0,.13,0,.06,0,.12a9.88,9.88,0,0,0,.2,1.09.48.48,0,0,1,0,.16s0,0,0,.05a1.76,1.76,0,0,1,.12.33l.09.33-.06.1c-.18.28-.67.61-.78.54s0,0,0,0-.43,0-.58,0a1.81,1.81,0,0,1-.73-.58,1.55,1.55,0,0,1-.22-.51.21.21,0,0,0,0-.13s0-.06,0-.11,0-.08,0-.08,0-.07,0-.16v-.16h-.35c-.38,0-.37,0-.48.19s-.1.42-.06.42,0,0,0,0a1,1,0,0,0,.07.2c.16.35.17.4.17.54a.37.37,0,0,0,0,.17c.08.06-.59.47-.78.48a.18.18,0,0,0-.12,0c-.06.08-.28,0-.41-.23l-.09-.12-.07-.12c-.15-.31-.22-.54-.17-.56s0,0,0,0,0,0-.06-.14a.53.53,0,0,0,0-.16.45.45,0,0,1,0-.16.37.37,0,0,0,0-.17.14.14,0,0,1,0-.08c0-.05-.09-.11-.29-.17a2,2,0,0,0-.61-.06l-.1.05a1.85,1.85,0,0,0-.82.8c-.54.81-.79,1.07-1.18,1.22s-.44.05-.44-.35a.51.51,0,0,0,0-.23s0,0,0,0,0-.06,0-.21a.87.87,0,0,1,0-.24.55.55,0,0,0,0-.13,3.13,3.13,0,0,1,.06-.38.84.84,0,0,0,0-.16c0-.06,0-.12,0-.12a1.72,1.72,0,0,0,0-.57c-.05-.05,0-.11.09-.17a5,5,0,0,0,1.26-1.19,5,5,0,0,0,.94-1.91.39.39,0,0,1,0-.15,2.28,2.28,0,0,0,0-.78.13.13,0,0,1,0-.1s0-.06,0-.06,0,0,0,0a2,2,0,0,0-1-1.08c-.1,0-.47.26-.68.54a6.49,6.49,0,0,0-.72,1.25l-.1.22-.06.14c0,.07-.09.24-.17.5s-.08.23-.09.26a.62.62,0,0,0,0,.15c0,.06,0,.11,0,.11s0,0,0,0a.67.67,0,0,1,0,.2,11.82,11.82,0,0,0-.3,1.55.35.35,0,0,1,0,.15.33.33,0,0,0,0,.16c0,.18,0,.32,0,.26s0,0,0,0,0,.07,0,.07a1.88,1.88,0,0,1,0,.49,1.88,1.88,0,0,1,0,.49s0,0,0,.05,0,0,0,0,.06.05.06.19a1.25,1.25,0,0,0,0,.23.19.19,0,0,1,0,.14s0,0,0,0,0,0,0,.1,0,.08,0,.08,0,0,0,.06l0,.18a1.85,1.85,0,0,0,.18.46,1.75,1.75,0,0,0,1.11,1c.31.07.83-.32,1.11-.85a3,3,0,0,1,.85-1.13c.18-.11.2-.1.24.11a2,2,0,0,0,3,1.17c.2-.15.18-.15.32,0a2.05,2.05,0,0,0,1.75.23,2.36,2.36,0,0,0,1.07-.79c.12-.15.12-.16.19-.09a1.85,1.85,0,0,0,1,.47c.07,0,.13,0,.13,0s.31,0,.33,0a.15.15,0,0,1,.1,0,1.54,1.54,0,0,0,.82-.39c.16-.15.17-.15.25,0a1.8,1.8,0,0,0,.81.64l.18.08A2.54,2.54,0,0,0,314,19a.09.09,0,0,1,.08,0s0,0,0,0,0,0,.12,0l.21,0,.12,0a7.47,7.47,0,0,0,1.47-.06.07.07,0,0,1,.07,0s0,0,0,0,0,0,.1-.06a.83.83,0,0,0,.37-.19c.11-.1.24-.41.17-.41s0,0,0-.08a.64.64,0,0,0-.24-.3,2.16,2.16,0,0,0-.65,0,.33.33,0,0,1-.16,0c-.19,0-.19,0-.06-.14a1,1,0,0,0,.16-.29l.1-.26a.46.46,0,0,0,0-.11.7.7,0,0,1,.23-.28c.1,0,.13,0,.15.11a.28.28,0,0,0,0,.13.08.08,0,0,1,0,.06,4.26,4.26,0,0,0,.31.64l.09.12a4.14,4.14,0,0,0,.55.54,2.55,2.55,0,0,0,1,.39.64.64,0,0,1,.23.05s.26,0,.27,0a.69.69,0,0,1,.25-.05l.3,0c.06,0,.08,0,.12.09a2.42,2.42,0,0,0,1.66.89.6.6,0,0,1,.2.06.29.29,0,0,0,.15,0h.19a4.4,4.4,0,0,0,.74,0l.17,0a1.83,1.83,0,0,0,1.33-.65.3.3,0,0,1,.08-.1s0,0,0,0a.06.06,0,0,1,0-.07,1.2,1.2,0,0,0,0-.58c-.05-.17-.07-.19-.13-.15a8.36,8.36,0,0,1-.8.32l-.28.1-.16,0-.32.08-.24,0a0,0,0,0,0,0,0,3.49,3.49,0,0,1-1,0c-.47-.17-.82-.5-.59-.56a2.29,2.29,0,0,0,1.06-1l.08-.16a.66.66,0,0,0,0-.15c0-.06,0-.11,0-.12a1.24,1.24,0,0,0,0-.5.37.37,0,0,1,0-.1,1.3,1.3,0,0,0-.24-.38c-.12-.1-.35.13-.58.6s-.54.83-.78.79c0,0-.08,0-.08,0s0,0-.05,0-.05,0-.05,0,0-.06,0-.11a.2.2,0,0,1,0-.12.16.16,0,0,0,0-.12s0-.09,0-.09,0,0,0-.07a.14.14,0,0,1,0-.1.43.43,0,0,0,0-.14.42.42,0,0,1,0-.13l0,0a2,2,0,0,1,.42-.77c.23-.24.36-.3.4-.18a.16.16,0,0,0,.12.11l.1,0h.47V15.3a.88.88,0,0,0,0-.26s0,0,0-.05-.29-.63-.38-.63l-.07,0a1.39,1.39,0,0,0-.46,0,.2.2,0,0,1-.11,0,1.81,1.81,0,0,0-1.42,1.32.39.39,0,0,1,0,.12.66.66,0,0,0,0,.18.47.47,0,0,1,0,.18.38.38,0,0,0,0,.2.41.41,0,0,1,0,.2,1.29,1.29,0,0,0,0,.54.5.5,0,0,1,0,.23.49.49,0,0,0,0,.19s0,.06,0,.12,0,.06-.07.07l-.1,0a2.18,2.18,0,0,1-.42.11,2.26,2.26,0,0,1-.71,0l-.15-.08c-.17-.08-.47-.47-.42-.54s0,0,0,0a.81.81,0,0,1-.1-.37s0,0,0,0-.06-.24,0-.28,0,0,0-.06a2,2,0,0,1,0-.85c0-.07,0-.1,0-.13a1,1,0,0,1,0-.44.59.59,0,0,0,0-.19,2.44,2.44,0,0,1,.06-.62.35.35,0,0,0,0-.17.75.75,0,0,1,0-.2,1.33,1.33,0,0,0,0-.25.63.63,0,0,1,0-.22,1.28,1.28,0,0,0,0-.33c0-.17,0-.41,0-.52a.65.65,0,0,0,0-.26,1.09,1.09,0,0,1,0-.27,1.35,1.35,0,0,0-.62-1.23c-.15-.07-.14-.08-.28.31a1.19,1.19,0,0,0-.06.24.11.11,0,0,1,0,.09s0,0,0,0,0,0,0,.07a10.35,10.35,0,0,0-.07,1.6,7.46,7.46,0,0,1,0,1.09s0,.07,0,.2a2.43,2.43,0,0,1-.11.84s-.06,0-.11-.18c-.23-.53-.4-.66-.89-.71-.08,0-.14,0-.14,0a.45.45,0,0,0-.18,0c-.1,0-.18,0-.18,0s-.05,0-.12,0-.12,0-.13,0-.05,0-.11,0c-.49.09-.91.57-1.46,1.65a3.53,3.53,0,0,1-.7,1.14,1.11,1.11,0,0,1-1.39.13c-.17-.07-.17-.08-.1-.19a6,6,0,0,0,.41-.78l.09-.2a.21.21,0,0,0,0-.08.45.45,0,0,1,0-.11l.09-.25.07-.21.1-.38a2.27,2.27,0,0,1,.11-.36.32.32,0,0,0,0-.14c0-.15,0-.26.06-.24s0,0,0-.1,0-.12,0-.12,0-.05,0-.12,0-.12,0-.13,0,0,0,0a.77.77,0,0,1,0-.33s0-1.18,0-1.21a.58.58,0,0,1,0-.26,0,0,0,0,0,0,0s0-.08-.05-.19a.5.5,0,0,0,0-.19.09.09,0,0,1,0-.07,2.64,2.64,0,0,0-.6-1.15,2.26,2.26,0,0,0-.91-.56l-.18.17m-3.53.71a1.52,1.52,0,0,0-.23.82v.23l.15.11a1.25,1.25,0,0,0,.41.22s0,0,0,0a1,1,0,0,0,.45,0,1.12,1.12,0,0,0,.14-.67.13.13,0,0,1,0-.11s0,0,0-.05a.08.08,0,0,1,0-.07.71.71,0,0,0-.3-.46c-.14-.1-.57-.14-.63-.05m3.84.8a1.52,1.52,0,0,1,.28.43.39.39,0,0,0,0,.09,1.6,1.6,0,0,1,.12.48s0,.06,0,.06,0,.06,0,.14,0,.15,0,.15a2.49,2.49,0,0,1,0,.77s0,.07,0,.18,0,.17,0,.17,0,0,0,.06a3,3,0,0,1-.21.84.11.11,0,0,0,0,.06,2.12,2.12,0,0,1-.47.77.87.87,0,0,1-.07-.38.75.75,0,0,0,0-.18,1.36,1.36,0,0,1,0-.31c0-.16,0-.26,0-.26a2.21,2.21,0,0,1,0-.5,2.89,2.89,0,0,1,0-.5,1.22,1.22,0,0,0,0-.32,2.77,2.77,0,0,1,0-.77s0-.07,0-.14a.56.56,0,0,1,0-.18.5.5,0,0,0,0-.16c0-.07,0-.12,0-.13s0-.07,0-.21c0-.31,0-.34.19-.18m-7.57.05a.36.36,0,0,1,0,.33.43.43,0,0,0,0,.19.52.52,0,0,1,0,.18.38.38,0,0,0,0,.12,2.8,2.8,0,0,1-.59,1.08c-.2.23-.71.58-.76.53a1.84,1.84,0,0,1,.14-.43l.18-.41A8.82,8.82,0,0,1,302,12c.32-.51.38-.56.53-.43m-6.13.17c0,.06-.08.3-.11.45s0,.07,0,.07,0,0,0,0a.58.58,0,0,1-.07.3s0,0,0,.06a.76.76,0,0,1,0,.23,1.36,1.36,0,0,0,0,.22.14.14,0,0,1,0,.08.26.26,0,0,0,0,.1,1.26,1.26,0,0,1-.06.36s0,.05,0,.11a1.28,1.28,0,0,1-.06.41s0,.06,0,.13,0,.14,0,.17,0,.05,0,.06a.55.55,0,0,1,0,.3.4.4,0,0,0,0,.16.77.77,0,0,1,0,.2,1.8,1.8,0,0,0,0,.29,1,1,0,0,1,0,.26s0,2.35,0,2.37,0,.3,0,.31-.06,0-.06,0a.36.36,0,0,0-.17,0l-.17,0-.14,0a1.62,1.62,0,0,0-.44.23,1,1,0,0,1-.73.26c-.08,0-.14,0-.14,0s0,0,0,0-.52-.24-.65-.51S293,18.1,293,18a.24.24,0,0,0,0-.12,1.09,1.09,0,0,1-.07-.39.45.45,0,0,0,0-.13.5.5,0,0,1,0-.29s0,0,0-.07,0-.08,0-.17,0-.13,0-.13,0-.05,0-.12,0-.11,0-.1,0,0-.06-.17a1.27,1.27,0,0,0-.14-.37,1.07,1.07,0,0,0-.65-.58c-.07,0-.07,0-.07-.17a1.36,1.36,0,0,0-.51-1l-.22-.22h-.24a.77.77,0,0,0-.24,0s0,0-.08,0a.14.14,0,0,0-.09,0,.08.08,0,0,1-.06,0c-.33,0-1.15.73-1.59,1.42a6.24,6.24,0,0,0-.62,1.32l0,.12a2.67,2.67,0,0,0-.1.36s0,.07,0,.07,0,0,0,0a1.34,1.34,0,0,1-.06.42,4.77,4.77,0,0,0,0,.53,4.67,4.67,0,0,0,0,.53.83.83,0,0,1,.06.2,1.93,1.93,0,0,0,.07.24l.08.17a1.69,1.69,0,0,0,1,.84q1,.29,2.18-1.29a11.21,11.21,0,0,0,.64-.93s.07-.06.09,0a.63.63,0,0,1,0,.11A2.25,2.25,0,0,0,294,19.89a.51.51,0,0,1,.2.05s.23,0,.25,0,.07,0,.15,0,.14,0,.14,0,0,0,.05,0a1.75,1.75,0,0,0,1-.67c.11-.16.15-.17.17-.07.05.38.53.92.82.92,0,0,0,0,0,0s0,0,0,0,0,0,.08,0l.12,0s.07,0,.07,0a.41.41,0,0,0,.17,0,.52.52,0,0,1,.2,0s.19,0,.21,0a.42.42,0,0,1,.19,0l.2,0,.07,0c.5,0,1.36-.63,1.36-1a.28.28,0,0,1,0-.11c0-.06,0-.11-.08-.42l0-.14h-.14a1.69,1.69,0,0,0-.87.39c-.6.41-1.29.48-1.46.15-.09-.17-.16-.48-.11-.48a0,0,0,0,0,0,0s0,0,0,0a5.15,5.15,0,0,1,0-1.09l0-.09,0,.08c0,.07,0,.06,0-.06s0-.14,0-.14a2.76,2.76,0,0,1,0-.78s0,0,0-.06,0-.06.11-.17a3,3,0,0,1,.85-.45,4.57,4.57,0,0,0,.52-.23l.12-.06v-.25a.84.84,0,0,0,0-.29.33.33,0,0,1,0-.16c0-.28-.41-.35-.81-.15s-.4.19-.49.17l-.09,0v-.24a.72.72,0,0,1,0-.24s0,0,0-.1a.67.67,0,0,1,.06-.32s0,0,0,0a.61.61,0,0,1,.07-.3s0,0,0-.09,0-.09,0-.09,0,0,0-.06a.12.12,0,0,1,0-.1.17.17,0,0,0,0-.13c0-.05,0-.1,0-.11a2.16,2.16,0,0,0-.08-.88c-.16-.31-.63-.54-.69-.35m-5.19,3.52a1.55,1.55,0,0,1,.55.27c.07.06.1.24,0,.24s0,0,0,.05a.53.53,0,0,1,0,.19l-.1.34-.08.25-.07.18a4.24,4.24,0,0,1-.2.47l-.08.16a4.17,4.17,0,0,1-1.39,1.52c-.24.15-.23.15-.36.08a.61.61,0,0,0-.18-.06c-.07,0-.11,0-.13-.17a.42.42,0,0,0,0-.14.23.23,0,0,1,0-.12.21.21,0,0,0,0-.11,2.5,2.5,0,0,1,0-.62s0-.05,0-.11a.22.22,0,0,1,0-.15.31.31,0,0,0,0-.16,1.86,1.86,0,0,1,.14-.54.11.11,0,0,0,0-.06,3.37,3.37,0,0,1,.41-.79l0-.05a3,3,0,0,1,.37-.39,1.06,1.06,0,0,1,.57-.27s.06,0,.06,0,.14-.05.4,0m23.61.26s0,0,.08,0,.23,0,.22.06,0,0,0,0,.05,0,.08.07c.56,1.06-1,2.57-1.84,1.73-.18-.19-.29-.44-.2-.44s0,0,0,0a.15.15,0,0,1,0-.1l.07-.19c.2-.57.78-1.16,1.1-1.11,0,0,.07,0,.07,0s.35,0,.36,0m22.56,2.46s0,0-.09,0-.08,0-.08,0,0,0-.07,0a1,1,0,0,0-.47.48.37.37,0,0,1-.06.14.78.78,0,0,0,0,.23.9.9,0,0,0,.52.81l.16.09a1.4,1.4,0,0,0,.64-.08,1,1,0,0,0,.5-.6s0-.05,0-.05a.87.87,0,0,0,0-.37s0,0,0-.05a.69.69,0,0,0-.11-.25,1,1,0,0,0-.6-.41s-.06,0-.06,0a.49.49,0,0,0-.28,0m.39.19a.77.77,0,0,1,.25,1.32c-.18.15-.52.24-.59.16a.09.09,0,0,0-.08,0c-.2.05-.66-.48-.54-.62s0,0,0,0,0-.18,0-.33a.77.77,0,0,1,1-.47m-.7.21c-.05,0,0,.06,0,.07s.06,0,.07.42,0,.48,0,.42-.09,0-.09,0,0,.07.22.07h.22v-.07c0-.06,0-.06,0,0s-.07,0-.06-.17.1-.18.27.07.14.2.26.21.15,0,0-.16-.22-.27-.12-.36a.29.29,0,0,0,0-.45,2.72,2.72,0,0,0-.7,0m.59.14c.09.09,0,.34-.06.3s0,0,0,0-.15,0-.17,0a.87.87,0,0,1,0-.34.29.29,0,0,1,.27,0M286.21,21c0,.16,0,0,0-.27s0-.43,0-.28,0,.4,0,.55"/></g></g></svg>