<svg xmlns="http://www.w3.org/2000/svg" viewBox="0 0 36.94 36.94"><defs><style>.cls-1{fill:#4b4b4b;}</style></defs><title>sema-design_logo</title><g id="Calque_2" data-name="Calque 2"><g id="Calque_1-2" data-name="Calque 1"><path class="cls-1" d="M36.94,36.94H0V0H36.94ZM.62,36.33H36.33V.62H.62Z"/><path class="cls-1" d="M9,18.35a8,8,0,0,0-2.19-1l-.14,0H6.6a4.62,4.62,0,0,1-1.91-.93,2.23,2.23,0,0,1-.58-1.53,2.52,2.52,0,0,1,.7-1.91,2.34,2.34,0,0,1,1.71-.63,2.51,2.51,0,0,1,1.87.75,3.1,3.1,0,0,1,.78,2.17v.09H9.8v-.1a3.91,3.91,0,0,0-1-2.63,3,3,0,0,0-2.29-.93,3,3,0,0,0-2.15.8,3.09,3.09,0,0,0-.91,2.39,2.87,2.87,0,0,0,.73,2A5.74,5.74,0,0,0,6.41,18l.14,0,0,0h0a7.19,7.19,0,0,1,1.95.84,2.33,2.33,0,0,1,.88,2,2.52,2.52,0,0,1-.85,2,2.69,2.69,0,0,1-1.86.67,2.49,2.49,0,0,1-2-.88,4,4,0,0,1-.82-2.4v-.09H3.24v.1a4.56,4.56,0,0,0,1,2.87A3.05,3.05,0,0,0,6.7,24.19a3.37,3.37,0,0,0,2.37-.85,3.47,3.47,0,0,0,1-2.63A2.82,2.82,0,0,0,9,18.35"/><polygon class="cls-1" points="11.2 23.23 11.2 18.04 15.6 18.04 15.6 17.34 11.2 17.34 11.2 12.64 16.75 12.64 16.75 11.93 10.54 11.93 10.54 23.94 16.89 23.94 16.89 23.23 11.2 23.23"/><polygon class="cls-1" points="25.09 11.93 21.69 20.11 18.16 11.93 17.35 11.93 17.35 23.94 17.95 23.94 17.95 13.15 21.46 21.06 21.48 21.11 21.88 21.11 25.3 13.16 25.3 23.94 25.89 23.94 25.89 11.93 25.09 11.93"/><path class="cls-1" d="M31.74,19.23h-4l2-6.26Zm-1.66-7.3h-.66l-3.86,12h.65l1.29-4H32l1.28,4h.65Z"/><path class="cls-1" d="M6.89,25.8a.42.42,0,0,0-.26-.26.79.79,0,0,0-.22,0H6.19v1.07h.24a.47.47,0,0,0,.38-.15A.58.58,0,0,0,6.93,26a.64.64,0,0,0,0-.24m.16.59a.59.59,0,0,1-.39.35,1.25,1.25,0,0,1-.3,0H6V25.33h.4a.67.67,0,0,1,.46.14.73.73,0,0,1,.24.57.83.83,0,0,1-.07.34"/><path class="cls-1" d="M12.08,25.95a.53.53,0,0,0-.56-.49.5.5,0,0,0-.36.14.58.58,0,0,0-.17.35Zm.2.16H11a.57.57,0,0,0,.17.38.53.53,0,0,0,.38.14.51.51,0,0,0,.49-.32h.21a.74.74,0,0,1-1.23.27.8.8,0,0,1,0-1.08.74.74,0,0,1,.54-.21.68.68,0,0,1,.54.24.84.84,0,0,1,.19.57Z"/><path class="cls-1" d="M15.89,26.31h.19a.34.34,0,0,0,.07.22.24.24,0,0,0,.2.1.26.26,0,0,0,.18-.07.22.22,0,0,0,.07-.17.23.23,0,0,0-.08-.19.55.55,0,0,0-.19-.1.93.93,0,0,1-.28-.14.35.35,0,0,1-.11-.27.38.38,0,0,1,.12-.29.42.42,0,0,1,.3-.12.4.4,0,0,1,.29.11.42.42,0,0,1,.12.29h-.2a.2.2,0,0,0-.22-.21.21.21,0,0,0-.21.21.21.21,0,0,0,.11.19l.14.06.14,0a.43.43,0,0,1,.13.71.46.46,0,0,1-.32.12.42.42,0,0,1-.33-.14.54.54,0,0,1-.12-.35"/><path class="cls-1" d="M20.51,26.76h.18V25.32h-.18Zm0-1.61h.18v-.3h-.18Z"/><path class="cls-1" d="M25.63,26.56a.7.7,0,0,1-.25.17.88.88,0,0,1-.25,0,.68.68,0,0,1-.51-.21.72.72,0,0,1-.2-.52.69.69,0,0,1,.22-.51.72.72,0,0,1,1.16.21h-.22a.54.54,0,0,0-.44-.24.51.51,0,0,0-.38.16.53.53,0,0,0-.15.38.55.55,0,0,0,.15.39.51.51,0,0,0,.38.16.49.49,0,0,0,.31-.1.51.51,0,0,0,.18-.27H25V26h.89a.76.76,0,0,1-.22.52"/><path class="cls-1" d="M29.66,25.32h.18v.16a.57.57,0,0,1,.45-.19.53.53,0,0,1,.48.23.94.94,0,0,1,.09.49v.75h-.18V26a.6.6,0,0,0-.08-.35.38.38,0,0,0-.33-.13.39.39,0,0,0-.37.2.87.87,0,0,0-.06.4v.7h-.18Z"/></g></g></svg>