<?xml version="1.0" encoding="UTF-8"?>
<svg width="575px" height="571px" viewBox="0 0 575 571" version="1.1" xmlns="http://www.w3.org/2000/svg" xmlns:xlink="http://www.w3.org/1999/xlink">
    <!-- Generator: Sketch 57.1 (83088) - https://sketch.com -->
    <title>icon-bricolage</title>
    <desc>Created with Sketch.</desc>
    <g id="icon-bricolage" stroke="none" stroke-width="1" fill="none" fill-rule="evenodd">
        <path d="M482.8616,4.4995 C484.5436,4.9135 486.0816,5.7805 487.3036,7.0015 C490.940657,10.6346321 491.013131,16.4846784 487.517245,20.2061899 L487.3116,20.4185 L428.2586,79.4825 L443.8846,126.3245 L490.7376,141.9385 L549.7896,82.9245 C551.0076,81.7105 552.5296,80.8485 554.1996,80.4305 C559.2846,79.1665 564.4316,82.2605 565.6966,87.3455 C568.0416,96.5905 569.2126,106.0895 569.1816,115.6275 C568.9706,178.2825 518.0036,228.9055 455.3496,228.6945 C448.299322,228.671833 441.2651,227.981969 434.345497,226.632489 L433.1256,226.3875 L383.3876,276.1245 L405.1406,297.8765 C408.773732,301.510613 408.842282,307.360678 405.346249,311.077468 L405.1406,311.2895 L400.3946,316.0355 C400.3906,316.0425 400.3826,316.0465 400.3756,316.0545 C396.2306,320.2065 396.2426,326.9355 400.3946,331.0795 C404.484243,335.142625 411.039415,335.215181 415.217113,331.297167 L415.4426,331.0795 L420.1846,326.3375 C423.817732,322.704368 429.667778,322.635818 433.385512,326.131851 L433.5976,326.3375 L546.7616,439.4985 C546.9256,439.6625 547.0896,439.8265 547.2496,439.9905 C577.0136,470.0235 576.7946,518.5035 546.7616,548.2685 C517.02497,577.73585 469.215296,577.815882 439.381126,548.669664 L438.4826,547.7775 L325.3186,434.6125 C321.685468,430.979368 321.616918,425.129322 325.112951,421.412532 L325.3186,421.2005 L330.0606,416.4575 L330.0796,416.4385 C334.2246,412.2825 334.2166,405.5545 330.0606,401.4105 C325.974886,397.351304 319.415925,397.278818 315.241881,401.193043 L315.0166,401.4105 L310.2746,406.1555 C306.637543,409.789613 300.791274,409.858181 297.069906,406.361205 L296.8576,406.1555 L275.1056,384.4035 L225.3686,434.1405 C226.8786,441.4545 227.6516,448.8995 227.6746,456.3695 C227.6746,519.2385 176.7086,570.2045 113.8396,570.2045 C50.9666,570.2045 0.0006,519.2385 0.0006,456.3695 C0.0006,393.4965 50.9666,342.5295 113.8396,342.5295 C120.889878,342.555 127.923208,343.243238 134.843555,344.590843 L136.0636,344.8355 L343.8206,137.0825 C342.3066,129.7705 341.5376,122.3245 341.5146,114.8545 C341.4826,105.3445 342.6496,95.8695 344.9876,86.6515 C360.3756,25.8935 422.1006,-10.8865 482.8616,4.4995 Z M431.4856,22.9085 C380.9726,35.8365 350.5016,87.2645 363.4266,137.7785 C364.212406,140.904306 363.34993,144.210862 361.15638,146.557118 L360.9326,146.7885 L145.7816,361.9525 C143.4166,364.2975 140.0016,365.2465 136.7666,364.4545 C121.3046,360.5205 105.1056,360.5205 89.6446,364.4545 C38.5296,377.4685 7.6456,429.4535 20.6556,480.5645 C33.6706,531.6785 85.6556,562.5635 136.7666,549.5485 C187.8806,536.5385 218.7656,484.5525 205.7506,433.4415 C204.972535,430.310855 205.836198,427.00508 208.031629,424.657973 L208.2556,424.4265 L423.4586,209.2675 L423.4586,209.2635 L423.4076,209.2635 C425.7646,206.9065 429.1876,205.9615 432.4226,206.7695 C440.2276,208.7675 448.2586,209.7595 456.3176,209.7205 C508.4426,209.4515 550.4806,166.9805 550.215855,114.8545 C550.215855,113.4281 550.177932,111.99658 550.104907,110.553796 L550.0436,109.4695 L500.0016,159.5105 C497.536306,161.972882 493.923605,162.879954 490.601746,161.892497 L490.3006,161.7975 L433.3786,142.8245 C430.64329,141.915948 428.474771,139.811354 427.475197,137.120069 L427.3726,136.8295 L408.4026,79.9085 C407.300982,76.6007353 408.106057,72.9641981 410.477691,70.4325648 L410.6976,70.2055 L460.7386,20.1455 C450.9046,19.5325 441.0316,20.4695 431.4856,22.9085 Z M546.5356,473.4615 L472.4466,547.5545 C478.8966,549.9775 485.7306,551.2225 492.6226,551.234538 C499.5606,551.2425 506.4406,549.9935 512.9306,547.5545 C542.6716,536.3735 557.7156,503.2035 546.5356,473.4615 Z M369.9716,289.5385 L288.4366,370.9515 L303.6136,386.1275 C314.6146,376.8825 330.6686,376.8715 341.6816,386.1045 C354.08729,396.50148 355.825572,414.910777 345.666106,427.436741 L345.3546,427.8145 L451.8956,534.3645 C452.8228,535.2917 453.79032,536.16898 454.77768,537.016308 L455.5216,537.6465 L536.6306,456.5375 C535.7938,455.5439 534.9346,454.56374 534.033032,453.6175 L533.3486,452.9145 L426.8886,346.3625 C415.8876,355.6105 399.8366,355.6185 388.8236,346.3895 C376.41791,335.99252 374.679628,317.582242 384.840065,305.05723 L385.1516,304.6795 L369.9716,289.5385 Z M142.2963,399.4514 C145.525144,399.4514 148.519368,401.088103 150.264363,403.787836 L150.4293,404.0524 L178.8863,451.4834 C180.636831,454.394494 180.691535,458.01226 179.050412,460.970249 L178.8863,461.2544 L150.4293,508.6854 C148.765956,511.449244 145.820654,513.177009 142.608002,513.282296 L142.2963,513.2874 L85.3783,513.2874 C82.1543,513.2874 79.1564729,511.646004 77.4139754,508.949615 L77.2493,508.6854 L48.7883,461.2544 C47.0387375,458.3404 46.9840637,454.722543 48.6242785,451.767279 L48.7883,451.4834 L77.2493,404.0524 C78.9097375,401.284681 81.8587033,399.561487 85.0670406,399.45649 L85.3783,399.4514 L142.2963,399.4514 Z M136.9303,418.4204 L90.7483,418.4204 L67.9813,456.3694 L90.7483,494.3124 L136.9303,494.3124 L159.6973,456.3694 L136.9303,418.4204 Z M395.6615,383.256 L490.5265,478.117 L477.1095,491.534 L382.2485,396.673 L395.6615,383.256 Z M382.2443,174.5507 L395.6573,187.9637 L186.9563,396.6687 L173.5393,383.2517 L382.2443,174.5507 Z M51.9437311,2.17569484 L52.2036,2.3182 L118.6116,40.2622 C120.763058,41.4936583 122.34327,43.5158615 123.023945,45.8905016 L123.1076,46.2022 L131.9586,81.5862 L253.3846,203.0112 L239.9716,216.4282 L116.6456,93.1022 C115.512533,91.9691333 114.682613,90.56428 114.240396,89.0242302 L114.1516,88.6922 L105.6126,54.6742 L49.0196,22.3352 L21.3196,50.0342 L53.6286,106.6042 L87.6466,115.1392 C89.2015333,115.529333 90.6310267,116.307111 91.8009289,117.398547 L92.0476,117.6372 L215.3746,240.9602 L201.9576,254.3722 L80.5316,132.9462 L45.1286,124.0952 C42.727975,123.493367 40.6598118,121.976804 39.3650586,119.877324 L39.2006,119.6002 L1.2526,53.1952 C-0.791854545,49.5460636 -0.204158264,45.0058544 2.67221382,41.9994314 L2.8766,41.7922 L40.8196,3.8442 C43.7703442,0.906153488 48.2847422,0.242512601 51.9437311,2.17569484 Z" id="Combined-Shape" fill="#A0A0A0"></path>
    </g>
</svg>