<?xml version="1.0" encoding="UTF-8"?>
<svg width="575px" height="571px" viewBox="0 0 575 571" version="1.1" xmlns="http://www.w3.org/2000/svg" xmlns:xlink="http://www.w3.org/1999/xlink">
    <!-- Generator: Sketch 57.1 (83088) - https://sketch.com -->
    <title>icon-expertise</title>
    <desc>Created with Sketch.</desc>
    <g id="icon-expertise" stroke="none" stroke-width="1" fill="none" fill-rule="evenodd">
        <path d="M309.1367,48.9996522 C309.2457,48.9996522 309.3557,49.0137 309.4657,49.0167 C309.5867,49.0197 309.7037,49.0227 309.8247,49.0297 C310.2317,49.0577 310.6377,49.0967 311.0327,49.1717 C311.0567,49.1757 311.0797,49.1747 311.0997,49.1787 C311.5377,49.2647 311.9647,49.3827 312.3797,49.5197 C312.4617,49.5497 312.5487,49.5807 312.6307,49.6117 C313.0147,49.7487 313.3907,49.9097 313.7517,50.0937 C313.7867,50.1097 313.8217,50.1247 313.8537,50.1397 C314.2417,50.3437 314.6077,50.5747 314.9647,50.8257 C315.0517,50.8837 315.1337,50.9457 315.2167,51.0117 C315.5667,51.2737 315.9047,51.5527 316.2197,51.8587 C316.2237,51.8627 316.2277,51.8657 316.2317,51.8697 L316.2317,51.8697 L405.3297,139.4757 C405.3337,139.4797 405.3377,139.4837 405.3427,139.4877 C405.6537,139.7977 405.9417,140.1347 406.2097,140.4797 C406.2737,140.5617 406.3367,140.6397 406.3957,140.7207 C406.6527,141.0747 406.8947,141.4437 407.1047,141.8287 C407.1197,141.8557 407.1277,141.8827 407.1447,141.9137 C407.3387,142.2757 407.5057,142.6567 407.6567,143.0467 C407.6857,143.1237 407.7177,143.2057 407.7447,143.2837 C407.8937,143.7007 408.0187,144.1247 408.1087,144.5617 C408.1127,144.5817 408.1157,144.6047 408.1197,144.6207 C408.1967,145.0177 408.2477,145.4247 408.2787,145.8377 C408.2877,145.9547 408.2967,146.0767 408.3017,146.1977 C408.3067,146.3067 408.3197,146.4117 408.3207,146.5247 L408.3207,146.5247 L410.196054,368.5997 C410.2417,374.1227 405.8027,378.6377 400.2797,378.6837 C394.7577,378.7307 390.2427,374.2917 390.1957,368.7687 L390.1957,368.7687 L388.4047,156.6937 L330.0517,157.1867 C313.4837,157.3267 299.9397,144.0087 299.7987,127.4407 L299.7987,127.4407 L299.3067,69.0837 L81.9157,70.9197 C76.3927,70.9667 71.9537,75.4817 72.0007,81.0037 L72.0007,81.0037 L75.4777,492.6537 C75.5247,498.1767 80.0387,502.6157 85.5617,502.5687 L85.5617,502.5687 L301.1607,500.7477 C306.6837,500.7007 311.1977,505.1407 311.2447,510.6627 C311.2917,516.1847 306.8527,520.7007 301.3297,520.7467 L301.3297,520.7467 L85.7307,522.568794 C69.1627,522.7077 55.6177,509.3907 55.4787,492.8227 L55.4787,492.8227 L51.9996217,81.1727 C51.8617,64.6047 65.1787,51.0607 81.7467,50.9207 L81.7467,50.9207 L122.4287,50.5777 L142.4277,50.4087 Z M517.1036,335.6258 C524.182218,340.693234 525.890014,350.514066 520.998772,357.666157 L520.7996,357.9508 L520.8006,357.9508 L421.8366,496.1848 C421.6536,496.4378 421.4666,496.6868 421.2816,496.9178 C412.9926,507.2318 400.6686,513.6518 387.4746,514.5308 C386.4136,514.5998 385.3606,514.6348 384.3416,514.6348 C372.297733,514.6348 360.860141,510.145277 352.075957,501.99155 L351.6316,501.5738 L287.7446,440.2298 C284.6626,437.2708 282.9186,433.2878 282.8316,429.0158 C282.7456,424.7428 284.3286,420.6918 287.2896,417.6078 C290.2476,414.5258 294.2306,412.7808 298.5026,412.6938 C298.6146,412.6918 298.7256,412.6908 298.8356,412.6908 C302.8492,412.6908 306.646009,414.164419 309.607269,416.86867 L309.9106,417.1528 L373.7436,478.4418 C377.9346,482.4318 382.7946,482.7608 385.3396,482.6028 C387.68867,482.445544 392.113707,481.580399 395.720409,477.595755 L395.9766,477.3058 L396.0946,477.1688 L494.7816,339.3218 C497.2686,335.8468 500.9586,333.5498 505.1746,332.8508 C509.3926,332.1528 513.6266,333.1378 517.1036,335.6258 Z M385.078975,512.628456 L384.3413,512.6345 L384.04516,512.633556 L384.3416,512.6348 C384.58535,512.6348 384.831287,512.632675 385.078975,512.628456 Z M381.372875,512.539295 L381.964414,512.573805 L382.556636,512.600154 C382.161207,512.584913 381.766593,512.564616 381.372875,512.539295 Z M387.926288,512.492176 L387.3433,512.5345 L386.5826,512.578269 L387.3436,512.5348 C387.538031,512.521846 387.732264,512.507636 387.926288,512.492176 Z M380.240394,512.452407 L380.783279,512.497849 L381.372875,512.539295 C380.994531,512.514963 380.617013,512.485991 380.240394,512.452407 Z M388.61956,512.429652 L388.28556,512.461652 L388.507425,512.44175 L388.61956,512.429652 Z M379.54656,512.384652 L379.607756,512.391844 L379.869585,512.418096 L380.12156,512.441652 L379.576409,512.388365 L379.54656,512.384652 Z M389.31356,512.358652 L388.61956,512.429652 L388.909022,512.403017 L389.31356,512.358652 Z M379.299038,512.358675 L379.54656,512.384652 L379.50356,512.379652 L379.299038,512.358675 Z M389.35556,512.353652 L389.31356,512.358652 L389.341059,512.356645 L389.35556,512.353652 Z M390.171891,512.256443 L389.35556,512.353652 L389.541313,512.334145 C389.751796,512.309714 389.961993,512.283811 390.171891,512.256443 Z M377.275172,512.090154 L377.856048,512.176914 L378.438027,512.255681 C378.049286,512.205439 377.661641,512.150252 377.275172,512.090154 Z M390.88256,512.156652 L390.243844,512.247003 L390.819327,512.166914 L390.88256,512.156652 Z M392.475222,511.895392 L391.648934,512.038649 L390.88256,512.156652 L390.990383,512.14209 C391.487192,512.068034 391.982202,511.985768 392.475222,511.895392 Z M394.745934,511.418662 L394.238371,511.535458 L393.673323,511.659004 C394.032038,511.583186 394.3896,511.503059 394.745934,511.418662 Z M395.922235,511.123394 L395.362919,511.267622 L394.801872,511.405376 C395.17672,511.316092 395.550204,511.222083 395.922235,511.123394 Z M397.033881,510.813332 L396.479017,510.97157 L395.922235,511.123394 C396.294265,511.024704 396.664844,510.921335 397.033881,510.813332 Z M397.586138,510.647579 L397.063963,510.804517 C397.40679,510.703928 397.748285,510.599339 398.088377,510.490787 L397.586138,510.647579 Z M369.910335,510.304705 C370.083927,510.362571 370.257896,510.419389 370.432235,510.475155 C370.073911,510.360333 369.717444,510.241376 369.362608,510.118016 L369.910335,510.304705 Z M368.76256,509.904652 L368.8121,509.922813 L369.218411,510.067611 L368.76256,509.904652 Z M367.724523,509.512889 L368.256635,509.717267 C367.951281,509.602091 367.647216,509.483612 367.344488,509.361849 L367.724523,509.512889 Z M401.914256,509.077968 L401.382708,509.297566 L400.85056,509.509652 L401.382735,509.297809 C401.560386,509.225639 401.737563,509.152357 401.914256,509.077968 Z M365.89056,508.745652 L366.114192,508.845862 L366.647784,509.074824 L365.89056,508.745652 Z M365.64656,508.636652 L365.773523,508.695115 L365.89056,508.745652 L365.64656,508.636652 Z M365.08256,508.377652 L365.42081,508.5358 L365.64656,508.636652 L365.08256,508.377652 Z M364.81956,508.254652 L364.907343,508.296911 L365.08256,508.377652 L364.81956,508.254652 Z M403.49056,508.377652 L403.543407,508.35432 L403.81856,508.222652 L403.49056,508.377652 Z M364.049511,507.880319 L364.73256,508.213956 L364.81956,508.254652 L364.049511,507.880319 Z M404.68356,507.799652 L404.06356,508.106652 L404.527003,507.879651 L404.68356,507.799652 Z M404.84356,507.719652 L405.014019,507.633883 L405.47256,507.394652 L404.84356,507.719652 Z M361.740093,506.643274 L361.954837,506.765814 L362.02256,506.803652 L361.740093,506.643274 Z M360.35856,505.817652 L360.450276,505.874655 L360.688315,506.020934 L360.92456,506.164652 L360.490788,505.899593 L360.35856,505.817652 Z M358.39756,504.525652 L358.495232,504.59382 C358.655629,504.70493 358.81667,504.814951 358.978345,504.92388 L359.19456,505.068652 L358.603224,504.668303 L358.39756,504.525652 Z M358.16756,504.363652 L358.308725,504.46384 L358.39756,504.525652 L358.16756,504.363652 Z M418.22256,497.435652 L418.306274,497.342891 L418.54056,497.075652 L418.22256,497.435652 Z M384.90156,484.622652 L384.496122,484.631292 L384.704512,484.628286 L384.806266,484.626152 L384.90156,484.622652 Z M383.606337,484.61524 L383.836851,484.623718 C383.988942,484.628191 384.137433,484.630674 384.282075,484.631428 L384.062553,484.628641 C383.914124,484.626123 383.761969,484.621742 383.606337,484.61524 Z M385.101781,484.617261 L384.90156,484.622652 L384.90646,484.62349 L385.101781,484.617261 Z M385.4733,484.5985 C385.407284,484.601841 385.349735,484.605068 385.291189,484.608053 L385.101781,484.617261 C385.230045,484.612132 385.353967,484.605792 385.4733,484.5985 Z M386.017014,484.553213 L385.841637,484.569068 L385.653944,484.585412 C385.770957,484.576298 385.892063,484.565635 386.017014,484.553213 Z M382.50456,484.535652 L382.632504,484.548801 L382.86049,484.568912 L382.50456,484.535652 Z M382.48456,484.533652 L382.494075,484.534972 L382.50756,484.535652 L382.48456,484.533652 Z M382.11841,484.492433 L382.377467,484.522721 L382.48456,484.533652 L382.11841,484.492433 Z M386.36256,484.514652 L386.352004,484.516337 L386.18456,484.533652 L386.36256,484.514652 Z M386.45956,484.501652 L386.36256,484.514652 L386.387244,484.511729 L386.45956,484.501652 Z M387.08856,484.411652 L386.734012,484.466268 L386.45956,484.501652 L386.660253,484.477098 C386.765025,484.462799 386.871786,484.447251 386.980436,484.430371 L387.08856,484.411652 Z M381.316514,484.374927 L381.587355,484.418784 L381.773268,484.446357 C381.622813,484.424799 381.470511,484.401042 381.316514,484.374927 Z M387.311949,484.375652 L387.08856,484.411652 L387.095665,484.411425 L387.311949,484.375652 Z M388.03856,484.231652 C387.875832,484.267945 387.715256,484.300493 387.557883,484.330255 L387.324055,484.373532 C387.529534,484.337481 387.740965,484.29669 387.957666,484.25059 L388.03856,484.231652 Z M388.74656,484.062652 L388.665524,484.084314 L388.54756,484.112652 L388.665428,484.084982 L388.74656,484.062652 Z M389.052897,483.981349 L388.74656,484.062652 L388.793747,484.05105 L389.052897,483.981349 Z M389.581676,483.824652 L389.315682,483.905071 L389.052897,483.981349 C389.226913,483.932704 389.403269,483.880552 389.581676,483.824652 Z M390.122761,483.645468 L389.850788,483.737331 L389.581676,483.824652 C389.760083,483.768752 389.940541,483.709104 390.122761,483.645468 Z M390.67442,483.442355 L390.397337,483.546388 L390.122761,483.645468 C390.304981,483.581832 390.488964,483.514208 390.67442,483.442355 Z M391.37056,483.153652 L391.063547,483.286164 L391.234834,483.213313 L391.37056,483.153652 Z M391.48456,483.102652 L391.37656,483.150652 L391.43166,483.128177 L391.48456,483.102652 Z M391.802542,482.958574 L391.48456,483.102652 L391.517848,483.089125 L391.802542,482.958574 Z M392.45356,482.632652 L392.375409,482.674545 L392.088478,482.820419 L392.316155,482.705661 L392.45356,482.632652 Z M392.96256,482.354652 L392.952055,482.361344 L392.87856,482.401652 L392.9437,482.366595 L392.96256,482.354652 Z M374.223761,481.432722 L374.057867,481.312006 C374.197073,481.41469 374.336565,481.514224 374.47628,481.610807 L374.72156,481.776652 L374.38991,481.550601 L374.223761,481.432722 Z M394.97356,481.009652 L394.90856,481.059652 L394.931762,481.043634 L394.97356,481.009652 Z M372.81356,480.302652 L372.829081,480.316885 L372.85856,480.342652 L372.81356,480.302652 Z M372.57056,480.081652 L372.616019,480.124668 L372.74256,480.238652 L372.57056,480.081652 Z M372.3646,479.8898 L372.537087,480.05194 L372.57056,480.081652 L372.3646,479.8898 Z M285.52756,433.084652 C285.56547,433.197867 285.60387,433.30973 285.643684,433.421043 L285.52756,433.084652 Z M285.24156,432.088652 L285.265319,432.181405 L285.28356,432.252652 L285.24156,432.088652 Z M285.135861,431.629765 C285.16206,431.753163 285.189905,431.876074 285.219384,431.998472 L285.24156,432.088652 L285.219898,431.998193 L285.135861,431.629765 Z M285.03456,431.101652 L285.062211,431.258135 L285.101254,431.45854 L285.03456,431.101652 Z M284.965192,430.653741 L285.010158,430.956532 L285.02156,431.027652 L284.965192,430.653741 Z M284.89356,430.045652 L284.901207,430.127283 L284.91456,430.246652 L284.906694,430.173798 L284.90156,430.126652 L284.89356,430.045652 Z M284.83246,429.015872 C284.835099,429.131386 284.839125,429.246654 284.84453,429.361657 L284.868442,429.745238 L284.845227,429.361357 L284.83246,429.015872 Z M284.837339,428.204896 L284.829039,428.589726 L284.8323,428.9755 C284.827059,428.717638 284.828766,428.460699 284.837339,428.204896 Z M284.885335,427.421168 L284.883231,427.441411 L284.857822,427.781985 L284.885335,427.421168 Z M285.10656,425.893652 L285.097537,425.939433 L285.054964,426.163761 L285.10656,425.893652 Z M285.13356,425.764652 L285.112338,425.865964 L285.10656,425.893652 L285.13356,425.764652 Z M308.31056,418.394652 L308.5263,418.5955 L308.372404,418.449793 L308.31056,418.394652 Z M308.18356,418.277652 L308.31056,418.394652 L308.242366,418.330054 L308.18356,418.277652 Z M308.00156,418.116652 L308.18356,418.277652 L308.088902,418.192355 L308.00156,418.116652 Z M307.88556,418.017652 L308.00156,418.116652 L307.952322,418.073333 L307.88556,418.017652 Z M307.72356,417.881652 L307.88556,418.017652 L307.799539,417.943467 L307.72356,417.881652 Z M307.504482,417.703195 L307.72356,417.881652 L307.656343,417.825408 L307.504482,417.703195 Z M307.01056,417.329652 L307.3549,417.586334 L307.047269,417.356224 L307.01056,417.329652 Z M306.83956,417.209652 L307.01056,417.329652 L306.95117,417.286624 L306.83956,417.209652 Z M306.61956,417.057652 L306.83956,417.209652 L306.715744,417.122228 L306.61956,417.057652 Z M306.46356,416.954652 L306.61956,417.057652 L306.538238,417.002426 L306.46356,416.954652 Z M306.20756,416.792652 L306.46356,416.954652 L306.378303,416.89837 L306.20756,416.792652 Z M306.07556,416.710652 L306.20756,416.792652 L306.116495,416.733896 L306.07556,416.710652 Z M305.68756,416.481652 L306.07556,416.710652 L306.035111,416.684681 L305.68756,416.481652 Z M303.919305,415.643381 L304.058425,415.69875 L304.128198,415.726883 C304.058793,415.698484 303.98916,415.670649 303.919305,415.643381 Z M303.22756,415.394652 L303.515309,415.492881 L303.347396,415.434614 L303.22756,415.394652 Z M303.04156,415.334652 L303.22756,415.394652 L303.12069,415.359469 L303.04156,415.334652 Z M302.72156,415.237652 L303.04156,415.334652 L303.00761,415.323733 L302.72156,415.237652 Z M302.32256,415.128652 L302.72156,415.237652 L302.664886,415.22159 L302.32256,415.128652 Z M296.652497,414.857697 L296.632339,414.861065 L296.60356,414.865652 L296.652497,414.857697 Z M300.636149,414.805769 L300.757462,414.821727 L300.917158,414.844801 C300.823701,414.830853 300.730027,414.817841 300.636149,414.805769 Z M520.374123,354.776374 L520.22456,355.070652 L520.243499,355.036941 C520.288023,354.950396 520.331564,354.863536 520.374123,354.776374 Z M520.86156,343.637652 L520.930919,343.821038 L520.890692,343.712138 L520.86156,343.637652 Z M520.0459,341.871353 L520.19556,342.152652 L520.160776,342.084658 C520.123111,342.013248 520.084824,341.942152 520.0459,341.871353 Z M496.60156,340.222652 L496.566406,340.270161 L496.4086,340.4858 L496.60156,340.222652 Z M496.71256,340.076652 L496.637339,340.175003 L496.60156,340.222652 L496.71256,340.076652 Z M496.80356,339.958652 L496.771282,340.001442 L496.72556,340.059652 L496.80356,339.958652 Z M496.94656,339.780652 L496.873458,339.871639 L496.80356,339.958652 L496.94656,339.780652 Z M518.465079,339.575571 L518.60156,339.738953 L518.63456,339.780652 L518.587856,339.722329 C518.547288,339.673152 518.506369,339.624241 518.465079,339.575571 Z M497.389442,339.263241 L497.367247,339.287573 L497.35456,339.301652 L497.371896,339.282786 L497.389442,339.263241 Z M499.07456,337.671652 L499.010459,337.723247 L498.833262,337.869078 L499.07456,337.671652 Z M516.38756,337.585652 L516.480517,337.658936 L516.56056,337.722652 L516.469741,337.650479 L516.38756,337.585652 Z M515.62156,337.030652 L515.798206,337.151861 L515.633444,337.038588 L515.62156,337.030652 Z M514.035546,336.102256 L514.30056,336.239652 L514.263302,336.218938 C514.187675,336.179319 514.111754,336.140424 514.035546,336.102256 Z M512.64556,335.498652 L512.935606,335.609792 L513.28487,335.753676 C513.077625,335.664813 512.868558,335.581129 512.657831,335.502658 L512.64556,335.498652 Z M502.605261,335.626352 L502.566556,335.641286 L502.294749,335.753739 L502.605261,335.626352 Z M512.34256,335.389652 L512.64556,335.498652 L512.639166,335.495981 L512.34256,335.389652 Z M503.33256,335.360652 L503.2766,335.379542 L502.94656,335.495652 L503.27641,335.380131 L503.33256,335.360652 Z M504.372143,335.058627 L504.003238,335.155559 L503.637697,335.263405 C503.879906,335.188754 504.124787,335.120454 504.372143,335.058627 Z M505.5013,334.8245 L505.432379,334.835442 C505.201487,334.874852 504.97241,334.919758 504.745296,334.970068 L504.372143,335.058627 C504.743178,334.965885 505.119783,334.887707 505.5013,334.8245 Z M509.99856,334.804652 L510.411918,334.875881 L510.041477,334.810967 L509.99856,334.804652 Z M509.91856,334.791652 L509.99856,334.804652 L509.967319,334.798914 L509.91856,334.791652 Z M509.53356,334.737652 L509.91856,334.791652 L509.78131,334.771341 L509.53356,334.737652 Z M506.34056,334.710652 L506.264708,334.718352 L505.882864,334.766445 L506.34056,334.710652 Z M506.52456,334.693652 L506.391556,334.705338 L506.34156,334.710652 L506.52456,334.693652 Z M508.92456,334.676652 L509.296013,334.710699 L508.986532,334.681199 L508.92456,334.676652 Z M506.87056,334.664652 L506.77311,334.671253 L506.52456,334.693652 L506.87056,334.664652 Z M508.676095,334.658608 L508.92456,334.676652 L508.920428,334.676054 L508.676095,334.658608 Z M506.97656,334.658652 L506.899811,334.662774 L506.87056,334.664652 L506.97656,334.658652 Z M507.38856,334.639652 L507.280774,334.642607 L506.97656,334.658652 L507.38856,334.639652 Z M507.787298,334.63232 L508.165901,334.636867 L508.544068,334.651113 C508.29254,334.638033 508.040208,334.631751 507.787298,334.63232 Z M507.787298,334.63232 L507.407228,334.638658 L507.38856,334.639652 L507.787298,334.63232 Z M331.7095,313.1422 C337.2335,313.1422 341.7095,317.6192 341.7095,323.1422 C341.7095,328.57159 337.383943,332.990137 331.989461,333.138358 L331.7095,333.1422 L203.5565,333.1422 C198.0365,333.1422 193.5565,328.6652 193.5565,323.1422 C193.5565,317.71281 197.885923,313.294263 203.276735,313.146042 L203.5565,313.1422 L331.7095,313.1422 Z M131.5106,313.1422 L157.5096,313.1422 C163.0326,313.1422 167.5096,317.6192 167.5096,323.1422 C167.5096,328.57159 163.183077,332.990137 157.789512,333.138358 L157.5096,333.1422 L131.5106,333.1422 C125.9876,333.1422 121.5106,328.6652 121.5106,323.1422 C121.5106,317.71281 125.840023,313.294263 131.230835,313.146042 L131.5106,313.1422 L157.5096,313.1422 Z M331.7095,258.4 C337.2335,258.4 341.7095,262.877 341.7095,268.4 C341.7095,273.82939 337.383943,278.247937 331.989461,278.396158 L331.7095,278.4 L203.5565,278.4 C198.0365,278.4 193.5565,273.923 193.5565,268.4 C193.5565,262.97061 197.885923,258.552063 203.276735,258.403842 L203.5565,258.4 L331.7095,258.4 Z M157.5096,258.4 C163.0326,258.4 167.5096,262.877 167.5096,268.4 C167.5096,273.82939 163.183077,278.247937 157.789512,278.396158 L157.5096,278.4 L131.5106,278.4 C125.9876,278.4 121.5106,273.923 121.5106,268.4 C121.5106,262.97061 125.840023,258.552063 131.230835,258.403842 L131.5106,258.4 L157.5096,258.4 Z M331.7095,203.6583 C337.2335,203.6583 341.7095,208.1353 341.7095,213.6583 C341.7095,219.08769 337.383943,223.506237 331.989461,223.654458 L331.7095,223.6583 L203.5565,223.6583 C198.0365,223.6583 193.5565,219.1813 193.5565,213.6583 C193.5565,208.22891 197.885923,203.810363 203.276735,203.662142 L203.5565,203.6583 L331.7095,203.6583 Z M157.5096,203.6583 C163.0326,203.6583 167.5096,208.1353 167.5096,213.6583 C167.5096,219.08769 163.183077,223.506237 157.789512,223.654458 L157.5096,223.6583 L131.5106,223.6583 C125.9876,223.6583 121.5106,219.1813 121.5106,213.6583 C121.5106,208.22891 125.840023,203.810363 131.230835,203.662142 L131.5106,203.6583 L157.5096,203.6583 Z M319.4247,83.0587 L319.7987,127.2717 C319.8447,132.7837 324.3667,137.2337 329.8827,137.188053 L329.8827,137.188053 L374.0957,136.8137 L319.4247,83.0587 Z M363.458956,507.580313 L363.22156,507.455652 L363.490406,507.596711 L363.88156,507.795652 L363.458956,507.580313 Z M404.69156,507.795652 L404.783099,507.751469 L404.84356,507.719652 L404.69156,507.795652 Z M406.22356,506.989652 L406.056248,507.08307 C406.392725,506.89961 406.726911,506.711906 407.058719,506.520005 L406.559336,506.804559 L406.22356,506.989652 Z M362.30256,506.959652 L362.02456,506.804652 L362.100692,506.84794 L362.30256,506.959652 Z M419.7236,495.6648 L419.76756,495.607652 L419.7233,495.6655 L419.64056,495.766652 L419.7236,495.6648 Z M419.76756,495.607652 L419.7236,495.6648 C419.7776,495.597133 419.832267,495.527133 419.887267,495.45543 L419.76756,495.607652 Z M420.01756,495.281652 L420.052933,495.235837 L420.13556,495.122652 L420.052633,495.235574 L420.01756,495.281652 Z M420.15756,495.092652 L420.2186,495.0098 L519.1746,356.7868 C519.240659,356.694476 519.305432,356.601616 519.368924,356.508239 L519.1743,356.7865 L420.2183,495.0095 L420.15756,495.092652 Z" id="Combined-Shape" fill="#A0A0A0"></path>
    </g>
</svg>