<?xml version="1.0" encoding="UTF-8"?>
<svg width="575px" height="571px" viewBox="0 0 575 571" version="1.1" xmlns="http://www.w3.org/2000/svg" xmlns:xlink="http://www.w3.org/1999/xlink">
    <!-- Generator: Sketch 57.1 (83088) - https://sketch.com -->
    <title>icon-pme</title>
    <desc>Created with Sketch.</desc>
    <g id="icon-pme" stroke="none" stroke-width="1" fill="none" fill-rule="evenodd">
        <path d="M451.9992,115.7812 C477.70851,115.7812 498.672176,136.487773 499.088878,162.098629 L499.0952,162.8762 L499.0952,175.6622 C499.0952,185.8232 495.8502,195.2352 490.3562,202.9382 C520.00967,205.15283 543.525754,229.744123 543.99311,259.843431 L544.0002,260.7572 L544.0002,330.6482 C544.0002,355.64768 526.26333,376.574845 502.715536,381.528006 L502.0002,381.6732 L502.0002,401.0002 C502.0002,406.5232 497.5222,411.0002 492.0002,411.0002 C486.571793,411.0002 482.152297,406.673677 482.004043,401.280112 L482.0002,401.0002 L482.0002,360.7012 L422.0002,360.7012 L422.0002,522.0002 L442.0002,522.0002 L442.0002,401.0002 C442.0002,395.4772 446.4782,391.0002 452.0002,391.0002 C457.428607,391.0002 461.848103,395.326723 461.996357,400.720288 L462.0002,401.0002 L462.0002,522.0002 L482.0002,522.0002 L482.0002,481.0002 C482.0002,475.4772 486.4782,471.0002 492.0002,471.0002 C497.428607,471.0002 501.848103,475.326723 501.996357,480.720288 L502.0002,481.0002 L502.0002,532.0002 C502.0002,537.42959 497.67271,541.848137 492.280063,541.996358 L492.0002,542.0002 L412.0002,542.0002 C406.571793,542.0002 402.152297,537.673677 402.004043,532.280112 L402.0002,532.0002 L402.0002,381.6732 C388.9222,379.1142 377.5882,371.6402 370.0002,361.2572 C362.532644,371.476375 351.437066,378.876228 338.621636,381.547637 L338.0002,381.6732 L338.0002,532.0002 C338.0002,537.42959 333.67271,541.848137 328.280063,541.996358 L328.0002,542.0002 L248.0002,542.0002 C242.571793,542.0002 238.152297,537.673677 238.004043,532.280112 L238.0002,532.0002 L238.0002,381.6732 C224.9222,379.1142 213.5882,371.6402 206.0002,361.2572 C198.532644,371.476375 187.437066,378.876228 174.621636,381.547637 L174.0002,381.6732 L174.0002,532.0002 C174.0002,537.42959 169.67271,541.848137 164.280063,541.996358 L164.0002,542.0002 L84.0002,542.0002 C78.5717932,542.0002 74.1522965,537.673677 74.0040425,532.280112 L74.0002,532.0002 L74.0002,381.6732 C50.33623,377.04297 32.3627206,356.320478 32.0056168,331.404501 L32.0002,330.6482 L32.0002,260.7572 C32.0002,230.2432 55.6912,205.1752 85.6382,202.9382 C80.2596375,195.395679 77.0354253,186.214625 76.9034175,176.296279 L76.8992,175.6622 L76.8992,162.8762 C76.8992,136.9082 98.0262,115.7812 123.9952,115.7812 C149.70451,115.7812 170.668176,136.487773 171.084878,162.098629 L171.0912,162.8762 L171.0912,175.6622 C171.0912,185.8232 167.8462,195.2352 162.3522,202.9382 C180.4832,204.2932 196.3212,214.0032 205.9962,228.2382 C215.6712,214.0032 231.5092,204.2922 249.6402,202.9382 C244.261637,195.395679 241.037425,186.214625 240.905418,176.296279 L240.9012,175.6622 L240.9012,162.8762 C240.9012,136.9082 262.0282,115.7812 287.9972,115.7812 C313.70651,115.7812 334.670176,136.487773 335.086878,162.098629 L335.0932,162.8762 L335.0932,175.6622 C335.0932,185.8232 331.8482,195.2352 326.3542,202.9382 C344.4852,204.2932 360.3232,214.0032 369.9982,228.2382 C379.6732,214.0032 395.5112,204.2922 413.6422,202.9382 C408.263637,195.395679 405.039425,186.214625 404.907418,176.296279 L404.9032,175.6622 L404.9032,162.8762 C404.9032,136.9082 426.0302,115.7812 451.9992,115.7812 Z M318.0002,360.7012 L258.0002,360.7012 L258.0002,522.0002 L278.0002,522.0002 L278.0002,401.0002 C278.0002,395.4772 282.4782,391.0002 288.0002,391.0002 C293.428607,391.0002 297.848103,395.326723 297.996357,400.720288 L298.0002,401.0002 L298.0002,522.0002 L318.0002,522.0002 L318.0002,360.7012 Z M154.0002,360.7012 L94.0002,360.7012 L94.0002,522.0002 L114.0002,522.0002 L114.0002,401.0002 C114.0002,395.4772 118.4782,391.0002 124.0002,391.0002 C129.428607,391.0002 133.848103,395.326723 133.996357,400.720288 L134.0002,401.0002 L134.0002,522.0002 L154.0002,522.0002 L154.0002,360.7012 Z M492,431.35 C494.64,431.35 497.21,432.42 499.069,434.28 C500.93,436.14 502,438.72 502,441.35 C502,443.98 500.929,446.56 499.069,448.42 C497.21,450.28 494.63,451.35 492,451.35 C489.37,451.35 486.791,450.28 484.93,448.42 C483.069,446.56 482,443.99 482,441.35 C482,438.72 483.07,436.14 484.93,434.28 C486.79,432.42 489.37,431.35 492,431.35 Z M486.0002,222.7572 L418.0002,222.7572 C397.25673,222.7572 380.341531,239.464965 380.005301,260.129795 L380.0002,260.7572 L380.0002,330.6482 C380.0002,344.653773 389.047723,356.578386 401.602572,360.905099 L402.0002,361.0392 L402.0002,265.0002 C402.0002,259.4772 406.4782,255.0002 412.0002,255.0002 C417.428607,255.0002 421.848103,259.326723 421.996357,264.720288 L422.0002,265.0002 L422.0002,340.7012 L482.0002,340.7012 L482.0002,265.0002 C482.0002,259.4772 486.4782,255.0002 492.0002,255.0002 C497.428607,255.0002 501.848103,259.326723 501.996357,264.720288 L502.0002,265.0002 L502.0002,361.0392 C514.628273,356.873054 523.807339,345.050935 523.997199,331.089783 L524.0002,330.6482 L524.0002,260.7572 C524.0002,239.8042 506.9532,222.7572 486.0002,222.7572 Z M322.0002,222.7572 L254.0002,222.7572 C233.25673,222.7572 216.341531,239.464965 216.005301,260.129795 L216.0002,260.7572 L216.0002,330.6482 C216.0002,344.653773 225.047723,356.578386 237.602572,360.905099 L238.0002,361.0392 L238.0002,265.0002 C238.0002,259.4772 242.4782,255.0002 248.0002,255.0002 C253.428607,255.0002 257.848103,259.326723 257.996357,264.720288 L258.0002,265.0002 L258.0002,340.7012 L318.0002,340.7012 L318.0002,265.0002 C318.0002,259.4772 322.4782,255.0002 328.0002,255.0002 C333.428607,255.0002 337.848103,259.326723 337.996357,264.720288 L338.0002,265.0002 L338.0002,361.0392 C350.628273,356.873054 359.807339,345.050935 359.997199,331.089783 L360.0002,330.6482 L360.0002,260.7572 C360.0002,239.8042 342.9532,222.7572 322.0002,222.7572 Z M158.0002,222.7572 L90.0002,222.7572 C69.25673,222.7572 52.3415306,239.464965 52.005301,260.129795 L52.0002,260.7572 L52.0002,330.6482 C52.0002,344.653773 61.0477233,356.578386 73.6025717,360.905099 L74.0002,361.0392 L74.0002,301.0002 C74.0002,295.4772 78.4782,291.0002 84.0002,291.0002 C89.4286068,291.0002 93.8481035,295.326723 93.9963575,300.720288 L94.0002,301.0002 L94.0002,340.7012 L154.0002,340.7012 L154.0002,265.0002 C154.0002,259.4772 158.4782,255.0002 164.0002,255.0002 C169.428607,255.0002 173.848103,259.326723 173.996357,264.720288 L174.0002,265.0002 L174.0002,361.0392 C186.628273,356.873054 195.807339,345.050935 195.997199,331.089783 L196.0002,330.6482 L196.0002,260.7572 C196.0002,239.8042 178.9532,222.7572 158.0002,222.7572 Z M84,255 C86.63,255 89.21,256.07 91.069,257.93 C92.93,259.79 94,262.37 94,265 C94,267.63 92.93,270.21 91.069,272.07 C89.21,273.93 86.63,275 84,275 C81.37,275 78.791,273.93 76.93,272.07 C75.069,270.21 74,267.63 74,265 C74,262.37 75.07,259.79 76.93,257.93 C78.79,256.07 81.37,255 84,255 Z M452.0002,135.7812 C437.20861,135.7812 425.147579,147.694316 424.907837,162.428845 L424.9042,162.8762 L424.9042,175.6622 C424.9042,190.6022 437.0592,202.7572 452.0002,202.7572 C466.79179,202.7572 478.852821,190.844085 479.092563,176.109555 L479.0962,175.6622 L479.0962,162.8762 C479.0962,147.9362 466.9412,135.7812 452.0002,135.7812 Z M288.0002,135.7812 C273.20861,135.7812 261.147579,147.694316 260.907837,162.428845 L260.9042,162.8762 L260.9042,175.6622 C260.9042,190.6022 273.0592,202.7572 288.0002,202.7572 C302.79179,202.7572 314.852821,190.844085 315.092563,176.109555 L315.0962,175.6622 L315.0962,162.8762 C315.0962,147.9362 302.9412,135.7812 288.0002,135.7812 Z M124.0002,135.7812 C109.20861,135.7812 97.1475786,147.694316 96.9078371,162.428845 L96.9042,162.8762 L96.9042,175.6622 C96.9042,190.6022 109.0592,202.7572 124.0002,202.7572 C138.79179,202.7572 150.852821,190.844085 151.092563,176.109555 L151.0962,175.6622 L151.0962,162.8762 C151.0962,147.9362 138.9412,135.7812 124.0002,135.7812 Z M205.9999,30.0001 C231.70921,30.0001 252.672876,50.7066727 253.089578,76.3175286 L253.0959,77.0951 L253.0959,89.8821 C253.0959,115.8501 231.9689,136.9771 205.9999,136.9771 C180.29059,136.9771 159.326924,116.270527 158.910222,90.6596714 L158.9039,89.8821 L158.9039,77.0951 C158.9039,51.1271 180.0309,30.0001 205.9999,30.0001 Z M369.9999,30.0001 C395.70921,30.0001 416.672876,50.7066727 417.089578,76.3175286 L417.0959,77.0951 L417.0959,89.8821 C417.0959,115.8501 395.9689,136.9771 369.9999,136.9771 C344.29059,136.9771 323.326924,116.270527 322.910222,90.6596714 L322.9039,89.8821 L322.9039,77.0951 C322.9039,51.1271 344.0309,30.0001 369.9999,30.0001 Z M205.9999,50.0001 C191.2093,50.0001 179.147298,61.9132155 178.907537,76.6477449 L178.9039,77.0951 L178.9039,89.8821 C178.9039,104.8221 191.0589,116.9771 205.9999,116.9771 C220.79149,116.9771 232.852521,105.063984 233.092263,90.3294551 L233.0959,89.8821 L233.0959,77.0951 C233.0959,62.1551 220.9399,50.0001 205.9999,50.0001 Z M369.9999,50.0001 C355.2093,50.0001 343.147298,61.9132155 342.907537,76.6477449 L342.9039,77.0951 L342.9039,89.8821 C342.9039,104.8221 355.0589,116.9771 369.9999,116.9771 C384.79149,116.9771 396.852521,105.063984 397.092263,90.3294551 L397.0959,89.8821 L397.0959,77.0951 C397.0959,62.1551 384.9399,50.0001 369.9999,50.0001 Z" id="Combined-Shape" fill="#A0A0A0"></path>
    </g>
</svg>