<?xml version="1.0" encoding="UTF-8"?>
<svg width="435px" height="431px" viewBox="0 0 435 431" version="1.1" xmlns="http://www.w3.org/2000/svg" xmlns:xlink="http://www.w3.org/1999/xlink">
    <!-- Generator: Sketch 57.1 (83088) - https://sketch.com -->
    <title>icon-linkedin</title>
    <desc>Created with Sketch.</desc>
    <g id="icon-linkedin" stroke="none" stroke-width="1" fill="none" fill-rule="evenodd">
        <path d="M232.8808,193.9903 C232.9918,193.8083 233.1478,193.5893 233.3008,193.3763 L233.3008,193.9903 L232.8808,193.9903 Z M366.6568,360.0383 L301.6918,360.0383 L301.6918,256.1373 C301.6918,230.0313 292.2778,212.2173 268.7838,212.2173 C250.8108,212.2173 240.1418,224.2353 235.4568,235.8383 C233.7208,239.9823 233.2908,245.7783 233.2908,251.5663 L233.2908,360.0343 L168.3368,360.0343 C168.3368,360.0343 169.1868,184.0553 168.3368,165.8423 L233.3008,165.8423 L233.3008,193.3733 C241.9248,180.1443 257.3358,161.2733 291.8348,161.2733 C334.5948,161.2733 366.6568,189.0123 366.6568,248.6873 L366.6568,360.0383 Z M99.9108,139.3153 L99.4738,139.3153 C77.6808,139.3153 63.5538,124.4113 63.5538,105.7523 C63.5538,86.7173 78.0958,72.2173 100.3208,72.2173 C122.5478,72.2173 136.2198,86.7133 136.6518,105.7523 C136.6518,124.4153 122.5528,139.3153 99.9108,139.3153 L99.9108,139.3153 Z M67.4108,360.0383 L132.3978,360.0383 L132.3978,165.8453 L67.4108,165.8453 L67.4108,360.0383 Z M400.3538,0.0003 L33.7798,0.0003 C16.2268,0.0003 1.9998,13.7933 1.9998,30.8173 L1.9998,399.2883 C1.9998,416.3123 16.2318,430.1183 33.7798,430.1183 L400.3538,430.1183 C417.9018,430.1183 432.1128,416.3033 432.1128,399.2883 L432.1128,30.8173 C432.1128,13.7983 417.9018,0.0003 400.3538,0.0003 L400.3538,0.0003 Z" id="Fill-1" fill="#313131"></path>
    </g>
</svg>