<?xml version="1.0" encoding="UTF-8"?>
<svg width="164px" height="149px" viewBox="0 0 164 149" version="1.1" xmlns="http://www.w3.org/2000/svg" xmlns:xlink="http://www.w3.org/1999/xlink">
    <!-- Generator: Sketch 57.1 (83088) - https://sketch.com -->
    <title>infographie-3</title>
    <desc>Created with Sketch.</desc>
    <defs>
        <polygon id="path-1" points="0 125 145 125 145 0.6 0 0.6"></polygon>
    </defs>
    <g id="infographie-3" stroke="none" stroke-width="1" fill="none" fill-rule="evenodd">
        <g id="Group-53" transform="translate(10.000000, 12.000000)">
            <path d="M31.6999,94.3002 L29.2999,100.0002 L34.0999,100.0002 L31.6999,94.3002 Z M36.3999,105.1992 L34.5999,101.1002 L28.8999,101.1002 L27.0999,105.1992 L25.7999,105.1992 L31.0999,92.9002 L32.4999,92.9002 L37.7999,105.1992 L36.3999,105.1992 Z" id="Fill-1" fill="#21375D"></path>
            <polygon id="Fill-2" fill="#21375D" points="47.6999 105.1996 40.3999 94.3996 40.3999 105.1996 39.1999 105.1996 39.1999 92.8996 40.8999 92.8996 47.7999 103.0996 47.7999 92.8996 48.9999 92.8996 48.9999 105.1996"></polygon>
            <polygon id="Fill-3" fill="#21375D" points="51.5 105.2 52.7 105.2 52.7 92.9 51.5 92.9"></polygon>
            <polygon id="Fill-4" fill="#21375D" points="66.8 105.1996 66.8 94.1996 62.2 105.1996 61.2 105.1996 56.6 94.1996 56.6 105.1996 55.4 105.1996 55.4 92.8996 57.3 92.8996 61.8 103.3996 66.3 92.8996 68.2 92.8996 68.2 105.1996"></polygon>
            <path d="M75.3996,94.3002 L73.0006,100.0002 L77.7996,100.0002 L75.3996,94.3002 Z M80.0996,105.1992 L78.2996,101.1002 L72.5996,101.1002 L70.7996,105.1992 L69.5006,105.1992 L74.7996,92.9002 L76.2006,92.9002 L81.5006,105.1992 L80.0996,105.1992 Z" id="Fill-5" fill="#21375D"></path>
            <polygon id="Fill-6" fill="#21375D" points="85.8 94.0004 85.8 105.1994 84.6 105.1994 84.6 94.0004 81.8 94.0004 81.8 92.8994 88.7 92.8994 88.7 94.0004"></polygon>
            <polygon id="Fill-7" fill="#21375D" points="90 105.2 91.2 105.2 91.2 92.9 90 92.9"></polygon>
            <g id="Group-52" transform="translate(0.000000, 0.400000)">
                <path d="M99.7004,93.4002 C96.8004,93.4002 94.3994,95.7992 94.3994,98.7002 C94.3994,101.5002 96.8004,103.9002 99.7004,103.9002 C102.5994,103.9002 105.0004,101.6002 105.0004,98.7002 C105.0004,95.7992 102.5994,93.4002 99.7004,93.4002 M99.7004,105.0002 C96.3004,105.0002 93.2004,102.2002 93.2004,98.7002 C93.2004,95.1002 96.0994,92.2992 99.7004,92.2992 C103.2004,92.2992 106.2004,95.1002 106.2004,98.7002 C106.2004,102.2992 103.2004,105.0002 99.7004,105.0002" id="Fill-8" fill="#21375D"></path>
                <polygon id="Fill-10" fill="#21375D" points="116.7004 104.7996 109.3994 93.9996 109.3994 104.7996 108.2004 104.7996 108.2004 92.4996 109.8994 92.4996 116.8004 102.6996 116.8004 92.4996 118.0004 92.4996 118.0004 104.7996"></polygon>
                <path d="M5.4001,113.9002 C4.7001,113.6002 4.1001,113.6002 3.3001,113.6002 L1.2001,113.6002 L1.2001,118.7002 L3.3001,118.7002 C4.1001,118.7002 4.7001,118.7002 5.4001,118.4002 C6.3001,118.0002 6.8001,117.2002 6.8001,116.2002 C6.8001,115.2002 6.4001,114.2992 5.4001,113.9002 M6.6001,119.1002 C5.7001,119.7002 4.5001,119.7992 3.4001,119.7992 L1.2001,119.7992 L1.2001,124.7992 L0.0001,124.7992 L0.0001,112.5002 L3.4001,112.5002 C4.5001,112.5002 5.6001,112.6002 6.6001,113.2002 C7.6001,113.9002 8.1001,115.0002 8.1001,116.2002 C8.1001,117.2992 7.6001,118.4002 6.6001,119.1002" id="Fill-12" fill="#21375D"></path>
                <path d="M14.4001,120.2 L17.9001,124.8 L16.4001,124.8 L12.2001,119.2 C13.0001,119.2 14.1001,119.2 14.8001,119 C16.0001,118.6 16.8001,117.7 16.8001,116.4 C16.8001,115.5 16.3001,114.5 15.5001,114 C14.7001,113.6 14.0001,113.5 13.1001,113.5 L11.0001,113.5 L11.0001,124.7 L9.8001,124.7 L9.8001,112.4 L12.9001,112.4 C13.8001,112.4 15.1001,112.4 15.9001,112.9 C17.3001,113.6 18.1001,114.9 18.1001,116.4 C18.1001,118.5 16.5001,120 14.4001,120.2" id="Fill-14" fill="#21375D"></path>
                <path d="M25.9001,113.2996 C23.0001,113.2996 20.6001,115.6996 20.6001,118.6006 C20.6001,121.4006 23.0001,123.7996 25.9001,123.7996 C28.8001,123.7996 31.2001,121.4996 31.2001,118.6006 C31.2001,115.6996 28.8001,113.2996 25.9001,113.2996 M25.9001,124.9996 C22.5001,124.9996 19.4001,122.1996 19.4001,118.6996 C19.4001,115.1006 22.3001,112.2996 25.9001,112.2996 C29.4001,112.2996 32.4001,115.1006 32.4001,118.6996 C32.4001,122.2996 29.4001,124.9996 25.9001,124.9996" id="Fill-16" fill="#21375D"></path>
                <polygon id="Fill-18" fill="#21375D" points="45.9001 124.7996 45.9001 113.7996 41.3001 124.7996 40.3001 124.7996 35.7001 113.7996 35.7001 124.7996 34.5001 124.7996 34.5001 112.4996 36.4001 112.4996 40.9001 122.9996 45.4001 112.4996 47.3001 112.4996 47.3001 124.7996"></polygon>
                <path d="M55.6999,113.2996 C52.7999,113.2996 50.3999,115.6996 50.3999,118.6006 C50.3999,121.4006 52.7999,123.7996 55.6999,123.7996 C58.5999,123.7996 60.9999,121.4996 60.9999,118.6006 C60.9999,115.6996 58.5999,113.2996 55.6999,113.2996 M55.6999,124.9996 C52.2999,124.9996 49.1999,122.1996 49.1999,118.6996 C49.1999,115.1006 52.0999,112.2996 55.6999,112.2996 C59.1999,112.2996 62.1999,115.1006 62.1999,118.6996 C62.1999,122.2996 59.1999,124.9996 55.6999,124.9996" id="Fill-20" fill="#21375D"></path>
                <polygon id="Fill-22" fill="#21375D" points="67.0998 113.6004 67.0998 124.7994 65.7998 124.7994 65.7998 113.6004 62.9998 113.6004 62.9998 112.4994 69.8998 112.4994 69.8998 113.6004"></polygon>
                <mask id="mask-2" fill="white">
                    <use xlink:href="#path-1"></use>
                </mask>
                <g id="Clip-25"></g>
                <polygon id="Fill-24" fill="#21375D" mask="url(#mask-2)" points="71.3 124.8 72.5 124.8 72.5 112.5 71.3 112.5"></polygon>
                <path d="M81.0002,113.2996 C78.1002,113.2996 75.7002,115.6996 75.7002,118.6006 C75.7002,121.4006 78.1002,123.7996 81.0002,123.7996 C83.8992,123.7996 86.3002,121.4996 86.3002,118.6006 C86.3002,115.6996 83.8992,113.2996 81.0002,113.2996 M81.0002,124.9996 C77.6002,124.9996 74.5002,122.1996 74.5002,118.6996 C74.5002,115.1006 77.3992,112.2996 81.0002,112.2996 C84.5002,112.2996 87.5002,115.1006 87.5002,118.6996 C87.5002,122.2996 84.5002,124.9996 81.0002,124.9996" id="Fill-26" fill="#21375D" mask="url(#mask-2)"></path>
                <polygon id="Fill-27" fill="#21375D" mask="url(#mask-2)" points="98.0998 124.7996 90.7998 113.9996 90.7998 124.7996 89.5998 124.7996 89.5998 112.4996 91.2998 112.4996 98.2008 122.6996 98.2008 112.4996 99.3998 112.4996 99.3998 124.7996"></polygon>
                <polygon id="Fill-28" fill="#21375D" mask="url(#mask-2)" points="110.3996 124.7996 103.0996 113.9996 103.0996 124.7996 101.7996 124.7996 101.7996 112.4996 103.5006 112.4996 110.3996 122.6996 110.3996 112.4996 111.5996 112.4996 111.5996 124.7996"></polygon>
                <polygon id="Fill-29" fill="#21375D" mask="url(#mask-2)" points="114.0002 124.7996 114.0002 112.4996 120.7002 112.4996 120.7002 113.6006 115.2002 113.6006 115.2002 117.9996 120.5002 117.9996 120.5002 119.1006 115.2002 119.1006 115.2002 123.6006 120.7002 123.6006 120.7002 124.6996 114.0002 124.6996"></polygon>
                <polygon id="Fill-30" fill="#21375D" mask="url(#mask-2)" points="123.2004 124.7996 123.2004 112.4996 124.3994 112.4996 124.3994 123.6996 129.5004 123.6996 129.5004 124.7996"></polygon>
                <polygon id="Fill-31" fill="#21375D" mask="url(#mask-2)" points="130.8996 124.7996 130.8996 112.4996 132.0996 112.4996 132.0996 123.6996 137.2006 123.6996 137.2006 124.7996"></polygon>
                <polygon id="Fill-32" fill="#21375D" mask="url(#mask-2)" points="138.3 124.7996 138.3 112.4996 145 112.4996 145 113.6006 139.5 113.6006 139.5 117.9996 144.8 117.9996 144.8 119.1006 139.5 119.1006 139.5 123.6006 145 123.6006 145 124.6996 138.3 124.6996"></polygon>
                <path d="M64.4001,13.0999 L68.2001,18.1999 C68.4001,18.4999 68.5001,18.7999 68.5001,19.1999 L68.2001,25.4999 L74.2001,23.4999 C74.5001,23.3999 74.9001,23.3999 75.2001,23.4999 L81.2001,25.6999 L81.1001,19.3999 C81.1001,19.0999 81.2001,18.6999 81.4001,18.3999 L85.3001,13.3999 L79.2001,11.4999 C78.9001,11.3999 78.6001,11.1999 78.4001,10.8999 L74.9001,5.5999 L71.2001,10.7999 C71.0001,11.0999 70.7001,11.2999 70.4001,11.3999 L64.4001,13.0999 Z M82.7001,29.3999 C82.5001,29.3999 82.4001,29.3999 82.2001,29.2999 L74.7001,26.4999 L67.1001,29.0999 C66.6001,29.2999 66.1001,29.1999 65.7001,28.8999 C65.3001,28.5999 65.1001,28.0999 65.1001,27.5999 L65.4001,19.5999 L60.6001,13.1999 C60.3001,12.7999 60.2001,12.2999 60.4001,11.7999 C60.6001,11.2999 60.9001,10.9999 61.4001,10.7999 L69.1001,8.5999 L73.7001,2.0999 C74.0001,1.6999 74.5001,1.4999 75.0001,1.4999 C75.5001,1.4999 76.0001,1.7999 76.2001,2.1999 L80.6001,8.8999 L88.3001,11.2999 C88.8001,11.3999 89.1001,11.7999 89.3001,12.2999 C89.4001,12.7999 89.4001,13.2999 89.0001,13.6999 L84.0001,19.9999 L84.1001,27.9999 C84.1001,28.4999 83.9001,28.9999 83.5001,29.2999 C83.3001,29.2999 83.0001,29.3999 82.7001,29.3999 L82.7001,29.3999 Z" id="Fill-33" fill="#E20A17" mask="url(#mask-2)"></path>
                <path d="M100.5002,11.4002 C100.7002,11.4002 100.8002,11.4002 101.0002,11.5002 L102.6002,12.1002 L102.6002,10.4002 C102.6002,10.1002 102.7002,9.7002 102.8992,9.4002 L104.0002,8.1002 L102.3992,7.6002 C102.1002,7.5002 101.8002,7.3002 101.6002,7.0002 L100.7002,5.6002 L99.7002,7.0002 C99.5002,7.3002 99.2002,7.5002 98.8992,7.6002 L97.2002,8.1002 L98.2002,9.5002 C98.3992,9.8002 98.5002,10.1002 98.5002,10.5002 L98.3992,12.2002 L100.0002,11.6002 C100.2002,11.5002 100.3002,11.4002 100.5002,11.4002 M96.8002,15.7002 C96.5002,15.7002 96.2002,15.6002 95.8992,15.4002 C95.5002,15.1002 95.3002,14.6002 95.3002,14.1002 L95.3992,10.7002 L93.3992,8.0002 C93.1002,7.6002 93.0002,7.1002 93.2002,6.6002 C93.3992,6.1002 93.7002,5.8002 94.2002,5.6002 L97.3992,4.7002 L99.3002,1.9002 C99.6002,1.5002 100.1002,1.3002 100.6002,1.3002 C101.1002,1.3002 101.6002,1.6002 101.8002,2.0002 L103.7002,4.8002 L106.8992,5.8002 C107.3992,5.9002 107.7002,6.3002 107.8992,6.8002 C108.0002,7.3002 108.0002,7.8002 107.6002,8.2002 L105.5002,10.8002 L105.5002,14.2002 C105.5002,14.7002 105.3002,15.2002 104.8992,15.4002 C104.5002,15.7002 104.0002,15.8002 103.5002,15.6002 L100.3002,14.4002 L97.1002,15.5002 C97.1002,15.7002 96.8992,15.7002 96.8002,15.7002" id="Fill-34" fill="#E20A17" mask="url(#mask-2)"></path>
                <path d="M49.3,10.7 C49.5,10.7 49.6,10.7 49.8,10.8 L51.4,11.4 L51.4,9.7 C51.6,9.4 51.7,9.1 51.7,8.7 L52.8,7.4 L51.2,6.9 C51,6.6 50.7,6.4 50.4,6.3 L49.5,4.9 L48.5,6.3 C48.2,6.4 47.9,6.6 47.7,6.9 L46,7.4 L47,8.8 C47,9.1 47.1,9.5 47.3,9.8 L47.2,11.5 L48.8,10.9 C48.9,10.7 49.1,10.7 49.3,10.7 M52.9,15.1 C52.7,15.1 52.6,15.1 52.4,15 L49.2,13.8 L46,14.9 C45.5,15.1 45,15 44.6,14.7 C44.2,14.4 44,13.9 44,13.4 L44.1,10 L42.1,7.3 C41.8,6.9 41.7,6.4 41.9,5.9 C42.1,5.4 42.4,5.1 42.9,4.9 L46.1,4 L48,1.2 C48.3,0.8 48.8,0.6 49.3,0.6 C49.8,0.6 50.3,0.9 50.5,1.3 L52.4,4.1 L55.6,5.1 C56.1,5.2 56.4,5.6 56.6,6.1 C56.7,6.6 56.7,7.1 56.3,7.5 L54.2,10.1 L54.2,13.5 C54.2,14 54,14.5 53.6,14.8 C53.5,15 53.2,15.1 52.9,15.1" id="Fill-35" fill="#9D9D9C" mask="url(#mask-2)"></path>
                <path d="M74.2004,63.2996 L73.8994,63.2996 C73.8004,63.2996 73.7004,63.1996 73.5994,63.1996 C73.5004,63.1996 73.3994,63.1006 73.3004,63.1006 C73.2004,62.9996 73.0994,62.9996 73.0994,62.9006 C73.0994,62.7996 73.0004,62.7996 72.8994,62.6996 C72.8004,62.6006 72.8004,62.4996 72.8004,62.4006 C72.8004,62.2996 72.7004,62.1996 72.7004,62.1006 L72.7004,61.7996 L72.7004,61.4996 C72.7004,61.4006 72.8004,61.2996 72.8004,61.1996 C72.8004,61.1006 72.8994,60.9996 72.8994,60.9006 C73.0004,60.7996 73.0004,60.6996 73.0994,60.6996 C73.2004,60.6996 73.2004,60.6006 73.3004,60.4996 C73.3994,60.4006 73.5004,60.4006 73.5994,60.4006 C73.7004,60.4006 73.8004,60.2996 73.8994,60.2996 L74.5004,60.2996 C74.5994,60.2996 74.7004,60.4006 74.8004,60.4006 C74.8994,60.4006 75.0004,60.4996 75.0994,60.4996 C75.2004,60.6006 75.3004,60.6006 75.3004,60.6996 L75.5004,60.9006 C75.5994,60.9996 75.5994,61.1006 75.5994,61.1996 C75.5994,61.2996 75.7004,61.4006 75.7004,61.4996 L75.7004,61.7996 L75.7004,62.1006 C75.7004,62.1996 75.5994,62.2996 75.5994,62.4006 C75.5994,62.4996 75.5004,62.6006 75.5004,62.6996 C75.3994,62.7996 75.3994,62.9006 75.3004,62.9006 C75.2004,62.9006 75.2004,62.9996 75.0994,63.1006 C75.0004,63.1996 74.8994,63.1996 74.8004,63.1996 C74.7004,63.1996 74.5994,63.2996 74.5004,63.2996 L74.2004,63.2996 Z" id="Fill-36" fill="#9D9D9C" mask="url(#mask-2)"></path>
                <path d="M74.2004,58.2996 C73.3994,58.2996 72.7004,57.6006 72.7004,56.7996 L73.0004,31.9996 C73.0004,31.1996 73.7004,30.4996 74.5004,30.4996 C75.3004,30.4996 76.0004,31.1996 76.0004,31.9996 L75.7004,56.7996 C75.7004,57.6996 75.0994,58.2996 74.2004,58.2996" id="Fill-37" fill="#9D9D9C" mask="url(#mask-2)"></path>
                <path d="M93.5998,37.9998 L97.7998,39.9998 C98.0998,40.1998 98.3998,40.3998 98.4998,40.6998 L100.3998,44.8998 L103.5998,41.5998 C103.7998,41.3998 104.2008,41.1998 104.4998,41.1998 L109.0998,40.6998 L106.8998,36.5998 C106.7008,36.2998 106.7008,35.8998 106.7998,35.5998 L107.7008,31.0998 L103.0998,31.8998 C102.7998,31.9998 102.3998,31.8998 102.0998,31.6998 L98.0998,29.3998 L97.3998,33.9998 C97.3998,34.2998 97.2008,34.6998 96.8998,34.8998 L93.5998,37.9998 Z M99.8998,49.0998 L99.7008,49.0998 C99.2008,48.9998 98.7998,48.6998 98.5998,48.1998 L95.9998,42.4998 L90.2998,39.6998 C89.8998,39.4998 89.4998,39.0998 89.4998,38.5998 C89.3998,38.0998 89.5998,37.5998 89.9998,37.2998 L94.5998,32.9998 L95.4998,26.7998 C95.5998,26.2998 95.8998,25.8998 96.2998,25.6998 C96.7008,25.4998 97.2998,25.4998 97.7008,25.6998 L103.2008,28.7998 L109.3998,27.6998 C109.8998,27.5998 110.3998,27.7998 110.7008,28.0998 C110.9998,28.4998 111.2008,28.9998 111.0998,29.3998 L109.8998,35.5998 L112.7998,41.1998 C112.9998,41.5998 112.9998,42.1998 112.7998,42.5998 C112.5998,42.9998 112.0998,43.2998 111.5998,43.3998 L105.2998,44.0998 L100.8998,48.5998 C100.7008,48.8998 100.2998,49.0998 99.8998,49.0998 L99.8998,49.0998 Z" id="Fill-38" fill="#9D9D9C" mask="url(#mask-2)"></path>
                <path d="M76.7004,73.7996 L76.5004,73.7996 C75.7004,73.6996 75.0994,72.9996 75.2004,72.1006 C76.3004,62.6006 81.0004,55.4006 84.8004,50.9996 C88.8004,46.2996 92.5994,43.7996 92.8004,43.6996 C93.5004,43.1996 94.3994,43.4006 94.8994,44.0996 C95.3994,44.7996 95.2004,45.6996 94.5004,46.1996 C94.3994,46.2996 90.8994,48.4996 87.2004,52.9006 C83.7004,56.9006 79.3994,63.6006 78.3994,72.4006 C78.0994,73.2996 77.3994,73.7996 76.7004,73.7996" id="Fill-39" fill="#9D9D9C" mask="url(#mask-2)"></path>
                <path d="M39.8,39.7 L44.4,40.4 C44.7,40.4 45.1,40.6 45.3,40.9 L48.4,44.3 L50.4,40.1 C50.6,39.8 50.8,39.5 51.1,39.4 L55.3,37.5 L52,34.3 C51.8,34.1 51.6,33.7 51.6,33.4 L51.1,28.8 L47,31 C46.7,31.2 46.3,31.2 46,31.1 L41.5,30.2 L42.3,34.8 C42.4,35.1 42.3,35.5 42.1,35.8 L39.8,39.7 Z M48.8,48.4 C48.4,48.4 48,48.2 47.7,47.9 L43.4,43.3 L37.2,42.4 C36.7,42.3 36.3,42 36.1,41.6 C35.9,41.2 35.9,40.6 36.1,40.2 L39.2,34.7 L38.1,28.5 C38,28 38.2,27.5 38.5,27.2 C38.9,26.9 39.4,26.7 39.8,26.8 L46,28 L51.6,25.1 C52,24.9 52.6,24.9 53,25.1 C53.4,25.3 53.7,25.8 53.8,26.3 L54.5,32.6 L59,37 C59.4,37.3 59.5,37.8 59.4,38.3 C59.3,38.8 59,39.2 58.5,39.4 L52.8,42 L50,47.7 C49.8,48.1 49.4,48.5 48.9,48.5 C49,48.4 48.9,48.4 48.8,48.4 L48.8,48.4 Z" id="Fill-40" fill="#9D9D9C" mask="url(#mask-2)"></path>
                <path d="M71.3996,73.7 C70.5996,73.7 70.0006,73.1 69.8996,72.3 C69.0996,63.5 64.8996,56.7 61.5996,52.6 C58.0006,48.1 54.5996,45.8 54.3996,45.7 C53.6996,45.2 53.5006,44.3 54.0006,43.6 C54.5006,42.9 55.3996,42.7 56.0996,43.2 C56.2996,43.3 60.0006,45.9 63.8996,50.7 C67.5006,55.2 72.0006,62.5 72.8996,72 C73.0006,72.8 72.3996,73.6 71.5006,73.6 C71.5006,73.7 71.3996,73.8 71.3996,73.7" id="Fill-41" fill="#E20A17" mask="url(#mask-2)"></path>
                <path d="M85.8,73.7 C85.6,73.7 85.4,73.7 85.2,73.6 C84.4,73.2 84.1,72.3 84.5,71.6 C86.9,66.6 90.7,63.6 93.6,61.9 C96.6,60.1 99,59.5 99.3,59.4 C100.1,59.2 100.9,59.7 101.1,60.5 C101.3,61.3 100.8,62.1 100,62.3 C100,62.3 97.8,62.9 95.1,64.5 C92.6,66 89.3,68.6 87.2,72.9 C87,73.4 86.4,73.7 85.8,73.7" id="Fill-42" fill="#9D9D9C" mask="url(#mask-2)"></path>
                <path d="M63.5998,73.4002 C62.9998,73.4002 62.4998,73.1002 62.1998,72.5002 C60.2998,68.2002 56.9998,65.4002 54.5998,63.9002 C51.9998,62.2002 49.7998,61.6002 49.7998,61.6002 C48.9998,61.4002 48.4998,60.5002 48.7998,59.7002 C48.9998,58.9002 49.8998,58.4002 50.6998,58.7002 C50.9998,58.7992 53.3998,59.5002 56.2998,61.2992 C59.0998,63.0002 62.8998,66.2002 65.0998,71.2002 C65.3998,72.0002 65.0998,72.7992 64.2998,73.2002 C64.0998,73.2992 63.7998,73.4002 63.5998,73.4002" id="Fill-43" fill="#9D9D9C" mask="url(#mask-2)"></path>
                <path d="M105.8996,54.7996 C105.0996,54.7996 104.3996,54.0996 104.3996,53.2996 L104.3996,51.9996 C104.3996,51.1996 105.0996,50.4996 105.8996,50.4996 C106.7006,50.4996 107.3996,51.1996 107.3996,51.9996 L107.3996,53.2996 C107.3996,54.1996 106.7006,54.7996 105.8996,54.7996" id="Fill-44" fill="#E20A17" mask="url(#mask-2)"></path>
                <path d="M105.8,61.6004 C105,61.6004 104.3,60.9004 104.3,60.1004 L104.3,58.7994 C104.3,57.9994 105,57.2994 105.8,57.2994 C106.6,57.2994 107.3,57.9994 107.3,58.7994 L107.3,60.1004 C107.3,60.9994 106.6,61.6004 105.8,61.6004" id="Fill-45" fill="#E20A17" mask="url(#mask-2)"></path>
                <path d="M109.8,57.7 L108.5,57.7 C107.7,57.7 107,57 107,56.2 C107,55.4 107.7,54.7 108.5,54.7 L109.8,54.7 C110.6,54.7 111.3,55.4 111.3,56.2 C111.4,57 110.7,57.7 109.8,57.7" id="Fill-46" fill="#E20A17" mask="url(#mask-2)"></path>
                <path d="M103.0998,57.6004 L101.7998,57.6004 C100.9998,57.6004 100.2998,56.9004 100.2998,56.1004 C100.2998,55.2994 100.9998,54.6004 101.7998,54.6004 L103.0998,54.6004 C103.8998,54.6004 104.5998,55.2994 104.5998,56.1004 C104.5998,56.9004 103.8998,57.6004 103.0998,57.6004" id="Fill-47" fill="#E20A17" mask="url(#mask-2)"></path>
                <path d="M42.6999,53.9998 C41.8999,53.9998 41.1999,53.2998 41.1999,52.4998 L41.1999,51.1998 C41.1999,50.3998 41.8999,49.6998 42.6999,49.6998 C43.4999,49.6998 44.1999,50.3998 44.1999,51.1998 L44.1999,52.4998 C44.1999,53.2998 43.4999,53.9998 42.6999,53.9998" id="Fill-48" fill="#9D9D9C" mask="url(#mask-2)"></path>
                <path d="M42.5998,60.7996 C41.7998,60.7996 41.0998,60.1006 41.0998,59.2996 L41.0998,57.9996 C41.0998,57.1996 41.7998,56.4996 42.5998,56.4996 C43.3998,56.4996 44.0998,57.1996 44.0998,57.9996 L44.0998,59.2996 C44.0998,60.1006 43.3998,60.7996 42.5998,60.7996" id="Fill-49" fill="#9D9D9C" mask="url(#mask-2)"></path>
                <path d="M46.6999,56.7996 L45.3999,56.7996 C44.5999,56.7996 43.8999,56.1006 43.8999,55.2996 C43.8999,54.4996 44.5999,53.7996 45.3999,53.7996 L46.6999,53.7996 C47.4999,53.7996 48.1999,54.4996 48.1999,55.2996 C48.1999,56.1006 47.4999,56.7996 46.6999,56.7996" id="Fill-50" fill="#9D9D9C" mask="url(#mask-2)"></path>
                <path d="M39.9001,56.7 L38.6001,56.7 C37.8001,56.7 37.1001,56 37.1001,55.2 C37.1001,54.4 37.8001,53.7 38.6001,53.7 L39.9001,53.7 C40.7001,53.7 41.4001,54.4 41.4001,55.2 C41.4001,56 40.7001,56.7 39.9001,56.7" id="Fill-51" fill="#9D9D9C" mask="url(#mask-2)"></path>
            </g>
        </g>
    </g>
</svg>