<?xml version="1.0" encoding="UTF-8"?>
<svg width="448px" height="418px" viewBox="0 0 448 418" version="1.1" xmlns="http://www.w3.org/2000/svg" xmlns:xlink="http://www.w3.org/1999/xlink">
    <!-- Generator: Sketch 57.1 (83088) - https://sketch.com -->
    <title>infographie-1</title>
    <desc>Created with Sketch.</desc>
    <defs>
        <polygon id="path-1" points="0 418.7 447.9 418.7 447.9 -5.68434189e-14 0 -5.68434189e-14"></polygon>
    </defs>
    <g id="infographie-1" stroke="none" stroke-width="1" fill="none" fill-rule="evenodd">
        <g id="Group-141">
            <path d="M208.0999,416.9001 L15.4999,416.9001 C7.4999,416.9001 0.9999,410.4001 0.9999,402.4001 L0.9999,350.4001 C0.9999,342.4001 7.4999,335.9001 15.4999,335.9001 L208.0999,335.9001" id="Stroke-1" stroke="#C6C6C6" stroke-width="2" stroke-linecap="round" stroke-linejoin="round" stroke-dasharray="0.2,7"></path>
            <path d="M283.9002,12.9001 C276.5002,12.9001 270.6002,18.6001 270.6002,26.0001 C270.6002,33.1001 276.7992,38.9001 283.7992,38.9001 C290.9002,38.9001 296.7992,33.2001 296.7992,26.0001 C296.7002,18.9001 291.1002,12.9001 283.9002,12.9001 M283.6002,46.2001 C274.5002,46.2001 266.4002,53.8001 266.4002,63.0001 C266.4002,73.1001 273.9002,80.6001 284.0002,80.6001 C293.5002,80.6001 301.1002,72.8001 301.1002,63.4001 C301.0002,53.7001 293.1002,46.2001 283.6002,46.2001 M283.7992,87.7001 C270.2992,87.7001 258.4002,77.1001 258.4002,63.3001 C258.4002,54.4001 263.6002,45.4001 272.0002,42.1001 C266.5002,38.6001 262.7002,32.9001 262.7002,26.3001 C262.7002,14.5001 272.0002,5.7001 283.7002,5.7001 C295.5002,5.7001 304.7002,14.8001 304.7002,26.6001 C304.7002,32.9001 300.7002,39.1001 295.2992,42.1001 C303.7002,46.1001 309.0002,54.0001 309.0002,63.3001 C308.9002,77.0001 297.2992,87.7001 283.7992,87.7001" id="Fill-3" fill="#9D9D9C"></path>
            <path d="M361.6004,36.0998 C361.6004,31.4998 360.6004,24.9998 358.2004,20.9998 C355.1004,16.0998 348.7994,12.8998 342.9994,12.8998 C337.2004,12.8998 330.9004,16.0998 327.7994,20.9998 C325.2994,24.9998 324.4004,31.4998 324.4004,36.0998 L324.4004,56.1998 C324.4004,60.9998 324.9004,67.9998 327.4004,71.9998 C330.7994,77.6998 336.4994,80.4998 342.9994,80.4998 C349.4994,80.4998 355.2004,77.6998 358.6004,71.9998 C361.1004,67.8998 361.6004,60.9998 361.6004,56.1998 L361.6004,36.0998 Z M365.6004,75.3998 C360.7994,83.4998 352.2994,87.6998 342.9994,87.6998 C333.7004,87.6998 325.2004,83.4998 320.4004,75.3998 C317.4004,70.1998 316.4004,63.2998 316.4004,57.3998 L316.4004,34.2998 C316.4004,29.3998 317.2004,24.0998 319.4004,19.6998 C323.9004,10.7998 333.1004,5.6998 342.9994,5.6998 C352.9004,5.6998 362.1004,10.7998 366.6004,19.6998 C368.7994,24.0998 369.6004,29.2998 369.6004,34.2998 L369.6004,57.3998 C369.6004,63.2998 368.6004,70.1998 365.6004,75.3998 L365.6004,75.3998 Z" id="Fill-5" fill="#9D9D9C"></path>
            <path d="M420.9998,36.0998 C420.9998,31.4998 419.9998,24.9998 417.6008,20.9998 C414.4998,16.0998 408.1998,12.8998 402.3998,12.8998 C396.6008,12.8998 390.2998,16.0998 387.1998,20.9998 C384.6998,24.9998 383.7998,31.4998 383.7998,36.0998 L383.7998,56.1998 C383.7998,60.9998 384.2998,67.9998 386.7998,71.9998 C390.1998,77.6998 395.8998,80.4998 402.3998,80.4998 C408.8998,80.4998 414.6008,77.6998 417.9998,71.9998 C420.4998,67.8998 420.9998,60.9998 420.9998,56.1998 L420.9998,36.0998 Z M424.8998,75.3998 C420.1008,83.4998 411.6008,87.6998 402.2998,87.6998 C392.9998,87.6998 384.4998,83.4998 379.6998,75.3998 C376.6998,70.1998 375.6998,63.2998 375.6998,57.3998 L375.6998,34.2998 C375.6998,29.3998 376.4998,24.0998 378.6998,19.6998 C383.1998,10.7998 392.3998,5.6998 402.2998,5.6998 C412.1998,5.6998 421.3998,10.7998 425.8998,19.6998 C428.1008,24.0998 428.8998,29.2998 428.8998,34.2998 L428.8998,57.3998 C428.8998,63.2998 427.8998,70.1998 424.8998,75.3998 L424.8998,75.3998 Z" id="Fill-7" fill="#9D9D9C"></path>
            <path d="M262.9002,110.0998 L266.0002,110.0998 C267.1002,110.0998 268.1002,109.8998 269.0002,109.5998 C269.7992,109.1998 270.6002,108.7998 271.1002,108.1998 C271.7002,107.5998 272.1002,106.9998 272.4002,106.1998 C272.7002,105.3998 272.7992,104.6998 272.7992,103.8998 C272.7992,103.0998 272.7002,102.3998 272.4002,101.5998 C272.1002,100.8998 271.7002,100.1998 271.1002,99.5998 C270.5002,98.9998 269.7992,98.5998 269.0002,98.1998 C268.1002,97.7998 267.2002,97.6998 266.0002,97.6998 L262.9002,97.6998 L262.9002,110.0998 Z M261.4002,96.2998 L266.4002,96.2998 C267.2992,96.2998 268.2992,96.4998 269.2002,96.7998 C270.1002,97.0998 271.0002,97.5998 271.7992,98.1998 C272.6002,98.7998 273.2002,99.5998 273.7002,100.5998 C274.2002,101.4998 274.4002,102.6998 274.4002,103.8998 C274.4002,105.1998 274.2002,106.2998 273.7002,107.1998 C273.2002,108.0998 272.6002,108.8998 271.7992,109.5998 C271.0002,110.1998 270.2002,110.6998 269.2002,110.9998 C268.2002,111.2998 267.2992,111.4998 266.4002,111.4998 L261.4002,111.4998 L261.4002,96.2998 Z" id="Fill-9" fill="#21375D"></path>
            <polygon id="Fill-11" fill="#21375D" points="279.1004 110.0998 287.2004 110.0998 287.2004 111.4998 277.4994 111.4998 277.4994 96.2998 286.9004 96.2998 286.9004 97.6998 278.9994 97.6998 278.9994 102.8998 286.2994 102.8998 286.2994 104.2998 278.9994 104.2998 278.9994 110.0998"></polygon>
            <path d="M302.9998,98.8 C302.6998,98.3 302.2998,98 301.6998,97.7 C301.1998,97.4 300.6008,97.3 299.7998,97.3 C299.3998,97.3 299.1008,97.4 298.6998,97.5 C298.2998,97.6 297.9998,97.8 297.6998,98 C297.3998,98.2 297.1008,98.5 296.8998,98.9 C296.6998,99.3 296.6008,99.7 296.6008,100.2 C296.6008,100.7 296.6998,101.1 296.8998,101.4 C297.1008,101.7 297.2998,102 297.6008,102.2 C297.8998,102.4 298.2998,102.6 298.6008,102.7 C298.8998,102.8 299.3998,103 299.7998,103.1 C300.2998,103.3 300.8998,103.5 301.3998,103.7 C301.8998,103.9 302.3998,104.2 302.7998,104.5 C303.1998,104.8 303.6008,105.2 303.7998,105.7 C304.1008,106.2 304.1998,106.8 304.1998,107.6 C304.1998,108.4 304.1008,109 303.7998,109.6 C303.4998,110.1 303.1008,110.6 302.6998,111 C302.1998,111.4 301.6998,111.6 301.1008,111.8 C300.4998,112 299.8998,112.1 299.2998,112.1 C298.7998,112.1 298.3998,112.1 297.8998,112 C297.3998,111.9 296.9998,111.8 296.6008,111.6 C296.1998,111.4 295.7998,111.2 295.3998,110.9 C294.9998,110.6 294.6998,110.3 294.4998,109.9 L295.7998,108.9 C296.1008,109.4 296.6008,109.9 297.1998,110.3 C297.7998,110.7 298.4998,110.8 299.2998,110.8 C299.6998,110.8 300.1008,110.7 300.4998,110.6 C300.8998,110.5 301.2998,110.3 301.6008,110 C301.8998,109.8 302.1998,109.4 302.3998,109.1 C302.6008,108.7 302.6998,108.3 302.6998,107.8 C302.6998,107.3 302.6008,106.8 302.3998,106.5 C302.1998,106.2 301.8998,105.9 301.6008,105.6 C301.2998,105.4 300.8998,105.2 300.3998,105 C299.8998,104.8 299.4998,104.7 298.9998,104.5 C298.4998,104.3 297.9998,104.2 297.4998,104 C296.9998,103.8 296.6008,103.5 296.1998,103.2 C295.7998,102.9 295.4998,102.5 295.2998,102 C295.1008,101.5 294.8998,101 294.8998,100.3 C294.8998,99.6 294.9998,98.9 295.2998,98.4 C295.6008,97.9 295.9998,97.4 296.3998,97.1 C296.8998,96.8 297.3998,96.5 297.9998,96.4 C298.6008,96.3 299.1008,96.2 299.6998,96.2 C300.6998,96.2 301.6008,96.4 302.2998,96.7 C302.9998,97.1 303.6008,97.5 303.8998,98 L302.9998,98.8 Z" id="Fill-13" fill="#21375D"></path>
            <polygon id="Fill-15" fill="#21375D" points="307.7 96.3 309.2 96.3 309.2 102.9 317.5 102.9 317.5 96.3 319 96.3 319 111.5 317.5 111.5 317.5 104.3 309.2 104.3 309.2 111.5 307.7 111.5"></polygon>
            <path d="M336.4002,103.9001 C336.4002,103.0001 336.2992,102.2001 336.0002,101.4001 C335.7002,100.6001 335.2992,99.9001 334.7992,99.3001 C334.2992,98.7001 333.6002,98.2001 332.7992,97.9001 C332.0002,97.6001 331.1002,97.4001 330.2002,97.4001 C329.2992,97.4001 328.4002,97.6001 327.6002,97.9001 C326.7992,98.2001 326.2002,98.7001 325.6002,99.3001 C325.1002,99.9001 324.6002,100.6001 324.4002,101.4001 C324.1002,102.2001 324.0002,103.0001 324.0002,103.9001 C324.0002,104.8001 324.1002,105.6001 324.4002,106.4001 C324.7002,107.2001 325.1002,107.9001 325.6002,108.5001 C326.1002,109.1001 326.7992,109.6001 327.6002,109.9001 C328.4002,110.2001 329.2992,110.4001 330.2002,110.4001 C331.1002,110.4001 332.0002,110.2001 332.7992,109.9001 C333.6002,109.6001 334.2002,109.1001 334.7992,108.5001 C335.2992,107.9001 335.7992,107.2001 336.0002,106.4001 C336.2992,105.6001 336.4002,104.8001 336.4002,103.9001 M338.1002,103.9001 C338.1002,105.1001 337.9002,106.1001 337.5002,107.1001 C337.1002,108.1001 336.5002,108.9001 335.7992,109.6001 C335.1002,110.3001 334.2992,110.9001 333.2992,111.3001 C332.2992,111.7001 331.2992,111.9001 330.2002,111.9001 C329.1002,111.9001 328.0002,111.7001 327.1002,111.3001 C326.2002,110.9001 325.2992,110.3001 324.6002,109.6001 C323.9002,108.9001 323.2992,108.1001 322.9002,107.1001 C322.5002,106.1001 322.2992,105.1001 322.2992,103.9001 C322.2992,102.7001 322.5002,101.7001 322.9002,100.7001 C323.2992,99.7001 323.9002,98.9001 324.6002,98.2001 C325.2992,97.5001 326.1002,96.9001 327.1002,96.5001 C328.1002,96.1001 329.1002,95.9001 330.2002,95.9001 C331.2992,95.9001 332.4002,96.1001 333.2992,96.5001 C334.2992,96.9001 335.1002,97.5001 335.7992,98.2001 C336.5002,98.9001 337.1002,99.7001 337.5002,100.7001 C337.9002,101.7001 338.1002,102.7001 338.1002,103.9001" id="Fill-17" fill="#21375D"></path>
            <polygon id="Fill-19" fill="#21375D" points="344.9002 109.4001 344.9002 109.4001 348.7002 96.4001 350.5002 96.4001 354.2992 109.4001 358.0002 96.4001 359.6002 96.4001 355.1002 111.6001 353.2992 111.6001 349.5002 98.6001 345.7002 111.6001 343.9002 111.6001 339.4002 96.4001 341.0002 96.4001"></polygon>
            <path d="M363.6004,103.0998 L366.2994,103.0998 C367.4994,103.0998 368.4994,102.8998 369.2004,102.3998 C369.9004,101.8998 370.2004,101.2998 370.2004,100.3998 C370.2004,99.8998 370.1004,99.4998 369.9004,99.0998 C369.7004,98.6998 369.4994,98.4998 369.1004,98.2998 C368.7004,98.0998 368.4004,97.8998 367.9004,97.7998 C367.4004,97.6998 366.9004,97.6998 366.2994,97.6998 L363.6004,97.6998 L363.6004,103.0998 Z M363.6004,111.4998 L362.1004,111.4998 L362.1004,96.2998 L366.6004,96.2998 C367.2994,96.2998 367.9994,96.3998 368.7004,96.4998 C369.2994,96.5998 369.9004,96.8998 370.2994,97.1998 C370.7994,97.4998 371.1004,97.8998 371.4004,98.4998 C371.7004,98.9998 371.7994,99.5998 371.7994,100.3998 C371.7994,100.9998 371.7004,101.4998 371.4994,101.8998 C371.2994,102.3998 370.9994,102.7998 370.7004,103.0998 C370.4004,103.3998 369.9004,103.6998 369.4994,103.8998 C368.9994,104.0998 368.4994,104.1998 367.9994,104.2998 L372.4004,111.4998 L370.4994,111.4998 L366.2994,104.3998 L363.7004,104.3998 L363.7004,111.4998 L363.6004,111.4998 Z" id="Fill-21" fill="#21375D"></path>
            <path d="M388.2996,103.9001 C388.2996,103.0001 388.1996,102.2001 387.9006,101.4001 C387.6006,100.6001 387.1996,99.9001 386.6996,99.3001 C386.1996,98.7001 385.4996,98.2001 384.6996,97.9001 C383.9006,97.6001 382.9996,97.4001 382.1006,97.4001 C381.1996,97.4001 380.2996,97.6001 379.4996,97.9001 C378.6996,98.2001 378.1006,98.7001 377.4996,99.3001 C376.9996,99.9001 376.4996,100.6001 376.2996,101.4001 C375.9996,102.2001 375.9006,103.0001 375.9006,103.9001 C375.9006,104.8001 375.9996,105.6001 376.2996,106.4001 C376.6006,107.2001 376.9996,107.9001 377.4996,108.5001 C377.9996,109.1001 378.6996,109.6001 379.4996,109.9001 C380.2996,110.2001 381.1996,110.4001 382.1006,110.4001 C382.9996,110.4001 383.9006,110.2001 384.6996,109.9001 C385.4996,109.6001 386.1006,109.1001 386.6996,108.5001 C387.1996,107.9001 387.6996,107.2001 387.9006,106.4001 C388.1996,105.6001 388.2996,104.8001 388.2996,103.9001 M389.9006,103.9001 C389.9006,105.1001 389.6996,106.1001 389.2996,107.1001 C388.9006,108.1001 388.2996,108.9001 387.6006,109.6001 C386.9006,110.3001 386.1006,110.9001 385.1006,111.3001 C384.1006,111.7001 383.1006,111.9001 381.9996,111.9001 C380.9006,111.9001 379.7996,111.7001 378.9006,111.3001 C377.9996,110.9001 377.1006,110.3001 376.4006,109.6001 C375.6996,108.9001 375.1006,108.1001 374.6996,107.1001 C374.2996,106.1001 374.1006,105.1001 374.1006,103.9001 C374.1006,102.7001 374.2996,101.7001 374.6996,100.7001 C375.1006,99.7001 375.6996,98.9001 376.4006,98.2001 C377.1006,97.5001 377.9006,96.9001 378.9006,96.5001 C379.9006,96.1001 380.9006,95.9001 381.9996,95.9001 C383.1006,95.9001 384.1996,96.1001 385.1006,96.5001 C386.1006,96.9001 386.9006,97.5001 387.6006,98.2001 C388.2996,98.9001 388.9006,99.7001 389.2996,100.7001 C389.6996,101.7001 389.9006,102.7001 389.9006,103.9001" id="Fill-23" fill="#21375D"></path>
            <path d="M406.4998,103.9001 C406.4998,103.0001 406.3998,102.2001 406.1008,101.4001 C405.7998,100.6001 405.3998,99.9001 404.8998,99.3001 C404.3998,98.7001 403.6998,98.2001 402.8998,97.9001 C402.1008,97.6001 401.1998,97.4001 400.2998,97.4001 C399.3998,97.4001 398.4998,97.6001 397.6998,97.9001 C396.8998,98.2001 396.2998,98.7001 395.6998,99.3001 C395.1998,99.9001 394.6998,100.6001 394.4998,101.4001 C394.1998,102.2001 394.1008,103.0001 394.1008,103.9001 C394.1008,104.8001 394.1998,105.6001 394.4998,106.4001 C394.7998,107.2001 395.1998,107.9001 395.6998,108.5001 C396.1998,109.1001 396.8998,109.6001 397.6998,109.9001 C398.4998,110.2001 399.3998,110.4001 400.2998,110.4001 C401.1998,110.4001 402.1008,110.2001 402.8998,109.9001 C403.6998,109.6001 404.2998,109.1001 404.8998,108.5001 C405.3998,107.9001 405.8998,107.2001 406.1008,106.4001 C406.3998,105.6001 406.4998,104.8001 406.4998,103.9001 M408.1008,103.9001 C408.1008,105.1001 407.8998,106.1001 407.4998,107.1001 C407.1008,108.1001 406.4998,108.9001 405.7998,109.6001 C405.1008,110.3001 404.2998,110.9001 403.2998,111.3001 C402.2998,111.7001 401.2998,111.9001 400.1998,111.9001 C399.1008,111.9001 397.9998,111.7001 397.1008,111.3001 C396.1998,110.9001 395.2998,110.3001 394.6008,109.6001 C393.8998,108.9001 393.2998,108.1001 392.8998,107.1001 C392.4998,106.1001 392.2998,105.1001 392.2998,103.9001 C392.2998,102.7001 392.4998,101.7001 392.8998,100.7001 C393.2998,99.7001 393.8998,98.9001 394.6008,98.2001 C395.2998,97.5001 396.1008,96.9001 397.1008,96.5001 C398.1008,96.1001 399.1008,95.9001 400.1998,95.9001 C401.2998,95.9001 402.3998,96.1001 403.2998,96.5001 C404.2998,96.9001 405.1008,97.5001 405.7998,98.2001 C406.4998,98.9001 407.1008,99.7001 407.4998,100.7001 C407.8998,101.7001 408.1008,102.7001 408.1008,103.9001" id="Fill-25" fill="#21375D"></path>
            <polygon id="Fill-27" fill="#21375D" points="418.7996 108.9001 418.7996 108.9001 423.9006 96.3001 426.2996 96.3001 426.2996 111.5001 424.6996 111.5001 424.6996 98.3001 419.1996 111.5001 418.4006 111.5001 412.9006 98.3001 412.9006 111.5001 411.4006 111.5001 411.4006 96.3001 413.7996 96.3001"></polygon>
            <path d="M408.9998,34.5002 L408.9998,33.2002 L412.6008,29.6002 C412.9998,29.2002 413.3998,28.7002 413.3998,28.0002 C413.3998,27.2002 412.8998,26.5002 412.1008,26.5002 C411.1998,26.5002 410.6998,27.2002 410.6998,28.0002 L410.6998,28.4002 L408.9998,28.4002 L408.9998,28.0002 C408.9998,26.3002 410.3998,28.9002 411.9998,28.9002 C413.6998,28.9002 415.1008,26.2002 415.1008,28.0002 C415.1008,29.1002 414.6008,29.8002 413.8998,30.5002 L411.6008,32.8002 L415.1998,32.8002 L415.1998,34.4002 L408.9998,34.4002 L408.9998,34.5002 Z M404.6008,43.3002 L404.6008,30.2002 L404.4998,30.2002 L399.2998,43.3002 L397.8998,43.3002 L392.6998,30.2002 L392.6998,43.3002 L390.3998,43.3002 L390.3998,27.8002 L393.9998,27.8002 L398.6998,39.7002 L403.3998,27.8002 L406.9998,27.8002 L406.9998,43.3002 L404.6008,43.3002 Z" id="Fill-29" fill="#9D9D9C"></path>
            <path d="M213.4998,1.0002 L213.4998,417.7002" id="Stroke-31" stroke="#C6C6C6" stroke-width="2" stroke-linecap="round" stroke-linejoin="round" stroke-dasharray="0.2,7"></path>
            <path d="M201.9998,165.4001 L2.5998,165.4001" id="Stroke-33" stroke="#C6C6C6" stroke-width="2" stroke-linecap="round" stroke-linejoin="round" stroke-dasharray="0.2,7"></path>
            <path d="M67.0999,14.0998 L66.7999,14.0998 L20.1999,73.7998 L67.0999,73.7998 L67.0999,14.0998 Z M71.0999,77.3998 L71.0999,103.8998 L67.0999,103.8998 L67.0999,77.3998 L15.4999,77.3998 L15.4999,73.8998 L65.5999,9.2998 L71.0999,9.2998 L71.0999,73.7998 L81.0999,73.7998 L81.0999,77.3998 L71.0999,77.3998 Z" id="Fill-35" fill="#E20A17"></path>
            <path d="M148.7,34.9001 C148.7,21.8001 140,11.2001 120.6,11.2001 C106.4,11.2001 93.3,16.9001 93.3,35.7001 L93.3,74.3001 C93.3,92.1001 106.9,102.0001 121,102.0001 C130.7,102.0001 148.7,95.7001 148.7,74.3001 L148.7,34.9001 Z M152.7,74.3001 C152.7,99.6001 129.9,105.6001 121.3,105.6001 C109.8,105.6001 89.3,98.4001 89.3,74.3001 L89.3,36.1001 C89.3,7.6001 113.4,7.6001 120.6,7.6001 C138,7.6001 152.7,16.0001 152.7,34.9001 L152.7,74.3001 Z" id="Fill-37" fill="#E20A17"></path>
            <polygon id="Fill-39" fill="#E20A17" points="21.9998 95.9001 21.9998 102.6001 19.8998 102.6001 19.8998 95.9001 13.2998 95.9001 13.2998 93.8001 19.8998 93.8001 19.8998 87.1001 21.9998 87.1001 21.9998 93.8001 28.6998 93.8001 28.6998 95.9001"></polygon>
            <path d="M42.2,92.1999 C41.2,89.8999 39.3,88.6999 36.8,88.6999 L34,88.6999 L34,100.3999 L36.8,100.3999 C40.4,100.3999 42.7,98.2999 42.7,94.5999 C42.7,93.7999 42.5,92.9999 42.2,92.1999 M43,100.2999 C41.2,101.9999 39.1,102.5999 36.7,102.5999 L31.6,102.5999 L31.6,86.5999 L36.8,86.5999 C39.4,86.5999 41.8,87.3999 43.3,89.4999 C44.3,90.9999 44.9,92.7999 44.9,94.5999 C45,96.4999 44.4,98.8999 43,100.2999" id="Fill-41" fill="#E20A17"></path>
            <polygon id="Fill-43" fill="#E20A17" points="47.4998 102.5998 47.4998 86.5998 56.0998 86.5998 56.0998 88.6998 49.7998 88.6998 49.7998 93.3998 56.0998 93.3998 56.0998 95.4998 49.7998 95.4998 49.7998 100.3998 56.0998 100.3998 56.0998 102.4998 47.4998 102.4998"></polygon>
            <mask id="mask-2" fill="white">
                <use xlink:href="#path-1"></use>
            </mask>
            <g id="Clip-46"></g>
            <polygon id="Fill-45" fill="#FFFFFF" mask="url(#mask-2)" points="121.6 72.5 190.7 72.5 190.7 39.5 121.6 39.5"></polygon>
            <path d="M137.4002,47.4001 L133.0002,57.7001 L141.7002,57.7001 L137.4002,47.4001 Z M145.8002,67.2001 L142.6002,59.7001 L132.2002,59.7001 L128.9002,67.2001 L126.6002,67.2001 L136.1002,44.9001 L138.6002,44.9001 L148.2002,67.2001 L145.8002,67.2001 Z" id="Fill-47" fill="#E20A17" mask="url(#mask-2)"></path>
            <polygon id="Fill-48" fill="#E20A17" mask="url(#mask-2)" points="166.4002 67.1999 153.1002 47.4999 153.0002 47.4999 153.0002 67.1999 150.8002 67.1999 150.8002 44.8999 153.8002 44.8999 166.3002 63.3999 166.4002 63.3999 166.4002 44.8999 168.6002 44.8999 168.6002 67.1999"></polygon>
            <path d="M178.4998,67.5998 C174.4998,67.5998 171.6998,64.9998 171.5998,60.9998 L173.7998,60.9998 C173.8998,63.6998 175.5998,65.5998 178.4998,65.5998 C180.9998,65.5998 182.9998,63.6998 182.9998,61.1998 C182.9998,58.1998 180.4998,57.1998 177.9998,56.3998 C174.7998,55.4998 172.1998,54.3998 172.1998,50.4998 C172.1998,46.9998 174.9998,44.4998 178.4998,44.4998 C181.9998,44.4998 184.6998,47.0998 184.6998,50.5998 L182.4998,50.5998 C182.4998,48.3998 180.6998,46.5998 178.4998,46.5998 C176.2998,46.5998 174.4998,48.1998 174.4998,50.4998 C174.4998,53.4998 177.4998,53.9998 179.7998,54.6998 C182.9998,55.6998 185.2998,57.6998 185.2998,61.1998 C185.1998,64.7998 182.1998,67.5998 178.4998,67.5998" id="Fill-49" fill="#E20A17" mask="url(#mask-2)"></path>
            <path d="M23.8001,116.5002 C22.1001,115.3002 20.0001,115.1002 18.0001,115.1002 L15.4001,115.1002 L15.4001,129.6002 L18.3001,129.6002 C20.4001,129.6002 22.3001,129.4002 24.0001,128.2002 C25.8001,126.9002 26.8001,124.6002 26.8001,122.4002 C26.8001,120.0002 25.7001,117.8002 23.8001,116.5002 M24.6001,129.8002 C23.0001,130.8002 20.7001,131.3002 18.8001,131.3002 L13.6001,131.3002 L13.6001,113.6002 L18.8001,113.6002 C20.7001,113.6002 23.0001,114.0002 24.6001,115.1002 C27.1001,116.7002 28.6001,119.6002 28.6001,122.6002 C28.6001,125.4002 27.1001,128.2002 24.6001,129.8002" id="Fill-50" fill="#21375D" mask="url(#mask-2)"></path>
            <polygon id="Fill-51" fill="#21375D" mask="url(#mask-2)" points="32.8001 120.5998 31.4001 120.5998 31.1001 113.4998 33.0001 113.4998"></polygon>
            <polygon id="Fill-52" fill="#21375D" mask="url(#mask-2)" points="36.0999 131.3 36.0999 113.6 45.7999 113.6 45.7999 115.2 37.8999 115.2 37.8999 121.6 45.5999 121.6 45.5999 123.2 37.8999 123.2 37.8999 129.7 45.7999 129.7 45.7999 131.3"></polygon>
            <polygon id="Fill-53" fill="#21375D" mask="url(#mask-2)" points="59.5999 131.3 54.5999 123.7 49.4999 131.3 47.3999 131.3 53.3999 122.2 47.6999 113.5 49.7999 113.5 54.4999 120.6 59.1999 113.5 61.2999 113.5 55.5999 122.2 61.6999 131.3"></polygon>
            <path d="M71.5999,115.5998 C70.5999,115.0998 69.6999,115.0998 68.5999,115.0998 L65.4999,115.0998 L65.4999,122.4998 L68.5999,122.4998 C69.6999,122.4998 70.5999,122.4998 71.5999,121.9998 C72.8999,121.3998 73.6999,120.1998 73.6999,118.7998 C73.5999,117.3998 72.8999,116.1998 71.5999,115.5998 M73.1999,123.0998 C71.8999,123.9998 70.1999,124.0998 68.5999,124.0998 L65.3999,124.0998 L65.3999,131.1998 L63.6999,131.1998 L63.6999,113.4998 L68.5999,113.4998 C70.1999,113.4998 71.7999,113.5998 73.1999,114.4998 C74.5999,115.4998 75.3999,116.9998 75.3999,118.7998 C75.3999,120.4998 74.5999,122.0998 73.1999,123.0998" id="Fill-54" fill="#21375D" mask="url(#mask-2)"></path>
            <polygon id="Fill-55" fill="#21375D" mask="url(#mask-2)" points="77.7 131.3 77.7 113.6 87.4 113.6 87.4 115.2 79.5 115.2 79.5 121.6 87.2 121.6 87.2 123.2 79.5 123.2 79.5 129.7 87.4 129.7 87.4 131.3"></polygon>
            <path d="M97.3001,124.5998 L102.3001,131.1998 L100.1001,131.1998 L94.1001,123.1998 C95.2001,123.1998 96.8001,123.2998 97.9001,122.8998 C99.6001,122.3998 100.8001,120.9998 100.8001,119.0998 C100.8001,117.7998 100.1001,116.2998 98.9001,115.6998 C97.8001,115.0998 96.7001,114.9998 95.5001,114.9998 L92.4001,114.9998 L92.4001,131.0998 L90.6001,131.0998 L90.6001,113.3998 L95.1001,113.3998 C96.4001,113.3998 98.2001,113.4998 99.5001,114.0998 C101.5001,115.0998 102.7001,116.9998 102.7001,119.1998 C102.6001,122.2998 100.3001,124.4998 97.3001,124.5998" id="Fill-56" fill="#21375D" mask="url(#mask-2)"></path>
            <polygon id="Fill-57" fill="#21375D" mask="url(#mask-2)" points="109.5999 115.0998 109.5999 131.1998 107.7999 131.1998 107.7999 115.0998 103.6999 115.0998 103.6999 113.4998 113.5999 113.4998 113.5999 115.0998"></polygon>
            <polygon id="Fill-58" fill="#21375D" mask="url(#mask-2)" points="115.6 131.3 117.4 131.3 117.4 113.6 115.6 113.6"></polygon>
            <path d="M125.2,131.5998 C122.1,131.5998 119.8,129.4998 119.7,126.2998 L121.5,126.2998 C121.6,128.4998 123,129.9998 125.2,129.9998 C127.2,129.9998 128.8,128.4998 128.8,126.4998 C128.8,124.0998 126.8,123.2998 124.8,122.6998 C122.3,121.9998 120.2,121.0998 120.2,117.9998 C120.2,115.1998 122.5,113.1998 125.2,113.1998 C127.9,113.1998 130.1,115.2998 130.1,117.9998 L128.3,117.9998 C128.3,116.2998 126.9,114.7998 125.2,114.7998 C123.4,114.7998 122,116.0998 122,117.8998 C122,120.2998 124.4,120.6998 126.2,121.1998 C128.7,121.9998 130.5,123.5998 130.5,126.2998 C130.5,129.2998 128.1,131.5998 125.2,131.5998" id="Fill-59" fill="#21375D" mask="url(#mask-2)"></path>
            <polygon id="Fill-60" fill="#21375D" mask="url(#mask-2)" points="132.8001 131.3 132.8001 113.6 142.5001 113.6 142.5001 115.2 134.6001 115.2 134.6001 121.6 142.3001 121.6 142.3001 123.2 134.6001 123.2 134.6001 129.7 142.5001 129.7 142.5001 131.3"></polygon>
            <path d="M185.9002,120.4001 C186.7002,119.4001 187.1002,118.3001 187.0002,117.2001 C187.0002,116.0001 186.4002,115.0001 186.0002,114.5001 C186.5002,113.2001 186.7002,111.2001 185.0002,109.6001 C183.7002,108.4001 181.6002,107.9001 178.6002,108.1001 C176.5002,108.2001 174.8002,108.6001 174.7002,108.6001 C174.3002,108.7001 173.9002,108.8001 173.4002,108.9001 C173.4002,108.4001 173.5002,107.1001 174.4002,104.3001 C175.5002,100.9001 175.5002,98.3001 174.2002,96.6001 C172.9002,94.8001 170.8002,94.6001 170.1002,94.6001 C169.5002,94.6001 169.0002,94.8001 168.6002,95.3001 C167.7002,96.3001 167.8002,98.2001 167.9002,99.1001 C166.8002,101.9001 163.9002,108.8001 161.4002,110.8001 L161.3002,110.9001 C160.6002,111.7001 160.1002,112.5001 159.7002,113.2001 C159.2002,112.9001 158.7002,112.8001 158.1002,112.8001 L153.2002,112.8001 C151.4002,112.8001 149.9002,114.3001 149.9002,116.1001 L149.9002,129.1001 C149.9002,130.9001 151.4002,132.4001 153.2002,132.4001 L158.1002,132.4001 C158.8002,132.4001 159.5002,132.2001 160.0002,131.8001 L161.9002,132.0001 C162.2002,132.0001 167.3002,132.7001 172.5002,132.6001 C173.4002,132.7001 174.3002,132.7001 175.2002,132.7001 C176.6002,132.7001 177.9002,132.6001 178.9002,132.4001 C181.3002,131.9001 183.0002,130.8001 183.9002,129.3001 C184.5002,128.1001 184.5002,127.0001 184.4002,126.2001 C186.0002,124.8001 186.3002,123.2001 186.2002,122.1001 C186.2002,121.4001 186.0002,120.8001 185.9002,120.4001 L185.9002,120.4001 Z M153.2002,130.2001 C152.6002,130.2001 152.0002,129.7001 152.0002,129.0001 L152.0002,116.0001 C152.0002,115.4001 152.5002,114.8001 153.2002,114.8001 L158.1002,114.8001 C158.7002,114.8001 159.3002,115.3001 159.3002,116.0001 L159.3002,129.0001 C159.3002,129.6001 158.8002,130.2001 158.1002,130.2001 L153.2002,130.2001 Z M183.8002,119.5001 C183.5002,119.9001 183.4002,120.4001 183.7002,120.8001 C183.7002,120.8001 184.0002,121.4001 184.1002,122.1001 C184.2002,123.1001 183.7002,124.1001 182.6002,124.9001 C182.2002,125.2001 182.1002,125.7001 182.2002,126.1001 C182.2002,126.1001 182.5002,127.2001 182.0002,128.2001 C181.5002,129.2001 180.3002,129.8001 178.5002,130.2001 C177.1002,130.5001 175.1002,130.6001 172.7002,130.4001 L172.6002,130.4001 C167.5002,130.5001 162.3002,129.8001 162.2002,129.8001 L161.4002,129.7001 C161.4002,129.5001 161.5002,129.2001 161.5002,129.0001 L161.5002,116.0001 C161.5002,115.7001 161.4002,115.3001 161.3002,115.0001 C161.4002,114.5001 161.8002,113.3001 162.8002,112.3001 C166.4002,109.5001 169.9002,99.9001 170.0002,99.5001 C170.1002,99.3001 170.1002,99.1001 170.0002,99.0001 C169.9002,98.1001 169.9002,97.0001 170.1002,96.7001 C170.5002,96.7001 171.7002,96.8001 172.3002,97.8001 C173.1002,98.9001 173.1002,100.9001 172.2002,103.6001 C170.9002,107.7001 170.7002,109.8001 171.8002,110.7001 C172.3002,111.2001 173.0002,111.2001 173.5002,111.0001 C174.0002,110.9001 174.4002,110.8001 174.9002,110.7001 L175.0002,110.7001 C177.4002,110.2001 181.8002,109.8001 183.4002,111.2001 C184.7002,112.4001 183.8002,113.9001 183.7002,114.1001 C183.4002,114.5001 183.5002,115.1001 183.9002,115.5001 C183.9002,115.5001 184.7002,116.3001 184.8002,117.4001 C184.9002,118.0001 184.5002,118.8001 183.8002,119.5001 L183.8002,119.5001 Z" id="Fill-61" fill="#21375D" mask="url(#mask-2)"></path>
            <polygon id="Fill-62" fill="#21375D" mask="url(#mask-2)" points="64.8001 250.3 59.9001 250.3 79.2001 207.6 56.9001 207.6 56.9001 203.4 84.0001 203.4 84.0001 207.6"></polygon>
            <path d="M112.8001,220.5002 C112.8001,217.8002 112.2001,213.9002 110.8001,211.6002 C109.0001,208.7002 105.2001,206.8002 101.8001,206.8002 C98.4001,206.8002 94.6001,208.7002 92.8001,211.6002 C91.3001,213.9002 90.8001,217.8002 90.8001,220.5002 L90.8001,232.4002 C90.8001,235.3002 91.1001,239.4002 92.6001,241.8002 C94.6001,245.2002 98.0001,246.8002 101.9001,246.8002 C105.8001,246.8002 109.1001,245.2002 111.2001,241.8002 C112.7001,239.4002 113.0001,235.3002 113.0001,232.4002 L113.0001,220.5002 L112.8001,220.5002 Z M115.2001,243.8002 C112.3001,248.6002 107.3001,251.1002 101.8001,251.1002 C96.3001,251.1002 91.3001,248.6002 88.4001,243.8002 C86.6001,240.7002 86.1001,236.6002 86.1001,233.1002 L86.1001,219.4002 C86.1001,216.5002 86.5001,213.4002 87.9001,210.8002 C90.6001,205.5002 96.0001,202.5002 101.9001,202.5002 C107.8001,202.5002 113.2001,205.5002 115.9001,210.8002 C117.2001,213.4002 117.7001,216.5002 117.7001,219.4002 L117.7001,233.1002 C117.5001,236.6002 117.0001,240.7002 115.2001,243.8002 L115.2001,243.8002 Z" id="Fill-63" fill="#21375D" mask="url(#mask-2)"></path>
            <path d="M147.9998,220.5002 C147.9998,217.8002 147.3998,213.9002 145.9998,211.6002 C144.1998,208.7002 140.3998,206.8002 136.9998,206.8002 C133.5998,206.8002 129.7998,208.7002 127.9998,211.6002 C126.4998,213.9002 125.9998,217.8002 125.9998,220.5002 L125.9998,232.4002 C125.9998,235.3002 126.2998,239.4002 127.7998,241.8002 C129.7998,245.2002 133.1998,246.8002 137.0998,246.8002 C140.9998,246.8002 144.2998,245.2002 146.3998,241.8002 C147.8998,239.4002 148.1998,235.3002 148.1998,232.4002 L148.1998,220.5002 L147.9998,220.5002 Z M150.2998,243.8002 C147.3998,248.6002 142.3998,251.1002 136.8998,251.1002 C131.3998,251.1002 126.3998,248.6002 123.4998,243.8002 C121.6998,240.7002 121.1998,236.6002 121.1998,233.1002 L121.1998,219.4002 C121.1998,216.5002 121.5998,213.4002 122.9998,210.8002 C125.6998,205.5002 131.0998,202.5002 136.9998,202.5002 C142.8998,202.5002 148.2998,205.5002 150.9998,210.8002 C152.2998,213.4002 152.7998,216.5002 152.7998,219.4002 L152.7998,233.1002 C152.6998,236.6002 152.0998,240.7002 150.2998,243.8002 L150.2998,243.8002 Z" id="Fill-64" fill="#21375D" mask="url(#mask-2)"></path>
            <path d="M183.0999,220.5002 C183.0999,217.8002 182.4999,213.9002 181.0999,211.6002 C179.2999,208.7002 175.4999,206.8002 172.0999,206.8002 C168.6999,206.8002 164.8999,208.7002 163.0999,211.6002 C161.5999,213.9002 161.0999,217.8002 161.0999,220.5002 L161.0999,232.4002 C161.0999,235.3002 161.3999,239.4002 162.8999,241.8002 C164.8999,245.2002 168.2999,246.8002 172.1999,246.8002 C176.0999,246.8002 179.3999,245.2002 181.4999,241.8002 C182.9999,239.4002 183.2999,235.3002 183.2999,232.4002 L183.2999,220.5002 L183.0999,220.5002 Z M185.4999,243.8002 C182.5999,248.6002 177.5999,251.1002 172.0999,251.1002 C166.5999,251.1002 161.5999,248.6002 158.6999,243.8002 C156.8999,240.7002 156.3999,236.6002 156.3999,233.1002 L156.3999,219.4002 C156.3999,216.5002 156.7999,213.4002 158.1999,210.8002 C160.8999,205.5002 166.2999,202.5002 172.1999,202.5002 C178.0999,202.5002 183.4999,205.5002 186.1999,210.8002 C187.4999,213.4002 187.9999,216.5002 187.9999,219.4002 L187.9999,233.1002 C187.7999,236.6002 187.1999,240.7002 185.4999,243.8002 L185.4999,243.8002 Z" id="Fill-65" fill="#21375D" mask="url(#mask-2)"></path>
            <polygon id="Fill-66" fill="#FFFFFF" mask="url(#mask-2)" points="99.8 239.1 142.3 239.1 142.3 217.7 99.8 217.7"></polygon>
            <path d="M21.2,277.0002 L27.6,285.5002 L24.7,285.5002 L17,275.2002 C18.4,275.2002 20.5,275.3002 21.9,274.9002 C24.1,274.2002 25.6,272.4002 25.6,270.1002 C25.6,268.4002 24.6,266.6002 23.1,265.7002 C21.7,264.9002 20.3,264.8002 18.7,264.8002 L14.7,264.8002 L14.7,285.5002 L12.4,285.5002 L12.4,262.8002 L18.2,262.8002 C19.9,262.8002 22.2,262.9002 23.8,263.7002 C26.3,264.9002 27.9,267.4002 27.9,270.2002 C27.9,273.9002 25,276.7002 21.2,277.0002" id="Fill-67" fill="#E20A17" mask="url(#mask-2)"></path>
            <path d="M34.9002,261.4001 L33.9002,259.6001 L40.0002,256.3001 L41.0002,258.1001 L34.9002,261.4001 Z M31.1002,285.4001 L31.1002,262.7001 L43.5002,262.7001 L43.5002,264.8001 L33.4002,264.8001 L33.4002,273.0001 L43.2002,273.0001 L43.2002,275.1001 L33.4002,275.1001 L33.4002,283.5001 L43.6002,283.5001 L43.6002,285.6001 L31.1002,285.6001 L31.1002,285.4001 Z" id="Fill-68" fill="#E20A17" mask="url(#mask-2)"></path>
            <polygon id="Fill-69" fill="#E20A17" mask="url(#mask-2)" points="49.9002 264.8 49.9002 273 58.7002 273 58.7002 275.1 49.8002 275.1 49.8002 285.5 47.5002 285.5 47.5002 262.8 59.0002 262.8 59.0002 264.9 49.9002 264.9"></polygon>
            <path d="M66.2,261.4001 L65.2,259.6001 L71.3,256.3001 L72.3,258.1001 L66.2,261.4001 Z M62.5,285.4001 L62.5,262.7001 L74.9,262.7001 L74.9,264.8001 L64.8,264.8001 L64.8,273.0001 L74.6,273.0001 L74.6,275.1001 L64.8,275.1001 L64.8,283.5001 L75,283.5001 L75,285.6001 L62.5,285.6001 L62.5,285.4001 Z" id="Fill-70" fill="#E20A17" mask="url(#mask-2)"></path>
            <path d="M87.5999,277.0002 L93.9999,285.5002 L91.0999,285.5002 L83.3999,275.2002 C84.7999,275.2002 86.8999,275.3002 88.2999,274.9002 C90.4999,274.2002 91.9999,272.4002 91.9999,270.1002 C91.9999,268.4002 90.9999,266.6002 89.4999,265.7002 C88.0999,264.9002 86.6999,264.8002 85.0999,264.8002 L81.0999,264.8002 L81.0999,285.5002 L78.7999,285.5002 L78.7999,262.8002 L84.5999,262.8002 C86.2999,262.8002 88.5999,262.9002 90.1999,263.7002 C92.6999,264.9002 94.2999,267.4002 94.2999,270.2002 C94.2999,273.9002 91.3999,276.7002 87.5999,277.0002" id="Fill-71" fill="#E20A17" mask="url(#mask-2)"></path>
            <polygon id="Fill-72" fill="#E20A17" mask="url(#mask-2)" points="97.5999 285.4001 97.5999 262.7001 109.9999 262.7001 109.9999 264.8001 99.7999 264.8001 99.7999 273.0001 109.5999 273.0001 109.5999 275.1001 99.7999 275.1001 99.7999 283.5001 109.9999 283.5001 109.9999 285.6001 97.5999 285.6001"></polygon>
            <polygon id="Fill-73" fill="#E20A17" mask="url(#mask-2)" points="129.9998 285.4001 116.4998 265.4001 116.3998 265.4001 116.3998 285.4001 114.0998 285.4001 114.0998 262.7001 117.1998 262.7001 129.8998 281.6001 129.9998 281.6001 129.9998 262.7001 132.2998 262.7001 132.2998 285.4001"></polygon>
            <path d="M147.8001,285.8 C141.3001,285.8 135.9001,280.6 135.9001,274.1 C135.9001,267.5 141.1001,262.3 147.8001,262.3 C151.2001,262.3 154.5001,263.8 156.8001,266.4 C157.4001,267 157.9001,267.8 158.2001,268.5 L155.7001,268.5 C153.9001,265.9 150.9001,264.4 147.8001,264.4 C142.6001,264.4 138.3001,269 138.3001,274.1 C138.3001,279.2 142.8001,283.7 147.9001,283.7 C151.2001,283.7 153.9001,282 155.9001,279.4 L158.4001,279.4 C156.2001,283.3 152.2001,285.8 147.8001,285.8" id="Fill-74" fill="#E20A17" mask="url(#mask-2)"></path>
            <polygon id="Fill-75" fill="#E20A17" mask="url(#mask-2)" points="161.7 285.4001 161.7 262.7001 174.1 262.7001 174.1 264.8001 163.9 264.8001 163.9 273.0001 173.7 273.0001 173.7 275.1001 163.9 275.1001 163.9 283.5001 174.1 283.5001 174.1 285.6001 161.7 285.6001"></polygon>
            <path d="M183.7,285.8 C179.7,285.8 176.8,283.1 176.7,279 L179,279 C179.1,281.8 180.9,283.7 183.7,283.7 C186.2,283.7 188.3,281.7 188.3,279.2 C188.3,276.1 185.7,275.1 183.2,274.3 C180,273.3 177.3,272.2 177.3,268.3 C177.3,264.7 180.2,262.2 183.7,262.2 C187.2,262.2 190,264.8 190,268.4 L187.7,268.4 C187.7,266.2 185.9,264.3 183.7,264.3 C181.4,264.3 179.6,266 179.6,268.3 C179.6,271.3 182.7,271.9 185,272.6 C188.3,273.6 190.6,275.6 190.6,279.2 C190.5,283 187.4,285.8 183.7,285.8" id="Fill-76" fill="#E20A17" mask="url(#mask-2)"></path>
            <polygon id="Fill-77" fill="#21375D" mask="url(#mask-2)" points="107.2 229.4001 107.2 235.3001 105.4 235.3001 105.4 229.4001 99.6 229.4001 99.6 227.6001 105.4 227.6001 105.4 221.7001 107.2 221.7001 107.2 227.6001 113 227.6001 113 229.4001"></polygon>
            <path d="M124.9002,226.0998 C124.1002,224.0998 122.3002,223.0998 120.2002,223.0998 L117.7002,223.0998 L117.7002,233.3998 L120.2002,233.3998 C123.4002,233.3998 125.4002,231.4998 125.4002,228.2998 C125.3002,227.4998 125.1002,226.7998 124.9002,226.0998 M125.6002,233.1998 C124.1002,234.6998 122.2002,235.1998 120.1002,235.1998 L115.6002,235.1998 L115.6002,221.0998 L120.2002,221.0998 C122.5002,221.0998 124.6002,221.7998 125.9002,223.6998 C126.8002,224.9998 127.3002,226.5998 127.3002,228.1998 C127.4002,229.8998 126.8002,231.9998 125.6002,233.1998" id="Fill-78" fill="#21375D" mask="url(#mask-2)"></path>
            <polygon id="Fill-79" fill="#21375D" mask="url(#mask-2)" points="129.4998 235.1999 129.4998 221.0999 137.0998 221.0999 137.0998 222.9999 131.5998 222.9999 131.5998 227.0999 137.0998 227.0999 137.0998 228.9999 131.5998 228.9999 131.5998 233.2999 137.0998 233.2999 137.0998 235.1999"></polygon>
            <path d="M46.0999,248.5002 C46.0999,248.7002 45.8999,248.8002 45.6999,248.8002 L12.7999,248.8002 C12.5999,248.8002 12.4999,248.7002 12.4999,248.6002 C12.4999,248.5002 12.3999,248.4002 12.3999,248.3002 L13.8999,244.1002 L16.0999,237.8002 L18.2999,231.5002 L19.6999,227.4002 L19.6999,227.3002 L19.7999,227.0002 L19.7999,226.9002 C19.7999,226.7002 19.9999,226.6002 20.1999,226.6002 L46.0999,226.6002 L47.5999,226.6002 L50.4999,226.6002 L53.0999,226.6002 C53.3999,226.6002 53.4999,227.0002 53.4999,227.2002 L46.0999,248.5002 Z M12.2999,214.8002 C12.2999,214.5002 12.4999,214.2002 12.7999,214.2002 L14.6999,214.2002 L14.3999,237.8002 L12.2999,243.7002 L12.2999,214.8002 Z M16.2999,212.7002 L16.2999,208.9002 L18.1999,208.9002 L18.1999,227.0002 L18.1999,227.1002 L17.4999,229.1002 L15.9999,233.3002 L15.8999,233.7002 L16.2999,212.7002 Z M19.6999,205.8002 L46.1999,205.8002 L46.1999,218.1002 L46.1999,225.0002 L20.1999,225.0002 C19.9999,225.0002 19.8999,225.0002 19.6999,225.1002 L19.6999,205.8002 Z M47.5999,219.6002 L48.4999,219.6002 C48.7999,219.6002 48.9999,219.9002 48.9999,220.2002 L48.9999,225.0002 L47.4999,225.0002 L47.4999,219.6002 L47.5999,219.6002 Z M53.0999,225.0002 L50.4999,225.0002 L50.4999,220.2002 C50.4999,219.0002 49.5999,218.1002 48.4999,218.1002 L47.5999,218.1002 L47.5999,204.3002 L18.1999,204.3002 L18.1999,207.4002 L14.7999,207.4002 L14.7999,212.8002 L12.8999,212.8002 C11.7999,212.8002 10.8999,213.7002 10.8999,214.9002 L10.8999,248.5002 C10.8999,248.9002 10.9999,249.4002 11.2999,249.7002 C11.6999,250.2002 12.1999,250.5002 12.7999,250.5002 L45.6999,250.5002 C46.4999,250.5002 47.2999,249.9002 47.4999,249.1002 L54.9999,227.5002 L54.9999,227.4002 C54.9999,226.0002 54.1999,225.0002 53.0999,225.0002 L53.0999,225.0002 Z" id="Fill-80" fill="#21375D" mask="url(#mask-2)"></path>
            <path d="M24.0999,217.3 L41.6999,217.3 C42.0999,217.3 42.3999,217 42.3999,216.5 C42.3999,216.1 42.0999,215.7 41.6999,215.7 L24.0999,215.7 C23.6999,215.7 23.3999,216 23.3999,216.5 C23.3999,217 23.6999,217.3 24.0999,217.3" id="Fill-81" fill="#21375D" mask="url(#mask-2)"></path>
            <path d="M24.5999,211.9001 L31.9999,211.9001 C32.3999,211.9001 32.6999,211.6001 32.6999,211.1001 C32.6999,210.7001 32.3999,210.3001 31.9999,210.3001 L24.5999,210.3001 C24.1999,210.3001 23.8999,210.6001 23.8999,211.1001 C23.8999,211.6001 24.1999,211.9001 24.5999,211.9001" id="Fill-82" fill="#21375D" mask="url(#mask-2)"></path>
            <path d="M24.0999,222.6999 L41.6999,222.6999 C42.0999,222.6999 42.3999,222.3999 42.3999,221.8999 C42.3999,221.4999 42.0999,221.0999 41.6999,221.0999 L24.0999,221.0999 C23.6999,221.0999 23.3999,221.3999 23.3999,221.8999 C23.3999,222.2999 23.6999,222.6999 24.0999,222.6999" id="Fill-83" fill="#21375D" mask="url(#mask-2)"></path>
            <path d="M300.9002,416.3 C296.0002,416.3 291.9002,412.4 291.9002,407.5 C291.9002,402.5 295.9002,398.6 300.7992,398.6 C303.4002,398.6 305.7992,399.7 307.6002,401.7 C308.0002,402.2 308.4002,402.7 308.7002,403.3 L306.7992,403.3 C305.5002,401.3 303.2002,400.2 300.9002,400.2 C297.0002,400.2 293.7002,403.6 293.7002,407.5 C293.7002,411.3 297.1002,414.8 300.9002,414.8 C303.4002,414.8 305.4002,413.5 306.9002,411.6 L308.7992,411.6 C307.2992,414.4 304.2992,416.3 300.9002,416.3" id="Fill-84" fill="#21375D" mask="url(#mask-2)"></path>
            <polygon id="Fill-85" fill="#21375D" mask="url(#mask-2)" points="311.7 416.0002 311.7 398.9002 313.4 398.9002 313.4 414.5002 320.5 414.5002 320.5 416.1002 311.7 416.1002"></polygon>
            <polygon id="Fill-86" fill="#21375D" mask="url(#mask-2)" points="322.3 416 324 416 324 398.9 322.3 398.9"></polygon>
            <polygon id="Fill-87" fill="#21375D" mask="url(#mask-2)" points="327.4002 416.0002 327.4002 398.9002 336.7992 398.9002 336.7992 400.5002 329.1002 400.5002 329.1002 406.7002 336.5002 406.7002 336.5002 408.3002 329.1002 408.3002 329.1002 414.6002 336.7992 414.6002 336.7992 416.2002 327.4002 416.2002"></polygon>
            <polygon id="Fill-88" fill="#21375D" mask="url(#mask-2)" points="351.7996 416.0002 341.6006 400.9002 341.6006 416.0002 339.9006 416.0002 339.9006 398.9002 342.1996 398.9002 351.7996 413.1002 351.7996 398.9002 353.4996 398.9002 353.4996 416.0002"></polygon>
            <polygon id="Fill-89" fill="#21375D" mask="url(#mask-2)" points="361.1004 400.5002 361.1004 416.1002 359.4004 416.1002 359.4004 400.5002 355.4994 400.5002 355.4994 398.9002 365.1004 398.9002 365.1004 400.5002"></polygon>
            <path d="M370.9002,416.3 C367.9002,416.3 365.7002,414.3 365.6002,411.2 L367.2992,411.2 C367.4002,413.3 368.7002,414.7 370.9002,414.7 C372.7992,414.7 374.2992,413.2 374.2992,411.3 C374.2992,409 372.4002,408.2 370.5002,407.6 C368.1002,406.9 366.1002,406 366.1002,403.1 C366.1002,400.4 368.2992,398.5 370.9002,398.5 C373.5002,398.5 375.6002,400.5 375.6002,403.2 L373.9002,403.2 C373.9002,401.5 372.6002,400.1 370.9002,400.1 C369.2002,400.1 367.7992,401.3 367.7992,403.1 C367.7992,405.4 370.1002,405.8 371.9002,406.3 C374.4002,407 376.1002,408.6 376.1002,411.3 C376.1002,414.2 373.7992,416.3 370.9002,416.3" id="Fill-90" fill="#21375D" mask="url(#mask-2)"></path>
            <polygon id="Fill-91" fill="#E20A17" mask="url(#mask-2)" points="268.2 391.5002 268.2 347.5002 259.9 347.5002 259.9 343.1002 273.1 343.1002 273.1 391.5002"></polygon>
            <polygon id="Fill-92" fill="#E20A17" mask="url(#mask-2)" points="300.4998 391.5002 300.4998 347.5002 292.1998 347.5002 292.1998 343.1002 305.3998 343.1002 305.3998 391.5002"></polygon>
            <path d="M345.2,360.8 C345.2,358 344.6,354 343.1,351.6 C341.2,348.6 337.3,346.6 333.8,346.6 C330.3,346.6 326.4,348.6 324.5,351.6 C323,354 322.4,358 322.4,360.8 L322.4,373.1 C322.4,376 322.7,380.3 324.2,382.8 C326.3,386.3 329.8,388 333.8,388 C337.8,388 341.3,386.3 343.4,382.8 C344.9,380.3 345.2,376.1 345.2,373.1 L345.2,360.8 Z M347.7,384.8 C344.8,389.8 339.6,392.3 333.9,392.3 C328.2,392.3 323,389.7 320.1,384.8 C318.3,381.6 317.7,377.4 317.7,373.8 L317.7,359.7 C317.7,356.7 318.2,353.5 319.5,350.8 C322.2,345.4 327.9,342.2 333.9,342.2 C339.9,342.2 345.5,345.3 348.3,350.8 C349.7,353.5 350.1,356.7 350.1,359.7 L350.1,373.8 C350.1,377.4 349.5,381.6 347.7,384.8 L347.7,384.8 Z" id="Fill-93" fill="#E20A17" mask="url(#mask-2)"></path>
            <path d="M381.4998,360.8 C381.4998,358 380.8998,354 379.3998,351.6 C377.4998,348.6 373.6008,346.6 370.1008,346.6 C366.6008,346.6 362.6998,348.6 360.7998,351.6 C359.2998,354 358.6998,358 358.6998,360.8 L358.6998,373.1 C358.6998,376 358.9998,380.3 360.4998,382.8 C362.6008,386.3 366.1008,388 370.1008,388 C374.1008,388 377.6008,386.3 379.6998,382.8 C381.1998,380.3 381.4998,376.1 381.4998,373.1 L381.4998,360.8 Z M383.8998,384.8 C380.9998,389.8 375.7998,392.3 370.1008,392.3 C364.3998,392.3 359.1998,389.7 356.2998,384.8 C354.4998,381.6 353.8998,377.4 353.8998,373.8 L353.8998,359.7 C353.8998,356.7 354.3998,353.5 355.6998,350.8 C358.3998,345.4 364.1008,342.2 370.1008,342.2 C376.1008,342.2 381.6998,345.3 384.4998,350.8 C385.8998,353.5 386.2998,356.7 386.2998,359.7 L386.2998,373.8 C386.2998,377.4 385.6998,381.6 383.8998,384.8 L383.8998,384.8 Z" id="Fill-94" fill="#E20A17" mask="url(#mask-2)"></path>
            <path d="M417.7996,360.8 C417.7996,358 417.1996,354 415.6996,351.6 C413.7996,348.6 409.9006,346.6 406.4006,346.6 C402.9006,346.6 398.9996,348.6 397.1006,351.6 C395.6006,354 394.9996,358 394.9996,360.8 L394.9996,373.1 C394.9996,376 395.2996,380.3 396.7996,382.8 C398.9006,386.3 402.4006,388 406.4006,388 C410.4006,388 413.9006,386.3 415.9996,382.8 C417.4996,380.3 417.7996,376.1 417.7996,373.1 L417.7996,360.8 Z M420.1996,384.8 C417.2996,389.8 412.1006,392.3 406.4006,392.3 C400.6996,392.3 395.4996,389.7 392.6006,384.8 C390.7996,381.6 390.1996,377.4 390.1996,373.8 L390.1996,359.7 C390.1996,356.7 390.6996,353.5 391.9996,350.8 C394.6996,345.4 400.4006,342.2 406.4006,342.2 C412.4006,342.2 417.9996,345.3 420.7996,350.8 C422.1996,353.5 422.6006,356.7 422.6006,359.7 L422.6006,373.8 C422.6006,377.4 421.9996,381.6 420.1996,384.8 L420.1996,384.8 Z" id="Fill-95" fill="#E20A17" mask="url(#mask-2)"></path>
            <polygon id="Fill-96" fill="#FFFFFF" mask="url(#mask-2)" points="328 379.7 375.5 379.7 375.5 355.8 328 355.8"></polygon>
            <polygon id="Fill-97" fill="#E20A17" mask="url(#mask-2)" points="338.2996 368.8 338.2996 375.4 336.2996 375.4 336.2996 368.8 329.7996 368.8 329.7996 366.8 336.2996 366.8 336.2996 360.2 338.2996 360.2 338.2996 366.8 344.7996 366.8 344.7996 368.8"></polygon>
            <path d="M358.2,365.1999 C357.3,362.8999 355.3,361.7999 352.9,361.7999 L350.1,361.7999 L350.1,373.2999 L352.8,373.2999 C356.4,373.2999 358.6,371.1999 358.6,367.5999 C358.6,366.7999 358.5,365.8999 358.2,365.1999 M358.9,373.0999 C357.2,374.7999 355.1,375.3999 352.8,375.3999 L347.8,375.3999 L347.8,359.6999 L352.9,359.6999 C355.4,359.6999 357.8,360.4999 359.3,362.5999 C360.3,363.9999 360.9,365.8999 360.9,367.5999 C360.9,369.3999 360.3,371.7999 358.9,373.0999" id="Fill-98" fill="#E20A17" mask="url(#mask-2)"></path>
            <polygon id="Fill-99" fill="#E20A17" mask="url(#mask-2)" points="363.2996 375.4001 363.2996 359.7001 371.7996 359.7001 371.7996 361.8001 365.6006 361.8001 365.6006 366.4001 371.7996 366.4001 371.7996 368.5001 365.6006 368.5001 365.6006 373.3001 371.7996 373.3001 371.7996 375.4001"></polygon>
            <path d="M362.7996,313.1999 C361.6996,313.1999 360.6996,312.9999 359.6996,312.6999 L359.7996,304.4999 C360.7996,304.7999 361.9006,304.8999 362.9006,304.8999 C365.1006,304.8999 367.1996,304.3999 369.1006,303.4999 L369.1006,306.5999 C369.1006,307.8999 369.6006,309.0999 370.4996,309.8999 C368.6996,311.9999 365.9006,313.1999 362.7996,313.1999 L362.7996,313.1999 Z M340.6996,324.3999 C339.1996,325.2999 337.1996,325.2999 335.6996,324.2999 L327.1996,318.7999 L328.6006,318.1999 C330.7996,317.2999 332.1996,315.0999 332.1996,312.7999 L332.1996,311.3999 C334.1006,312.1999 336.1996,312.6999 338.4006,312.6999 C340.6006,312.6999 342.6996,312.2999 344.6006,311.5999 L344.6006,312.9999 C344.6006,315.3999 345.9006,317.4999 347.9996,318.4999 L349.4006,319.0999 L340.6996,324.3999 Z M313.4996,315.5999 C312.9006,316.1999 311.9006,316.1999 311.2996,315.5999 L306.1006,310.5999 C307.1006,309.7999 307.7996,308.4999 307.7996,307.0999 L307.7996,303.7999 C309.2996,304.3999 310.7996,304.6999 312.4996,304.6999 C314.1006,304.6999 315.6996,304.4999 317.1996,303.8999 L317.1006,312.1999 L313.4996,315.5999 Z M297.4006,286.2999 C297.4996,277.7999 304.4996,270.9999 312.9996,271.0999 C316.4996,271.0999 319.7996,272.3999 322.4996,274.5999 C320.4006,277.0999 318.9006,279.9999 318.1006,283.1999 C315.2996,282.0999 311.9006,280.3999 309.4006,277.7999 C308.7996,277.1999 307.9006,277.1999 307.4006,277.7999 C306.7996,278.3999 306.7996,279.2999 307.4006,279.7999 C309.9006,282.3999 313.2996,284.4999 317.6996,286.0999 C317.6006,286.7999 317.6006,287.3999 317.6006,288.0999 L317.4006,300.8999 C315.9006,301.5999 314.2996,301.8999 312.6996,301.8999 C306.7996,301.7999 301.9996,296.8999 302.1006,290.9999 L302.1006,287.6999 C302.1006,287.2999 302.2996,286.8999 302.6006,286.5999 L304.7996,284.4999 C305.4006,283.8999 305.4006,282.9999 304.7996,282.4999 C304.1996,281.8999 303.2996,281.8999 302.7996,282.4999 L300.6006,284.5999 C299.6996,285.3999 299.2996,286.5999 299.1996,287.7999 L299.1996,291.0999 C299.1006,295.7999 301.4996,299.9999 305.1996,302.4999 L305.1996,305.0999 L297.4006,303.5999 L297.4006,286.2999 Z M338.9006,269.8999 C349.1006,269.9999 357.1996,278.3999 357.1006,288.5999 L356.7996,311.8999 L347.6996,314.3999 C347.4996,313.9999 347.4006,313.4999 347.4006,312.9999 L347.4006,310.0999 C351.9996,307.1999 355.1006,302.0999 355.1996,296.1999 L355.2996,291.3999 C355.2996,289.9999 354.2996,288.7999 352.9996,288.4999 C351.1006,288.0999 347.2996,287.0999 343.9996,285.0999 C343.2996,284.6999 342.4006,284.8999 341.9996,285.5999 C341.6006,286.2999 341.7996,287.1999 342.4996,287.5999 C346.1006,289.7999 350.1996,290.8999 352.2996,291.3999 C352.2996,291.3999 352.4006,291.3999 352.4006,291.4999 L352.2996,296.2999 C352.1996,303.8999 345.9006,310.0999 338.2996,309.9999 C330.6996,309.8999 324.4996,303.5999 324.6996,295.9999 L324.7996,291.1999 C324.7996,291.0999 324.7996,291.0999 324.9006,291.0999 C328.1006,290.4999 335.9006,288.4999 339.9006,283.3999 C340.4006,282.7999 340.2996,281.8999 339.6006,281.3999 C338.9006,280.8999 338.1006,280.9999 337.6006,281.6999 C336.4996,283.1999 332.9006,286.6999 324.2996,288.3999 C322.9006,288.6999 321.9006,289.8999 321.9006,291.2999 L321.7996,296.0999 C321.6996,301.9999 324.6996,307.1999 329.1996,310.1999 L329.1996,313.0999 C329.1996,313.5999 329.1006,314.0999 328.9006,314.4999 L319.9006,311.7999 L320.1996,288.4999 C320.4006,277.9999 328.7996,269.7999 338.9006,269.8999 L338.9006,269.8999 Z M358.6996,271.6999 L375.6006,271.8999 L375.6006,274.9999 C375.6006,276.6999 374.1006,278.0999 372.4006,278.0999 L363.1996,277.9999 C362.4006,277.9999 361.7996,278.5999 361.7996,279.3999 C361.7996,280.1999 362.4006,280.7999 363.1996,280.7999 L372.4006,280.8999 C372.9996,280.8999 373.4996,280.7999 373.9996,280.6999 L373.9006,291.1999 C373.7996,297.0999 368.9006,301.8999 362.9996,301.7999 C361.9006,301.7999 360.9006,301.5999 359.9006,301.2999 L359.9996,296.1999 C360.9996,296.7999 361.9996,297.0999 363.1006,297.0999 C364.4996,297.0999 365.9006,296.6999 367.1006,295.7999 C367.6996,295.2999 367.7996,294.3999 367.4006,293.7999 C366.9006,293.1999 365.9996,293.0999 365.4006,293.4999 C364.6996,293.9999 363.9996,294.2999 363.1996,294.1999 C362.4006,294.1999 361.6996,293.8999 360.9996,293.3999 C360.6996,293.1999 360.4006,293.0999 359.9996,293.0999 L360.1006,288.3999 C360.1996,283.3999 358.4996,278.7999 355.6996,275.1999 L355.6996,274.5999 C355.6006,273.0999 356.9996,271.6999 358.6996,271.6999 L358.6996,271.6999 Z M383.2996,312.3999 L372.9006,308.0999 C372.2996,307.7999 371.9006,307.1999 371.9006,306.5999 L371.9996,301.5999 C374.7996,299.0999 376.6996,295.4999 376.6996,291.4999 L376.9006,279.1999 C377.9006,278.0999 378.4996,276.7999 378.4996,275.1999 L378.6006,270.5999 C378.6006,269.7999 377.9996,269.1999 377.1996,269.1999 L358.9006,268.9999 C356.2996,268.9999 354.1006,270.5999 353.1996,272.8999 C349.4996,269.4999 344.4996,267.2999 339.1006,267.2999 C333.4996,267.1999 328.4006,269.2999 324.6006,272.6999 C321.4006,269.9999 317.4006,268.4999 313.1006,268.3999 C303.1006,268.2999 294.7996,276.2999 294.6006,286.3999 L294.4006,304.6999 C294.4006,305.3999 294.9006,305.9999 295.6006,306.0999 L304.9006,307.8999 C304.6996,308.1999 304.4996,308.4999 304.1006,308.6999 L294.6996,312.8999 C292.6006,313.7999 291.1996,315.9999 291.1006,318.2999 L290.9996,326.0999 C290.9996,326.8999 291.6006,327.4999 292.4006,327.4999 C293.1996,327.4999 293.7996,326.8999 293.7996,326.0999 L293.9006,318.2999 C293.9006,317.0999 294.6996,315.9999 295.7996,315.4999 L303.4006,312.0999 L309.2996,317.7999 C310.1006,318.5999 311.1996,318.9999 312.2996,318.9999 C313.4006,318.9999 314.4996,318.5999 315.4006,317.7999 L319.1996,314.2999 L325.9996,316.2999 L316.9006,320.2999 C314.1996,321.4999 312.4006,324.1999 312.4006,327.0999 L312.2996,333.8999 C312.2996,334.6999 312.9006,335.2999 313.6996,335.2999 C314.4996,335.2999 315.1006,334.6999 315.1006,333.8999 L315.1996,327.0999 C315.1996,325.2999 316.2996,323.5999 317.9996,322.8999 L324.1006,320.1999 L334.1996,326.6999 C335.4006,327.4999 336.7996,327.8999 338.1996,327.8999 C339.6006,327.8999 340.9996,327.5999 342.1996,326.7999 L352.4996,320.4999 L358.4996,323.2999 C360.1996,324.0999 361.1996,325.7999 361.1996,327.5999 L361.1006,334.3999 C361.1006,335.1999 361.6996,335.7999 362.4996,335.7999 C363.2996,335.7999 363.9006,335.1999 363.9006,334.3999 L363.9996,327.5999 C363.9996,324.6999 362.2996,321.8999 359.6996,320.6999 L350.6996,316.3999 L357.1996,314.5999 C358.9006,315.3999 360.7996,315.7999 362.7996,315.8999 C366.9996,315.9999 370.9006,314.0999 373.1006,311.0999 L382.2996,314.8999 C383.4996,315.3999 384.2996,316.5999 384.1996,317.8999 L384.1006,326.9999 C384.1006,327.7999 384.6996,328.3999 385.4996,328.3999 C386.2996,328.3999 386.9006,327.7999 386.9006,326.9999 L386.9996,317.8999 C387.1006,315.5999 385.6006,313.3999 383.2996,312.3999 L383.2996,312.3999 Z" id="Fill-100" fill="#21375D" mask="url(#mask-2)"></path>
            <path d="M369.2,290.1999 C370,290.1999 370.6,289.5999 370.6,288.7999 L370.6,287.2999 C370.6,286.4999 370,285.8999 369.2,285.8999 C368.4,285.8999 367.8,286.4999 367.8,287.2999 L367.8,288.7999 C367.8,289.4999 368.4,290.1999 369.2,290.1999" id="Fill-101" fill="#21375D" mask="url(#mask-2)"></path>
            <path d="M306.6004,290.9001 C307.4004,290.9001 307.9994,290.3001 307.9994,289.5001 L307.9994,288.0001 C307.9994,287.2001 307.4004,286.6001 306.6004,286.6001 C305.7994,286.6001 305.2004,287.2001 305.2004,288.0001 L305.2004,289.5001 C305.2004,290.2001 305.7994,290.9001 306.6004,290.9001" id="Fill-102" fill="#21375D" mask="url(#mask-2)"></path>
            <path d="M308.7996,296.8 C309.9006,297.6 311.1996,298 312.6006,298 C313.9996,298 315.2996,297.6 316.4996,296.9 C317.1996,296.5 317.4006,295.6 316.9006,294.9 C316.4996,294.2 315.6006,294 314.9006,294.5 C314.1996,294.9 313.4006,295.2 312.6006,295.1 C311.7996,295.1 310.9996,294.8 310.2996,294.4 C309.6006,294 308.7996,294.1 308.2996,294.8 C307.9006,295.4 308.1006,296.3 308.7996,296.8" id="Fill-103" fill="#21375D" mask="url(#mask-2)"></path>
            <path d="M342.1004,302.0002 C341.1004,303.1002 339.7994,303.7002 338.4994,303.7002 C337.2004,303.7002 335.9004,303.0002 334.9004,301.9002 L342.1004,302.0002 Z M331.2004,299.7002 C330.9004,300.1002 330.9004,300.6002 330.9994,301.0002 C332.2994,304.3002 335.2004,306.5002 338.4004,306.6002 C341.6004,306.6002 344.4994,304.5002 345.9004,301.2002 C346.1004,300.8002 345.9994,300.3002 345.7994,299.9002 C345.6004,299.5002 345.1004,299.3002 344.6004,299.3002 L332.4004,299.1002 C331.9004,299.0002 331.4994,299.3002 331.2004,299.7002 L331.2004,299.7002 Z" id="Fill-104" fill="#21375D" mask="url(#mask-2)"></path>
            <path d="M332.7,293.4001 C332.9,294.0001 333.4,294.3001 334,294.3001 C334.2,294.3001 334.3,294.3001 334.5,294.2001 C335.2,293.9001 335.6,293.1001 335.4,292.4001 C334.9,290.9001 333.4,289.9001 331.8,289.9001 C330.2,289.9001 328.7,290.8001 328.1,292.3001 C327.8,293.0001 328.2,293.9001 328.9,294.2001 C329.6,294.5001 330.5,294.1001 330.8,293.4001 C330.9,293.1001 331.3,292.8001 331.8,292.8001 C332.2,292.7001 332.6,293.1001 332.7,293.4001" id="Fill-105" fill="#21375D" mask="url(#mask-2)"></path>
            <path d="M342.7,294.3 C343.4,294.6 344.3,294.2 344.6,293.5 C344.7,293.2 345.1,292.9 345.6,292.9 C346.1,292.9 346.4,293.2 346.5,293.5 C346.7,294.1 347.2,294.4 347.8,294.4 C348,294.4 348.1,294.4 348.3,294.3 C349,294 349.4,293.2 349.2,292.5 C348.7,291 347.2,290 345.6,290 C344,290 342.5,290.9 341.9,292.4 C341.6,293.2 341.9,294 342.7,294.3" id="Fill-106" fill="#21375D" mask="url(#mask-2)"></path>
            <path d="M362.4002,336.0998 C362.1002,336.0998 361.7992,335.9998 361.6002,335.7998 C361.1002,335.2998 361.0002,334.4998 361.4002,333.9998 L368.9002,324.9998 L363.2992,315.4998 C362.9002,314.8998 363.1002,314.0998 363.7992,313.7998 C364.4002,313.3998 365.2002,313.5998 365.5002,314.2998 L371.5002,324.5998 C371.7992,325.0998 371.7002,325.5998 371.4002,326.0998 L363.2992,335.7998 C363.1002,335.8998 362.7002,336.0998 362.4002,336.0998" id="Fill-107" fill="#21375D" mask="url(#mask-2)"></path>
            <path d="M356.7,322.3 C356.4,322.3 356.1,322.2 355.9,322 C355.4,321.5 355.3,320.7 355.8,320.2 L361.2,314.2 C361.7,313.7 362.5,313.6 363,314.1 C363.5,314.6 363.6,315.4 363.1,315.9 L357.7,321.9 C357.4,322.2 357.1,322.3 356.7,322.3" id="Fill-108" fill="#21375D" mask="url(#mask-2)"></path>
            <path d="M218.8001,143.0998 L425.1001,143.0998 C437.1001,143.0998 446.9001,152.8998 446.9001,164.8998 L446.9001,226.8998 C446.9001,238.8998 437.1001,248.6998 425.1001,248.6998 L218.8001,248.6998" id="Stroke-109" stroke="#C6C6C6" stroke-width="2" stroke-linecap="round" stroke-linejoin="round" stroke-dasharray="0.2,7" mask="url(#mask-2)"></path>
            <path d="M266.2996,189.1999 L253.1006,201.7999 L273.6996,201.7999 L273.6996,205.4999 L247.6006,205.4999 L247.6006,201.7999 L261.9996,187.8999 C265.1996,184.7999 269.7996,180.9999 269.7996,176.0999 C269.7996,171.2999 265.6996,167.3999 260.9006,167.3999 C254.9996,167.3999 251.9996,172.0999 251.9996,177.6999 L247.9006,177.6999 L247.9006,177.5999 C247.9006,171.7999 250.2996,166.8999 255.9006,164.6999 C257.6006,163.9999 259.2996,163.6999 261.1006,163.6999 C266.4006,163.6999 270.7996,166.5999 272.9006,171.4999 C273.4996,172.8999 273.9006,174.4999 273.9006,176.1999 C273.9006,181.8999 270.1996,185.5999 266.2996,189.1999" id="Fill-110" fill="#E20A17" mask="url(#mask-2)"></path>
            <path d="M291.6004,206.3 C289.9994,206.3 288.2994,206 286.7994,205.4 C281.1004,203.3 278.2994,198.5 277.4994,192.6 L281.6004,192.6 C282.2004,198 285.9004,202.5 291.4994,202.5 C297.2004,202.5 301.2994,197.4 301.2994,191.9 C301.2994,186.4 297.4004,181.2 291.4994,181.2 C287.9994,181.2 284.9994,183.2 282.9994,185.9 L279.7994,184.7 L283.4994,164.5 L301.9994,164.5 L301.9994,168.2 L286.7994,168.2 L284.7004,179.5 C286.9004,178.3 289.1004,177.6 291.7004,177.6 C299.6004,177.6 305.4004,184.2 305.4004,192 C305.4994,199.7 299.4004,206.3 291.6004,206.3" id="Fill-111" fill="#E20A17" mask="url(#mask-2)"></path>
            <path d="M331.7996,179.5002 C331.7996,177.1002 331.2996,173.7002 329.9996,171.7002 C328.4006,169.2002 325.1006,167.5002 322.1006,167.5002 C319.1006,167.5002 315.7996,169.2002 314.1996,171.7002 C312.9006,173.8002 312.4006,177.1002 312.4006,179.5002 L312.4006,189.9002 C312.4006,192.4002 312.6996,196.0002 313.9996,198.1002 C315.7996,201.0002 318.6996,202.5002 322.1006,202.5002 C325.4996,202.5002 328.4006,201.1002 330.1996,198.1002 C331.4996,196.0002 331.7996,192.4002 331.7996,189.9002 L331.7996,179.5002 Z M333.9006,199.9002 C331.4006,204.1002 326.9996,206.3002 322.1996,206.3002 C317.4006,206.3002 312.9996,204.1002 310.4996,199.9002 C308.9006,197.2002 308.4006,193.6002 308.4006,190.6002 L308.4006,178.6002 C308.4006,176.1002 308.7996,173.3002 309.9996,171.1002 C312.2996,166.5002 317.1006,163.8002 322.1996,163.8002 C327.2996,163.8002 332.1006,166.5002 334.4006,171.1002 C335.6006,173.4002 335.9996,176.1002 335.9996,178.6002 L335.9996,190.6002 C335.9006,193.6002 335.4006,197.2002 333.9006,199.9002 L333.9006,199.9002 Z" id="Fill-112" fill="#E20A17" mask="url(#mask-2)"></path>
            <path d="M362.4998,179.5002 C362.4998,177.1002 361.9998,173.7002 360.6998,171.7002 C359.1008,169.2002 355.7998,167.5002 352.7998,167.5002 C349.7998,167.5002 346.4998,169.2002 344.8998,171.7002 C343.6008,173.8002 343.1008,177.1002 343.1008,179.5002 L343.1008,189.9002 C343.1008,192.4002 343.3998,196.0002 344.6998,198.1002 C346.4998,201.0002 349.3998,202.5002 352.7998,202.5002 C356.1998,202.5002 359.1008,201.1002 360.8998,198.1002 C362.1998,196.0002 362.4998,192.4002 362.4998,189.9002 L362.4998,179.5002 Z M364.6008,199.9002 C362.1008,204.1002 357.6998,206.3002 352.8998,206.3002 C348.1008,206.3002 343.6998,204.1002 341.1998,199.9002 C339.6008,197.2002 339.1008,193.6002 339.1008,190.6002 L339.1008,178.6002 C339.1008,176.1002 339.4998,173.3002 340.6998,171.1002 C342.9998,166.5002 347.7998,163.8002 352.8998,163.8002 C357.9998,163.8002 362.7998,166.5002 365.1008,171.1002 C366.2998,173.4002 366.6998,176.1002 366.6998,178.6002 L366.6998,190.6002 C366.6008,193.6002 366.1008,197.2002 364.6008,199.9002 L364.6008,199.9002 Z" id="Fill-113" fill="#E20A17" mask="url(#mask-2)"></path>
            <path d="M393.2,179.5002 C393.2,177.1002 392.7,173.7002 391.4,171.7002 C389.8,169.2002 386.5,167.5002 383.5,167.5002 C380.5,167.5002 377.2,169.2002 375.6,171.7002 C374.3,173.8002 373.8,177.1002 373.8,179.5002 L373.8,189.9002 C373.8,192.4002 374.1,196.0002 375.4,198.1002 C377.2,201.0002 380.1,202.5002 383.5,202.5002 C386.9,202.5002 389.8,201.1002 391.6,198.1002 C392.9,196.0002 393.2,192.4002 393.2,189.9002 L393.2,179.5002 Z M395.3,199.9002 C392.8,204.1002 388.4,206.3002 383.6,206.3002 C378.8,206.3002 374.4,204.1002 371.9,199.9002 C370.3,197.2002 369.8,193.6002 369.8,190.6002 L369.8,178.6002 C369.8,176.1002 370.2,173.3002 371.4,171.1002 C373.7,166.5002 378.5,163.8002 383.6,163.8002 C388.7,163.8002 393.5,166.5002 395.8,171.1002 C397,173.4002 397.4,176.1002 397.4,178.6002 L397.4,190.6002 C397.3,193.6002 396.8,197.2002 395.3,199.9002 L395.3,199.9002 Z" id="Fill-114" fill="#E20A17" mask="url(#mask-2)"></path>
            <path d="M424.7996,192.3 L421.9006,194.9 L426.6006,194.9 L426.6006,196.1 L419.9006,196.1 L419.9006,195 L423.4006,191.7 C424.1006,191 425.1996,190.2 425.1996,189.1 C425.1996,188 424.2996,187.2 423.2996,187.2 C421.7996,187.2 421.2996,188.3 421.2996,189.6 L419.9996,189.6 L419.9996,189.5 C419.9996,187.4 421.2996,186 423.4006,186 C425.1006,186 426.6006,187.3 426.6006,189.1 C426.6996,190.6 425.7996,191.4 424.7996,192.3 L424.7996,192.3 Z M416.1006,205.5 L416.1006,190.8 L409.9006,205.5 L408.4996,205.5 L402.4006,190.8 L402.4006,205.5 L400.6996,205.5 L400.6996,189 L403.1996,189 L409.1996,203.1 L415.1996,189 L417.6996,189 L417.6996,205.5 L416.1006,205.5 Z" id="Fill-115" fill="#E20A17" mask="url(#mask-2)"></path>
            <path d="M254.7996,216.5002 C253.4006,215.5002 251.9006,215.4002 250.1996,215.4002 L248.1996,215.4002 L248.1996,226.8002 L250.4996,226.8002 C252.1006,226.8002 253.6006,226.7002 254.9996,225.7002 C256.4006,224.7002 257.1996,222.8002 257.1996,221.1002 C257.1006,219.2002 256.2996,217.5002 254.7996,216.5002 M255.4006,226.9002 C254.1006,227.7002 252.2996,228.0002 250.9006,228.0002 L246.7996,228.0002 L246.7996,214.1002 L250.9006,214.1002 C252.4006,214.1002 254.1996,214.4002 255.4006,215.2002 C257.4006,216.5002 258.6006,218.7002 258.6006,221.0002 C258.4996,223.4002 257.2996,225.6002 255.4006,226.9002" id="Fill-116" fill="#21375D" mask="url(#mask-2)"></path>
            <polygon id="Fill-117" fill="#21375D" mask="url(#mask-2)" points="261.7996 219.6999 260.6996 219.6999 260.4996 214.0999 261.9996 214.0999"></polygon>
            <path d="M271.2,215.1999 C267.9,215.1999 265.2,217.8999 265.2,221.1999 C265.2,224.3999 268,227.0999 271.2,227.0999 C274.4,227.0999 277.2,224.4999 277.2,221.1999 C277.2,217.7999 274.5,215.1999 271.2,215.1999 M271.2,228.2999 C267.3,228.2999 263.9,225.0999 263.9,221.1999 C263.9,217.0999 267.2,213.8999 271.2,213.8999 C275.2,213.8999 278.6,217.0999 278.6,221.0999 C278.6,225.0999 275.2,228.2999 271.2,228.2999" id="Fill-118" fill="#21375D" mask="url(#mask-2)"></path>
            <path d="M289.7,225.6999 C288.9,227.3999 287.3,228.2999 285.5,228.2999 C283.7,228.2999 282.1,227.3999 281.3,225.6999 C280.9,224.8999 280.8,223.6999 280.8,222.7999 L280.8,214.0999 L282.2,214.0999 L282.2,222.7999 C282.2,223.5999 282.3,224.5999 282.7,225.2999 C283.3,226.3999 284.3,226.9999 285.6,226.9999 C286.9,226.9999 287.9,226.3999 288.5,225.2999 C288.9,224.5999 289,223.4999 289,222.7999 L289,214.0999 L290.4,214.0999 L290.4,222.7999 C290.3,223.6999 290.1,224.7999 289.7,225.6999" id="Fill-119" fill="#21375D" mask="url(#mask-2)"></path>
            <polygon id="Fill-120" fill="#21375D" mask="url(#mask-2)" points="296.4002 215.4001 296.4002 228.0001 295.0002 228.0001 295.0002 215.4001 291.7992 215.4001 291.7992 214.1001 299.6002 214.1001 299.6002 215.4001"></polygon>
            <polygon id="Fill-121" fill="#21375D" mask="url(#mask-2)" points="301.1 228 302.499 228 302.499 214.1 301.1 214.1"></polygon>
            <polygon id="Fill-122" fill="#21375D" mask="url(#mask-2)" points="305.4998 228.0002 305.4998 214.1002 306.8998 214.1002 306.8998 226.8002 312.6008 226.8002 312.6008 228.1002 305.4998 228.1002"></polygon>
            <polygon id="Fill-123" fill="#21375D" mask="url(#mask-2)" points="319.4002 228.0002 319.4002 214.1002 320.7992 214.1002 320.7992 226.8002 326.5002 226.8002 326.5002 228.1002 319.4002 228.1002"></polygon>
            <path d="M334.6004,215.1999 C331.2994,215.1999 328.6004,217.8999 328.6004,221.1999 C328.6004,224.3999 331.4004,227.0999 334.6004,227.0999 C337.7994,227.0999 340.6004,224.4999 340.6004,221.1999 C340.6004,217.7999 337.9004,215.1999 334.6004,215.1999 M334.6004,228.2999 C330.7004,228.2999 327.2994,225.0999 327.2994,221.1999 C327.2994,217.0999 330.6004,213.8999 334.6004,213.8999 C338.6004,213.8999 341.9994,217.0999 341.9994,221.0999 C341.9994,225.0999 338.6004,228.2999 334.6004,228.2999" id="Fill-124" fill="#21375D" mask="url(#mask-2)"></path>
            <path d="M350.9998,228.3 C347.1008,228.3 343.4998,225.1 343.4998,221.1 C343.4998,217 346.9998,213.9 350.8998,213.9 C353.1008,213.9 355.1008,214.8 356.6008,216.5 C356.9998,216.9 357.2998,217.4 357.4998,217.9 L355.8998,217.9 C354.8998,216.2 352.8998,215.2 350.9998,215.2 C347.6998,215.2 344.8998,217.8 344.8998,221.2 C344.8998,224.6 347.6998,227.1 350.9998,227.1 C353.3998,227.1 355.9998,225.4 356.6008,223 L348.7998,223 L348.7998,221.7 L358.1998,221.7 C358.1008,225.5 354.7998,228.3 350.9998,228.3" id="Fill-125" fill="#21375D" mask="url(#mask-2)"></path>
            <polygon id="Fill-126" fill="#21375D" mask="url(#mask-2)" points="360.6 228 361.999 228 361.999 214.1 360.6 214.1"></polygon>
            <path d="M368.1004,228.3 C365.6004,228.3 363.9004,226.7 363.7994,224.2 L365.2004,224.2 C365.2994,225.9 366.2994,227.1 368.1004,227.1 C369.6004,227.1 370.9004,225.9 370.9004,224.3 C370.9004,222.4 369.2994,221.8 367.7994,221.3 C365.7994,220.7 364.2004,220 364.2004,217.6 C364.2004,215.4 365.9994,213.9 368.1004,213.9 C370.2004,213.9 371.9994,215.5 371.9994,217.7 L370.6004,217.7 C370.6004,216.3 369.4994,215.2 368.1004,215.2 C366.7004,215.2 365.6004,216.2 365.6004,217.6 C365.6004,219.5 367.4994,219.8 368.9004,220.2 C370.9004,220.8 372.2994,222.1 372.2994,224.2 C372.2994,226.5 370.4004,228.3 368.1004,228.3" id="Fill-127" fill="#21375D" mask="url(#mask-2)"></path>
            <polygon id="Fill-128" fill="#21375D" mask="url(#mask-2)" points="377.4998 215.4001 377.4998 228.0001 376.1008 228.0001 376.1008 215.4001 372.8998 215.4001 372.8998 214.1001 380.6998 214.1001 380.6998 215.4001"></polygon>
            <polygon id="Fill-129" fill="#21375D" mask="url(#mask-2)" points="382.2 228 383.6 228 383.6 214.1 382.2 214.1"></polygon>
            <path d="M394.4998,224.6999 C393.1998,223.8999 391.6008,223.5999 390.1998,223.5999 C389.3998,223.5999 388.7998,223.6999 387.9998,223.9999 C388.1998,224.3999 388.4998,224.7999 388.7998,225.0999 C389.9998,226.3999 391.6008,226.9999 393.2998,226.9999 C394.3998,226.9999 395.4998,226.6999 396.3998,226.0999 C395.7998,225.6999 395.1008,225.0999 394.4998,224.6999 M393.2998,215.1999 C389.8998,215.1999 387.1998,217.7999 387.1998,221.2999 C387.1998,221.7999 387.2998,222.3999 387.3998,222.8999 C388.3998,222.5999 389.2998,222.3999 390.2998,222.3999 C393.2998,222.3999 395.1998,223.4999 397.3998,225.3999 C398.4998,224.2999 399.2998,222.7999 399.2998,221.1999 C399.3998,217.7999 396.6008,215.1999 393.2998,215.1999 M398.4998,226.2999 C399.1008,226.7999 399.6998,227.0999 400.6008,227.0999 L400.6008,228.3999 C399.1998,228.3999 398.4998,228.0999 397.4998,227.1999 C396.2998,227.9999 394.7998,228.3999 393.2998,228.3999 C389.2998,228.3999 385.7998,225.2999 385.7998,221.2999 C385.7998,217.0999 389.1998,214.0999 393.2998,214.0999 C397.4998,214.0999 400.7998,217.1999 400.7998,221.3999 C400.6998,223.1999 399.8998,224.8999 398.4998,226.2999" id="Fill-130" fill="#21375D" mask="url(#mask-2)"></path>
            <path d="M411.7,225.6999 C410.9,227.3999 409.3,228.2999 407.5,228.2999 C405.7,228.2999 404.1,227.3999 403.3,225.6999 C402.9,224.8999 402.8,223.6999 402.8,222.7999 L402.8,214.0999 L404.2,214.0999 L404.2,222.7999 C404.2,223.5999 404.3,224.5999 404.7,225.2999 C405.3,226.3999 406.3,226.9999 407.6,226.9999 C408.9,226.9999 409.9,226.3999 410.5,225.2999 C410.9,224.5999 411,223.4999 411,222.7999 L411,214.0999 L412.4,214.0999 L412.4,222.7999 C412.3,223.6999 412.1,224.7999 411.7,225.6999" id="Fill-131" fill="#21375D" mask="url(#mask-2)"></path>
            <polygon id="Fill-132" fill="#21375D" mask="url(#mask-2)" points="414.9998 228.0002 414.9998 214.1002 422.6008 214.1002 422.6008 215.4002 416.3998 215.4002 416.3998 220.4002 422.3998 220.4002 422.3998 221.7002 416.3998 221.7002 416.3998 226.8002 422.6008 226.8002 422.6008 228.1002 414.9998 228.1002"></polygon>
            <path d="M37.8001,370.9001 C30.6001,370.9001 25.7001,377.1001 25.7001,383.9001 C25.7001,390.7001 30.8001,396.7001 37.8001,396.7001 C45.0001,396.7001 49.9001,390.8001 49.9001,383.8001 C49.9001,376.9001 45.0001,370.9001 37.8001,370.9001 M37.8001,401.2001 C27.6001,401.2001 20.7001,393.4001 20.7001,383.4001 C20.7001,377.7001 23.6001,373.3001 26.7001,368.7001 L39.1001,350.3001 L44.8001,350.3001 L33.2001,367.3001 L33.3001,367.4001 C34.7001,366.7001 36.3001,366.3001 38.0001,366.3001 C47.7001,366.3001 54.8001,374.1001 54.8001,383.7001 C54.9001,393.5001 47.7001,401.2001 37.8001,401.2001" id="Fill-133" fill="#E20A17" mask="url(#mask-2)"></path>
            <polygon id="Fill-134" fill="#364369" mask="url(#mask-2)" points="84.9002 387.5998 84.9002 369.4998 84.8002 369.4998 77.2002 387.5998 75.5002 387.5998 67.9002 369.4998 67.8002 369.4998 67.8002 387.5998 65.8002 387.5998 65.8002 367.2998 68.9002 367.2998 76.3002 384.5998 83.7002 367.2998 86.8002 367.2998 86.8002 387.5998"></polygon>
            <path d="M99.2,369.5998 L95.2,378.8998 L103.1,378.8998 L99.2,369.5998 Z M106.9,387.5998 L104,380.7998 L94.5,380.7998 L91.5,387.5998 L89.4,387.5998 L98.1,367.2998 L100.4,367.2998 L109.1,387.5998 L106.9,387.5998 Z" id="Fill-135" fill="#364369" mask="url(#mask-2)"></path>
            <path d="M119.0999,380.0002 L124.7999,387.6002 L122.1999,387.6002 L115.2999,378.4002 C116.5999,378.4002 118.3999,378.5002 119.6999,378.1002 C121.6999,377.5002 123.0999,375.9002 123.0999,373.8002 C123.0999,372.3002 122.1999,370.6002 120.8999,369.9002 C119.5999,369.2002 118.3999,369.1002 116.8999,369.1002 L113.3999,369.1002 L113.3999,387.6002 L111.3999,387.6002 L111.3999,367.3002 L116.5999,367.3002 C118.0999,367.3002 120.1999,367.4002 121.5999,368.1002 C123.8999,369.2002 125.1999,371.4002 125.1999,373.9002 C125.0999,377.3002 122.4999,379.8002 119.0999,380.0002" id="Fill-136" fill="#364369" mask="url(#mask-2)"></path>
            <path d="M139.9002,382.6999 C138.1002,381.5999 135.7002,381.0999 133.6002,381.0999 C132.4002,381.0999 131.5002,381.1999 130.4002,381.6999 C130.7002,382.2999 131.1002,382.8999 131.6002,383.2999 C133.3002,385.1999 135.6002,386.0999 138.2002,386.0999 C139.8002,386.0999 141.4002,385.6999 142.7002,384.7999 C141.8002,384.0999 140.8002,383.2999 139.9002,382.6999 M138.2002,368.6999 C133.2002,368.6999 129.2002,372.5999 129.2002,377.5999 C129.2002,378.3999 129.3002,379.0999 129.6002,379.8999 C131.0002,379.3999 132.4002,379.1999 133.9002,379.1999 C138.4002,379.1999 141.0002,380.8999 144.3002,383.6999 C146.0002,382.0999 147.1002,379.8999 147.1002,377.4999 C147.0002,372.5999 143.1002,368.6999 138.2002,368.6999 M145.7002,384.9999 C146.6002,385.7999 147.5002,386.0999 148.7002,386.0999 L148.7002,387.8999 C146.7002,387.8999 145.6002,387.4999 144.2002,386.0999 C142.4002,387.2999 140.2002,387.8999 138.1002,387.8999 C132.3002,387.8999 127.2002,383.3999 127.2002,377.4999 C127.2002,371.3999 132.1002,366.8999 138.2002,366.8999 C144.3002,366.8999 149.1002,371.3999 149.1002,377.5999 C149.1002,380.4999 147.8002,383.0999 145.7002,384.9999" id="Fill-137" fill="#364369" mask="url(#mask-2)"></path>
            <path d="M165.0999,384.1999 C163.8999,386.6999 161.5999,387.9999 158.8999,387.9999 C156.1999,387.9999 153.8999,386.6999 152.6999,384.1999 C152.0999,382.9999 151.8999,381.2999 151.8999,379.9999 L151.8999,367.2999 L153.8999,367.2999 L153.8999,379.9999 C153.8999,381.0999 153.9999,382.6999 154.5999,383.6999 C155.4999,385.2999 156.8999,386.1999 158.7999,386.1999 C160.6999,386.1999 162.0999,385.2999 162.9999,383.6999 C163.4999,382.6999 163.6999,381.0999 163.6999,379.9999 L163.6999,367.2999 L165.6999,367.2999 L165.6999,379.9999 C165.8999,381.2999 165.6999,382.8999 165.0999,384.1999" id="Fill-138" fill="#364369" mask="url(#mask-2)"></path>
            <polygon id="Fill-139" fill="#364369" mask="url(#mask-2)" points="169.9002 387.5998 169.9002 367.2998 181.0002 367.2998 181.0002 369.0998 171.9002 369.0998 171.9002 376.3998 180.7002 376.3998 180.7002 378.1998 171.9002 378.1998 171.9002 385.6998 181.0002 385.6998 181.0002 387.4998 169.9002 387.4998"></polygon>
            <path d="M189.5999,387.9001 C185.9999,387.9001 183.3999,385.5001 183.2999,381.9001 L185.2999,381.9001 C185.3999,384.4001 186.9999,386.1001 189.4999,386.1001 C191.7999,386.1001 193.5999,384.3001 193.5999,382.1001 C193.5999,379.4001 191.2999,378.4001 189.0999,377.8001 C186.1999,376.9001 183.7999,376.0001 183.7999,372.4001 C183.7999,369.2001 186.3999,366.9001 189.4999,366.9001 C192.5999,366.9001 195.0999,369.3001 195.0999,372.4001 L193.0999,372.4001 C193.0999,370.4001 191.4999,368.7001 189.4999,368.7001 C187.4999,368.7001 185.7999,370.2001 185.7999,372.2001 C185.7999,374.9001 188.5999,375.4001 190.5999,376.0001 C193.4999,376.9001 195.5999,378.7001 195.5999,381.9001 C195.6999,385.4001 192.9999,387.9001 189.5999,387.9001" id="Fill-140" fill="#364369" mask="url(#mask-2)"></path>
        </g>
    </g>
</svg>