<?xml version="1.0" encoding="UTF-8"?>
<svg width="164px" height="149px" viewBox="0 0 164 149" version="1.1" xmlns="http://www.w3.org/2000/svg" xmlns:xlink="http://www.w3.org/1999/xlink">
    <!-- Generator: Sketch 57.1 (83088) - https://sketch.com -->
    <title>infographie-4</title>
    <desc>Created with Sketch.</desc>
    <defs>
        <polygon id="path-1" points="0 140 124 140 124 0.459 0 0.459"></polygon>
        <path d="M2.499,1.7 C2,1.7 1.7,2.1 1.7,2.5 L1.7,2.5 L0.9,36.5 C0.9,36.8 1,37 1.2,37.2 L1.2,37.2 C1.4,37.3 1.499,37.4 1.7,37.4 L1.7,37.4 C1.8,37.4 1.9,37.4 1.9,37.2 L1.9,37.2 L23.3,29.7 C23.7,29.601 23.9,29.3 23.9,29 L23.9,29 L25.4,1.2 C25.5,1 25.4,0.8 25.2,0.6 L25.2,0.6 C25.1,0.5 24.801,0.4 24.6,0.4 L24.6,0.4 L2.499,1.7 Z M3.3,3.4 L23.7,2.2 L22.3,28.5 L2.499,35.4 L3.3,3.4 Z" id="path-3"></path>
        <path d="M22.801,0.3 L1.4,7.8 C1,7.9 0.8,8.4 0.9,8.8 L0.9,8.8 L5.6,23.8 C5.7,24 5.9,24.2 6.1,24.3 L6.1,24.3 C6.2,24.4 6.3,24.4 6.4,24.4 L6.4,24.4 C6.5,24.4 6.6,24.4 6.6,24.2 L6.6,24.2 L27.2,14 C27.5,13.8 27.699,13.4 27.6,13 L27.6,13 L23.801,0.8 C23.7,0.6 23.6,0.4 23.4,0.3 L23.4,0.3 C23.3,0.25 23.2,0.225 23.1,0.225 L23.1,0.225 C23,0.225 22.9,0.25 22.801,0.3 L22.801,0.3 Z M2.7,9.1 L22.6,2.2 L25.999,12.9 L6.9,22.4 L2.7,9.1 Z" id="path-5"></path>
        <polygon id="path-7" points="0 140 124 140 124 0.459 0 0.459"></polygon>
        <path d="M2.4,1.7 C1.9,1.7 1.6,2.1 1.6,2.5 L1.6,2.5 L0.8,36.5 C0.8,36.8 0.9,37 1.1,37.2 L1.1,37.2 C1.301,37.3 1.4,37.4 1.6,37.4 L1.6,37.4 L1.9,37.4 L23.199,29.7 C23.6,29.601 23.801,29.3 23.801,29 L23.801,29 L25.3,1.2 C25.4,1 25.3,0.8 25.1,0.6 L25.1,0.6 C24.999,0.5 24.7,0.4 24.5,0.4 L24.5,0.4 L2.4,1.7 Z M3.3,3.4 L23.7,2.2 L22.3,28.5 L2.499,35.4 L3.3,3.4 Z" id="path-9"></path>
        <path d="M22.7,0.3 L1.301,7.8 C0.9,7.9 0.699,8.4 0.8,8.8 L0.8,8.8 L5.5,23.8 C5.6,24 5.801,24.2 5.999,24.3 L5.999,24.3 C6.1,24.4 6.2,24.4 6.3,24.4 L6.3,24.4 C6.4,24.4 6.6,24.4 6.5,24.2 L6.5,24.2 L27.1,14 C27.4,13.8 27.6,13.4 27.5,13 L27.5,13 L23.7,0.8 C23.6,0.6 23.5,0.4 23.3,0.3 L23.3,0.3 C23.2,0.25 23.1,0.225 23,0.225 L23,0.225 C22.9,0.225 22.8,0.25 22.7,0.3 L22.7,0.3 Z M2.7,9.1 L22.6,2.2 L25.999,12.9 L6.9,22.4 L2.7,9.1 Z" id="path-11"></path>
    </defs>
    <g id="infographie-4" stroke="none" stroke-width="1" fill="none" fill-rule="evenodd">
        <g id="Group-83" transform="translate(20.000000, 4.000000)">
            <g id="Group-35" transform="translate(0.000000, 0.541000)">
                <path d="M22.6002,108.4 C19.7002,108.4 17.3002,110.8 17.3002,113.7 C17.3002,116.5 19.7002,118.9 22.6002,118.9 C25.4992,118.9 27.9002,116.6 27.9002,113.7 C27.9002,110.8 25.4992,108.4 22.6002,108.4 M22.6002,120 C19.2002,120 16.1002,117.2 16.1002,113.7 C16.1002,110.1 18.9992,107.3 22.6002,107.3 C26.1002,107.3 29.1002,110.1 29.1002,113.7 C29.1002,117.3 26.2002,120 22.6002,120" id="Fill-1" fill="#21375D"></path>
                <path d="M36.6002,108.9 C35.9002,108.6 35.3002,108.6 34.4992,108.6 L32.4002,108.6 L32.4002,113.7 L34.4992,113.7 C35.3002,113.7 35.9002,113.7 36.6002,113.4 C37.4992,113 37.9992,112.2 37.9992,111.2 C37.9992,110.2 37.4992,109.3 36.6002,108.9 M37.7002,114.1 C36.8002,114.7 35.6002,114.8 34.4992,114.8 L32.3002,114.8 L32.3002,119.8 L31.1002,119.8 L31.1002,107.5 L34.4992,107.5 C35.6002,107.5 36.7002,107.6 37.7002,108.2 C38.7002,108.9 39.2002,110 39.2002,111.2 C39.3002,112.4 38.7002,113.4 37.7002,114.1" id="Fill-3" fill="#21375D"></path>
                <path d="M42.9,106.8004 L42.4,105.8004 L45.7,103.9994 L46.2,104.9994 L42.9,106.8004 Z M40.9,119.8004 L40.9,107.4994 L47.6,107.4994 L47.6,108.6004 L42.1,108.6004 L42.1,112.9994 L47.4,112.9994 L47.4,114.1004 L42.1,114.1004 L42.1,118.6004 L47.6,118.6004 L47.6,119.6994 L40.9,119.6994 L40.9,119.8004 Z" id="Fill-5" fill="#21375D"></path>
                <path d="M54.4996,115.1998 L57.9996,119.8008 L56.4996,119.8008 L52.3006,114.1998 C53.1006,114.1998 54.1996,114.1998 54.8996,113.9998 C56.1006,113.5998 56.8996,112.6998 56.8996,111.3998 C56.8996,110.4998 56.3996,109.4998 55.6006,108.9998 C54.8006,108.5998 54.1006,108.4998 53.1996,108.4998 L51.1006,108.4998 L51.1006,119.6998 L49.8996,119.6998 L49.8996,107.3998 L52.9996,107.3998 C53.8996,107.3998 55.1996,107.3998 55.9996,107.8998 C57.3996,108.5998 58.1996,109.8998 58.1996,111.3998 C58.1996,113.5998 56.6006,115.0998 54.4996,115.1998" id="Fill-7" fill="#21375D"></path>
                <path d="M64.9,108.9 L62.5,114.6 L67.3,114.6 L64.9,108.9 Z M69.6,119.8 L67.8,115.7 L62.1,115.7 L60.3,119.8 L59,119.8 L64.3,107.5 L65.7,107.5 L71,119.8 L69.6,119.8 Z" id="Fill-9" fill="#21375D"></path>
                <polygon id="Fill-11" fill="#21375D" points="75.1998 108.6002 75.1998 119.8002 73.9998 119.8002 73.9998 108.6002 71.1998 108.6002 71.1998 107.4992 78.0998 107.4992 78.0998 108.6002"></polygon>
                <mask id="mask-2" fill="white">
                    <use xlink:href="#path-1"></use>
                </mask>
                <g id="Clip-14"></g>
                <polygon id="Fill-13" fill="#21375D" mask="url(#mask-2)" points="79.4 119.801 80.6 119.801 80.6 107.5 79.4 107.5"></polygon>
                <path d="M89.1998,108.4 C86.3008,108.4 83.8998,110.8 83.8998,113.7 C83.8998,116.5 86.3008,118.9 89.1998,118.9 C92.0998,118.9 94.4998,116.6 94.4998,113.7 C94.4998,110.8 92.0998,108.4 89.1998,108.4 M89.1998,120 C85.8008,120 82.6998,117.2 82.6998,113.7 C82.6998,110.1 85.5998,107.3 89.1998,107.3 C92.6998,107.3 95.6998,110.1 95.6998,113.7 C95.6998,117.3 92.6998,120 89.1998,120" id="Fill-15" fill="#21375D" mask="url(#mask-2)"></path>
                <polygon id="Fill-16" fill="#21375D" mask="url(#mask-2)" points="106.1998 119.8004 98.8998 108.9994 98.8998 119.8004 97.6998 119.8004 97.6998 107.4994 99.3998 107.4994 106.3008 117.6994 106.3008 107.4994 107.4998 107.4994 107.4998 119.8004"></polygon>
                <path d="M5.9,128.9 L3.5,134.6 L8.3,134.6 L5.9,128.9 Z M10.6,139.8 L8.8,135.7 L3.1,135.7 L1.3,139.8 L0,139.8 L5.3,127.5 L6.7,127.5 L12,139.8 L10.6,139.8 Z" id="Fill-17" fill="#21375D" mask="url(#mask-2)"></path>
                <polygon id="Fill-18" fill="#21375D" mask="url(#mask-2)" points="18.4996 139.8004 17.3006 139.8004 12.1996 127.4994 13.6006 127.4994 17.8996 138.3004 22.3006 127.4994 23.6006 127.4994"></polygon>
                <polygon id="Fill-19" fill="#21375D" mask="url(#mask-2)" points="24.9 139.8004 24.9 127.4994 31.6 127.4994 31.6 128.6004 26.1 128.6004 26.1 132.9994 31.4 132.9994 31.4 134.1004 26.1 134.1004 26.1 138.6004 31.6 138.6004 31.6 139.6994 24.9 139.6994"></polygon>
                <path d="M39.9,139.9996 C36.4,139.9996 33.5,137.1996 33.5,133.6006 C33.5,129.9996 36.3,127.1996 39.9,127.1996 C41.8,127.1996 43.5,127.9996 44.8,129.3996 C45.1,129.6996 45.4,130.1006 45.6,130.6006 L44.2,130.6006 C43.3,129.1996 41.6,128.3996 39.9,128.3996 C37.1,128.3996 34.7,130.8996 34.7,133.6996 C34.7,136.4996 37.1,138.8996 39.9,138.8996 C41.7,138.8996 43.2,137.9996 44.2,136.6006 L45.6,136.6006 C44.4,138.6006 42.2,139.9996 39.9,139.9996" id="Fill-20" fill="#21375D" mask="url(#mask-2)"></path>
                <path d="M54.9996,139.9996 C52.8006,139.9996 51.1996,138.6006 51.1996,136.3006 L52.3996,136.3006 C52.4996,137.8006 53.3996,138.8006 54.9996,138.8006 C56.3996,138.8006 57.4996,137.6996 57.4996,136.3996 C57.4996,134.6996 56.1006,134.1996 54.8006,133.8006 C53.1006,133.3006 51.6006,132.6996 51.6006,130.6006 C51.6006,128.6996 53.1996,127.3006 55.1006,127.3006 C56.9996,127.3006 58.4996,128.6996 58.4996,130.6006 L57.3006,130.6006 C57.3006,129.3996 56.3006,128.3996 55.1006,128.3996 C53.8996,128.3996 52.8996,129.3006 52.8996,130.4996 C52.8996,132.1006 54.6006,132.3996 55.8006,132.8006 C57.6006,133.3006 58.8006,134.3996 58.8006,136.3996 C58.6996,138.3996 56.9996,139.9996 54.9996,139.9996" id="Fill-21" fill="#21375D" mask="url(#mask-2)"></path>
                <polygon id="Fill-22" fill="#21375D" mask="url(#mask-2)" points="60.3004 139.8004 60.3004 127.4994 66.9994 127.4994 66.9994 128.6004 61.4994 128.6004 61.4994 132.9994 66.8004 132.9994 66.8004 134.1004 61.4994 134.1004 61.4994 138.6004 66.9994 138.6004 66.9994 139.6994 60.3004 139.6994"></polygon>
                <path d="M73.9,135.1998 L77.4,139.8008 L75.9,139.8008 L71.7,134.1998 C72.5,134.1998 73.6,134.1998 74.3,133.9998 C75.5,133.5998 76.3,132.6998 76.3,131.3998 C76.3,130.4998 75.8,129.4998 75,128.9998 C74.2,128.5998 73.5,128.4998 72.6,128.4998 L70.5,128.4998 L70.5,139.6998 L69.3,139.6998 L69.3,127.3998 L72.4,127.3998 C73.3,127.3998 74.6,127.3998 75.4,127.8998 C76.8,128.5998 77.6,129.8998 77.6,131.3998 C77.6,133.4998 76,134.9998 73.9,135.1998" id="Fill-23" fill="#21375D" mask="url(#mask-2)"></path>
                <polygon id="Fill-24" fill="#21375D" mask="url(#mask-2)" points="84.6002 139.8004 83.4002 139.8004 78.3002 127.4994 79.7002 127.4994 83.9992 138.3004 88.4002 127.4994 89.7002 127.4994"></polygon>
                <polygon id="Fill-25" fill="#21375D" mask="url(#mask-2)" points="91.1 139.801 92.3 139.801 92.3 127.5 91.1 127.5"></polygon>
                <path d="M100.8004,139.9996 C97.3004,139.9996 94.4004,137.1996 94.4004,133.6006 C94.4004,129.9996 97.1994,127.1996 100.8004,127.1996 C102.6994,127.1996 104.4004,127.9996 105.6994,129.3996 C105.9994,129.6996 106.3004,130.1006 106.4994,130.6006 L105.1004,130.6006 C104.1994,129.1996 102.4994,128.3996 100.8004,128.3996 C97.9994,128.3996 95.6004,130.8996 95.6004,133.6996 C95.6004,136.4996 97.9994,138.8996 100.8004,138.8996 C102.6004,138.8996 104.1004,137.9996 105.1004,136.6006 L106.4994,136.6006 C105.3004,138.6006 103.1994,139.9996 100.8004,139.9996" id="Fill-26" fill="#21375D" mask="url(#mask-2)"></path>
                <polygon id="Fill-27" fill="#21375D" mask="url(#mask-2)" points="108.3004 139.8004 108.3004 127.4994 114.9994 127.4994 114.9994 128.6004 109.4994 128.6004 109.4994 132.9994 114.8004 132.9994 114.8004 134.1004 109.4994 134.1004 109.4994 138.6004 114.9994 138.6004 114.9994 139.6994 108.3004 139.6994"></polygon>
                <path d="M120.1998,139.9996 C117.9998,139.9996 116.3998,138.6006 116.3998,136.3006 L117.5998,136.3006 C117.6998,137.8006 118.5998,138.8006 120.1998,138.8006 C121.5998,138.8006 122.6998,137.6996 122.6998,136.3996 C122.6998,134.6996 121.3008,134.1996 119.9998,133.8006 C118.3008,133.3006 116.8008,132.6996 116.8008,130.6006 C116.8008,128.6996 118.3998,127.3006 120.3008,127.3006 C122.1998,127.3006 123.6998,128.6996 123.6998,130.6006 L122.4998,130.6006 C122.4998,129.3996 121.4998,128.3996 120.3008,128.3996 C119.0998,128.3996 118.0998,129.3006 118.0998,130.4996 C118.0998,132.1006 119.8008,132.3996 120.9998,132.8006 C122.8008,133.3006 123.9998,134.3996 123.9998,136.3996 C123.8998,138.3996 122.3008,139.9996 120.1998,139.9996" id="Fill-28" fill="#21375D" mask="url(#mask-2)"></path>
                <path d="M68.9996,23.0001 L68.9996,23.0001 C68.4996,23.0001 68.1996,22.6001 68.1996,22.2001 L68.4996,6.0001 C68.4996,5.9001 68.4996,5.8001 68.3996,5.6001 C68.3996,5.5001 68.3006,5.4001 68.3006,5.3001 C68.1996,5.2001 68.1996,5.2001 68.1006,5.1001 L44.6006,2.1001 L44.3996,2.1001 C44.3006,2.1001 44.3006,2.2001 44.1996,2.2001 C44.1006,2.3001 44.1006,2.4001 43.9996,2.5001 C43.9996,2.6001 43.8996,2.8001 43.8996,2.9001 L43.8996,17.4001 C43.8996,17.9001 43.4996,18.2001 43.1006,18.2001 C42.6006,18.2001 42.3006,17.8001 42.3006,17.4001 L42.3006,2.9001 C42.3006,2.6001 42.3996,2.2001 42.4996,1.9001 C42.6006,1.6001 42.8006,1.3001 42.9996,1.1001 C43.1996,0.9001 43.4996,0.7001 43.8006,0.6001 C44.1006,0.5001 44.3996,0.4001 44.8006,0.5001 L68.3006,3.4001 C68.6006,3.4001 68.8996,3.6001 69.1006,3.7001 C69.3006,3.9001 69.4996,4.1001 69.6996,4.3001 C69.8996,4.5001 69.9996,4.8001 70.1006,5.1001 C70.1996,5.4001 70.1996,5.7001 70.1996,6.0001 L70.1006,8.9001 L69.8996,22.2001 C69.8006,22.6001 69.3996,23.0001 68.9996,23.0001" id="Fill-29" fill="#9D9D9C" mask="url(#mask-2)"></path>
                <path d="M88.6998,87.3004 L87.0998,87.1994 L88.1998,68.4994 L84.3998,56.4004 L84.3998,56.1004 L85.8998,28.5004 L81.9998,19.5004 L69.5998,19.0004 L69.6998,17.3004 L82.5998,17.9004 C82.8998,17.9004 83.1998,18.1004 83.3008,18.4004 L87.4998,28.1004 C87.4998,28.1994 87.5998,28.3004 87.5998,28.5004 L86.0998,56.2004 L89.8998,68.3004 L89.8998,68.6004 L88.6998,87.3004 Z" id="Fill-30" fill="#9D9D9C" mask="url(#mask-2)"></path>
                <polygon id="Fill-31" fill="#9D9D9C" mask="url(#mask-2)" points="67.8306 41.2545 68.0306 32.8575 69.7296 32.8975 69.5296 41.2955"></polygon>
                <polygon id="Fill-32" fill="#9D9D9C" mask="url(#mask-2)" points="67.8795 66.2946 68.0775 61.2986 69.7755 61.3656 69.5775 66.3616"></polygon>
                <path d="M69.1998,79.1002 L68.5998,99.6002 L87.0998,86.8002 L88.0998,69.8002 L69.1998,79.1002 Z M67.6998,102.1002 C67.5998,102.1002 67.3998,102.1002 67.3008,101.9992 C66.9998,101.9002 66.8998,101.6002 66.8998,101.2002 L67.5998,78.6002 C67.5998,78.3002 67.8008,77.9992 68.0998,77.9002 L88.6998,67.7002 C88.9998,67.6002 89.3008,67.6002 89.4998,67.8002 C89.6998,68.0002 89.8998,68.2002 89.8998,68.4992 L88.8008,87.4002 C88.8008,87.7002 88.6998,87.9002 88.3998,87.9992 L68.1998,101.9992 C67.9998,101.9992 67.8008,102.1002 67.6998,102.1002 L67.6998,102.1002 Z" id="Fill-33" fill="#9D9D9C" mask="url(#mask-2)"></path>
                <path d="M65.3004,30.4 L64.4994,62.4 L84.3004,55.5 L85.6994,29.2 L65.3004,30.4 Z M63.6994,64.4 C63.4994,64.4 63.4004,64.3 63.1994,64.2 C62.9994,64 62.9004,63.8 62.9004,63.5 L63.6994,29.5 C63.6994,29.1 63.9994,28.7 64.4994,28.7 L86.6004,27.4 C86.8004,27.4 87.1004,27.5 87.1994,27.6 C87.4004,27.8 87.4994,28 87.4004,28.2 L85.9004,56 C85.9004,56.3 85.6994,56.6 85.3004,56.7 L63.9004,64.2 C63.9004,64.4 63.8004,64.4 63.6994,64.4 L63.6994,64.4 Z" id="Fill-34" fill="#9D9D9C" mask="url(#mask-2)"></path>
            </g>
            <g id="Group-38" transform="translate(62.000000, 27.541000)">
                <mask id="mask-4" fill="white">
                    <use xlink:href="#path-3"></use>
                </mask>
                <g id="Clip-37"></g>
                <path d="M3.3004,3.4 L2.4994,35.4 L22.3004,28.5 L23.6994,2.2 L3.3004,3.4 Z M1.6994,37.4 C1.4994,37.4 1.4004,37.3 1.1994,37.2 C0.9994,37 0.9004,36.8 0.9004,36.5 L1.6994,2.5 C1.6994,2.1 1.9994,1.7 2.4994,1.7 L24.6004,0.4 C24.8004,0.4 25.1004,0.5 25.1994,0.6 C25.4004,0.8 25.4994,1 25.4004,1.2 L23.9004,29 C23.9004,29.3 23.6994,29.6 23.3004,29.7 L1.9004,37.2 C1.9004,37.4 1.8004,37.4 1.6994,37.4 L1.6994,37.4 Z" id="Fill-36" fill="#9D9D9C" mask="url(#mask-4)"></path>
            </g>
            <path d="M64.6998,64.6412 L68.8998,77.9412 L87.9998,68.4412 L84.5998,57.7412 L64.6998,64.6412 Z M68.3998,79.9412 C68.3008,79.9412 68.1998,79.9412 68.0998,79.8412 C67.8998,79.7412 67.6998,79.5402 67.5998,79.3412 L62.8998,64.3412 C62.8008,63.9412 62.9998,63.4412 63.3998,63.3412 L84.8008,55.8412 C84.9998,55.7412 85.1998,55.7412 85.3998,55.8412 C85.5998,55.9412 85.6998,56.1412 85.8008,56.3412 L89.5998,68.5412 C89.6998,68.9412 89.4998,69.3412 89.1998,69.5402 L68.5998,79.7412 C68.5998,79.9412 68.4998,79.9412 68.3998,79.9412 L68.3998,79.9412 Z" id="Fill-39" fill="#9D9D9C"></path>
            <g id="Group-43" transform="translate(62.000000, 55.541000)">
                <mask id="mask-6" fill="white">
                    <use xlink:href="#path-5"></use>
                </mask>
                <g id="Clip-42"></g>
                <path d="M2.6998,9.1002 L6.8998,22.4002 L25.9998,12.9002 L22.5998,2.2002 L2.6998,9.1002 Z M6.3998,24.4002 C6.3008,24.4002 6.1998,24.4002 6.0998,24.3002 C5.8998,24.2002 5.6998,23.9992 5.5998,23.8002 L0.8998,8.8002 C0.8008,8.4002 0.9998,7.9002 1.3998,7.8002 L22.8008,0.3002 C22.9998,0.2002 23.1998,0.2002 23.3998,0.3002 C23.5998,0.4002 23.6998,0.6002 23.8008,0.8002 L27.5998,13.0002 C27.6998,13.4002 27.4998,13.8002 27.1998,13.9992 L6.5998,24.2002 C6.5998,24.4002 6.4998,24.4002 6.3998,24.4002 L6.3998,24.4002 Z" id="Fill-41" fill="#9D9D9C" mask="url(#mask-6)"></path>
            </g>
            <g id="Group-69" transform="translate(0.000000, 0.541000)">
                <path d="M69.1002,79.1002 L68.4992,99.6002 L86.9992,86.8002 L87.9992,69.8002 L69.1002,79.1002 Z M67.6002,101.9992 C67.4992,101.9992 67.3002,101.9992 67.2002,101.9002 C66.9002,101.8002 66.8002,101.4992 66.8002,101.1002 L67.4992,78.4992 C67.4992,78.2002 67.7002,77.9002 67.9992,77.8002 L88.6002,67.6002 C88.9002,67.5002 89.2002,67.5002 89.4002,67.7002 C89.6002,67.9002 89.8002,68.1002 89.8002,68.4002 L88.7002,87.2002 C88.7002,87.4992 88.6002,87.7002 88.3002,87.8002 L68.1002,101.8002 C67.9002,101.9992 67.8002,101.9992 67.6002,101.9992 L67.6002,101.9992 Z" id="Fill-44" fill="#9D9D9C"></path>
                <path d="M68.3004,84.1002 C67.9994,84.1002 67.6994,83.9002 67.6004,83.7002 C67.4004,83.3002 67.4994,82.8002 67.9004,82.6002 L88.3004,71.9002 C88.6994,71.7002 89.1994,71.8002 89.4004,72.2002 C89.6004,72.6002 89.4994,73.1002 89.1004,73.3002 L68.6994,83.9992 C68.6004,84.1002 68.4004,84.1002 68.3004,84.1002" id="Fill-46" fill="#9D9D9C"></path>
                <path d="M84.3004,27.6998 L82.9004,27.6998 L82.9004,24.4998 C82.9004,23.6998 82.3004,23.0998 81.4994,23.0998 L61.1994,22.9998 L61.1994,21.5998 L81.4994,21.6998 C83.1004,21.6998 84.3004,22.9998 84.3004,24.4998 L84.3004,27.6998 Z" id="Fill-48" fill="#E20A17"></path>
                <path d="M64.4,33.9 C64,33.9 63.6,33.6 63.6,33.1 C63.6,32.6 63.9,32.3 64.4,32.2 L86.1,30.8 C86.6,30.8 86.9,31.1 87,31.6 C87,32.1 86.7,32.4 86.2,32.5 L64.4,33.9 C64.5,33.9 64.4,33.9 64.4,33.9" id="Fill-50" fill="#9D9D9C"></path>
                <mask id="mask-8" fill="white">
                    <use xlink:href="#path-7"></use>
                </mask>
                <g id="Clip-53"></g>
                <polygon id="Fill-52" fill="#E20A17" mask="url(#mask-8)" points="77.2 28.1 78.6 28.1 78.6 22.6 77.2 22.6"></polygon>
                <polygon id="Fill-54" fill="#E20A17" mask="url(#mask-8)" points="71.9 28.7 73.3 28.7 73.3 22.7 71.9 22.7"></polygon>
                <polygon id="Fill-55" fill="#E20A17" mask="url(#mask-8)" points="66.9 28.6002 65.4 28.7002 65.4 22.7002 66.9 22.7002"></polygon>
                <path d="M84.1998,49.1998 L82.8008,49.1998 L82.8998,45.5998 C82.8998,45.2998 82.8008,44.9998 82.5998,44.7998 C82.3998,44.5998 82.0998,44.5998 81.6998,44.5998 L64.1998,48.1998 L64.0998,46.6998 L81.3998,43.0998 C82.1998,42.8998 82.8998,43.0998 83.4998,43.4998 C84.0998,43.8998 84.3998,44.5998 84.3998,45.3998 L84.1998,49.1998 Z" id="Fill-56" fill="#E20A17" mask="url(#mask-8)"></path>
                <path d="M79.4,44.7999 L77.9,44.7999 L77.9,41.5999 C77.9,41.2999 77.8,40.9999 77.6,40.7999 C77.4,40.5999 77.1,40.5999 76.7,40.5999 L64.2,42.5999 L64.7,40.9999 L76.5,39.1999 C77.2,38.9999 78,39.1999 78.6,39.6999 C79.2,40.0999 79.5,40.7999 79.5,41.5999 L79.5,44.7999 L79.4,44.7999 Z" id="Fill-57" fill="#E20A17" mask="url(#mask-8)"></path>
                <polygon id="Fill-58" fill="#E20A17" mask="url(#mask-8)" points="77.2 50.5 78.6 50.5 78.6 45 77.2 45"></polygon>
                <polygon id="Fill-59" fill="#E20A17" mask="url(#mask-8)" points="69.7 46.6 71 46.6 71 41.1 69.7 41.1"></polygon>
                <polygon id="Fill-60" fill="#E20A17" mask="url(#mask-8)" points="71.9 52.2 73.3 52.2 73.3 46.2 71.9 46.2"></polygon>
                <polygon id="Fill-61" fill="#E20A17" mask="url(#mask-8)" points="68.1002 53.0001 66.7002 53.8001 66.7002 47.0001 68.1002 47.0001"></polygon>
                <path d="M67.4,73.1002 L66.8,71.8002 L83.4,64.8002 C84.2,64.4002 85,64.5002 85.6,64.9002 C86.2,65.3002 86.5,65.9002 86.5,66.7002 L86.5,69.1002 L85.1,70.1002 L85.1,66.8002 C85.1,66.6002 85.1,66.4002 84.9,66.2002 C84.7,66.1002 84.4,66.1002 84,66.3002 L67.4,73.1002 Z" id="Fill-62" fill="#E20A17" mask="url(#mask-8)"></path>
                <path d="M65.6998,68.4 L65.1998,67.1 L77.5998,62.4 C78.3998,62.1 79.1998,62.1 79.8008,62.5 C80.3998,62.9 80.6998,63.5 80.6998,64.3 L80.6998,67.5 L79.3008,67.5 L79.3008,64.3 C79.3008,64.1 79.3008,63.9 79.0998,63.7 C78.8998,63.6 78.5998,63.6 78.1998,63.8 L65.6998,68.4 Z" id="Fill-63" fill="#E20A17" mask="url(#mask-8)"></path>
                <polygon id="Fill-64" fill="#E20A17" mask="url(#mask-8)" points="80.8004 71.9 79.4004 72.9 79.4004 66.4 80.8004 66.4"></polygon>
                <polygon id="Fill-65" fill="#E20A17" mask="url(#mask-8)" points="75.4996 74.8004 73.9996 75.6994 73.9996 68.8004 75.4996 68.8004"></polygon>
                <polygon id="Fill-66" fill="#E20A17" mask="url(#mask-8)" points="70.4 77.1002 69 78.1002 69 66.0002 70.4 66.0002"></polygon>
                <polygon id="Fill-67" fill="#E20A17" mask="url(#mask-8)" points="74.2 69.2 75.6 69.2 75.6 64.1 74.2 64.1"></polygon>
                <path d="M65.3004,30.4 L64.4994,62.4 L84.3004,55.5 L85.6994,29.2 L65.3004,30.4 Z M63.6004,64.4 C63.4004,64.4 63.3004,64.3 63.1004,64.2 C62.9004,64 62.8004,63.8 62.8004,63.5 L63.6004,29.5 C63.6004,29.1 63.9004,28.7 64.4004,28.7 L86.4994,27.4 C86.6994,27.4 86.9994,27.5 87.1004,27.6 C87.3004,27.8 87.4004,28 87.3004,28.2 L85.8004,56 C85.8004,56.3 85.6004,56.6 85.1994,56.7 L63.9004,64.4 L63.6004,64.4 Z" id="Fill-68" fill="#9D9D9C" mask="url(#mask-8)"></path>
            </g>
            <g id="Group-72" transform="translate(62.000000, 27.541000)">
                <mask id="mask-10" fill="white">
                    <use xlink:href="#path-9"></use>
                </mask>
                <g id="Clip-71"></g>
                <path d="M3.3004,3.4 L2.4994,35.4 L22.3004,28.5 L23.6994,2.2 L3.3004,3.4 Z M1.6004,37.4 C1.4004,37.4 1.3004,37.3 1.1004,37.2 C0.9004,37 0.8004,36.8 0.8004,36.5 L1.6004,2.5 C1.6004,2.1 1.9004,1.7 2.4004,1.7 L24.4994,0.4 C24.6994,0.4 24.9994,0.5 25.1004,0.6 C25.3004,0.8 25.4004,1 25.3004,1.2 L23.8004,29 C23.8004,29.3 23.6004,29.6 23.1994,29.7 L1.9004,37.4 L1.6004,37.4 Z" id="Fill-70" fill="#9D9D9C" mask="url(#mask-10)"></path>
            </g>
            <g id="Group-77" transform="translate(42.000000, 16.541000)" fill="#9D9D9C">
                <path d="M2.1002,75.9 L24.9002,84.1 L25.6002,62.7 L20.9992,47.8 L20.9992,47.5 L21.8002,13.7 L17.1002,2.7 L1.9002,2.1 L2.1002,75.9 Z M25.7002,86.1 L25.4002,86.1 L0.9992,77.3 C0.7002,77.2 0.4992,76.9 0.4992,76.5 L0.2002,1.4 C0.2002,1.2 0.3002,1 0.4992,0.8 C0.7002,0.6 0.9002,0.6 1.1002,0.6 L17.7002,1.3 C17.9992,1.3 18.3002,1.5 18.4002,1.8 L23.4002,13.4 C23.4002,13.5 23.4992,13.6 23.4992,13.7 L22.7002,47.6 L27.3002,62.5 L27.3002,62.8 L26.6002,85.4 C26.6002,85.7 26.4992,85.9 26.2002,86.1 C25.9992,86 25.8002,86.1 25.7002,86.1 L25.7002,86.1 Z" id="Fill-73"></path>
                <path d="M22.6998,48.1002 L26.8998,61.4002 L45.9998,51.9002 L42.5998,41.2002 L22.6998,48.1002 Z M26.3008,63.4002 C26.1998,63.4002 26.0998,63.4002 25.9998,63.3002 C25.8008,63.2002 25.5998,62.9992 25.4998,62.8002 L20.8008,47.8002 C20.6998,47.4002 20.8998,46.9002 21.3008,46.8002 L42.6998,39.3002 C42.8998,39.2002 43.0998,39.2002 43.3008,39.3002 C43.4998,39.4002 43.5998,39.6002 43.6998,39.8002 L47.4998,52.0002 C47.5998,52.4002 47.3998,52.8002 47.0998,52.9992 L26.4998,63.2002 C26.5998,63.4002 26.3998,63.4002 26.3008,63.4002 L26.3008,63.4002 Z" id="Fill-75"></path>
            </g>
            <g id="Group-80" transform="translate(62.000000, 55.541000)">
                <mask id="mask-12" fill="white">
                    <use xlink:href="#path-11"></use>
                </mask>
                <g id="Clip-79"></g>
                <path d="M2.6998,9.1002 L6.8998,22.4002 L25.9998,12.9002 L22.5998,2.2002 L2.6998,9.1002 Z M6.3008,24.4002 C6.1998,24.4002 6.0998,24.4002 5.9998,24.3002 C5.8008,24.2002 5.5998,23.9992 5.4998,23.8002 L0.8008,8.8002 C0.6998,8.4002 0.8998,7.9002 1.3008,7.8002 L22.6998,0.3002 C22.8998,0.2002 23.0998,0.2002 23.3008,0.3002 C23.4998,0.4002 23.5998,0.6002 23.6998,0.8002 L27.4998,13.0002 C27.5998,13.4002 27.3998,13.8002 27.0998,13.9992 L6.4998,24.2002 C6.5998,24.4002 6.3998,24.4002 6.3008,24.4002 L6.3008,24.4002 Z" id="Fill-78" fill="#9D9D9C" mask="url(#mask-12)"></path>
            </g>
            <polygon id="Fill-81" fill="#9D9D9C" points="63.5797 54.588 85.0837 48.685 85.5337 50.325 64.0297 56.228"></polygon>
        </g>
    </g>
</svg>