<?xml version="1.0" encoding="UTF-8"?>
<svg width="164px" height="149px" viewBox="0 0 164 149" version="1.1" xmlns="http://www.w3.org/2000/svg" xmlns:xlink="http://www.w3.org/1999/xlink">
    <!-- Generator: Sketch 57.1 (83088) - https://sketch.com -->
    <title>infographie-2</title>
    <desc>Created with Sketch.</desc>
    <defs>
        <polygon id="path-1" points="0.1437 0.7004 8.4437 0.7004 8.4437 13 0.1437 13"></polygon>
        <polygon id="path-3" points="0 114.444 113.388 114.444 113.388 0 0 0"></polygon>
    </defs>
    <g id="infographie-2" stroke="none" stroke-width="1" fill="none" fill-rule="evenodd">
        <g id="Group-108" transform="translate(25.000000, 0.000000)">
            <path d="M13.8438,103.5436 C13.1438,103.2436 12.5438,103.2436 11.7438,103.2436 L9.6438,103.2436 L9.6438,108.3446 L11.7438,108.3446 C12.5438,108.3446 13.1438,108.3446 13.8438,108.0436 C14.7438,107.6446 15.2438,106.8446 15.2438,105.8446 C15.2438,104.8446 14.7438,103.9436 13.8438,103.5436 M14.9438,108.7436 C14.0438,109.3446 12.8438,109.4436 11.7438,109.4436 L9.5438,109.4436 L9.5438,114.4436 L8.3438,114.4436 L8.3438,102.1446 L11.7438,102.1446 C12.8438,102.1446 13.9438,102.2436 14.9438,102.8446 C15.9438,103.5436 16.4438,104.6446 16.4438,105.8446 C16.4438,106.9436 15.9438,108.0436 14.9438,108.7436" id="Fill-1" fill="#21375D"></path>
            <polygon id="Fill-3" fill="#21375D" points="18.1441 114.444 18.1441 102.144 24.8441 102.144 24.8441 103.244 19.3441 103.244 19.3441 107.644 24.6441 107.644 24.6441 108.744 19.3441 108.744 19.3441 113.244 24.8441 113.244 24.8441 114.344 18.1441 114.344"></polygon>
            <g id="Group-7" transform="translate(27.000000, 101.444000)">
                <mask id="mask-2" fill="white">
                    <use xlink:href="#path-1"></use>
                </mask>
                <g id="Clip-6"></g>
                <path d="M4.7437,8.4004 L8.2437,13.0004 L6.7437,13.0004 L2.5437,7.4004 C3.3437,7.4004 4.4437,7.4004 5.1437,7.2004 C6.3437,6.7994 7.1437,5.9004 7.1437,4.5994 C7.1437,3.7004 6.6437,2.7004 5.8437,2.2004 C5.0437,1.7994 4.3437,1.7004 3.4437,1.7004 L1.3437,1.7004 L1.3437,13.0004 L0.1437,13.0004 L0.1437,0.7004 L3.2437,0.7004 C4.1437,0.7004 5.4437,0.7004 6.2437,1.2004 C7.6437,1.9004 8.4437,3.2004 8.4437,4.7004 C8.3437,6.7004 6.7437,8.2994 4.7437,8.4004" id="Fill-5" fill="#21375D" mask="url(#mask-2)"></path>
            </g>
            <polygon id="Fill-8" fill="#21375D" points="48.7437 114.444 48.7437 103.444 44.1437 114.444 43.1437 114.444 38.5437 103.444 38.5437 114.444 37.3437 114.444 37.3437 102.144 39.2437 102.144 43.7437 112.644 48.2437 102.144 50.1437 102.144 50.1437 114.444"></polygon>
            <path d="M57.4439,103.5436 L55.0439,109.2436 L59.8439,109.2436 L57.4439,103.5436 Z M62.0439,114.4436 L60.2439,110.3446 L54.5439,110.3446 L52.7439,114.4436 L51.4439,114.4436 L56.7439,102.1446 L58.1439,102.1446 L63.4439,114.4436 L62.0439,114.4436 Z" id="Fill-10" fill="#21375D"></path>
            <polygon id="Fill-12" fill="#21375D" points="73.4439 114.444 66.1439 103.644 66.1439 114.444 64.9439 114.444 64.9439 102.144 66.6439 102.144 73.5439 112.344 73.5439 102.144 74.7439 102.144 74.7439 114.444"></polygon>
            <polygon id="Fill-14" fill="#21375D" points="77.044 114.444 77.044 102.144 83.744 102.144 83.744 103.244 78.244 103.244 78.244 107.644 83.544 107.644 83.544 108.744 78.244 108.744 78.244 113.244 83.744 113.244 83.744 114.344 77.044 114.344"></polygon>
            <polygon id="Fill-16" fill="#21375D" points="94.6441 114.444 87.3441 103.644 87.3441 114.444 86.1441 114.444 86.1441 102.144 87.8441 102.144 94.7441 112.344 94.7441 102.144 95.9441 102.144 95.9441 114.444"></polygon>
            <polygon id="Fill-18" fill="#21375D" points="101.3438 103.2438 101.3438 114.4438 100.1438 114.4438 100.1438 103.2438 97.3438 103.2438 97.3438 102.1438 104.2438 102.1438 104.2438 103.2438"></polygon>
            <path d="M108.544,77.444 L6.244,77.444 L6.244,7.444 C6.244,3.844 9.144,0.944 12.744,0.944 L102.044,0.944 C105.644,0.944 108.544,3.844 108.544,7.444 L108.544,77.444 Z" id="Stroke-20" stroke="#9D9D9C" stroke-width="1.888"></path>
            <path d="M21.7437,27.0441 L19.9437,27.0441 C17.9437,27.0441 16.4437,25.4441 16.4437,23.5441 L16.4437,13.3441 C16.4437,11.3441 18.0437,9.8441 19.9437,9.8441 L21.7437,9.8441 C23.7437,9.8441 25.2437,11.4441 25.2437,13.3441 L25.2437,23.5441 C25.2437,25.4441 23.6437,27.0441 21.7437,27.0441 Z" id="Stroke-22" stroke="#9D9D9C" stroke-width="1.936"></path>
            <path d="M21.7437,48.0441 L19.9437,48.0441 C17.9437,48.0441 16.4437,46.4441 16.4437,44.5441 L16.4437,34.3441 C16.4437,32.3441 18.0437,30.8441 19.9437,30.8441 L21.7437,30.8441 C23.7437,30.8441 25.2437,32.4441 25.2437,34.3441 L25.2437,44.4441 C25.2437,46.4441 23.6437,48.0441 21.7437,48.0441 Z" id="Stroke-24" stroke="#9D9D9C" stroke-width="1.936"></path>
            <path d="M21.7437,68.944 L19.9437,68.944 C17.9437,68.944 16.4437,67.344 16.4437,65.444 L16.4437,55.244 C16.4437,53.244 18.0437,51.744 19.9437,51.744 L21.7437,51.744 C23.7437,51.744 25.2437,53.344 25.2437,55.244 L25.2437,65.444 C25.2437,67.444 23.6437,68.944 21.7437,68.944 Z" id="Stroke-26" stroke="#9D9D9C" stroke-width="1.936"></path>
            <path d="M34.6441,27.0441 L32.8441,27.0441 C30.8441,27.0441 29.3441,25.4441 29.3441,23.5441 L29.3441,13.3441 C29.3441,11.3441 30.9441,9.8441 32.8441,9.8441 L34.6441,9.8441 C36.6441,9.8441 38.1441,11.4441 38.1441,13.3441 L38.1441,23.5441 C38.2441,25.4441 36.6441,27.0441 34.6441,27.0441 Z" id="Stroke-28" stroke="#9D9D9C" stroke-width="1.936" stroke-linecap="round" stroke-linejoin="round"></path>
            <path d="M34.6441,48.0441 L32.8441,48.0441 C30.8441,48.0441 29.3441,46.4441 29.3441,44.5441 L29.3441,34.3441 C29.3441,32.3441 30.9441,30.8441 32.8441,30.8441 L34.6441,30.8441 C36.6441,30.8441 38.1441,32.4441 38.1441,34.3441 L38.1441,44.4441 C38.2441,46.4441 36.6441,48.0441 34.6441,48.0441 Z" id="Stroke-30" stroke="#9D9D9C" stroke-width="1.936" stroke-linecap="round" stroke-linejoin="round"></path>
            <path d="M56.8438,27.0441 L48.0438,27.0441 C45.1438,27.0441 42.8438,24.7441 42.8438,21.8441 L42.8438,14.9441 C42.8438,12.0441 45.1438,9.7441 48.0438,9.7441 L56.8438,9.7441 C59.7438,9.7441 62.0438,12.0441 62.0438,14.9441 L62.0438,21.8441 C62.0438,24.7441 59.7438,27.0441 56.8438,27.0441 Z" id="Stroke-32" stroke="#E20A17" stroke-width="1.936"></path>
            <path d="M56.8438,48.0441 L48.0438,48.0441 C45.1438,48.0441 42.8438,45.7441 42.8438,42.8441 L42.8438,35.9441 C42.8438,33.0441 45.1438,30.7441 48.0438,30.7441 L56.8438,30.7441 C59.7438,30.7441 62.0438,33.0441 62.0438,35.9441 L62.0438,42.8441 C62.0438,45.6441 59.7438,48.0441 56.8438,48.0441 Z" id="Stroke-34" stroke="#E20A17" stroke-width="1.936"></path>
            <path d="M56.8438,69.444 L48.0438,69.444 C45.1438,69.444 42.8438,67.144 42.8438,64.244 L42.8438,57.344 C42.8438,54.444 45.1438,52.144 48.0438,52.144 L56.8438,52.144 C59.7438,52.144 62.0438,54.444 62.0438,57.344 L62.0438,64.244 C62.0438,67.144 59.7438,69.444 56.8438,69.444 Z" id="Stroke-36" stroke="#E20A17" stroke-width="1.936"></path>
            <path d="M34.6441,68.944 L32.8441,68.944 C30.8441,68.944 29.3441,67.344 29.3441,65.444 L29.3441,55.244 C29.3441,53.244 30.9441,51.744 32.8441,51.744 L34.6441,51.744 C36.6441,51.744 38.1441,53.344 38.1441,55.244 L38.1441,65.444 C38.2441,67.444 36.6441,68.944 34.6441,68.944 Z" id="Stroke-38" stroke="#9D9D9C" stroke-width="1.936" stroke-linecap="round" stroke-linejoin="round"></path>
            <path d="M71.6441,27.0441 L69.8441,27.0441 C67.8441,27.0441 66.3441,25.4441 66.3441,23.5441 L66.3441,13.3441 C66.3441,11.3441 67.9441,9.8441 69.8441,9.8441 L71.6441,9.8441 C73.6441,9.8441 75.1441,11.4441 75.1441,13.3441 L75.1441,23.5441 C75.1441,25.4441 73.5441,27.0441 71.6441,27.0441 Z" id="Stroke-40" stroke="#9D9D9C" stroke-width="1.936"></path>
            <path d="M71.6441,48.0441 L69.8441,48.0441 C67.8441,48.0441 66.3441,46.4441 66.3441,44.5441 L66.3441,34.3441 C66.3441,32.3441 67.9441,30.8441 69.8441,30.8441 L71.6441,30.8441 C73.6441,30.8441 75.1441,32.4441 75.1441,34.3441 L75.1441,44.4441 C75.1441,46.4441 73.5441,48.0441 71.6441,48.0441 Z" id="Stroke-42" stroke="#9D9D9C" stroke-width="1.936"></path>
            <path d="M71.6441,68.944 L69.8441,68.944 C67.8441,68.944 66.3441,67.344 66.3441,65.444 L66.3441,55.244 C66.3441,53.244 67.9441,51.744 69.8441,51.744 L71.6441,51.744 C73.6441,51.744 75.1441,53.344 75.1441,55.244 L75.1441,65.444 C75.1441,67.444 73.5441,68.944 71.6441,68.944 Z" id="Stroke-44" stroke="#9D9D9C" stroke-width="1.936"></path>
            <path d="M83.6441,27.0441 L81.8441,27.0441 C79.8441,27.0441 78.3441,25.4441 78.3441,23.5441 L78.3441,13.3441 C78.3441,11.3441 79.9441,9.8441 81.8441,9.8441 L83.6441,9.8441 C85.6441,9.8441 87.1441,11.4441 87.1441,13.3441 L87.1441,23.5441 C87.1441,25.4441 85.6441,27.0441 83.6441,27.0441 Z" id="Stroke-46" stroke="#9D9D9C" stroke-width="1.936"></path>
            <path d="M83.6441,48.0441 L81.8441,48.0441 C79.8441,48.0441 78.3441,46.4441 78.3441,44.5441 L78.3441,34.3441 C78.3441,32.3441 79.9441,30.8441 81.8441,30.8441 L83.6441,30.8441 C85.6441,30.8441 87.1441,32.4441 87.1441,34.3441 L87.1441,44.4441 C87.1441,46.4441 85.6441,48.0441 83.6441,48.0441 Z" id="Stroke-48" stroke="#9D9D9C" stroke-width="1.936"></path>
            <path d="M83.6441,68.944 L81.8441,68.944 C79.8441,68.944 78.3441,67.344 78.3441,65.444 L78.3441,55.244 C78.3441,53.244 79.9441,51.744 81.8441,51.744 L83.6441,51.744 C85.6441,51.744 87.1441,53.344 87.1441,55.244 L87.1441,65.444 C87.1441,67.444 85.6441,68.944 83.6441,68.944 Z" id="Stroke-50" stroke="#9D9D9C" stroke-width="1.936"></path>
            <path d="M95.6441,27.0441 L93.8441,27.0441 C91.8441,27.0441 90.3441,25.4441 90.3441,23.5441 L90.3441,13.3441 C90.3441,11.3441 91.9441,9.8441 93.8441,9.8441 L95.6441,9.8441 C97.6441,9.8441 99.1441,11.4441 99.1441,13.3441 L99.1441,23.5441 C99.2441,25.4441 97.6441,27.0441 95.6441,27.0441 Z" id="Stroke-52" stroke="#E20A17" stroke-width="1.936"></path>
            <path d="M95.6441,48.0441 L93.8441,48.0441 C91.8441,48.0441 90.3441,46.4441 90.3441,44.5441 L90.3441,34.3441 C90.3441,32.3441 91.9441,30.8441 93.8441,30.8441 L95.6441,30.8441 C97.6441,30.8441 99.1441,32.4441 99.1441,34.3441 L99.1441,44.4441 C99.2441,46.4441 97.6441,48.0441 95.6441,48.0441 Z" id="Stroke-54" stroke="#E20A17" stroke-width="1.936"></path>
            <path d="M95.6441,68.944 L93.8441,68.944 C91.8441,68.944 90.3441,67.344 90.3441,65.444 L90.3441,55.244 C90.3441,53.244 91.9441,51.744 93.8441,51.744 L95.6441,51.744 C97.6441,51.744 99.1441,53.344 99.1441,55.244 L99.1441,65.444 C99.2441,67.444 97.6441,68.944 95.6441,68.944 Z" id="Stroke-56" stroke="#E20A17" stroke-width="1.936" stroke-linecap="round" stroke-linejoin="round"></path>
            <path d="M20.9439,6.6442 L20.9439,9.7442" id="Stroke-58" stroke="#9D9D9C" stroke-width="1.936" stroke-linecap="round" stroke-linejoin="round"></path>
            <path d="M33.6441,6.6442 L33.6441,9.7442" id="Stroke-60" stroke="#9D9D9C" stroke-width="1.936" stroke-linecap="round" stroke-linejoin="round"></path>
            <path d="M70.7437,6.6442 L70.7437,9.7442" id="Stroke-62" stroke="#9D9D9C" stroke-width="1.936" stroke-linecap="round" stroke-linejoin="round"></path>
            <path d="M52.544,6.6442 L52.544,9.7442" id="Stroke-64" stroke="#E20A17" stroke-width="1.936" stroke-linecap="round" stroke-linejoin="round"></path>
            <path d="M82.7437,6.6442 L82.7437,9.7442" id="Stroke-66" stroke="#9D9D9C" stroke-width="1.936" stroke-linecap="round" stroke-linejoin="round"></path>
            <path d="M94.6441,6.6442 L94.6441,9.7442" id="Stroke-68" stroke="#E20A17" stroke-width="1.936" stroke-linecap="round" stroke-linejoin="round"></path>
            <path d="M52.4439,14.5441 C54.5979,14.5441 56.3439,16.2901 56.3439,18.4441 C56.3439,20.5981 54.5979,22.3441 52.4439,22.3441 C50.2899,22.3441 48.5439,20.5981 48.5439,18.4441 C48.5439,16.2901 50.2899,14.5441 52.4439,14.5441 Z" id="Stroke-70" stroke="#E20A17" stroke-width="1.936"></path>
            <path d="M52.4439,57.1442 C54.5979,57.1442 56.3439,58.8902 56.3439,61.0432 C56.3439,63.1982 54.5979,64.9442 52.4439,64.9442 C50.2899,64.9442 48.5439,63.1982 48.5439,61.0432 C48.5439,58.8902 50.2899,57.1442 52.4439,57.1442 Z" id="Stroke-72" stroke="#E20A17" stroke-width="1.936"></path>
            <path d="M48.4439,41.444 L51.4439,36.044 C51.9439,35.244 53.1439,35.244 53.5439,36.044 L56.5439,41.444 C57.0439,42.244 56.4439,43.244 55.4439,43.244 L49.4439,43.244 C48.6439,43.244 48.0439,42.244 48.4439,41.444 Z" id="Stroke-74" stroke="#E20A17" stroke-width="1.936"></path>
            <path d="M21.044,14.444 L21.044,22.044" id="Stroke-76" stroke="#9D9D9C" stroke-width="1.888" stroke-linecap="round" stroke-linejoin="round"></path>
            <path d="M33.6441,14.444 L33.6441,22.044" id="Stroke-78" stroke="#9D9D9C" stroke-width="1.936" stroke-linecap="round" stroke-linejoin="round"></path>
            <path d="M70.8438,14.444 L70.8438,22.044" id="Stroke-80" stroke="#9D9D9C" stroke-width="1.888" stroke-linecap="round" stroke-linejoin="round"></path>
            <path d="M94.544,14.444 L94.544,22.044" id="Stroke-82" stroke="#E20A17" stroke-width="1.936" stroke-linecap="round" stroke-linejoin="round"></path>
            <path d="M82.6441,14.444 L82.6441,22.044" id="Stroke-84" stroke="#9D9D9C" stroke-width="1.888" stroke-linecap="round" stroke-linejoin="round"></path>
            <path d="M21.044,35.7438 L21.044,43.3438" id="Stroke-86" stroke="#9D9D9C" stroke-width="1.888" stroke-linecap="round" stroke-linejoin="round"></path>
            <path d="M33.6441,35.7438 L33.6441,43.3438" id="Stroke-88" stroke="#9D9D9C" stroke-width="1.936" stroke-linecap="round" stroke-linejoin="round"></path>
            <path d="M70.8438,35.7438 L70.8438,43.3438" id="Stroke-90" stroke="#9D9D9C" stroke-width="1.888" stroke-linecap="round" stroke-linejoin="round"></path>
            <path d="M94.544,35.7438 L94.544,43.3438" id="Stroke-92" stroke="#E20A17" stroke-width="1.936" stroke-linecap="round" stroke-linejoin="round"></path>
            <path d="M82.6441,35.7438 L82.6441,43.3438" id="Stroke-94" stroke="#9D9D9C" stroke-width="1.888" stroke-linecap="round" stroke-linejoin="round"></path>
            <path d="M21.044,56.1442 L21.044,63.7442" id="Stroke-96" stroke="#9D9D9C" stroke-width="1.888" stroke-linecap="round" stroke-linejoin="round"></path>
            <path d="M33.6441,56.1442 L33.6441,63.7442" id="Stroke-98" stroke="#9D9D9C" stroke-width="1.936" stroke-linecap="round" stroke-linejoin="round"></path>
            <path d="M70.8438,56.1442 L70.8438,63.7442" id="Stroke-100" stroke="#9D9D9C" stroke-width="1.888" stroke-linecap="round" stroke-linejoin="round"></path>
            <path d="M94.544,56.1442 L94.544,63.7442" id="Stroke-102" stroke="#E20A17" stroke-width="1.936" stroke-linecap="round" stroke-linejoin="round"></path>
            <path d="M82.6441,56.1442 L82.6441,63.7442" id="Stroke-104" stroke="#9D9D9C" stroke-width="1.888" stroke-linecap="round" stroke-linejoin="round"></path>
            <mask id="mask-4" fill="white">
                <use xlink:href="#path-3"></use>
            </mask>
            <g id="Clip-107"></g>
            <polygon id="Stroke-106" stroke="#9D9D9C" stroke-width="1.888" stroke-linecap="round" stroke-linejoin="round" mask="url(#mask-4)" points="0.944 84.544 112.444 84.544 112.444 77.544 0.944 77.544"></polygon>
        </g>
    </g>
</svg>