<?xml version="1.0" encoding="UTF-8"?>
<svg width="157px" height="156px" viewBox="0 0 157 156" version="1.1" xmlns="http://www.w3.org/2000/svg" xmlns:xlink="http://www.w3.org/1999/xlink">
    <!-- Generator: Sketch 57.1 (83088) - https://sketch.com -->
    <title>logo-cogex-header</title>
    <desc>Created with Sketch.</desc>
    <g id="logo-cogex-header" stroke="none" stroke-width="1" fill="none" fill-rule="evenodd">
        <g id="logo-cogex">
            <polygon id="Fill-1" fill="#E20714" points="0 156.148 156.147 156.148 156.147 0 0 0"></polygon>
            <g id="Group-14" transform="translate(9.000000, 119.148000)" fill="#FEFEFE">
                <path d="M69.382,17.2347 L73.829,17.2347 C72.662,19.1997 70.525,20.5177 68.073,20.5177 C64.376,20.5177 61.379,17.5207 61.379,13.8247 C61.379,10.1277 64.376,7.1307 68.073,7.1307 C70.183,7.1307 72.065,8.1077 73.291,9.6317 L78.44,5.3907 C75.988,2.3817 72.256,0.4607 68.073,0.4607 C60.693,0.4607 54.709,6.4437 54.709,13.8247 C54.709,21.2057 60.693,27.1877 68.073,27.1877 C73.668,27.1877 78.458,23.7487 80.449,18.8697 L80.449,12.1787 L69.382,12.1787 L69.382,17.2347 Z" id="Fill-2"></path>
                <path d="M18.4524,18.3128 C17.2274,19.6648 15.4644,20.5178 13.4964,20.5178 C9.7994,20.5178 6.8024,17.5208 6.8024,13.8248 C6.8024,10.1268 9.7994,7.1298 13.4964,7.1298 C15.5024,7.1298 17.2964,8.0158 18.5234,9.4138 L22.3244,3.8088 C19.9694,1.7308 16.8844,0.4598 13.4964,0.4598 C6.1154,0.4598 0.1324,6.4438 0.1324,13.8248 C0.1324,21.2058 6.1154,27.1878 13.4964,27.1878 C16.8474,27.1878 19.9024,25.9468 22.2474,23.9098 L18.4524,18.3128 Z" id="Fill-4"></path>
                <polygon id="Fill-6" points="108.0002 1.0892 116.5752 13.7332 107.8762 26.5592 112.1662 26.5602 125.1562 7.4062 120.8722 1.0922"></polygon>
                <polygon id="Fill-8" points="137.8918 26.5599 129.3168 13.9149 138.0158 1.0889 133.7258 1.0879 120.7358 20.2419 125.0198 26.5569"></polygon>
                <path d="M51.5813,13.8245 C51.5813,21.2055 45.5983,27.1875 38.2173,27.1875 C30.8363,27.1875 24.8533,21.2055 24.8533,13.8245 C24.8533,6.4435 30.8363,0.4605 38.2173,0.4605 C45.5983,0.4605 51.5813,6.4435 51.5813,13.8245 M38.2173,7.1305 C34.5203,7.1305 31.5233,10.1275 31.5233,13.8245 C31.5233,17.5205 34.5203,20.5175 38.2173,20.5175 C41.9143,20.5175 44.9113,17.5205 44.9113,13.8245 C44.9113,10.1275 41.9143,7.1305 38.2173,7.1305" id="Fill-10"></path>
                <polygon id="Fill-12" points="104.1623 26.5697 104.1623 20.5407 91.2033 20.5407 91.2033 16.3857 102.0093 16.3857 102.0093 10.6837 91.2033 10.6837 91.2033 7.0427 103.8483 7.0427 103.8483 1.0797 84.4863 1.0797 84.4863 26.5697"></polygon>
            </g>
        </g>
    </g>
</svg>