<?xml version="1.0" encoding="UTF-8"?>
<svg width="225px" height="118px" viewBox="0 0 225 118" version="1.1" xmlns="http://www.w3.org/2000/svg" xmlns:xlink="http://www.w3.org/1999/xlink">
    <!-- Generator: Sketch 57.1 (83088) - https://sketch.com -->
    <title>logo-cogex</title>
    <desc>Created with Sketch.</desc>
    <g id="logo-cogex" stroke="none" stroke-width="1" fill="none" fill-rule="evenodd">
        <g id="Group-27">
            <path d="M118.29311,1.28646153 L222.57858,54.8979004 C225.802619,56.5579996 225.808038,61.1639611 222.589417,62.8294855 L118.314785,116.701332 C114.982375,118.426533 111.021412,118.431958 107.683584,116.723033 L2.42277431,62.8349106 C-0.812101796,61.1802366 -0.806683243,56.5417241 2.43361142,54.8924752 L107.705258,1.26476089 C111.032249,-0.427889277 114.976956,-0.422464117 118.29311,1.28646153" id="Fill-1" fill="#E20714"></path>
            <path d="M57,56.6845437 C55.2815783,55.038333 53.112071,53.6374187 50.6794303,53.6374187 C47.4734999,53.6374187 44.8367966,56.2430104 44.8367966,59.4972745 C44.8367966,62.8114999 47.6346019,65.3516793 50.8459024,65.3516793 C53.3107635,65.3516793 55.2815783,64.2723756 57,62.5771057 L56.6939061,73.8062247 C54.9701144,74.6293301 50.9533038,75 49.0415597,75 C40.5998132,75 34,68.344294 34,59.7752769 C34,51.0209249 40.7877656,44 49.4604249,44 C51.9038057,44 54.4116274,44.4415333 56.6939061,45.2373835 L57,56.6845437 Z" id="Fill-3" fill="#891003"></path>
            <path d="M71.2552493,59.7316687 C71.2552493,63.1712678 73.6200787,65.5206612 77,65.5206612 C80.3854987,65.5206612 82.7503281,63.1712678 82.7503281,59.7316687 C82.7503281,56.548268 80.5472441,53.888166 77,53.888166 C73.4639108,53.888166 71.2552493,56.548268 71.2552493,59.7316687 M94,59.5790399 C94,69.2110076 86.3700787,75 77,75 C67.6243438,75 60,69.2110076 60,59.5790399 C60,50.1324072 67.6578084,44 77,44 C86.3310367,44 94,50.1324072 94,59.5790399" id="Fill-5" fill="#891003"></path>
            <path d="M130,56.8317215 C129.915302,61.7321962 129.915302,65.8422718 126.479735,69.6634429 C123.377667,73.1357482 118.618693,75 114.092639,75 C105.188751,75 98,69.3418322 98,59.7098646 C98,49.903464 104.99818,44 114.172043,44 C119.248635,44 126.199173,46.6001407 128.480728,51.7295586 L118.581638,55.4798664 C117.771712,53.9644804 116.257734,53.1577282 114.553184,53.1577282 C110.773532,53.1577282 108.67196,56.5155618 108.67196,60.1295938 C108.67196,63.4383682 110.699421,66.5618076 114.119107,66.5618076 C115.791894,66.5618076 117.930521,65.7605064 118.428122,63.9180587 L113.626799,63.9180587 L113.626799,56.8317215 L130,56.8317215 Z" id="Fill-7" fill="#891003"></path>
            <polygon id="Fill-9" fill="#891003" points="136 44 155.68119 44 155.68119 52.4739706 146.717322 52.4739706 146.717322 55.4373299 154.916047 55.4373299 154.916047 63.4895701 146.717322 63.4895701 146.717322 66.5316525 156 66.5316525 156 75 136 75"></polygon>
            <path d="M191.658624,44 L182.097163,58.5019046 L193,75 L180.362243,75 L176.875774,68.426628 C176.548745,67.80809 176.349201,67.189552 176.221715,66.5316525 L175.894685,66.5316525 C175.700685,67.268275 175.412455,67.965536 175.057711,68.6684201 L171.654385,75 L159,75 L169.708836,58.5019046 L160.108575,44 L172.624389,44 L174.896968,48.3972429 C175.340398,49.2294576 175.578741,50.0897878 175.828171,50.961364 L176.066515,50.961364 C176.277144,50.0504263 176.631888,49.2294576 177.042061,48.3972429 L179.142811,44 L191.658624,44 Z" id="Fill-11" fill="#891003"></path>
            <path d="M57,55.6845437 C55.2815783,54.038333 53.112071,52.6374187 50.6794303,52.6374187 C47.4734999,52.6374187 44.8367966,55.2430104 44.8367966,58.4972745 C44.8367966,61.8114999 47.6346019,64.3571303 50.8459024,64.3571303 C53.3107635,64.3571303 55.2815783,63.2723756 57,61.5771057 L56.6939061,72.8062247 C54.9701144,73.6293301 50.9533038,74 49.0415597,74 C40.5998132,74 34,67.344294 34,58.7752769 C34,50.0209249 40.7877656,43 49.4604249,43 C51.9038057,43 54.4116274,43.4415333 56.6939061,44.2373835 L57,55.6845437 Z" id="Fill-13" fill="#FEFEFE"></path>
            <path d="M71.2552493,58.7289835 C71.2552493,62.1691875 73.6200787,64.518994 77,64.518994 C80.3854987,64.518994 82.7503281,62.1691875 82.7503281,58.7289835 C82.7503281,55.5504749 80.5472441,52.884453 77,52.884453 C73.4639108,52.884453 71.2552493,55.5504749 71.2552493,58.7289835 M94,58.5817798 C94,68.2154414 86.3700787,74 77,74 C67.6243438,74 60,68.2154414 60,58.5817798 C60,49.1280338 67.6578084,43 77,43 C86.3310367,43 94,49.1280338 94,58.5817798" id="Fill-15" fill="#FEFEFE"></path>
            <path d="M130,55.8285262 C129.915302,60.7353148 129.915302,64.8461133 126.479735,68.6679564 C123.377667,72.1354203 118.618693,74 114.092639,74 C105.188751,74 98,68.3408371 98,58.7071755 C98,48.8990503 104.99818,43 114.172043,43 C119.248635,43 126.199173,45.595146 128.480728,50.7254661 L118.581638,54.4764333 C117.771712,52.9607809 116.257734,52.1593387 114.553184,52.1593387 C110.773532,52.1593387 108.67196,55.5123109 108.67196,59.1269785 C108.67196,62.4363349 110.699421,65.5603236 114.119107,65.5603236 C115.791894,65.5603236 117.930521,64.7588815 118.428122,62.9215617 L113.626799,62.9215617 L113.626799,55.8285262 L130,55.8285262 Z" id="Fill-17" fill="#FEFEFE"></path>
            <polygon id="Fill-19" fill="#FEFEFE" points="136 43 155.68119 43 155.68119 51.4739706 146.717322 51.4739706 146.717322 54.4373299 154.916047 54.4373299 154.916047 62.4895701 146.717322 62.4895701 146.717322 65.5372755 156 65.5372755 156 74 136 74"></polygon>
            <path d="M191.658624,43 L182.097163,57.5075277 L193,74 L180.362243,74 L176.875774,67.426628 C176.548745,66.80809 176.349201,66.189552 176.221715,65.5372755 L175.894685,65.5372755 C175.700685,66.2738981 175.412455,66.9711591 175.057711,67.6684201 L171.654385,74 L159,74 L169.708836,57.5075277 L160.108575,43 L172.624389,43 L174.896968,47.402866 C175.340398,48.2294576 175.578741,49.0897878 175.828171,49.9669871 L176.066515,49.9669871 C176.277144,49.0504263 176.631888,48.2294576 177.042061,47.402866 L179.142811,43 L191.658624,43 Z" id="Fill-21" fill="#FEFEFE"></path>
            <path d="M108.379335,8.85626855 C108.936434,8.59810831 111.381178,7.6138724 111.959912,7.41487389 C112.544054,7.22125371 113.139014,7.05452522 113.739383,6.92006677 C114.34516,6.78560831 114.956346,6.68879822 115.567532,6.61887982 C116.184127,6.55433976 116.80613,6.51669139 117.428134,6.51669139 C118.044729,6.51669139 118.666732,6.55433976 119.283327,6.61887982 C119.899922,6.68879822 120.511108,6.79098665 121.111477,6.92006677 C121.717254,7.05452522 122.312214,7.22125371 122.896356,7.41487389 C123.47509,7.6138724 121.441409,6.58660979 121.441409,6.58660979 C120.889719,6.32307122 120.321802,6.09718101 119.73766,5.89818249 C119.153518,5.70456231 118.558558,5.53783383 117.958189,5.40337537 C117.352412,5.26891691 116.741226,5.16672849 116.124631,5.10218843 C115.508036,5.03764837 114.886033,5 114.269438,5 C113.647434,5 113.025431,5.03764837 112.408836,5.10218843 C111.79765,5.16672849 111.186464,5.26891691 110.580686,5.40337537 C109.980318,5.53783383 109.385358,5.70456231 108.801215,5.89818249 C108.222482,6.09718101 107.649157,6.32307122 107.097467,6.58660979 L54,34 L108.379335,8.85626855 Z" id="Fill-23" fill="#FEFEFE"></path>
            <path d="M222.126004,61.1356276 C220.533165,61.9379824 117.405013,114.317214 117.405013,114.317214 C114.690687,115.701141 110.253494,115.701141 107.539168,114.317214 L4.0534397,61.6202714 C3.37079472,61.2702509 0.618543533,60.1986495 0.168864698,58.0339069 C-0.41625957,60.2524988 0.618543533,62.0402961 1.75086735,62.8534208 C2.88319116,63.6665455 107.539168,116.982755 107.539168,116.982755 C110.253494,118.361297 115.12953,118.328988 117.843856,116.94506 L222.543176,63.2519058 C224.569439,62.2179989 225.875133,59.4555289 224.303966,57 C224.222699,58.653174 223.77302,60.3063481 222.126004,61.1356276" id="Fill-25" fill="#8F1004"></path>
        </g>
    </g>
</svg>