<?xml version="1.0" encoding="UTF-8"?>
<svg width="225px" height="34px" viewBox="0 0 225 34" version="1.1" xmlns="http://www.w3.org/2000/svg" xmlns:xlink="http://www.w3.org/1999/xlink">
    <!-- Generator: Sketch 57.1 (83088) - https://sketch.com -->
    <title>logo-rhino</title>
    <desc>Created with Sketch.</desc>
    <g id="logo-rhino" stroke="none" stroke-width="1" fill="none" fill-rule="evenodd">
        <g id="Group-12" transform="translate(2.000000, 0.000000)">
            <polygon id="Fill-1" fill="#1D1D1B" points="90.6732948 1 90.6732948 13.2351017 73.3267052 13.2351017 73.3267052 1 63 1 63 34 73.3267052 34 73.3267052 20.7616279 90.6732948 20.7616279 90.6732948 34 101 34 101 1"></polygon>
            <polygon id="Fill-2" fill="#1D1D1B" points="111 34 121 34 121 1 111 1"></polygon>
            <g id="Group-11">
                <path d="M205.376104,0.9472 L191.722322,0.9472 C183.862758,0.9472 177.469831,7.3112 177.469831,15.1352 L177.469831,19.7832 C177.469831,27.6072 183.862758,33.9712 191.722322,33.9712 L205.376104,33.9712 C213.235667,33.9712 219.628595,27.6072 219.628595,19.7832 L219.628595,15.1352 C219.628595,7.3112 213.235667,0.9472 205.376104,0.9472 L205.376104,0.9472 Z M209.36214,19.4952 C209.36214,23.2152 206.320376,26.2472 202.579449,26.2472 L194.518976,26.2472 C190.778049,26.2472 187.736285,23.2152 187.736285,19.4952 L187.736285,15.4232 C187.736285,11.6992 190.778049,8.6712 194.518976,8.6712 L202.579449,8.6712 C206.320376,8.6712 209.36214,11.6992 209.36214,15.4232 L209.36214,19.4952 Z" id="Fill-3" fill="#1D1D1B"></path>
                <path d="M159.361493,0.9472 L132.053929,0.9472 L132.053929,33.9712 L142.272165,33.9712 L142.272165,8.9152 L155.628602,8.9152 C157.276056,8.9152 158.614111,10.2472 158.614111,11.8872 L158.614111,33.9992 L168.880565,33.9992 L168.880565,10.4232 C168.880565,5.1992 164.613256,0.9472 159.361493,0.9472" id="Fill-5" fill="#1D1D1B"></path>
                <path d="M44.8196036,22.5996 L45.2174036,22.5036 C49.9146582,21.3276 52.29744,18.5116 52.29744,14.1316 L52.29744,9.9556 C52.29744,3.9796 48.1908582,0.9476 40.0902036,0.9476 L18.3196945,0.9476 L23.5071673,8.1916 L39.4151491,8.1916 C40.9340218,8.1916 42.1716218,9.4236 42.1716218,10.9356 L42.1716218,13.1516 C42.1716218,14.6636 40.9340218,15.8916 39.4151491,15.8916 L29.66704,15.8916 C29.5103309,15.8916 29.4299673,16.0036 29.3978218,16.0676 C29.3254945,16.2076 29.3335309,16.3836 29.4259491,16.5116 L41.9305309,33.9716 L53.84444,33.9716 L44.8196036,22.5996 Z" id="Fill-7" fill="#1D1D1B"></path>
                <polygon id="Fill-9" fill="#FFD109" points="31.9489655 33.9708 8.84442 0.9348 8.84442 28.6188 0.000401818182 15.2708 0.000401818182 33.9708 12.3964927 33.9708"></polygon>
            </g>
        </g>
    </g>
</svg>