<?xml version="1.0" encoding="UTF-8"?>
<svg width="165px" height="30px" viewBox="0 0 165 30" version="1.1" xmlns="http://www.w3.org/2000/svg" xmlns:xlink="http://www.w3.org/1999/xlink">
    <!-- Generator: Sketch 57.1 (83088) - https://sketch.com -->
    <title>logo-expert-line</title>
    <desc>Created with Sketch.</desc>
    <defs>
        <polygon id="path-1" points="0 30.5426 164.962 30.5426 164.962 -0.0004 0 -0.0004"></polygon>
    </defs>
    <g id="logo-expert-line" stroke="none" stroke-width="1" fill="none" fill-rule="evenodd">
        <g id="Group-22">
            <path d="M111.6813,14.8593 C111.6813,17.3993 109.6213,19.4583 107.0813,19.4583 C104.5413,19.4583 102.4813,17.3993 102.4813,14.8593 C102.4813,12.3183 104.5413,10.2593 107.0813,10.2593 C109.6213,10.2593 111.6813,12.3183 111.6813,14.8593" id="Fill-1" fill="#FECB00"></path>
            <path d="M3.5065,18.1269 L14.4215,9.6429 C12.8945,8.2439 11.2715,7.5059 9.5525,7.4309 C7.8265,7.3449 6.3315,7.7949 5.0645,8.7799 C3.6005,9.9189 2.7375,11.4159 2.4795,13.2689 C2.2215,15.1229 2.5635,16.7409 3.5065,18.1269 L3.5065,18.1269 Z M19.0125,14.0879 C19.2195,15.5279 19.1395,16.8939 18.7735,18.1879 C18.2385,20.0449 17.2675,21.5209 15.8605,22.6159 C13.7985,24.2169 11.4595,24.7929 8.8395,24.3429 C6.2195,23.8799 4.1205,22.6299 2.5395,20.5959 C0.8885,18.4729 0.1405,16.1099 0.2935,13.5059 C0.4475,10.8869 1.6005,8.7389 3.7525,7.0659 C5.6795,5.5669 7.9495,5.0179 10.5595,5.4189 C13.1755,5.8139 15.3575,7.1329 17.1035,9.3789 L17.5445,9.9459 L4.8315,19.8309 C5.8815,21.1629 7.3855,21.9629 9.3475,22.2309 C11.3035,22.4919 13.0255,22.0439 14.5155,20.8849 C15.3105,20.2669 15.9855,19.3169 16.5425,18.0379 C16.8815,17.2639 17.0345,16.4249 17.0015,15.5169 L19.0125,14.0879 Z" id="Fill-3" fill="#0087CB"></path>
            <path d="M3.5065,18.1269 L14.4215,9.6429 C12.8945,8.2439 11.2715,7.5059 9.5525,7.4309 C7.8265,7.3449 6.3315,7.7949 5.0645,8.7799 C3.6005,9.9189 2.7375,11.4159 2.4795,13.2689 C2.2215,15.1229 2.5635,16.7409 3.5065,18.1269 Z M19.0125,14.0879 C19.2195,15.5279 19.1395,16.8939 18.7735,18.1879 C18.2385,20.0449 17.2675,21.5209 15.8605,22.6159 C13.7985,24.2169 11.4595,24.7929 8.8395,24.3429 C6.2195,23.8799 4.1205,22.6299 2.5395,20.5959 C0.8885,18.4729 0.1405,16.1099 0.2935,13.5059 C0.4475,10.8869 1.6005,8.7389 3.7525,7.0659 C5.6795,5.5669 7.9495,5.0179 10.5595,5.4189 C13.1755,5.8139 15.3575,7.1329 17.1035,9.3789 L17.5445,9.9459 L4.8315,19.8309 C5.8815,21.1629 7.3855,21.9629 9.3475,22.2309 C11.3035,22.4919 13.0255,22.0439 14.5155,20.8849 C15.3105,20.2669 15.9855,19.3169 16.5425,18.0379 C16.8815,17.2639 17.0345,16.4249 17.0015,15.5169 L19.0125,14.0879 Z" id="Stroke-5" stroke="#0087CB" stroke-width="0.548"></path>
            <polygon id="Fill-7" fill="#1D1D1B" points="20.6598 24.3832 26.7668 14.9832 21.4298 6.1592 26.0588 6.1592 29.2238 11.6452 32.3318 6.1592 36.9608 6.1592 31.6078 14.9832 37.7888 24.3832 32.9048 24.3832 29.2088 18.1102 25.5458 24.3832"></polygon>
            <path d="M43.2316,15.3676 C43.2316,16.9176 43.7096,18.2386 44.6656,19.3296 C45.6296,20.4206 46.8666,20.9656 48.3746,20.9656 C49.7116,20.9656 50.8776,20.4416 51.8726,19.3926 C52.8676,18.3346 53.3656,16.9926 53.3656,15.3676 C53.3656,13.7736 52.8876,12.4096 51.9326,11.2776 C50.9876,10.1426 49.7926,9.5766 48.3446,9.5766 C46.7956,9.5766 45.5546,10.1426 44.6196,11.2776 C43.6946,12.4096 43.2316,13.7736 43.2316,15.3676 L43.2316,15.3676 Z M43.1726,8.4056 C44.6196,6.5236 46.4436,5.5826 48.6466,5.5826 C51.4706,5.5826 53.6476,6.5616 55.1746,8.5176 C56.7126,10.4746 57.4816,12.6246 57.4816,14.9666 C57.4816,17.7576 56.6476,20.1216 54.9796,22.0556 C53.3106,23.9926 51.2636,24.9596 48.8426,24.9596 C46.6596,24.9596 44.8756,24.1896 43.4886,22.6496 L43.4886,30.5426 L39.3726,30.5426 L39.3726,6.1596 L43.1726,6.1596 L43.1726,8.4056 Z" id="Fill-9" fill="#1D1D1B"></path>
            <path d="M64.5069,13.7475 L73.7799,13.7475 C73.2669,10.9675 71.7349,9.5765 69.1819,9.5765 C66.7789,9.5765 65.2209,10.9675 64.5069,13.7475 L64.5069,13.7475 Z M64.5069,17.2605 C65.3609,19.7305 66.9599,20.9655 69.3009,20.9655 C71.1219,20.9655 72.4239,20.2185 73.2069,18.7195 L77.4449,18.7195 C76.9819,20.2825 76.0209,21.7145 74.5639,23.0195 C73.1069,24.3135 71.3819,24.9595 69.3929,24.9595 C66.6969,24.9595 64.5009,24.0135 62.8029,22.1215 C61.1149,20.2185 60.2699,17.9605 60.2699,15.3515 C60.2699,12.5275 61.1299,10.1975 62.8479,8.3575 C64.5759,6.5075 66.7229,5.5825 69.2859,5.5825 C71.6889,5.5825 73.7439,6.5185 75.4529,8.3895 C77.1629,10.2605 78.0169,12.4755 78.0169,15.0305 C78.0169,15.8875 77.9469,16.6305 77.8059,17.2605 L64.5069,17.2605 Z" id="Fill-11" fill="#1D1D1B"></path>
            <path d="M80.857,6.1596 L84.658,6.1596 L84.658,8.0046 C85.501,6.3906 86.711,5.5826 88.29,5.5826 L88.698,5.5826 L88.698,9.8176 C86.215,9.9676 84.974,11.3156 84.974,13.8596 L84.974,24.3836 L80.857,24.3836 L80.857,6.1596 Z" id="Fill-13" fill="#1D1D1B"></path>
            <polygon id="Fill-15" fill="#1D1D1B" points="93.4908 -0.0001 97.6068 -0.0001 97.6068 6.1599 100.1098 6.1599 100.1098 10.0419 97.6068 10.0419 97.6068 24.3829 93.4908 24.3829 93.4908 10.0419 91.5608 10.0419 91.5608 6.1599 93.4908 6.1599"></polygon>
            <mask id="mask-2" fill="white">
                <use xlink:href="#path-1"></use>
            </mask>
            <g id="Clip-18"></g>
            <polygon id="Fill-17" fill="#0087CB" mask="url(#mask-2)" points="114.553 24.3826 118.669 24.3826 118.669 -0.0004 114.553 -0.0004"></polygon>
            <path d="M121.972,24.3836 L126.088,24.3836 L126.088,6.1596 L121.972,6.1596 L121.972,24.3836 Z M121.972,4.1066 L126.088,4.1066 L126.088,0.1126 L121.972,0.1126 L121.972,4.1066 Z" id="Fill-19" fill="#0087CB" mask="url(#mask-2)"></path>
            <path d="M129.3912,6.1596 L133.1902,6.1596 L133.1902,7.7636 C134.5282,6.3096 136.1002,5.5826 137.9102,5.5826 C139.8612,5.5826 141.4642,6.2306 142.7202,7.5236 C143.9772,8.8066 144.6052,10.9036 144.6052,13.8116 L144.6052,24.3836 L140.4882,24.3836 L140.4882,15.0146 C140.4882,11.3886 139.3422,9.5766 137.0502,9.5766 C135.9752,9.5766 135.1162,9.9886 134.4722,10.8116 C133.8282,11.6356 133.5072,13.0956 133.5072,15.1906 L133.5072,24.3836 L129.3912,24.3836 L129.3912,6.1596 Z" id="Fill-20" fill="#0087CB" mask="url(#mask-2)"></path>
            <path d="M151.4518,13.7475 L160.7248,13.7475 C160.2118,10.9675 158.6798,9.5765 156.1258,9.5765 C153.7228,9.5765 152.1658,10.9675 151.4518,13.7475 L151.4518,13.7475 Z M151.4518,17.2605 C152.3058,19.7305 153.9038,20.9655 156.2458,20.9655 C158.0648,20.9655 159.3668,20.2185 160.1518,18.7195 L164.3888,18.7195 C163.9268,20.2825 162.9668,21.7145 161.5088,23.0195 C160.0518,24.3135 158.3278,24.9595 156.3378,24.9595 C153.6418,24.9595 151.4468,24.0135 149.7468,22.1215 C148.0578,20.2185 147.2148,17.9605 147.2148,15.3515 C147.2148,12.5275 148.0738,10.1975 149.7918,8.3575 C151.5208,6.5075 153.6678,5.5825 156.2298,5.5825 C158.6328,5.5825 160.6888,6.5185 162.3978,8.3895 C164.1068,10.2605 164.9618,12.4755 164.9618,15.0305 C164.9618,15.8875 164.8898,16.6305 164.7508,17.2605 L151.4518,17.2605 Z" id="Fill-21" fill="#0087CB" mask="url(#mask-2)"></path>
        </g>
    </g>
</svg>