<?xml version="1.0" encoding="UTF-8"?>
<svg width="127px" height="68px" viewBox="0 0 127 68" version="1.1" xmlns="http://www.w3.org/2000/svg" xmlns:xlink="http://www.w3.org/1999/xlink">
    <!-- Generator: Sketch 57.1 (83088) - https://sketch.com -->
    <title>logo-elite</title>
    <desc>Created with Sketch.</desc>
    <g id="logo-elite" stroke="none" stroke-width="1" fill="none" fill-rule="evenodd">
        <g id="Group-15">
            <path d="M53.33946,53.5730708 C52.83026,52.8617943 53.67006,52.6375876 54.33886,51.8683266 C54.72266,51.4199132 55.07986,50.9521716 55.42566,50.4728331 L53.99306,50.4728331 C53.29766,51.4160475 52.55286,52.3206057 51.72826,53.1942388 C51.56866,53.360461 51.26466,53.6967711 51.45086,53.9557685 C52.55666,55.5058873 53.66246,57.0521406 54.77206,58.6022594 C52.97846,59.9281716 51.18866,61.2540837 49.39506,62.5799959 C48.30446,61.0530708 47.21766,59.5261457 46.12706,57.9992207 C45.95226,57.7479545 45.55706,57.8407297 45.33286,57.9489674 C42.80206,59.1975669 40.22566,60.0402749 37.46306,60.5466729 C37.04506,60.6239855 36.54726,61.0569364 36.54726,61.5130811 L36.54726,66.7200889 L29.87826,66.7200889 C29.79846,66.7200889 29.74526,66.7239545 29.68826,66.7278202 C29.69586,66.7046264 29.70726,66.6891638 29.70726,66.6582388 L29.70726,64.5592 L29.70726,60.797939 C29.70726,60.6471793 29.55146,60.5466729 29.42606,60.5234791 C26.64446,60.0132155 24.04526,59.1589106 21.49926,57.9025798 C21.09266,57.6977013 20.50366,58.0262801 20.26426,58.3664558 C19.28386,59.7426212 18.29966,61.1149209 17.31926,62.4910863 C15.41926,61.0839959 13.51926,59.6807711 11.62306,58.2736806 C11.53946,58.2118305 11.47106,58.1731742 11.41406,58.1461147 C11.77506,57.6397168 12.13606,57.1294532 12.50086,56.6269209 C13.22286,55.6102594 13.94866,54.5974636 14.67446,53.5846677 C14.76946,53.4532362 14.95946,53.1478512 14.80366,52.9816289 C12.91886,50.9830966 11.36466,48.8415359 10.03466,46.4216496 C9.92826,46.2322336 9.60906,46.2438305 9.43806,46.301815 C8.47666,46.6419907 7.51526,46.9744351 6.55386,47.3146109 C5.82046,47.5736083 5.08706,47.8287401 4.34986,48.0877375 C4.28146,48.1109313 4.22066,48.1341251 4.17126,48.1573189 C3.37326,45.7954171 2.57146,43.4335152 1.77346,41.0754791 C3.32386,40.5265592 4.87806,39.9815049 6.43226,39.4403163 C6.78946,39.3127504 7.42406,38.9571121 7.34806,38.473908 C6.86926,35.3040889 6.86546,32.2309106 7.34426,29.0572258 C7.37466,28.8175566 7.28346,28.7054532 7.07066,28.6320062 C6.10546,28.2956961 5.14406,27.959386 4.18266,27.623076 C3.44546,27.3640786 2.71206,27.1089468 1.97486,26.8499494 C1.83046,26.7996961 1.73546,26.7726367 1.65566,26.7571742 L1.65946,26.7571742 C2.41186,24.5421664 3.16426,22.3271587 3.91286,20.1082853 C5.54306,20.6765333 7.17706,21.248647 8.80346,21.8207607 C9.23666,21.9715204 9.81806,21.4883163 10.01186,21.1404093 C11.27726,18.8403576 12.72886,16.8109003 14.52626,14.9128744 C14.68206,14.7466522 14.98986,14.4103421 14.80366,14.1513447 C13.69406,12.5973602 12.58826,11.0472413 11.47866,9.49325685 C13.27226,8.1673447 15.06966,6.84529819 16.85946,5.51938605 C17.95006,7.04631111 19.04446,8.57710181 20.13126,10.1040269 C20.30986,10.3514274 20.70126,10.2625178 20.92926,10.1542801 C23.45626,8.90181499 26.02886,8.05910698 28.79146,7.55270904 C29.20946,7.47539638 29.70726,7.04244548 29.70726,6.59016641 L29.70726,1.38315866 L36.37246,1.38315866 C36.45606,1.38315866 36.50926,1.37929302 36.56626,1.37542739 C36.55866,1.39475556 36.54726,1.41408372 36.54726,1.44500879 L36.54726,3.54018191 L36.54726,7.30530853 C36.54726,7.45606822 36.69926,7.55270904 36.82466,7.57976848 C39.61386,8.08616641 42.20926,8.94047132 44.75906,10.1968021 C45.16946,10.4016806 45.75086,10.0769674 45.99406,9.73679173 C46.97446,8.36062636 47.95486,6.98832661 48.93526,5.61216124 C50.83146,7.01538605 52.73146,8.41861085 54.62766,9.82183566 C54.71126,9.88368579 54.77966,9.92234212 54.84046,9.94940155 C54.47946,10.4596651 54.11466,10.966063 53.75366,11.472461 C53.02786,12.4891225 52.30586,13.505784 51.58006,14.5185798 C51.48886,14.6500114 51.29506,14.959262 51.45086,15.1216186 C52.22226,15.9411328 52.92906,16.7915721 53.59786,17.6690708 L55.84366,17.6690708 C55.53966,17.2206574 53.28246,14.0547039 52.83406,14.6770708 C53.16846,14.2170605 53.49906,13.7531845 53.82966,13.2893085 C54.67706,12.1025592 55.52066,10.9158098 56.36806,9.72906047 C56.51626,9.52031628 56.65686,9.22266253 56.40226,9.03324651 C54.13746,7.35942739 51.87266,5.68560827 49.61166,4.01178915 C49.25066,3.74506047 48.58186,4.18574264 48.37286,4.47566512 C47.36586,5.89048682 46.35886,7.30530853 45.34806,8.7162646 C44.06746,8.11709147 42.76786,7.59523101 41.41506,7.14681757 C40.37386,6.79891059 38.10146,6.99605788 38.10146,5.85569612 L38.10146,0.385825323 C38.10146,0.146156072 37.82406,0.0997684755 37.65306,0.0997684755 L29.25886,0.0997684755 C28.77626,0.0997684755 28.14926,0.586838243 28.14926,1.09710181 L28.14926,6.51671938 C26.78506,6.79117933 25.42846,7.12362377 24.12126,7.63002171 C23.06866,8.03204755 21.72726,9.31543773 21.17246,8.53844548 C20.11986,7.06177364 19.06346,5.58510181 18.01086,4.10842997 C17.79046,3.7953137 17.25086,3.99632661 17.00766,4.17414574 C14.74666,5.84796486 12.48186,7.51791835 10.21706,9.1956031 C10.00426,9.35409406 9.52166,9.77158243 9.74966,10.0962956 C10.80606,11.5768331 11.86246,13.0535049 12.91506,14.5301767 C13.42426,15.2414532 12.58446,15.4656599 11.91946,16.2349209 C10.83646,17.4835204 9.93966,18.8828796 9.11126,20.3170295 C7.42026,19.7255876 5.72546,19.1302801 4.03066,18.5388382 C3.53666,18.3648848 2.90966,18.952461 2.76146,19.3776806 C1.85326,22.0681612 0.94126,24.7586419 0.02926,27.4491225 C-0.04674,27.6771948 0.12046,27.8086264 0.29906,27.8743421 C1.99766,28.4696496 3.69626,29.0610915 5.39486,29.656399 C6.33726,29.9849778 5.48986,31.9487194 5.41766,33.0426935 C5.28846,34.8943318 5.45186,36.7421044 5.71026,38.5744145 C4.11806,39.1349313 2.52966,39.6915824 0.93746,40.2482336 C0.64486,40.3526057 -0.13034,40.7662284 0.02166,41.2146419 C0.92986,43.9051225 1.84186,46.5994687 2.75386,49.2899494 C2.84886,49.5682749 3.12626,49.6339907 3.39226,49.5412155 C4.55886,49.1314584 5.72926,48.7217013 6.89206,48.3119442 C7.54186,48.0877375 8.19166,47.8557995 8.84526,47.6277271 C8.79586,47.6431897 10.06886,49.9200475 10.38046,50.3877891 C10.57046,50.673846 12.95686,54.0678718 13.41666,53.4223111 C13.08606,53.8900527 12.75546,54.350063 12.42486,54.813939 C11.57746,55.9968227 10.73006,57.1835721 9.88266,58.3664558 C9.73066,58.5752 9.59386,58.8728537 9.85226,59.0622698 C12.11326,60.7399545 14.37806,62.4137736 16.64286,64.0875928 C17.00386,64.3581871 17.67266,63.9136393 17.88166,63.6237168 C18.89246,62.2088951 19.89946,60.797939 20.90646,59.3831173 C22.19086,59.9861561 23.49046,60.5002853 24.83946,60.9525643 C25.87686,61.3004713 28.14926,61.1071897 28.14926,62.2436858 L28.14926,67.7174222 C28.14926,67.9532258 28.43046,67.9996134 28.59766,67.9996134 L36.99566,67.9996134 C37.47826,67.9996134 38.10146,67.5125437 38.10146,67.0022801 L38.10146,61.5826625 C39.47326,61.3082026 40.82606,60.9757581 42.13706,60.4693602 C43.18206,60.0673344 44.53106,58.7878098 45.08206,59.5609364 C46.13466,61.0414739 47.19106,62.5181457 48.24366,63.9948176 C48.46406,64.3079339 49.00366,64.1030553 49.24306,63.9291018 C51.50786,62.2514171 53.76886,60.5775979 56.03366,58.8999132 C56.25026,58.7414222 56.73286,58.3239339 56.50106,57.9992207 C55.44846,56.5225488 54.39206,55.045877 53.33946,53.5730708" id="Fill-1" fill="#3C3C3B"></path>
            <path d="M40.826768,22 L34.0045,22 C30.3781464,22 27.7726572,22.3234201 26.0356643,23.0074349 C24.1691588,23.739777 22.6569084,25.1672862 21.4227293,27.3828996 L15.1337486,38.6245353 C13.6291166,41.2899628 13.6253074,43.394052 15.103275,44.8773234 C16.5241047,46.3048327 19.1714951,47 23.2130509,47 L34.0235459,47 L35.7376836,42.1486989 L28.1040571,42.1486989 C25.5899885,42.1486989 24.9309978,41.6282528 24.7633932,41.4052045 C24.6529266,41.2565056 24.5957886,41.0446097 24.5957886,40.7806691 C24.5957886,40.2862454 24.7938668,39.6022305 25.1862138,38.7769517 C25.1862138,38.7769517 26.7708389,35.4349442 27.3688825,34.1784387 L36.7204559,34.1784387 L38.442212,29.5576208 L29.5553604,29.5576208 C29.9553258,28.7137546 30.3971924,27.795539 30.3971924,27.795539 C30.7743027,26.9851301 31.2504521,26.4460967 31.8561141,26.1449814 C32.4922496,25.8327138 33.535969,25.669145 34.9606079,25.669145 L40.6629726,25.669145 L42,22 L40.826768,22 Z" id="Fill-4" fill="#EB6608"></path>
            <path d="M53.1723751,22 L45.6552195,22 L40.3373731,39.1858736 C39.40675,42.197026 40.5766762,43.9814126 41.7238116,44.9516729 C43.3305609,46.3159851 45.9704918,47 49.5866273,47 L61.5099984,47 L62,42.1486989 L53.4724536,42.1486989 C52.1315966,42.1486989 51.147795,41.9479554 50.555235,41.5427509 C50.0234504,41.1895911 50.1184119,40.2007435 50.2855442,39.4423792 L54.1979597,22 L53.1723751,22 Z" id="Fill-6" fill="#EB6608"></path>
            <polygon id="Fill-8" fill="#EB6608" points="72.5427855 22 64.5793054 22 63 47 74 47 73.3737916 22"></polygon>
            <path d="M114.221789,22.0901324 L107.301439,22.0901324 C103.526702,22.0901324 101.199333,22.4333897 99.9719649,23.1764853 C98.5130175,24.0591471 98.1965263,25.7490294 99.0379298,28.2008676 L102.959333,39.6151176 C103.847053,42.1688015 105.553018,44.1340441 108.05793,45.4542647 C110.574421,46.7858015 113.843544,47.4572279 117.784246,47.4572279 L126.665298,47.4572279 L123.951965,42.5346912 L119.775825,42.5346912 C117.772667,42.5346912 116.228807,42.2065221 115.163544,41.5652721 C114.144596,40.9428824 113.314772,39.89425 112.693368,38.4570956 C112.693368,38.4570956 111.570211,35.8241985 110.975825,34.4473971 L120.520737,34.4473971 L118.031263,29.7587279 L108.964947,29.7587279 C108.729509,29.2230956 108.366702,28.3781544 108.366702,28.3781544 C108.003895,27.5256691 107.807053,26.5901985 107.807053,26.1752721 C107.807053,26.1488676 107.814772,26.1300074 107.818632,26.1036029 C108.019333,26.0055294 108.60986,25.8131544 110.157579,25.8131544 L116.722842,25.8131544 L114.719684,22.0901324 L114.221789,22.0901324 Z" id="Fill-12" fill="#EB6608"></path>
            <path d="M96.2864883,22 L76,22 L76.2235015,25.669145 L82.7758212,25.669145 C82.9583474,26.9665428 85.7893667,47 85.7893667,47 L96.2306129,47 C96.2306129,47 91.835083,27.4609665 91.4290552,25.669145 L98,25.669145 L96.8824924,22 L96.2864883,22 Z" id="Fill-10" fill="#EB6608"></path>
            <g id="Group-14" transform="translate(98.000000, 22.000000)"></g>
        </g>
    </g>
</svg>