<svg xmlns="http://www.w3.org/2000/svg" width="9.816" height="9.975" viewBox="0 0 9.816 9.975"><defs><style>.a{fill:#e30613;}</style></defs><path class="a" d="M8.321,1.071a4.908,4.908,0,1,1-5.7,0,.476.476,0,0,1,.693.152l.313.556a.475.475,0,0,1-.131.614,3.325,3.325,0,1,0,3.956,0,.472.472,0,0,1-.129-.612l.313-.556a.474.474,0,0,1,.689-.154ZM6.262,5.225V.475A.474.474,0,0,0,5.787,0H5.154a.474.474,0,0,0-.475.475v4.75a.474.474,0,0,0,.475.475h.633A.474.474,0,0,0,6.262,5.225Z" transform="translate(-0.563)"/></svg>