<svg id="Calque_1" data-name="Calque 1" xmlns="http://www.w3.org/2000/svg" viewBox="0 0 66 59"><defs><style>.cls-1{fill:#fff;}.cls-2{fill:#219b8c;}</style></defs><path class="cls-1" d="M89.5,60h7A29.5,29.5,0,0,1,126,89.5h0A29.5,29.5,0,0,1,96.5,119h-7A29.5,29.5,0,0,1,60,89.5h0A29.5,29.5,0,0,1,89.5,60Z" transform="translate(-60 -60)"/><path class="cls-2" d="M101.77,94a15.82,15.82,0,1,0-5.33,5.32L107.18,110l5.32-5.33Zm-13.49,1.6a9.76,9.76,0,1,1,9.77-9.76h0A9.79,9.79,0,0,1,88.28,95.55Z" transform="translate(-60 -60)"/></svg>