<svg xmlns="http://www.w3.org/2000/svg" xmlns:xlink="http://www.w3.org/1999/xlink" width="228.242" height="699" viewBox="0 0 228.242 699"><defs><style>.a,.c,.d{fill:none;}.b{clip-path:url(#a);}.c,.d{stroke:#2e2e2d;stroke-miterlimit:10;}.d{stroke-dasharray:8.072 8.072;}.e{fill:#ec9700;}.f{fill:#161615;}.g{fill:#9c6207;}.h{fill:#cc8000;}.i{opacity:0.5;}.j{clip-path:url(#c);}.k{fill:#d08611;}.l{fill:#757474;}.m{fill:#8c8b8b;}.n{fill:#fff;}.o{clip-path:url(#d);}.p{clip-path:url(#e);}.q{clip-path:url(#f);}.r{clip-path:url(#g);}.s{fill:#2e2e2d;}</style><clipPath id="a"><rect class="a" width="228.242" height="699"/></clipPath><clipPath id="c"><rect class="a" width="94.934" height="27.969"/></clipPath><clipPath id="d"><rect class="a" width="105.494" height="31.066"/></clipPath><clipPath id="e"><rect class="a" width="128.08" height="37.687"/></clipPath><clipPath id="f"><rect class="a" width="81.951" height="24.162"/></clipPath><clipPath id="g"><rect class="a" width="63.705" height="24.163"/></clipPath></defs><g class="b"><line class="c" y2="3.079" transform="translate(113.832 14.223)"/><line class="d" y2="667.849" transform="translate(113.832 23.514)"/><g class="b"><line class="c" y2="3.079" transform="translate(113.832 694.469)"/><path class="e" d="M61.384,426.677c-2.908.054-5.819.1-8.727.08a13,13,0,0,1-4.843-.851,18.073,18.073,0,0,1-4.226-2.776,5.613,5.613,0,0,1-1.975-2.708,11.559,11.559,0,0,1-.339-3.618,5.638,5.638,0,0,0-.506-3.082,13.832,13.832,0,0,1-2.243-8.026,35.488,35.488,0,0,1,.55-5.4c.261-1.491.452-3.363,1.414-4.7.61-.85,2.177-.778,3.269-.85a23.416,23.416,0,0,1,3.7-.006,1.58,1.58,0,0,1,.562.128c.6.306.738,1.315.911,1.813a4.225,4.225,0,0,0,1.137,1.965,1.943,1.943,0,0,0,1.272.523c.961.062,4.966-.062,4.966-.062.079.556.161,1.111.237,1.667,0,.007-2.982.142-3.254.149a7.574,7.574,0,0,1-3.439-.384,1.811,1.811,0,0,1-1.05-1.292c-.087-.249-.262-1.2-.744-1.2-.561,0-.961,1.12-1.763,2.925a10.95,10.95,0,0,0-.807,6.09,13.354,13.354,0,0,0,1.6,4.264c.366.658.855,1.3,1.167,1.967a17.5,17.5,0,0,1,.764,2.127,16.585,16.585,0,0,1,.919,3.986c.042.667-.363,1.757.4,2.535,1.342.8,4.451.517,5.364.5l4.926-.1c.013,0,.213-.054.214-.052Z" transform="translate(-8.872 -90.9)"/><path class="f" d="M54.078,426.829q-.723,0-1.45-.005a13.022,13.022,0,0,1-4.879-.858,17.16,17.16,0,0,1-4.065-2.644l-.184-.145a5.718,5.718,0,0,1-2.007-2.755,11.75,11.75,0,0,1-.343-3.647l0-.157a5.26,5.26,0,0,0-.495-2.875,13.832,13.832,0,0,1-2.256-8.078,35.576,35.576,0,0,1,.551-5.417c.035-.2.068-.407.1-.62a9.7,9.7,0,0,1,1.327-4.122c.549-.764,1.82-.82,2.842-.864.174-.008.342-.015.5-.025a23.542,23.542,0,0,1,3.718-.005,1.673,1.673,0,0,1,.6.136c.512.262.708.978.85,1.5.038.136.072.262.108.365a4.133,4.133,0,0,0,1.111,1.925,1.851,1.851,0,0,0,1.213.5c.946.065,4.917-.061,4.957-.062l.086,0,.074.511q.09.62.176,1.241l.005.043-.028.033c-.062.071-3.292.18-3.324.181l-.313.008a6.822,6.822,0,0,1-3.168-.4,1.9,1.9,0,0,1-1.1-1.347c-.015-.042-.032-.1-.052-.174-.088-.312-.269-.959-.6-.959-.421,0-.8.863-1.368,2.169q-.143.329-.306.7a10.922,10.922,0,0,0-.8,6.035,13.176,13.176,0,0,0,1.594,4.233c.147.266.319.534.485.794a10.508,10.508,0,0,1,.684,1.179,15.878,15.878,0,0,1,.71,1.954l.1.309a16.025,16.025,0,0,1,.884,3.885,4.088,4.088,0,0,1-.03.617,2.149,2.149,0,0,0,.393,1.847c1.134.663,3.607.552,4.8.5.2-.008.374-.016.5-.019h.051l4.874-.1.119-.031c.1-.025.113-.027.147-.007l.041.024.56,4.551-.107,0c-2.329.043-4.787.085-7.28.085M45.8,394.73c-.726,0-1.429.036-2.067.078-.159.01-.328.017-.5.025-.981.042-2.2.1-2.695.784a9.561,9.561,0,0,0-1.293,4.041c-.035.213-.069.421-.1.622a35.5,35.5,0,0,0-.548,5.389,13.67,13.67,0,0,0,2.229,7.975,5.4,5.4,0,0,1,.522,2.975l0,.158a11.6,11.6,0,0,0,.335,3.587,5.531,5.531,0,0,0,1.943,2.662l.183.145a17.062,17.062,0,0,0,4.019,2.617,12.858,12.858,0,0,0,4.807.843c2.945.02,5.87-.026,8.618-.077l-.515-4.186a.58.58,0,0,1-.132.028l-4.923.1c-.127,0-.3.011-.5.019-1.307.06-3.738.169-4.918-.531l-.019-.015a2.325,2.325,0,0,1-.456-2.01,3.925,3.925,0,0,0,.029-.586,15.94,15.94,0,0,0-.875-3.838l-.1-.309a15.729,15.729,0,0,0-.7-1.931,10.293,10.293,0,0,0-.671-1.156c-.168-.262-.341-.533-.492-.805a13.368,13.368,0,0,1-1.616-4.295,11.124,11.124,0,0,1,.814-6.144q.164-.368.306-.7c.643-1.472,1-2.284,1.544-2.284.479,0,.68.715.788,1.1.018.067.034.124.048.162a1.731,1.731,0,0,0,1,1.238,6.724,6.724,0,0,0,3.083.383l.315-.008c.267-.007,2.632-.113,3.147-.142q-.08-.568-.162-1.138l-.049-.341c-.6.018-4,.116-4.889.06a2.034,2.034,0,0,1-1.33-.548,4.353,4.353,0,0,1-1.163-2.005c-.038-.106-.073-.236-.112-.378-.141-.516-.316-1.158-.752-1.381a1.53,1.53,0,0,0-.528-.117c-.54-.052-1.086-.071-1.619-.071" transform="translate(-8.844 -90.871)"/><path class="g" d="M53.376,427.6a4.271,4.271,0,0,0,1.457.828c.844.192,9.219-.161,9.236.023l.18,1.412-3.819.1-2.734.074a12.176,12.176,0,0,1-3.429-.239,1.789,1.789,0,0,1-.891-2.2" transform="translate(-12.279 -98.487)"/><path class="f" d="M56.637,430.115a8.024,8.024,0,0,1-2.434-.272,1.886,1.886,0,0,1-.949-2.311l.032-.145.246.182a3.715,3.715,0,0,0,1.295.717c.423.1,2.91.051,5.105.009,4.189-.079,4.191-.052,4.206.1l.193,1.514-6.659.18c-.041,0-.473.025-1.034.025m-3.223-2.394a1.65,1.65,0,0,0,.857,1.942,12.179,12.179,0,0,0,3.392.234l6.449-.174-.159-1.25c-.336-.053-2.287-.018-4.018.015-2.312.042-4.705.089-5.151-.014a3.871,3.871,0,0,1-1.366-.751Z" transform="translate(-12.25 -98.437)"/><path class="g" d="M59.058,403.843a8.828,8.828,0,0,1-.4-2.053,36.516,36.516,0,0,1-4.886.125,5.8,5.8,0,0,1-2.563-.934c-.32-.373-.48-1.8-1.041-1.929s-1.442,1.743-1.762,2.613a28.272,28.272,0,0,0-.727,3.038l1.352.618a18.629,18.629,0,0,0,4.566.758c2.087,0,7.073.024,7.073.024Z" transform="translate(-10.981 -91.91)"/><path class="f" d="M60.825,406.17h-.188c-.05,0-5.01-.024-7.073-.024a18.823,18.823,0,0,1-4.594-.763l-1.432-.653.014-.074a28.048,28.048,0,0,1,.73-3.053c.01-.029,1.065-2.858,1.873-2.675.4.089.6.7.785,1.238a2.635,2.635,0,0,0,.308.722,5.821,5.821,0,0,0,2.507.9,36.457,36.457,0,0,0,4.862-.126l.1-.008.007.1a8.8,8.8,0,0,0,.39,2.015Zm-13.07-1.553,1.283.587a18.739,18.739,0,0,0,4.526.749c1.835,0,5.958.018,6.886.023l-1.515-2.13a8.612,8.612,0,0,1-.4-1.983,33.7,33.7,0,0,1-4.815.115,5.752,5.752,0,0,1-2.618-.966,2.614,2.614,0,0,1-.346-.786c-.155-.466-.349-1.046-.644-1.111-.419-.1-1.245,1.449-1.651,2.552a26.766,26.766,0,0,0-.707,2.948" transform="translate(-10.949 -91.881)"/><path class="h" d="M48.866,418.687a.373.373,0,0,0-.172-.17,7.141,7.141,0,0,0-3.766-.115,11.589,11.589,0,0,0-2.661,1.016.328.328,0,0,0-.2.337c.065.46.212,1.528.221,1.93a12.217,12.217,0,0,0,.45,4.55c.556,1.361,2.012,2.582,4.476,4.192A12.059,12.059,0,0,0,53.4,432.06L62.069,432l-.52-4.122-8.011.171c-1.49-.1-2.062-.218-2.623-.7-.677-.583-.32-2.334-.32-2.334l-.2-2.053s-1.169-3.554-1.529-4.273" transform="translate(-9.688 -96.326)"/><path class="e" d="M63.289,407.6l5.163,29.256a60.08,60.08,0,0,0,1.716,6.034c1.235,4,19.147,20.557,60.6,20.557s54.64-14.8,56.537-20.557,1.987-6.034,1.987-6.034l3.688-29.256" transform="translate(-14.577 -93.881)"/><path class="f" d="M130.742,463.541c-22.178,0-36.944-4.779-45.425-8.788-9.38-4.434-14.576-9.591-15.27-11.836a59.769,59.769,0,0,1-1.719-6.05l-5.162-29.252.189-.033,5.163,29.257a61.264,61.264,0,0,0,1.713,6.021c.537,1.738,4.951,6.889,15.168,11.718,8.463,4,23.2,8.77,45.342,8.77,17.96,0,32.448-2.728,43.06-8.11,8.237-4.179,12.316-9.135,13.386-12.38,1.872-5.676,1.986-6.03,1.987-6.033l3.684-29.239.191.024-3.688,29.257c-.005.02-.116.363-1.991,6.051-1.083,3.283-5.192,8.287-13.482,12.492-10.639,5.395-25.155,8.131-43.147,8.131" transform="translate(-14.549 -93.876)"/><path class="e" d="M194.674,393.7c0,12.156-30.1,22.011-67.233,22.011S60.209,405.853,60.209,393.7s30.1-22.011,67.232-22.011,67.233,9.855,67.233,22.011" transform="translate(-13.868 -85.608)"/><path class="f" d="M127.413,415.775c-17.968,0-34.862-2.291-47.571-6.451-12.741-4.172-19.758-9.732-19.758-15.656s7.017-11.484,19.758-15.656c12.708-4.16,29.6-6.451,47.571-6.451s34.862,2.291,47.571,6.451c12.741,4.172,19.758,9.731,19.758,15.656s-7.017,11.484-19.758,15.656c-12.709,4.16-29.6,6.451-47.571,6.451m0-44.022c-37.019,0-67.137,9.83-67.137,21.915s30.117,21.915,67.137,21.915,67.137-9.831,67.137-21.915-30.117-21.915-67.137-21.915" transform="translate(-13.839 -85.579)"/><g class="i" transform="translate(66.107 287.169)"><g class="j"><path class="k" d="M180.756,387.116c0,7.671-21.208,13.888-47.37,13.888s-47.37-6.217-47.37-13.888,21.208-13.888,47.37-13.888,47.37,6.217,47.37,13.888" transform="translate(-85.919 -373.132)"/><path class="f" d="M133.357,401.072c-12.662,0-24.567-1.446-33.523-4.072-8.992-2.637-13.943-6.157-13.943-9.913s4.951-7.277,13.943-9.913c8.956-2.625,20.861-4.072,33.523-4.072s24.567,1.446,33.523,4.072c8.991,2.636,13.943,6.157,13.943,9.913s-4.952,7.277-13.943,9.913c-8.956,2.625-20.861,4.072-33.523,4.072m0-27.777c-26.067,0-47.274,6.187-47.274,13.792s21.207,13.793,47.274,13.793,47.274-6.187,47.274-13.793S159.424,373.3,133.357,373.3" transform="translate(-85.89 -373.103)"/></g></g><path class="e" d="M164.238,385.976c0,3.749-10.655,6.789-23.8,6.789s-23.8-3.039-23.8-6.789,10.655-6.789,23.8-6.789,23.8,3.039,23.8,6.789" transform="translate(-26.865 -87.336)"/><path class="f" d="M140.411,392.832c-13.175,0-23.895-3.089-23.895-6.886s10.719-6.885,23.895-6.885,23.894,3.089,23.894,6.885-10.719,6.886-23.894,6.886m0-13.578c-13.069,0-23.7,3-23.7,6.692s10.633,6.693,23.7,6.693,23.7-3,23.7-6.693-10.632-6.692-23.7-6.692" transform="translate(-26.836 -87.307)"/><path class="l" d="M140.96,378.3v6.534a21.7,21.7,0,0,0,5.194,1.008,18.945,18.945,0,0,0,4.967-1.008V378.3" transform="translate(-32.466 -87.131)"/><path class="f" d="M146.125,385.936a21.99,21.99,0,0,1-5.223-1.013l-.066-.022v-6.6h.192v6.463a21.22,21.22,0,0,0,5.1.983,18.577,18.577,0,0,0,4.871-.981V378.3h.192v6.6l-.065.023a19.21,19.21,0,0,1-5,1.014" transform="translate(-32.438 -87.131)"/><path class="l" d="M159.406,371.523c0,2.412-7.568,4.367-16.9,4.367s-16.9-1.955-16.9-4.367,7.568-4.367,16.9-4.367,16.9,1.955,16.9,4.367" transform="translate(-28.928 -84.565)"/><path class="f" d="M142.474,375.957c-9.532,0-17-1.961-17-4.464s7.467-4.463,17-4.463,17,1.96,17,4.463-7.467,4.464-17,4.464m0-8.735c-9.268,0-16.807,1.916-16.807,4.271s7.54,4.272,16.807,4.272,16.807-1.916,16.807-4.272-7.54-4.271-16.807-4.271" transform="translate(-28.9 -84.536)"/><path class="m" d="M159.406,369.061c0,2.412-7.568,4.367-16.9,4.367s-16.9-1.955-16.9-4.367,7.568-4.367,16.9-4.367,16.9,1.955,16.9,4.367" transform="translate(-28.928 -83.998)"/><path class="f" d="M142.474,373.5c-9.532,0-17-1.961-17-4.463s7.467-4.465,17-4.465,17,1.962,17,4.465-7.467,4.463-17,4.463m0-8.736c-9.268,0-16.807,1.916-16.807,4.272s7.54,4.271,16.807,4.271,16.807-1.917,16.807-4.271-7.54-4.272-16.807-4.272" transform="translate(-28.9 -83.969)"/><path class="e" d="M228.317,426.08c2.908.054,5.819.1,8.727.08a13.018,13.018,0,0,0,4.843-.851,18.071,18.071,0,0,0,4.226-2.775,5.615,5.615,0,0,0,1.975-2.708,11.557,11.557,0,0,0,.339-3.618,5.645,5.645,0,0,1,.506-3.082,13.835,13.835,0,0,0,2.243-8.027,35.486,35.486,0,0,0-.55-5.4c-.261-1.491-.451-3.364-1.413-4.7-.611-.85-2.177-.778-3.27-.85a23.322,23.322,0,0,0-3.7-.006,1.56,1.56,0,0,0-.561.128c-.6.306-.738,1.315-.911,1.813a4.216,4.216,0,0,1-1.137,1.964,1.939,1.939,0,0,1-1.271.523c-.961.062-4.967-.062-4.967-.062-.079.556-.161,1.111-.237,1.667,0,.007,2.982.142,3.254.148a7.563,7.563,0,0,0,3.439-.383,1.809,1.809,0,0,0,1.05-1.292c.088-.249.262-1.2.744-1.2.561,0,.961,1.12,1.763,2.924a10.945,10.945,0,0,1,.807,6.09,13.341,13.341,0,0,1-1.6,4.264c-.366.659-.854,1.3-1.167,1.968a17.366,17.366,0,0,0-.764,2.127,16.549,16.549,0,0,0-.92,3.986c-.042.667.363,1.757-.4,2.535-1.342.8-4.451.517-5.364.5l-4.925-.1c-.013,0-.214-.054-.214-.052l-.541,4.4" transform="translate(-52.587 -90.763)"/><path class="f" d="M235.609,426.231c-2.553,0-5.093-.042-7.327-.084l-.106,0,.559-4.549.038-.024c.038-.024.046-.023.165.008.047.012.1.026.114.029l4.914.1c.129,0,.3.011.5.02,1.189.053,3.664.165,4.8-.5a2.15,2.15,0,0,0,.393-1.848,4.073,4.073,0,0,1-.03-.616,16.1,16.1,0,0,1,.884-3.887l.1-.3a15.879,15.879,0,0,1,.711-1.957,10.464,10.464,0,0,1,.683-1.177c.166-.26.339-.53.486-.8a13.15,13.15,0,0,0,1.594-4.233,10.914,10.914,0,0,0-.8-6.034c-.109-.247-.211-.48-.307-.7-.57-1.305-.946-2.167-1.367-2.167-.333,0-.515.647-.6.958-.02.072-.038.132-.052.175a1.905,1.905,0,0,1-1.1,1.348,6.872,6.872,0,0,1-3.168.4l-.313-.008c-.032,0-3.263-.11-3.324-.181l-.028-.033.005-.043q.085-.619.175-1.236l.075-.516.085,0c.04,0,4.011.122,4.957.062a1.85,1.85,0,0,0,1.213-.5,4.138,4.138,0,0,0,1.111-1.925c.036-.1.07-.229.108-.366.142-.524.339-1.24.85-1.5a1.635,1.635,0,0,1,.6-.137,23.366,23.366,0,0,1,3.719.005c.158.011.325.018.5.025,1.021.045,2.293.1,2.842.864a9.688,9.688,0,0,1,1.327,4.125c.035.211.068.417.1.616a35.716,35.716,0,0,1,.551,5.417,13.831,13.831,0,0,1-2.257,8.078,5.265,5.265,0,0,0-.494,2.875l0,.157a11.75,11.75,0,0,1-.343,3.648,5.715,5.715,0,0,1-2.007,2.755l-.184.146a17.181,17.181,0,0,1-4.065,2.643,13.049,13.049,0,0,1-4.879.859q-.7,0-1.4,0m-7.216-.274c2.617.048,5.646.095,8.618.078a12.887,12.887,0,0,0,4.807-.844,17.035,17.035,0,0,0,4.019-2.617l.183-.145a5.531,5.531,0,0,0,1.943-2.662,11.6,11.6,0,0,0,.335-3.587l0-.157a5.4,5.4,0,0,1,.522-2.975,13.673,13.673,0,0,0,2.229-7.976,35.435,35.435,0,0,0-.548-5.389c-.035-.2-.069-.407-.1-.619a9.539,9.539,0,0,0-1.293-4.043c-.495-.69-1.714-.743-2.694-.785-.175-.008-.344-.015-.5-.025a23.43,23.43,0,0,0-3.688-.007,1.522,1.522,0,0,0-.526.117c-.436.222-.612.865-.753,1.381-.038.142-.074.272-.112.379a4.355,4.355,0,0,1-1.163,2,2.035,2.035,0,0,1-1.33.548c-.888.055-4.288-.042-4.89-.06l-.049.347c-.055.377-.109.755-.162,1.132.516.028,2.88.135,3.147.141l.315.008a6.724,6.724,0,0,0,3.083-.383,1.731,1.731,0,0,0,1-1.237c.013-.039.029-.1.048-.162.109-.384.309-1.1.788-1.1.547,0,.9.811,1.543,2.283.1.219.2.453.307.7a11.114,11.114,0,0,1,.814,6.144,13.366,13.366,0,0,1-1.616,4.295c-.151.272-.325.545-.493.807a10.329,10.329,0,0,0-.67,1.155,15.731,15.731,0,0,0-.7,1.933l-.1.3a15.943,15.943,0,0,0-.875,3.841,3.809,3.809,0,0,0,.029.585,2.329,2.329,0,0,1-.456,2.012l-.02.015c-1.179.7-3.611.59-4.917.532-.2-.009-.37-.018-.5-.02l-4.925-.1a.709.709,0,0,1-.13-.028Z" transform="translate(-52.554 -90.734)"/><path class="g" d="M239.893,427.005a4.277,4.277,0,0,1-1.457.828c-.844.192-9.219-.161-9.237.023l-.179,1.412,3.818.1,2.735.073a12.168,12.168,0,0,0,3.429-.239,1.79,1.79,0,0,0,.891-2.2" transform="translate(-52.749 -98.349)"/><path class="f" d="M236.573,429.518c-.563,0-1-.024-1.038-.025l-6.657-.181.194-1.517c.013-.149.016-.175,4.211-.1,2.193.041,4.677.089,5.1-.008a3.728,3.728,0,0,0,1.295-.718l.246-.182.032.145a1.885,1.885,0,0,1-.952,2.311,7.975,7.975,0,0,1-2.429.272m-7.477-.393,6.447.175a12.217,12.217,0,0,0,3.391-.233,1.65,1.65,0,0,0,.86-1.943l0,0a3.873,3.873,0,0,1-1.366.752c-.446.1-2.835.057-5.145.013-1.734-.032-3.688-.068-4.024-.015Z" transform="translate(-52.716 -98.3)"/><path class="g" d="M233.6,403.246a8.825,8.825,0,0,0,.4-2.053,36.409,36.409,0,0,0,4.886.124,5.786,5.786,0,0,0,2.563-.934c.32-.373.48-1.8,1.041-1.929s1.442,1.743,1.762,2.614a28.235,28.235,0,0,1,.727,3.037l-1.352.618a18.627,18.627,0,0,1-4.565.758c-2.088,0-7.074.024-7.074.024Z" transform="translate(-53.432 -91.772)"/><path class="f" d="M231.742,405.575l1.713-2.4a8.882,8.882,0,0,0,.391-2.016l.006-.1.1.008a36.07,36.07,0,0,0,4.861.126,5.812,5.812,0,0,0,2.507-.9,2.629,2.629,0,0,0,.309-.723c.18-.538.385-1.148.785-1.237a.347.347,0,0,1,.074-.008c.79,0,1.789,2.655,1.8,2.682a28,28,0,0,1,.73,3.052l.014.075-1.419.649a18.775,18.775,0,0,1-4.607.767c-2.064,0-7.023.024-7.073.024Zm2.288-4.306a8.6,8.6,0,0,1-.4,1.983l-.012.022-1.5,2.107c.929,0,5.052-.023,6.886-.023a18.666,18.666,0,0,0,4.538-.754l1.271-.583a26.761,26.761,0,0,0-.707-2.947c-.394-1.071-1.179-2.557-1.612-2.557a.159.159,0,0,0-.038,0c-.294.065-.488.645-.644,1.11a2.647,2.647,0,0,1-.345.787,5.768,5.768,0,0,1-2.619.965,33.8,33.8,0,0,1-4.815-.115" transform="translate(-53.376 -91.744)"/><path class="h" d="M241.69,418.09a.363.363,0,0,1,.171-.17,7.146,7.146,0,0,1,3.767-.115,11.586,11.586,0,0,1,2.661,1.016.33.33,0,0,1,.2.337c-.066.459-.212,1.528-.222,1.93a12.2,12.2,0,0,1-.45,4.55c-.557,1.361-2.012,2.582-4.476,4.192a12.062,12.062,0,0,1-6.188,1.633l-8.67-.062.52-4.122,8.01.171c1.492-.1,2.063-.218,2.623-.7.677-.582.322-2.333.322-2.333l.2-2.053s1.169-3.554,1.529-4.273" transform="translate(-52.626 -96.189)"/><path class="n" d="M137.833,458.27v-4.147h-7.705v-2.649l6.581-10.594h4.976v10.193h2.087v3.05h-2.087v4.147Zm0-7.2v-3.852c0-1.043.053-2.114.134-3.237h-.108c-.562,1.124-1.017,2.14-1.606,3.237l-2.327,3.8v.053Z" transform="translate(-29.972 -101.545)"/><path class="n" d="M150.916,440.046h4.093v14.608h7.17v3.424H150.916Z" transform="translate(-34.76 -101.353)"/><path class="e" d="M51.7,624.637c-3.232.06-6.468.111-9.7.088a14.446,14.446,0,0,1-5.383-.945,20.063,20.063,0,0,1-4.7-3.085,6.234,6.234,0,0,1-2.2-3.009,12.858,12.858,0,0,1-.377-4.022,6.27,6.27,0,0,0-.563-3.425,15.376,15.376,0,0,1-2.492-8.921,39.379,39.379,0,0,1,.61-6.006c.291-1.656.5-3.737,1.571-5.226.679-.944,2.42-.866,3.634-.944a25.959,25.959,0,0,1,4.115-.007,1.767,1.767,0,0,1,.625.142c.667.341.82,1.462,1.012,2.015a4.7,4.7,0,0,0,1.263,2.184,2.155,2.155,0,0,0,1.414.581c1.068.068,5.519-.069,5.519-.069.089.617.179,1.235.264,1.853,0,.008-3.314.157-3.617.165a8.407,8.407,0,0,1-3.822-.427,2.01,2.01,0,0,1-1.166-1.435c-.1-.277-.291-1.332-.829-1.332-.623,0-1.068,1.245-1.959,3.251a12.175,12.175,0,0,0-.9,6.769,14.841,14.841,0,0,0,1.783,4.739c.407.732.95,1.442,1.3,2.187a19.168,19.168,0,0,1,.849,2.363,18.432,18.432,0,0,1,1.022,4.431c.046.741-.4,1.953.443,2.818,1.492.887,4.947.575,5.962.554l5.474-.115c.015,0,.238-.06.238-.058Z" transform="translate(-6.055 -135.673)"/><path class="f" d="M43.571,624.8q-.8,0-1.6-.005a14.477,14.477,0,0,1-5.419-.954,19.094,19.094,0,0,1-4.521-2.941l-.2-.158a6.343,6.343,0,0,1-2.228-3.056,13.042,13.042,0,0,1-.38-4.05l0-.176a5.841,5.841,0,0,0-.552-3.2,15.391,15.391,0,0,1-2.506-8.973,39.635,39.635,0,0,1,.613-6.02c.038-.223.076-.452.115-.687A10.775,10.775,0,0,1,28.367,590c.608-.846,2.019-.907,3.152-.957.192-.008.379-.016.554-.028a26.176,26.176,0,0,1,4.131-.006,1.822,1.822,0,0,1,.659.152c.564.288.781,1.081.94,1.662.042.152.08.292.12.406a4.6,4.6,0,0,0,1.237,2.144,2.072,2.072,0,0,0,1.355.556c1.05.066,5.465-.068,5.51-.069l.086,0,.089.618q.1.659.188,1.321l.005.042-.027.033c-.061.073-3.653.2-3.688.2l-.353.01a7.629,7.629,0,0,1-3.512-.445,2.105,2.105,0,0,1-1.218-1.492c-.016-.046-.035-.113-.058-.193-.1-.349-.3-1.073-.68-1.073-.476,0-.9.962-1.531,2.417-.106.244-.219.5-.339.775a12.141,12.141,0,0,0-.891,6.714,14.644,14.644,0,0,0,1.773,4.709c.164.3.355.6.54.884a11.643,11.643,0,0,1,.759,1.308,17.679,17.679,0,0,1,.788,2.166l.109.345a17.9,17.9,0,0,1,.983,4.319,4.5,4.5,0,0,1-.034.684,2.4,2.4,0,0,0,.441,2.063c1.264.742,4.018.618,5.342.557.226-.011.415-.019.557-.022l5.474-.116.138-.035c.109-.028.118-.028.152-.008l.041.024.005.047c0,.03.6,4.888.6,4.888l.013.106h-.107c-2.466.047-5.27.095-8.1.095M34.38,589.122c-.807,0-1.588.04-2.294.086-.177.012-.365.02-.559.028-1.092.048-2.451.106-3,.877a10.634,10.634,0,0,0-1.44,4.5c-.038.236-.075.466-.115.689a39.45,39.45,0,0,0-.61,5.991,15.213,15.213,0,0,0,2.479,8.871,5.989,5.989,0,0,1,.579,3.3l0,.176a12.849,12.849,0,0,0,.373,3.99,6.152,6.152,0,0,0,2.163,2.963l.2.158a18.974,18.974,0,0,0,4.475,2.914,14.3,14.3,0,0,0,5.346.938c3.321.025,6.685-.031,9.592-.087-.419-3.405-.54-4.389-.574-4.675a.8.8,0,0,1-.156.035l-5.472.116c-.141,0-.329.011-.552.021-1.452.065-4.152.189-5.461-.59l-.02-.015a2.579,2.579,0,0,1-.5-2.227,4.447,4.447,0,0,0,.034-.653,17.791,17.791,0,0,0-.974-4.272l-.109-.346a17.65,17.65,0,0,0-.779-2.143,11.6,11.6,0,0,0-.747-1.286c-.186-.292-.379-.593-.546-.894a14.836,14.836,0,0,1-1.794-4.77,12.35,12.35,0,0,1,.9-6.823c.121-.272.234-.531.339-.774.713-1.634,1.106-2.534,1.707-2.534.523,0,.746.789.865,1.213.021.076.038.139.054.181a1.931,1.931,0,0,0,1.115,1.382,7.509,7.509,0,0,0,3.427.427l.353-.01c.267-.005,2.956-.127,3.51-.157q-.084-.608-.173-1.218l-.065-.448c-.641.021-4.45.132-5.443.067a2.255,2.255,0,0,1-1.472-.606,4.769,4.769,0,0,1-1.29-2.224c-.041-.118-.08-.262-.123-.419-.158-.575-.353-1.291-.842-1.541a1.686,1.686,0,0,0-.59-.131c-.6-.058-1.211-.079-1.8-.079" transform="translate(-6.026 -135.645)"/><path class="g" d="M42.8,625.665a4.761,4.761,0,0,0,1.619.921c.938.214,10.247-.179,10.266.025l.2,1.57-4.245.114-3.039.082a13.522,13.522,0,0,1-3.811-.266,1.989,1.989,0,0,1-.991-2.447" transform="translate(-9.841 -144.105)"/><path class="f" d="M46.423,628.452a8.864,8.864,0,0,1-2.7-.3,2.086,2.086,0,0,1-1.049-2.556l.032-.146.261.193a4.15,4.15,0,0,0,1.442.8c.471.109,3.236.056,5.675.011,4.646-.09,4.651-.055,4.666.1l.213,1.671-7.39.2c-.046,0-.528.028-1.152.028m-3.587-2.669a1.85,1.85,0,0,0,.957,2.188,13.569,13.569,0,0,0,3.773.26l7.18-.194-.179-1.409c-.354-.062-2.539-.021-4.478.015-2.57.049-5.227.1-5.721-.014a4.29,4.29,0,0,1-1.515-.833Z" transform="translate(-9.812 -144.056)"/><path class="g" d="M49.113,599.258a9.854,9.854,0,0,1-.445-2.282,40.586,40.586,0,0,1-5.431.138,6.437,6.437,0,0,1-2.849-1.038c-.356-.415-.535-2.006-1.158-2.144s-1.6,1.937-1.959,2.9a31.431,31.431,0,0,0-.807,3.376l1.5.687a20.7,20.7,0,0,0,5.074.843c2.32,0,7.862.026,7.862.026Z" transform="translate(-8.399 -136.795)"/><path class="f" d="M51.059,601.838h-.188c-.056,0-5.569-.026-7.862-.026a20.932,20.932,0,0,1-5.1-.847l-1.582-.723.014-.074a31.006,31.006,0,0,1,.811-3.391c.012-.031,1.119-2.975,1.99-2.975a.353.353,0,0,1,.08.009c.439.1.665.773.865,1.368a2.923,2.923,0,0,0,.344.807,6.46,6.46,0,0,0,2.793,1.005,40.707,40.707,0,0,0,5.406-.14l.1-.008.006.1a9.9,9.9,0,0,0,.436,2.244Zm-14.518-1.709,1.434.657a20.865,20.865,0,0,0,5.034.834c2.053,0,6.685.021,7.674.025l-1.694-2.381a9.544,9.544,0,0,1-.443-2.212,37.763,37.763,0,0,1-5.359.129,6.519,6.519,0,0,1-2.9-1.07,2.9,2.9,0,0,1-.382-.871c-.183-.546-.39-1.168-.723-1.242a.2.2,0,0,0-.043,0c-.488,0-1.365,1.656-1.8,2.848a30.247,30.247,0,0,0-.788,3.287" transform="translate(-8.366 -136.766)"/><path class="h" d="M37.785,615.756a.409.409,0,0,0-.192-.189,7.922,7.922,0,0,0-4.186-.127,12.81,12.81,0,0,0-2.958,1.129.364.364,0,0,0-.226.375c.072.51.236,1.7.246,2.144a13.575,13.575,0,0,0,.5,5.057c.619,1.513,2.237,2.87,4.974,4.66a13.407,13.407,0,0,0,6.878,1.816l9.637-.068-.579-4.582-8.9.19c-1.656-.108-2.292-.242-2.916-.778-.753-.648-.356-2.594-.356-2.594l-.222-2.282s-1.3-3.951-1.7-4.75" transform="translate(-6.961 -141.704)"/><path class="e" d="M53.816,603.439l5.739,32.517a66.8,66.8,0,0,0,1.907,6.706c1.372,4.443,21.282,22.848,67.357,22.848s60.731-16.453,62.839-22.848,2.208-6.706,2.208-6.706l4.1-32.517" transform="translate(-12.395 -138.986)"/><path class="f" d="M128.791,665.6c-24.648,0-41.058-5.311-50.483-9.766-10.423-4.927-16.2-10.655-16.966-13.148a66.53,66.53,0,0,1-1.911-6.725l-5.738-32.512.189-.033,5.739,32.517a67.2,67.2,0,0,0,1.9,6.695c.6,1.933,5.5,7.662,16.864,13.031,9.407,4.447,25.788,9.749,50.4,9.749,19.964,0,36.068-3.033,47.864-9.016,11.823-6,14.473-12.519,14.884-13.766,2.08-6.309,2.207-6.7,2.208-6.706l4.095-32.5.191.024-4.1,32.517c0,.021-.128.4-2.213,6.725-.415,1.26-3.089,7.848-14.979,13.878-11.823,6-27.956,9.036-47.951,9.036" transform="translate(-12.367 -138.981)"/><path class="e" d="M199.846,587.98c0,13.512-33.456,24.464-74.726,24.464S50.393,601.492,50.393,587.98s33.456-24.465,74.727-24.465,74.726,10.953,74.726,24.465" transform="translate(-11.607 -129.791)"/><path class="f" d="M125.092,612.512c-19.97,0-38.746-2.546-52.87-7.17-14.157-4.636-21.953-10.812-21.953-17.392s7.8-12.756,21.953-17.391c14.124-4.623,32.9-7.17,52.87-7.17s38.746,2.547,52.869,7.17c14.157,4.635,21.953,10.811,21.953,17.391s-7.8,12.756-21.953,17.392c-14.123,4.624-32.9,7.17-52.869,7.17m0-48.929c-41.151,0-74.63,10.932-74.63,24.368s33.479,24.369,74.63,24.369,74.63-10.932,74.63-24.369-33.479-24.368-74.63-24.368" transform="translate(-11.578 -129.762)"/><g class="i" transform="translate(60.766 434.948)"><g class="o"><path class="k" d="M184.378,580.666c0,8.525-23.574,15.437-52.651,15.437s-52.65-6.912-52.65-15.437,23.572-15.437,52.65-15.437,52.651,6.912,52.651,15.437" transform="translate(-78.979 -565.134)"/><path class="f" d="M131.7,596.171c-14.073,0-27.3-1.607-37.257-4.526-9.989-2.928-15.491-6.837-15.491-11.007s5.5-8.079,15.491-11.008c9.953-2.918,23.184-4.525,37.257-4.525s27.3,1.607,37.257,4.525c9.989,2.929,15.49,6.839,15.49,11.008s-5.5,8.079-15.49,11.007c-9.953,2.919-23.184,4.526-37.257,4.526m0-30.873c-28.979,0-52.555,6.881-52.555,15.34s23.576,15.34,52.555,15.34,52.554-6.882,52.554-15.34S160.676,565.3,131.7,565.3" transform="translate(-78.95 -565.105)"/></g></g><path class="e" d="M166.017,579.4c0,4.167-11.842,7.546-26.451,7.546s-26.451-3.379-26.451-7.546,11.842-7.546,26.451-7.546,26.451,3.379,26.451,7.546" transform="translate(-26.053 -131.711)"/><path class="f" d="M139.538,587.012c-14.638,0-26.547-3.427-26.547-7.641s11.908-7.642,26.547-7.642,26.547,3.428,26.547,7.642-11.908,7.641-26.547,7.641m0-15.09c-14.532,0-26.354,3.342-26.354,7.45s11.822,7.448,26.354,7.448,26.354-3.341,26.354-7.448-11.822-7.45-26.354-7.45" transform="translate(-26.025 -131.683)"/><path class="l" d="M140.146,570.865v7.263a24.111,24.111,0,0,0,5.772,1.121,21.061,21.061,0,0,0,5.521-1.121v-7.263" transform="translate(-32.279 -131.484)"/><path class="f" d="M145.889,579.345a24.329,24.329,0,0,1-5.8-1.126l-.067-.022v-7.332h.192v7.191a23.632,23.632,0,0,0,5.676,1.1,20.659,20.659,0,0,0,5.425-1.094v-7.193h.192v7.33l-.065.022a21.275,21.275,0,0,1-5.552,1.127" transform="translate(-32.25 -131.484)"/><path class="l" d="M160.648,563.334c0,2.681-8.412,4.855-18.788,4.855s-18.788-2.174-18.788-4.855,8.412-4.854,18.788-4.854,18.788,2.174,18.788,4.854" transform="translate(-28.346 -128.631)"/><path class="f" d="M141.831,568.256c-10.413,0-18.884-2.22-18.884-4.95s8.471-4.951,18.884-4.951,18.884,2.221,18.884,4.951-8.472,4.95-18.884,4.95m0-9.708c-10.307,0-18.692,2.134-18.692,4.758s8.385,4.757,18.692,4.757,18.692-2.134,18.692-4.757-8.385-4.758-18.692-4.758" transform="translate(-28.318 -128.603)"/><path class="m" d="M160.648,560.6c0,2.681-8.412,4.854-18.788,4.854s-18.788-2.174-18.788-4.854,8.412-4.854,18.788-4.854,18.788,2.174,18.788,4.854" transform="translate(-28.346 -128.001)"/><path class="f" d="M141.831,565.52c-10.413,0-18.884-2.22-18.884-4.95s8.471-4.951,18.884-4.951,18.884,2.221,18.884,4.951-8.472,4.95-18.884,4.95m0-9.708c-10.307,0-18.692,2.134-18.692,4.758s8.385,4.757,18.692,4.757,18.692-2.134,18.692-4.757-8.385-4.758-18.692-4.758" transform="translate(-28.318 -127.972)"/><path class="e" d="M237.24,623.973c3.232.061,6.468.112,9.7.089a14.442,14.442,0,0,0,5.382-.945,20.066,20.066,0,0,0,4.7-3.086,6.236,6.236,0,0,0,2.2-3.009,12.874,12.874,0,0,0,.376-4.021,6.269,6.269,0,0,1,.563-3.425,15.377,15.377,0,0,0,2.492-8.922,39.37,39.37,0,0,0-.61-6.005c-.29-1.656-.5-3.738-1.571-5.227-.679-.944-2.42-.865-3.634-.944a25.858,25.858,0,0,0-4.115-.007,1.744,1.744,0,0,0-.624.142c-.668.34-.82,1.462-1.013,2.014a4.687,4.687,0,0,1-1.263,2.184,2.162,2.162,0,0,1-1.414.581c-1.068.069-5.519-.069-5.519-.069-.089.617-.179,1.235-.264,1.853,0,.007,3.314.157,3.617.164a8.4,8.4,0,0,0,3.822-.426,2.013,2.013,0,0,0,1.167-1.436c.1-.276.29-1.331.828-1.331.623,0,1.068,1.245,1.959,3.251a12.166,12.166,0,0,1,.9,6.768,14.844,14.844,0,0,1-1.783,4.74c-.407.732-.95,1.442-1.3,2.187a19.306,19.306,0,0,0-.849,2.364,18.425,18.425,0,0,0-1.022,4.431c-.046.741.4,1.953-.443,2.817-1.491.887-4.947.575-5.961.554l-5.475-.115c-.015,0-.238-.061-.238-.059l-.6,4.889" transform="translate(-54.642 -135.52)"/><path class="f" d="M245.3,624.134c-2.768,0-5.5-.045-8.1-.094l-.106,0,.619-5.034.032-.025c.038-.032.048-.027.176.005.054.014.115.03.133.033l5.463.115c.142,0,.332.012.557.022,1.325.061,4.078.185,5.343-.556a2.4,2.4,0,0,0,.441-2.064,4.6,4.6,0,0,1-.035-.683,17.888,17.888,0,0,1,.984-4.319l.1-.331a17.6,17.6,0,0,1,.793-2.18,11.684,11.684,0,0,1,.759-1.308c.185-.289.376-.589.54-.884a14.662,14.662,0,0,0,1.772-4.709,12.145,12.145,0,0,0-.89-6.714c-.122-.273-.234-.532-.34-.775-.636-1.456-1.055-2.418-1.53-2.418-.378,0-.582.726-.68,1.074-.022.08-.041.146-.058.193a2.106,2.106,0,0,1-1.217,1.491,7.618,7.618,0,0,1-3.516.445l-.349-.009c-.035,0-3.625-.125-3.688-.2l-.028-.032.006-.042q.089-.652.185-1.3l.092-.634.085,0c.045,0,4.46.138,5.511.069a2.072,2.072,0,0,0,1.355-.556,4.618,4.618,0,0,0,1.237-2.144c.04-.115.078-.255.12-.407.159-.58.375-1.374.94-1.663a1.815,1.815,0,0,1,.659-.151,26.171,26.171,0,0,1,4.131.007c.175.011.362.019.554.028,1.133.049,2.544.111,3.151.956a10.767,10.767,0,0,1,1.472,4.579c.038.235.076.465.115.687a39.587,39.587,0,0,1,.613,6.02A15.369,15.369,0,0,1,260.2,609.6a5.856,5.856,0,0,0-.552,3.2l0,.178a13.014,13.014,0,0,1-.38,4.052,6.337,6.337,0,0,1-2.227,3.056l-.2.159a19.1,19.1,0,0,1-4.52,2.939,14.46,14.46,0,0,1-5.419.953c-.536,0-1.072.005-1.606.005m-7.986-.284c3.061.056,6.319.11,9.591.086a14.283,14.283,0,0,0,5.346-.937,18.958,18.958,0,0,0,4.474-2.914l.2-.159a6.153,6.153,0,0,0,2.163-2.962,12.864,12.864,0,0,0,.372-3.992l0-.178a6,6,0,0,1,.579-3.3,15.208,15.208,0,0,0,2.479-8.87,39.406,39.406,0,0,0-.61-5.991c-.039-.223-.076-.453-.115-.69a10.612,10.612,0,0,0-1.439-4.5c-.553-.77-1.912-.829-3-.877-.194-.008-.382-.016-.559-.028a25.68,25.68,0,0,0-4.1-.009,1.693,1.693,0,0,0-.59.132c-.489.249-.684.966-.841,1.541-.043.157-.082.3-.123.42a4.785,4.785,0,0,1-1.29,2.224,2.258,2.258,0,0,1-1.472.606c-.991.062-4.8-.047-5.443-.067l-.067.464c-.057.4-.115.8-.17,1.2.55.03,3.231.151,3.509.158l.35.009a7.487,7.487,0,0,0,3.43-.427,1.927,1.927,0,0,0,1.116-1.381c.015-.043.032-.106.053-.18.12-.425.342-1.215.866-1.215.6,0,.994.9,1.706,2.533.106.244.219.5.339.774a12.351,12.351,0,0,1,.905,6.824,14.886,14.886,0,0,1-1.794,4.77c-.168.3-.36.6-.547.9a11.446,11.446,0,0,0-.747,1.285,17.471,17.471,0,0,0-.783,2.156l-.1.331a17.765,17.765,0,0,0-.974,4.273,4.445,4.445,0,0,0,.033.653,2.573,2.573,0,0,1-.5,2.226l-.019.015c-1.309.778-4.01.653-5.461.589-.223-.01-.412-.018-.552-.022l-5.475-.115a.811.811,0,0,1-.153-.035Z" transform="translate(-54.61 -135.492)"/><path class="g" d="M250.106,625a4.764,4.764,0,0,1-1.62.921c-.938.214-10.247-.179-10.265.025l-.2,1.569,4.245.115,3.039.082a13.526,13.526,0,0,0,3.812-.266,1.989,1.989,0,0,0,.991-2.446" transform="translate(-54.822 -143.953)"/><path class="f" d="M246.424,627.79c-.627,0-1.111-.026-1.158-.029l-7.387-.2.214-1.674c.014-.152.017-.186,4.665-.1,2.439.046,5.2.1,5.675-.01a4.163,4.163,0,0,0,1.442-.8l.261-.192.032.145a2.088,2.088,0,0,1-1.052,2.557,8.817,8.817,0,0,1-2.692.3m-8.327-.415,7.177.194a13.518,13.518,0,0,0,3.773-.259,1.851,1.851,0,0,0,.961-2.189l-.018.013a4.281,4.281,0,0,1-1.515.834c-.494.112-3.151.063-5.721.014-1.938-.035-4.124-.076-4.478-.015Z" transform="translate(-54.789 -143.903)"/><path class="g" d="M243.109,598.6a9.833,9.833,0,0,0,.446-2.283,40.444,40.444,0,0,0,5.43.139,6.446,6.446,0,0,0,2.849-1.038c.356-.415.534-2,1.157-2.144s1.6,1.937,1.959,2.9a31.532,31.532,0,0,1,.807,3.377l-1.5.687a20.7,20.7,0,0,1-5.074.843c-2.32,0-7.862.026-7.862.026Z" transform="translate(-55.581 -136.643)"/><path class="f" d="M241.073,601.174l1.893-2.654a9.845,9.845,0,0,0,.436-2.244l.006-.1.1.008a40.669,40.669,0,0,0,5.405.14,6.467,6.467,0,0,0,2.793-1.005,2.919,2.919,0,0,0,.345-.807c.2-.595.425-1.27.865-1.368a.355.355,0,0,1,.081-.009c.87,0,1.977,2.944,1.988,2.975a30.824,30.824,0,0,1,.811,3.39l.014.075-1.57.718a20.866,20.866,0,0,1-5.115.852c-2.294,0-7.806.026-7.862.026Zm2.513-4.787a9.535,9.535,0,0,1-.443,2.212l-.012.022-1.682,2.36c.989,0,5.622-.025,7.674-.025a20.808,20.808,0,0,0,5.047-.838l1.422-.653a30,30,0,0,0-.788-3.286c-.439-1.193-1.316-2.849-1.8-2.849a.214.214,0,0,0-.044,0c-.332.074-.54.694-.723,1.241a2.919,2.919,0,0,1-.382.871,6.512,6.512,0,0,1-2.9,1.07,37.849,37.849,0,0,1-5.359-.13" transform="translate(-55.525 -136.614)"/><path class="h" d="M252.1,615.092a.41.41,0,0,1,.192-.189,7.922,7.922,0,0,1,4.185-.127,12.836,12.836,0,0,1,2.958,1.128.367.367,0,0,1,.226.375c-.073.51-.236,1.7-.246,2.144a13.6,13.6,0,0,1-.5,5.058c-.619,1.513-2.237,2.87-4.974,4.66a13.409,13.409,0,0,1-6.877,1.815l-9.638-.068.579-4.582,8.9.19c1.656-.107,2.292-.242,2.916-.778.753-.647.356-2.593.356-2.593l.222-2.282s1.3-3.951,1.7-4.75" transform="translate(-54.685 -141.551)"/><path class="n" d="M141.745,644.14h-7.494l-.416,2.973a8.418,8.418,0,0,1,1.249-.059,8.838,8.838,0,0,1,5.084,1.4,5.5,5.5,0,0,1,2.349,4.847c0,3.6-3.093,6.78-8.3,6.78a12.274,12.274,0,0,1-5.382-1.1l.8-3.39a11.108,11.108,0,0,0,4.372.951c1.873,0,3.865-.892,3.865-2.943,0-1.993-1.576-3.212-5.442-3.212a16.64,16.64,0,0,0-2.617.179l1.278-10.141h10.646Z" transform="translate(-29.675 -147.504)"/><path class="n" d="M151.211,639.5h4.55v16.236h7.97v3.806h-12.52Z" transform="translate(-34.827 -147.291)"/><path class="e" d="M30.986,835.85c-3.925.073-7.855.135-11.781.108a17.54,17.54,0,0,1-6.538-1.149,24.323,24.323,0,0,1-5.7-3.747A7.57,7.57,0,0,1,4.3,827.407a15.614,15.614,0,0,1-.458-4.883,7.613,7.613,0,0,0-.683-4.16A18.673,18.673,0,0,1,.131,807.528a47.8,47.8,0,0,1,.741-7.293c.353-2.013.61-4.54,1.908-6.348.824-1.147,2.939-1.051,4.413-1.147a31.589,31.589,0,0,1,5-.008,2.171,2.171,0,0,1,.757.172c.812.414,1,1.776,1.23,2.448A5.7,5.7,0,0,0,15.713,798a2.618,2.618,0,0,0,1.716.706c1.3.084,6.7-.084,6.7-.084.108.75.218,1.5.321,2.25,0,.008-4.025.191-4.393.2a10.207,10.207,0,0,1-4.643-.518A2.444,2.444,0,0,1,14,798.813c-.119-.336-.353-1.616-1.005-1.616-.757,0-1.3,1.512-2.379,3.948a14.781,14.781,0,0,0-1.09,8.22,18.012,18.012,0,0,0,2.166,5.756c.493.89,1.153,1.753,1.574,2.656a23.545,23.545,0,0,1,1.032,2.87,22.389,22.389,0,0,1,1.241,5.382c.056.9-.49,2.371.537,3.422,1.811,1.076,6.008.7,7.241.673l6.648-.141c.018,0,.289-.073.289-.07Z" transform="translate(-0.029 -182.563)"/><path class="f" d="M21.123,836.033q-.971,0-1.947-.007A17.553,17.553,0,0,1,12.6,834.87a23.148,23.148,0,0,1-5.479-3.563l-.249-.2a7.683,7.683,0,0,1-2.7-3.7,15.819,15.819,0,0,1-.461-4.914l0-.212a7.133,7.133,0,0,0-.673-3.9A18.66,18.66,0,0,1,0,807.5a48.213,48.213,0,0,1,.744-7.307c.047-.269.092-.548.139-.833A13.059,13.059,0,0,1,2.673,793.8c.732-1.019,2.439-1.093,3.811-1.153.234-.01.46-.02.673-.034a31.878,31.878,0,0,1,5.013-.008,2.2,2.2,0,0,1,.793.181c.678.346.941,1.305,1.131,2.006.05.184.1.358.146.5a5.6,5.6,0,0,0,1.508,2.613,2.54,2.54,0,0,0,1.659.681c1.276.082,6.64-.083,6.695-.085l.085,0,.109.753c.075.527.152,1.056.225,1.584l.005.043-.028.033c-.063.073-4.419.232-4.463.233l-.427.011a9.25,9.25,0,0,1-4.257-.538,2.541,2.541,0,0,1-1.467-1.8c-.02-.055-.042-.135-.07-.232-.129-.462-.37-1.32-.845-1.32-.591,0-1.1,1.172-1.877,2.948-.129.3-.266.61-.413.942a14.769,14.769,0,0,0-1.083,8.166,17.821,17.821,0,0,0,2.154,5.725c.2.361.433.724.657,1.076a14.205,14.205,0,0,1,.921,1.586,21.451,21.451,0,0,1,.96,2.641l.128.406A21.715,21.715,0,0,1,15.608,826a5.439,5.439,0,0,1-.041.826,2.925,2.925,0,0,0,.543,2.524c1.539.9,4.89.755,6.5.68.273-.012.5-.022.676-.026l6.648-.141.148-.037c.159-.042.16-.042.2-.016l.036.025.748,6.087-.106,0c-3.146.059-6.466.115-9.836.115M9.961,792.7c-.981,0-1.93.048-2.79.105-.215.013-.443.024-.678.034-1.331.058-2.986.13-3.664,1.073a12.932,12.932,0,0,0-1.752,5.473c-.047.286-.092.565-.139.835A48.044,48.044,0,0,0,.2,807.5a18.5,18.5,0,0,0,3.014,10.784,7.273,7.273,0,0,1,.7,4l0,.212a15.645,15.645,0,0,0,.453,4.854,7.5,7.5,0,0,0,2.633,3.608l.249.2a23.041,23.041,0,0,0,5.432,3.536,17.383,17.383,0,0,0,6.5,1.141c3.995.03,7.955-.037,11.671-.105l-.7-5.724-.014,0a1.032,1.032,0,0,1-.192.043l-6.647.141c-.171,0-.4.015-.671.026-1.761.08-5.037.229-6.62-.713l-.02-.015a3.111,3.111,0,0,1-.606-2.687,5.409,5.409,0,0,0,.041-.8,21.6,21.6,0,0,0-1.185-5.195l-.129-.406a21.321,21.321,0,0,0-.951-2.617,13.99,13.99,0,0,0-.907-1.563c-.227-.354-.46-.72-.664-1.087A18.02,18.02,0,0,1,9.4,809.353a14.972,14.972,0,0,1,1.1-8.276c.148-.332.284-.646.413-.942.862-1.974,1.337-3.063,2.053-3.063.62,0,.887.95,1.031,1.46.025.091.047.167.065.219a2.363,2.363,0,0,0,1.365,1.69,9.128,9.128,0,0,0,4.172.52l.429-.011c.345-.008,3.669-.159,4.285-.192-.068-.494-.139-.988-.21-1.482l-.083-.582c-.7.021-5.43.158-6.628.082a2.714,2.714,0,0,1-1.775-.731,5.767,5.767,0,0,1-1.561-2.692c-.05-.145-.1-.322-.149-.508-.192-.7-.431-1.578-1.033-1.885a2.065,2.065,0,0,0-.724-.162c-.732-.07-1.47-.1-2.191-.1" transform="translate(0 -182.534)"/><path class="g" d="M20.175,837.1a5.785,5.785,0,0,0,1.967,1.118c1.14.259,12.445-.218,12.468.032l.243,1.906-5.155.139-3.691.1s-3.359.185-4.63-.323c-1.162-.42-1.466-1.759-1.2-2.971" transform="translate(-4.626 -192.804)"/><path class="f" d="M24.584,840.475a10.779,10.779,0,0,1-3.27-.364,2.516,2.516,0,0,1-1.261-3.081l.032-.145.29.215a5.062,5.062,0,0,0,1.761.975c.575.132,3.932.068,6.895.012,5.627-.105,5.632-.061,5.647.1,0,.019.243,1.9.243,1.9l.013.105-8.952.242c-.055,0-.64.035-1.4.035m-4.372-3.257a2.279,2.279,0,0,0,1.171,2.713c1.239.5,4.557.319,4.591.318l8.742-.236c-.157-1.229-.207-1.622-.223-1.749-.386-.081-3.076-.029-5.459.016-3.119.058-6.344.119-6.941-.017a5.207,5.207,0,0,1-1.833-1.009Z" transform="translate(-4.598 -192.754)"/><path class="g" d="M27.845,805.028a11.953,11.953,0,0,1-.541-2.772,49.251,49.251,0,0,1-6.6.169,7.822,7.822,0,0,1-3.46-1.26c-.433-.5-.649-2.436-1.405-2.6s-1.947,2.351-2.379,3.528a38.216,38.216,0,0,0-.98,4.1l1.825.835a25.147,25.147,0,0,0,6.163,1.024c2.818,0,9.549.032,9.549.032Z" transform="translate(-2.876 -183.926)"/><path class="f" d="M30.177,808.147h-.188c-.068,0-6.763-.032-9.549-.032a25.4,25.4,0,0,1-6.191-1.028l-1.9-.87.014-.074a37.68,37.68,0,0,1,.984-4.115c.353-.96,1.523-3.6,2.4-3.6a.4.4,0,0,1,.091.01c.522.116.794.93,1.034,1.649a3.562,3.562,0,0,0,.423.987,7.863,7.863,0,0,0,3.4,1.228,48.9,48.9,0,0,0,6.571-.17l.1-.008.006.1a12,12,0,0,0,.53,2.734ZM12.561,806.1l1.756.8a25.312,25.312,0,0,0,6.123,1.014c2.523,0,8.251.025,9.361.031l-2.078-2.92a11.807,11.807,0,0,1-.539-2.7,46.54,46.54,0,0,1-6.525.159c-1.371-.247-3.056-.757-3.516-1.293a3.6,3.6,0,0,1-.459-1.051c-.224-.67-.478-1.429-.894-1.522-.593-.133-1.716,1.966-2.267,3.467a36.562,36.562,0,0,0-.962,4.01" transform="translate(-2.843 -183.897)"/><path class="h" d="M14.088,825.065a.5.5,0,0,0-.232-.23,9.639,9.639,0,0,0-5.084-.154,15.606,15.606,0,0,0-3.592,1.371.443.443,0,0,0-.274.455c.089.62.286,2.062.3,2.6.015.677-.311,3.9.608,6.142.752,1.837,2.717,3.486,6.042,5.659a16.3,16.3,0,0,0,8.353,2.2l11.7-.084-.7-5.565-10.813.231c-2.011-.13-2.784-.294-3.541-.944-.914-.787-.433-3.15-.433-3.15l-.27-2.772s-1.578-4.8-2.064-5.768" transform="translate(-1.129 -189.887)"/><path class="e" d="M33.557,810.1,40.526,849.6a81.11,81.11,0,0,0,2.316,8.145c1.667,5.4,25.847,27.748,81.805,27.748s73.757-19.983,76.317-27.748,2.682-8.145,2.682-8.145l4.978-39.492" transform="translate(-7.729 -186.586)"/><path class="f" d="M124.619,885.581c-29.931,0-49.857-6.45-61.3-11.86-12.652-5.981-19.659-12.931-20.594-15.957A80.472,80.472,0,0,1,40.4,849.6l-6.969-39.487.189-.033,6.969,39.492a83.975,83.975,0,0,0,2.314,8.132c.727,2.351,6.691,9.316,20.493,15.84,11.427,5.4,31.324,11.841,61.22,11.841,24.249,0,43.811-3.684,58.14-10.952,11.129-5.644,16.64-12.344,18.087-16.731,2.527-7.664,2.681-8.14,2.682-8.144l4.974-39.474.191.024L203.714,849.6c0,.021-.155.486-2.686,8.162-1.459,4.424-7,11.172-18.182,16.843-14.356,7.28-33.947,10.973-58.227,10.973" transform="translate(-7.701 -186.581)"/><path class="e" d="M210.909,791.331c0,16.41-40.633,29.713-90.755,29.713S29.4,807.74,29.4,791.331s40.633-29.713,90.755-29.713,90.755,13.3,90.755,29.713" transform="translate(-6.771 -175.419)"/><path class="f" d="M120.126,821.11c-24.252,0-47.053-3.093-64.2-8.707-17.184-5.626-26.648-13.12-26.648-21.1s9.464-15.476,26.648-21.1c17.151-5.615,39.952-8.707,64.2-8.707s47.053,3.093,64.2,8.707c17.184,5.625,26.648,13.119,26.648,21.1s-9.464,15.475-26.648,21.1c-17.151,5.614-39.952,8.707-64.2,8.707m0-59.424c-49.989,0-90.659,13.286-90.659,29.616s40.67,29.616,90.659,29.616,90.659-13.286,90.659-29.616-40.67-29.616-90.659-29.616" transform="translate(-6.743 -175.39)"/><g class="i" transform="translate(49.343 587.706)"><g class="p"><path class="k" d="M192.121,782.449c0,10.354-28.629,18.747-63.944,18.747S64.233,792.8,64.233,782.449,92.862,763.7,128.177,763.7s63.944,8.393,63.944,18.747" transform="translate(-64.138 -763.605)"/><path class="f" d="M128.149,801.263c-17.089,0-33.156-1.951-45.242-5.5-12.122-3.554-18.8-8.294-18.8-13.349s6.676-9.794,18.8-13.348c12.086-3.544,28.153-5.5,45.242-5.5s33.156,1.951,45.242,5.5c12.122,3.554,18.8,8.294,18.8,13.348s-6.676,9.795-18.8,13.349c-12.086,3.544-28.153,5.5-45.242,5.5m0-37.495c-35.206,0-63.848,8.367-63.848,18.651s28.642,18.652,63.848,18.652S192,792.7,192,782.419s-28.642-18.651-63.848-18.651" transform="translate(-64.109 -763.576)"/></g></g><path class="e" d="M169.824,780.91c0,5.061-14.383,9.164-32.125,9.164s-32.124-4.1-32.124-9.164,14.382-9.163,32.124-9.163,32.125,4.1,32.125,9.163" transform="translate(-24.316 -177.752)"/><path class="f" d="M137.671,790.141c-17.766,0-32.22-4.155-32.22-9.261s14.454-9.259,32.22-9.259,32.22,4.153,32.22,9.259-14.454,9.261-32.22,9.261m0-18.328c-17.66,0-32.028,4.067-32.028,9.067s14.368,9.068,32.028,9.068S169.7,785.88,169.7,780.88s-14.368-9.067-32.028-9.067" transform="translate(-24.288 -177.723)"/><path class="l" d="M138.4,770.546v8.819a29.277,29.277,0,0,0,7.01,1.362,25.573,25.573,0,0,0,6.705-1.362v-8.819" transform="translate(-31.877 -177.475)"/><path class="f" d="M145.385,780.823a29.612,29.612,0,0,1-7.039-1.365l-.066-.022v-8.889h.192v8.749a28.827,28.827,0,0,0,6.913,1.335,25.189,25.189,0,0,0,6.609-1.334v-8.75h.192v8.887l-.065.023a25.876,25.876,0,0,1-6.737,1.366" transform="translate(-31.849 -177.475)"/><path class="l" d="M163.3,761.4c0,3.256-10.215,5.895-22.818,5.895s-22.817-2.639-22.817-5.895,10.216-5.9,22.817-5.9,22.818,2.64,22.818,5.9" transform="translate(-27.102 -174.01)"/><path class="f" d="M140.456,767.362c-12.635,0-22.913-2.688-22.913-5.991s10.278-5.992,22.913-5.992,22.914,2.688,22.914,5.992-10.279,5.991-22.914,5.991m0-11.791c-12.529,0-22.721,2.6-22.721,5.8s10.192,5.8,22.721,5.8,22.722-2.6,22.722-5.8-10.193-5.8-22.722-5.8" transform="translate(-27.073 -173.982)"/><path class="m" d="M163.3,758.078c0,3.256-10.215,5.895-22.818,5.895s-22.817-2.639-22.817-5.895,10.216-5.9,22.817-5.9,22.818,2.64,22.818,5.9" transform="translate(-27.102 -173.245)"/><path class="f" d="M140.456,764.04c-12.635,0-22.913-2.688-22.913-5.991s10.278-5.992,22.913-5.992,22.914,2.688,22.914,5.992-10.279,5.991-22.914,5.991m0-11.791c-12.529,0-22.721,2.6-22.721,5.8s10.192,5.8,22.721,5.8,22.722-2.6,22.722-5.8-10.193-5.8-22.722-5.8" transform="translate(-27.073 -173.217)"/><path class="e" d="M256.322,835.045c3.925.073,7.855.135,11.781.108A17.538,17.538,0,0,0,274.64,834a24.325,24.325,0,0,0,5.7-3.747,7.571,7.571,0,0,0,2.666-3.655,15.592,15.592,0,0,0,.458-4.883,7.62,7.62,0,0,1,.683-4.16,18.677,18.677,0,0,0,3.028-10.835,47.8,47.8,0,0,0-.742-7.293c-.353-2.013-.61-4.54-1.908-6.348-.824-1.147-2.939-1.051-4.413-1.147a31.6,31.6,0,0,0-5-.008,2.173,2.173,0,0,0-.758.172c-.811.414-1,1.776-1.23,2.448a5.7,5.7,0,0,1-1.535,2.652,2.617,2.617,0,0,1-1.716.706c-1.3.084-6.7-.084-6.7-.084-.107.75-.217,1.5-.32,2.25,0,.009,4.025.191,4.393.2a10.211,10.211,0,0,0,4.643-.518,2.441,2.441,0,0,0,1.416-1.744c.119-.336.353-1.616,1.006-1.616.757,0,1.3,1.512,2.378,3.948a14.774,14.774,0,0,1,1.09,8.22,17.992,17.992,0,0,1-2.166,5.756c-.493.89-1.153,1.753-1.574,2.656a23.414,23.414,0,0,0-1.031,2.87,22.389,22.389,0,0,0-1.241,5.382c-.057.9.489,2.371-.538,3.422-1.811,1.076-6.008.7-7.24.673l-6.648-.141c-.018,0-.289-.073-.289-.07Z" transform="translate(-59.037 -182.377)"/><path class="f" d="M266.125,835.227c-3.371,0-6.691-.056-9.836-.115l-.106,0,.748-6.086.036-.025c.038-.026.038-.025.2.015.065.018.139.036.158.039l6.639.14c.172,0,.4.014.676.026,1.613.075,4.964.226,6.5-.68a2.929,2.929,0,0,0,.543-2.525,5.541,5.541,0,0,1-.042-.826,21.739,21.739,0,0,1,1.194-5.24l.131-.417a21.342,21.342,0,0,1,.957-2.629,14.116,14.116,0,0,1,.92-1.586c.225-.352.458-.715.658-1.076a17.825,17.825,0,0,0,2.154-5.726,14.77,14.77,0,0,0-1.082-8.166q-.221-.5-.413-.941c-.775-1.776-1.287-2.949-1.878-2.949-.475,0-.716.859-.845,1.32-.027.1-.05.177-.07.232a2.54,2.54,0,0,1-1.467,1.8,9.255,9.255,0,0,1-4.257.538l-.428-.012c-.043,0-4.4-.16-4.463-.232l-.028-.033.005-.043c.071-.518.146-1.036.221-1.553l.112-.784.086,0c.054,0,5.417.167,6.694.084a2.53,2.53,0,0,0,1.659-.681,5.621,5.621,0,0,0,1.509-2.612c.048-.139.1-.312.145-.5.192-.7.453-1.659,1.131-2.005a2.2,2.2,0,0,1,.793-.181,31.7,31.7,0,0,1,5.013.007c.213.015.439.025.673.034,1.372.06,3.079.135,3.811,1.153a13.06,13.06,0,0,1,1.785,5.552c.047.286.092.566.139.836a48.037,48.037,0,0,1,.743,7.307,18.664,18.664,0,0,1-3.04,10.887,7.124,7.124,0,0,0-.673,3.9l0,.213a15.817,15.817,0,0,1-.461,4.913,7.678,7.678,0,0,1-2.7,3.7l-.245.2a23.162,23.162,0,0,1-5.481,3.565,17.587,17.587,0,0,1-6.573,1.156q-.977.007-1.948.007m-9.726-.3c3.717.068,7.676.133,11.672.105a17.4,17.4,0,0,0,6.5-1.141,23.041,23.041,0,0,0,5.435-3.537l.245-.2a7.49,7.49,0,0,0,2.635-3.609,15.644,15.644,0,0,0,.453-4.853l0-.213a7.27,7.27,0,0,1,.7-4A18.5,18.5,0,0,0,287.05,806.7a47.848,47.848,0,0,0-.74-7.279c-.048-.271-.093-.552-.14-.838a12.908,12.908,0,0,0-1.751-5.469c-.677-.944-2.333-1.016-3.663-1.074-.236-.009-.464-.02-.678-.034a31.305,31.305,0,0,0-4.982-.008,2.064,2.064,0,0,0-.724.162c-.6.307-.84,1.181-1.033,1.884-.051.187-.1.363-.149.509a5.774,5.774,0,0,1-1.561,2.692,2.712,2.712,0,0,1-1.775.73c-1.2.077-5.929-.061-6.627-.082l-.089.613c-.069.483-.139.966-.206,1.449.617.034,3.941.185,4.286.192l.429.012a9.1,9.1,0,0,0,4.172-.52,2.36,2.36,0,0,0,1.366-1.689c.018-.052.04-.129.065-.219.143-.51.41-1.461,1.031-1.461.717,0,1.192,1.088,2.054,3.066.129.295.266.609.413.939a14.971,14.971,0,0,1,1.1,8.276,18.018,18.018,0,0,1-2.176,5.787c-.2.366-.438.732-.664,1.087a13.973,13.973,0,0,0-.907,1.562,21.2,21.2,0,0,0-.947,2.606l-.132.417a21.571,21.571,0,0,0-1.185,5.195,5.287,5.287,0,0,0,.041.8,3.117,3.117,0,0,1-.606,2.688l-.019.015c-1.584.942-4.86.792-6.621.713-.272-.012-.5-.022-.671-.026l-6.648-.141a1.048,1.048,0,0,1-.192-.045l-.012,0Z" transform="translate(-59.005 -182.349)"/><path class="g" d="M271.949,836.293a5.792,5.792,0,0,1-1.967,1.118c-1.14.259-12.445-.218-12.468.032l-.243,1.906,5.155.139,3.691.1s3.359.186,4.629-.323c1.162-.42,1.466-1.759,1.2-2.971" transform="translate(-59.256 -192.618)"/><path class="f" d="M267.481,839.67c-.759,0-1.346-.032-1.4-.035l-8.949-.242.013-.105s.241-1.883.243-1.9c.015-.162.019-.208,5.648-.1,2.961.055,6.319.119,6.894-.012a5.048,5.048,0,0,0,1.759-.974l.293-.216.032.145a2.515,2.515,0,0,1-1.265,3.082,10.729,10.729,0,0,1-3.264.364m-10.134-.463,8.739.236c.036,0,3.356.179,4.591-.316a2.28,2.28,0,0,0,1.174-2.715l-.05.037a5.2,5.2,0,0,1-1.83,1.008c-.6.135-3.823.075-6.941.016-2.383-.045-5.075-.1-5.459-.015-.015.122-.065.51-.223,1.749" transform="translate(-59.223 -192.569)"/><path class="g" d="M263.45,804.222a11.932,11.932,0,0,0,.54-2.772,49.243,49.243,0,0,0,6.6.169,7.823,7.823,0,0,0,3.46-1.26c.433-.5.649-2.436,1.405-2.6s1.947,2.351,2.379,3.528a38.218,38.218,0,0,1,.98,4.1l-1.825.835a25.149,25.149,0,0,1-6.163,1.024c-2.819,0-9.549.032-9.549.032Z" transform="translate(-60.178 -183.74)"/><path class="f" d="M261.031,807.342l2.277-3.193a11.975,11.975,0,0,0,.531-2.734l.006-.1.1.008a49.033,49.033,0,0,0,6.571.17,7.854,7.854,0,0,0,3.4-1.228,3.551,3.551,0,0,0,.423-.987c.24-.719.513-1.532,1.034-1.649.892-.189,2.125,2.6,2.49,3.589a37.863,37.863,0,0,1,.984,4.115l.013.075-1.893.866a25.385,25.385,0,0,1-6.2,1.033c-2.785,0-9.482.032-9.549.032Zm2.993-5.816a11.857,11.857,0,0,1-.539,2.7l-.012.022-2.067,2.9c1.111-.005,6.839-.031,9.362-.031a25.226,25.226,0,0,0,6.134-1.02l1.745-.8a36.806,36.806,0,0,0-.961-4.01c-.552-1.5-1.665-3.594-2.268-3.467-.416.092-.67.851-.894,1.521a3.58,3.58,0,0,1-.46,1.051c-.46.537-2.144,1.047-3.515,1.293a46.414,46.414,0,0,1-6.525-.159" transform="translate(-60.122 -183.712)"/><path class="h" d="M274.373,824.259a.506.506,0,0,1,.232-.23,9.637,9.637,0,0,1,5.084-.154,15.583,15.583,0,0,1,3.592,1.371.444.444,0,0,1,.275.455c-.089.62-.286,2.062-.3,2.6-.015.677.311,3.9-.608,6.142-.752,1.837-2.716,3.486-6.041,5.659a16.3,16.3,0,0,1-8.353,2.2l-11.7-.084.7-5.565,10.812.231c2.011-.13,2.784-.294,3.541-.944.914-.787.432-3.15.432-3.15l.271-2.772s1.578-4.8,2.063-5.768" transform="translate(-59.09 -189.702)"/><path class="n" d="M139.53,858.819a15.071,15.071,0,0,0-2.131.072c-4.875.4-7.042,2.889-7.656,5.633h.109a6.608,6.608,0,0,1,4.984-1.877c3.936,0,7.259,2.78,7.259,7.655a8.407,8.407,0,0,1-8.667,8.487c-6.247,0-9.318-4.659-9.318-10.257a13.038,13.038,0,0,1,13.218-13.9,15.671,15.671,0,0,1,2.2-.036Zm-3,11.773c0-2.167-1.155-4.045-3.5-4.045a3.581,3.581,0,0,0-3.25,2.094,3.163,3.163,0,0,0-.217,1.372c.109,2.491,1.3,4.731,3.792,4.731,1.95,0,3.178-1.77,3.178-4.153" transform="translate(-28.585 -196.828)"/><path class="n" d="M151.842,853.9h5.525v19.718h9.679v4.623h-15.2Z" transform="translate(-34.973 -196.673)"/><path class="e" d="M73.29,252.72c-2.509.047-5.021.086-7.532.068a11.216,11.216,0,0,1-4.179-.734,15.57,15.57,0,0,1-3.647-2.4,4.836,4.836,0,0,1-1.7-2.337,9.968,9.968,0,0,1-.292-3.122,4.87,4.87,0,0,0-.437-2.659,11.943,11.943,0,0,1-1.935-6.927,30.5,30.5,0,0,1,.474-4.663,9.824,9.824,0,0,1,1.219-4.058c.527-.734,1.88-.673,2.822-.733a20.129,20.129,0,0,1,3.195-.005,1.351,1.351,0,0,1,.485.11c.519.264.637,1.135.787,1.564a3.64,3.64,0,0,0,.981,1.7,1.678,1.678,0,0,0,1.1.451c.83.054,4.286-.053,4.286-.053.068.48.139.959.2,1.439,0,.006-2.574.122-2.809.128a6.544,6.544,0,0,1-2.968-.331,1.561,1.561,0,0,1-.906-1.115c-.075-.215-.226-1.033-.643-1.033-.484,0-.83.966-1.521,2.524a9.447,9.447,0,0,0-.7,5.255,11.5,11.5,0,0,0,1.385,3.68c.316.569.737,1.121,1.006,1.7a14.811,14.811,0,0,1,.66,1.836,14.317,14.317,0,0,1,.794,3.44c.036.576-.313,1.517.344,2.188,1.158.688,3.84.446,4.628.43l4.251-.09c.011,0,.185-.047.185-.045Z" transform="translate(-12.336 -51.844)"/><path class="f" d="M66.956,252.859q-.614,0-1.227,0a11.252,11.252,0,0,1-4.216-.741A14.861,14.861,0,0,1,58,249.828l-.155-.124a4.952,4.952,0,0,1-1.737-2.383,10.153,10.153,0,0,1-.3-3.153l0-.137a4.526,4.526,0,0,0-.426-2.471,11.961,11.961,0,0,1-1.949-6.979,30.863,30.863,0,0,1,.476-4.677c.03-.172.059-.35.089-.532a8.378,8.378,0,0,1,1.147-3.566c.478-.665,1.58-.713,2.465-.751.149-.007.292-.012.428-.022a20.448,20.448,0,0,1,3.21-.005,1.444,1.444,0,0,1,.52.119c.447.229.617.85.741,1.3.032.118.062.226.092.315a3.565,3.565,0,0,0,.954,1.656,1.582,1.582,0,0,0,1.04.426c.817.054,4.242-.053,4.276-.054l.086,0,.063.438c.052.362.1.723.154,1.087l.005.042-.028.033c-.061.072-2.851.161-2.879.162l-.274.008a5.968,5.968,0,0,1-2.736-.349,1.652,1.652,0,0,1-.957-1.17c-.013-.036-.028-.089-.045-.15-.075-.266-.229-.819-.507-.819-.355,0-.679.743-1.169,1.866-.082.189-.17.389-.263.6a9.4,9.4,0,0,0-.69,5.2,11.334,11.334,0,0,0,1.374,3.649c.127.229.275.461.418.685a9.107,9.107,0,0,1,.591,1.019,13.69,13.69,0,0,1,.616,1.694l.082.258a13.941,13.941,0,0,1,.764,3.358,3.545,3.545,0,0,1-.026.534,1.845,1.845,0,0,0,.334,1.582c.977.572,3.109.475,4.135.427.174-.008.321-.014.431-.016l4.25-.09.086-.023c.106-.027.122-.031.16,0l.032.025.485,3.942-.107,0c-1.926.035-4.115.072-6.308.072m-7.114-27.7c-.628,0-1.235.032-1.785.068-.137.008-.282.015-.433.021-.844.037-1.893.082-2.317.672a8.247,8.247,0,0,0-1.114,3.484c-.029.183-.058.361-.089.534a30.673,30.673,0,0,0-.473,4.648,11.8,11.8,0,0,0,1.922,6.876,4.664,4.664,0,0,1,.453,2.571l0,.138a10,10,0,0,0,.289,3.093,4.752,4.752,0,0,0,1.672,2.289l.155.123a14.671,14.671,0,0,0,3.468,2.259,11.074,11.074,0,0,0,4.143.727c2.548.017,5.161-.025,7.422-.066l-.44-3.582c-.046.012-.09.022-.1.022l-4.255.09c-.109,0-.254.008-.426.016-1.13.053-3.232.148-4.253-.46l-.02-.015a2.017,2.017,0,0,1-.4-1.746,3.4,3.4,0,0,0,.025-.5,13.773,13.773,0,0,0-.755-3.313l-.082-.258a13.489,13.489,0,0,0-.607-1.67,8.771,8.771,0,0,0-.578-1c-.145-.226-.295-.461-.425-.7a11.533,11.533,0,0,1-1.4-3.711,9.606,9.606,0,0,1,.7-5.309c.094-.211.181-.412.263-.6.557-1.278.864-1.982,1.345-1.982.423,0,.6.624.693.958.016.058.029.105.041.139a1.462,1.462,0,0,0,.855,1.061,5.862,5.862,0,0,0,2.652.33l.274-.008c.206-.005,2.227-.1,2.7-.121q-.068-.492-.14-.984l-.038-.268c-.551.017-3.45.1-4.209.052a1.765,1.765,0,0,1-1.156-.476,3.772,3.772,0,0,1-1.008-1.736c-.032-.092-.063-.2-.1-.327-.121-.443-.272-.994-.643-1.184a1.3,1.3,0,0,0-.449-.1c-.466-.045-.936-.061-1.395-.061" transform="translate(-12.308 -51.815)"/><path class="g" d="M66.379,253.518a3.7,3.7,0,0,0,1.258.715c.728.166,7.955-.139,7.971.02l.155,1.218-3.3.089-2.36.064a10.5,10.5,0,0,1-2.959-.206,1.545,1.545,0,0,1-.769-1.9" transform="translate(-15.276 -58.391)"/><path class="f" d="M69.187,255.692a6.889,6.889,0,0,1-2.1-.236,1.639,1.639,0,0,1-.827-2.009l.032-.145.228.169a3.21,3.21,0,0,0,1.113.618c.363.082,2.507.042,4.4.008,3.629-.07,3.631-.045,3.645.1l.169,1.32-5.762.156c-.035,0-.409.022-.9.022m-2.769-2.055a1.4,1.4,0,0,0,.735,1.64,10.42,10.42,0,0,0,2.922.2l5.551-.15-.134-1.055c-.314-.043-1.98-.012-3.459.015-2,.037-4.059.075-4.446-.012a3.309,3.309,0,0,1-1.169-.64" transform="translate(-15.247 -58.341)"/><path class="g" d="M71.282,233.015a7.644,7.644,0,0,1-.346-1.772,31.517,31.517,0,0,1-4.216.107,5,5,0,0,1-2.212-.805c-.277-.322-.415-1.557-.9-1.665s-1.244,1.5-1.521,2.255a24.531,24.531,0,0,0-.627,2.622l1.167.533a16.086,16.086,0,0,0,3.94.654c1.8,0,6.105.02,6.105.02Z" transform="translate(-14.156 -52.715)"/><path class="f" d="M72.828,235.033H72.64s-4.3-.021-6.1-.021a16.3,16.3,0,0,1-3.968-.658l-1.247-.57.014-.074a24.15,24.15,0,0,1,.631-2.637c.008-.024.874-2.323,1.566-2.323a.321.321,0,0,1,.066.007c.353.078.53.609.687,1.078a2.3,2.3,0,0,0,.264.619,5.005,5.005,0,0,0,2.156.773,31.538,31.538,0,0,0,4.192-.109l.1-.008.006.1a7.628,7.628,0,0,0,.336,1.734Zm-11.29-1.362,1.1.5a16.192,16.192,0,0,0,3.9.645c1.576,0,5.07.016,5.917.02l-1.294-1.82a7.4,7.4,0,0,1-.343-1.7,28.719,28.719,0,0,1-4.145.1,4.969,4.969,0,0,1-2.268-.837,2.249,2.249,0,0,1-.3-.683c-.134-.4-.3-.9-.546-.951-.339-.07-1.054,1.226-1.41,2.194a23.117,23.117,0,0,0-.608,2.532" transform="translate(-14.124 -52.687)"/><path class="h" d="M62.488,245.824a.32.32,0,0,0-.149-.147,6.162,6.162,0,0,0-3.25-.1,9.974,9.974,0,0,0-2.3.877.283.283,0,0,0-.175.291c.056.4.182,1.318.19,1.665a10.571,10.571,0,0,0,.389,3.927c.481,1.175,1.737,2.228,3.863,3.617a10.422,10.422,0,0,0,5.34,1.41l7.482-.054-.449-3.557-6.912.148c-1.287-.084-1.78-.189-2.264-.6-.584-.5-.276-2.013-.276-2.013l-.173-1.773s-1.008-3.067-1.318-3.688" transform="translate(-13.04 -56.527)"/><path class="e" d="M74.934,236.26l4.456,25.247a51.873,51.873,0,0,0,1.481,5.207c1.066,3.45,16.523,17.74,52.3,17.74s47.153-12.775,48.791-17.74,1.714-5.207,1.714-5.207l3.183-25.247" transform="translate(-17.259 -54.416)"/><path class="f" d="M133.14,284.545c-19.142,0-31.885-4.125-39.206-7.585-8.1-3.828-12.585-8.282-13.185-10.222a51.141,51.141,0,0,1-1.484-5.224l-4.455-25.242.189-.033,4.456,25.248a52.62,52.62,0,0,0,1.478,5.195c1.156,3.741,17.149,17.672,52.206,17.672,15.5,0,28-2.354,37.153-7,7.106-3.6,10.623-7.877,11.546-10.675,1.615-4.9,1.711-5.2,1.714-5.206l3.179-25.23.191.024-3.183,25.248c0,.02-.1.316-1.719,5.225-.322.98-2.4,6.1-11.641,10.788-9.183,4.657-21.713,7.018-37.24,7.018" transform="translate(-17.231 -54.411)"/><path class="e" d="M188.315,224.258c0,10.491-25.977,18.995-58.02,18.995s-58.02-8.5-58.02-18.995,25.977-18.995,58.02-18.995,58.02,8.5,58.02,18.995" transform="translate(-16.647 -47.277)"/><path class="f" d="M130.267,243.32c-15.507,0-30.088-1.977-41.056-5.568-11-3.6-17.06-8.4-17.06-13.523s6.058-9.922,17.06-13.524c10.968-3.591,25.549-5.568,41.056-5.568s30.088,1.977,41.056,5.568c11,3.6,17.06,8.4,17.06,13.524s-6.059,9.921-17.06,13.523c-10.968,3.591-25.549,5.568-41.056,5.568m0-37.99c-31.939,0-57.924,8.479-57.924,18.9s25.984,18.9,57.924,18.9,57.924-8.478,57.924-18.9-25.984-18.9-57.924-18.9" transform="translate(-16.618 -47.248)"/><g class="i" transform="translate(72.674 158.915)"><g class="q"><path class="k" d="M176.3,218.579c0,6.619-18.3,11.985-40.88,11.985s-40.88-5.366-40.88-11.985,18.3-11.985,40.88-11.985,40.88,5.366,40.88,11.985" transform="translate(-94.449 -206.499)"/><path class="f" d="M135.4,230.632c-22.594,0-40.976-5.42-40.976-12.082S112.8,206.469,135.4,206.469s40.975,5.419,40.975,12.081S157.99,230.632,135.4,230.632m0-23.971c-22.488,0-40.784,5.333-40.784,11.888s18.3,11.89,40.784,11.89,40.783-5.334,40.783-11.89-18.3-11.888-40.783-11.888" transform="translate(-94.421 -206.47)"/></g></g><path class="e" d="M162.05,217.6c0,3.236-9.195,5.859-20.537,5.859s-20.537-2.623-20.537-5.859,9.2-5.858,20.537-5.858,20.537,2.622,20.537,5.858" transform="translate(-27.863 -48.768)"/><path class="f" d="M141.483,223.522c-11.377,0-20.633-2.672-20.633-5.956s9.256-5.954,20.633-5.954,20.633,2.672,20.633,5.954-9.256,5.956-20.633,5.956m0-11.718c-11.271,0-20.441,2.585-20.441,5.762s9.17,5.763,20.441,5.763,20.441-2.585,20.441-5.763-9.17-5.762-20.441-5.762" transform="translate(-27.835 -48.739)"/><path class="l" d="M141.962,210.97v5.639a18.715,18.715,0,0,0,4.482.871,16.34,16.34,0,0,0,4.286-.871V210.97" transform="translate(-32.697 -48.591)"/><path class="f" d="M146.415,217.575a18.946,18.946,0,0,1-4.511-.875l-.067-.022V210.97h.192v5.567a18.254,18.254,0,0,0,4.386.845,15.971,15.971,0,0,0,4.19-.844V210.97h.192v5.706l-.065.022a16.527,16.527,0,0,1-4.318.876" transform="translate(-32.668 -48.591)"/><path class="l" d="M157.881,205.123c0,2.082-6.531,3.769-14.588,3.769s-14.587-1.687-14.587-3.769,6.531-3.768,14.587-3.768,14.588,1.687,14.588,3.768" transform="translate(-29.644 -46.377)"/><path class="f" d="M143.264,208.959c-8.234,0-14.684-1.7-14.684-3.865s6.45-3.865,14.684-3.865,14.683,1.7,14.683,3.865-6.45,3.865-14.683,3.865m0-7.537c-7.99,0-14.491,1.648-14.491,3.672s6.5,3.673,14.491,3.673,14.491-1.648,14.491-3.673-6.5-3.672-14.491-3.672" transform="translate(-29.615 -46.348)"/><path class="m" d="M157.881,203c0,2.081-6.531,3.768-14.588,3.768S128.706,205.08,128.706,203s6.531-3.769,14.587-3.769,14.588,1.687,14.588,3.769" transform="translate(-29.644 -45.887)"/><path class="f" d="M143.264,206.835c-8.234,0-14.684-1.7-14.684-3.865s6.45-3.865,14.684-3.865,14.683,1.7,14.683,3.865-6.45,3.865-14.683,3.865m0-7.537c-7.99,0-14.491,1.648-14.491,3.672s6.5,3.673,14.491,3.673,14.491-1.648,14.491-3.673-6.5-3.672-14.491-3.672" transform="translate(-29.615 -45.859)"/><path class="e" d="M217.349,252.2c2.509.047,5.021.086,7.532.069a11.216,11.216,0,0,0,4.179-.734,15.569,15.569,0,0,0,3.647-2.4,4.836,4.836,0,0,0,1.7-2.337,9.968,9.968,0,0,0,.292-3.122,4.87,4.87,0,0,1,.437-2.659,11.943,11.943,0,0,0,1.935-6.927,30.6,30.6,0,0,0-.474-4.663,9.814,9.814,0,0,0-1.22-4.058c-.526-.734-1.879-.673-2.821-.734a20.14,20.14,0,0,0-3.2-.005,1.358,1.358,0,0,0-.485.11c-.518.264-.637,1.135-.786,1.564a3.637,3.637,0,0,1-.981,1.7,1.674,1.674,0,0,1-1.1.451c-.83.054-4.286-.053-4.286-.053-.068.48-.139.959-.2,1.439,0,.006,2.574.122,2.809.128a6.543,6.543,0,0,0,2.968-.331,1.558,1.558,0,0,0,.905-1.115c.076-.215.226-1.033.643-1.033.484,0,.83.966,1.521,2.524a9.447,9.447,0,0,1,.7,5.255,11.51,11.51,0,0,1-1.385,3.681c-.316.568-.737,1.12-1.007,1.7a15.1,15.1,0,0,0-.66,1.835,14.313,14.313,0,0,0-.793,3.44c-.036.575.313,1.516-.344,2.187-1.158.688-3.84.446-4.628.43l-4.251-.09c-.011,0-.185-.047-.185-.045l-.466,3.8" transform="translate(-50.061 -51.726)"/><path class="f" d="M223.615,252.344c-2.2,0-4.383-.037-6.3-.073l-.106,0,.013-.106s.463-3.767.466-3.794l0-.04.032-.025c.037-.029.056-.024.149,0,.042.01.093.024.108.026l4.239.089c.112,0,.26.009.437.018,1.025.045,3.155.142,4.13-.428a1.853,1.853,0,0,0,.334-1.584,3.65,3.65,0,0,1-.027-.533,13.97,13.97,0,0,1,.766-3.36l.082-.262a13.694,13.694,0,0,1,.613-1.687,9.174,9.174,0,0,1,.591-1.02c.144-.224.291-.455.419-.684a11.371,11.371,0,0,0,1.374-3.649,9.413,9.413,0,0,0-.69-5.2c-.094-.211-.181-.411-.263-.6-.49-1.125-.814-1.867-1.17-1.867-.277,0-.433.552-.506.817-.018.062-.033.115-.046.151a1.65,1.65,0,0,1-.956,1.171,5.976,5.976,0,0,1-2.736.347l-.274-.008c-.028,0-2.817-.09-2.879-.161l-.028-.033.006-.042q.074-.54.153-1.081l.064-.444.086,0c.034,0,3.46.1,4.276.053a1.587,1.587,0,0,0,1.039-.426,3.564,3.564,0,0,0,.954-1.656c.031-.089.061-.2.092-.315.124-.454.294-1.075.741-1.3a1.413,1.413,0,0,1,.52-.119,20.364,20.364,0,0,1,3.21,0c.135.009.279.015.427.022.885.038,1.988.085,2.466.75a8.393,8.393,0,0,1,1.148,3.566c.029.182.059.36.089.533a30.667,30.667,0,0,1,.476,4.677,11.944,11.944,0,0,1-1.949,6.977,4.537,4.537,0,0,0-.425,2.473l0,.136a10.145,10.145,0,0,1-.3,3.152,4.938,4.938,0,0,1-1.736,2.384l-.155.124a14.836,14.836,0,0,1-3.514,2.285,11.262,11.262,0,0,1-4.215.742q-.618,0-1.235,0m-6.19-.263c2.248.042,4.851.085,7.423.067a11.088,11.088,0,0,0,4.142-.727,14.671,14.671,0,0,0,3.468-2.259l.155-.123a4.756,4.756,0,0,0,1.673-2.291,9.974,9.974,0,0,0,.288-3.092l0-.136a4.679,4.679,0,0,1,.452-2.574,11.778,11.778,0,0,0,1.922-6.875,30.577,30.577,0,0,0-.473-4.649c-.031-.173-.059-.352-.089-.535a8.233,8.233,0,0,0-1.114-3.484c-.423-.59-1.474-.635-2.318-.672-.15-.006-.295-.013-.431-.022a20.254,20.254,0,0,0-3.18-.005,1.3,1.3,0,0,0-.449.1c-.372.19-.522.74-.643,1.184-.034.122-.065.234-.1.326a3.719,3.719,0,0,1-1.008,1.736,1.765,1.765,0,0,1-1.156.476c-.76.05-3.658-.033-4.209-.051l-.04.275c-.047.326-.094.65-.139.976.473.025,2.5.116,2.7.121l.274.008a5.826,5.826,0,0,0,2.652-.33,1.458,1.458,0,0,0,.855-1.06c.012-.033.025-.081.042-.139.094-.335.269-.957.692-.957.482,0,.789.7,1.346,1.983.082.188.169.387.262.6a9.613,9.613,0,0,1,.7,5.311,11.583,11.583,0,0,1-1.4,3.711c-.131.235-.28.469-.425.7a8.911,8.911,0,0,0-.579,1,13.537,13.537,0,0,0-.6,1.663l-.082.262a13.787,13.787,0,0,0-.757,3.315,3.522,3.522,0,0,0,.026.5,2.022,2.022,0,0,1-.4,1.746l-.019.015c-1.021.607-3.121.51-4.248.46-.175-.008-.322-.015-.433-.017l-4.25-.09h0a.45.45,0,0,1-.1-.022c-.031.253-.129,1.05-.44,3.582" transform="translate(-50.028 -51.697)"/><path class="g" d="M227.339,253a3.7,3.7,0,0,1-1.258.715c-.729.166-7.955-.139-7.971.02l-.155,1.218,3.3.089,2.36.064a10.5,10.5,0,0,0,2.959-.206,1.545,1.545,0,0,0,.769-1.9" transform="translate(-50.2 -58.273)"/><path class="f" d="M224.469,255.178c-.486,0-.86-.021-.9-.022L217.813,255l.169-1.323c.012-.141.016-.163,3.645-.095,1.891.035,4.035.076,4.4-.007a3.227,3.227,0,0,0,1.114-.62l.226-.167.032.145a1.64,1.64,0,0,1-.831,2.01,6.884,6.884,0,0,1-2.1.235m-6.438-.365,5.549.15a10.445,10.445,0,0,0,2.921-.2,1.4,1.4,0,0,0,.738-1.641,3.309,3.309,0,0,1-1.169.64c-.386.087-2.45.048-4.446.012-1.479-.028-3.145-.058-3.458-.015Z" transform="translate(-50.168 -58.223)"/><path class="g" d="M221.906,232.5a7.645,7.645,0,0,0,.346-1.772,31.517,31.517,0,0,0,4.216.107,5,5,0,0,0,2.212-.805c.277-.323.415-1.557.9-1.665s1.244,1.5,1.521,2.255a24.47,24.47,0,0,1,.626,2.622l-1.166.533a16.086,16.086,0,0,1-3.94.654c-1.8,0-6.105.02-6.105.02Z" transform="translate(-50.79 -52.597)"/><path class="f" d="M220.271,234.518l1.493-2.093a7.673,7.673,0,0,0,.336-1.733l.006-.1.1.008a31.637,31.637,0,0,0,4.192.109,5.016,5.016,0,0,0,2.156-.774,2.265,2.265,0,0,0,.263-.62c.157-.467.334-1,.687-1.076a.324.324,0,0,1,.066-.008c.692,0,1.557,2.3,1.566,2.324a24.1,24.1,0,0,1,.631,2.635l.013.075-1.235.565a16.25,16.25,0,0,1-3.98.663c-1.8,0-6.1.02-6.1.02Zm2.013-3.715a7.408,7.408,0,0,1-.343,1.7l-.012.022-1.282,1.8c.847,0,4.34-.019,5.917-.019a16.12,16.12,0,0,0,3.912-.65l1.086-.5a23.2,23.2,0,0,0-.608-2.531c-.356-.968-1.064-2.265-1.409-2.194-.248.054-.413.551-.546.95a2.286,2.286,0,0,1-.3.683,4.979,4.979,0,0,1-2.268.838,29.17,29.17,0,0,1-4.145-.1" transform="translate(-50.734 -52.568)"/><path class="h" d="M228.889,245.309a.323.323,0,0,1,.149-.147,6.161,6.161,0,0,1,3.25-.1,10.013,10.013,0,0,1,2.3.877.283.283,0,0,1,.175.291c-.056.4-.182,1.318-.191,1.665a10.55,10.55,0,0,1-.388,3.927c-.481,1.175-1.737,2.228-3.863,3.617a10.423,10.423,0,0,1-5.34,1.41l-7.482-.054.449-3.557,6.912.148c1.286-.084,1.78-.189,2.264-.6.584-.5.276-2.013.276-2.013l.172-1.772s1.009-3.068,1.319-3.688" transform="translate(-50.094 -56.408)"/><path class="n" d="M133.78,276.466a8.273,8.273,0,0,0,3.485.924c1.824,0,2.749-.877,2.749-2.009,0-1.478-1.478-2.147-3.024-2.147h-1.432v-2.517h1.362c1.178-.023,2.679-.461,2.679-1.732,0-.9-.74-1.57-2.217-1.57a6.864,6.864,0,0,0-3.14.9l-.715-2.54a9.4,9.4,0,0,1,4.64-1.131c3.21,0,4.988,1.685,4.988,3.74a3.6,3.6,0,0,1-2.747,3.487v.046a3.729,3.729,0,0,1,3.255,3.648c0,2.655-2.331,4.595-6.141,4.595a8.875,8.875,0,0,1-4.457-1.062Z" transform="translate(-30.648 -60.954)"/><path class="n" d="M150.553,264.255h3.533v12.607h6.188v2.956h-9.721Z" transform="translate(-34.676 -60.864)"/><path class="e" d="M90.269,95.015c-1.95.047-3.9.086-5.851.069a7.01,7.01,0,0,1-3.246-.734,12.339,12.339,0,0,1-2.832-2.4,4.968,4.968,0,0,1-1.324-2.337,12.744,12.744,0,0,1-.228-3.122,6.114,6.114,0,0,0-.339-2.659,14.505,14.505,0,0,1-1.5-6.927,39.224,39.224,0,0,1,.369-4.663,11.958,11.958,0,0,1,.947-4.058c.409-.734,1.459-.673,2.191-.734a12.168,12.168,0,0,1,2.483-.005.864.864,0,0,1,.376.11c.4.264.494,1.135.61,1.564a3.994,3.994,0,0,0,.762,1.7,1.173,1.173,0,0,0,.853.451c.644.054,3.33-.053,3.33-.053.052.48.108.959.159,1.439,0,.006-2,.122-2.181.128a4.029,4.029,0,0,1-2.305-.331,1.541,1.541,0,0,1-.7-1.115c-.059-.215-.176-1.033-.5-1.033-.376,0-.645.966-1.182,2.524a11.957,11.957,0,0,0-.541,5.255,13.722,13.722,0,0,0,1.076,3.68c.245.569.573,1.121.782,1.7a17.946,17.946,0,0,1,.512,1.835,17.785,17.785,0,0,1,.617,3.44c.028.575-.243,1.516.267,2.187.9.688,2.983.446,3.6.43l3.3-.09c.009,0,.144-.047.144-.045l.363,3.8" transform="translate(-17.261 -15.521)"/><path class="f" d="M85.342,95.155q-.478,0-.954,0a7.076,7.076,0,0,1-3.291-.745,11.713,11.713,0,0,1-2.735-2.291l-.12-.123a5.072,5.072,0,0,1-1.349-2.381,12.959,12.959,0,0,1-.23-3.145l0-.137a5.7,5.7,0,0,0-.331-2.481,14.5,14.5,0,0,1-1.513-6.969,38.887,38.887,0,0,1,.369-4.674c.023-.173.046-.352.069-.534a10.119,10.119,0,0,1,.889-3.557c.376-.673,1.241-.722,1.935-.761.115-.006.228-.012.333-.022a12.43,12.43,0,0,1,2.5,0,.963.963,0,0,1,.418.125c.351.231.477.826.579,1.3.025.119.048.226.072.316a3.924,3.924,0,0,0,.743,1.658,1.086,1.086,0,0,0,.788.418c.63.052,3.29-.053,3.317-.054l.089,0,.056.5q.058.514.114,1.028l0,.044-.029.032c-.059.065-2.228.159-2.25.159l-.209.008a3.706,3.706,0,0,1-2.148-.353,1.639,1.639,0,0,1-.747-1.172c-.01-.036-.022-.088-.035-.15-.048-.222-.177-.812-.372-.812-.256,0-.52.778-.884,1.856-.065.189-.132.39-.206.6a11.935,11.935,0,0,0-.536,5.212A13.556,13.556,0,0,0,80.747,81.7c.1.23.215.462.326.687a9.727,9.727,0,0,1,.459,1.017,16.369,16.369,0,0,1,.477,1.689l.066.267a17.47,17.47,0,0,1,.591,3.347,4.651,4.651,0,0,1-.021.531,2.294,2.294,0,0,0,.26,1.593c.75.562,2.4.465,3.188.419.136-.008.25-.015.336-.017l3.3-.09a.228.228,0,0,1,.054-.021c.082-.027.109-.035.149-.006l.035.026.376,3.942-.1,0c-1.5.035-3.2.072-4.9.072m-5.529-27.7c-.485,0-.955.031-1.382.067-.108.009-.222.015-.339.022-.681.038-1.453.082-1.777.663a9.99,9.99,0,0,0-.867,3.487c-.023.183-.046.363-.069.536a38.691,38.691,0,0,0-.368,4.652,14.318,14.318,0,0,0,1.495,6.885,5.834,5.834,0,0,1,.349,2.564l0,.137a12.805,12.805,0,0,0,.225,3.1,4.9,4.9,0,0,0,1.3,2.292l.12.123a11.567,11.567,0,0,0,2.689,2.254,6.876,6.876,0,0,0,3.2.723c1.972.02,3.993-.024,5.744-.066l-.341-3.574a.171.171,0,0,1-.059.013l-3.3.09c-.085,0-.2.008-.33.016-.883.053-2.525.146-3.327-.466l-.018-.019a2.456,2.456,0,0,1-.306-1.734,4.455,4.455,0,0,0,.02-.507,17.163,17.163,0,0,0-.586-3.31l-.065-.266a16.173,16.173,0,0,0-.471-1.669,9.718,9.718,0,0,0-.45-1c-.112-.226-.229-.461-.329-.694a13.79,13.79,0,0,1-1.083-3.707,12.132,12.132,0,0,1,.546-5.3q.11-.317.205-.6c.434-1.28.673-1.986,1.067-1.986.349,0,.481.6.56.964.012.058.023.107.032.14a1.443,1.443,0,0,0,.659,1.058,3.559,3.559,0,0,0,2.044.325l.21-.008c.16,0,1.682-.092,2.078-.12-.033-.307-.068-.618-.1-.929l-.036-.322c-.479.019-2.668.1-3.251.051a1.266,1.266,0,0,1-.918-.486A4.055,4.055,0,0,1,81.8,69.12c-.025-.092-.049-.2-.075-.326-.089-.42-.211-1-.5-1.183a.791.791,0,0,0-.336-.095,8.819,8.819,0,0,0-1.081-.061" transform="translate(-17.232 -15.492)"/><path class="g" d="M84.9,95.813a2.8,2.8,0,0,0,.977.715c.566.166,6.18-.139,6.192.02l.121,1.218-2.561.089-1.833.064a6.382,6.382,0,0,1-2.3-.206c-.577-.269-.728-1.124-.6-1.9" transform="translate(-19.544 -22.068)"/><path class="f" d="M87.08,97.978a4.29,4.29,0,0,1-1.656-.239c-.63-.293-.78-1.217-.647-2l.029-.179.216.206a2.4,2.4,0,0,0,.853.611,30.253,30.253,0,0,0,3.406.006c2.843-.07,2.845-.046,2.855.1l.131,1.318-4.5.157c-.027,0-.315.022-.691.022m-2.139-2.025c-.072.666.072,1.382.568,1.613a6.355,6.355,0,0,0,2.252.2l4.294-.149-.105-1.058c-.269-.039-1.537-.01-2.664.018a28.628,28.628,0,0,1-3.464-.014,2.367,2.367,0,0,1-.881-.608" transform="translate(-19.516 -22.01)"/><path class="g" d="M88.709,75.31a9.6,9.6,0,0,1-.269-1.772,19.053,19.053,0,0,1-3.276.107,3.416,3.416,0,0,1-1.718-.805c-.215-.322-.322-1.557-.7-1.665s-.966,1.5-1.181,2.255-.486,2.622-.486,2.622l.906.533a10.028,10.028,0,0,0,3.061.654c1.4,0,4.743.02,4.743.02Z" transform="translate(-18.675 -16.392)"/><path class="f" d="M89.923,77.328h-.165s-3.342-.021-4.741-.021a9.992,9.992,0,0,1-3.1-.661l-.975-.573.009-.064c.011-.077.276-1.884.489-2.634.028-.1.673-2.329,1.241-2.329a.22.22,0,0,1,.059.008c.286.082.418.59.546,1.082a2.713,2.713,0,0,0,.206.621,3.38,3.38,0,0,0,1.66.765,19.018,19.018,0,0,0,3.244-.109l.1-.011.006.1a9.55,9.55,0,0,0,.262,1.741Zm-8.769-1.356.85.5a10.049,10.049,0,0,0,3.013.641c1.214,0,3.888.015,4.578.02l-1.01-1.826a9.284,9.284,0,0,1-.266-1.693,17.4,17.4,0,0,1-3.207.1,3.434,3.434,0,0,1-1.777-.847,2.664,2.664,0,0,1-.232-.68c-.1-.376-.232-.893-.412-.944-.207-.065-.731,1.026-1.063,2.188-.188.66-.425,2.211-.475,2.545" transform="translate(-18.644 -16.364)"/><path class="h" d="M81.877,88.119a.3.3,0,0,0-.115-.147,3.774,3.774,0,0,0-2.525-.1,6.813,6.813,0,0,0-1.785.877.3.3,0,0,0-.136.292c.044.395.142,1.317.149,1.664a13.46,13.46,0,0,0,.3,3.927c.373,1.175,1.349,2.228,3,3.617a6.67,6.67,0,0,0,4.149,1.41l5.813-.054-.35-3.557-5.368.148c-1-.084-1.384-.189-1.759-.6-.453-.5-.215-2.013-.215-2.013L82.9,91.807s-.784-3.068-1.024-3.688" transform="translate(-17.807 -20.203)"/><path class="e" d="M91.545,78.555,95.006,103.8s.061.667,1.151,5.207c.827,3.45,12.835,17.74,40.626,17.74s36.63-12.775,37.9-17.74,1.332-5.207,1.332-5.207l2.471-25.247" transform="translate(-21.085 -18.093)"/><path class="f" d="M136.754,126.841c-14.879,0-24.784-4.127-30.474-7.59-6.294-3.831-9.78-8.284-10.246-10.224-1.079-4.5-1.15-5.194-1.152-5.221L91.421,78.563l.191-.025,3.461,25.248c0,.032.079.74,1.148,5.2.9,3.741,13.314,17.666,40.533,17.666,12.032,0,21.736-2.353,28.843-6.993,5.516-3.6,8.248-7.875,8.965-10.675,1.267-4.947,1.332-5.205,1.332-5.207l2.469-25.233.192.018-2.472,25.247c0,.015-.063.256-1.335,5.222-.726,2.834-3.484,7.156-9.047,10.789-7.139,4.66-16.878,7.023-28.948,7.023" transform="translate(-21.056 -18.089)"/><path class="e" d="M179.622,66.553c0,10.491-20.179,18.995-45.071,18.995s-45.071-8.5-45.071-18.995,20.179-18.995,45.071-18.995,45.071,8.5,45.071,18.995" transform="translate(-20.61 -10.954)"/><path class="f" d="M134.523,85.615c-24.905,0-45.167-8.564-45.167-19.09s20.262-19.092,45.167-19.092S179.69,56,179.69,66.525s-20.262,19.09-45.167,19.09m0-37.99c-24.8,0-44.975,8.479-44.975,18.9s20.176,18.9,44.975,18.9,44.974-8.477,44.974-18.9-20.176-18.9-44.974-18.9" transform="translate(-20.581 -10.925)"/><g class="i" transform="translate(82.09 37.533)"><g class="r"><path class="h" d="M170.292,60.874c0,6.619-14.217,11.985-31.756,11.985S106.78,67.494,106.78,60.874,121,48.889,138.536,48.889s31.756,5.366,31.756,11.985" transform="translate(-106.684 -48.793)"/><path class="f" d="M138.507,72.928c-17.563,0-31.852-5.42-31.852-12.082s14.289-12.082,31.852-12.082,31.852,5.42,31.852,12.082-14.289,12.082-31.852,12.082m0-23.972c-17.457,0-31.66,5.334-31.66,11.889s14.2,11.89,31.66,11.89,31.66-5.334,31.66-11.89-14.2-11.889-31.66-11.889" transform="translate(-106.655 -48.764)"/></g></g><path class="e" d="M159.219,59.891c0,3.236-7.143,5.859-15.954,5.859s-15.954-2.623-15.954-5.859,7.143-5.858,15.954-5.858,15.954,2.622,15.954,5.858" transform="translate(-29.323 -12.445)"/><path class="f" d="M143.236,65.816c-8.851,0-16.05-2.672-16.05-5.955s7.2-5.954,16.05-5.954,16.05,2.672,16.05,5.954-7.2,5.955-16.05,5.955m0-11.717c-8.743,0-15.858,2.585-15.858,5.762s7.114,5.763,15.858,5.763,15.858-2.585,15.858-5.763S151.98,54.1,143.236,54.1" transform="translate(-29.294 -12.416)"/><path class="l" d="M143.614,53.265V58.9a11.777,11.777,0,0,0,3.481.871,10.33,10.33,0,0,0,3.33-.871V53.265" transform="translate(-33.078 -12.268)"/><path class="f" d="M147.066,59.87a11.688,11.688,0,0,1-3.518-.877l-.059-.025v-5.7h.192v5.574a11.412,11.412,0,0,0,3.385.838,10.011,10.011,0,0,0,3.234-.837V53.265h.192v5.7l-.057.025a10.3,10.3,0,0,1-3.37.878" transform="translate(-33.049 -12.268)"/><path class="l" d="M155.98,47.418c0,2.082-5.073,3.769-11.332,3.769s-11.331-1.687-11.331-3.769,5.073-3.768,11.331-3.768,11.332,1.687,11.332,3.768" transform="translate(-30.706 -10.054)"/><path class="f" d="M144.619,51.254c-6.3,0-11.428-1.734-11.428-3.865s5.127-3.866,11.428-3.866,11.428,1.735,11.428,3.866-5.127,3.865-11.428,3.865m0-7.539c-6.2,0-11.236,1.649-11.236,3.674s5.041,3.673,11.236,3.673,11.236-1.648,11.236-3.673-5.041-3.674-11.236-3.674" transform="translate(-30.677 -10.024)"/><path class="m" d="M155.98,45.294c0,2.081-5.073,3.768-11.332,3.768s-11.331-1.687-11.331-3.768,5.073-3.769,11.331-3.769,11.332,1.687,11.332,3.769" transform="translate(-30.706 -9.564)"/><path class="f" d="M144.619,49.131c-6.3,0-11.428-1.734-11.428-3.865s5.127-3.865,11.428-3.865,11.428,1.734,11.428,3.865-5.127,3.865-11.428,3.865m0-7.537c-6.2,0-11.236,1.648-11.236,3.672s5.041,3.673,11.236,3.673,11.236-1.648,11.236-3.673-5.041-3.672-11.236-3.672" transform="translate(-30.677 -9.536)"/><path class="e" d="M202.176,94.5c1.95.047,3.9.086,5.851.069a7,7,0,0,0,3.246-.734,12.339,12.339,0,0,0,2.832-2.4A4.974,4.974,0,0,0,215.43,89.1a12.744,12.744,0,0,0,.228-3.122A6.114,6.114,0,0,1,216,83.321a14.506,14.506,0,0,0,1.5-6.927,39.224,39.224,0,0,0-.369-4.663,11.959,11.959,0,0,0-.947-4.058c-.409-.734-1.459-.673-2.191-.734a12.168,12.168,0,0,0-2.483-.005.864.864,0,0,0-.376.11c-.4.264-.494,1.135-.61,1.564a3.99,3.99,0,0,1-.762,1.7,1.173,1.173,0,0,1-.853.451c-.644.054-3.33-.053-3.33-.053-.052.48-.108.959-.159,1.439,0,.006,2,.122,2.181.128a4.029,4.029,0,0,0,2.305-.331,1.541,1.541,0,0,0,.7-1.115c.059-.215.176-1.033.5-1.033.376,0,.645.966,1.181,2.524a11.946,11.946,0,0,1,.542,5.255,13.735,13.735,0,0,1-1.076,3.681c-.245.568-.573,1.12-.782,1.7a17.948,17.948,0,0,0-.512,1.835,17.784,17.784,0,0,0-.617,3.44c-.028.575.243,1.516-.267,2.187-.9.688-2.983.446-3.6.43l-3.3-.09c-.009,0-.144-.047-.144-.045l-.363,3.8" transform="translate(-46.566 -15.402)"/><path class="f" d="M207.01,94.64c-1.66,0-3.307-.035-4.868-.073l-.1,0,.376-3.942.035-.025c.041-.029.068-.02.137,0l.082.026,3.285.087c.086,0,.2.009.337.018.793.044,2.436.142,3.188-.419a2.3,2.3,0,0,0,.26-1.593,4.48,4.48,0,0,1-.021-.53,17.3,17.3,0,0,1,.594-3.356l.062-.252a16.6,16.6,0,0,1,.478-1.7,10.192,10.192,0,0,1,.458-1.016c.112-.224.227-.456.326-.687a13.563,13.563,0,0,0,1.068-3.653,11.92,11.92,0,0,0-.536-5.211c-.073-.212-.142-.413-.205-.6-.365-1.078-.63-1.856-.885-1.856-.194,0-.323.59-.372.812-.013.062-.025.115-.035.151a1.639,1.639,0,0,1-.747,1.171,3.736,3.736,0,0,1-2.145.353l-.212-.008c-.022,0-2.191-.091-2.252-.162l-.026-.032,0-.041c.038-.359.079-.72.119-1.08l.05-.449.089,0c.027,0,2.686.111,3.318.053a1.082,1.082,0,0,0,.787-.417,3.919,3.919,0,0,0,.742-1.658c.024-.089.047-.2.072-.316.1-.478.228-1.074.579-1.3a.936.936,0,0,1,.418-.125,12.154,12.154,0,0,1,2.5,0c.1.009.216.015.332.022.7.038,1.56.086,1.937.76a10.119,10.119,0,0,1,.889,3.557c.023.182.046.362.069.534a39.2,39.2,0,0,1,.369,4.674,14.494,14.494,0,0,1-1.512,6.969,5.716,5.716,0,0,0-.332,2.483l0,.135a12.937,12.937,0,0,1-.229,3.146,5.083,5.083,0,0,1-1.349,2.381l-.125.129a11.717,11.717,0,0,1-2.731,2.285,7.086,7.086,0,0,1-3.291.745c-.328,0-.657,0-.985,0m-4.76-.263c1.84.045,3.794.083,5.744.066a6.894,6.894,0,0,0,3.2-.723,11.6,11.6,0,0,0,2.683-2.249l.125-.128a4.893,4.893,0,0,0,1.3-2.293,12.736,12.736,0,0,0,.225-3.1l0-.135a5.846,5.846,0,0,1,.35-2.566,14.32,14.32,0,0,0,1.494-6.885A38.982,38.982,0,0,0,217,71.715c-.023-.173-.046-.353-.069-.536a9.982,9.982,0,0,0-.867-3.488c-.324-.581-1.1-.623-1.779-.662-.117-.006-.23-.013-.336-.022A12.049,12.049,0,0,0,211.49,67a.77.77,0,0,0-.335.095c-.286.187-.407.763-.5,1.183-.026.122-.05.233-.075.326a4.068,4.068,0,0,1-.782,1.733,1.277,1.277,0,0,1-.917.484c-.583.047-2.772-.032-3.251-.049l-.031.271c-.036.326-.073.653-.108.98.395.026,1.91.114,2.078.119l.212.008a3.572,3.572,0,0,0,2.041-.326,1.459,1.459,0,0,0,.66-1.058c.009-.034.02-.082.032-.14.079-.361.21-.964.56-.964.393,0,.633.706,1.067,1.987.065.189.132.389.206.6a12.119,12.119,0,0,1,.546,5.3,13.75,13.75,0,0,1-1.082,3.705c-.1.235-.218.469-.33.7a9.68,9.68,0,0,0-.449,1,16.517,16.517,0,0,0-.473,1.676l-.062.252a17.248,17.248,0,0,0-.588,3.32,4.466,4.466,0,0,0,.02.507,2.46,2.46,0,0,1-.306,1.733l-.018.018c-.8.615-2.444.52-3.327.466-.134-.008-.246-.015-.33-.017l-3.3-.089a.17.17,0,0,1-.056-.013Z" transform="translate(-46.534 -15.373)"/><path class="g" d="M209.936,95.3a2.792,2.792,0,0,1-.977.716c-.566.166-6.181-.139-6.192.02l-.121,1.218,2.56.089,1.833.064a6.382,6.382,0,0,0,2.3-.206c.577-.269.728-1.124.6-1.9" transform="translate(-46.674 -21.949)"/><path class="f" d="M207.7,97.464c-.38,0-.673-.021-.7-.022l-4.492-.156.131-1.321c.01-.142.012-.164,2.854-.1a31.01,31.01,0,0,0,3.407,0,2.4,2.4,0,0,0,.85-.609l.219-.207.03.177c.132.784-.018,1.708-.652,2a4.261,4.261,0,0,1-1.644.237m-4.981-.363,4.289.149a6.319,6.319,0,0,0,2.253-.2c.5-.232.642-.948.571-1.614a2.385,2.385,0,0,1-.88.608,28.6,28.6,0,0,1-3.465.012c-1.127-.028-2.4-.057-2.664-.018Z" transform="translate(-46.643 -21.892)"/><path class="g" d="M205.716,74.794a9.638,9.638,0,0,0,.269-1.772,18.968,18.968,0,0,0,3.275.107,3.416,3.416,0,0,0,1.719-.805c.215-.322.323-1.557.7-1.665s.967,1.5,1.181,2.255.486,2.622.486,2.622l-.906.533a10.028,10.028,0,0,1-3.061.654c-1.4,0-4.742.021-4.742.021Z" transform="translate(-47.132 -16.273)"/><path class="f" d="M204.422,76.812l1.155-2.084a9.538,9.538,0,0,0,.262-1.74l.005-.1.1.01a19.1,19.1,0,0,0,3.244.109,3.38,3.38,0,0,0,1.66-.764,2.777,2.777,0,0,0,.206-.623c.128-.492.259-1,.546-1.081.22-.062.466.208.764.858a11.393,11.393,0,0,1,.536,1.463c.214.75.478,2.558.489,2.634l.01.064-.962.566a9.952,9.952,0,0,1-3.109.667c-1.4,0-4.741.02-4.741.02Zm1.6-3.712a9.2,9.2,0,0,1-.266,1.692l-.008.021-1,1.806c.689,0,3.364-.019,4.578-.019a9.993,9.993,0,0,0,3.026-.647l.837-.494c-.05-.333-.286-1.886-.475-2.545a10.979,10.979,0,0,0-.525-1.436c-.363-.791-.53-.751-.537-.754-.18.052-.314.567-.413.945a2.6,2.6,0,0,1-.232.68,3.434,3.434,0,0,1-1.777.846,17.336,17.336,0,0,1-3.207-.095" transform="translate(-47.083 -16.245)"/><path class="h" d="M211.14,87.6a.3.3,0,0,1,.115-.147,3.775,3.775,0,0,1,2.525-.1,6.844,6.844,0,0,1,1.784.877.305.305,0,0,1,.136.291c-.044.4-.142,1.318-.149,1.665a13.461,13.461,0,0,1-.3,3.927c-.373,1.175-1.349,2.228-3,3.617a6.67,6.67,0,0,1-4.149,1.41l-5.813-.054.349-3.557,5.369.148c1-.084,1.383-.189,1.759-.6.454-.5.215-2.013.215-2.013l.134-1.772s.784-3.068,1.025-3.688" transform="translate(-46.592 -20.085)"/><path class="n" d="M134.067,122.2v-2.124l1.94-1.755c3.279-2.932,4.872-4.617,4.918-6.372,0-1.224-.739-2.194-2.471-2.194a5.443,5.443,0,0,0-3.21,1.246l-.993-2.516a8.3,8.3,0,0,1,4.918-1.547c3.394,0,5.265,1.986,5.265,4.71,0,2.517-1.824,4.525-3.995,6.465l-1.385,1.155v.046h5.657V122.2Z" transform="translate(-30.879 -24.631)"/><path class="n" d="M151.437,106.551h3.533v12.607h6.187v2.956h-9.72Z" transform="translate(-34.88 -24.541)"/><path class="s" d="M164.415,0H113.629a9.967,9.967,0,0,0,0,19.933h50.786a9.967,9.967,0,1,0,0-19.933" transform="translate(-23.876)"/><path class="n" d="M113.465,14.114v-.692l.711-.656c1.412-1.311,2.077-2.031,2.086-2.825a.945.945,0,0,0-1.071-1.007,2.189,2.189,0,0,0-1.283.5l-.333-.8a2.968,2.968,0,0,1,1.846-.619A1.78,1.78,0,0,1,117.4,9.831c0,1.052-.757,1.9-1.8,2.871l-.526.453v.018h2.465v.941Z" transform="translate(-26.134 -1.845)"/><rect class="n" width="2.354" height="0.785" transform="translate(92.163 9.415)"/><path class="n" d="M123.9,12.942a2.97,2.97,0,0,0,1.366.369c.867,0,1.218-.489,1.209-.96,0-.71-.664-1.015-1.357-1.015h-.526V10.5h.508c.526,0,1.191-.24,1.191-.84,0-.406-.3-.747-.96-.747A2.416,2.416,0,0,0,124.1,9.3l-.259-.821a3.239,3.239,0,0,1,1.726-.462c1.237,0,1.873.683,1.873,1.468a1.463,1.463,0,0,1-1.107,1.4V10.9a1.515,1.515,0,0,1,1.319,1.5c0,1.015-.849,1.819-2.335,1.819a3.274,3.274,0,0,1-1.68-.416Z" transform="translate(-28.477 -1.845)"/><path class="n" d="M132.858,11.564c0-.591-.018-1.071-.037-1.5h1l.055.692h.018a1.751,1.751,0,0,1,1.542-.794,2.043,2.043,0,0,1,1.893,2.289,2.14,2.14,0,0,1-2.05,2.41,1.477,1.477,0,0,1-1.265-.6h-.018v2.326h-1.135Zm1.135,1.117a1.17,1.17,0,0,0,.037.314,1.027,1.027,0,0,0,1,.794c.72,0,1.145-.6,1.145-1.486,0-.794-.388-1.44-1.118-1.44a1.059,1.059,0,0,0-1.015.84,1.025,1.025,0,0,0-.046.286Z" transform="translate(-30.592 -2.296)"/><path class="n" d="M140.607,12.634a1.221,1.221,0,0,0,1.384,1.164,3.379,3.379,0,0,0,1.247-.2l.166.784a4.234,4.234,0,0,1-1.569.277,2.126,2.126,0,0,1-2.317-2.271,2.226,2.226,0,0,1,2.2-2.419,1.955,1.955,0,0,1,1.939,2.189,2.677,2.677,0,0,1-.038.479Zm1.975-.794a.966.966,0,0,0-.932-1.1,1.11,1.11,0,0,0-1.043,1.1Z" transform="translate(-32.134 -2.295)"/><path class="n" d="M146.07,11.518c0-.61-.009-1.043-.037-1.449h.987l.037.858h.038a1.34,1.34,0,0,1,1.227-.96,1.193,1.193,0,0,1,.268.028v1.071a1.579,1.579,0,0,0-.332-.037,1,1,0,0,0-1.015.858,1.949,1.949,0,0,0-.037.351v2.326H146.07Z" transform="translate(-33.635 -2.296)"/><path class="n" d="M150.215,13.521a2.528,2.528,0,0,0,1.154.323c.5,0,.72-.2.72-.5s-.185-.461-.739-.655c-.877-.3-1.246-.785-1.237-1.311a1.5,1.5,0,0,1,1.7-1.412,2.651,2.651,0,0,1,1.191.267l-.222.8a2.019,2.019,0,0,0-.951-.259c-.406,0-.628.194-.628.471s.212.425.785.627c.812.3,1.191.711,1.2,1.375,0,.813-.637,1.4-1.828,1.4a2.889,2.889,0,0,1-1.366-.315Z" transform="translate(-34.547 -2.296)"/><path class="n" d="M159.545,12.274a2.227,2.227,0,0,1-2.308,2.391,2.173,2.173,0,0,1-2.252-2.317,2.219,2.219,0,0,1,2.326-2.381,2.157,2.157,0,0,1,2.234,2.307m-3.388.046c0,.867.425,1.523,1.117,1.523.647,0,1.1-.637,1.1-1.542,0-.7-.313-1.5-1.089-1.5-.8,0-1.126.776-1.126,1.523" transform="translate(-35.697 -2.296)"/><path class="n" d="M162.114,11.407c0-.517-.009-.951-.037-1.338h1l.055.673h.028a1.623,1.623,0,0,1,1.431-.775c.785,0,1.6.508,1.6,1.929v2.668h-1.135V12.025c0-.646-.24-1.135-.858-1.135a.953.953,0,0,0-.887.665,1.153,1.153,0,0,0-.046.369v2.641h-1.145Z" transform="translate(-37.33 -2.296)"/><path class="n" d="M168.978,11.407c0-.517-.009-.951-.037-1.338h1l.055.673h.028a1.622,1.622,0,0,1,1.431-.775c.785,0,1.6.508,1.6,1.929v2.668h-1.135V12.025c0-.646-.24-1.135-.858-1.135a.953.953,0,0,0-.887.665,1.153,1.153,0,0,0-.046.369v2.641h-1.145Z" transform="translate(-38.911 -2.296)"/><path class="n" d="M176.57,12.634a1.221,1.221,0,0,0,1.384,1.164,3.382,3.382,0,0,0,1.247-.2l.165.784a4.227,4.227,0,0,1-1.569.277,2.126,2.126,0,0,1-2.317-2.271,2.226,2.226,0,0,1,2.2-2.419,1.955,1.955,0,0,1,1.939,2.189,2.675,2.675,0,0,1-.038.479Zm1.975-.794a.966.966,0,0,0-.932-1.1,1.11,1.11,0,0,0-1.043,1.1Z" transform="translate(-40.417 -2.295)"/><path class="n" d="M181.906,13.521a2.522,2.522,0,0,0,1.153.323c.5,0,.721-.2.721-.5s-.185-.461-.74-.655c-.877-.3-1.246-.785-1.237-1.311a1.5,1.5,0,0,1,1.7-1.412,2.65,2.65,0,0,1,1.19.267l-.221.8a2.022,2.022,0,0,0-.951-.259c-.406,0-.629.194-.629.471s.212.425.785.627c.812.3,1.191.711,1.2,1.375,0,.813-.637,1.4-1.828,1.4a2.892,2.892,0,0,1-1.367-.315Z" transform="translate(-41.846 -2.296)"/><path class="s" d="M164.415,157.088H113.629a9.967,9.967,0,0,0,0,19.933h50.786a9.967,9.967,0,1,0,0-19.933" transform="translate(-23.876 -36.181)"/><path class="n" d="M113.688,170.03a2.97,2.97,0,0,0,1.366.369c.867,0,1.218-.489,1.209-.96,0-.71-.664-1.015-1.357-1.015h-.526v-.831h.508c.526,0,1.191-.24,1.191-.84,0-.406-.3-.747-.96-.747a2.416,2.416,0,0,0-1.228.378l-.259-.821a3.239,3.239,0,0,1,1.726-.462c1.237,0,1.873.683,1.873,1.468a1.463,1.463,0,0,1-1.107,1.4v.018a1.515,1.515,0,0,1,1.319,1.5c0,1.015-.849,1.819-2.335,1.819a3.274,3.274,0,0,1-1.68-.416Z" transform="translate(-26.125 -38.026)"/><rect class="n" width="2.354" height="0.785" transform="translate(92.163 130.322)"/><path class="n" d="M126.116,171.231v-1.523H123.4v-.738l2.446-3.739h1.338v3.619h.775v.858h-.775v1.523Zm0-2.381v-1.634c0-.342.009-.692.037-1.043h-.037c-.185.379-.342.683-.526,1.015l-1.1,1.643-.009.018Z" transform="translate(-28.422 -38.057)"/><path class="n" d="M132.858,168.652c0-.591-.018-1.071-.037-1.5h1l.055.692h.018a1.751,1.751,0,0,1,1.542-.794,2.043,2.043,0,0,1,1.893,2.289,2.14,2.14,0,0,1-2.05,2.41,1.477,1.477,0,0,1-1.265-.6h-.018v2.326h-1.135Zm1.135,1.117a1.17,1.17,0,0,0,.037.314,1.027,1.027,0,0,0,1,.794c.72,0,1.145-.6,1.145-1.486,0-.794-.388-1.44-1.118-1.44a1.059,1.059,0,0,0-1.015.84,1.025,1.025,0,0,0-.046.286Z" transform="translate(-30.592 -38.477)"/><path class="n" d="M140.607,169.722a1.221,1.221,0,0,0,1.384,1.163,3.378,3.378,0,0,0,1.247-.2l.166.784a4.234,4.234,0,0,1-1.569.277,2.126,2.126,0,0,1-2.317-2.271,2.226,2.226,0,0,1,2.2-2.419,1.955,1.955,0,0,1,1.939,2.188,2.694,2.694,0,0,1-.038.48Zm1.975-.794a.966.966,0,0,0-.932-1.1,1.109,1.109,0,0,0-1.043,1.1Z" transform="translate(-32.134 -38.477)"/><path class="n" d="M146.07,168.6c0-.61-.009-1.043-.037-1.449h.987l.037.858h.038a1.34,1.34,0,0,1,1.227-.96,1.193,1.193,0,0,1,.268.028v1.071a1.58,1.58,0,0,0-.332-.037,1,1,0,0,0-1.015.858,1.95,1.95,0,0,0-.037.351v2.326H146.07Z" transform="translate(-33.635 -38.477)"/><path class="n" d="M150.215,170.609a2.528,2.528,0,0,0,1.154.323c.5,0,.72-.2.72-.5s-.185-.461-.739-.655c-.877-.3-1.246-.785-1.237-1.311a1.5,1.5,0,0,1,1.7-1.412,2.652,2.652,0,0,1,1.191.267l-.222.8a2.019,2.019,0,0,0-.951-.259c-.406,0-.628.194-.628.471s.212.425.785.627c.812.3,1.191.711,1.2,1.375,0,.813-.637,1.4-1.828,1.4a2.889,2.889,0,0,1-1.366-.315Z" transform="translate(-34.547 -38.477)"/><path class="n" d="M159.545,169.362a2.227,2.227,0,0,1-2.308,2.391,2.173,2.173,0,0,1-2.252-2.317,2.219,2.219,0,0,1,2.326-2.381,2.157,2.157,0,0,1,2.234,2.307m-3.388.046c0,.867.425,1.523,1.117,1.523.647,0,1.1-.637,1.1-1.542,0-.7-.313-1.5-1.089-1.5-.8,0-1.126.776-1.126,1.523" transform="translate(-35.697 -38.477)"/><path class="n" d="M162.114,168.5c0-.517-.009-.951-.037-1.338h1l.055.673h.028a1.623,1.623,0,0,1,1.431-.775c.785,0,1.6.508,1.6,1.929v2.668h-1.135v-2.539c0-.646-.24-1.135-.858-1.135a.953.953,0,0,0-.887.665,1.153,1.153,0,0,0-.046.369v2.641h-1.145Z" transform="translate(-37.33 -38.477)"/><path class="n" d="M168.978,168.5c0-.517-.009-.951-.037-1.338h1l.055.673h.028a1.622,1.622,0,0,1,1.431-.775c.785,0,1.6.508,1.6,1.929v2.668h-1.135v-2.539c0-.646-.24-1.135-.858-1.135a.953.953,0,0,0-.887.665,1.153,1.153,0,0,0-.046.369v2.641h-1.145Z" transform="translate(-38.911 -38.477)"/><path class="n" d="M176.57,169.722a1.221,1.221,0,0,0,1.384,1.163,3.381,3.381,0,0,0,1.247-.2l.165.784a4.227,4.227,0,0,1-1.569.277,2.126,2.126,0,0,1-2.317-2.271,2.226,2.226,0,0,1,2.2-2.419,1.955,1.955,0,0,1,1.939,2.188,2.692,2.692,0,0,1-.038.48Zm1.975-.794a.966.966,0,0,0-.932-1.1,1.109,1.109,0,0,0-1.043,1.1Z" transform="translate(-40.417 -38.477)"/><path class="n" d="M181.906,170.609a2.522,2.522,0,0,0,1.153.323c.5,0,.721-.2.721-.5s-.185-.461-.74-.655c-.877-.3-1.246-.785-1.237-1.311a1.5,1.5,0,0,1,1.7-1.412,2.651,2.651,0,0,1,1.19.267l-.221.8a2.022,2.022,0,0,0-.951-.259c-.406,0-.629.194-.629.471s.212.425.785.627c.812.3,1.191.711,1.2,1.375,0,.813-.637,1.4-1.828,1.4a2.892,2.892,0,0,1-1.367-.315Z" transform="translate(-41.846 -38.477)"/><path class="s" d="M164.415,320.38H113.629a9.967,9.967,0,0,0,0,19.933h50.786a9.967,9.967,0,0,0,0-19.933" transform="translate(-23.876 -73.791)"/><path class="n" d="M115.9,334.523V333H113.19v-.738l2.446-3.739h1.338v3.619h.775V333h-.775v1.523Zm0-2.381v-1.634c0-.342.009-.692.037-1.043H115.9c-.185.379-.342.683-.526,1.015l-1.1,1.643-.009.019Z" transform="translate(-26.07 -75.667)"/><rect class="n" width="2.354" height="0.785" transform="translate(92.163 256.004)"/><path class="n" d="M127.486,329.465h-2.307l-.175,1.2a3.023,3.023,0,0,1,.434-.028,2.671,2.671,0,0,1,1.458.388,1.72,1.72,0,0,1,.785,1.523,2.192,2.192,0,0,1-2.428,2.077,3.452,3.452,0,0,1-1.588-.35l.231-.859a3.032,3.032,0,0,0,1.32.314,1.171,1.171,0,0,0,1.3-1.1c0-.683-.508-1.135-1.708-1.135a5.317,5.317,0,0,0-.821.055l.4-3.028h3.1Z" transform="translate(-28.483 -75.667)"/><path class="n" d="M132.858,331.943c0-.591-.018-1.071-.037-1.5h1l.055.692h.018a1.751,1.751,0,0,1,1.542-.794,2.043,2.043,0,0,1,1.893,2.289,2.14,2.14,0,0,1-2.05,2.41,1.477,1.477,0,0,1-1.265-.6h-.018v2.326h-1.135Zm1.135,1.117a1.17,1.17,0,0,0,.037.314,1.027,1.027,0,0,0,1,.794c.72,0,1.145-.6,1.145-1.486,0-.794-.388-1.44-1.118-1.44a1.059,1.059,0,0,0-1.015.84,1.025,1.025,0,0,0-.046.286Z" transform="translate(-30.592 -76.087)"/><path class="n" d="M140.607,333.014a1.221,1.221,0,0,0,1.384,1.163,3.379,3.379,0,0,0,1.247-.2l.166.784a4.235,4.235,0,0,1-1.569.277,2.126,2.126,0,0,1-2.317-2.271,2.226,2.226,0,0,1,2.2-2.419,1.955,1.955,0,0,1,1.939,2.188,2.694,2.694,0,0,1-.038.48Zm1.975-.794a.966.966,0,0,0-.932-1.1,1.11,1.11,0,0,0-1.043,1.1Z" transform="translate(-32.134 -76.087)"/><path class="n" d="M146.07,331.9c0-.61-.009-1.043-.037-1.449h.987l.037.858h.038a1.34,1.34,0,0,1,1.227-.96,1.2,1.2,0,0,1,.268.028v1.071a1.58,1.58,0,0,0-.332-.037,1,1,0,0,0-1.015.858,1.949,1.949,0,0,0-.037.351v2.326H146.07Z" transform="translate(-33.635 -76.087)"/><path class="n" d="M150.215,333.9a2.528,2.528,0,0,0,1.154.323c.5,0,.72-.2.72-.5s-.185-.461-.739-.655c-.877-.3-1.246-.785-1.237-1.311a1.5,1.5,0,0,1,1.7-1.412,2.652,2.652,0,0,1,1.191.267l-.222.8a2.019,2.019,0,0,0-.951-.259c-.406,0-.628.194-.628.471s.212.425.785.627c.812.3,1.191.711,1.2,1.375,0,.813-.637,1.4-1.828,1.4a2.889,2.889,0,0,1-1.366-.315Z" transform="translate(-34.547 -76.087)"/><path class="n" d="M159.545,332.653a2.227,2.227,0,0,1-2.308,2.391,2.173,2.173,0,0,1-2.252-2.317,2.219,2.219,0,0,1,2.326-2.381,2.157,2.157,0,0,1,2.234,2.307m-3.388.046c0,.867.425,1.523,1.117,1.523.647,0,1.1-.637,1.1-1.542,0-.7-.313-1.5-1.089-1.5-.8,0-1.126.776-1.126,1.523" transform="translate(-35.697 -76.087)"/><path class="n" d="M162.114,331.786c0-.517-.009-.951-.037-1.338h1l.055.673h.028a1.623,1.623,0,0,1,1.431-.775c.785,0,1.6.508,1.6,1.929v2.668h-1.135V332.4c0-.646-.24-1.135-.858-1.135a.953.953,0,0,0-.887.665,1.153,1.153,0,0,0-.046.369v2.641h-1.145Z" transform="translate(-37.33 -76.087)"/><path class="n" d="M168.978,331.786c0-.517-.009-.951-.037-1.338h1l.055.673h.028a1.623,1.623,0,0,1,1.431-.775c.785,0,1.6.508,1.6,1.929v2.668h-1.135V332.4c0-.646-.24-1.135-.858-1.135a.953.953,0,0,0-.887.665,1.153,1.153,0,0,0-.046.369v2.641h-1.145Z" transform="translate(-38.911 -76.087)"/><path class="n" d="M176.57,333.014a1.221,1.221,0,0,0,1.384,1.163,3.382,3.382,0,0,0,1.247-.2l.165.784a4.228,4.228,0,0,1-1.569.277,2.126,2.126,0,0,1-2.317-2.271,2.226,2.226,0,0,1,2.2-2.419,1.955,1.955,0,0,1,1.939,2.188,2.692,2.692,0,0,1-.038.48Zm1.975-.794a.966.966,0,0,0-.932-1.1,1.11,1.11,0,0,0-1.043,1.1Z" transform="translate(-40.417 -76.087)"/><path class="n" d="M181.906,333.9a2.522,2.522,0,0,0,1.153.323c.5,0,.721-.2.721-.5s-.185-.461-.74-.655c-.877-.3-1.246-.785-1.237-1.311a1.5,1.5,0,0,1,1.7-1.412,2.651,2.651,0,0,1,1.19.267l-.221.8a2.022,2.022,0,0,0-.951-.259c-.406,0-.629.194-.629.471s.212.425.785.627c.812.3,1.191.711,1.2,1.375,0,.813-.637,1.4-1.828,1.4a2.893,2.893,0,0,1-1.367-.315Z" transform="translate(-41.846 -76.087)"/><path class="s" d="M164.415,501.921H113.629a9.967,9.967,0,0,0,0,19.934h50.786a9.967,9.967,0,0,0,0-19.934" transform="translate(-23.876 -115.604)"/><path class="n" d="M117.274,511.006h-2.307l-.175,1.2a2.913,2.913,0,0,1,.434-.029,2.671,2.671,0,0,1,1.458.388,1.721,1.721,0,0,1,.785,1.523,2.192,2.192,0,0,1-2.428,2.077,3.452,3.452,0,0,1-1.588-.35l.231-.859a3.032,3.032,0,0,0,1.32.314,1.17,1.17,0,0,0,1.3-1.1c0-.683-.508-1.135-1.708-1.135a5.21,5.21,0,0,0-.821.055l.4-3.029h3.1Z" transform="translate(-26.131 -117.48)"/><rect class="n" width="2.354" height="0.785" transform="translate(92.163 395.732)"/><path class="n" d="M127.3,510.841a4.452,4.452,0,0,0-.582.028,2.126,2.126,0,0,0-2.012,1.753h.028a1.729,1.729,0,0,1,1.348-.582A1.808,1.808,0,0,1,127.921,514a2.084,2.084,0,0,1-2.114,2.141,2.286,2.286,0,0,1-2.262-2.584,3.675,3.675,0,0,1,1.044-2.7,3.475,3.475,0,0,1,2.132-.886,3.219,3.219,0,0,1,.573-.018Zm-.536,3.222a1.052,1.052,0,0,0-1.043-1.191,1.1,1.1,0,0,0-.978.619.764.764,0,0,0-.074.36c.018.794.4,1.439,1.126,1.439.59,0,.969-.507.969-1.228" transform="translate(-28.455 -117.454)"/><path class="n" d="M132.858,513.485c0-.591-.018-1.071-.037-1.5h1l.055.693h.018a1.752,1.752,0,0,1,1.542-.794,2.043,2.043,0,0,1,1.893,2.289,2.14,2.14,0,0,1-2.05,2.409,1.476,1.476,0,0,1-1.265-.6h-.018v2.326h-1.135Zm1.135,1.117a1.164,1.164,0,0,0,.037.313,1.027,1.027,0,0,0,1,.794c.72,0,1.145-.6,1.145-1.486,0-.794-.388-1.44-1.118-1.44a1.059,1.059,0,0,0-1.015.84,1.025,1.025,0,0,0-.046.286Z" transform="translate(-30.592 -117.9)"/><path class="n" d="M140.607,514.555a1.221,1.221,0,0,0,1.384,1.164,3.378,3.378,0,0,0,1.247-.2l.166.785a4.253,4.253,0,0,1-1.569.276,2.126,2.126,0,0,1-2.317-2.27,2.226,2.226,0,0,1,2.2-2.419,1.955,1.955,0,0,1,1.939,2.188,2.7,2.7,0,0,1-.038.48Zm1.975-.794a.967.967,0,0,0-.932-1.1,1.11,1.11,0,0,0-1.043,1.1Z" transform="translate(-32.134 -117.9)"/><path class="n" d="M146.07,513.438c0-.608-.009-1.041-.037-1.448h.987l.037.858h.038a1.34,1.34,0,0,1,1.227-.96,1.194,1.194,0,0,1,.268.028v1.071a1.587,1.587,0,0,0-.332-.037,1,1,0,0,0-1.015.858,1.95,1.95,0,0,0-.037.351v2.326H146.07Z" transform="translate(-33.635 -117.9)"/><path class="n" d="M150.215,515.442a2.528,2.528,0,0,0,1.154.323c.5,0,.72-.2.72-.5s-.185-.461-.739-.655c-.877-.3-1.246-.785-1.237-1.311a1.5,1.5,0,0,1,1.7-1.412,2.652,2.652,0,0,1,1.191.267l-.222.8a2.02,2.02,0,0,0-.951-.259c-.406,0-.628.194-.628.471s.212.425.785.627c.812.3,1.191.711,1.2,1.375,0,.813-.637,1.4-1.828,1.4a2.89,2.89,0,0,1-1.366-.315Z" transform="translate(-34.547 -117.9)"/><path class="n" d="M159.545,514.195a2.227,2.227,0,0,1-2.308,2.391,2.173,2.173,0,0,1-2.252-2.317,2.22,2.22,0,0,1,2.326-2.382,2.157,2.157,0,0,1,2.234,2.307m-3.388.047c0,.867.425,1.523,1.117,1.523.647,0,1.1-.637,1.1-1.542,0-.7-.313-1.5-1.089-1.5-.8,0-1.126.775-1.126,1.523" transform="translate(-35.697 -117.9)"/><path class="n" d="M162.114,513.328c0-.517-.009-.951-.037-1.338h1l.055.674h.028a1.621,1.621,0,0,1,1.431-.776c.785,0,1.6.508,1.6,1.93v2.668h-1.135v-2.538c0-.647-.24-1.136-.858-1.136a.953.953,0,0,0-.887.665,1.157,1.157,0,0,0-.046.369v2.64h-1.145Z" transform="translate(-37.33 -117.9)"/><path class="n" d="M168.978,513.328c0-.517-.009-.951-.037-1.338h1l.055.674h.028a1.621,1.621,0,0,1,1.431-.776c.785,0,1.6.508,1.6,1.93v2.668h-1.135v-2.538c0-.647-.24-1.136-.858-1.136a.953.953,0,0,0-.887.665,1.157,1.157,0,0,0-.046.369v2.64h-1.145Z" transform="translate(-38.911 -117.9)"/><path class="n" d="M176.57,514.555a1.221,1.221,0,0,0,1.384,1.164,3.381,3.381,0,0,0,1.247-.2l.165.785a4.246,4.246,0,0,1-1.569.276,2.126,2.126,0,0,1-2.317-2.27,2.226,2.226,0,0,1,2.2-2.419,1.955,1.955,0,0,1,1.939,2.188,2.693,2.693,0,0,1-.038.48Zm1.975-.794a.967.967,0,0,0-.932-1.1,1.11,1.11,0,0,0-1.043,1.1Z" transform="translate(-40.417 -117.9)"/><path class="n" d="M181.906,515.442a2.522,2.522,0,0,0,1.153.323c.5,0,.721-.2.721-.5s-.185-.461-.74-.655c-.877-.3-1.246-.785-1.237-1.311a1.5,1.5,0,0,1,1.7-1.412,2.651,2.651,0,0,1,1.19.267l-.221.8a2.023,2.023,0,0,0-.951-.259c-.406,0-.629.194-.629.471s.212.425.785.627c.812.3,1.191.711,1.2,1.375,0,.813-.637,1.4-1.828,1.4a2.893,2.893,0,0,1-1.367-.315Z" transform="translate(-41.846 -117.9)"/><path class="s" d="M164.415,706.734H113.629a9.967,9.967,0,0,0,0,19.933h50.786a9.967,9.967,0,1,0,0-19.933" transform="translate(-23.876 -162.778)"/><path class="n" d="M117.091,715.654a4.452,4.452,0,0,0-.582.028,2.126,2.126,0,0,0-2.012,1.753h.028a1.729,1.729,0,0,1,1.348-.582,1.808,1.808,0,0,1,1.837,1.957,2.085,2.085,0,0,1-2.114,2.141,2.286,2.286,0,0,1-2.262-2.584,3.675,3.675,0,0,1,1.044-2.7,3.475,3.475,0,0,1,2.132-.886,3.212,3.212,0,0,1,.573-.018Zm-.536,3.222a1.052,1.052,0,0,0-1.043-1.191,1.1,1.1,0,0,0-.978.619.764.764,0,0,0-.074.36c.018.794.4,1.439,1.126,1.439.59,0,.969-.507.969-1.228" transform="translate(-26.103 -164.627)"/><rect class="n" width="2.354" height="0.785" transform="translate(92.163 553.371)"/><path class="n" d="M123.569,719.306a1.657,1.657,0,0,1,1.126-1.56v-.028a1.463,1.463,0,0,1-.914-1.329,1.786,1.786,0,0,1,2-1.643c1.292,0,1.883.776,1.883,1.514a1.5,1.5,0,0,1-.923,1.357v.028a1.614,1.614,0,0,1,1.145,1.514c0,1.071-.905,1.79-2.188,1.79-1.4,0-2.132-.8-2.132-1.643m3.166-.055c0-.61-.453-.941-1.118-1.127a1.1,1.1,0,0,0-.886,1.053.944.944,0,0,0,1.006.969.908.908,0,0,0,1-.9m-1.874-2.908c0,.49.406.785.978.942a.975.975,0,0,0,.748-.905.8.8,0,0,0-.859-.85.8.8,0,0,0-.867.813" transform="translate(-28.461 -164.623)"/><path class="n" d="M132.858,718.3c0-.591-.018-1.071-.037-1.5h1l.055.693h.018a1.752,1.752,0,0,1,1.542-.794,2.043,2.043,0,0,1,1.893,2.289,2.14,2.14,0,0,1-2.05,2.409,1.477,1.477,0,0,1-1.265-.6h-.018v2.326h-1.135Zm1.135,1.117a1.164,1.164,0,0,0,.037.313,1.027,1.027,0,0,0,1,.794c.72,0,1.145-.6,1.145-1.486,0-.794-.388-1.44-1.118-1.44a1.059,1.059,0,0,0-1.015.84,1.026,1.026,0,0,0-.046.286Z" transform="translate(-30.592 -165.073)"/><path class="n" d="M140.607,719.368a1.221,1.221,0,0,0,1.384,1.164,3.377,3.377,0,0,0,1.247-.2l.166.785a4.251,4.251,0,0,1-1.569.276,2.126,2.126,0,0,1-2.317-2.271,2.226,2.226,0,0,1,2.2-2.419,1.955,1.955,0,0,1,1.939,2.188,2.694,2.694,0,0,1-.038.479Zm1.975-.794a.967.967,0,0,0-.932-1.1,1.11,1.11,0,0,0-1.043,1.1Z" transform="translate(-32.134 -165.073)"/><path class="n" d="M146.07,718.251c0-.609-.009-1.042-.037-1.449h.987l.037.858h.038a1.34,1.34,0,0,1,1.227-.96,1.192,1.192,0,0,1,.268.028V717.8a1.577,1.577,0,0,0-.332-.037,1,1,0,0,0-1.015.858,1.949,1.949,0,0,0-.037.351V721.3H146.07Z" transform="translate(-33.635 -165.073)"/><path class="n" d="M150.215,720.255a2.528,2.528,0,0,0,1.154.323c.5,0,.72-.2.72-.5s-.185-.461-.739-.655c-.877-.3-1.246-.785-1.237-1.311a1.5,1.5,0,0,1,1.7-1.412,2.652,2.652,0,0,1,1.191.267l-.222.8a2.02,2.02,0,0,0-.951-.259c-.406,0-.628.194-.628.471s.212.425.785.627c.812.3,1.191.711,1.2,1.375,0,.813-.637,1.4-1.828,1.4a2.889,2.889,0,0,1-1.366-.315Z" transform="translate(-34.547 -165.073)"/><path class="n" d="M159.545,719.008a2.227,2.227,0,0,1-2.308,2.391,2.173,2.173,0,0,1-2.252-2.317,2.22,2.22,0,0,1,2.326-2.382,2.157,2.157,0,0,1,2.234,2.307m-3.388.047c0,.867.425,1.523,1.117,1.523.647,0,1.1-.637,1.1-1.542,0-.7-.313-1.5-1.089-1.5-.8,0-1.126.775-1.126,1.523" transform="translate(-35.697 -165.073)"/><path class="n" d="M162.114,718.14c0-.517-.009-.951-.037-1.338h1l.055.674h.028a1.621,1.621,0,0,1,1.431-.776c.785,0,1.6.508,1.6,1.93V721.3h-1.135v-2.538c0-.646-.24-1.136-.858-1.136a.953.953,0,0,0-.887.665,1.158,1.158,0,0,0-.046.369v2.64h-1.145Z" transform="translate(-37.33 -165.073)"/><path class="n" d="M168.978,718.14c0-.517-.009-.951-.037-1.338h1l.055.674h.028a1.621,1.621,0,0,1,1.431-.776c.785,0,1.6.508,1.6,1.93V721.3h-1.135v-2.538c0-.646-.24-1.136-.858-1.136a.953.953,0,0,0-.887.665,1.158,1.158,0,0,0-.046.369v2.64h-1.145Z" transform="translate(-38.911 -165.073)"/><path class="n" d="M176.57,719.368a1.221,1.221,0,0,0,1.384,1.164,3.38,3.38,0,0,0,1.247-.2l.165.785a4.244,4.244,0,0,1-1.569.276,2.126,2.126,0,0,1-2.317-2.271,2.226,2.226,0,0,1,2.2-2.419,1.955,1.955,0,0,1,1.939,2.188,2.692,2.692,0,0,1-.038.479Zm1.975-.794a.967.967,0,0,0-.932-1.1,1.11,1.11,0,0,0-1.043,1.1Z" transform="translate(-40.417 -165.073)"/><path class="n" d="M181.906,720.255a2.522,2.522,0,0,0,1.153.323c.5,0,.721-.2.721-.5s-.185-.461-.74-.655c-.877-.3-1.246-.785-1.237-1.311a1.5,1.5,0,0,1,1.7-1.412,2.651,2.651,0,0,1,1.19.267l-.221.8a2.023,2.023,0,0,0-.951-.259c-.406,0-.629.194-.629.471s.212.425.785.627c.812.3,1.191.711,1.2,1.375,0,.813-.637,1.4-1.828,1.4a2.892,2.892,0,0,1-1.367-.315Z" transform="translate(-41.846 -165.073)"/></g></g></svg>