<svg xmlns="http://www.w3.org/2000/svg" width="142.633" height="128.273" viewBox="0 0 142.633 128.273">
    <g transform="translate(0 0)">
        <path class="a"
              d="M-313.312,1592.615a5.827,5.827,0,0,1,5.828,5.832,5.828,5.828,0,0,1-5.828,5.83,5.832,5.832,0,0,1-5.832-5.83,5.832,5.832,0,0,1,5.832-5.832Zm14.576,116.609a5.831,5.831,0,0,1,5.83,5.836,5.831,5.831,0,0,1-5.83,5.828,5.831,5.831,0,0,1-5.832-5.828,5.831,5.831,0,0,1,5.832-5.836Zm-14.576,0a5.829,5.829,0,0,1,5.828,5.836,5.829,5.829,0,0,1-5.828,5.828,5.834,5.834,0,0,1-5.832-5.828,5.834,5.834,0,0,1,5.832-5.836Zm14.576-14.572a5.83,5.83,0,0,1,5.83,5.826,5.83,5.83,0,0,1-5.83,5.832,5.831,5.831,0,0,1-5.832-5.832,5.83,5.83,0,0,1,5.832-5.826Zm-14.576,0a5.828,5.828,0,0,1,5.828,5.826,5.829,5.829,0,0,1-5.828,5.832,5.833,5.833,0,0,1-5.832-5.832,5.833,5.833,0,0,1,5.832-5.826Zm14.576-14.58a5.831,5.831,0,0,1,5.83,5.83,5.829,5.829,0,0,1-5.83,5.834,5.83,5.83,0,0,1-5.832-5.834,5.831,5.831,0,0,1,5.832-5.83Zm-14.576,0a5.829,5.829,0,0,1,5.828,5.83,5.828,5.828,0,0,1-5.828,5.834,5.832,5.832,0,0,1-5.832-5.834,5.834,5.834,0,0,1,5.832-5.83Zm14.576-14.574a5.83,5.83,0,0,1,5.83,5.828,5.829,5.829,0,0,1-5.83,5.83,5.83,5.83,0,0,1-5.832-5.83,5.831,5.831,0,0,1,5.832-5.828Zm-14.576,0a5.829,5.829,0,0,1,5.828,5.828,5.828,5.828,0,0,1-5.828,5.83,5.832,5.832,0,0,1-5.832-5.83,5.833,5.833,0,0,1,5.832-5.828Zm-14.576,0a5.831,5.831,0,0,1,5.828,5.828,5.83,5.83,0,0,1-5.828,5.83,5.831,5.831,0,0,1-5.834-5.83,5.832,5.832,0,0,1,5.834-5.828Zm43.731-14.576a5.828,5.828,0,0,1,5.828,5.826,5.83,5.83,0,0,1-5.828,5.836,5.833,5.833,0,0,1-5.834-5.836,5.831,5.831,0,0,1,5.834-5.826Zm-14.58,0a5.829,5.829,0,0,1,5.83,5.826,5.831,5.831,0,0,1-5.83,5.836,5.831,5.831,0,0,1-5.832-5.836,5.829,5.829,0,0,1,5.832-5.826Zm-14.576,0a5.827,5.827,0,0,1,5.828,5.826,5.829,5.829,0,0,1-5.828,5.836,5.834,5.834,0,0,1-5.832-5.836,5.832,5.832,0,0,1,5.832-5.826Zm-14.576,0a5.83,5.83,0,0,1,5.828,5.826,5.832,5.832,0,0,1-5.828,5.836,5.833,5.833,0,0,1-5.834-5.836,5.831,5.831,0,0,1,5.834-5.826Zm43.731-14.576a5.828,5.828,0,0,1,5.828,5.826,5.828,5.828,0,0,1-5.828,5.83,5.83,5.83,0,0,1-5.834-5.83,5.831,5.831,0,0,1,5.834-5.826Zm-14.58,0a5.829,5.829,0,0,1,5.83,5.826,5.828,5.828,0,0,1-5.83,5.83,5.829,5.829,0,0,1-5.832-5.83,5.829,5.829,0,0,1,5.832-5.826Zm-14.576,0a5.827,5.827,0,0,1,5.828,5.826,5.827,5.827,0,0,1-5.828,5.83,5.831,5.831,0,0,1-5.832-5.83,5.832,5.832,0,0,1,5.832-5.826Zm-14.576,0a5.83,5.83,0,0,1,5.828,5.826,5.829,5.829,0,0,1-5.828,5.83,5.83,5.83,0,0,1-5.834-5.83,5.831,5.831,0,0,1,5.834-5.826Zm43.731-14.582a5.832,5.832,0,0,1,5.828,5.836,5.83,5.83,0,0,1-5.828,5.828,5.833,5.833,0,0,1-5.834-5.828,5.834,5.834,0,0,1,5.834-5.836Zm-14.58,0a5.832,5.832,0,0,1,5.83,5.836,5.831,5.831,0,0,1-5.83,5.828,5.831,5.831,0,0,1-5.832-5.828,5.832,5.832,0,0,1,5.832-5.836Zm-14.576,0a5.83,5.83,0,0,1,5.828,5.836,5.829,5.829,0,0,1-5.828,5.828,5.833,5.833,0,0,1-5.832-5.828,5.835,5.835,0,0,1,5.832-5.836Zm-14.576,0a5.833,5.833,0,0,1,5.828,5.836,5.831,5.831,0,0,1-5.828,5.828,5.832,5.832,0,0,1-5.834-5.828,5.834,5.834,0,0,1,5.834-5.836Zm29.152-14.572a5.831,5.831,0,0,1,5.83,5.83,5.829,5.829,0,0,1-5.83,5.828,5.83,5.83,0,0,1-5.832-5.828,5.831,5.831,0,0,1,5.832-5.83Zm-14.576,0a5.829,5.829,0,0,1,5.828,5.83,5.828,5.828,0,0,1-5.828,5.828,5.832,5.832,0,0,1-5.832-5.828,5.834,5.834,0,0,1,5.832-5.83Zm14.576-14.578a5.829,5.829,0,0,1,5.83,5.832,5.83,5.83,0,0,1-5.83,5.83,5.83,5.83,0,0,1-5.832-5.83,5.829,5.829,0,0,1,5.832-5.832Z"
              transform="translate(333.722 -1592.615)"/>
    </g>
    <g transform="translate(87.242 0)">
        <path class="a"
              d="M-267.985,1592.615a5.827,5.827,0,0,1,5.828,5.832,5.828,5.828,0,0,1-5.828,5.83,5.833,5.833,0,0,1-5.834-5.83,5.832,5.832,0,0,1,5.834-5.832Zm14.576,116.609a5.832,5.832,0,0,1,5.83,5.836,5.832,5.832,0,0,1-5.83,5.828,5.833,5.833,0,0,1-5.834-5.828,5.833,5.833,0,0,1,5.834-5.836Zm-14.576,0a5.829,5.829,0,0,1,5.828,5.836,5.829,5.829,0,0,1-5.828,5.828,5.834,5.834,0,0,1-5.834-5.828,5.834,5.834,0,0,1,5.834-5.836Zm14.576-14.572a5.831,5.831,0,0,1,5.83,5.826,5.831,5.831,0,0,1-5.83,5.832,5.832,5.832,0,0,1-5.834-5.832,5.832,5.832,0,0,1,5.834-5.826Zm-14.576,0a5.828,5.828,0,0,1,5.828,5.826,5.829,5.829,0,0,1-5.828,5.832,5.833,5.833,0,0,1-5.834-5.832,5.833,5.833,0,0,1,5.834-5.826Zm14.576-14.58a5.832,5.832,0,0,1,5.83,5.83,5.83,5.83,0,0,1-5.83,5.834,5.831,5.831,0,0,1-5.834-5.834,5.833,5.833,0,0,1,5.834-5.83Zm-14.576,0a5.829,5.829,0,0,1,5.828,5.83,5.828,5.828,0,0,1-5.828,5.834,5.833,5.833,0,0,1-5.834-5.834,5.834,5.834,0,0,1,5.834-5.83Zm29.154-14.574a5.829,5.829,0,0,1,5.828,5.828,5.828,5.828,0,0,1-5.828,5.83,5.831,5.831,0,0,1-5.832-5.83,5.832,5.832,0,0,1,5.832-5.828Zm-14.578,0a5.832,5.832,0,0,1,5.83,5.828,5.831,5.831,0,0,1-5.83,5.83,5.832,5.832,0,0,1-5.834-5.83,5.833,5.833,0,0,1,5.834-5.828Zm-14.576,0a5.829,5.829,0,0,1,5.828,5.828,5.828,5.828,0,0,1-5.828,5.83,5.833,5.833,0,0,1-5.834-5.83,5.834,5.834,0,0,1,5.834-5.828Zm-14.578,0a5.83,5.83,0,0,1,5.828,5.828,5.829,5.829,0,0,1-5.828,5.83,5.831,5.831,0,0,1-5.832-5.83,5.832,5.832,0,0,1,5.832-5.828Zm43.731-14.576a5.827,5.827,0,0,1,5.828,5.826,5.829,5.829,0,0,1-5.828,5.836,5.833,5.833,0,0,1-5.832-5.836,5.83,5.83,0,0,1,5.832-5.826Zm-14.578,0a5.83,5.83,0,0,1,5.83,5.826,5.832,5.832,0,0,1-5.83,5.836,5.833,5.833,0,0,1-5.834-5.836,5.831,5.831,0,0,1,5.834-5.826Zm-14.576,0a5.827,5.827,0,0,1,5.828,5.826,5.829,5.829,0,0,1-5.828,5.836,5.834,5.834,0,0,1-5.834-5.836,5.832,5.832,0,0,1,5.834-5.826Zm-14.578,0a5.828,5.828,0,0,1,5.828,5.826,5.83,5.83,0,0,1-5.828,5.836,5.832,5.832,0,0,1-5.832-5.836,5.83,5.83,0,0,1,5.832-5.826Zm43.731-14.576a5.827,5.827,0,0,1,5.828,5.826,5.827,5.827,0,0,1-5.828,5.83,5.83,5.83,0,0,1-5.832-5.83,5.83,5.83,0,0,1,5.832-5.826Zm-14.578,0a5.83,5.83,0,0,1,5.83,5.826,5.83,5.83,0,0,1-5.83,5.83,5.83,5.83,0,0,1-5.834-5.83,5.831,5.831,0,0,1,5.834-5.826Zm-14.576,0a5.827,5.827,0,0,1,5.828,5.826,5.827,5.827,0,0,1-5.828,5.83,5.832,5.832,0,0,1-5.834-5.83,5.832,5.832,0,0,1,5.834-5.826Zm-14.578,0a5.828,5.828,0,0,1,5.828,5.826,5.828,5.828,0,0,1-5.828,5.83,5.83,5.83,0,0,1-5.832-5.83,5.83,5.83,0,0,1,5.832-5.826Zm43.731-14.582A5.83,5.83,0,0,1-233,1627.6a5.829,5.829,0,0,1-5.828,5.828,5.832,5.832,0,0,1-5.832-5.828,5.834,5.834,0,0,1,5.832-5.836Zm-14.578,0a5.833,5.833,0,0,1,5.83,5.836,5.832,5.832,0,0,1-5.83,5.828,5.833,5.833,0,0,1-5.834-5.828,5.834,5.834,0,0,1,5.834-5.836Zm-14.576,0a5.83,5.83,0,0,1,5.828,5.836,5.829,5.829,0,0,1-5.828,5.828,5.834,5.834,0,0,1-5.834-5.828,5.835,5.835,0,0,1,5.834-5.836Zm-14.578,0a5.832,5.832,0,0,1,5.828,5.836,5.83,5.83,0,0,1-5.828,5.828,5.832,5.832,0,0,1-5.832-5.828,5.834,5.834,0,0,1,5.832-5.836Zm29.154-14.572a5.832,5.832,0,0,1,5.83,5.83,5.83,5.83,0,0,1-5.83,5.828,5.831,5.831,0,0,1-5.834-5.828,5.833,5.833,0,0,1,5.834-5.83Zm-14.576,0a5.829,5.829,0,0,1,5.828,5.83,5.828,5.828,0,0,1-5.828,5.828,5.832,5.832,0,0,1-5.834-5.828,5.834,5.834,0,0,1,5.834-5.83Zm14.576-14.578a5.83,5.83,0,0,1,5.83,5.832,5.831,5.831,0,0,1-5.83,5.83,5.832,5.832,0,0,1-5.834-5.83,5.831,5.831,0,0,1,5.834-5.832Z"
              transform="translate(288.395 -1592.615)"/>
    </g>
    <path class="a"
          d="M-297.66,1625.224a5.829,5.829,0,0,1,5.828,5.828,5.828,5.828,0,0,1-5.828,5.83,5.831,5.831,0,0,1-5.832-5.83,5.832,5.832,0,0,1,5.832-5.828Z"
          transform="translate(361.676 -1562.461)"/>
</svg>