<svg xmlns="http://www.w3.org/2000/svg" width="113.699" height="84.543" viewBox="0 0 113.699 84.543">
    <path class="a"
          d="M103.962,1603.882a5.831,5.831,0,1,1-5.83,5.83,5.83,5.83,0,0,1,5.83-5.83Zm-43.726,72.88A5.832,5.832,0,1,1,54.4,1682.6a5.832,5.832,0,0,1,5.832-5.834Zm14.574-14.574a5.829,5.829,0,1,1-5.826,5.832,5.833,5.833,0,0,1,5.826-5.832Zm-14.574,0a5.829,5.829,0,1,1-5.832,5.832,5.833,5.833,0,0,1,5.832-5.832Zm-14.578,0a5.829,5.829,0,1,1-5.834,5.832,5.833,5.833,0,0,1,5.834-5.832ZM89.39,1647.61a5.832,5.832,0,1,1-5.834,5.828,5.83,5.83,0,0,1,5.834-5.828Zm-14.58,0a5.832,5.832,0,1,1-5.826,5.828,5.832,5.832,0,0,1,5.826-5.828Zm-14.574,0a5.832,5.832,0,1,1-5.832,5.828,5.832,5.832,0,0,1,5.832-5.828Zm-14.578,0a5.832,5.832,0,1,1-5.834,5.828,5.832,5.832,0,0,1,5.834-5.828Zm-14.576,0a5.832,5.832,0,1,1-5.83,5.828,5.833,5.833,0,0,1,5.83-5.828Zm72.879-14.578a5.832,5.832,0,1,1-5.83,5.832,5.833,5.833,0,0,1,5.83-5.832Zm-14.572,0a5.832,5.832,0,1,1-5.834,5.832,5.833,5.833,0,0,1,5.834-5.832Zm-14.58,0a5.832,5.832,0,1,1-5.826,5.832,5.834,5.834,0,0,1,5.826-5.832Zm-29.152,0a5.832,5.832,0,1,1-5.834,5.832,5.834,5.834,0,0,1,5.834-5.832Zm-14.576,0a5.832,5.832,0,1,1-5.83,5.832,5.835,5.835,0,0,1,5.83-5.832Zm-14.578,0a5.832,5.832,0,1,1-5.832,5.832,5.833,5.833,0,0,1,5.832-5.832Zm102.035-14.574a5.831,5.831,0,1,1-5.832,5.83,5.831,5.831,0,0,1,5.832-5.83Zm-14.578,0a5.831,5.831,0,1,1-5.83,5.83,5.831,5.831,0,0,1,5.83-5.83Zm-14.572,0a5.831,5.831,0,1,1-5.834,5.83,5.831,5.831,0,0,1,5.834-5.83Zm-58.307,0a5.831,5.831,0,1,1-5.83,5.83,5.834,5.834,0,0,1,5.83-5.83Z"
          transform="translate(-10.673 -1603.882)"/>
</svg>