<svg xmlns="http://www.w3.org/2000/svg" width="92.411" height="133.122" viewBox="0 0 92.411 133.122">
    <path class="a"
          d="M-143.3,1670.809a5.777,5.777,0,0,1-5.612-4.433,5.774,5.774,0,0,1,4.275-6.96,5.855,5.855,0,0,1,7.048,4.242,5.694,5.694,0,0,1-4.159,6.943l-.206.048A5.8,5.8,0,0,1-143.3,1670.809Zm15.092-8.207a5.758,5.758,0,0,1-3.351-1.076,5.777,5.777,0,0,1-1.343-8.055,5.83,5.83,0,0,1,8.074-1.49,5.721,5.721,0,0,1,1.474,7.988l-.15.216A5.772,5.772,0,0,1-128.205,1662.6Zm22.092-15.69a5.745,5.745,0,0,1-3.235-1,5.775,5.775,0,0,1-1.536-8.021l4.777,3.241-4.721-3.324a5.771,5.771,0,0,1,7.993-1.665,5.773,5.773,0,0,1,1.665,8c-.015.025-.141.21-.158.237A5.774,5.774,0,0,1-106.113,1646.911Zm-23.1-.631a5.758,5.758,0,0,1-4.583-2.258,5.766,5.766,0,0,1,.774-8.123,5.782,5.782,0,0,1,8.134.776l.25.314a5.774,5.774,0,0,1-1.062,8.1A5.75,5.75,0,0,1-129.212,1646.28Zm-15.663-6.7h-.1a5.945,5.945,0,0,1-5.868-5.776,5.855,5.855,0,0,1,6.046-5.772h.013a5.774,5.774,0,0,1,5.678,5.869A5.775,5.775,0,0,1-144.875,1639.58Zm42.226-9.387a5.777,5.777,0,0,1-5.666-4.692l-.029-.158a5.772,5.772,0,0,1,4.55-6.781,5.769,5.769,0,0,1,6.779,4.548l.044.222a5.772,5.772,0,0,1-4.587,6.755A5.7,5.7,0,0,1-102.649,1630.193Zm-39.624-7.491a5.766,5.766,0,0,1-2.783-.72,5.775,5.775,0,0,1-2.267-7.845,5.854,5.854,0,0,1,7.887-2.352,5.693,5.693,0,0,1,2.321,7.757l-.1.173A5.772,5.772,0,0,1-142.273,1622.7Zm30.318-6.831a5.738,5.738,0,0,1-3.347-1.072,5.841,5.841,0,0,1-1.467-8.086,5.708,5.708,0,0,1,7.976-1.453l.2.138a5.773,5.773,0,0,1,1.343,8.055A5.767,5.767,0,0,1-111.955,1615.871Zm-16.768-3.54a5.8,5.8,0,0,1-5.657-4.477,5.741,5.741,0,0,1,4.248-6.9l.35-.077a5.774,5.774,0,0,1,6.833,4.471,5.773,5.773,0,0,1-4.471,6.833l-1.182-5.651,1.126,5.662A5.757,5.757,0,0,1-128.723,1612.332Z"
          transform="translate(170.047 -1582.183)"/>
    <path class="a"
          d="M-120.718,1724.229h-.192a5.773,5.773,0,0,1-5.774-5.774,5.774,5.774,0,0,1,5.774-5.774h.192a5.775,5.775,0,0,1,5.774,5.774A5.774,5.774,0,0,1-120.718,1724.229Zm14.7-7.938a5.755,5.755,0,0,1-3.488-1.174,5.776,5.776,0,0,1-1.107-8.091,5.782,5.782,0,0,1,8.063-1.351,5.765,5.765,0,0,1,1.349,8.045l-.216.291A5.759,5.759,0,0,1-106.022,1716.292Zm-29.292-.133a5.767,5.767,0,0,1-4.731-2.454l-.11-.158a5.775,5.775,0,0,1,1.405-8.045,5.777,5.777,0,0,1,8.045,1.405l.11.158A5.776,5.776,0,0,1-132,1715.11,5.749,5.749,0,0,1-135.315,1716.159Zm31.958-16.549a5.732,5.732,0,0,1-5.507-4.1,5.858,5.858,0,0,1,3.849-7.266,5.689,5.689,0,0,1,7.158,3.763l.048.166a5.8,5.8,0,0,1-3.894,7.2A5.812,5.812,0,0,1-103.357,1699.61Zm9.017-14.545a5.75,5.75,0,0,1-3.249-1,5.777,5.777,0,0,1-1.515-8.026l.11-.158a5.776,5.776,0,0,1,8.024-1.517,5.775,5.775,0,0,1,1.515,8.024l-.11.16A5.763,5.763,0,0,1-94.339,1685.065Zm9.91-14.443a5.755,5.755,0,0,1-3.257-1.009,5.774,5.774,0,0,1-1.5-8.026,5.854,5.854,0,0,1,8.08-1.584,5.693,5.693,0,0,1,1.557,7.947l-.108.158A5.762,5.762,0,0,1-84.429,1670.622Zm8.494-15.226a5.773,5.773,0,0,1-1.8-.291,5.775,5.775,0,0,1-3.686-7.287A5.836,5.836,0,0,1-74.147,1644a5.713,5.713,0,0,1,3.772,7.185l-.075.235A5.776,5.776,0,0,1-75.935,1655.4Zm-79.11-12.759a5.693,5.693,0,0,1-5.774-5.678v-.193a5.774,5.774,0,0,1,5.774-5.774,5.774,5.774,0,0,1,5.774,5.774A5.857,5.857,0,0,1-155.045,1642.637Zm80.853-4.537a5.774,5.774,0,0,1-5.726-5.1l-.023-.192a5.777,5.777,0,0,1,5.06-6.409,5.785,5.785,0,0,1,6.409,5.06l.023.192a5.776,5.776,0,0,1-5.06,6.41A5.9,5.9,0,0,1-74.191,1638.1Zm-77.144-12.339a5.758,5.758,0,0,1-2.442-.545,5.773,5.773,0,0,1-2.783-7.678l.048-.1a5.771,5.771,0,0,1,7.639-2.887,5.776,5.776,0,0,1,2.885,7.639l-.114.246A5.777,5.777,0,0,1-151.336,1625.761Zm71.493-4.083a5.766,5.766,0,0,1-4.948-2.791,5.855,5.855,0,0,1,1.879-7.99,5.7,5.7,0,0,1,7.87,1.8c.012.021.125.206.137.225a5.773,5.773,0,0,1-1.959,7.928A5.736,5.736,0,0,1-79.842,1621.678Zm-61-9.774a5.753,5.753,0,0,1-4.41-2.044,5.772,5.772,0,0,1,.677-8.138l3.73,4.407-3.692-4.44a5.812,5.812,0,0,1,8.134.528,5.733,5.733,0,0,1-.429,8.074l-.283.247A5.752,5.752,0,0,1-140.84,1611.9Zm48.982-2.794a5.736,5.736,0,0,1-3.237-1,5.855,5.855,0,0,1-1.628-8.053,5.693,5.693,0,0,1,7.914-1.636l.2.135a5.774,5.774,0,0,1,1.536,8.02A5.771,5.771,0,0,1-91.858,1609.11Zm-33.677-5.417a5.774,5.774,0,0,1-5.566-4.255,5.774,5.774,0,0,1,4.052-7.091l1.519,5.57-1.47-5.584a5.814,5.814,0,0,1,7.15,3.911,5.734,5.734,0,0,1-3.8,7.139l-.364.106A5.793,5.793,0,0,1-125.535,1603.694Zm17.546-1a5.843,5.843,0,0,1-1.01-.09,5.858,5.858,0,0,1-4.791-6.629,5.686,5.686,0,0,1,6.457-4.8c.05.008.291.044.341.054a5.775,5.775,0,0,1,4.683,6.69A5.777,5.777,0,0,1-107.989,1602.689Z"
          transform="translate(160.819 -1591.108)"/>
    <ellipse class="a" cx="5.852" cy="5.852" rx="5.852" ry="5.852" transform="translate(19.721 61.333)"/>
</svg>