<svg xmlns="http://www.w3.org/2000/svg" width="116.359" height="146.866" viewBox="0 0 116.359 146.866">
    <g transform="translate(52.804 66.794)">
        <ellipse class="a" cx="5.83" cy="5.83" rx="5.83" ry="5.83" transform="translate(26.901)"/>
        <ellipse class="a" cx="5.83" cy="5.83" rx="5.83" ry="5.83" transform="translate(0 12.795)"/>
        <ellipse class="a" cx="5.83" cy="5.83" rx="5.83" ry="5.83" transform="translate(13.163 6.534)"/>
    </g>
    <g transform="translate(52.695 50.054)">
        <ellipse class="a" cx="5.83" cy="5.83" rx="5.83" ry="5.83"/>
        <ellipse class="a" cx="5.83" cy="5.83" rx="5.83" ry="5.83" transform="translate(0 15.213)"/>
    </g>
    <g transform="translate(68.499 0)">
        <path class="b" d="M228.923,1583.032a5.83,5.83,0,1,1-5.826,5.83,5.83,5.83,0,0,1,5.826-5.83Z"
              transform="translate(-223.097 -1583.032)"/>
    </g>
    <g transform="translate(46.157 14.894)">
        <path class="b" d="M224.89,1590.77a5.831,5.831,0,1,1-5.828,5.83,5.833,5.833,0,0,1,5.828-5.83Z"
              transform="translate(-204.486 -1590.77)"/>
        <path class="b" d="M217.317,1590.77a5.831,5.831,0,1,1-5.828,5.83,5.83,5.83,0,0,1,5.828-5.83Z"
              transform="translate(-211.489 -1590.77)"/>
    </g>
    <g transform="translate(38.71 0)">
        <path class="b" d="M221.021,1583.032a5.83,5.83,0,1,1-5.828,5.83,5.83,5.83,0,0,1,5.828-5.83Z"
              transform="translate(-200.617 -1583.032)"/>
        <path class="b" d="M213.446,1583.032a5.83,5.83,0,1,1-5.826,5.83,5.83,5.83,0,0,1,5.826-5.83Z"
              transform="translate(-207.62 -1583.032)"/>
    </g>
    <path class="a"
          d="M244.942,1714.846h-.021a5.619,5.619,0,0,1-5.624-5.491,5.551,5.551,0,0,1,5.382-5.676,5.7,5.7,0,0,1,5.874,5.582,5.587,5.587,0,0,1-5.586,5.585Zm-19.012-3.028a5.627,5.627,0,0,1-3.566-6.991,5.54,5.54,0,0,1,6.854-3.684c.079.023.277.089.358.115a5.586,5.586,0,1,1-3.632,10.565Zm37.994-.254a5.586,5.586,0,0,1-3.871-10.48l.262-.092a5.586,5.586,0,0,1,3.632,10.565Zm-55.028-8.931a5.626,5.626,0,0,1-.953-7.808,5.547,5.547,0,0,1,7.73-1.07c.052.038.2.158.256.2a5.585,5.585,0,1,1-7.019,8.69Zm71.875-.209a5.627,5.627,0,0,1-7.8-.991,5.556,5.556,0,0,1,.858-7.76l.26-.2a5.584,5.584,0,1,1,6.7,8.936Zm7.5-10.118a5.586,5.586,0,0,1-4.483-8.91,5.64,5.64,0,0,1,7.809-1.243,5.531,5.531,0,0,1,1.3,7.713l-.131.181A5.578,5.578,0,0,1,288.275,1692.306Zm-92.294-3.982a5.515,5.515,0,0,1,1.47-7.7,5.654,5.654,0,0,1,7.814,1.491c.05.075.166.256.216.331a5.587,5.587,0,0,1-9.495,5.892ZM296.008,1676.7a5.612,5.612,0,1,1,1.657-10.984,5.533,5.533,0,0,1,3.722,6.9l-.052.166A5.584,5.584,0,0,1,296.008,1676.7ZM194.108,1675a5.727,5.727,0,0,1-5.5-4.375c-.029-.116-.081-.352-.1-.468a5.586,5.586,0,1,1,11-1.94,5.486,5.486,0,0,1-4.136,6.633A5.425,5.425,0,0,1,194.108,1675Zm104.173-15.579a5.586,5.586,0,0,1-5.586-5.586,5.5,5.5,0,0,1,5.253-5.8,5.653,5.653,0,0,1,5.9,5.349c.008.11.013.343.013.452A5.586,5.586,0,0,1,298.281,1659.424Zm-105.189-1.981a5.676,5.676,0,0,1-.645-.038,5.53,5.53,0,0,1-4.9-6.138l.013-.123a5.585,5.585,0,0,1,11.094,1.3A5.653,5.653,0,0,1,193.092,1657.443Zm101.66-15.073a5.589,5.589,0,0,1-5.093-3.287c-.048-.112-.142-.339-.183-.454a5.582,5.582,0,1,1,5.276,3.741Zm-96.9-1.63a5.586,5.586,0,0,1-5.085-7.876c.05-.112.158-.331.216-.439a5.587,5.587,0,1,1,4.87,8.315Zm92.034-22.531a5.542,5.542,0,0,1-4.061,9.325,5.76,5.76,0,0,1-4.157-1.763c-.081-.085-.242-.264-.318-.354a5.585,5.585,0,1,1,8.528-7.214Zm-82.1,8.142a5.564,5.564,0,0,1-4.048-9.387l.167-.172a5.585,5.585,0,0,1,7.9,7.9A5.674,5.674,0,0,1,207.783,1626.351ZM274.867,1606a5.595,5.595,0,0,1-2.7,10.488,5.5,5.5,0,0,1-2.6-.654c-.044-.023-.194-.106-.237-.129a5.585,5.585,0,1,1,5.509-9.718Zm-53.08,9.91a5.594,5.594,0,0,1-4.95-2.935,5.532,5.532,0,0,1,2.246-7.528l.108-.058a5.585,5.585,0,1,1,2.6,10.521Zm34.01-5.268a5.644,5.644,0,0,1-5.562-6.6,5.539,5.539,0,0,1,6.4-4.511l.183.032a5.586,5.586,0,0,1-1.024,11.077ZM237.46,1599.37a5.631,5.631,0,0,1,6.386,4.612,5.555,5.555,0,0,1-4.5,6.4c-.052.01-.229.037-.281.044a5.585,5.585,0,0,1-1.624-11.052Z"
          transform="translate(-187.508 -1567.98)"/>
</svg>