<svg xmlns="http://www.w3.org/2000/svg" width="519.583" height="510.364" viewBox="0 0 519.583 510.364"><defs><style>.a{fill:#f8f3ed;}.b{fill:#092040;}.c{fill:none;stroke:#2d60a7;stroke-miterlimit:10;}.d{fill:#e45513;}.e{fill:#fff;}.f{fill:#4360a2;}</style></defs><g transform="translate(-298 -587.607)"><rect class="a" width="407" height="407" transform="translate(298 620.117)"/><g transform="translate(262.098 527.357)"><g transform="translate(70.719 82.162)"><path class="b" d="M520.432,205.956a23.4,23.4,0,0,0,1.625-8.53l3.926-3.791,1.76-2.979,2.979-1.76,2.437-7.446,2.031-1.083c.271-.135,1.625-.948,1.489-2.166-.135-1.083-1.354-1.625-3.791-2.031a52.3,52.3,0,0,1-7.582-1.625l-.271-.135-2.572,1.083-1.083.135V173.6l-5.145.542-2.3.677c-.948-.948-4.333-4.2-8.123-4.874-2.3-.406-2.979,0-3.656.542a3.557,3.557,0,0,1-2.572.677h-7.311l-1.354-2.843-.271-.135c-2.031-.812-4.468-1.76-5.28-1.489-.948.271-1.76,1.76-2.031,2.3l-.271,1.354h-3.114l.271-2.708-1.76-2.031-.542-1.625-1.9-.542-.677-4.874-.271-.135c-1.9-1.083-5.145-2.843-5.822-2.843-.542,0-3.114-.135-4.2-.271l-2.3-.542-5.822-.542-2.437,1.489-2.166-.271L448,154.779l-1.9-2.979H445.7c-6.5,0-6.5.812-6.5,1.354a3.2,3.2,0,0,1-1.219.677l-3.385,1.354-3.52-5.145-1.489-.542-1.76-2.979-5.686-1.219-2.708-2.843-5.957-1.354c-.271-6.77-.948-7.311-1.219-7.446a6.1,6.1,0,0,1-1.354-1.219v-3.52l.677-2.031c.406-.677,2.031-3.114,1.354-4.468a1.565,1.565,0,0,0-1.354-.948,30.717,30.717,0,0,0-5.28,0h-.271l-.135.271c-.542,1.083-2.572,4.468-2.572,5.551,0,.677-.542,2.979-.812,4.6l-6.228,1.76-4.2-1.9h-5.551a2.353,2.353,0,0,1,1.76-1.625c1.76-.677,2.979-2.3,2.708-3.656,0-.542-.406-1.76-2.437-2.031a2.736,2.736,0,0,1-2.572-2.166l1.354-1.625h1.76l-.542-.948c-1.218-2.3-4.332-7.717-6.093-7.717h-8.53l-2.843,4.6-1.083,2.166-1.76-4.739c.677-1.083,2.572-5.009,1.489-6.9a2.323,2.323,0,0,0-2.031-1.219h-3.656c-3.114.135-8.394.271-8.53-1.354,0-.135-1.083-11.779-5.822-12.456a46.478,46.478,0,0,0-9.071,0h-.542v.542a9.725,9.725,0,0,1-.406,2.843c-.135,0-.135-.135-.271-.406a40.2,40.2,0,0,0-2.708-3.249l-.271-.271-.406.135a4.25,4.25,0,0,1-2.572-.135,2.261,2.261,0,0,1-.948-1.76c-.406-3.656-.542-6.093-.542-6.093l-.677-2.166c.406-.677,1.219-2.3.812-3.52a2.136,2.136,0,0,0-1.625-1.354,4.583,4.583,0,0,0-3.926.542,8.62,8.62,0,0,1-2.708,1.083,70.6,70.6,0,0,1-13.674,1.9c-2.708,0-10.29.677-12.05,2.166a57.219,57.219,0,0,0-5.145,5.28l-.135.135.542,31.681,1.354,1.083-1.625-.406-8.665,8.123c-.135,0-9.884,6.634-13.81,7.853-.542.135-1.76.406-3.249.677-8.936,1.489-30.057,4.874-27.89,20.444,0,.271.542,2.3,5.009,3.656l-2.3.812-.271.135a22.361,22.361,0,0,1-6.634,3.926c-1.76.542-4.6-.135-7.717-.812a27.6,27.6,0,0,0-7.717-1.218c-3.385.135-7.988-.812-11.1-1.489a17.38,17.38,0,0,0-3.385-.542h-3.926l-4.468,1.9c-.271-2.166-1.354-7.988-4.468-10.29-.677-.406-1.354-1.083-1.354-1.76s.948-1.354,1.218-1.489l.271-.135,1.489-3.926-.677-.135c-2.572-.542-11.1-2.166-12.321.406-.135.406-.406.406-.406.406-.542.135-1.489-.406-2.3-.812a8.215,8.215,0,0,0-1.9-.948c-1.76-.542-6.77-2.3-6.9-2.3h-.271c-.135,0-1.354,0-1.625.948-.406.948.542,2.031,1.218,2.843,2.572,2.572,2.572,3.791,1.76,5.551-1.083,2.3-1.9,4.332-.812,7.582.948,2.708,4.2,5.009,5.416,5.686-.135,1.354-.406,5.416.812,7.717a12.357,12.357,0,0,0,1.083,1.76c1.218,2.031,2.572,4.062,2.843,6.9.406,3.385-1.76,7.311-1.76,7.446l-.135.271v.271c.135.677,1.625,6.228,3.52,7.446,1.083.677,2.166,2.572,1.9,3.656-.135.542-.677.677-1.489.677h-12.05c-.948-.948-1.9-2.166-1.76-2.572,0-.135.135-.135.271-.135.677-.271.948-.542.948-1.083,0-.406-.135-1.083-5.009-1.76h-.271l-.271.271c-1.489,1.489-3.114,2.708-3.52,2.708h-3.114l-.812.677a2.007,2.007,0,0,0-.135-.948c-.542-1.083-1.9-1.354-4.332-1.083a16.56,16.56,0,0,1-5.551,0c-1.083-.135-1.354,0-1.9,1.218-.542,1.489-1.9,2.166-3.249,2.708l-.406.271A6.284,6.284,0,0,0,138.5,204.2a33.367,33.367,0,0,1-3.656-3.249,16.659,16.659,0,0,1-2.708-4.874L132,195.8a18.925,18.925,0,0,1-3.114-5.009c-.135-.271-.135-.542-.271-.812-.677-2.166-1.625-5.551-6.634-5.145a61.717,61.717,0,0,0-9.477,1.489c-1.489-.135-5.822-.677-6.9.542-1.219,1.219-.406,4.332-.271,5.28l-.271,1.489a7.57,7.57,0,0,0-6.363-2.166c-3.656.271-4.468,1.083-4.6,2.572v.135a10.086,10.086,0,0,1-3.656-2.166l-.135-.135h-.271c-1.9-.135-7.988-.271-9.207.948-.677.677-2.572.948-3.791.948-.677-.271-3.385-1.083-4.6,1.083-.677,1.083-.271,2.166.135,3.249.542,1.354.948,2.572-.135,4.062a5.838,5.838,0,0,0-.812,5.551,4.806,4.806,0,0,0,2.979,3.249c.542.135.948.406.948.677a1.472,1.472,0,0,1-.135.677H71.613l-.135.135c-.677.542-2.166,1.9-1.76,3.114.406.948,1.76.948,2.166.948,2.437,0,5.145,1.083,5.822,2.437a1.245,1.245,0,0,1-.135,1.354c-.812,1.218-3.114,1.489-4.874,1.76-1.489.135-2.437.271-2.843.948a2.008,2.008,0,0,0-.135.948c.135.271.271.812.542,1.354.677,2.031,2.437,6.634,2.166,7.988s-.677,3.114-.948,3.926a1.023,1.023,0,0,0-.135.542l.677.135h0l.271.542c1.625-.677,3.656-.948,4.468-.135.406.271,2.572,2.031,4.062,1.354a2.065,2.065,0,0,0,1.219-1.76,2.181,2.181,0,0,1,1.354-1.9,3.843,3.843,0,0,1,3.385,1.354A4.063,4.063,0,0,1,88,239.939c.135,1.218.406,2.031,2.437,2.031a9.591,9.591,0,0,0,1.9-.135c3.114-.271,7.446-.542,11.779,2.166,3.656,2.3,12.05,7.446,11.779,10.29-.135,2.437.948,4.6,2.166,5.145a1.254,1.254,0,0,0,1.625-.406l1.219-1.489-.135-.271a11.2,11.2,0,0,1-.406-3.791c1.219.271,5.822,3.114,8.665,4.874l.135.135h.271c4.468-.406,9.613-.542,10.425-.135a6.792,6.792,0,0,1-.406,1.9,12.382,12.382,0,0,0-.812,4.739,19.9,19.9,0,0,1,0,2.843c-.135,1.354-.135,2.3.542,2.979a1.215,1.215,0,0,0,1.219.271c.271,0,.677-.135,1.083-.135,3.114-.542,3.926-.406,4.062-.271.542,1.489,4.062,3.52,5.686,2.843.271-.135.948.271,1.354.812.406.677,0,.948-.135.948a4.946,4.946,0,0,1-1.9.948,4.114,4.114,0,0,0-2.437,1.625,2.769,2.769,0,0,0,0,1.489,1.187,1.187,0,0,0,.812.948c.677.271,1.354-.135,2.031-.406.948-.406,1.489-.677,1.9-.271a9.987,9.987,0,0,0,1.76,1.083c1.083.542,2.3,1.219,2.437,2.031.135.542-.271,1.219-.948,2.166-.542.542-.948,1.219-1.489,1.76-2.031,2.166-3.926,4.333-3.656,6.634.135,1.489,1.083,2.843,2.979,4.2,3.656,2.572,5.009,5.822,6.228,8.8a23.149,23.149,0,0,0,2.3,4.468c2.979,3.926,11.508,7.717,11.914,7.853a36.29,36.29,0,0,1,4.332,2.708c4.2,2.708,6.228,4.062,7.04,4.062.542,0,2.166.948,2.3,1.625,0,.271-.406.542-1.489.812-3.385.812-5.009-.271-6.77-1.625-.271-.271-.677-.406-.948-.677-1.76-1.219-4.332-1.9-5.551-1.083a1.666,1.666,0,0,0-.677,1.76c.271,2.572,5.686,4.332,6.5,4.332s4.739.542,5.957,1.354c.271.271.948.542,1.76,1.083,1.354.812,5.009,2.843,5.551,3.791-2.166.948-3.791,1.625-3.791,1.625l-.677.271.406.677c.135.135,2.572,4.062-.406,6.9a5.307,5.307,0,0,1-1.76,1.76v-5.009c.542-1.489.812-3.926-.948-4.6a7.631,7.631,0,0,0-1.625-.542c-1.218-.406-2.572-.948-2.843-1.489-.406-.948-1.083-1.76-2.031-1.625-.948.271-1.354,1.489-1.219,4.332.135,3.385,1.354,4.062,2.843,4.6.677.271,1.083.406,1.354,1.083a24.759,24.759,0,0,1,.812,3.385,22.619,22.619,0,0,0,1.354,5.416,9.467,9.467,0,0,0,4.332,4.333c.406.271.948.542,1.083.677.135.406.677.677,2.031,1.76,3.114,2.166,9.613,6.9,9.883,11.779a72.481,72.481,0,0,0,.948,7.582,25.5,25.5,0,0,0-2.166-5.28,22.5,22.5,0,0,0-5.686-6.093c-1.218-1.083-2.3-2.031-2.437-2.572a7.348,7.348,0,0,1,0-2.437c.135-1.218.271-2.166-.406-2.572a1.026,1.026,0,0,0-.948-.135l-.271.135c-1.354.542-3.791,1.489-3.791,4.2,0,1.354-.406,6.093-.812,9.883-.271,3.114-.406,5.145-.406,5.686,0,.406-.677,3.114-1.354,5.957-1.625,7.04-4.2,17.6-4.2,21.392,0,1.354.135,2.3.948,2.437.948.271,1.625-.948,2.708-3.114.406-.677.948-1.76,1.083-1.9.677-.135,4.062,1.354,4.468,2.437,0,.135,0,.135-.271.271a5.637,5.637,0,0,1-3.656,1.083c-1.489-.271-1.76,0-1.9.135a1.026,1.026,0,0,0-.271.542c-.135.271-.812,1.625-1.354,2.843l-.135.271c0,.406-4.874,44.679-15.3,53.615l-.135.135c-1.218,1.76-5.009,6.363-7.582,6.9-2.166.542-2.843,1.76-2.843,2.708a2.5,2.5,0,0,0,2.437,2.3,20.218,20.218,0,0,0,2.572.135,3.216,3.216,0,0,0,.135,2.031.745.745,0,0,0,.677.406,1.472,1.472,0,0,1,.677.135,12.224,12.224,0,0,0,6.228-.135q1.219-.406,1.625,0a2.115,2.115,0,0,1,.135,1.9c-.406,1.625-2.843,5.416-2.843,5.416s-1.354,1.76.948,4.332c1.489,1.625,2.843,2.437,3.926,2.031a1.459,1.459,0,0,0,.948-1.489,7.246,7.246,0,0,1,.542-2.979h0a20.7,20.7,0,0,1,2.031,2.843l.135.271h3.52l.542,2.572.677-.135a7.458,7.458,0,0,1,4.874,1.083c1.489,1.083,3.385,1.219,5.416,1.354a11.164,11.164,0,0,1,3.791.542c2.437.812,2.708,4.739,2.708,4.874V504.9l.948-.677a2.17,2.17,0,0,1,1.354-.271,2.9,2.9,0,0,1,1.625,1.354c2.031,3.249,4.2,2.708,6.5,2.3a7.224,7.224,0,0,0,2.843-1.489c1.9-1.354,2.979-1.9,4.062-.677a23.16,23.16,0,0,1,1.489,1.9c2.031,2.572,4.332,5.416,7.582,5.822s7.446-.812,8.936-1.354a4.611,4.611,0,0,0,3.926,2.572h2.843c2.437,0,5.551-.135,8.53,0,1.218.135,2.3.135,3.114.271,2.843.271,4.2.406,4.468-.677a7.5,7.5,0,0,0-.135-2.3c-.135-.948-.542-3.656-.135-4.062a2.293,2.293,0,0,0,.948-1.625c0-.135,0-.271.135-.271a9.068,9.068,0,0,1,1.489.812c3.52,2.572,4.332,2.843,8.8,2.843a7,7,0,0,1,5.416,2.843,4.25,4.25,0,0,0,1.354,1.083c.542.135,2.166.406,3.791.677,1.489.271,2.843.542,3.656.677.542.135,1.083.812,1.76,1.489.677.948,1.625,2.031,2.843,2.031h2.166c2.166,0,5.551-.135,6.77,0-.271.812-.542,2.166,1.76,4.333a11.012,11.012,0,0,0,5.551,2.708c1.219.271,2.031.542,2.3,1.083a3.047,3.047,0,0,1,.135,1.9,2.508,2.508,0,0,0,1.625,3.114c2.437.948,5.957,2.437,10.425-2.708,2.166-2.572,3.926-1.354,6.77.812a15.821,15.821,0,0,0,4.2,2.708l2.031.812a12.3,12.3,0,0,0,3.926,1.083,8.249,8.249,0,0,0,4.739-1.9c1.083-.812,2.031-1.489,2.979-2.3,2.708-2.166,4.739-3.656,7.04-3.656,1.354,0,2.3-.135,2.843-.677.812-.812.812-2.166.677-4.874V497.858l-.271-.135c-.812-.677-2.843-2.843-3.249-4.2h.271a11.045,11.045,0,0,0,2.437.271c2.979,0,4.062-1.489,5.145-2.708a5.8,5.8,0,0,0,.812-2.3c.271-1.354.542-2.031,1.219-2.166.406,0,.812-.135,1.354-.135,2.031-.135,4.739-.135,7.04-2.3a2.782,2.782,0,0,1,2.166-.948c.948,0,1.9,0,4.062-1.76l.812-.677c10.154-8.394,16.518-12.321,18.684-11.644a.953.953,0,0,1,.542.677c1.354,4.739,2.979,4.739,5.686,4.333.406,0,.812-.135,1.354-.135,2.979-.271,11.1,0,13.133.677-.406.271-.812.677-1.219.948-.948.677-1.76,1.083-1.9,1.9a1.82,1.82,0,0,0,.271,1.083c1.083,1.354,7.988,1.625,10.831,1.76,1.9.135,5.145.135,5.686-1.219.406-.948-.812-1.9-1.219-2.166-1.083-.812-1.489-1.625-1.354-2.031,0-.135,0-.271.271-.271.406-.135,1.489,0,2.843,1.489a6.5,6.5,0,0,0,6.363,4.062h5.957a9.723,9.723,0,0,1,2.572-.271,1.718,1.718,0,0,0,.135,2.166.419.419,0,0,1,.135.271v.135c-.271.406-.542.812-.948,1.354-.812,1.083-1.354,1.76-1.083,2.437.135.135.271.542.812.542a8.043,8.043,0,0,0,1.489-.135c2.572-.271,9.207-1.219,11.237,0,.677.542,1.354.948,1.9,1.354a11.111,11.111,0,0,0,3.656,2.031,3.08,3.08,0,0,0,.542,2.031c.677.948,2.031,1.354,3.926,1.083a10.567,10.567,0,0,0,4.2-1.489c1.354-.812,2.166-1.219,4.874-.135a2.964,2.964,0,0,1,.677.406h0c-.677,0-1.354.135-1.354.677-.135.542.542.812.812.948,2.031.812,5.28.271,5.416.271l.677-.135-.135-.677a18.05,18.05,0,0,1,0-2.708,3.986,3.986,0,0,1,2.843-1.219h0c.542,0,.677.271.677.271q.812,2.031,2.031,2.031c.677,0,1.219-.542,1.625-1.489.135-.271.271-.677.406-.948.542-1.489.948-2.843,3.656-2.843a24.029,24.029,0,0,0,8.53-2.031l.542-.271-.135-.542c-1.354-3.791-2.166-4.468-2.572-4.6a1.663,1.663,0,0,1,.135-1.354c.135-.271.271-.677.677-.812s.677-.406.677-.677a1.32,1.32,0,0,0-.542-1.219l-.406-.406s.135-.271,1.489-.677a31.591,31.591,0,0,1,3.656-.677,5.523,5.523,0,0,0,3.926-1.625,5.152,5.152,0,0,0,1.354-4.062c.135-1.625.135-1.9.812-1.9,2.843,0,4.874-.271,6.228-1.625a3.263,3.263,0,0,0,.812-2.572c0-.948.135-1.083.406-1.219l.812-.271a15.807,15.807,0,0,0,3.791-1.489,16.467,16.467,0,0,0,3.114-2.708l2.572-.677c1.219-.406,5.145-1.76,5.416-3.656a1.772,1.772,0,0,0-.677-1.489,5.7,5.7,0,0,0-1.9-1.083,19.129,19.129,0,0,1,1.354-2.843l.135-.135v-2.572l2.3-1.219a5.331,5.331,0,0,0,3.52-5.416,6.639,6.639,0,0,0-2.437-5.009,1.316,1.316,0,0,0-.135-1.219c-.542-.812-1.625-.812-3.791-.271a50.164,50.164,0,0,0-5.28,1.9c-2.031.812-5.28,2.031-5.822,1.76-.948-2.031-4.468-5.416-10.967-5.145-.271-1.219-.948-3.656-2.166-4.062-.542-.135-.677-.542-.948-.812a3.865,3.865,0,0,0-1.083-.948l-.271-.135a6.663,6.663,0,0,1,.135-1.9c.948-.406,1.083-2.3,1.083-3.249v-.406l-3.385-1.354a1.8,1.8,0,0,1-.406-.677,4,4,0,0,1,.542-.406c2.572-.948,3.385-2.3,3.52-3.114a11.859,11.859,0,0,0,0-3.791l4.062-3.926-2.979-3.52c.406-.677.948-1.76.542-2.572a1.748,1.748,0,0,0-1.625-1.083,24.505,24.505,0,0,0-4.332.135,28.5,28.5,0,0,1-3.114.135,6.593,6.593,0,0,1-.406-.948,3.953,3.953,0,0,1-.677-1.9,2.008,2.008,0,0,1,.135-.948c.135-1.083.135-2.031-1.083-4.332l-.271-.406-2.166.271c-.677-1.083-1.625-3.114-1.083-4.468.542-1.219,2.572-1.354,4.2-1.354a3.042,3.042,0,0,0,2.437.406q2.031-.406,3.656-3.249c1.219-2.166,2.3-2.031,3.52-1.76,1.083.135,2.437.406,3.249-1.489a10.059,10.059,0,0,0,.677-5.686c0-.406-.135-.948-.135-1.083s.135-.271.135-.406c.271-.812.271-1.354-.948-3.385a13.331,13.331,0,0,0-4.062-3.791,5.031,5.031,0,0,1-1.489-1.218c-.406-.542-.677-3.52-.812-6.093v-.677h-3.791a1.354,1.354,0,0,1-1.219-.135c-.677-.542-1.625-2.166-.812-7.988,1.354,0,4.6-.271,6.363-2.031a3.9,3.9,0,0,0,1.219-2.843c0-4.332-4.332-7.717-5.28-8.394l-2.031-3.926-2.979-.271a1.924,1.924,0,0,1-.271-.812c.135-.406.677-.677,1.489-.948l.271-.135.135-.271a6.351,6.351,0,0,0,.271-4.739,6.855,6.855,0,0,0-3.656-3.656,2.325,2.325,0,0,0,0-2.166.837.837,0,0,0-.948-.271c-.812.271-12.05,3.114-13.945,3.656l-1.625-1.219h-.271c-4.468.271-4.468,1.219-4.468,1.625a11.838,11.838,0,0,0,.406,1.9c.406,1.219,1.083,3.52.812,4.2-.406,1.219-.812,1.9-2.708,2.3s-6.363.812-7.446.948a.725.725,0,0,1-.406-.542c0-.135.271-.406,1.219-.812a21.4,21.4,0,0,0,5.145-2.572l.406-.271-.271-2.166,1.083-2.708c.135-.271.542-.677.406-1.219,0-.677-.542-1.354-1.625-1.9-.542-.406-1.9-1.489-2.031-2.708a1.885,1.885,0,0,1,.677-1.489c1.219-1.083,1.76-2.166,1.625-3.114a1.716,1.716,0,0,0-.542-1.219,14.444,14.444,0,0,1,3.656-4.333c1.219-.812,7.717-6.363,7.717-7.717a2.7,2.7,0,0,0-.406-1.083,5.339,5.339,0,0,1-.812-3.926,4.971,4.971,0,0,1,2.979-2.708c6.363-2.979,6.9-4.6,6.9-5.957.135-.677,3.114-3.656,5.551-5.957l.135-.135a38.351,38.351,0,0,0,3.52-6.093,6.917,6.917,0,0,1,1.489-2.166c.948-1.218,1.9-2.3,1.489-3.385a2.6,2.6,0,0,0-2.437-1.219h-.271c.406-1.354,1.219-3.114,2.031-3.385l.406-.135c.948-.271,2.572-.812,3.114-.406a1.675,1.675,0,0,1,.271.406c.271,2.031,2.843,2.572,4.2,2.572h0l4.6.271.135-.135c.542-.406,3.385-2.708,3.385-4.468v-2.843a3.132,3.132,0,0,0,1.9-2.843c0-1.083-1.354-2.979-1.625-3.385l-1.489-1.9.677-2.708,1.219-8.394,1.489-1.76-.948-5.145-.271-5.416,5.145-6.9v-11.1Z" transform="translate(-69.649 -76.434)"/><g transform="translate(67.629 49.642)"><path class="c" d="M240.823,113.1a63.28,63.28,0,0,1,11.914,2.979c6.363,2.3,3.249,7.311,1.9,10.967s-1.9,5.009-.406,9.613a26.205,26.205,0,0,1,1.354,9.207c0,2.843,5.009,3.656,3.656,5.551a28.167,28.167,0,0,1-4.2,4.2s-1.354,5.551-5.009,6.363a6.81,6.81,0,0,0-4.6,4.6s5.551,4.2,1.9,5.009c-3.656.948-5.957,7.311-5.957,7.311l-6.9,1.9h-7.311l-4.2,5.551,2.708,8.259s0,5.551-4.2,7.311,5.957,9.207,2.708,11.508,0,3.249.948,5.957-5.551,5.957-5.957,8.665-1.9,4.6-5.551,7.853-1.354,7.853-9.207,5.551-4.2-.948-7.853,0-.948,1.354-.948,6.9-.406,4.6-3.249,7.311c-2.708,2.708.948,11.914,2.708,12.862,1.9.948,3.656-1.354,5.957,2.708,2.3,4.2,1.354,4.2,10.154,2.708,8.665-1.354.406,6.363,8.665,10.967s1.9,4.6,2.3,9.207,11.508,10.967,13.81,10.967,3.656,5.009,9.207,2.3.406-2.708,5.551-3.249c5.009-.406,12.456.948,20.715-1.354s13.268-1.354,19.767-4.6-2.708-8.665.948-10.154c3.656-1.354,3.656-.948,5.009-2.708,1.354-1.9,3.249-1.354,7.311-1.354s1.9,0,1.354-3.249c-.406-3.249.406-3.656,1.354-5.009s-.406-3.249-2.3-5.551,1.354-6.363.406-7.853c-.948-1.354-4.6-3.655-4.2-6.363s1.354-4.2,0-5.551-.948-4.6.406-9.207-.948-5.551-5.957-7.853,7.853-4.2,5.957-7.853,8.665-2.708,5.551-7.853c-3.249-5.009-5.957-4.2-4.6-6.363,1.354-2.3.948-4.2,1.9-8.259.948-4.2,7.853-2.3,10.56-2.3s5.551-4.6,3.656-7.311,5.009-4.6,4.2-6.363c-.948-1.9-5.551-5.551-5.551-9.613,0-4.2,5.009-6.363,8.259-9.613s-.948-5.009-1.9-7.311,3.656-3.656,1.354-7.311,2.3-2.3,5.551-5.551,6.634-12.862,6.634-12.862l4.6-7.311.677-7.04,4.6-2.979" transform="translate(-94.195 -113.1)"/><path class="c" d="M175.33,424.68s-.812-5.416,1.9-6.77,5.009-4.6,6.9-6.363c1.9-1.9,2.708-.948,5.009-5.957s5.009-5.551,2.3-8.665c-2.708-3.249-.948-4.6-4.6-6.9s-8.665-2.3-7.853-5.957c.948-3.655,4.2-8.259,4.2-11.914s2.708-7.311,8.259-6.363,12.456-4.2,16.111-3.249,2.708-2.708,10.154-1.354c7.311,1.354.948-1.9,5.957-3.249s6.363-2.3,4.6-4.6a16.631,16.631,0,0,1-2.708-5.957l3.656-4.6,3.656,2.708.406-5.551s-.406-4.6.948-5.551,3.656-1.354,6.363-3.656,0-3.656,4.2-6.363,4.2-4.2,4.2-8.259c0-4.2-5.009-6.363,0-7.311s5.009.406,8.259.948c3.249.406,2.437,7.853,5.957,6.363,0,0-.406-2.708,5.009-3.656,5.551-.948,5.957,0,7.311,2.708s4.6,10.154,2.708,11.914c-1.9,1.9.948,4.6,2.3,5.009s2.3-1.9,5.551-1.354c3.249.406,5.009-6.9,7.311-8.665,2.3-1.9,5.957-6.363,8.665-6.363s4.6,4.6,4.6,6.363c0,1.9,1.354,6.363,5.009,7.853,3.656,1.354-1.9-8.259.948-10.56,2.708-2.3,6.363.406,9.207-2.3,2.708-2.708,1.354-5.009,4.6-3.656s-1.9,7.311,1.9,7.853c3.656.406,2.708-2.708,5.957-2.3s5.957.948,8.259,2.708c2.3,1.9.948,6.9,3.656,9.207s.948,6.9,1.354,9.207,3.249.406,5.009,3.656c1.9,3.249-3.656,6.363,1.9,5.009s7.853-2.3,9.613-2.3c1.9,0,5.551-.406,5.551-.406l6.363,4.2,2.3,2.708.406,6.363s3.52,1.625,3.656,2.708c.271,1.625-3.656,5.551-3.656,5.551l1.354,8.665-3.249,5.009-5.01,3.249c-3.249,4.6-5.551.948-7.853,5.957s-2.3,6.363-2.3,6.363" transform="translate(-99.917 -43.962)"/><path class="c" d="M153.306,168.1s-.406,3.114,2.3,3.926c2.708.948,2.708,1.76,6.363,1.76s5.957-2.708,8.665-.948c2.708,1.9,1.625,1.354,5.957,2.708,5.957,1.9,5.009,1.354,8.259,1.9,3.249.406,2.3-2.708,7.853-4.2,5.551-1.354,8.665-5.009,8.665-2.3s-1.9,8.259,1.9,9.207c3.656.948,9.613-5.009,12.456-4.2s.406,2.708,2.708,5.009,3.249.948,8.259,4.6a34.906,34.906,0,0,0,9.613,5.009l2.708.948" transform="translate(-107.679 -93.635)"/><path class="c" d="M119.6,225.9s5.551-5.416,7.446-3.52-4.6,4.6-.406,4.6,6.363-2.3,9.207-2.3,2.708-4.6,2.708-4.6l6.9-5.957h10.56l7.311-5.957c7.853-.948,2.708,4.6,8.259,4.2s4.2-1.9,5.551-5.957c1.354-4.2-.406-5.009.948-7.311s-.406-8.665-.406-8.665l1.354-5.009s1.9-4.6.406-8.259a6.389,6.389,0,0,1,.406-5.957" transform="translate(-119.6 -92.538)"/><path class="c" d="M276,239.8l2.3,3.249c2.3,3.249,8.665,0,8.665,0s2.708,4.2,5.009,3.249,1.354-5.957,4.2-5.009c2.708.948,2.708,2.3,4.6,7.311s9.207,5.009,11.914,6.9,0,6.363-1.354,7.853c-1.354,1.354-5.551,0-5.551,2.708s-2.708,5.551,2.3,5.551,8.665-1.354,10.967-.406,5.551.406,7.311-3.249c1.9-3.656-1.354-1.9,3.656-1.354,5.009.406,6.363-4.2,7.311-1.9s-4.2,6.9,1.354,5.957,5.957-9.207,7.853-13.268c1.9-4.2,2.708-4.2,6.9-4.2s2.3,6.363,5.957,7.853a25.992,25.992,0,0,0,7.853,1.354s4.2-.406,5.009.948c.948,1.354,8.665,0,8.665,0l5.551-5.957,6.363-3.249" transform="translate(-64.25 -68.26)"/><path class="c" d="M255.14,252.3c1.354.948-1.354,5.957,3.249,7.853s6.363,4.2,8.665,5.551,3.656,4.6,1.9,5.551c-1.9.948-1.9,2.3.406,3.656s5.009,2.708,2.3,5.009-8.259,6.9-8.259,6.9.406,5.957,2.708,9.613,0,14.487-1.9,14.758c0,0-.948,2.708-5.957,5.551-5.009,2.708-6.363,5.957-5.551,7.311.948,1.354,6.363,1.9,2.3,3.656s-6.9,4.2-6.9,5.551" transform="translate(-74.123 -63.837)"/><path class="c" d="M155.4,274.767s2.166-4.874,7.176-4.874,1.354,3.249,5.551,2.708,4.2-4.6,9.207-3.656,3.249-4.2,3.249-4.2c1.9-5.957-4.6-10.154-3.656-14.758s1.354-8.259-1.9-10.56-5.009-5.957-1.354-6.363,2.3,2.708,5.009,1.9c2.708-.948,2.3-.948,5.551-4.6s4.2-2.3,7.311-2.3c3.249,0,3.249.406,6.363-.948l6.363-5.009" transform="translate(-106.93 -74.525)"/><path class="c" d="M285.2,177.4s1.9,2.708,3.249,5.009-.406,5.009,2.708,5.551c3.249.406,5.957-.948,7.311.948s4.6,4.6,4.6,6.9,1.9,4.2,9.207,3.656c7.311-.406,7.853,4.2,11.508-.406s4.2-6.9,7.311-5.009c3.249,1.9,8.259.406,6.9,2.708s1.219,2.843,1.9,4.2a21.113,21.113,0,0,1,1.9,7.853s.406,4.2,6.363,7.853,9.613.948,10.967-1.354c0,0-1.354-1.354,5.551-3.249s0-5.957,2.708-7.311-2.3,3.249,4.2-3.249c6.363-6.363,1.354-9.613,6.363-6.363s1.9-5.551,5.009-3.656,4.2,4.6,7.311,4.2a53.474,53.474,0,0,1,11.914.406c1.354.406,2.3,3.249,4.6,5.009,2.3,1.9,11.508,1.9,11.508,5.009a34.979,34.979,0,0,1-1.354,7.853,71.069,71.069,0,0,0,6.363,4.2c2.708,1.354,2.166,7.853,2.166,7.853" transform="translate(-60.994 -90.344)"/><path class="c" d="M238.7,145.5a13.37,13.37,0,0,0,5.551,1.354s6.363-1.9,9.207-.948c2.708.948,1.9,3.656,4.6,2.3s4.6-2.708,6.9-.948c2.3,1.9,2.3,3.249,3.656,3.249,0,0,9.883.271,11.508,0,0,0,9.207-2.708,11.508-1.354s-.406,4.6,3.249,6.9,7.311,4.2,7.311,4.2" transform="translate(-77.45 -101.634)"/><path class="c" d="M234,155.3s2.708,4.2,1.9,6.363c-.948,2.3-1.9,7.311,1.354,8.665s3.249,8.665,5.551,9.207c2.3.406,3.656,3.249,5.551,4.2s-.948,5.009,1.9,5.957c2.708.948,2.3-.948,5.009-.948s4.6-1.9,6.363-1.354c1.9.406,3.249,3.249,6.363,4.6,3.249,1.354-2.3,4.874.406,5.551,0,0,8.665,1.354,10.56,0s2.708-3.249,4.2-2.3c1.354.948,4.6,1.354,4.6,1.354" transform="translate(-79.113 -98.165)"/><path class="c" d="M403.822,303.831l-4.468-2.031L395.7,306c0,3.249-6.9-4.6-10.154-2.708s-5.551,5.009-3.249,5.551c2.3.406,7.311.948,5.957,4.2s-5.009,4.2-7.311,4.2-2.708.948-7.311,3.656-5.957.948-5.957,3.656,1.354,5.957-4.2,7.311-4.2,4.6-4.2,6.9-2.708.406-4.2,3.249c-1.354,2.708-2.708,5.957,1.354,5.551,4.2-.406,6.363-.406,6.9,1.9.406,2.3,0,2.3-1.354,4.6s-.406,2.3-4.2,3.249c-3.656.948-7.853-3.249-7.853-3.249-9.207-.406-5.822-3.385-10.56-2.3,0,0-7.853.948-10.967.948H323.4" transform="translate(-47.475 -46.318)"/></g><g transform="translate(445.751 404.83)"><path class="b" d="M437.9,420.2c-1.354,2.708-2.3,5.551-5.416,7.04-.812.406-1.218,2.437-1.218,3.791.542,7.853-1.76,14.893-5.009,21.8a19.914,19.914,0,0,0-1.083,4.062c-.542,2.3-1.76,2.572-3.656,1.76-.542-.271-1.354-.542-1.625-1.083-1.9-3.52-5.145-4.2-8.665-4.739-3.249-.542-4.062-1.9-3.52-5.145.542-2.843.542-5.145-2.572-6.5-.677-.271-.948-2.031-.948-3.114a16.972,16.972,0,0,1,1.218-3.385c.948-2.3.677-2.708-1.9-3.249-1.625-.271-4.062-1.083-4.2-2.031-.271-1.354.812-3.52,1.9-4.6,1.489-1.625,1.489-2.843,0-4.062-2.843-2.3-2.979-4.6-.948-7.446a3.373,3.373,0,0,0-.271-4.6c-1.625-2.031-1.219-3.926,1.083-5.416a4.508,4.508,0,0,0,1.9-2.3,8.285,8.285,0,0,1,8.123-5.686c3.385,0,5.551-1.489,6.634-4.874.677-2.166,2.166-2.572,4.062-1.219.406.271.812.677,1.219.677,1.219.271,2.437.406,3.791.677a16.808,16.808,0,0,0,.406-3.656c-.135-2.166-.677-4.2-.677-6.363,0-2.031,0-4.333,2.572-5.009,2.031-.542,5.551,1.9,5.822,4.2a50.811,50.811,0,0,1-.271,9.071c-.271,2.572-.406,4.6,1.083,7.04,1.083,2.031,1.083,5.145.542,7.446a16.8,16.8,0,0,0,1.489,11.779C437.9,416.949,437.9,418.574,437.9,420.2Z" transform="translate(-398.883 -375.444)"/></g></g><g transform="translate(66.626 60.25)"><g transform="translate(137.421 394.934)"><path class="d" d="M188.4,371.243c4.2-4.874,3.926-11.237-.677-15.841a11.125,11.125,0,0,0-16.111,0,11.949,11.949,0,0,0-1.219,15.434l9.207,9.207Z" transform="translate(-168.126 -351.95)"/><circle class="e" cx="5.009" cy="5.009" r="5.009" transform="translate(6.599 6.566)"/></g><g transform="translate(108.041 410.233)"><path class="d" d="M166.7,382.543c4.2-4.874,3.926-11.237-.677-15.841a11.125,11.125,0,0,0-16.111,0,11.949,11.949,0,0,0-1.219,15.435l9.207,9.206Z" transform="translate(-146.426 -363.25)"/><circle class="e" cx="5.009" cy="5.009" r="5.009" transform="translate(6.599 6.566)"/></g><g transform="translate(178.309 420.522)"><path class="d" d="M218.6,390.143c4.2-4.874,3.926-11.237-.677-15.841a11.125,11.125,0,0,0-16.111,0,11.949,11.949,0,0,0-1.219,15.434l9.207,9.207Z" transform="translate(-198.326 -370.85)"/><circle class="e" cx="5.009" cy="5.009" r="5.009" transform="translate(6.599 6.566)"/></g><g transform="translate(233.142 415.107)"><path class="d" d="M259.1,386.143c4.2-4.874,3.926-11.237-.677-15.841a11.125,11.125,0,0,0-16.111,0,11.949,11.949,0,0,0-1.218,15.435l9.207,9.207Z" transform="translate(-238.826 -366.85)"/><circle class="e" cx="5.009" cy="5.009" r="5.009" transform="translate(6.734 6.566)"/></g><g transform="translate(251.149 436.363)"><g transform="translate(0)"><path class="d" d="M272.4,401.843c4.2-4.874,3.926-11.237-.677-15.841a11.125,11.125,0,0,0-16.111,0,11.949,11.949,0,0,0-1.219,15.435l9.207,9.207Z" transform="translate(-252.126 -382.55)"/></g><circle class="e" cx="5.009" cy="5.009" r="5.009" transform="translate(6.734 6.566)"/></g><g transform="translate(270.104 427.698)"><g transform="translate(0)"><path class="d" d="M286.4,395.443c4.2-4.874,3.926-11.237-.677-15.841a11.125,11.125,0,0,0-16.111,0,11.949,11.949,0,0,0-1.218,15.434l9.207,9.207Z" transform="translate(-266.126 -376.15)"/></g><circle class="e" cx="5.009" cy="5.009" r="5.009" transform="translate(6.599 6.566)"/></g><g transform="translate(194.421 382.342)"><path class="d" d="M230.5,361.943c4.2-4.874,3.926-11.237-.677-15.841a11.125,11.125,0,0,0-16.111,0,11.949,11.949,0,0,0-1.219,15.434l9.207,9.207Z" transform="translate(-210.226 -342.65)"/><circle class="e" cx="5.009" cy="5.009" r="5.009" transform="translate(6.734 6.566)"/></g><g transform="translate(209.72 368.262)"><path class="d" d="M241.8,351.543c4.2-4.874,3.926-11.237-.677-15.841a11.125,11.125,0,0,0-16.111,0,11.949,11.949,0,0,0-1.219,15.435L233,360.343Z" transform="translate(-221.526 -332.25)"/><circle class="e" cx="5.009" cy="5.009" r="5.009" transform="translate(6.734 6.566)"/></g><g transform="translate(189.953 352.692)"><path class="d" d="M227.2,340.043c4.2-4.874,3.926-11.237-.677-15.841a11.125,11.125,0,0,0-16.111,0,11.949,11.949,0,0,0-1.218,15.434l9.207,9.207Z" transform="translate(-206.926 -320.75)"/><circle class="e" cx="5.009" cy="5.009" r="5.009" transform="translate(6.599 6.431)"/></g><g transform="translate(209.178 345.381)"><path class="d" d="M241.4,334.643c4.2-4.874,3.926-11.237-.677-15.841a11.125,11.125,0,0,0-16.111,0,11.949,11.949,0,0,0-1.219,15.435l9.207,9.207Z" transform="translate(-221.126 -315.35)"/><circle class="e" cx="5.009" cy="5.009" r="5.009" transform="translate(6.734 6.566)"/></g><g transform="translate(223.259 326.155)"><path class="d" d="M251.8,320.443c4.2-4.874,3.926-11.237-.677-15.841a11.125,11.125,0,0,0-16.111,0,11.949,11.949,0,0,0-1.218,15.434L243,329.243Z" transform="translate(-231.526 -301.15)"/><circle class="e" cx="5.009" cy="5.009" r="5.009" transform="translate(6.734 6.566)"/></g><g transform="translate(244.921 337.934)"><g transform="translate(0)"><path class="d" d="M267.8,329.143c4.2-4.874,3.926-11.237-.677-15.841a11.125,11.125,0,0,0-16.111,0,11.949,11.949,0,0,0-1.218,15.434L259,337.943Z" transform="translate(-247.526 -309.85)"/></g><circle class="e" cx="5.009" cy="5.009" r="5.009" transform="translate(6.599 6.566)"/></g><g transform="translate(239.505 369.751)"><g transform="translate(0)"><path class="d" d="M263.8,352.643c4.2-4.874,3.926-11.237-.677-15.841a11.125,11.125,0,0,0-16.111,0,11.949,11.949,0,0,0-1.219,15.434L255,361.443Z" transform="translate(-243.526 -333.35)"/></g><circle class="e" cx="5.009" cy="5.009" r="5.009" transform="translate(6.599 6.566)"/></g><g transform="translate(268.344 356.618)"><g transform="translate(0)"><path class="d" d="M285.1,342.943c4.2-4.874,3.926-11.237-.677-15.841a11.125,11.125,0,0,0-16.111,0,11.949,11.949,0,0,0-1.219,15.434l9.207,9.207Z" transform="translate(-264.826 -323.65)"/></g><circle class="e" cx="5.009" cy="5.009" r="5.009" transform="translate(6.599 6.566)"/></g><g transform="translate(305.576 367.991)"><path class="d" d="M312.6,351.343c4.2-4.874,3.926-11.237-.677-15.841a11.125,11.125,0,0,0-16.111,0,11.949,11.949,0,0,0-1.219,15.435l9.207,9.207Z" transform="translate(-292.326 -332.05)"/><circle class="e" cx="5.009" cy="5.009" r="5.009" transform="translate(6.599 6.566)"/></g><g transform="translate(328.592 345.11)"><path class="d" d="M329.6,334.443c4.2-4.874,3.926-11.237-.677-15.841a11.125,11.125,0,0,0-16.111,0,11.949,11.949,0,0,0-1.218,15.434l9.207,9.207Z" transform="translate(-309.326 -315.15)"/><circle class="e" cx="5.009" cy="5.009" r="5.009" transform="translate(6.734 6.566)"/></g><g transform="translate(304.357 330.623)"><path class="d" d="M311.7,323.743c4.2-4.874,3.926-11.237-.677-15.841a11.125,11.125,0,0,0-16.111,0,11.949,11.949,0,0,0-1.219,15.435l9.207,9.207Z" transform="translate(-291.426 -304.45)"/><circle class="e" cx="5.009" cy="5.009" r="5.009" transform="translate(6.599 6.566)"/></g><g transform="translate(360.138 400.078)"><path class="d" d="M352.9,375.043c4.2-4.874,3.926-11.237-.677-15.841a11.125,11.125,0,0,0-16.111,0,11.949,11.949,0,0,0-1.218,15.434l9.206,9.207Z" transform="translate(-332.626 -355.75)"/><circle class="e" cx="5.009" cy="5.009" r="5.009" transform="translate(6.599 6.431)"/></g><g transform="translate(395.204 395.881)"><path class="d" d="M378.8,371.943c4.2-4.874,3.926-11.237-.677-15.841a11.125,11.125,0,0,0-16.111,0,11.95,11.95,0,0,0-1.219,15.434L370,380.744Z" transform="translate(-358.526 -352.65)"/><circle class="e" cx="5.009" cy="5.009" r="5.009" transform="translate(6.734 6.566)"/></g><g transform="translate(403.328 357.701)"><path class="d" d="M384.8,343.743c4.2-4.874,3.926-11.237-.677-15.841a11.125,11.125,0,0,0-16.111,0,11.949,11.949,0,0,0-1.219,15.434L376,352.543Z" transform="translate(-364.526 -324.45)"/><circle class="e" cx="5.009" cy="5.009" r="5.009" transform="translate(6.734 6.566)"/></g><g transform="translate(355.67 314.783)"><path class="d" d="M349.6,312.043c4.2-4.874,3.926-11.237-.677-15.841a11.125,11.125,0,0,0-16.111,0,11.949,11.949,0,0,0-1.218,15.434l9.207,9.207Z" transform="translate(-329.326 -292.75)"/><circle class="e" cx="5.009" cy="5.009" r="5.009" transform="translate(6.599 6.566)"/></g><g transform="translate(334.414 312.075)"><g transform="translate(0)"><path class="d" d="M333.9,310.043c4.2-4.874,3.926-11.237-.677-15.841a11.125,11.125,0,0,0-16.111,0,11.949,11.949,0,0,0-1.218,15.435l9.206,9.207Z" transform="translate(-313.626 -290.75)"/></g><circle class="e" cx="5.009" cy="5.009" r="5.009" transform="translate(6.599 6.566)"/></g><g transform="translate(167.478 348.089)"><path class="d" d="M210.6,336.643c4.2-4.874,3.926-11.237-.677-15.841a11.125,11.125,0,0,0-16.111,0,11.949,11.949,0,0,0-1.219,15.434l9.207,9.207Z" transform="translate(-190.326 -317.35)"/><circle class="e" cx="5.009" cy="5.009" r="5.009" transform="translate(6.599 6.566)"/></g><g transform="translate(137.421 357.16)"><path class="d" d="M188.4,343.343c4.2-4.874,3.926-11.237-.677-15.841a11.125,11.125,0,0,0-16.111,0,11.949,11.949,0,0,0-1.219,15.435l9.207,9.207Z" transform="translate(-168.126 -324.05)"/><circle class="e" cx="5.009" cy="5.009" r="5.009" transform="translate(6.599 6.566)"/></g><g transform="translate(143.108 300.431)"><path class="d" d="M192.6,301.443c4.2-4.874,3.926-11.237-.677-15.841a11.125,11.125,0,0,0-16.111,0,11.949,11.949,0,0,0-1.218,15.434l9.207,9.207Z" transform="translate(-172.326 -282.15)"/><circle class="e" cx="5.009" cy="5.009" r="5.009" transform="translate(6.734 6.566)"/></g><g transform="translate(143.649 260.762)"><path class="d" d="M193,272.143c4.2-4.874,3.926-11.237-.677-15.841a11.125,11.125,0,0,0-16.111,0,11.949,11.949,0,0,0-1.219,15.435l9.207,9.207Z" transform="translate(-172.726 -252.85)"/><circle class="e" cx="5.009" cy="5.009" r="5.009" transform="translate(6.734 6.566)"/></g><g transform="translate(126.048 238.287)"><path class="d" d="M180,255.543c4.2-4.874,3.926-11.237-.677-15.841a11.125,11.125,0,0,0-16.111,0,11.949,11.949,0,0,0-1.219,15.434l9.207,9.207Z" transform="translate(-159.726 -236.25)"/><circle class="e" cx="5.009" cy="5.009" r="5.009" transform="translate(6.599 6.566)"/></g><g transform="translate(141.348 208.501)"><path class="d" d="M191.3,233.543c4.2-4.874,3.926-11.237-.677-15.841a11.125,11.125,0,0,0-16.111,0,11.949,11.949,0,0,0-1.219,15.435l9.207,9.207Z" transform="translate(-171.026 -214.25)"/><circle class="e" cx="5.009" cy="5.009" r="5.009" transform="translate(6.599 6.566)"/></g><g transform="translate(155.157 204.981)"><path class="d" d="M201.5,230.943c4.2-4.874,3.926-11.237-.677-15.841a11.125,11.125,0,0,0-16.111,0,11.949,11.949,0,0,0-1.219,15.434l9.207,9.207Z" transform="translate(-181.226 -211.65)"/><circle class="e" cx="5.009" cy="5.009" r="5.009" transform="translate(6.734 6.566)"/></g><g transform="translate(172.893 229.893)"><path class="d" d="M214.6,249.343c4.2-4.874,3.926-11.237-.677-15.841a11.125,11.125,0,0,0-16.111,0,11.949,11.949,0,0,0-1.219,15.434l9.207,9.207Z" transform="translate(-194.326 -230.05)"/><circle class="e" cx="5.009" cy="5.009" r="5.009" transform="translate(6.599 6.431)"/></g><g transform="translate(184.402 292.985)"><path class="d" d="M223.1,295.943c4.2-4.874,3.926-11.237-.677-15.841a11.125,11.125,0,0,0-16.111,0,11.949,11.949,0,0,0-1.219,15.435l9.207,9.207Z" transform="translate(-202.826 -276.65)"/><circle class="e" cx="5.009" cy="5.009" r="5.009" transform="translate(6.599 6.566)"/></g><g transform="translate(240.318 297.994)"><g transform="translate(0)"><path class="d" d="M264.4,299.643c4.2-4.874,3.926-11.237-.677-15.841a11.125,11.125,0,0,0-16.111,0,11.949,11.949,0,0,0-1.219,15.435l9.207,9.207Z" transform="translate(-244.126 -280.35)"/></g><circle class="e" cx="5.009" cy="5.009" r="5.009" transform="translate(6.734 6.566)"/></g><g transform="translate(261.439 285.944)"><g transform="translate(0)"><path class="d" d="M280,290.743c4.2-4.874,3.926-11.237-.677-15.841a11.125,11.125,0,0,0-16.111,0,11.949,11.949,0,0,0-1.218,15.435l9.207,9.207Z" transform="translate(-259.726 -271.45)"/></g><circle class="e" cx="5.009" cy="5.009" r="5.009" transform="translate(6.599 6.566)"/></g><g transform="translate(254.263 266.177)"><g transform="translate(0)"><path class="d" d="M274.7,276.143c4.2-4.874,3.926-11.237-.677-15.841a11.125,11.125,0,0,0-16.111,0,11.949,11.949,0,0,0-1.219,15.435l9.207,9.207Z" transform="translate(-254.426 -256.85)"/></g><circle class="e" cx="5.009" cy="5.009" r="5.009" transform="translate(6.599 6.566)"/></g><g transform="translate(289.871 269.427)"><path class="d" d="M301,278.543c4.2-4.874,3.926-11.237-.677-15.841a11.125,11.125,0,0,0-16.111,0,11.949,11.949,0,0,0-1.219,15.434l9.207,9.207Z" transform="translate(-280.726 -259.25)"/><circle class="e" cx="5.009" cy="5.009" r="5.009" transform="translate(6.734 6.566)"/></g><g transform="translate(303.681 290.548)"><path class="d" d="M311.2,294.143c4.2-4.874,3.926-11.237-.677-15.841a11.125,11.125,0,0,0-16.111,0,11.949,11.949,0,0,0-1.219,15.434l9.207,9.207Z" transform="translate(-290.926 -274.85)"/><circle class="e" cx="5.009" cy="5.009" r="5.009" transform="translate(6.734 6.566)"/></g><g transform="translate(332.519 282.424)"><path class="d" d="M332.5,288.143c4.2-4.874,3.926-11.237-.677-15.841a11.125,11.125,0,0,0-16.111,0,11.949,11.949,0,0,0-1.218,15.435l9.207,9.207Z" transform="translate(-312.226 -268.85)"/><circle class="e" cx="5.009" cy="5.009" r="5.009" transform="translate(6.734 6.566)"/></g><g transform="translate(342.131 266.177)"><path class="d" d="M339.6,276.143c4.2-4.874,3.926-11.237-.677-15.841a11.125,11.125,0,0,0-16.111,0,11.95,11.95,0,0,0-1.218,15.435l9.207,9.207Z" transform="translate(-319.326 -256.85)"/><circle class="e" cx="5.009" cy="5.009" r="5.009" transform="translate(6.599 6.566)"/></g><g transform="translate(357.43 284.59)"><path class="d" d="M350.9,289.743c4.2-4.874,3.926-11.237-.677-15.841a11.125,11.125,0,0,0-16.111,0,11.949,11.949,0,0,0-1.219,15.434l9.207,9.207Z" transform="translate(-330.626 -270.45)"/><circle class="e" cx="5.009" cy="5.009" r="5.009" transform="translate(6.599 6.566)"/></g><g transform="translate(381.124 290.548)"><path class="d" d="M368.4,294.143c4.2-4.874,3.926-11.237-.677-15.841a11.125,11.125,0,0,0-16.111,0,11.949,11.949,0,0,0-1.219,15.434l9.207,9.207Z" transform="translate(-348.126 -274.85)"/><circle class="e" cx="5.009" cy="5.009" r="5.009" transform="translate(6.734 6.566)"/></g><g transform="translate(406.983 297.182)"><path class="d" d="M387.5,299.043c4.2-4.874,3.926-11.237-.677-15.841a11.125,11.125,0,0,0-16.111,0,11.949,11.949,0,0,0-1.219,15.434l9.207,9.207Z" transform="translate(-367.226 -279.75)"/><circle class="e" cx="5.009" cy="5.009" r="5.009" transform="translate(6.599 6.566)"/></g><g transform="translate(370.97 262.657)"><path class="d" d="M360.9,273.543c4.2-4.874,3.926-11.237-.677-15.841a11.125,11.125,0,0,0-16.111,0,11.949,11.949,0,0,0-1.218,15.435l9.207,9.207Z" transform="translate(-340.626 -254.25)"/><circle class="e" cx="5.009" cy="5.009" r="5.009" transform="translate(6.599 6.431)"/></g><g transform="translate(379.364 244.515)"><path class="d" d="M367.1,260.143c4.2-4.874,3.926-11.237-.677-15.841a11.125,11.125,0,0,0-16.111,0,11.949,11.949,0,0,0-1.219,15.434l9.207,9.207Z" transform="translate(-346.826 -240.85)"/><circle class="e" cx="5.009" cy="5.009" r="5.009" transform="translate(6.734 6.566)"/></g><g transform="translate(398.86 239.505)"><path class="d" d="M381.5,256.443c4.2-4.874,3.926-11.237-.677-15.841a11.125,11.125,0,0,0-16.111,0,11.949,11.949,0,0,0-1.219,15.434l9.207,9.207Z" transform="translate(-361.226 -237.15)"/><circle class="e" cx="5.009" cy="5.009" r="5.009" transform="translate(6.599 6.566)"/></g><g transform="translate(330.352 241.266)"><path class="d" d="M330.9,257.743c4.2-4.874,3.926-11.237-.677-15.841a11.125,11.125,0,0,0-16.111,0,11.949,11.949,0,0,0-1.219,15.434l9.207,9.207Z" transform="translate(-310.626 -238.45)"/><circle class="e" cx="5.009" cy="5.009" r="5.009" transform="translate(6.734 6.566)"/></g><g transform="translate(351.067 227.456)"><path class="d" d="M346.2,247.543c4.2-4.874,3.926-11.237-.677-15.841a11.125,11.125,0,0,0-16.111,0,11.949,11.949,0,0,0-1.219,15.434l9.206,9.207Z" transform="translate(-325.926 -228.25)"/><circle class="e" cx="5.009" cy="5.009" r="5.009" transform="translate(6.734 6.566)"/></g><g transform="translate(332.248 210.667)"><path class="d" d="M332.3,235.143c4.2-4.874,3.926-11.237-.677-15.841a11.125,11.125,0,0,0-16.111,0,11.95,11.95,0,0,0-1.219,15.434l9.207,9.207Z" transform="translate(-312.026 -215.85)"/><circle class="e" cx="5.009" cy="5.009" r="5.009" transform="translate(6.599 6.566)"/></g><g transform="translate(343.079 195.91)"><g transform="translate(0)"><path class="d" d="M340.3,224.243c4.2-4.874,3.926-11.237-.677-15.841a11.125,11.125,0,0,0-16.111,0,11.949,11.949,0,0,0-1.219,15.434l9.207,9.207Z" transform="translate(-320.026 -204.95)"/></g><circle class="e" cx="5.009" cy="5.009" r="5.009" transform="translate(6.599 6.566)"/></g><g transform="translate(361.898 199.836)"><path class="d" d="M354.2,227.143c4.2-4.874,3.926-11.237-.677-15.841a11.125,11.125,0,0,0-16.111,0,11.949,11.949,0,0,0-1.219,15.434l9.207,9.207Z" transform="translate(-333.926 -207.85)"/><circle class="e" cx="5.009" cy="5.009" r="5.009" transform="translate(6.734 6.566)"/></g><g transform="translate(376.385 189.682)"><path class="d" d="M364.9,219.643c4.2-4.874,3.926-11.237-.677-15.841a11.125,11.125,0,0,0-16.111,0,11.949,11.949,0,0,0-1.219,15.434l9.207,9.207Z" transform="translate(-344.626 -200.35)"/><circle class="e" cx="5.009" cy="5.009" r="5.009" transform="translate(6.599 6.566)"/></g><g transform="translate(387.487 166.259)"><path class="d" d="M373.1,202.343c4.2-4.874,3.926-11.237-.677-15.841a11.125,11.125,0,0,0-16.111,0,11.949,11.949,0,0,0-1.219,15.434l9.207,9.207Z" transform="translate(-352.826 -183.05)"/><circle class="e" cx="5.009" cy="5.009" r="5.009" transform="translate(6.599 6.566)"/></g><g transform="translate(422.282 166.53)"><path class="d" d="M398.8,202.543c4.2-4.874,3.926-11.237-.677-15.841a11.125,11.125,0,0,0-16.111,0,11.949,11.949,0,0,0-1.218,15.434L390,211.343Z" transform="translate(-378.526 -183.25)"/><circle class="e" cx="5.009" cy="5.009" r="5.009" transform="translate(6.599 6.566)"/></g><g transform="translate(424.043 126.048)"><g transform="translate(0 0)"><path class="d" d="M400.1,172.643c4.2-4.874,3.926-11.237-.677-15.841a11.125,11.125,0,0,0-16.111,0,11.949,11.949,0,0,0-1.219,15.434l9.206,9.207Z" transform="translate(-379.826 -153.35)"/></g><circle class="e" cx="5.009" cy="5.009" r="5.009" transform="translate(6.734 6.566)"/></g><g transform="translate(438.529 97.21)"><path class="d" d="M410.8,151.343c4.2-4.874,3.926-11.237-.677-15.841a11.125,11.125,0,0,0-16.111,0,11.949,11.949,0,0,0-1.218,15.434L402,160.144Z" transform="translate(-390.526 -132.05)"/><circle class="e" cx="5.009" cy="5.009" r="5.009" transform="translate(6.599 6.566)"/></g><g transform="translate(399.808 94.232)"><path class="d" d="M382.2,149.143c4.2-4.874,3.926-11.237-.677-15.841a11.125,11.125,0,0,0-16.111,0,11.949,11.949,0,0,0-1.219,15.434l9.207,9.207Z" transform="translate(-361.926 -129.85)"/><circle class="e" cx="5.009" cy="5.009" r="5.009" transform="translate(6.599 6.566)"/></g><g transform="translate(399.808 130.516)"><g transform="translate(0 0)"><path class="d" d="M382.2,175.943c4.2-4.874,3.926-11.237-.677-15.841a11.125,11.125,0,0,0-16.111,0,11.949,11.949,0,0,0-1.219,15.434l9.207,9.207Z" transform="translate(-361.926 -156.65)"/></g><circle class="e" cx="5.009" cy="5.009" r="5.009" transform="translate(6.599 6.566)"/></g><g transform="translate(346.599 114.405)"><g transform="translate(0 0)"><path class="d" d="M342.9,164.043c4.2-4.874,3.926-11.237-.677-15.841a11.125,11.125,0,0,0-16.111,0,11.949,11.949,0,0,0-1.219,15.435l9.207,9.207Z" transform="translate(-322.626 -144.75)"/></g><circle class="e" cx="5.009" cy="5.009" r="5.009" transform="translate(6.734 6.566)"/></g><g transform="translate(353.233 160.844)"><path class="d" d="M347.8,198.343c4.2-4.874,3.926-11.237-.677-15.841a11.125,11.125,0,0,0-16.111,0,11.949,11.949,0,0,0-1.218,15.435L339,207.144Z" transform="translate(-327.526 -179.05)"/><circle class="e" cx="5.009" cy="5.009" r="5.009" transform="translate(6.734 6.566)"/></g><g transform="translate(324.395 107.771)"><g transform="translate(0)"><path class="d" d="M326.5,159.143c4.2-4.874,3.926-11.237-.677-15.841a11.125,11.125,0,0,0-16.111,0,11.949,11.949,0,0,0-1.219,15.434l9.207,9.207Z" transform="translate(-306.226 -139.85)"/></g><circle class="e" cx="5.009" cy="5.009" r="5.009" transform="translate(6.734 6.431)"/></g><g transform="translate(308.284 137.421)"><path class="d" d="M314.6,181.043c4.2-4.874,3.926-11.237-.677-15.841a11.125,11.125,0,0,0-16.111,0,11.95,11.95,0,0,0-1.219,15.434l9.207,9.207Z" transform="translate(-294.326 -161.75)"/><circle class="e" cx="5.009" cy="5.009" r="5.009" transform="translate(6.599 6.566)"/></g><g transform="translate(299.754 179.257)"><g transform="translate(0)"><path class="d" d="M308.3,211.943c4.2-4.874,3.926-11.237-.677-15.841a11.125,11.125,0,0,0-16.111,0,11.949,11.949,0,0,0-1.219,15.434l9.207,9.207Z" transform="translate(-288.026 -192.65)"/></g><circle class="e" cx="5.009" cy="5.009" r="5.009" transform="translate(6.734 6.431)"/></g><g transform="translate(283.101 150.96)"><path class="d" d="M296,191.043c4.2-4.874,3.926-11.237-.677-15.841a11.125,11.125,0,0,0-16.111,0,11.949,11.949,0,0,0-1.218,15.434l9.206,9.207Z" transform="translate(-275.726 -171.75)"/><circle class="e" cx="5.009" cy="5.009" r="5.009" transform="translate(6.599 6.566)"/></g><g transform="translate(256.971 160.844)"><path class="d" d="M276.7,198.343c4.2-4.874,3.926-11.237-.677-15.841a11.125,11.125,0,0,0-16.111,0,11.949,11.949,0,0,0-1.219,15.435l9.207,9.207Z" transform="translate(-256.426 -179.05)"/><circle class="e" cx="5.009" cy="5.009" r="5.009" transform="translate(6.599 6.566)"/></g><g transform="translate(243.838 122.799)"><g transform="translate(0 0)"><path class="d" d="M267,170.243c4.2-4.874,3.926-11.237-.677-15.841a11.125,11.125,0,0,0-16.111,0,11.949,11.949,0,0,0-1.219,15.435l9.207,9.207Z" transform="translate(-246.726 -150.95)"/></g><circle class="e" cx="5.009" cy="5.009" r="5.009" transform="translate(6.734 6.566)"/></g><g transform="translate(280.935 216.083)"><path class="d" d="M294.4,239.143c4.2-4.874,3.926-11.237-.677-15.841a11.125,11.125,0,0,0-16.111,0,11.949,11.949,0,0,0-1.219,15.434l9.207,9.207Z" transform="translate(-274.126 -219.85)"/><circle class="e" cx="5.009" cy="5.009" r="5.009" transform="translate(6.599 6.566)"/></g><g transform="translate(244.921 201.732)"><g transform="translate(0)"><path class="d" d="M267.8,228.543c4.2-4.874,3.926-11.237-.677-15.841a11.125,11.125,0,0,0-16.111,0,11.949,11.949,0,0,0-1.218,15.435L259,237.344Z" transform="translate(-247.526 -209.25)"/></g><circle class="e" cx="5.009" cy="5.009" r="5.009" transform="translate(6.599 6.566)"/></g><g transform="translate(223.259 215.271)"><path class="d" d="M251.8,238.543c4.2-4.874,3.926-11.237-.677-15.841a11.125,11.125,0,0,0-16.111,0,11.949,11.949,0,0,0-1.218,15.435L243,247.344Z" transform="translate(-231.526 -219.25)"/><circle class="e" cx="5.009" cy="5.009" r="5.009" transform="translate(6.734 6.431)"/></g><g transform="translate(181.288 187.786)"><path class="d" d="M220.8,218.243c4.2-4.874,3.926-11.237-.677-15.841a11.125,11.125,0,0,0-16.111,0,11.949,11.949,0,0,0-1.219,15.435L212,227.044Z" transform="translate(-200.526 -198.95)"/><circle class="e" cx="5.009" cy="5.009" r="5.009" transform="translate(6.599 6.566)"/></g><g transform="translate(258.325 103.574)"><path class="d" d="M277.7,156.043c4.2-4.874,3.926-11.237-.677-15.841a11.125,11.125,0,0,0-16.111,0,11.949,11.949,0,0,0-1.218,15.434l9.207,9.207Z" transform="translate(-257.426 -136.75)"/><circle class="e" cx="5.009" cy="5.009" r="5.009" transform="translate(6.734 6.566)"/></g><g transform="translate(105.74 71.621)"><path class="d" d="M165,132.443c4.2-4.874,3.926-11.237-.677-15.841a11.125,11.125,0,0,0-16.111,0,11.949,11.949,0,0,0-1.219,15.435l9.207,9.207Z" transform="translate(-144.726 -113.15)"/><circle class="e" cx="5.009" cy="5.009" r="5.009" transform="translate(6.734 6.566)"/></g><g transform="translate(200.648 248.983)"><path class="d" d="M235.1,263.443c4.2-4.874,3.926-11.237-.677-15.841a11.125,11.125,0,0,0-16.111,0,11.949,11.949,0,0,0-1.219,15.435l9.207,9.206Z" transform="translate(-214.826 -244.15)"/><circle class="e" cx="5.009" cy="5.009" r="5.009" transform="translate(6.599 6.566)"/></g><g transform="translate(234.09 98.158)"><path class="d" d="M259.8,152.043c4.2-4.874,3.926-11.237-.677-15.841a11.125,11.125,0,0,0-16.111,0,11.949,11.949,0,0,0-1.218,15.434L251,160.844Z" transform="translate(-239.526 -132.75)"/><circle class="e" cx="5.009" cy="5.009" r="5.009" transform="translate(6.599 6.566)"/></g><g transform="translate(250.337 59.436)"><path class="d" d="M271.8,123.443c4.2-4.874,3.926-11.237-.677-15.841a11.125,11.125,0,0,0-16.111,0,11.949,11.949,0,0,0-1.218,15.435L263,132.244Z" transform="translate(-251.526 -104.15)"/><circle class="e" cx="5.009" cy="5.009" r="5.009" transform="translate(6.599 6.566)"/></g><g transform="translate(304.357 84.348)"><path class="d" d="M311.7,141.843c4.2-4.874,3.926-11.237-.677-15.841a11.125,11.125,0,0,0-16.111,0,11.949,11.949,0,0,0-1.219,15.434l9.207,9.207Z" transform="translate(-291.426 -122.55)"/><circle class="e" cx="5.009" cy="5.009" r="5.009" transform="translate(6.599 6.566)"/></g><g transform="translate(338.882 57.27)"><g transform="translate(0)"><path class="d" d="M337.2,121.843c4.2-4.874,3.926-11.237-.677-15.841a11.125,11.125,0,0,0-16.111,0,11.949,11.949,0,0,0-1.219,15.435l9.207,9.207Z" transform="translate(-316.926 -102.55)"/></g><circle class="e" cx="5.009" cy="5.009" r="5.009" transform="translate(6.599 6.566)"/></g><g transform="translate(279.04 30.327)"><path class="d" d="M293,101.943c4.2-4.874,3.926-11.237-.677-15.841a11.125,11.125,0,0,0-16.111,0,11.949,11.949,0,0,0-1.218,15.434l9.206,9.207Z" transform="translate(-272.726 -82.65)"/><circle class="e" cx="5.009" cy="5.009" r="5.009" transform="translate(6.734 6.431)"/></g><g transform="translate(253.857 19.496)"><g transform="translate(0)"><path class="d" d="M274.4,93.943c4.2-4.874,3.926-11.237-.677-15.841a11.125,11.125,0,0,0-16.111,0,11.949,11.949,0,0,0-1.218,15.435l9.206,9.207Z" transform="translate(-254.126 -74.65)"/></g><circle class="e" cx="5.009" cy="5.009" r="5.009" transform="translate(6.734 6.566)"/></g><g transform="translate(244.921)"><g transform="translate(0)"><path class="d" d="M267.8,79.543c4.2-4.874,3.926-11.237-.677-15.841a11.125,11.125,0,0,0-16.111,0,11.949,11.949,0,0,0-1.218,15.434L259,88.343Z" transform="translate(-247.526 -60.25)"/></g><circle class="e" cx="5.009" cy="5.009" r="5.009" transform="translate(6.599 6.566)"/></g><g transform="translate(228.674 1.489)"><g transform="translate(0)"><path class="d" d="M255.8,80.643c4.2-4.874,3.926-11.237-.677-15.841a11.125,11.125,0,0,0-16.111,0,11.949,11.949,0,0,0-1.219,15.434L247,89.443Z" transform="translate(-235.526 -61.35)"/></g><circle class="e" cx="5.009" cy="5.009" r="5.009" transform="translate(6.599 6.566)"/></g><g transform="translate(220.551 43.731)"><path class="d" d="M249.8,111.843c4.2-4.874,3.926-11.237-.677-15.841a11.125,11.125,0,0,0-16.111,0,11.949,11.949,0,0,0-1.219,15.435L241,120.644Z" transform="translate(-229.526 -92.55)"/><circle class="e" cx="5.009" cy="5.009" r="5.009" transform="translate(6.734 6.566)"/></g><g transform="translate(198.076 116.706)"><g transform="translate(0 0)"><path class="d" d="M233.2,165.743c4.2-4.874,3.926-11.237-.677-15.841a11.125,11.125,0,0,0-16.111,0,11.949,11.949,0,0,0-1.218,15.434l9.207,9.207Z" transform="translate(-212.926 -146.45)"/></g><circle class="e" cx="5.009" cy="5.009" r="5.009" transform="translate(6.599 6.566)"/></g><g transform="translate(225.966 161.791)"><g transform="translate(0)"><path class="d" d="M253.8,199.043c4.2-4.874,3.926-11.237-.677-15.841a11.125,11.125,0,0,0-16.111,0,11.949,11.949,0,0,0-1.218,15.434L245,207.844Z" transform="translate(-233.526 -179.75)"/></g><circle class="e" cx="5.009" cy="5.009" r="5.009" transform="translate(6.599 6.566)"/></g><g transform="translate(175.601 132.953)"><path class="d" d="M216.6,177.743c4.2-4.874,3.926-11.237-.677-15.841a11.125,11.125,0,0,0-16.111,0,11.949,11.949,0,0,0-1.218,15.435l9.207,9.207Z" transform="translate(-196.326 -158.45)"/><circle class="e" cx="5.009" cy="5.009" r="5.009" transform="translate(6.599 6.566)"/></g><g transform="translate(176.414 69.861)"><path class="d" d="M217.2,131.143c4.2-4.874,3.926-11.237-.677-15.841a11.125,11.125,0,0,0-16.111,0,11.949,11.949,0,0,0-1.219,15.434l9.207,9.207Z" transform="translate(-196.926 -111.85)"/><circle class="e" cx="5.009" cy="5.009" r="5.009" transform="translate(6.734 6.566)"/></g><g transform="translate(152.449 108.583)"><path class="d" d="M199.5,159.743c4.2-4.874,3.926-11.237-.677-15.841a11.125,11.125,0,0,0-16.111,0,11.949,11.949,0,0,0-1.219,15.434l9.207,9.207Z" transform="translate(-179.226 -140.45)"/><circle class="e" cx="5.009" cy="5.009" r="5.009" transform="translate(6.734 6.566)"/></g><g transform="translate(138.64 129.704)"><path class="d" d="M189.3,175.343c4.2-4.874,3.926-11.237-.677-15.841a11.125,11.125,0,0,0-16.111,0,11.949,11.949,0,0,0-1.218,15.434l9.207,9.207Z" transform="translate(-169.026 -156.05)"/><circle class="e" cx="5.009" cy="5.009" r="5.009" transform="translate(6.599 6.566)"/></g><g transform="translate(127.808 159.354)"><path class="d" d="M181.3,197.243c4.2-4.874,3.926-11.237-.677-15.841a11.125,11.125,0,0,0-16.111,0,11.949,11.949,0,0,0-1.219,15.434l9.207,9.207Z" transform="translate(-161.026 -177.95)"/><circle class="e" cx="5.009" cy="5.009" r="5.009" transform="translate(6.734 6.566)"/></g><g transform="translate(95.45 206.199)"><path class="d" d="M157.4,231.843c4.2-4.874,3.926-11.237-.677-15.841a11.125,11.125,0,0,0-16.111,0,11.949,11.949,0,0,0-1.219,15.434l9.207,9.207Z" transform="translate(-137.126 -212.55)"/><circle class="e" cx="5.009" cy="5.009" r="5.009" transform="translate(6.599 6.566)"/></g><g transform="translate(90.305 158.136)"><path class="d" d="M153.6,196.343c4.2-4.874,3.926-11.237-.677-15.841a11.125,11.125,0,0,0-16.111,0,11.949,11.949,0,0,0-1.219,15.434l9.207,9.207Z" transform="translate(-133.326 -177.05)"/><circle class="e" cx="5.009" cy="5.009" r="5.009" transform="translate(6.734 6.566)"/></g><g transform="translate(106.146 124.288)"><g transform="translate(0 0)"><path class="d" d="M165.3,171.343c4.2-4.874,3.926-11.237-.677-15.841a11.125,11.125,0,0,0-16.111,0,11.949,11.949,0,0,0-1.219,15.434l9.207,9.207Z" transform="translate(-145.026 -152.05)"/></g><circle class="e" cx="5.009" cy="5.009" r="5.009" transform="translate(6.734 6.566)"/></g><g transform="translate(69.32 126.996)"><path class="d" d="M138.1,173.343c4.2-4.874,3.926-11.237-.677-15.841a11.125,11.125,0,0,0-16.111,0,11.949,11.949,0,0,0-1.219,15.434l9.207,9.207Z" transform="translate(-117.826 -154.05)"/><circle class="e" cx="5.009" cy="5.009" r="5.009" transform="translate(6.599 6.566)"/></g><g transform="translate(41.429 110.749)"><path class="d" d="M117.5,161.343c4.2-4.874,3.926-11.237-.677-15.841a11.125,11.125,0,0,0-16.111,0,11.949,11.949,0,0,0-1.219,15.434l9.207,9.207Z" transform="translate(-97.226 -142.05)"/><circle class="e" cx="5.009" cy="5.009" r="5.009" transform="translate(6.599 6.566)"/></g><g transform="translate(10.696 107.094)"><path class="d" d="M94.8,158.643c4.2-4.874,3.926-11.237-.677-15.841a11.125,11.125,0,0,0-16.111,0,11.949,11.949,0,0,0-1.219,15.434L86,167.444Z" transform="translate(-74.526 -139.35)"/><circle class="e" cx="5.009" cy="5.009" r="5.009" transform="translate(6.734 6.566)"/></g><g transform="translate(0 127.808)"><g transform="translate(0 0)"><path class="d" d="M86.9,173.943c4.2-4.874,3.926-11.237-.677-15.841a11.125,11.125,0,0,0-16.111,0,11.949,11.949,0,0,0-1.219,15.434l9.207,9.207Z" transform="translate(-66.626 -154.65)"/></g><circle class="e" cx="5.009" cy="5.009" r="5.009" transform="translate(6.599 6.566)"/></g><g transform="translate(44.95 149.471)"><path class="d" d="M120.1,189.943c4.2-4.874,3.926-11.237-.677-15.841a11.125,11.125,0,0,0-16.111,0,11.949,11.949,0,0,0-1.219,15.434l9.207,9.207Z" transform="translate(-99.826 -170.65)"/><circle class="e" cx="5.009" cy="5.009" r="5.009" transform="translate(6.734 6.566)"/></g><g transform="translate(65.664 167.478)"><path class="d" d="M135.4,203.243c4.2-4.874,3.926-11.237-.677-15.841a11.125,11.125,0,0,0-16.111,0,11.949,11.949,0,0,0-1.219,15.434l9.207,9.207Z" transform="translate(-115.126 -183.95)"/><circle class="e" cx="5.009" cy="5.009" r="5.009" transform="translate(6.734 6.566)"/></g><g transform="translate(112.103 319.386)"><path class="d" d="M169.7,315.443c4.2-4.874,3.926-11.237-.677-15.841a11.125,11.125,0,0,0-16.111,0,11.949,11.949,0,0,0-1.219,15.434l9.207,9.207Z" transform="translate(-149.426 -296.15)"/><circle class="e" cx="5.009" cy="5.009" r="5.009" transform="translate(6.734 6.431)"/></g><g transform="translate(109.802 362.575)"><path class="d" d="M168,347.343c4.2-4.874,3.926-11.237-.677-15.841a11.125,11.125,0,0,0-16.111,0,11.949,11.949,0,0,0-1.218,15.434l9.207,9.207Z" transform="translate(-147.726 -328.05)"/><circle class="e" cx="5.009" cy="5.009" r="5.009" transform="translate(6.734 6.566)"/></g><g transform="translate(135.39 323.854)"><path class="d" d="M186.9,318.743c4.2-4.874,3.926-11.237-.677-15.841a11.125,11.125,0,0,0-16.111,0,11.949,11.949,0,0,0-1.219,15.434l9.207,9.207Z" transform="translate(-166.626 -299.45)"/><circle class="e" cx="5.009" cy="5.009" r="5.009" transform="translate(6.599 6.566)"/></g><g transform="translate(375.979 331.029)"><path class="d" d="M364.6,324.043c4.2-4.874,3.926-11.237-.677-15.841a11.125,11.125,0,0,0-16.111,0,11.949,11.949,0,0,0-1.218,15.434l9.207,9.207Z" transform="translate(-344.326 -304.75)"/><circle class="e" cx="5.009" cy="5.009" r="5.009" transform="translate(6.734 6.566)"/></g><g transform="translate(431.624 372.459)"><path class="d" d="M405.7,354.643c4.2-4.874,3.926-11.237-.677-15.841a11.125,11.125,0,0,0-16.111,0,11.949,11.949,0,0,0-1.219,15.435l9.207,9.207Z" transform="translate(-385.426 -335.35)"/><circle class="e" cx="5.009" cy="5.009" r="5.009" transform="translate(6.599 6.566)"/></g><g transform="translate(455.589 443.268)"><path class="d" d="M423.4,406.943c4.2-4.874,3.926-11.237-.677-15.841a11.125,11.125,0,0,0-16.111,0,11.949,11.949,0,0,0-1.219,15.434l9.207,9.207Z" transform="translate(-403.126 -387.65)"/><circle class="e" cx="5.009" cy="5.009" r="5.009" transform="translate(6.599 6.566)"/></g><g transform="translate(156.647 411.451)"><path class="d" d="M202.6,383.443c4.2-4.874,3.926-11.237-.677-15.841a11.125,11.125,0,0,0-16.111,0,11.949,11.949,0,0,0-1.219,15.434l9.207,9.207Z" transform="translate(-182.326 -364.15)"/><circle class="e" cx="5.009" cy="5.009" r="5.009" transform="translate(6.599 6.566)"/></g></g><g transform="translate(286.194 156.986)"><rect class="e" width="85.567" height="38.722" transform="translate(0 290.006)"/><g transform="translate(4.603 297.994)"><g transform="translate(37.639 14.216)"><path class="f" d="M265.551,364.331a1.632,1.632,0,0,0-.677-.677,2.3,2.3,0,0,0-2.166,0,4.213,4.213,0,0,0-.812.542,2.182,2.182,0,0,0-.542.948,2.981,2.981,0,0,0-.135,1.083,2.639,2.639,0,0,0,.135,1.083,3.394,3.394,0,0,0,.542.948,2.832,2.832,0,0,0,.812.542,2.3,2.3,0,0,0,2.166,0,3.59,3.59,0,0,0,.812-.677l.812.542a3.65,3.65,0,0,1-1.083.948,2.931,2.931,0,0,1-1.625.271,4.868,4.868,0,0,1-1.489-.271,3.2,3.2,0,0,1-1.219-.812,4.726,4.726,0,0,1-.812-1.219,4.866,4.866,0,0,1-.271-1.489,5.756,5.756,0,0,1,.271-1.489,3.2,3.2,0,0,1,.812-1.218,4.726,4.726,0,0,1,1.219-.812,4.867,4.867,0,0,1,1.489-.271,6.985,6.985,0,0,1,1.489.271c.542.135.812.542,1.219.948Z" transform="translate(-260 -362.3)"/><path class="f" d="M266.548,369.64H265.6V362.6h.948Z" transform="translate(-258.018 -362.194)"/><path class="f" d="M274.5,366.091v.542h-5.822a1.957,1.957,0,0,0,.271.948,2.489,2.489,0,0,0,1.354,1.354,2.66,2.66,0,0,0,3.114-1.083l.812.542a2.56,2.56,0,0,1-1.354,1.083,3.6,3.6,0,0,1-1.625.406,5.759,5.759,0,0,1-1.489-.271,1.681,1.681,0,0,1-1.083-.812,4.725,4.725,0,0,1-.812-1.218,4.866,4.866,0,0,1-.271-1.489,5.756,5.756,0,0,1,.271-1.489,3.2,3.2,0,0,1,.812-1.218,7.514,7.514,0,0,1,1.083-.812,4.811,4.811,0,0,1,1.354-.271,4.868,4.868,0,0,1,1.489.271,2.105,2.105,0,0,1,1.083.812,2.948,2.948,0,0,1,.677,1.083A7.157,7.157,0,0,1,274.5,366.091Zm-.948-.406a2.311,2.311,0,0,0-2.3-2.3,2.3,2.3,0,0,0-.948.135,2.834,2.834,0,0,0-.812.542,2.377,2.377,0,0,0-.542.677,1.924,1.924,0,0,0-.271.812h4.874Z" transform="translate(-257.31 -362.3)"/></g><path class="f" d="M258.839,368.042l1.354-2.166h-1.083l-.812,1.489-1.354-1.354c.135-.135.271-.135.406-.271s.406-.271.542-.406a1.869,1.869,0,0,0,.406-.542,1.76,1.76,0,0,0,0-1.354c-.135-.135-.271-.406-.406-.542a1.027,1.027,0,0,0-.542-.271,2.307,2.307,0,0,0-1.354,0c-.271.135-.406.135-.542.271a1.868,1.868,0,0,0-.406.542,1.22,1.22,0,0,0-.135.677,1.023,1.023,0,0,0,.135.542c0,.135.135.271.135.406.135.135.135.271.271.406a.133.133,0,0,0,.135.135c-.135.135-.271.135-.406.271s-.406.271-.542.406-.271.406-.406.542a1.221,1.221,0,0,0-.135.677,1.717,1.717,0,0,0,.135.812,2.376,2.376,0,0,0,.542.677,2.958,2.958,0,0,0,.677.406,1.717,1.717,0,0,0,.812.135,3.233,3.233,0,0,0,1.218-.271,3.589,3.589,0,0,0,.812-.677l.812.948h1.354Zm-2.572.948a1.024,1.024,0,0,1-.542-.135c-.135,0-.271-.135-.406-.271s-.135-.271-.271-.406c0-.135-.135-.271-.135-.406a1.924,1.924,0,0,1,.271-.812,1.243,1.243,0,0,1,.812-.542l1.625,1.625c-.135.271-.406.406-.542.542A.819.819,0,0,1,256.266,368.99ZM256,364.928a.419.419,0,0,1-.135-.271v-.271a.925.925,0,0,1,.948-.948.957.957,0,0,1,.812.812.5.5,0,0,1-.135.406.291.291,0,0,1-.271.271c-.135.135-.271.135-.406.271a.5.5,0,0,1-.406.135l-.135-.135A.291.291,0,0,1,256,364.928Z" transform="translate(-224.45 -348.004)"/><g transform="translate(57.947 0.271)"><path class="d" d="M286.644,373.662c6.093-.406,10.154-4.874,10.154-10.967A10.388,10.388,0,0,0,286.1,352a11.116,11.116,0,0,0-11.1,9.477V373.8h11.644Z" transform="translate(-275 -352)"/></g><g transform="translate(61.332 6.634)"><circle class="e" cx="1.083" cy="1.083" r="1.083" transform="translate(0 3.114)"/><circle class="e" cx="1.083" cy="1.083" r="1.083" transform="translate(3.114 3.114)"/><circle class="e" cx="1.083" cy="1.083" r="1.083" transform="translate(6.499 3.114)"/><circle class="e" cx="1.083" cy="1.083" r="1.083" transform="translate(9.613 3.114)"/><circle class="e" cx="1.083" cy="1.083" r="1.083" transform="translate(3.114)"/><circle class="e" cx="1.083" cy="1.083" r="1.083" transform="translate(6.363)"/><circle class="e" cx="1.083" cy="1.083" r="1.083" transform="translate(9.613)"/><circle class="e" cx="1.083" cy="1.083" r="1.083" transform="translate(6.499 6.363)"/><circle class="e" cx="1.083" cy="1.083" r="1.083" transform="translate(6.363 9.613)"/><circle class="e" cx="1.083" cy="1.083" r="1.083" transform="translate(9.613 6.363)"/></g><path class="b" d="M247.905,363.544h-4.062l-.542-4.6a39347.156,39347.156,0,0,0-.271-2.166c0,.271-.135.677-.135,1.083-.135.406-.135.812-.271,1.219l-1.354,4.468h-2.437l-1.354-4.468a3.953,3.953,0,0,1-.271-1.219,2.981,2.981,0,0,1-.135-1.083,39347.156,39347.156,0,0,0-.271,2.166l-.542,4.6H232.2l2.031-11.508h4.333l.812,2.843a.5.5,0,0,0,.135.406,17.677,17.677,0,0,1,.677,2.979h.135a8.109,8.109,0,0,1,.271-1.625,13.9,13.9,0,0,1,.542-1.9l.812-2.843h4.2l1.083,6.77Z" transform="translate(-232.2 -351.765)"/><path class="b" d="M247.262,360.394v-1.218h3.385V356.2h-3.385v-1.083h3.656V352H243.2l1.76,11.508h5.957v-3.114Z" transform="translate(-228.307 -351.729)"/><path class="b" d="M257.553,358.77a2.511,2.511,0,0,0,1.625-.948,3.263,3.263,0,0,0,.542-2.031,3.5,3.5,0,0,0-1.218-2.843,5.209,5.209,0,0,0-3.52-.948H249.7v11.508h4.062v-3.791l2.031,3.791h4.6Zm-2.031-1.9a1.957,1.957,0,0,1-.948.271H253.9v-2.3h.677a1.957,1.957,0,0,1,.948.271c.271.135.271.542.271.812A1.3,1.3,0,0,1,255.522,356.874Z" transform="translate(-226.007 -351.729)"/><path class="b" d="M263.8,355.591a3.953,3.953,0,0,1,1.219.271,3.2,3.2,0,0,1,1.219.812v-4.332a3.973,3.973,0,0,0-1.354-.406,4.605,4.605,0,0,0-1.354-.135,7.082,7.082,0,0,0-2.437.406,4.879,4.879,0,0,0-2.031,1.354,9.611,9.611,0,0,0-1.354,1.9,6.559,6.559,0,0,0-.406,2.437,5.934,5.934,0,0,0,.812,3.114,7.464,7.464,0,0,0,2.3,2.3,5.658,5.658,0,0,0,1.354.542,6.592,6.592,0,0,0,1.625.135,4.607,4.607,0,0,0,1.354-.135c.406-.135.948-.271,1.354-.406v-4.332a6.361,6.361,0,0,1-1.219.812,3.954,3.954,0,0,1-1.219.271,1.915,1.915,0,0,1-2.166-2.166,2.242,2.242,0,0,1,.677-1.625A1.649,1.649,0,0,1,263.8,355.591Z" transform="translate(-223.317 -351.8)"/><path class="b" d="M268.9,363.237v-3.791h2.572v4.062h4.062V352H271.47v3.791H268.9V352h-4.2v11.508h4.2Z" transform="translate(-220.698 -351.729)"/></g><rect class="e" width="85.567" height="38.722" transform="translate(0 0)"/><g transform="translate(4.603 7.988)"><g transform="translate(37.639 14.216)"><path class="f" d="M265.551,150.131a1.632,1.632,0,0,0-.677-.677,2.3,2.3,0,0,0-2.166,0,4.213,4.213,0,0,0-.812.542,2.182,2.182,0,0,0-.542.948,2.981,2.981,0,0,0-.135,1.083,2.639,2.639,0,0,0,.135,1.083,3.4,3.4,0,0,0,.542.948,2.832,2.832,0,0,0,.812.542,2.3,2.3,0,0,0,2.166,0,3.59,3.59,0,0,0,.812-.677l.812.542a3.649,3.649,0,0,1-1.083.948,2.932,2.932,0,0,1-1.625.271,4.868,4.868,0,0,1-1.489-.271,3.2,3.2,0,0,1-1.219-.812,4.725,4.725,0,0,1-.812-1.219,4.866,4.866,0,0,1-.271-1.489,5.756,5.756,0,0,1,.271-1.489,3.2,3.2,0,0,1,.812-1.219,4.727,4.727,0,0,1,1.219-.812,4.867,4.867,0,0,1,1.489-.271,6.986,6.986,0,0,1,1.489.271,4.215,4.215,0,0,1,1.219.948Z" transform="translate(-260 -148.1)"/><path class="f" d="M266.548,155.44H265.6V148.4h.948Z" transform="translate(-258.018 -147.994)"/><path class="f" d="M274.5,151.891v.542h-5.822a1.957,1.957,0,0,0,.271.948,2.489,2.489,0,0,0,1.354,1.354,2.66,2.66,0,0,0,3.114-1.083l.812.542a2.56,2.56,0,0,1-1.354,1.083,3.6,3.6,0,0,1-1.625.406,5.759,5.759,0,0,1-1.489-.271,2.105,2.105,0,0,1-1.083-.812,4.725,4.725,0,0,1-.812-1.219,4.866,4.866,0,0,1-.271-1.489,5.756,5.756,0,0,1,.271-1.489,3.2,3.2,0,0,1,.812-1.219,7.515,7.515,0,0,1,1.083-.812,4.81,4.81,0,0,1,1.354-.271,4.868,4.868,0,0,1,1.489.271,2.105,2.105,0,0,1,1.083.812,2.948,2.948,0,0,1,.677,1.083A7.157,7.157,0,0,1,274.5,151.891Zm-.948-.406a2.311,2.311,0,0,0-2.3-2.3,2.3,2.3,0,0,0-.948.135,2.833,2.833,0,0,0-.812.542,2.377,2.377,0,0,0-.542.677,1.924,1.924,0,0,0-.271.812h4.874Z" transform="translate(-257.31 -148.1)"/></g><path class="f" d="M258.839,153.842l1.354-2.166h-1.083l-.812,1.489-1.354-1.354c.135-.135.271-.135.406-.271s.406-.271.542-.406a1.869,1.869,0,0,0,.406-.542,1.76,1.76,0,0,0,0-1.354c-.135-.135-.271-.406-.406-.542a1.026,1.026,0,0,0-.542-.271,2.307,2.307,0,0,0-1.354,0c-.271.135-.406.135-.542.271a1.869,1.869,0,0,0-.406.542,1.221,1.221,0,0,0-.135.677,1.023,1.023,0,0,0,.135.542c0,.135.135.271.135.406.135.135.135.271.271.406a.133.133,0,0,0,.135.135c-.135.135-.271.135-.406.271s-.406.271-.542.406-.271.406-.406.542a1.221,1.221,0,0,0-.135.677,1.717,1.717,0,0,0,.135.812,2.377,2.377,0,0,0,.542.677,2.96,2.96,0,0,0,.677.406,1.717,1.717,0,0,0,.812.135,3.233,3.233,0,0,0,1.218-.271,3.589,3.589,0,0,0,.812-.677l.812.948h1.354Zm-2.572.948a1.023,1.023,0,0,1-.542-.135c-.135,0-.271-.135-.406-.271s-.135-.271-.271-.406c0-.135-.135-.271-.135-.406a1.925,1.925,0,0,1,.271-.812,1.243,1.243,0,0,1,.812-.542l1.625,1.625c-.135.271-.406.406-.542.542A.819.819,0,0,1,256.266,154.79ZM256,150.728a.419.419,0,0,1-.135-.271v-.271a.925.925,0,0,1,.948-.948.957.957,0,0,1,.812.812.5.5,0,0,1-.135.406.291.291,0,0,1-.271.271c-.135.135-.271.135-.406.271a.5.5,0,0,1-.406.135l-.135-.135A.291.291,0,0,1,256,150.728Z" transform="translate(-224.45 -133.804)"/><g transform="translate(57.947 0.271)"><path class="d" d="M286.644,159.462c6.093-.406,10.154-4.874,10.154-10.967a10.388,10.388,0,0,0-10.7-10.7,11.116,11.116,0,0,0-11.1,9.477V159.6h11.644Z" transform="translate(-275 -137.8)"/></g><g transform="translate(61.332 6.634)"><circle class="e" cx="1.083" cy="1.083" r="1.083" transform="translate(0 3.249)"/><circle class="e" cx="1.083" cy="1.083" r="1.083" transform="translate(3.114 3.249)"/><circle class="e" cx="1.083" cy="1.083" r="1.083" transform="translate(6.499 3.249)"/><circle class="e" cx="1.083" cy="1.083" r="1.083" transform="translate(9.613 3.249)"/><circle class="e" cx="1.083" cy="1.083" r="1.083" transform="translate(3.114)"/><circle class="e" cx="1.083" cy="1.083" r="1.083" transform="translate(6.363)"/><circle class="e" cx="1.083" cy="1.083" r="1.083" transform="translate(9.613)"/><circle class="e" cx="1.083" cy="1.083" r="1.083" transform="translate(6.499 6.499)"/><circle class="e" cx="1.083" cy="1.083" r="1.083" transform="translate(6.363 9.748)"/><circle class="e" cx="1.083" cy="1.083" r="1.083" transform="translate(9.613 6.499)"/></g><path class="b" d="M247.905,149.344h-4.062l-.542-4.6a41970.057,41970.057,0,0,0-.271-2.166c0,.271-.135.677-.135,1.083-.135.406-.135.812-.271,1.218l-1.354,4.468h-2.437l-1.354-4.468a3.953,3.953,0,0,1-.271-1.218,2.981,2.981,0,0,1-.135-1.083,41970.057,41970.057,0,0,0-.271,2.166l-.542,4.6H232.2l2.031-11.508h4.333l.812,2.843a.5.5,0,0,0,.135.406,17.678,17.678,0,0,1,.677,2.979h.135a8.108,8.108,0,0,1,.271-1.625,13.894,13.894,0,0,1,.542-1.9l.812-2.843h4.2l1.083,6.77Z" transform="translate(-232.2 -137.565)"/><path class="b" d="M247.262,146.194v-1.219h3.385V142h-3.385v-1.083h3.656V137.8H243.2l1.76,11.508h5.957v-3.114Z" transform="translate(-228.307 -137.529)"/><path class="b" d="M257.553,144.57a2.511,2.511,0,0,0,1.625-.948,3.263,3.263,0,0,0,.542-2.031,3.5,3.5,0,0,0-1.218-2.843,5.209,5.209,0,0,0-3.52-.948H249.7v11.508h4.062v-3.791l2.031,3.791h4.6Zm-2.031-1.9a1.957,1.957,0,0,1-.948.271H253.9v-2.166h.677a1.957,1.957,0,0,1,.948.271c.271.135.271.542.271.812A1.144,1.144,0,0,1,255.522,142.674Z" transform="translate(-226.007 -137.529)"/><path class="b" d="M263.8,141.391a3.953,3.953,0,0,1,1.219.271,3.2,3.2,0,0,1,1.219.812v-4.332a3.973,3.973,0,0,0-1.354-.406,4.605,4.605,0,0,0-1.354-.135,7.081,7.081,0,0,0-2.437.406,4.159,4.159,0,0,0-2.031,1.354,9.611,9.611,0,0,0-1.354,1.9,6.559,6.559,0,0,0-.406,2.437,5.934,5.934,0,0,0,.812,3.114,7.464,7.464,0,0,0,2.3,2.3,5.658,5.658,0,0,0,1.354.542,6.592,6.592,0,0,0,1.625.135,4.606,4.606,0,0,0,1.354-.135c.406-.135.948-.271,1.354-.406v-4.332a6.358,6.358,0,0,1-1.219.812,3.953,3.953,0,0,1-1.219.271,1.915,1.915,0,0,1-2.166-2.166,2.242,2.242,0,0,1,.677-1.625A1.649,1.649,0,0,1,263.8,141.391Z" transform="translate(-223.317 -137.6)"/><path class="b" d="M268.9,149.037v-3.791h2.572v4.062h4.062V137.8H271.47v3.791H268.9V137.8h-4.2v11.508h4.2Z" transform="translate(-220.698 -137.529)"/></g></g></g></g></svg>