<svg xmlns="http://www.w3.org/2000/svg" width="200.791" height="143.362" viewBox="0 0 200.791 143.362">
    <g transform="translate(145.391 0)">
        <path class="a"
              d="M238.723,1935.009H191.631a4.154,4.154,0,0,1-4.154-4.154v-11.912a27.7,27.7,0,0,1,55.4,0v11.912A4.154,4.154,0,0,1,238.723,1935.009Zm-42.938-8.308h38.784v-7.758a19.392,19.392,0,0,0-38.784,0Z"
              transform="translate(-187.477 -1859.123)"/>
        <path class="a"
              d="M208.749,1906.382a15.3,15.3,0,1,1,15.3-15.3A15.319,15.319,0,0,1,208.749,1906.382Zm0-22.294a6.993,6.993,0,1,0,6.993,6.993A7,7,0,0,0,208.749,1884.087Z"
              transform="translate(-181.046 -1875.779)"/>
    </g>
    <g transform="translate(72.92 67.474)">
        <path class="a"
              d="M203.831,1967.5H156.739a4.154,4.154,0,0,1-4.154-4.154v-11.916a27.7,27.7,0,0,1,55.4,0v11.916A4.155,4.155,0,0,1,203.831,1967.5Zm-42.938-8.308h38.784v-7.762a19.392,19.392,0,0,0-38.784,0Z"
              transform="translate(-152.585 -1891.61)"/>
        <path class="a"
              d="M173.857,1938.868a15.3,15.3,0,1,1,15.3-15.3A15.319,15.319,0,0,1,173.857,1938.868Zm0-22.294a6.993,6.993,0,1,0,6.993,6.993A7,7,0,0,0,173.857,1916.573Z"
              transform="translate(-146.154 -1908.265)"/>
    </g>
    <g transform="translate(0 0)">
        <path class="a"
              d="M168.723,1935.009H121.631a4.154,4.154,0,0,1-4.154-4.154v-11.912a27.7,27.7,0,0,1,55.4,0v11.912A4.154,4.154,0,0,1,168.723,1935.009Zm-42.938-8.308h38.784v-7.758a19.392,19.392,0,0,0-38.784,0Z"
              transform="translate(-117.477 -1859.123)"/>
        <path class="a"
              d="M138.749,1906.382a15.3,15.3,0,1,1,15.3-15.3A15.319,15.319,0,0,1,138.749,1906.382Zm0-22.294a6.993,6.993,0,1,0,6.993,6.993A7,7,0,0,0,138.749,1884.087Z"
              transform="translate(-111.046 -1875.779)"/>
    </g>
    <g transform="translate(38.954 84.003)">
        <path class="a"
              d="M151.086,1933.876a4.071,4.071,0,0,1-1.826-.434l-.193-.1a4.154,4.154,0,1,1,3.911-7.33,4.2,4.2,0,0,1,1.782,5.593A4.14,4.14,0,0,1,151.086,1933.876Z"
              transform="translate(-124.777 -1906.208)"/>
        <path class="a"
              d="M150.1,1935.826a3.975,3.975,0,0,1-2.59-.958l-.17-.144a4.153,4.153,0,0,1,5.386-6.324,4.241,4.241,0,0,1,.565,5.92A4.194,4.194,0,0,1,150.1,1935.826Zm-9.652-11.147a4.151,4.151,0,0,1-3.533-1.963l-.071-.116a4.2,4.2,0,0,1,1.34-5.745,4.106,4.106,0,0,1,5.681,1.3l.108.179a4.153,4.153,0,0,1-3.525,6.343Z"
              transform="translate(-136.232 -1916.223)"/>
    </g>
    <g transform="translate(133.392 85.836)">
        <path class="a"
              d="M191.7,1936.516a4.153,4.153,0,0,1-2.611-7.384,4.24,4.24,0,0,1,5.863.486,4.071,4.071,0,0,1-.355,5.731c-.046.039-.243.208-.289.245A4.134,4.134,0,0,1,191.7,1936.516Zm9.261-11.035a4.153,4.153,0,0,1-3.61-6.2,4.248,4.248,0,0,1,5.691-1.668,4.069,4.069,0,0,1,1.66,5.543l-.12.22A4.153,4.153,0,0,1,200.96,1925.481Z"
              transform="translate(-175.407 -1917.106)"/>
        <path class="a"
              d="M185.858,1934.474a4.153,4.153,0,0,1-1.759-7.917,4.2,4.2,0,0,1,5.544,1.933,4.111,4.111,0,0,1-1.836,5.5l-.2.093A4.118,4.118,0,0,1,185.858,1934.474Z"
              transform="translate(-181.7 -1907.352)"/>
    </g>
    <g transform="translate(58.842 27.842)">
        <path class="a"
              d="M150.26,1905.067a4.173,4.173,0,0,1-3.982-2.227,4.112,4.112,0,0,1,1.747-5.573l.289-.144a4.154,4.154,0,0,1,3.606,7.484A4.267,4.267,0,0,1,150.26,1905.067Zm59.187-3.737a4.168,4.168,0,0,1-1.579-.21,4.228,4.228,0,0,1-2.758-5.255,4.075,4.075,0,0,1,5.149-2.7l.245.079a4.156,4.156,0,0,1-1.057,8.088Zm-14.766-3.338a4.3,4.3,0,0,1-.729-.017l-.307-.04a4.154,4.154,0,0,1,1.115-8.233l.118.017a4.154,4.154,0,0,1-.2,8.273Zm-30.125,1.776a4.225,4.225,0,0,1-4.36-3.043,4.066,4.066,0,0,1,2.816-5.062l.174-.046a4.188,4.188,0,0,1,5.095,2.964,4.114,4.114,0,0,1-2.9,5.051A4.388,4.388,0,0,1,164.556,1899.769Zm14.982-2.285-.212.012a4.154,4.154,0,1,1-.523-8.291l.214-.012a4.154,4.154,0,1,1,.521,8.291Z"
              transform="translate(-145.807 -1889.184)"/>
        <path class="a"
              d="M185.37,1902.4a4.184,4.184,0,1,1,1.78-7.768c.071.042.179.108.241.15a4.154,4.154,0,0,1-2.021,7.619Z"
              transform="translate(-108.071 -1883.946)"/>
    </g>
</svg>