<svg xmlns="http://www.w3.org/2000/svg" width="74.905" height="179.802" viewBox="0 0 74.905 179.802">
    <path class="a"
          d="M-93.189,1976.727a4.376,4.376,0,0,1-3.558-1.819,63.945,63.945,0,0,1-12.148-37.626,4.382,4.382,0,0,1,4.382-4.382,4.383,4.383,0,0,1,4.382,4.382,55.226,55.226,0,0,0,10.494,32.5,4.381,4.381,0,0,1-.992,6.117A4.365,4.365,0,0,1-93.189,1976.727Z"
          transform="translate(141.966 -1796.925)"/>
    <g transform="translate(0 0)">
        <path class="a"
              d="M-86.537,2016.727a4.354,4.354,0,0,1-2.211-.6c-1.439-.839-35.242-20.993-35.242-54.988,0-46.751,32.677-87.016,34.07-88.708a4.384,4.384,0,0,1,3.687-1.586,4.379,4.379,0,0,1,3.433,2.084c1.376,2.25,33.715,55.475,33.715,88.21,0,34-33.8,54.149-35.242,54.988A4.353,4.353,0,0,1-86.537,2016.727Zm-.447-133.589c-8.511,12.043-28.242,43.668-28.242,78,0,24.3,21.608,41.125,28.689,45.984,7.076-4.857,28.689-21.679,28.689-45.984C-57.848,1936.724-78.733,1897.626-86.984,1883.138Z"
              transform="translate(123.99 -1870.836)"/>
        <path class="a"
              d="M-104.513,1998.179a4.38,4.38,0,0,1-4.382-4.382v-.219a4.38,4.38,0,0,1,4.382-4.382,4.382,4.382,0,0,1,4.382,4.382v.219A4.382,4.382,0,0,1-104.513,1998.179Zm0-17.314a4.38,4.38,0,0,1-4.382-4.382v-.219a4.38,4.38,0,0,1,4.382-4.382,4.382,4.382,0,0,1,4.382,4.382v.219A4.382,4.382,0,0,1-104.513,1980.865Zm0-17.312a4.382,4.382,0,0,1-4.382-4.382v-.221a4.382,4.382,0,0,1,4.382-4.382,4.383,4.383,0,0,1,4.382,4.382v.221A4.383,4.383,0,0,1-104.513,1963.553Zm0-17.314a4.381,4.381,0,0,1-4.382-4.382,4.475,4.475,0,0,1,4.382-4.489,4.29,4.29,0,0,1,4.382,4.272v.217A4.382,4.382,0,0,1-104.513,1946.239Zm0-17.31a4.38,4.38,0,0,1-4.382-4.382,4.477,4.477,0,0,1,4.382-4.491,4.291,4.291,0,0,1,4.382,4.272v.219A4.382,4.382,0,0,1-104.513,1928.928Zm0-17.307a4.382,4.382,0,0,1-4.382-4.382,4.475,4.475,0,0,1,4.382-4.491,4.291,4.291,0,0,1,4.382,4.272v.219A4.383,4.383,0,0,1-104.513,1911.621Zm0-17.312a4.38,4.38,0,0,1-4.382-4.382,4.475,4.475,0,0,1,4.382-4.49,4.29,4.29,0,0,1,4.382,4.272v.218A4.382,4.382,0,0,1-104.513,1894.309Z"
              transform="translate(141.966 -1853.447)"/>
    </g>
</svg>