<svg xmlns="http://www.w3.org/2000/svg" width="180.662" height="111.574" viewBox="0 0 180.662 111.574">
    <path class="a"
          d="M17.665,1956.936a4.375,4.375,0,0,1-1.474-8.5,40.333,40.333,0,0,0,26.681-37.9,4.376,4.376,0,0,1,4.375-4.375h63.529a4.375,4.375,0,0,1,0,8.75H51.427a49.119,49.119,0,0,1-32.289,41.762A4.346,4.346,0,0,1,17.665,1956.936Z"
          transform="translate(51.922 -1871.818)"/>
    <path class="a"
          d="M95,2002.037H41.662a48.986,48.986,0,1,1,0-97.972H71.786c7.99-1.6,19.141-5.893,19.9-10.022a4.374,4.374,0,1,1,8.6,1.593c-2.174,11.748-23.094,16.306-27.265,17.1a4.471,4.471,0,0,1-.818.077H41.662a40.237,40.237,0,1,0,0,80.474H95a4.375,4.375,0,0,1,0,8.75Z"
          transform="translate(27.448 -1890.463)"/>
    <path class="a" d="M112.159,1925.934H27.943a4.375,4.375,0,1,1,0-8.749h84.216a4.375,4.375,0,1,1,0,8.749Z"
          transform="translate(64.128 -1858.735)"/>
    <path class="a" d="M93.923,1935.688H31.856a4.375,4.375,0,0,1,0-8.75H93.923a4.375,4.375,0,0,1,0,8.75Z"
          transform="translate(68.774 -1847.153)"/>
    <path class="a"
          d="M3.6,1912.305H3.38a4.375,4.375,0,0,1,0-8.75H3.6a4.375,4.375,0,0,1,0,8.75Zm-15.53,0h-.219a4.375,4.375,0,0,1-4.375-4.375,4.373,4.373,0,0,1,4.375-4.375h.219a4.375,4.375,0,0,1,4.375,4.375A4.376,4.376,0,0,1-11.932,1912.305Z"
          transform="translate(16.525 -1874.916)"/>
    <path class="a"
          d="M3.6,1939.011H3.38a4.375,4.375,0,0,1,0-8.75H3.6a4.375,4.375,0,0,1,0,8.75Zm-15.53,0h-.219a4.375,4.375,0,0,1-4.375-4.375,4.373,4.373,0,0,1,4.375-4.375h.219a4.375,4.375,0,0,1,4.375,4.375A4.376,4.376,0,0,1-11.932,1939.011Z"
          transform="translate(16.525 -1843.208)"/>
</svg>