<svg xmlns="http://www.w3.org/2000/svg" width="149.782" height="132.877" viewBox="0 0 149.782 132.877">
    <path class="a"
          d="M-227.065,2013.8a4.442,4.442,0,0,1-1.761-.367,4.416,4.416,0,0,1-2.651-4.047v-26.173h-5.857a33.24,33.24,0,0,1-33.2-33.2v-35.887a33.24,33.24,0,0,1,33.2-33.2h83.377a33.242,33.242,0,0,1,33.2,33.2v35.887a33.242,33.242,0,0,1-33.2,33.2h-23.7a37.537,37.537,0,0,0-25.663,10.1l-20.737,19.3A4.411,4.411,0,0,1-227.065,2013.8Zm-10.269-124.049a24.4,24.4,0,0,0-24.374,24.374v35.887a24.4,24.4,0,0,0,24.374,24.374h10.271a4.416,4.416,0,0,1,4.414,4.414v20.445l13.312-12.394a46.344,46.344,0,0,1,31.679-12.465h23.7a24.4,24.4,0,0,0,24.376-24.374v-35.887a24.4,24.4,0,0,0-24.376-24.374Z"
          transform="translate(270.535 -1880.924)"/>
    <path class="a"
          d="M-194.147,1905.889a4.509,4.509,0,0,1-4.522-4.414,4.32,4.32,0,0,1,4.3-4.414h.219a4.413,4.413,0,0,1,4.414,4.414A4.414,4.414,0,0,1-194.147,1905.889Zm-17.435,0h-.221a4.416,4.416,0,0,1-4.414-4.414,4.414,4.414,0,0,1,4.414-4.414h.221a4.413,4.413,0,0,1,4.414,4.414A4.414,4.414,0,0,1-211.582,1905.889Zm-17.433,0h-.223a4.416,4.416,0,0,1-4.414-4.414,4.414,4.414,0,0,1,4.414-4.414h.223a4.414,4.414,0,0,1,4.414,4.414A4.416,4.416,0,0,1-229.014,1905.889Zm-17.435,0h-.221a4.414,4.414,0,0,1-4.414-4.414,4.413,4.413,0,0,1,4.414-4.414h.221a4.414,4.414,0,0,1,4.414,4.414A4.416,4.416,0,0,1-246.449,1905.889Z"
          transform="translate(294.012 -1861.447)"/>
    <path class="a"
          d="M-194.147,1917.76a4.509,4.509,0,0,1-4.522-4.414,4.32,4.32,0,0,1,4.3-4.414h.219a4.413,4.413,0,0,1,4.414,4.414A4.414,4.414,0,0,1-194.147,1917.76Zm-17.435,0h-.221a4.416,4.416,0,0,1-4.414-4.414,4.414,4.414,0,0,1,4.414-4.414h.221a4.413,4.413,0,0,1,4.414,4.414A4.414,4.414,0,0,1-211.582,1917.76Zm-17.433,0h-.223a4.416,4.416,0,0,1-4.414-4.414,4.414,4.414,0,0,1,4.414-4.414h.223a4.414,4.414,0,0,1,4.414,4.414A4.416,4.416,0,0,1-229.014,1917.76Zm-17.435,0h-.221a4.414,4.414,0,0,1-4.414-4.414,4.413,4.413,0,0,1,4.414-4.414h.221a4.414,4.414,0,0,1,4.414,4.414A4.416,4.416,0,0,1-246.449,1917.76Z"
          transform="translate(294.012 -1847.119)"/>
</svg>