<svg xmlns="http://www.w3.org/2000/svg" xmlns:xlink="http://www.w3.org/1999/xlink" width="214.359" height="186.346" viewBox="0 0 214.359 186.346"><defs><style>.a{fill:#fff;}.b{filter:url(#a);}</style><filter id="a" x="0" y="0" width="214.359" height="186.346" filterUnits="userSpaceOnUse"><feOffset input="SourceAlpha"/><feGaussianBlur stdDeviation="20" result="b"/><feFlood flood-opacity="0.702"/><feComposite operator="in" in2="b"/><feComposite in="SourceGraphic"/></filter></defs><g class="b" transform="matrix(1, 0, 0, 1, 0, 0)"><path class="a" d="M93.438,14.881a11.856,11.856,0,0,0-8.342-8.4C77.737,4.5,48.23,4.5,48.23,4.5s-29.507,0-36.866,1.985a11.857,11.857,0,0,0-8.342,8.4C1.05,22.287,1.05,37.74,1.05,37.74s0,15.453,1.972,22.859a11.68,11.68,0,0,0,8.342,8.262c7.359,1.985,36.866,1.985,36.866,1.985s29.507,0,36.866-1.985A11.68,11.68,0,0,0,93.438,60.6c1.972-7.406,1.972-22.859,1.972-22.859s0-15.453-1.972-22.859ZM38.579,51.77V23.71l24.662,14.03L38.579,51.77Z" transform="translate(58.95 55.5)"/></g></svg>