<svg xmlns="http://www.w3.org/2000/svg" viewBox="0 0 232.46 42.9"><title>Fichier 2</title><path d="M123.35,40.76l-14-30.51-3.78,8.49a.69.69,0,0,0,0,.58l4,8.74h-8.13l-2.94,6.62h14l2.92,6.43a1.71,1.71,0,0,0,1.73,1.2h5.18A1,1,0,0,0,123.35,40.76Z" fill="#231f20"/><path d="M91.77,41.11l1.47-3.22L107.31,6.28a.73.73,0,0,0,0-.58L105,.66A1,1,0,0,0,104,0h-.6a1.07,1.07,0,0,0-1,.66L83.85,40.76a1.05,1.05,0,0,0,1,1.55H90A1.79,1.79,0,0,0,91.77,41.11Z" fill="#231f20"/><path d="M13.77,22.23.19,2.32A1.1,1.1,0,0,1,1.14.6H7.22a1.18,1.18,0,0,1,1,.53l9.54,13.71L27.24,1.13a1.18,1.18,0,0,1,1-.53h6.14a1.1,1.1,0,0,1,1,1.72L21.52,22.17v19a1.18,1.18,0,0,1-1.13,1.14H14.9a1.14,1.14,0,0,1-1.13-1.14Z" fill="#231f20"/><path d="M40.53,1.73A1.12,1.12,0,0,1,41.66.6h5.48a1.16,1.16,0,0,1,1.13,1.13V35.16h15.2a1.13,1.13,0,0,1,1.13,1.13v4.88a1.14,1.14,0,0,1-1.13,1.14H41.66a1.13,1.13,0,0,1-1.13-1.14Z" fill="#231f20"/><path d="M70.62,1.73A1.17,1.17,0,0,1,71.75.6h5.54a1.17,1.17,0,0,1,1.14,1.13V41.17a1.18,1.18,0,0,1-1.14,1.14H71.75a1.18,1.18,0,0,1-1.13-1.14Z" fill="#231f20"/><path d="M128.78,1.73A1.11,1.11,0,0,1,129.85.6H144a20.86,20.86,0,1,1,0,41.71H129.85a1.12,1.12,0,0,1-1.07-1.14ZM143.26,35c7.74,0,13.4-5.84,13.4-13.65S151,7.81,143.26,7.81h-6.8V35Z" fill="#231f20"/><path d="M172.75,1.73A1.13,1.13,0,0,1,173.89.6h24.25a1.13,1.13,0,0,1,1.13,1.13V6.61a1.14,1.14,0,0,1-1.13,1.14H180.5v9.77h14.72a1.17,1.17,0,0,1,1.13,1.13v5a1.13,1.13,0,0,1-1.13,1.13H180.5V35.16h17.64a1.13,1.13,0,0,1,1.13,1.13v4.88a1.14,1.14,0,0,1-1.13,1.14H173.89a1.14,1.14,0,0,1-1.14-1.14Z" fill="#231f20"/><path d="M205.35,36.47l2.14-3.7a1.39,1.39,0,0,1,2-.42c.3.18,5.12,3.7,9,3.7,3.1,0,5.42-2,5.42-4.59,0-3-2.56-5.12-7.57-7.15-5.6-2.26-11.2-5.84-11.2-12.87C205.17,6.14,209.1,0,218.58,0a21,21,0,0,1,11.91,4,1.47,1.47,0,0,1,.36,2l-2.26,3.39a1.57,1.57,0,0,1-2.09.72c-.47-.3-5-3.28-8.28-3.28S213,9.06,213,11c0,2.8,2.2,4.71,7,6.68,5.78,2.32,12.45,5.78,12.45,13.46,0,6.14-5.3,11.8-13.7,11.8-7.51,0-11.92-3.51-13.11-4.65C205.11,37.72,204.81,37.42,205.35,36.47Z" fill="#231f20"/></svg>