<?xml version="1.0" encoding="UTF-8"?>
<svg width="69px" height="318px" viewBox="0 0 69 318" version="1.1" xmlns="http://www.w3.org/2000/svg" xmlns:xlink="http://www.w3.org/1999/xlink">
    <title>8DFF6F8D-92D8-4ECF-9B77-0B116C3C3205</title>
    <g id="Marque" stroke="none" stroke-width="1" fill="none" fill-rule="evenodd">
        <g id="Page-la-marque" transform="translate(-1110.000000, -3204.000000)" fill="#005844">
            <path d="M1143.40277,3204.00062 C1143.5965,3204.00297 1143.69904,3204.01121 1143.69904,3204.01121 C1166.7858,3205.18581 1179,3223.15684 1179,3255.98305 C1179,3275.31923 1164.60229,3296.9015 1156.8069,3301.23678 C1151.71929,3304.06956 1150.64502,3319.39785 1150.6224,3328.43636 L1150.62297,3329.19525 C1150.63398,3331.91814 1150.74052,3333.96674 1150.85063,3334.75789 C1151.0127,3335.9056 1161.37653,3489.45399 1158.7293,3508.82827 C1157.60377,3517.07517 1152.86081,3522 1146.04463,3522 L1146.04463,3522 C1139.43105,3522 1132.96829,3517.29261 1131.9283,3511.72668 C1130.99713,3506.74366 1132.40805,3467.96365 1134.0986,3427.88037 L1134.23625,3424.62816 L1134.23625,3424.62816 L1134.37487,3421.37408 C1134.88467,3409.44377 1135.40933,3397.55351 1135.89465,3386.55713 C1137.02468,3360.89288 1137.91835,3340.62196 1137.91835,3335.97061 C1137.91835,3320.89574 1137.22277,3308.76188 1128.45043,3301.13815 C1119.23688,3293.12662 1102.70067,3264.99883 1113.57775,3233.59829 C1123.33605,3205.42791 1140.04559,3204 1143.29835,3204 Z M1143.29835,3205.68121 C1141.42998,3205.68121 1124.75646,3206.47923 1115.17374,3234.14524 C1105.16107,3263.04862 1119.60381,3291.21452 1129.56245,3299.87164 C1139.24359,3308.28931 1139.59351,3322.68791 1139.60616,3334.6371 L1139.60636,3336.11583 C1139.58874,3341.0619 1138.70164,3361.20128 1137.58069,3386.62886 C1135.37916,3436.5317 1132.36501,3504.87406 1133.58958,3511.41958 C1134.47424,3516.15835 1140.2932,3520.31879 1146.04238,3520.31879 L1146.04238,3520.31879 C1152.02792,3520.31879 1156.04155,3516.04627 1157.05677,3508.59962 C1159.695,3489.3038 1149.33792,3336.13648 1149.18035,3334.99102 C1148.96199,3333.43086 1148.46226,3320.53709 1150.4837,3310.65829 C1149.55177,3311.58407 1148.48927,3312.40451 1147.44254,3313.18235 C1146.02663,3314.23142 1144.68725,3315.22446 1143.74631,3316.45286 L1143.74631,3316.45286 L1142.40469,3315.43517 C1143.48969,3314.01847 1144.98664,3312.90663 1146.43181,3311.83289 C1147.59336,3310.97211 1148.68962,3310.15841 1149.58554,3309.20572 L1149.58554,3309.20572 L1150.59626,3310.14496 C1151.64525,3305.29859 1153.32453,3301.25023 1155.98527,3299.77076 C1163.28542,3295.70896 1177.31171,3274.42258 1177.31171,3255.98305 C1177.31171,3233.82245 1171.46349,3207.10688 1143.59549,3205.68794 L1143.59549,3205.68794 Z M1153.12869,3504.44076 L1154.78096,3504.78597 C1153.99534,3508.50032 1152.28679,3512.17881 1149.4032,3516.36391 C1149.01377,3516.92655 1148.53655,3517.4623 1148.05932,3517.99356 C1147.41552,3518.70639 1146.80774,3519.38112 1146.46333,3520.10516 L1146.46333,3520.10516 L1144.93712,3519.38336 C1145.38958,3518.43964 1146.10766,3517.64163 1146.80099,3516.87051 C1147.23094,3516.39305 1147.66089,3515.91783 1148.01205,3515.4157 C1150.8011,3511.36286 1152.38134,3507.97578 1153.12869,3504.44076 L1153.12869,3504.44076 Z M1154.63554,3506.29121 L1156.27881,3506.67677 C1155.47068,3510.09523 1153.62032,3515.30699 1151.07213,3518.75011 L1151.07213,3518.75011 L1149.71249,3517.75259 C1152.10986,3514.5157 1153.86343,3509.555 1154.63554,3506.29121 L1154.63554,3506.29121 Z M1150.56947,3504.80435 L1152.08668,3505.54408 C1149.87389,3510.03628 1147.80068,3513.2104 1145.36954,3515.83982 C1145.02738,3516.20968 1144.55692,3516.593 1144.07069,3516.98528 C1143.36386,3517.55914 1142.56023,3518.2092 1142.36664,3518.7315 L1142.36664,3518.7315 L1140.78416,3518.1442 C1141.13982,3517.19375 1142.08977,3516.42488 1143.00819,3515.68066 C1143.42464,3515.34218 1143.83433,3515.01714 1144.12922,3514.70108 C1146.4433,3512.19495 1148.43097,3509.14187 1150.56947,3504.80435 L1150.56947,3504.80435 Z M1147.07989,3505.99397 L1148.45078,3506.97356 C1145.55593,3510.98605 1141.94525,3514.51211 1138.28279,3516.89943 L1138.28279,3516.89943 L1137.35986,3515.49394 C1140.85124,3513.21646 1144.3021,3509.84058 1147.07989,3505.99397 L1147.07989,3505.99397 Z M1144.06551,3504.70303 L1145.46341,3505.6445 C1144.12404,3507.62385 1141.88199,3509.76683 1138.61122,3512.19899 C1138.36585,3512.38056 1138.0327,3512.60024 1137.68379,3512.82664 C1137.21782,3513.13374 1136.43445,3513.64707 1136.28138,3513.84657 L1136.28138,3513.84657 L1134.84971,3512.95889 C1135.11534,3512.52178 1135.74788,3512.08691 1136.75635,3511.42339 C1137.0715,3511.21716 1137.37764,3511.01766 1137.6005,3510.84953 C1140.72045,3508.53395 1142.83194,3506.52546 1144.06551,3504.70303 L1144.06551,3504.70303 Z M1142.05645,3501.4547 L1143.34405,3502.54413 L1143.06717,3502.86692 C1140.96469,3505.33494 1137.78846,3509.06274 1134.7563,3510.25304 L1134.7563,3510.25304 L1134.13501,3508.69063 C1136.77549,3507.65277 1139.78739,3504.11774 1141.78182,3501.77974 L1141.78182,3501.77974 L1142.05645,3501.4547 Z M1139.66966,3499.72059 L1140.85596,3500.91537 C1140.26169,3501.50043 1139.48057,3502.15946 1138.68595,3502.82747 C1137.47939,3503.84292 1136.23006,3504.89424 1135.70331,3505.65414 L1135.70331,3505.65414 L1134.31441,3504.69473 C1134.96947,3503.75325 1136.30434,3502.6302 1137.5987,3501.54526 C1138.35505,3500.9064 1139.1024,3500.27875 1139.66966,3499.72059 L1139.66966,3499.72059 Z M1153.61807,3498.93109 L1155.04298,3499.8367 C1153.40422,3502.3899 1149.35683,3504.16526 1146.66457,3504.16526 C1146.50025,3504.16526 1146.34267,3504.15854 1146.19185,3504.14509 L1146.19185,3504.14509 L1146.33592,3502.46836 C1148.49918,3502.67235 1152.25393,3501.05838 1153.61807,3498.93109 L1153.61807,3498.93109 Z M1152.59902,3496.11114 L1154.18601,3496.68051 C1153.23381,3499.31217 1149.14365,3500.79387 1146.39737,3500.79387 C1146.27131,3500.79387 1146.15201,3500.78939 1146.0327,3500.78266 L1146.0327,3500.78266 L1146.12049,3499.10594 C1148.21622,3499.1687 1151.9237,3497.97392 1152.59902,3496.11114 L1152.59902,3496.11114 Z M1152.0205,3491.86149 L1153.639,3492.33447 C1153.2158,3493.77134 1151.30691,3495.14769 1149.60062,3495.87622 C1148.99508,3496.13625 1148.02938,3496.47249 1147.10645,3496.47249 C1146.67425,3496.47249 1146.25106,3496.40076 1145.87963,3496.21022 L1145.87963,3496.21022 L1146.64724,3494.71282 C1146.96239,3494.87646 1147.79753,3494.82042 1148.93431,3494.33174 C1150.60008,3493.62115 1151.83141,3492.49586 1152.0205,3491.86149 L1152.0205,3491.86149 Z M1150.51184,3487.58583 L1152.14385,3488.01846 C1151.65988,3489.83417 1147.17579,3492.57118 1145.41321,3492.57118 C1145.30291,3492.57118 1145.20162,3492.55997 1145.11383,3492.5398 L1145.11383,3492.5398 L1145.32767,3491.72161 L1145.4875,3490.90118 L1145.50326,3490.90118 C1146.45545,3490.90118 1150.25747,3488.53851 1150.51184,3487.58583 L1150.51184,3487.58583 Z M1150.89947,3483.62758 L1152.50897,3484.12971 C1151.8179,3486.31528 1148.10367,3487.13347 1145.64552,3487.6737 L1145.64552,3487.6737 L1144.77437,3487.87096 L1144.37593,3486.23907 L1145.28085,3486.03284 C1146.97589,3485.66073 1150.50104,3484.88289 1150.89947,3483.62758 L1150.89947,3483.62758 Z M1149.59724,3479.29903 L1151.18648,3479.8684 C1150.49541,3481.77825 1147.90895,3483.06046 1145.90102,3483.06046 C1145.73669,3483.06046 1145.57462,3483.05149 1145.41929,3483.03356 L1145.41929,3483.03356 L1145.60838,3481.36131 C1146.99053,3481.53392 1149.13127,3480.5745 1149.59724,3479.29903 L1149.59724,3479.29903 Z M1149.66995,3475.78507 L1151.11287,3476.65706 C1150.26423,3478.05358 1147.5202,3479.13404 1145.6946,3479.13404 C1145.53027,3479.13404 1145.37044,3479.12732 1145.22413,3479.10939 L1145.22413,3479.10939 L1145.43122,3477.44162 C1146.6648,3477.59854 1149.16121,3476.61895 1149.66995,3475.78507 L1149.66995,3475.78507 Z M1150.0407,3471.65153 L1151.1167,3472.94719 C1149.36313,3474.38854 1146.84196,3474.60822 1144.81376,3474.78531 L1144.81376,3474.78531 L1144.4626,3474.81669 L1144.31403,3473.14445 L1144.66744,3473.11082 C1146.55382,3472.94719 1148.69232,3472.76113 1150.0407,3471.65153 L1150.0407,3471.65153 Z M1149.06577,3467.82689 L1150.59198,3468.54869 C1149.83112,3470.13351 1147.16138,3470.73426 1145.72071,3470.73426 C1145.51811,3470.73426 1145.34253,3470.72305 1145.19846,3470.6984 L1145.19846,3470.6984 L1145.45734,3469.0396 C1146.29698,3469.15392 1148.68984,3468.61145 1149.06577,3467.82689 L1149.06577,3467.82689 Z M1149.57991,3465.1903 L1150.82474,3466.32904 C1149.66995,3467.57762 1147.55396,3467.7435 1145.71936,3467.7435 C1145.36819,3467.7435 1145.02829,3467.73678 1144.70413,3467.73005 L1144.70413,3467.73005 L1143.83073,3467.72108 L1143.82172,3466.03987 C1144.0851,3466.03539 1144.407,3466.04436 1144.73565,3466.04884 C1146.32714,3466.08695 1148.72226,3466.11833 1149.57991,3465.1903 L1149.57991,3465.1903 Z M1147.83557,3461.52526 L1149.19295,3462.52054 C1148.21825,3463.84533 1146.43992,3463.99776 1145.11405,3463.99776 C1144.8957,3463.99776 1144.69085,3463.99328 1144.50176,3463.98879 L1144.50176,3463.98879 L1144.02229,3463.98431 L1144.00203,3462.3031 L1144.53778,3462.30983 C1145.53275,3462.32776 1147.21428,3462.36138 1147.83557,3461.52526 L1147.83557,3461.52526 Z M1147.93011,3457.49484 L1149.09841,3458.70755 C1148.01565,3459.73869 1145.9762,3459.89561 1144.84843,3459.89561 C1144.52428,3459.89561 1144.27666,3459.88216 1144.1461,3459.87319 L1144.1461,3459.87319 L1144.2564,3458.19646 C1145.36842,3458.26595 1147.25255,3458.14042 1147.93011,3457.49484 L1147.93011,3457.49484 Z M1144.74645,3454.38863 C1145.54783,3454.25413 1146.74989,3454.05015 1147.77637,3454.29448 L1147.77637,3454.29448 L1147.38018,3455.92862 C1146.69586,3455.76722 1145.69415,3455.9331 1145.03234,3456.04742 C1144.82074,3456.08329 1144.6384,3456.11467 1144.49209,3456.13261 L1144.49209,3456.13261 L1144.28499,3454.46484 C1144.41105,3454.44915 1144.56862,3454.42001 1144.74645,3454.38863 Z M1144.11346,3450.02465 C1145.11518,3450.3878 1147.57107,3450.40573 1148.35669,3450.04931 L1148.35669,3450.04931 L1149.05001,3451.58033 C1148.42647,3451.86278 1147.4135,3451.99055 1146.38477,3451.99055 C1145.30652,3451.99055 1144.2125,3451.84933 1143.53719,3451.60499 L1143.53719,3451.60499 Z M1143.75464,3445.92317 C1144.50199,3446.21234 1145.88639,3446.47012 1146.41088,3445.93438 L1146.41088,3445.93438 L1147.61969,3447.10674 C1147.00516,3447.73888 1146.17452,3447.93166 1145.39566,3447.93166 C1144.37143,3447.93166 1143.42599,3447.5999 1143.14461,3447.49006 L1143.14461,3447.49006 Z M1144.36873,3440.91921 C1144.72664,3441.29132 1146.54324,3441.83379 1146.9912,3441.64101 L1146.9912,3441.64101 L1148.25629,3442.72147 C1147.90738,3443.19445 1147.33336,3443.35361 1146.71432,3443.35361 C1146.20558,3443.35361 1145.66983,3443.24825 1145.19937,3443.11375 C1144.33496,3442.87166 1142.87628,3442.31798 1142.7975,3441.35633 L1142.7975,3441.35633 L1144.48128,3441.21959 C1144.46777,3441.05371 1144.39574,3440.94611 1144.36873,3440.91921 Z M1143.32762,3436.52632 C1143.7193,3436.5577 1144.14025,3436.6922 1144.54544,3436.81997 C1144.86959,3436.92533 1145.48412,3437.12483 1145.65745,3437.06655 L1145.65745,3437.06655 L1147.27821,3437.34899 C1147.13864,3438.02372 1146.77172,3438.3622 1146.48809,3438.52808 C1146.20446,3438.69172 1145.89832,3438.75224 1145.58542,3438.75224 C1145.06768,3438.75224 1144.52743,3438.57964 1144.02994,3438.42273 C1143.7148,3438.32185 1143.3929,3438.21874 1143.19931,3438.20305 L1143.19931,3438.20305 Z M1144.44639,3431.9745 C1144.5747,3432.05071 1144.73002,3432.15607 1144.9056,3432.27263 C1145.20949,3432.47886 1145.92758,3432.96081 1146.18645,3432.96529 L1146.18645,3432.96529 C1146.10991,3432.96529 1145.98836,3433.03926 1145.95684,3433.10651 L1145.95684,3433.10651 L1147.66314,3433.176 C1147.55734,3434.00988 1147.12964,3434.36854 1146.79198,3434.52097 C1146.59389,3434.61064 1146.38904,3434.65098 1146.1842,3434.65098 C1145.41884,3434.65098 1144.62422,3434.11524 1143.96016,3433.66467 C1143.81384,3433.57053 1143.68553,3433.47862 1143.57973,3433.4181 L1143.57973,3433.4181 Z M1143.57231,3427.12118 C1144.02252,3426.85218 1144.4232,3427.06289 1144.81038,3427.27136 C1145.63427,3427.7152 1145.93141,3427.76228 1146.05747,3427.73986 L1146.05747,3427.73986 L1147.60844,3428.34061 C1147.36532,3428.94585 1146.93988,3429.20812 1146.62923,3429.3202 C1146.42664,3429.39193 1146.21954,3429.42331 1146.01019,3429.42331 C1145.25609,3429.42331 1144.49974,3429.01534 1144.00901,3428.75083 C1143.91221,3428.69927 1143.83343,3428.65444 1143.78165,3428.63202 L1143.78165,3428.63202 L1144.07879,3427.94385 Z M1144.22218,3422.28713 L1144.64088,3422.69735 C1144.92676,3422.97979 1145.44901,3423.49312 1145.66736,3423.54916 C1145.57957,3423.52226 1145.40849,3423.58951 1145.35221,3423.67021 L1145.35221,3423.67021 L1146.79964,3424.53996 C1146.56553,3424.92551 1146.20536,3425.16537 1145.79342,3425.21917 C1145.73489,3425.22365 1145.67861,3425.22589 1145.62234,3425.22589 C1144.85473,3425.22589 1144.17716,3424.60272 1143.61665,3424.05353 C1143.42531,3423.95489 1143.26549,3423.78453 1143.20021,3423.49088 L1143.20021,3423.49088 L1143.68869,3422.53371 L1144.22218,3422.28713 Z M1144.98687,3418.85343 C1145.1737,3418.99913 1145.78149,3419.24347 1145.96607,3419.18967 C1145.90755,3419.20312 1145.81975,3419.28606 1145.80175,3419.34658 L1145.80175,3419.34658 L1147.47653,3418.96327 C1147.6251,3420.21857 1146.87099,3420.76777 1146.17992,3420.85743 C1146.12139,3420.8664 1146.05386,3420.86864 1145.98408,3420.86864 C1145.15119,3420.86864 1143.6655,3420.33738 1143.55295,3419.55057 L1143.55295,3419.55057 L1144.38809,3419.43176 Z M1144.88354,3414.14872 L1145.48457,3414.1689 C1146.09011,3414.35047 1146.26794,3414.29891 1146.31296,3414.28546 L1146.31296,3414.28546 L1147.36645,3415.59457 C1147.00853,3415.8927 1146.57858,3415.98461 1146.17114,3415.98461 C1145.68717,3415.98461 1145.24146,3415.85011 1145.0051,3415.78286 L1145.0051,3415.78286 L1145.16042,3415.02071 L1144.88354,3414.14872 Z M1147.88577,3407.27055 L1149.52228,3407.68525 C1149.1441,3409.16023 1147.64716,3409.72064 1146.32579,3410.22052 C1145.49515,3410.5321 1144.64201,3410.85265 1144.34487,3411.30322 L1144.34487,3411.30322 L1142.93346,3410.37743 C1143.53224,3409.47182 1144.64876,3409.05488 1145.72701,3408.6469 C1146.71072,3408.27704 1147.72594,3407.89596 1147.88577,3407.27055 L1147.88577,3407.27055 Z M1147.00268,3403.5006 L1148.15297,3404.73125 C1147.44389,3405.39029 1146.58624,3405.8005 1145.75785,3406.19951 C1145.02851,3406.55144 1144.33744,3406.88544 1143.83545,3407.34722 L1143.83545,3407.34722 L1142.68967,3406.11657 C1143.37399,3405.48219 1144.21138,3405.07646 1145.02401,3404.68642 C1145.77136,3404.32552 1146.47819,3403.98704 1147.00268,3403.5006 L1147.00268,3403.5006 Z M1146.95811,3398.82729 L1148.57661,3399.30923 C1148.25922,3400.38072 1146.85906,3401.0689 1144.91866,3401.9252 C1144.4662,3402.12246 1143.84491,3402.39594 1143.70309,3402.51026 C1143.86742,3402.378 1144.03175,3401.93641 1143.75487,3401.5643 L1143.75487,3401.5643 L1142.39748,3402.55957 L1142.24666,3401.77277 C1142.40199,3401.19219 1142.976,3400.94113 1144.23434,3400.38521 C1144.99294,3400.05345 1146.76677,3399.27337 1146.95811,3398.82729 L1146.95811,3398.82729 Z M1146.5509,3393.18492 L1148.22568,3393.3777 C1147.99157,3395.38842 1146.10519,3396.44198 1144.59023,3397.28931 C1144.21431,3397.50003 1143.85189,3397.70177 1143.54124,3397.90576 L1143.54124,3397.90576 L1142.60931,3396.50475 C1142.95372,3396.27835 1143.34765,3396.05643 1143.7641,3395.8233 C1145.06745,3395.09477 1146.41583,3394.34159 1146.5509,3393.18492 L1146.5509,3393.18492 Z M1146.43857,3388.06305 L1147.96478,3388.78485 C1147.22418,3390.33829 1145.49538,3391.46134 1144.10873,3392.36023 L1144.10873,3392.36023 L1143.91064,3392.49024 L1142.98771,3391.08475 L1143.18805,3390.95249 C1144.33384,3390.20828 1145.90282,3389.18834 1146.43857,3388.06305 L1146.43857,3388.06305 Z M1146.05972,3383.21847 L1147.59268,3383.91786 C1147.27979,3384.59706 1146.50542,3385.29197 1145.75357,3385.96445 C1145.35064,3386.32535 1144.7406,3386.87006 1144.6393,3387.07629 L1144.6393,3387.07629 L1142.98478,3386.99111 C1142.92851,3386.2312 1143.64209,3385.59458 1144.6258,3384.71139 C1145.1593,3384.23392 1145.89089,3383.57937 1146.05972,3383.21847 L1146.05972,3383.21847 Z M1145.79567,3378.87176 L1147.48396,3378.92331 C1147.43668,3380.3714 1146.28865,3381.20528 1145.36347,3381.87552 C1144.93577,3382.1871 1144.53283,3382.48076 1144.30772,3382.77217 L1144.30772,3382.77217 L1142.9706,3381.74775 C1143.34202,3381.2658 1143.86202,3380.88473 1144.3685,3380.51934 C1145.2194,3379.90066 1145.77766,3379.45233 1145.79567,3378.87176 L1145.79567,3378.87176 Z M1145.24033,3375.55551 L1146.53919,3376.63373 C1146.30508,3376.90945 1145.89539,3377.25241 1145.46319,3377.60659 C1145.11653,3377.88903 1144.46822,3378.41581 1144.36468,3378.62876 C1144.40745,3378.53686 1144.40519,3378.28804 1144.24312,3378.1244 L1144.24312,3378.1244 L1143.03431,3379.29677 C1142.8002,3379.0614 1142.68539,3378.74757 1142.70115,3378.42029 C1142.74617,3377.6447 1143.51153,3377.02377 1144.39394,3376.30421 C1144.73385,3376.02849 1145.06025,3375.77071 1145.24033,3375.55551 L1145.24033,3375.55551 Z M1144.54521,3372.60398 L1146.10969,3373.23835 C1145.84857,3373.87273 1145.21827,3374.45779 1144.66452,3374.97336 C1144.45517,3375.16838 1144.26608,3375.33202 1144.17829,3375.45083 L1144.17829,3375.45083 L1143.57276,3375.02044 L1142.89969,3375.80052 L1142.58229,3375.12803 C1142.57104,3374.61919 1142.92671,3374.28967 1143.51423,3373.74496 C1143.85414,3373.42665 1144.4259,3372.89763 1144.54521,3372.60398 L1144.54521,3372.60398 Z M1145.38102,3367.9598 L1146.77217,3368.91473 C1146.41426,3369.43254 1145.8605,3369.85396 1145.32475,3370.26194 C1144.95107,3370.54662 1144.32978,3371.02409 1144.27126,3371.23704 L1144.27126,3371.23704 L1142.62799,3370.86493 C1142.81033,3370.06243 1143.56668,3369.4841 1144.29827,3368.92593 C1144.72822,3368.59866 1145.17618,3368.25793 1145.38102,3367.9598 L1145.38102,3367.9598 Z M1145.14444,3364.11789 L1146.63463,3364.91143 C1146.39377,3365.36199 1145.85352,3365.92464 1145.30652,3366.46711 L1145.30652,3366.46711 L1143.96264,3365.42924 L1144.11571,3365.27681 C1144.69648,3364.70071 1145.04089,3364.31067 1145.14444,3364.11789 L1145.14444,3364.11789 Z M1143.84513,3360.91732 L1145.30606,3361.75792 C1145.04945,3362.20176 1144.70729,3362.5111 1144.43266,3362.76441 C1144.07024,3363.09168 1143.93067,3363.23739 1143.91717,3363.4481 L1143.91717,3363.4481 L1142.23338,3363.3405 C1142.29416,3362.43265 1142.87043,3361.90587 1143.29138,3361.52255 C1143.51198,3361.32305 1143.71682,3361.13475 1143.84513,3360.91732 L1143.84513,3360.91732 Z M1145.63202,3352.73228 L1147.27303,3353.13129 C1146.82057,3354.99407 1145.17055,3356.04987 1143.84693,3356.89944 L1143.84693,3356.89944 L1143.18963,3357.32535 L1143.15361,3357.27155 L1143.11309,3357.49571 C1143.05907,3357.49796 1143.00279,3357.49796 1142.94877,3357.49796 C1142.80245,3357.49796 1142.65388,3357.48899 1142.48055,3357.43967 L1142.48055,3357.43967 L1140.75849,3356.94428 L1142.23969,3355.93779 C1142.46029,3355.7876 1142.6944,3355.63742 1142.93301,3355.48499 C1144.11481,3354.72732 1145.33713,3353.945 1145.63202,3352.73228 L1145.63202,3352.73228 Z M1145.12418,3347.90586 L1146.65489,3348.62094 C1145.9278,3350.16989 1143.92662,3351.46779 1142.60526,3352.32633 L1142.60526,3352.32633 L1141.67557,3350.92083 C1142.77408,3350.21024 1144.60194,3349.02218 1145.12418,3347.90586 L1145.12418,3347.90586 Z M1144.60126,3342.60018 L1146.05319,3343.4632 C1145.35986,3344.61764 1144.42118,3345.52997 1143.514,3346.40869 L1143.514,3346.40869 L1142.92198,3346.98926 L1141.72667,3345.79897 L1142.33445,3345.20494 C1143.20336,3344.36433 1144.02274,3343.5708 1144.60126,3342.60018 L1144.60126,3342.60018 Z M1144.39732,3338.14206 L1145.87851,3338.95352 C1145.50708,3339.62377 1144.85878,3340.2021 1144.28476,3340.71319 C1143.96962,3340.99339 1143.54192,3341.37447 1143.44962,3341.55155 L1143.44962,3341.55155 L1141.95043,3340.77596 C1142.18453,3340.32763 1142.637,3339.92414 1143.15924,3339.46013 C1143.63196,3339.0387 1144.16546,3338.56124 1144.39732,3338.14206 L1144.39732,3338.14206 Z M1143.54552,3333.44722 L1145.2293,3333.56154 C1145.16177,3334.55458 1144.54048,3335.37501 1144.08802,3335.97128 C1143.97097,3336.12371 1143.86742,3336.2582 1143.79539,3336.37477 L1143.79539,3336.37477 L1142.35696,3335.49381 C1142.45151,3335.33914 1142.58882,3335.15981 1142.73964,3334.95807 C1143.08405,3334.50526 1143.51175,3333.94037 1143.54552,3333.44722 L1143.54552,3333.44722 Z M1143.76657,3328.78578 L1145.38508,3329.261 C1145.07443,3330.30784 1144.22354,3330.98032 1143.47168,3331.57435 L1143.47168,3331.57435 L1143.05524,3331.90835 L1141.97023,3330.61942 L1142.4227,3330.25628 C1143.00572,3329.79675 1143.60675,3329.32377 1143.76657,3328.78578 L1143.76657,3328.78578 Z M1144.09297,3324.40253 L1145.4346,3325.42246 C1144.92361,3326.08374 1144.04795,3326.54327 1143.39965,3326.81002 L1143.39965,3326.81002 L1142.7536,3325.25658 C1143.3884,3324.99431 1143.87912,3324.68273 1144.09297,3324.40253 L1144.09297,3324.40253 Z M1145.38913,3319.56736 L1146.76452,3320.54022 C1146.24903,3321.26651 1145.4364,3321.92778 1144.65304,3322.56664 C1143.77062,3323.2862 1142.76891,3324.09991 1142.57307,3324.77239 L1142.57307,3324.77239 L1140.95006,3324.30165 C1141.29447,3323.12929 1142.45826,3322.18109 1143.58379,3321.26427 C1144.28161,3320.69714 1145.00195,3320.10983 1145.38913,3319.56736 L1145.38913,3319.56736 Z M1146.99615,3315.52147 L1148.15995,3316.73867 C1147.54316,3317.32597 1146.672,3317.8124 1145.75132,3318.32573 C1144.56502,3318.99149 1143.21889,3319.74243 1142.93076,3320.52924 L1142.93076,3320.52924 L1141.34377,3319.95314 C1141.84575,3318.58128 1143.41248,3317.70705 1144.92519,3316.86196 C1145.75132,3316.40018 1146.53244,3315.96307 1146.99615,3315.52147 L1146.99615,3315.52147 Z M1149.05136,3305.81707 L1150.22866,3307.01858 C1149.70417,3307.52967 1148.6079,3308.25371 1147.33606,3309.08983 C1145.82336,3310.08735 1143.00729,3311.94341 1142.78894,3312.63158 L1142.78894,3312.63158 L1141.10516,3312.60692 C1141.06914,3311.34714 1142.77543,3310.08062 1146.40413,3307.68882 C1147.55441,3306.93115 1148.63717,3306.21608 1149.05136,3305.81707 L1149.05136,3305.81707 Z M1148.06383,3302.80412 L1149.22537,3304.02804 C1147.98954,3305.18695 1146.54662,3306.0836 1145.15322,3306.9511 C1143.78908,3307.79844 1142.49923,3308.60093 1141.44799,3309.60069 L1141.44799,3309.60069 L1140.2842,3308.38574 C1141.45925,3307.26493 1142.88191,3306.38173 1144.25955,3305.52544 C1145.58317,3304.70276 1146.95406,3303.85095 1148.06383,3302.80412 L1148.06383,3302.80412 Z M1143.86472,3301.66717 L1145.28513,3302.57502 C1144.64133,3303.57478 1143.31546,3304.19795 1141.91306,3304.85923 C1140.67273,3305.44205 1139.13301,3306.16833 1139.03622,3306.90134 L1139.03622,3306.90134 L1137.35918,3306.68166 C1137.57979,3305.03856 1139.41664,3304.1733 1141.19047,3303.33941 C1142.26422,3302.83281 1143.48204,3302.25896 1143.86472,3301.66717 L1143.86472,3301.66717 Z M1139.24511,3301.01374 L1140.52821,3302.10765 C1139.90017,3302.83841 1139.06503,3303.28449 1138.25915,3303.71713 C1137.51406,3304.11613 1136.81173,3304.49048 1136.46282,3305.01278 L1136.46282,3305.01278 L1135.05591,3304.08475 C1135.63668,3303.21052 1136.56186,3302.71512 1137.46003,3302.23542 C1138.16011,3301.86107 1138.82192,3301.50689 1139.24511,3301.01374 L1139.24511,3301.01374 Z M1148.71235,3297.18887 L1149.06802,3298.83197 C1148.39721,3298.97768 1147.6341,3299.46635 1147.12086,3299.82277 L1147.12086,3299.82277 L1146.15741,3298.44193 C1146.84623,3297.96671 1147.75566,3297.3951 1148.71235,3297.18887 L1148.71235,3297.18887 Z M1149.06847,3294.05823 L1149.63348,3295.6565 L1149.42639,3295.70134 C1148.44043,3295.91429 1145.81795,3296.48142 1145.24168,3297.21891 L1145.24168,3297.21891 L1143.90906,3296.18777 C1144.78697,3295.06247 1147.03352,3294.49759 1149.06847,3294.05823 L1149.06847,3294.05823 Z M1152.90336,3287.98458 L1153.88031,3289.35644 C1151.03048,3291.36717 1147.843,3292.43418 1144.76356,3293.46532 C1144.10626,3293.685 1143.4467,3293.90468 1142.79164,3294.13557 L1142.79164,3294.13557 L1142.23338,3292.5485 C1142.89519,3292.31762 1143.5615,3292.09346 1144.22556,3291.87154 C1147.32751,3290.83367 1150.25837,3289.85184 1152.90336,3287.98458 L1152.90336,3287.98458 Z M1158.13412,3281.64977 L1159.15385,3282.99026 C1155.53866,3285.7183 1150.86548,3287.33899 1146.76857,3288.56291 C1146.05049,3288.77811 1145.27162,3289.11883 1144.44774,3289.47749 C1143.09486,3290.06928 1141.69471,3290.68124 1140.34633,3290.81574 L1140.34633,3290.81574 L1140.1775,3289.14349 C1141.2625,3289.03365 1142.5366,3288.47773 1143.77017,3287.9375 C1144.60306,3287.57436 1145.46521,3287.19777 1146.2846,3286.95119 C1150.23519,3285.7721 1154.73053,3284.21866 1158.13412,3281.64977 L1158.13412,3281.64977 Z M1122.94616,3284.11667 C1125.00137,3285.38094 1128.29016,3286.75057 1130.80908,3286.47485 L1130.80908,3286.47485 L1130.99817,3288.14485 C1130.71229,3288.17847 1130.4219,3288.19192 1130.12701,3288.19192 C1127.37173,3288.19192 1124.22026,3286.8761 1122.057,3285.54682 L1122.057,3285.54682 Z M1163.57018,3274.18049 L1164.59891,3275.51649 C1159.99776,3279.02686 1155.17827,3281.61368 1149.42909,3283.65579 C1148.05595,3284.14446 1146.63779,3284.58382 1145.21737,3285.02318 C1143.09688,3285.67997 1140.90661,3286.35918 1138.90318,3287.20427 L1138.90318,3287.20427 L1138.24362,3285.65531 C1140.32584,3284.77884 1142.55663,3284.08618 1144.71539,3283.41818 C1146.11329,3282.98555 1147.50894,3282.55292 1148.86182,3282.07321 C1154.43992,3280.09162 1159.11535,3277.58326 1163.57018,3274.18049 L1163.57018,3274.18049 Z M1167.25402,3266.26019 L1168.04189,3267.74638 C1166.54719,3268.53094 1165.03674,3269.75486 1163.57581,3270.9362 C1162.63037,3271.70283 1161.69168,3272.46049 1160.76425,3273.10384 C1157.69607,3275.23337 1154.45005,3276.6568 1151.38637,3277.93452 C1148.80217,3279.01273 1146.01987,3280.11561 1142.62529,3281.40454 C1142.3214,3281.51886 1141.97699,3281.63318 1141.61457,3281.75199 C1140.6061,3282.08599 1139.35001,3282.50069 1138.82102,3283.07678 L1138.82102,3283.07678 L1137.57619,3281.93804 C1138.40232,3281.0414 1139.82724,3280.57066 1141.08332,3280.15596 C1141.42098,3280.04612 1141.74063,3279.94076 1142.02201,3279.83317 C1145.39858,3278.55096 1148.16737,3277.45481 1150.73582,3276.38332 C1153.71396,3275.14147 1156.86768,3273.75839 1159.7963,3271.72524 C1160.69221,3271.10208 1161.59714,3270.37131 1162.51106,3269.63158 C1164.03727,3268.39869 1165.61301,3267.12097 1167.25402,3266.26019 L1167.25402,3266.26019 Z M1121.58135,3279.34315 C1123.47674,3279.37005 1125.57021,3280.04029 1127.41832,3280.63208 L1127.41832,3280.63208 L1128.35476,3280.93021 L1127.85278,3282.53521 L1126.89833,3282.23259 C1125.16727,3281.67667 1123.20211,3281.04678 1121.55884,3281.02436 L1121.55884,3281.02436 Z M1170.65423,3259.32441 L1172.14893,3260.11121 C1170.9131,3262.44025 1168.35366,3263.86816 1166.09586,3265.12795 C1165.54885,3265.43505 1165.01535,3265.73094 1164.52463,3266.02908 C1163.16274,3266.85847 1161.85713,3267.75736 1160.55152,3268.65625 C1158.50307,3270.06174 1156.38708,3271.51879 1154.07976,3272.68443 C1148.77628,3275.36316 1142.5949,3277.29992 1137.13836,3279.01251 L1137.13836,3279.01251 L1136.63187,3277.40751 C1142.02539,3275.71734 1148.13698,3273.80076 1153.3144,3271.18479 C1155.52268,3270.07071 1157.59139,3268.64728 1159.59258,3267.27093 C1160.92295,3266.35635 1162.25782,3265.43953 1163.64447,3264.59668 C1164.1532,3264.2851 1164.70246,3263.978 1165.27197,3263.66193 C1167.32493,3262.51647 1169.65027,3261.21633 1170.65423,3259.32441 L1170.65423,3259.32441 Z M1120.08553,3275.00899 C1120.83963,3275.07399 1121.58698,3275.19952 1122.33208,3275.32505 C1123.64219,3275.54473 1124.87801,3275.74872 1126.15661,3275.62991 L1126.15661,3275.62991 L1126.31869,3277.30216 C1125.99679,3277.33354 1125.68164,3277.34699 1125.36649,3277.34699 C1124.21621,3277.34699 1123.11995,3277.16094 1122.0507,3276.98161 C1121.35062,3276.86504 1120.64829,3276.744 1119.94146,3276.68347 L1119.94146,3276.68347 Z M1170.78322,3252.97839 L1172.01905,3254.1261 C1167.42465,3259.033 1160.7773,3263.20688 1156.00733,3265.84526 L1156.00733,3265.84526 L1154.66795,3266.58948 C1151.41294,3268.4007 1148.04312,3270.2747 1144.52923,3271.7026 C1143.92144,3271.94918 1143.24163,3272.17558 1142.5393,3272.41095 C1140.76322,3273.00274 1138.92862,3273.6147 1137.85937,3274.69068 L1137.85937,3274.69068 L1136.65956,3273.51159 C1138.01019,3272.14644 1140.13293,3271.44033 1142.00355,3270.81492 C1142.66986,3270.593 1143.31591,3270.38005 1143.89218,3270.14692 C1147.30927,3268.75712 1150.63182,3266.90779 1153.84632,3265.12122 L1153.84632,3265.12122 L1155.1857,3264.37476 C1159.84987,3261.79691 1166.33965,3257.72613 1170.78322,3252.97839 L1170.78322,3252.97839 Z M1124.65854,3270.11845 L1125.3271,3271.66069 C1124.50322,3272.01486 1123.41596,3272.09556 1122.32195,3272.09556 C1121.84698,3272.09556 1121.36975,3272.08211 1120.91279,3272.06642 C1120.49184,3272.05297 1120.08215,3272.03952 1119.70398,3272.03952 L1119.70398,3272.03952 L1119.70398,3270.35831 C1120.10016,3270.35831 1120.52561,3270.37176 1120.96682,3270.38521 C1122.29719,3270.42556 1123.82115,3270.47711 1124.65854,3270.11845 L1124.65854,3270.11845 Z M1170.67494,3247.70656 L1172.12687,3248.5651 C1171.05087,3250.37184 1169.5044,3251.48817 1168.00745,3252.56638 C1167.41542,3252.99453 1166.81664,3253.42268 1166.24488,3253.90239 L1166.24488,3253.90239 L1166.06704,3254.05033 C1163.77773,3255.96691 1161.40737,3257.94626 1158.84343,3259.6611 C1154.66323,3262.46087 1150.39299,3264.69576 1146.49867,3266.12367 C1145.8031,3266.37697 1145.10527,3266.61683 1144.40745,3266.85444 C1142.15865,3267.61883 1140.03591,3268.34287 1138.08875,3269.58024 L1138.08875,3269.58024 L1137.18158,3268.1613 C1139.29981,3266.81857 1141.6184,3266.02728 1143.86044,3265.26289 C1144.54701,3265.02976 1145.23358,3264.79664 1145.9134,3264.54558 C1149.68616,3263.16474 1153.83259,3260.99262 1157.90249,3258.26681 C1160.3899,3256.60129 1162.72424,3254.65109 1164.98204,3252.76365 L1164.98204,3252.76365 L1165.15987,3252.6157 C1165.7654,3252.10909 1166.39345,3251.65405 1167.01699,3251.20572 C1168.4374,3250.18131 1169.77677,3249.21517 1170.67494,3247.70656 L1170.67494,3247.70656 Z M1118.58138,3266.03042 L1118.90778,3266.0775 C1120.32819,3266.28821 1122.09752,3266.55272 1123.08348,3266.09767 L1123.08348,3266.09767 L1123.79031,3267.62421 C1123.13975,3267.92459 1122.36539,3268.02546 1121.56177,3268.02546 C1120.58256,3268.02546 1119.56059,3267.87527 1118.66017,3267.74077 L1118.66017,3267.74077 L1118.33376,3267.6937 L1118.58138,3266.03042 Z M1171.68229,3242.95187 L1172.61872,3244.35064 C1170.40594,3245.82338 1168.25394,3247.53373 1166.16947,3249.18805 C1163.83063,3251.04635 1161.41075,3252.96741 1158.8333,3254.62172 C1154.66435,3257.29373 1150.58095,3259.52413 1146.68888,3261.25018 C1145.89426,3261.60435 1145.05912,3261.92939 1144.21273,3262.2589 C1142.13276,3263.06589 1139.98076,3263.90425 1138.3555,3265.22456 L1138.3555,3265.22456 L1137.2885,3263.92218 C1139.1186,3262.43375 1141.39667,3261.54831 1143.59819,3260.69201 C1144.41983,3260.37146 1145.23246,3260.05764 1146.00457,3259.71467 C1149.81334,3258.02449 1153.82246,3255.83443 1157.91937,3253.20726 C1160.42704,3251.60002 1162.8109,3249.70586 1165.11598,3247.87446 C1167.22521,3246.19773 1169.40873,3244.46496 1171.68229,3242.95187 L1171.68229,3242.95187 Z M1117.77325,3261.71957 C1118.75921,3262.02219 1120.58481,3262.58483 1121.47173,3262.0984 L1121.47173,3262.0984 L1122.28886,3263.5689 C1121.75536,3263.86256 1121.14758,3263.97239 1120.52403,3263.97239 C1119.37825,3263.97239 1118.17844,3263.60477 1117.27577,3263.32681 L1117.27577,3263.32681 Z M1171.02318,3237.98311 L1172.15321,3239.23169 C1169.69731,3241.43968 1166.92402,3243.37195 1164.23852,3245.23922 C1162.6898,3246.31519 1161.14107,3247.39341 1159.64863,3248.52542 C1156.09422,3251.2176 1151.83523,3254.27293 1147.18231,3256.51678 C1145.978,3257.09736 1144.74893,3257.62862 1143.51986,3258.15764 C1141.75053,3258.91979 1139.92043,3259.70884 1138.22989,3260.63911 L1138.22989,3260.63911 L1137.41276,3259.16861 C1139.17533,3258.19799 1141.04145,3257.39325 1142.84904,3256.61541 C1144.05561,3256.09536 1145.26217,3255.5753 1146.44847,3255.00369 C1150.96633,3252.8226 1155.13752,3249.83004 1158.62665,3247.18718 C1160.1371,3246.04172 1161.70384,3244.95005 1163.27057,3243.86062 C1165.9133,3242.0225 1168.64382,3240.12161 1171.02318,3237.98311 L1171.02318,3237.98311 Z M1117.30008,3256.82433 C1119.36204,3257.92048 1119.80325,3257.64028 1119.89779,3257.46992 L1119.89779,3257.46992 L1121.37448,3258.28138 C1120.95128,3259.04577 1120.28047,3259.3058 1119.56239,3259.3058 C1118.38734,3259.3058 1117.08173,3258.61314 1116.50546,3258.30828 L1116.50546,3258.30828 Z M1171.16905,3233.3526 L1172.38462,3234.52497 C1169.70812,3237.26871 1166.59492,3239.76811 1163.58301,3242.18233 C1162.82216,3242.79653 1162.0613,3243.40625 1161.3117,3244.01597 C1158.68248,3246.16119 1155.68858,3247.79085 1152.79148,3249.3667 C1151.79652,3249.90917 1150.8038,3250.45164 1149.8246,3251.01205 C1147.2629,3252.48031 1145.06138,3253.56749 1142.68427,3254.53811 C1142.35561,3254.67036 1141.9977,3254.80038 1141.62402,3254.93039 C1140.59754,3255.29353 1139.436,3255.70599 1138.81471,3256.36727 L1138.81471,3256.36727 L1137.58114,3255.2218 C1138.48381,3254.25791 1139.8502,3253.77372 1141.05901,3253.34781 C1141.40342,3253.22452 1141.73658,3253.10572 1142.04272,3252.98243 C1144.34779,3252.04095 1146.48854,3250.98515 1148.98045,3249.555 C1149.97317,3248.98787 1150.97713,3248.44092 1151.9811,3247.89396 C1154.80842,3246.35397 1157.73253,3244.76018 1160.24245,3242.71583 C1160.9943,3242.10387 1161.75741,3241.48967 1162.52502,3240.87322 C1165.4964,3238.49039 1168.56684,3236.02461 1171.16905,3233.3526 L1171.16905,3233.3526 Z M1117.63661,3251.88359 C1117.88198,3252.3095 1118.25565,3252.6166 1118.56405,3252.6435 C1118.64283,3252.65022 1118.82292,3252.66143 1119.05252,3252.38347 L1119.05252,3252.38347 L1120.35363,3253.45272 C1119.88316,3254.01985 1119.26862,3254.32471 1118.60682,3254.32471 C1118.54604,3254.32471 1118.48301,3254.32247 1118.41998,3254.31798 C1117.53982,3254.24177 1116.70018,3253.64326 1116.16893,3252.71523 L1116.16893,3252.71523 Z M1169.54109,3230.12221 L1170.6351,3231.40218 C1169.37901,3232.47143 1168.18821,3233.59672 1167.00191,3234.72425 C1164.92644,3236.69463 1162.77669,3238.73002 1160.26451,3240.42692 C1157.28863,3242.43765 1154.14166,3244.15248 1151.10049,3245.81128 L1151.10049,3245.81128 L1149.20511,3246.8469 C1148.45101,3247.2616 1147.63838,3247.76597 1146.78523,3248.28826 C1144.00293,3250.0031 1140.85146,3251.94209 1137.88233,3252.15056 L1137.88233,3252.15056 L1137.76302,3250.47384 C1140.32022,3250.29451 1143.2826,3248.46983 1145.89606,3246.86035 C1146.77397,3246.32012 1147.61136,3245.80455 1148.38798,3245.3764 L1148.38798,3245.3764 L1150.29011,3244.33629 C1153.43708,3242.62146 1156.40622,3241.00077 1159.31682,3239.03487 C1161.71419,3237.41643 1163.81217,3235.42812 1165.83811,3233.50705 C1167.04918,3232.35934 1168.25799,3231.21164 1169.54109,3230.12221 L1169.54109,3230.12221 Z M1118.08885,3247.02466 C1118.61334,3247.49316 1119.27515,3247.73974 1120.00449,3247.73974 L1120.00449,3247.73974 L1120.01125,3247.73974 L1120.01575,3249.42095 L1120.00449,3249.42095 C1118.85196,3249.42095 1117.80072,3249.02643 1116.96332,3248.27773 L1116.96332,3248.27773 Z M1167.9568,3226.46816 L1169.21739,3227.58672 C1166.33379,3230.80568 1161.73715,3234.01567 1158.38984,3236.14297 C1156.01048,3237.65157 1152.86802,3239.62644 1149.64451,3241.47801 C1148.71483,3242.01376 1147.6951,3242.5114 1146.65962,3243.01576 C1144.84077,3243.90344 1142.96115,3244.8225 1141.54749,3245.98142 L1141.54749,3245.98142 L1140.47599,3244.68576 C1142.04047,3243.39908 1144.01014,3242.43742 1145.91677,3241.50715 C1146.91624,3241.01848 1147.90445,3240.53877 1148.80037,3240.0232 C1151.99461,3238.18732 1155.11907,3236.22591 1157.48042,3234.72402 C1160.73994,3232.65501 1165.20152,3229.54365 1167.9568,3226.46816 L1167.9568,3226.46816 Z M1118.97846,3238.93355 C1119.43318,3239.29221 1119.85862,3239.36619 1120.2368,3239.16444 L1120.2368,3239.16444 L1121.03367,3240.64615 C1120.64199,3240.85462 1120.23005,3240.95773 1119.81135,3240.95773 C1119.17656,3240.95773 1118.53051,3240.72012 1117.93623,3240.25611 L1117.93623,3240.25611 Z M1162.69295,3223.49062 L1163.9783,3224.58453 C1161.4166,3227.55691 1158.02652,3229.84784 1154.74899,3232.06256 C1153.98814,3232.57813 1153.23179,3233.08697 1152.49344,3233.60254 C1150.19962,3235.20082 1147.61992,3236.69373 1144.12629,3238.43547 C1143.81339,3238.59238 1143.42396,3238.74705 1143.00977,3238.90621 C1142.23091,3239.21107 1141.2607,3239.58766 1140.95456,3240.02477 L1140.95456,3240.02477 L1139.57017,3239.06088 C1140.16894,3238.20682 1141.353,3237.74729 1142.39748,3237.34156 C1142.7554,3237.20258 1143.09531,3237.07032 1143.36994,3236.93358 C1146.78703,3235.22772 1149.30145,3233.77515 1151.52549,3232.22395 C1152.26834,3231.70614 1153.03144,3231.19057 1153.8013,3230.67051 C1156.98654,3228.51856 1160.28207,3226.29264 1162.69295,3223.49062 L1162.69295,3223.49062 Z M1120.55285,3235.22884 C1120.68116,3235.33643 1120.74869,3235.35437 1120.74869,3235.35437 L1120.74869,3235.35437 L1121.94625,3236.36534 C1121.60634,3236.83832 1121.19215,3236.98178 1120.90401,3237.01989 C1120.84098,3237.02885 1120.77345,3237.03334 1120.71042,3237.03334 C1120.29848,3237.03334 1119.88654,3236.86297 1119.4746,3236.52449 L1119.4746,3236.52449 Z M1158.52558,3220.18155 L1159.51379,3221.54221 C1157.42031,3223.05306 1155.36285,3224.71858 1153.37068,3226.33254 C1148.67273,3230.13656 1143.81497,3234.07059 1137.94648,3236.39963 L1137.94648,3236.39963 L1137.32294,3234.83947 C1142.94832,3232.60234 1147.70478,3228.75124 1152.30368,3225.02792 C1154.31386,3223.40051 1156.39383,3221.71705 1158.52558,3220.18155 L1158.52558,3220.18155 Z M1122.25689,3230.47773 C1122.93446,3230.81398 1123.58501,3231.33179 1124.087,3231.93254 L1124.087,3231.93254 L1122.78589,3233.00628 C1122.43247,3232.58037 1121.97776,3232.21723 1121.50504,3231.98186 L1121.50504,3231.98186 Z M1154.96172,3217.37773 L1156.32585,3218.36853 C1153.77766,3221.84303 1149.4579,3224.34916 1145.64462,3226.55715 C1145.03684,3226.91132 1144.44031,3227.25429 1143.8708,3227.59277 C1141.75256,3228.85256 1139.88419,3229.78507 1137.81322,3230.61671 C1137.5566,3230.71983 1137.28873,3230.81846 1137.01185,3230.92157 C1135.96511,3231.31161 1134.77656,3231.75321 1134.12825,3232.4526 L1134.12825,3232.4526 L1132.88792,3231.31386 C1133.8086,3230.31858 1135.1975,3229.80301 1136.42207,3229.34796 L1136.42207,3229.34796 L1137.18293,3229.05655 C1139.1706,3228.26078 1140.96469,3227.36413 1143.00639,3226.15142 C1143.58266,3225.80845 1144.18144,3225.461 1144.79598,3225.10458 C1148.46294,3222.97729 1152.62288,3220.56755 1154.96172,3217.37773 L1154.96172,3217.37773 Z M1132.80554,3226.17181 L1133.83427,3227.50782 C1132.79653,3228.29911 1131.65075,3228.76312 1130.54323,3229.21144 C1129.68558,3229.5589 1128.8752,3229.88841 1128.14586,3230.35019 L1128.14586,3230.35019 L1127.23869,3228.93124 C1128.09634,3228.38877 1129.01477,3228.01442 1129.90618,3227.65576 C1130.95742,3227.22762 1131.95014,3226.82637 1132.80554,3226.17181 L1132.80554,3226.17181 Z M1150.35674,3214.29327 L1151.55205,3215.47685 C1150.22843,3216.80388 1148.63244,3217.89106 1147.09047,3218.94238 C1146.12477,3219.59918 1145.16357,3220.25373 1144.28116,3220.95984 C1143.25468,3221.78251 1142.05712,3222.48189 1140.90234,3223.15662 C1139.39413,3224.03981 1137.97147,3224.8737 1136.92473,3225.93398 L1136.92473,3225.93398 L1135.72042,3224.75713 C1136.92248,3223.53545 1138.50947,3222.60742 1140.04694,3221.70854 C1141.20173,3221.03381 1142.29123,3220.39495 1143.22092,3219.65073 C1144.13935,3218.91548 1145.13656,3218.23627 1146.13828,3217.55258 C1147.61497,3216.54834 1149.14568,3215.50599 1150.35674,3214.29327 L1150.35674,3214.29327 Z M1146.01852,3211.8869 L1147.25885,3213.02564 C1145.1226,3215.32778 1142.35832,3217.14124 1139.68857,3218.89195 C1138.75889,3219.50166 1137.84046,3220.10466 1136.96255,3220.71886 C1134.03619,3222.76994 1130.62359,3224.95327 1127.49238,3225.60782 L1127.49238,3225.60782 L1127.14572,3223.96248 C1129.97529,3223.37069 1133.20555,3221.29496 1135.9901,3219.34475 C1136.88376,3218.71934 1137.8157,3218.10738 1138.76114,3217.48869 C1141.34759,3215.79179 1144.02409,3214.03661 1146.01852,3211.8869 L1146.01852,3211.8869 Z M1165.33973,3220.85089 L1166.58006,3221.99412 C1166.28067,3222.31467 1165.95427,3222.70695 1165.6999,3223.04543 L1165.6999,3223.04543 L1164.34702,3222.04119 C1164.63065,3221.66012 1165.00207,3221.21628 1165.33973,3220.85089 L1165.33973,3220.85089 Z M1140.67948,3211.99808 L1142.09539,3212.9149 C1141.05316,3214.51093 1138.66479,3215.79538 1136.55556,3216.92964 C1135.72942,3217.37348 1134.95281,3217.78817 1134.36079,3218.17822 C1133.82053,3218.52791 1133.18349,3218.83053 1132.50592,3219.15108 C1131.35338,3219.69803 1130.04552,3220.31896 1129.53229,3221.12594 L1129.53229,3221.12594 L1128.10287,3220.22481 C1128.87723,3219.00985 1130.42145,3218.27909 1131.78108,3217.6335 C1132.38887,3217.34658 1132.97189,3217.0731 1133.4311,3216.77272 C1134.0614,3216.36251 1134.87853,3215.92091 1135.75419,3215.45017 C1137.58879,3214.46386 1139.87361,3213.23545 1140.67948,3211.99808 L1140.67948,3211.99808 Z M1161.49269,3217.21836 L1162.54843,3218.5297 C1162.33683,3218.69782 1162.11398,3218.84801 1161.89112,3218.9982 C1161.45442,3219.29185 1161.07624,3219.54739 1160.91417,3219.89933 L1160.91417,3219.89933 L1159.3767,3219.20891 C1159.73237,3218.41986 1160.37842,3217.98499 1160.94793,3217.60391 C1161.13252,3217.48062 1161.31711,3217.35734 1161.49269,3217.21836 L1161.49269,3217.21836 Z M1134.11745,3211.79096 L1135.15068,3213.12024 C1134.60142,3213.5439 1133.9171,3214.00567 1133.19452,3214.4921 C1131.56476,3215.59049 1129.53656,3216.95564 1129.01882,3218.04506 L1129.01882,3218.04506 L1127.49261,3217.32775 C1128.20619,3215.82138 1130.2614,3214.4383 1132.24908,3213.09782 C1132.94015,3212.63605 1133.59295,3212.19669 1134.11745,3211.79096 L1134.11745,3211.79096 Z M1139.28878,3209.40274 L1139.73224,3211.02567 C1138.72377,3211.29915 1137.94941,3211.62642 1137.36414,3212.02767 L1137.36414,3212.02767 L1136.40519,3210.64235 C1137.15254,3210.13351 1138.09348,3209.72553 1139.28878,3209.40274 L1139.28878,3209.40274 Z" id="Grande-cuillere"></path>
        </g>
    </g>
</svg>