<svg xmlns="http://www.w3.org/2000/svg" xmlns:xlink="http://www.w3.org/1999/xlink"><symbol id="arrow-next" viewBox="0 0 22 10"><path d="M.75 5.75h11.5v4l9-4.5-9-4.5v4H.75z"/></symbol><symbol id="arrow-prev" viewBox="0 0 22 10"><path d="M21.25 5.75H9.75v4l-9-4.5 9-4.5v4h11.5z"/></symbol><symbol id="cross" viewBox="0 0 16 15"><path d="M15.425 2.197 10.12 7.5l5.304 5.303-2.122 2.122L8 9.62l-5.303 5.304-2.122-2.122L5.88 7.5.575 2.197 2.697.075 8 5.38 13.303.075l2.122 2.122Z"/></symbol><symbol id="Facebook" viewBox="0 0 31 31"><path d="M.5 15.5c0-8.284 6.716-15 15-15s15 6.716 15 15-6.716 15-15 15-15-6.716-15-15Z" fill="none" stroke="#FFF"/><path d="M16.487 24v-8.251h2.219L19 12.906h-2.513l.004-1.423c0-.742.069-1.14 1.106-1.14h1.387V7.5h-2.219c-2.665 0-3.604 1.38-3.604 3.699v1.707H11.5v2.843h1.661V24h3.326Z" fill="#FFF" fill-rule="evenodd"/></symbol><symbol id="Instagram" viewBox="0 0 31 31"><defs><clipPath id="b"><use xmlns:xlink="http://www.w3.org/1999/xlink" xlink:href="#a"/></clipPath><path d="M0 15C0 6.716 6.716 0 15 0s15 6.716 15 15-6.716 15-15 15S0 23.284 0 15Z" id="a"/></defs><path d="M.5 15.5c0-8.284 6.716-15 15-15s15 6.716 15 15-6.716 15-15 15-15-6.716-15-15Z" fill="none" stroke="#FFF"/><g clip-path="url(#b)" transform="translate(.5 .5)"><path d="M15 7c-2.172 0-2.445.01-3.298.048-.852.04-1.433.174-1.942.372a3.917 3.917 0 0 0-1.417.922A3.928 3.928 0 0 0 7.42 9.76c-.198.51-.333 1.09-.372 1.942-.038.854-.048 1.126-.048 3.3s.01 2.444.048 3.297c.04.852.174 1.433.372 1.942.204.526.478.972.923 1.417.444.445.89.719 1.416.923.51.198 1.09.333 1.942.372.854.039 1.126.048 3.299.048s2.444-.01 3.298-.048c.852-.04 1.434-.174 1.943-.372a3.916 3.916 0 0 0 1.416-.923c.445-.445.718-.891.923-1.417.197-.509.332-1.09.372-1.942.038-.853.048-1.125.048-3.298s-.01-2.445-.048-3.299c-.04-.851-.175-1.433-.372-1.941a3.926 3.926 0 0 0-.923-1.418 3.912 3.912 0 0 0-1.417-.922c-.51-.198-1.092-.333-1.943-.372C17.443 7.01 17.172 7 14.998 7h.003Zm-.717 1.442h.718c2.136 0 2.389.007 3.232.046.78.035 1.204.166 1.486.275.373.145.64.318.92.598.28.28.453.547.598.92.11.282.24.705.275 1.486.039.843.047 1.096.047 3.231s-.008 2.389-.047 3.232c-.035.78-.166 1.203-.275 1.485a2.47 2.47 0 0 1-.599.919c-.28.28-.546.453-.92.598-.28.11-.704.24-1.485.276-.843.038-1.096.047-3.232.047s-2.39-.009-3.233-.047c-.78-.036-1.203-.166-1.485-.276-.374-.145-.64-.318-.92-.598s-.454-.546-.6-.92c-.109-.281-.24-.705-.275-1.485-.038-.843-.046-1.096-.046-3.233 0-2.136.008-2.388.046-3.231.036-.78.166-1.204.276-1.486.145-.373.319-.64.599-.92s.546-.453.92-.598c.282-.11.705-.24 1.485-.276.738-.034 1.024-.044 2.515-.045v.002Zm4.988 1.328a.96.96 0 1 0 0 1.92.96.96 0 0 0 0-1.92Zm-4.27 1.122a4.109 4.109 0 1 0 0 8.217 4.109 4.109 0 0 0 0-8.217Zm0 1.441a2.667 2.667 0 1 1 0 5.334 2.667 2.667 0 0 1 0-5.334Z" fill="#FFF" fill-rule="evenodd"/></g></symbol><symbol id="menu" viewBox="0 0 18 15"><path d="M0 0h18v3H0V0Zm0 6h18v3H0V6Zm0 6h18v3H0v-3Z"/></symbol><symbol id="Pinterest" viewBox="0 0 31 31"><path d="M15.5 30.5c-8.286 0-15-6.717-15-15s6.714-15 15-15c8.284 0 15 6.716 15 15s-6.716 15-15 15Z" fill="none" stroke="#FFF"/><path d="M15.482 5c-5.8 0-10.5 4.699-10.5 10.5 0 4.447 2.767 8.247 6.673 9.777-.092-.83-.174-2.105.037-3.013.19-.82 1.231-5.218 1.231-5.218s-.314-.63-.314-1.56c0-1.46.845-2.55 1.9-2.55.895 0 1.328.673 1.328 1.48 0 .9-.573 2.247-.87 3.496-.247 1.046.525 1.897 1.555 1.897 1.867 0 3.301-1.968 3.301-4.809 0-2.514-1.806-4.271-4.386-4.271-2.987 0-4.74 2.241-4.74 4.557 0 .902.346 1.87.78 2.396a.316.316 0 0 1 .073.302c-.08.331-.257 1.045-.291 1.19-.046.192-.153.233-.353.141-1.31-.61-2.13-2.529-2.13-4.068 0-3.312 2.407-6.355 6.938-6.355 3.643 0 6.473 2.597 6.473 6.065 0 3.619-2.282 6.531-5.448 6.531-1.065 0-2.065-.553-2.408-1.206 0 0-.526 2.004-.653 2.496-.238.912-.878 2.055-1.305 2.752.982.305 2.026.47 3.109.47 5.8 0 10.5-4.701 10.5-10.5 0-5.801-4.7-10.5-10.5-10.5" fill="#FFF" fill-rule="evenodd"/></symbol></svg>