<svg xmlns="http://www.w3.org/2000/svg" viewBox="0 0 141.73 141.73"><defs><style>.cls-1{fill:#898a8d;}</style></defs><g id="Calque_2" data-name="Calque 2"><g id="Calque_1-2" data-name="Calque 1"><path class="cls-1" d="M71,137.9A67.17,67.17,0,1,1,138.3,70.73,67.32,67.32,0,0,1,71,137.9Zm0-131a63.81,63.81,0,1,0,63.93,63.81A63.95,63.95,0,0,0,71,6.92Z"/><path class="cls-1" d="M122.68,61.89a2.81,2.81,0,0,1,1,.71,3.23,3.23,0,0,1,.61,1,3.33,3.33,0,0,1,.22,1.21,3.25,3.25,0,0,1-.1.83,3.75,3.75,0,0,1-.3.76A3.09,3.09,0,0,1,123,67.6a2.87,2.87,0,0,1-1.54.44,3,3,0,0,1-.92-.17,2.83,2.83,0,0,1-1-.53,2.91,2.91,0,0,1-.76-1,3.24,3.24,0,0,1-.26-.69,3.1,3.1,0,0,1-.1-.81,3.37,3.37,0,0,1,.37-1.55,3.12,3.12,0,0,1,1-1.2,2.73,2.73,0,0,1,1.57-.46A2.83,2.83,0,0,1,122.68,61.89Zm.54,4.31c-.51-.58-.91-1.06-1.2-1.41a1.51,1.51,0,0,0,.53-.47.88.88,0,0,0,.21-.53q0-.63-.87-.78a3.33,3.33,0,0,0-.63-.09c-.28,0-.62,0-1,0v3.63l.67,0s0-.15,0-.35,0-.37,0-.51l0-.69c0-.22,0-.46,0-.72s0-.55,0-.85a2.22,2.22,0,0,1,.89.13.42.42,0,0,1,.27.41v0c0,.28-.25.56-.76.82l.39.51.53.71.45.6Zm-3.59-4.62A3.74,3.74,0,0,0,118.22,63a3.79,3.79,0,0,0-.52,1.92,4.15,4.15,0,0,0,.13,1,4,4,0,0,0,.37.9,3.69,3.69,0,0,0,3.25,1.82,3.57,3.57,0,0,0,1.48-.31,3.62,3.62,0,0,0,1.23-.85,3.84,3.84,0,0,0,.8-1.23,3.74,3.74,0,0,0,.29-1.44,3.87,3.87,0,0,0-.08-.77,3.52,3.52,0,0,0-1-1.86,3.41,3.41,0,0,0-1.16-.77,3.22,3.22,0,0,0-.73-.23,3.79,3.79,0,0,0-.77-.08A3.69,3.69,0,0,0,119.63,61.58Z"/><path class="cls-1" d="M70.86,108.28A37.27,37.27,0,1,1,108.2,71,37.35,37.35,0,0,1,70.86,108.28Zm0-72A34.7,34.7,0,1,0,105.63,71,34.78,34.78,0,0,0,70.86,36.31Z"/><path class="cls-1" d="M70.87,141.73a70.87,70.87,0,1,1,70.86-70.86A70.95,70.95,0,0,1,70.87,141.73Zm0-140.45a69.59,69.59,0,1,0,69.58,69.59A69.66,69.66,0,0,0,70.87,1.28Z"/><path class="cls-1" d="M26.84,32.65l4.08,3.67a7.58,7.58,0,0,0-2.63.4,4.8,4.8,0,0,0-3.1,4.84,5.55,5.55,0,0,0,2,3.56,5.19,5.19,0,0,0,3.64,1.45A4.82,4.82,0,0,0,35.27,43a7.31,7.31,0,0,0,.12-2.65L39.47,44a12,12,0,0,1-.94,2.35,10.07,10.07,0,0,1-1.39,2A10.49,10.49,0,0,1,35,50.14a8.17,8.17,0,0,1-2.38,1,9.31,9.31,0,0,1-4.69,0,10.2,10.2,0,0,1-4.24-2.36,10.36,10.36,0,0,1-2.39-3.07,9.38,9.38,0,0,1-.95-3.63,8.67,8.67,0,0,1,.47-3.53,9.83,9.83,0,0,1,1.95-3.15,10.11,10.11,0,0,1,1.81-1.58A12.16,12.16,0,0,1,26.84,32.65Z"/><path class="cls-1" d="M81.79,31.72,86.6,18.54l-3.88-1.41,1.48-4.08,12.48,4.54-1.49,4.07-3.88-1.41L86.5,33.44Z"/><path class="cls-1" d="M100.71,41.88l15.94-9.19,5.63,9.74-3.48,2-3.2-5.52-2.78,1.61,3,5.2-3.42,2-3-5.2L106.73,44l3.19,5.52-3.57,2.06Zm17.76-9.24,4.72,8.06-1,.64-4.58-8.28Z"/><path class="cls-1" d="M105.89,119.82l-13-13,3.55-3.54,10,10,4.42-4.41,3,3Z"/><path class="cls-1" d="M123.86,99.4l-16.68-7.77L112,81.44l3.65,1.7-2.7,5.77,2.91,1.36,2.55-5.44,3.57,1.66-2.54,5.45,2.79,1.3,2.7-5.78,3.74,1.75Z"/><path class="cls-1" d="M15.39,93.94l12.18-7L25.5,83.36l3.76-2.17L35.9,92.67l-3.76,2.16-2.07-3.57-12.17,7Z"/><path class="cls-1" d="M82.53,124.31a4.64,4.64,0,0,0-1.1-3.27,4.43,4.43,0,0,0-3.07-1.37,5.07,5.07,0,0,0,2.55-1.4,3.66,3.66,0,0,0,.81-2.49,4.34,4.34,0,0,0-.53-2.2,4,4,0,0,0-1.55-1.52,6.82,6.82,0,0,0-2.14-.7,33.78,33.78,0,0,0-4.37-.21h-5l0,18.36h5.19a33,33,0,0,0,4.54-.2,7.44,7.44,0,0,0,2.33-.71,4.33,4.33,0,0,0,1.79-1.73A5.23,5.23,0,0,0,82.53,124.31Zm-10.11-6.52V115h1.29a3.45,3.45,0,0,1,1.76.32,1.24,1.24,0,0,1,.47,1.13,1.12,1.12,0,0,1-.52,1,3.77,3.77,0,0,1-1.77.3Zm3.65,7.53a3.65,3.65,0,0,1-1.77.31H73.06v-2.79h1.29a3.47,3.47,0,0,1,1.77.32,1.28,1.28,0,0,1,.47,1.13A1.11,1.11,0,0,1,76.07,125.32Z"/><path class="cls-1" d="M45.92,109.89l.62-.59.66-.66-.34,1.09c-.09.28-.15.49-.18.62l-1.08,4.31-3-1.8Zm-9.45,8.35,2.5-2.31,6.1,3.68-.89,3.27,4.27,2.57,4.06-19-5.38-3.24L32.19,115.66Z"/><path class="cls-1" d="M52.44,29.13a5.64,5.64,0,0,1-1.81-3.69,5.64,5.64,0,0,1,.88-4,4.42,4.42,0,0,1,3.24-2,4.37,4.37,0,0,1,3.59,1.12,5.59,5.59,0,0,1,1.85,3.66,5.6,5.6,0,0,1-.88,4,4.69,4.69,0,0,1-6.87.85ZM64,20.06a9.52,9.52,0,0,0-2.48-2.82,9.8,9.8,0,0,0-3.43-1.68,10.1,10.1,0,0,0-7.51.92,9.51,9.51,0,0,0-2.89,2.46,9.22,9.22,0,0,0-1.77,3.34,9.64,9.64,0,0,0,.91,7.36,9.16,9.16,0,0,0,2.52,2.83,9.71,9.71,0,0,0,3.41,1.68,9.91,9.91,0,0,0,3.84.27,9.74,9.74,0,0,0,3.64-1.18,10.31,10.31,0,0,0,3-2.47A9.6,9.6,0,0,0,64,20.06ZM50.74,16l2.6-2.14,3,1,2.55-.53-3.41-2.4-4.6.95-2.67,3.67Z"/><polygon class="cls-1" points="87.56 59.04 89.61 56.93 83.53 50.9 81.57 52.67 70.61 41.14 39.48 74.02 49.81 74.02 49.81 92.08 67.63 91.96 67.63 81.58 73.65 81.58 73.92 92.54 91.89 92.04 91.89 74.08 101.51 74.08 87.56 59.04"/></g></g></svg>