<svg xmlns="http://www.w3.org/2000/svg" viewBox="0 0 857.05 135.7">
    <defs>
        <style>.cls-1{fill:white;}</style>
    </defs>
    <g id="Calque_2" data-name="Calque 2">
        <g id="Calque_1-2" data-name="Calque 1">
            <polygon class="cls-1"
                     points="559 37.01 534.09 37.01 534.09 118.03 525.47 118.03 525.47 37.01 501.66 37.01 501.66 28.36 559 28.36 559 37.01"/>
            <path class="cls-1"
                  d="M633.47,73.2A35.06,35.06,0,0,0,623,47.6a35.71,35.71,0,0,0-50.76,0,35,35,0,0,0-10.5,25.6,35,35,0,0,0,10.42,25.67,36.09,36.09,0,0,0,50.92,0A35.09,35.09,0,0,0,633.47,73.2M642.08,118h-8.61V99.63Q620.15,118,597.59,118A42.69,42.69,0,0,1,566,105a43.62,43.62,0,0,1-12.93-31.84,43.28,43.28,0,0,1,13-31.68,42.76,42.76,0,0,1,31.49-13.08q22.56,0,35.88,18.56V28.36h8.61Z"/>
            <path class="cls-1"
                  d="M716.19,93.33a15.47,15.47,0,0,0-4.55-11.24,15,15,0,0,0-11.12-4.65H657.43v31.94H700.2a15.83,15.83,0,0,0,16-16m0-40.35a15.61,15.61,0,0,0-4.55-11.3A14.94,14.94,0,0,0,700.52,37H657.43V68.79h43.09a15.08,15.08,0,0,0,11.12-4.58A15.35,15.35,0,0,0,716.19,53m8.61,40.2a24.13,24.13,0,0,1-7.13,17.61A23.55,23.55,0,0,1,700.2,118H648.82V28.36h51.7a23.22,23.22,0,0,1,17.15,7.23A23.83,23.83,0,0,1,724.8,52.9,23.36,23.36,0,0,1,714.3,73q10.5,7.23,10.5,20.14"/>
            <polygon class="cls-1"
                     points="778.7 118.03 731.54 118.03 731.54 28.36 740.15 28.36 740.15 109.38 778.7 109.38 778.7 118.03"/>
            <path class="cls-1"
                  d="M848.12,69a35.1,35.1,0,0,0-11.75-22.77A34.49,34.49,0,0,0,812.55,37,35.93,35.93,0,0,0,776.84,69Zm8.93,8.65H776.84a35.72,35.72,0,0,0,35.71,31.78q20.22,0,32.12-19.82l7.52,4.38Q837.78,118,812.55,118a43,43,0,0,1-31.64-13,43.36,43.36,0,0,1-13-31.78,43.34,43.34,0,0,1,13-31.78,44.54,44.54,0,0,1,63.14.12,43.66,43.66,0,0,1,13,31.8Z"/>
            <path class="cls-1"
                  d="M253,90q-16.15,26.87-40.79,26.86a42,42,0,0,1-31-12.82,42.52,42.52,0,0,1-12.73-31.1,42.24,42.24,0,0,1,12.73-31,42.13,42.13,0,0,1,31-12.77q24.21,0,40.65,26.42l-13.64,8.53q-11.7-18.93-27-18.94a26.64,26.64,0,0,0-19.63,8.12A26.94,26.94,0,0,0,184.53,73,26.92,26.92,0,0,0,192.6,92.7a26.64,26.64,0,0,0,19.63,8.12q15.59,0,27.15-19.08Z"/>
            <path class="cls-1"
                  d="M329.24,73a27.09,27.09,0,0,0-8.08-19.75,27.92,27.92,0,0,0-39.4-.07A27,27,0,0,0,273.69,73a27.78,27.78,0,1,0,55.55,0M332,26.51H312.39L301.16,15.27,290.39,26.51h-19.9L296.76,0h8.53ZM345.25,73a42.38,42.38,0,0,1-12.74,31,43.94,43.94,0,0,1-62,0,42.25,42.25,0,0,1-12.81-31,42.28,42.28,0,0,1,12.81-31,43.94,43.94,0,0,1,62,0A42.42,42.42,0,0,1,345.25,73"/>
            <path class="cls-1"
                  d="M473.69,12.15l-15.61,13H434.26l16.31-13ZM475.61,65a27.43,27.43,0,0,0-10-14.38A26.92,26.92,0,0,0,449,45.13,28,28,0,0,0,422.28,65Zm17.12,16H422.28a26.8,26.8,0,0,0,10,14.34,27.46,27.46,0,0,0,16.7,5.43q11.14,0,19.91-9.33L483,99.65q-14.49,17.17-34,17.17A42.27,42.27,0,0,1,418,104a42.28,42.28,0,0,1-12.81-31,42.28,42.28,0,0,1,12.81-31,43.89,43.89,0,0,1,62,0,42.56,42.56,0,0,1,12.74,31.13Z"/>
            <polygon class="cls-1"
                     points="405.68 45.28 383.77 45.28 383.77 116.25 367.93 116.25 367.93 45.28 346.99 45.28 346.99 29.44 405.68 29.44 405.68 45.28"/>
            <path class="cls-1"
                  d="M67.05,8.15a60.37,60.37,0,1,0,60.37,60.37A60.44,60.44,0,0,0,67.05,8.15m0,123.92a63.55,63.55,0,1,1,63.54-63.55,63.62,63.62,0,0,1-63.54,63.55"/>
            <path class="cls-1"
                  d="M113,59.86A3.54,3.54,0,0,0,111.15,63a3.3,3.3,0,0,0,.12,1,3,3,0,0,0,.35.85,3.44,3.44,0,0,0,1.27,1.27,3.61,3.61,0,0,0,1.79.45,3.47,3.47,0,0,0,2.56-1.09,3.63,3.63,0,0,0,.76-1.17,3.7,3.7,0,0,0,.26-1.36,4.2,4.2,0,0,0-.06-.72,4.37,4.37,0,0,0-.19-.67,3.44,3.44,0,0,0-.72-1.1,3.31,3.31,0,0,0-1.1-.73,3.43,3.43,0,0,0-1.42-.29,3.62,3.62,0,0,0-1.81.49m3.39,4.38c-.48-.56-.86-1-1.13-1.34a1.53,1.53,0,0,0,.5-.44.83.83,0,0,0,.2-.5c0-.4-.27-.65-.82-.75a4.18,4.18,0,0,0-.6-.08q-.39,0-1,0v3.42l.63,0s0-.13,0-.32,0-.36,0-.48l0-.66c0-.21,0-.44,0-.68s0-.52,0-.81a2.16,2.16,0,0,1,.84.12.41.41,0,0,1,.26.39v0q0,.41-.72.78l.37.48.5.68.42.56Zm-.51-4.09a2.64,2.64,0,0,1,.93.68,3.05,3.05,0,0,1,.58,1,3.19,3.19,0,0,1,.2,1.14,3.35,3.35,0,0,1-.09.79,3.16,3.16,0,0,1-.28.72,3,3,0,0,1-1.05,1.11,2.63,2.63,0,0,1-1.45.41,2.83,2.83,0,0,1-.86-.15,2.67,2.67,0,0,1-.91-.51,2.82,2.82,0,0,1-.72-.94,3.51,3.51,0,0,1-.24-.66,2.76,2.76,0,0,1-.1-.77,3.27,3.27,0,0,1,.35-1.46,2.94,2.94,0,0,1,1-1.13,2.54,2.54,0,0,1,1.48-.45,2.81,2.81,0,0,1,1.16.25"/>
            <path class="cls-1"
                  d="M66.91,36A32.83,32.83,0,1,0,99.74,68.78,32.87,32.87,0,0,0,66.91,36m0,68.09a35.26,35.26,0,1,1,35.26-35.26A35.3,35.3,0,0,1,66.91,104"/>
            <path class="cls-1"
                  d="M66.92,2.82a65.83,65.83,0,1,0,65.7,65.83A65.84,65.84,0,0,0,66.92,2.82m0,132.88a67.05,67.05,0,1,1,66.91-67,67.06,67.06,0,0,1-66.91,67"/>
            <path class="cls-1"
                  d="M25.34,32.49,29.2,36a7,7,0,0,0-2.48.37A4.41,4.41,0,0,0,25,37.53a4.24,4.24,0,0,0-1.17,3.39,5.22,5.22,0,0,0,1.86,3.37,4.92,4.92,0,0,0,3.44,1.37,4.57,4.57,0,0,0,4.22-3.39,7,7,0,0,0,.11-2.51l3.85,3.47a10.5,10.5,0,0,1-.89,2.22,9.31,9.31,0,0,1-1.31,1.86,9.74,9.74,0,0,1-2,1.73,7.49,7.49,0,0,1-2.24,1,8.64,8.64,0,0,1-4.43,0,9.75,9.75,0,0,1-4-2.23,9.88,9.88,0,0,1-2.26-2.91,8.75,8.75,0,0,1-.89-3.43,8.08,8.08,0,0,1,.44-3.34,9.18,9.18,0,0,1,1.84-3,9.39,9.39,0,0,1,1.71-1.5,11.71,11.71,0,0,1,2.11-1.12"/>
            <polygon class="cls-1"
                     points="77.23 31.61 81.77 19.14 78.11 17.81 79.51 13.95 91.29 18.24 89.89 22.1 86.22 20.76 81.68 33.23 77.23 31.61"/>
            <path class="cls-1"
                  d="M111.87,32.48l4.45,7.63-.94.61-4.32-7.84ZM95.1,41.22l15-8.69,5.33,9.22-3.29,1.9-3-5.22L106.53,40l2.84,4.92-3.22,1.86-2.85-4.92-2.52,1.46,3,5.22-3.38,1.94Z"/>
            <polygon class="cls-1"
                     points="99.99 114.97 87.7 102.68 91.05 99.33 100.47 108.75 104.64 104.58 107.51 107.45 99.99 114.97"/>
            <polygon class="cls-1"
                     points="116.96 95.64 101.21 88.3 105.71 78.66 109.15 80.26 106.61 85.73 109.36 87.01 111.76 81.86 115.14 83.43 112.73 88.58 115.37 89.82 117.92 84.35 121.46 86 116.96 95.64"/>
            <polygon class="cls-1"
                     points="14.54 90.48 26.03 83.84 24.08 80.47 27.63 78.42 33.9 89.28 30.35 91.33 28.4 87.95 16.91 94.59 14.54 90.48"/>
            <path class="cls-1"
                  d="M71.83,120.17a3.41,3.41,0,0,1-1.67.3H69v-2.64h1.22a3.3,3.3,0,0,1,1.66.31,1.19,1.19,0,0,1,.45,1.06,1.06,1.06,0,0,1-.49,1m-3.44-7.12V110.4h1.22a3.19,3.19,0,0,1,1.66.3,1.19,1.19,0,0,1,.45,1.07,1,1,0,0,1-.49,1,3.56,3.56,0,0,1-1.67.29Zm9.55,6.16a4.42,4.42,0,0,0-1-3.09,4.17,4.17,0,0,0-2.9-1.3,4.8,4.8,0,0,0,2.42-1.32,3.5,3.5,0,0,0,.75-2.36,4.13,4.13,0,0,0-.5-2.08,3.68,3.68,0,0,0-1.46-1.44,6.15,6.15,0,0,0-2-.65,30.5,30.5,0,0,0-4.12-.2H64.3l0,17.37,4.89,0a32.54,32.54,0,0,0,4.29-.2,6.85,6.85,0,0,0,2.21-.67,4.06,4.06,0,0,0,1.68-1.63,5,5,0,0,0,.6-2.44"/>
            <path class="cls-1"
                  d="M34.44,113.47l2.36-2.18,5.76,3.47-.84,3.1,4,2.44,3.84-18-5.08-3.07L30.39,111Zm8.92-7.9.58-.56.63-.62c-.14.42-.24.76-.33,1s-.13.46-.16.59l-1,4.07-2.82-1.7Z"/>
            <path class="cls-1"
                  d="M47.91,16.72l2.46-2,2.79.94,2.41-.51-3.22-2.27-4.34.9-2.53,3.47Zm12.51,3.86a9.18,9.18,0,0,0-5.59-4.26,9.6,9.6,0,0,0-7.09.87,9,9,0,0,0-4.66,9.06,8.85,8.85,0,0,0,3.5,6.07,9.16,9.16,0,0,0,3.22,1.59,9.45,9.45,0,0,0,7.07-.86,9.61,9.61,0,0,0,2.78-2.34A8.86,8.86,0,0,0,61.54,24a9.21,9.21,0,0,0-1.12-3.41m-10.9,8.58a5.3,5.3,0,0,1-1.71-3.49,5.34,5.34,0,0,1,.83-3.79,4.36,4.36,0,0,1,6.45-.79,5.28,5.28,0,0,1,1.74,3.47,5.3,5.3,0,0,1-.83,3.8,4.42,4.42,0,0,1-6.48.8"/>
            <polygon class="cls-1"
                     points="66.67 40.52 37.28 71.64 47.03 71.64 47.03 88.72 63.86 88.61 63.86 78.78 69.55 78.78 69.8 89.16 86.77 88.68 86.77 71.69 95.85 71.69 82.68 57.46 84.61 55.47 78.88 49.76 77.03 51.44 66.67 40.52"/>
        </g>
    </g>
</svg>