<svg xmlns="http://www.w3.org/2000/svg" viewBox="0 0 225.71 36">
    <defs>
        <style>.cls-1{fill:#797e82;}.cls-2{fill:none;stroke:#797e82;stroke-miterlimit:10;}</style>
    </defs>
    <g id="Layer_2" data-name="Layer 2">
        <g id="Layer_1-2" data-name="Layer 1">
            <polygon class="cls-1"
                     points="147.22 10.16 140.66 10.16 140.66 31.5 138.39 31.5 138.39 10.16 132.12 10.16 132.12 7.88 147.22 7.88 147.22 10.16"/>
            <path class="cls-1"
                  d="M166.83,19.69A9.24,9.24,0,0,0,164.07,13a9.4,9.4,0,0,0-13.37,0,9.21,9.21,0,0,0-2.77,6.74,9.26,9.26,0,0,0,2.75,6.77,9.52,9.52,0,0,0,13.41,0,9.25,9.25,0,0,0,2.74-6.77M169.1,31.5h-2.27V26.65a11.06,11.06,0,0,1-9.45,4.85,11.26,11.26,0,0,1-8.31-3.44,11.49,11.49,0,0,1-3.41-8.39,11.38,11.38,0,0,1,3.43-8.34,11.24,11.24,0,0,1,8.29-3.44,11.07,11.07,0,0,1,9.45,4.88V7.89h2.27Z"/>
            <path class="cls-1"
                  d="M188.62,25a4.06,4.06,0,0,0-1.2-3,3.94,3.94,0,0,0-2.93-1.23H173.14v8.41h11.27a4,4,0,0,0,3-1.22,4.08,4.08,0,0,0,1.22-3m0-10.63a4.1,4.1,0,0,0-1.2-3,3.94,3.94,0,0,0-2.93-1.23H173.14v8.37h11.35a4,4,0,0,0,2.93-1.2,4,4,0,0,0,1.2-3M190.89,25A6.38,6.38,0,0,1,189,29.6a6.21,6.21,0,0,1-4.6,1.9H170.87V7.89h13.62A6.11,6.11,0,0,1,189,9.79a6.28,6.28,0,0,1,1.88,4.56,6.16,6.16,0,0,1-2.77,5.3A6.1,6.1,0,0,1,190.89,25"/>
            <polygon class="cls-1"
                     points="205.08 31.5 192.66 31.5 192.66 7.88 194.93 7.88 194.93 29.22 205.08 29.22 205.08 31.5"/>
            <path class="cls-1"
                  d="M223.36,18.58a9.21,9.21,0,0,0-3.09-6A9.09,9.09,0,0,0,214,10.16a9.47,9.47,0,0,0-9.41,8.42Zm2.35,2.27H204.59a9.09,9.09,0,0,0,3.09,6A9.21,9.21,0,0,0,214,29.22q5.33,0,8.45-5.22l2,1.16q-3.8,6.35-10.43,6.34a11.29,11.29,0,0,1-8.34-3.44,11.42,11.42,0,0,1-3.42-8.37,11.45,11.45,0,0,1,3.42-8.37A11.32,11.32,0,0,1,214,7.89a11.19,11.19,0,0,1,8.29,3.47,11.48,11.48,0,0,1,3.42,8.37Z"/>
            <path class="cls-1"
                  d="M66.64,24.11q-4.26,7.08-10.75,7.07a11.08,11.08,0,0,1-8.16-3.37,11.24,11.24,0,0,1-3.35-8.19,11.13,11.13,0,0,1,3.35-8.17,11.08,11.08,0,0,1,8.16-3.37c4.26,0,7.82,2.32,10.71,7L63,17.29q-3.09-5-7.12-5a7,7,0,0,0-5.17,2.14,7.09,7.09,0,0,0-2.12,5.19,7.12,7.12,0,0,0,2.12,5.2A7,7,0,0,0,55.89,27q4.11,0,7.15-5Z"/>
            <path class="cls-1"
                  d="M86.71,19.65a7.13,7.13,0,0,0-2.13-5.2,7,7,0,0,0-5.17-2.15,7.26,7.26,0,0,0-7.33,7.35,7.32,7.32,0,1,0,14.63,0M87.44,7.4H82.27l-3-3-2.83,3H71.24l6.92-7H80.4Zm3.48,12.23a11.15,11.15,0,0,1-3.35,8.18,11.58,11.58,0,0,1-16.33,0,11.13,11.13,0,0,1-3.38-8.18,11.13,11.13,0,0,1,3.38-8.17,11.55,11.55,0,0,1,16.33,0,11.14,11.14,0,0,1,3.35,8.17"/>
            <path class="cls-1"
                  d="M124.75,3.62l-4.11,3.43h-6.27l4.29-3.43Zm.51,13.92a7.24,7.24,0,0,0-2.64-3.78,7.35,7.35,0,0,0-11.41,3.78Zm4.51,4.22H111.21a7.13,7.13,0,0,0,2.64,3.78,7.28,7.28,0,0,0,4.4,1.43,7,7,0,0,0,5.24-2.46l3.71,2.15a11.38,11.38,0,0,1-9,4.52,11.12,11.12,0,0,1-8.17-3.37,11.13,11.13,0,0,1-3.38-8.18,11.13,11.13,0,0,1,3.38-8.17,11.54,11.54,0,0,1,16.33,0,11.18,11.18,0,0,1,3.36,8.19Z"/>
            <polygon class="cls-1"
                     points="106.84 12.34 101.07 12.34 101.07 31.03 96.9 31.03 96.9 12.34 91.38 12.34 91.38 8.17 106.84 8.17 106.84 12.34"/>
            <path class="cls-1"
                  d="M30.23,15.64a1,1,0,0,0-.36.35.92.92,0,0,0-.13.49,1,1,0,0,0,0,.25.8.8,0,0,0,.1.23.86.86,0,0,0,.34.34,1,1,0,0,0,.48.12.94.94,0,0,0,.37-.07.87.87,0,0,0,.31-.22,1.06,1.06,0,0,0,.21-.31,1.16,1.16,0,0,0,.07-.37,1.11,1.11,0,0,0,0-.19,1,1,0,0,0-.05-.18,1.17,1.17,0,0,0-.19-.3,1,1,0,0,0-.3-.19l-.18-.06-.2,0a.91.91,0,0,0-.48.13m.91,1.18-.31-.36a.41.41,0,0,0,.14-.12A.27.27,0,0,0,31,16.2c0-.1-.07-.17-.22-.2l-.16,0h-.26v.92h.17v-.58c0-.06,0-.14,0-.21a.61.61,0,0,1,.22,0,.1.1,0,0,1,.07.1h0c0,.07-.06.14-.19.21l.1.13.13.18.11.15ZM31,15.72a.64.64,0,0,1,.25.18.84.84,0,0,1,.15.26.81.81,0,0,1,.06.31.76.76,0,0,1,0,.21.62.62,0,0,1-.07.19.74.74,0,0,1-.28.3.68.68,0,0,1-.39.11.66.66,0,0,1-.23,0,.69.69,0,0,1-.25-.14.72.72,0,0,1-.19-.25.64.64,0,0,1-.06-.18.64.64,0,0,1,0-.2.86.86,0,0,1,.09-.39.91.91,0,0,1,.27-.31.7.7,0,0,1,.4-.12.82.82,0,0,1,.31.07"/>
            <path class="cls-1"
                  d="M6.7,8,7.76,9a1.77,1.77,0,0,0-.68.1,1.28,1.28,0,0,0-.81,1.29,1.46,1.46,0,0,0,.51,1,1.34,1.34,0,0,0,1,.38,1.2,1.2,0,0,0,.89-.42,1.24,1.24,0,0,0,.28-.53,2,2,0,0,0,0-.71L10,11a3.09,3.09,0,0,1-.25.62,2.41,2.41,0,0,1-.36.52,2.49,2.49,0,0,1-.55.49,2.18,2.18,0,0,1-.63.27,2.3,2.3,0,0,1-1.22,0,2.7,2.7,0,0,1-1.11-.63,3,3,0,0,1-.63-.81,2.61,2.61,0,0,1-.24-1,2.28,2.28,0,0,1,.12-.94,2.67,2.67,0,0,1,.51-.84,3.8,3.8,0,0,1,.47-.42A3.29,3.29,0,0,1,6.7,8"/>
            <polygon class="cls-1"
                     points="20.66 7.61 21.87 4.58 20.89 4.25 21.27 3.31 24.42 4.36 24.05 5.29 23.07 4.97 21.85 8 20.66 7.61"/>
            <path class="cls-1"
                  d="M30.06,8.2l1.15,2-.24.16-1.12-2ZM25.7,10.48l3.91-2.26L31,10.62l-.85.49-.79-1.36-.68.4.74,1.28-.84.48-.74-1.28-.65.38L28,12.37l-.87.51Z"/>
            <polygon class="cls-1"
                     points="26.75 30.68 23.46 27.38 24.36 26.48 26.88 29.01 28 27.89 28.77 28.66 26.75 30.68"/>
            <polygon class="cls-1"
                     points="31.46 25.25 27.24 23.27 28.45 20.69 29.37 21.12 28.69 22.59 29.43 22.93 30.07 21.55 30.97 21.97 30.33 23.35 31.04 23.68 31.72 22.22 32.67 22.66 31.46 25.25"/>
            <polygon class="cls-1"
                     points="3.87 23.86 6.94 22.08 6.42 21.17 7.37 20.62 9.05 23.54 8.1 24.09 7.58 23.18 4.5 24.96 3.87 23.86"/>
            <path class="cls-1"
                  d="M19.21,32.13a1,1,0,0,1-.45.08h-.31V31.5h.33a.9.9,0,0,1,.44.08.31.31,0,0,1,.12.28.28.28,0,0,1-.13.27m-.92-1.92v-.7h.33a.8.8,0,0,1,.44.08.31.31,0,0,1,.12.28.29.29,0,0,1-.13.27,1,1,0,0,1-.45.08Zm2.56,1.66a1.22,1.22,0,0,0-.28-.83,1.14,1.14,0,0,0-.78-.35,1.33,1.33,0,0,0,.65-.35,1,1,0,0,0,.2-.64,1.09,1.09,0,0,0-.13-.55,1,1,0,0,0-.4-.39,1.9,1.9,0,0,0-.54-.18,8.66,8.66,0,0,0-1.1,0H17.19v4.66H18.5a6.83,6.83,0,0,0,1.15,0,1.64,1.64,0,0,0,.59-.18,1.12,1.12,0,0,0,.45-.44,1.33,1.33,0,0,0,.16-.65"/>
            <path class="cls-1"
                  d="M9.15,30.24l.64-.58,1.54.93-.23.83,1.08.66,1-4.83-1.36-.82L8.07,29.59Zm2.39-2.12L11.7,28l.17-.17-.09.28a.9.9,0,0,0,0,.16l-.28,1.09-.75-.45Z"/>
            <path class="cls-1"
                  d="M12.8,4.06l.66-.55.75.26.65-.14L14,3l-1.16.24-.68.93Zm2.94,1a1.77,1.77,0,0,0-.5-.59,2,2,0,0,0-.7-.35A1.85,1.85,0,0,0,13.76,4a2,2,0,0,0-.74.24,2.06,2.06,0,0,0-.95,1.21,1.85,1.85,0,0,0-.05.78,1.9,1.9,0,0,0,.24.74,1.79,1.79,0,0,0,.51.59,2,2,0,0,0,.69.35,1.86,1.86,0,0,0,.78.05A2,2,0,0,0,15,7.74a2,2,0,0,0,.95-1.21A1.85,1.85,0,0,0,16,5.75,1.85,1.85,0,0,0,15.74,5M13.39,6.79A1,1,0,0,1,13,6.11.93.93,0,0,1,13.86,5,1,1,0,0,1,15,5.89.93.93,0,0,1,14.14,7a1,1,0,0,1-.75-.2"/>
            <polygon class="cls-1"
                     points="18 11 10 19 13 19 13.03 22.97 17 23 17 21 19 21 19 23 23 23 23 19 26 19 22 15 23 14 21 12 20 13 18 11"/>
            <circle class="cls-2" cx="18" cy="18" r="9.5"/>
            <circle class="cls-2" cx="18" cy="18" r="16.5"/>
            <path class="cls-1"
                  d="M18,.25A17.75,17.75,0,1,1,.25,18,17.77,17.77,0,0,1,18,.25M18,0A18,18,0,1,0,36,18,18,18,0,0,0,18,0Z"/>
        </g>
    </g>
</svg>