<?xml version="1.0" encoding="utf-8"?>
<!-- Generator: Adobe Illustrator 25.4.1, SVG Export Plug-In . SVG Version: 6.00 Build 0)  -->
<svg version="1.1" id="Layer_1" xmlns="http://www.w3.org/2000/svg" xmlns:xlink="http://www.w3.org/1999/xlink" x="0px"
     y="0px"
     viewBox="0 0 225 36" style="enable-background:new 0 0 225 36;" xml:space="preserve">
<style type="text/css">
	.st0{fill:#FFFFFF;}
	.st1{fill:none;stroke:#FFFFFF;stroke-miterlimit:10;}
</style>
    <g>
	<g>
		<g>
			<polygon class="st0"
                     points="147.2,10.2 140.7,10.2 140.7,31.5 138.4,31.5 138.4,10.2 132.1,10.2 132.1,7.9 147.2,7.9 			"/>
            <path class="st0" d="M166.8,19.7c0-2.6-0.9-4.9-2.8-6.7c-1.8-1.9-4.1-2.8-6.7-2.8c-2.6,0-4.8,0.9-6.7,2.8
				c-1.8,1.9-2.8,4.1-2.8,6.7c0,2.7,0.9,4.9,2.7,6.8c1.8,1.8,4.1,2.8,6.7,2.8c2.6,0,4.9-0.9,6.7-2.8
				C165.9,24.6,166.8,22.4,166.8,19.7 M169.1,31.5h-2.3v-4.8c-2.3,3.2-5.5,4.8-9.4,4.8c-3.3,0-6-1.1-8.3-3.4
				c-2.3-2.3-3.4-5.1-3.4-8.4c0-3.3,1.1-6,3.4-8.3c2.3-2.3,5-3.4,8.3-3.4c4,0,7.1,1.6,9.4,4.9V7.9h2.3V31.5z"/>
            <path class="st0" d="M188.6,25c0-1.2-0.4-2.1-1.2-3c-0.8-0.8-1.8-1.2-2.9-1.2h-11.3v8.4h11.3c1.2,0,2.2-0.4,3-1.2
				C188.2,27.2,188.6,26.2,188.6,25 M188.6,14.4c0-1.2-0.4-2.2-1.2-3c-0.8-0.8-1.8-1.2-2.9-1.2h-11.3v8.4h11.3
				c1.2,0,2.1-0.4,2.9-1.2C188.2,16.5,188.6,15.5,188.6,14.4 M190.9,25c0,1.8-0.6,3.4-1.9,4.6c-1.3,1.3-2.8,1.9-4.6,1.9h-13.5V7.9
				h13.6c1.8,0,3.3,0.6,4.5,1.9c1.3,1.3,1.9,2.8,1.9,4.6c0,2.2-0.9,4-2.8,5.3C190,20.9,190.9,22.7,190.9,25"/>
            <polygon class="st0" points="205.1,31.5 192.7,31.5 192.7,7.9 194.9,7.9 194.9,29.2 205.1,29.2 			"/>
            <path class="st0" d="M223.4,18.6c-0.3-2.4-1.3-4.4-3.1-6c-1.8-1.6-3.9-2.4-6.3-2.4c-2.4,0-4.5,0.8-6.3,2.4
				c-1.8,1.6-2.8,3.6-3.1,6H223.4z M225.7,20.9h-21.1c0.3,2.4,1.3,4.4,3.1,6c1.8,1.6,3.9,2.4,6.3,2.4c3.5,0,6.4-1.7,8.5-5.2l2,1.2
				c-2.5,4.2-6,6.3-10.4,6.3c-3.3,0-6.1-1.1-8.3-3.4c-2.3-2.3-3.4-5.1-3.4-8.4c0-3.3,1.1-6.1,3.4-8.4c2.3-2.3,5.1-3.4,8.3-3.4
				c3.2,0,6,1.2,8.3,3.5c2.3,2.3,3.4,5.1,3.4,8.4V20.9z"/>
            <path class="st0" d="M66.6,24.1c-2.8,4.7-6.4,7.1-10.7,7.1c-3.2,0-5.9-1.1-8.2-3.4c-2.2-2.3-3.4-5-3.4-8.2c0-3.2,1.1-5.9,3.4-8.2
				c2.2-2.2,5-3.4,8.2-3.4c4.3,0,7.8,2.3,10.7,7L63,17.3c-2.1-3.3-4.4-5-7.1-5c-2,0-3.8,0.7-5.2,2.1c-1.4,1.4-2.1,3.2-2.1,5.2
				s0.7,3.8,2.1,5.2c1.4,1.4,3.1,2.1,5.2,2.1c2.7,0,5.1-1.7,7.1-5L66.6,24.1z"/>
            <path class="st0" d="M86.7,19.7c0-2-0.7-3.8-2.1-5.2c-1.4-1.4-3.1-2.2-5.2-2.2c-2.1,0-3.8,0.7-5.2,2.1c-1.4,1.4-2.1,3.2-2.1,5.2
				s0.7,3.8,2.1,5.2c1.4,1.4,3.2,2.1,5.2,2.1c2,0,3.8-0.7,5.2-2.1C86,23.4,86.7,21.7,86.7,19.7 M87.4,7.4h-5.2l-3-3l-2.8,3h-5.2
				l6.9-7h2.2L87.4,7.4z M90.9,19.6c0,3.2-1.1,5.9-3.4,8.2c-2.2,2.3-5,3.4-8.2,3.4s-5.9-1.1-8.2-3.4c-2.2-2.2-3.4-5-3.4-8.2
				c0-3.2,1.1-5.9,3.4-8.2c2.2-2.2,5-3.4,8.2-3.4s5.9,1.1,8.2,3.4C89.8,13.7,90.9,16.4,90.9,19.6"/>
            <path class="st0" d="M124.8,3.6L120.6,7h-6.3l4.3-3.4H124.8z M125.3,17.5c-0.5-1.6-1.3-2.8-2.6-3.8c-1.3-1-2.8-1.5-4.4-1.5
				c-1.6,0-3.1,0.5-4.4,1.5c-1.3,1-2.2,2.2-2.7,3.8H125.3z M129.8,21.8h-18.6c0.5,1.6,1.3,2.8,2.6,3.8c1.3,1,2.8,1.4,4.4,1.4
				c2,0,3.7-0.8,5.2-2.5l3.7,2.2c-2.5,3-5.5,4.5-8.9,4.5c-3.2,0-5.9-1.1-8.2-3.4c-2.2-2.2-3.4-5-3.4-8.2c0-3.2,1.1-5.9,3.4-8.2
				c2.2-2.2,5-3.4,8.2-3.4c3.2,0,5.9,1.1,8.2,3.4c2.2,2.3,3.4,5,3.4,8.2V21.8z"/>
            <polygon class="st0"
                     points="106.8,12.3 101.1,12.3 101.1,31 96.9,31 96.9,12.3 91.4,12.3 91.4,8.2 106.8,8.2 			"/>
		</g>
	</g>
        <g>
		<path class="st0" d="M30.2,15.6c-0.2,0.1-0.3,0.2-0.4,0.4c-0.1,0.1-0.1,0.3-0.1,0.5c0,0.1,0,0.2,0,0.3c0,0.1,0.1,0.2,0.1,0.2
			c0.1,0.1,0.2,0.3,0.3,0.3c0.1,0.1,0.3,0.1,0.5,0.1c0.1,0,0.3,0,0.4-0.1c0.1-0.1,0.2-0.1,0.3-0.2c0.1-0.1,0.2-0.2,0.2-0.3
			c0-0.1,0.1-0.2,0.1-0.4c0-0.1,0-0.1,0-0.2c0-0.1,0-0.1-0.1-0.2c0-0.1-0.1-0.2-0.2-0.3c-0.1-0.1-0.2-0.1-0.3-0.2
			c-0.1,0-0.1,0-0.2-0.1c-0.1,0-0.1,0-0.2,0C30.5,15.5,30.4,15.6,30.2,15.6 M31.1,16.8c-0.1-0.1-0.2-0.3-0.3-0.4
			c0.1,0,0.1-0.1,0.1-0.1c0,0,0.1-0.1,0.1-0.1c0-0.1-0.1-0.2-0.2-0.2c0,0-0.1,0-0.2,0c-0.1,0-0.2,0-0.3,0v0.3v0.6l0.2,0
			c0,0,0,0,0-0.1c0-0.1,0-0.1,0-0.1l0-0.2c0-0.1,0-0.1,0-0.2c0-0.1,0-0.1,0-0.2c0.1,0,0.2,0,0.2,0c0,0,0.1,0.1,0.1,0.1v0
			c0,0.1-0.1,0.1-0.2,0.2l0.1,0.1l0.1,0.2l0.1,0.2L31.1,16.8z M31,15.7c0.1,0,0.2,0.1,0.2,0.2c0.1,0.1,0.1,0.2,0.2,0.3
			c0,0.1,0.1,0.2,0.1,0.3c0,0.1,0,0.1,0,0.2c0,0.1,0,0.1-0.1,0.2c-0.1,0.1-0.2,0.2-0.3,0.3c-0.1,0.1-0.2,0.1-0.4,0.1
			c-0.1,0-0.1,0-0.2,0c-0.1,0-0.2-0.1-0.2-0.1C30.1,17,30.1,17,30,16.9c0-0.1-0.1-0.1-0.1-0.2c0-0.1,0-0.1,0-0.2
			c0-0.1,0-0.3,0.1-0.4c0.1-0.1,0.2-0.2,0.3-0.3c0.1-0.1,0.2-0.1,0.4-0.1C30.8,15.7,30.9,15.7,31,15.7"/>
            <path class="st0" d="M6.7,8l1.1,1C7.5,9,7.3,9,7.1,9.1C6.9,9.2,6.7,9.3,6.6,9.4c-0.3,0.3-0.4,0.6-0.3,1c0,0.4,0.2,0.7,0.5,0.9
			c0.3,0.3,0.6,0.4,1,0.4c0.3,0,0.6-0.1,0.9-0.4c0.1-0.2,0.2-0.3,0.3-0.5C9,10.6,9,10.3,8.9,10l1.1,1c-0.1,0.2-0.1,0.4-0.2,0.6
			c-0.1,0.2-0.2,0.4-0.4,0.5c-0.2,0.2-0.4,0.4-0.6,0.5c-0.2,0.1-0.4,0.2-0.6,0.3C7.8,13,7.4,13,7,12.9c-0.4-0.1-0.8-0.3-1.1-0.6
			c-0.3-0.3-0.5-0.5-0.6-0.8c-0.1-0.3-0.2-0.6-0.2-1c0-0.3,0-0.6,0.1-0.9C5.2,9.3,5.4,9,5.6,8.7c0.1-0.2,0.3-0.3,0.5-0.4
			C6.3,8.2,6.5,8.1,6.7,8"/>
            <polygon class="st0" points="20.7,7.6 21.9,4.6 20.9,4.3 21.3,3.3 24.4,4.4 24,5.3 23.1,5 21.8,8 		"/>
            <path class="st0" d="M30.1,8.2l1.2,2L31,10.3l-1.1-2L30.1,8.2z M25.7,10.5l3.9-2.3l1.4,2.4l-0.9,0.5l-0.8-1.4l-0.7,0.4l0.7,1.3
			l-0.8,0.5l-0.7-1.3L27.2,11l0.8,1.4l-0.9,0.5L25.7,10.5z"/>
            <polygon class="st0" points="26.8,30.7 23.5,27.4 24.4,26.5 26.9,29 28,27.9 28.8,28.7 		"/>
            <polygon class="st0" points="31.5,25.2 27.2,23.3 28.4,20.7 29.4,21.1 28.7,22.6 29.4,22.9 30.1,21.5 31,22 30.3,23.4 31,23.7
			31.7,22.2 32.7,22.7 		"/>
            <polygon class="st0"
                     points="3.9,23.9 6.9,22.1 6.4,21.2 7.4,20.6 9.1,23.5 8.1,24.1 7.6,23.2 4.5,25 		"/>
            <path class="st0" d="M19.2,32.1c-0.1,0.1-0.2,0.1-0.4,0.1l-0.3,0l0-0.7l0.3,0c0.2,0,0.4,0,0.4,0.1c0.1,0.1,0.1,0.1,0.1,0.3
			C19.3,32,19.3,32.1,19.2,32.1 M18.3,30.2l0-0.7l0.3,0c0.2,0,0.4,0,0.4,0.1c0.1,0.1,0.1,0.1,0.1,0.3c0,0.1,0,0.2-0.1,0.3
			c-0.1,0.1-0.2,0.1-0.4,0.1L18.3,30.2z M20.8,31.9c0-0.3-0.1-0.6-0.3-0.8c-0.2-0.2-0.4-0.3-0.8-0.4c0.3-0.1,0.5-0.2,0.6-0.4
			c0.1-0.2,0.2-0.4,0.2-0.6c0-0.2,0-0.4-0.1-0.6c-0.1-0.2-0.2-0.3-0.4-0.4c-0.2-0.1-0.3-0.1-0.5-0.2c-0.2,0-0.6-0.1-1.1-0.1l-1.3,0
			l0,4.7l1.3,0c0.5,0,0.9,0,1.1-0.1c0.2,0,0.4-0.1,0.6-0.2c0.2-0.1,0.3-0.2,0.5-0.4C20.8,32.3,20.8,32.1,20.8,31.9"/>
            <path class="st0" d="M9.2,30.2l0.6-0.6l1.5,0.9l-0.2,0.8l1.1,0.7l1-4.8l-1.4-0.8l-3.8,3.2L9.2,30.2z M11.5,28.1
			c0.1,0,0.1-0.1,0.2-0.2c0.1-0.1,0.1-0.1,0.2-0.2c0,0.1-0.1,0.2-0.1,0.3c0,0.1,0,0.1,0,0.2l-0.3,1.1l-0.8-0.5L11.5,28.1z"/>
            <path class="st0" d="M12.8,4.1l0.7-0.5l0.7,0.3l0.6-0.1L14,3l-1.2,0.2l-0.7,0.9L12.8,4.1z M15.7,5c-0.1-0.2-0.3-0.4-0.5-0.6
			c-0.2-0.2-0.4-0.3-0.7-0.3C14.3,4,14,4,13.8,4c-0.3,0-0.5,0.1-0.7,0.2c-0.2,0.1-0.4,0.3-0.6,0.5c-0.2,0.2-0.3,0.4-0.4,0.7
			C12,5.7,12,6,12,6.2c0,0.3,0.1,0.5,0.2,0.7c0.1,0.2,0.3,0.4,0.5,0.6c0.2,0.2,0.4,0.3,0.7,0.3C13.7,8,14,8,14.2,8
			c0.3,0,0.5-0.1,0.7-0.2c0.2-0.1,0.4-0.3,0.6-0.5c0.2-0.2,0.3-0.4,0.4-0.7C16,6.3,16,6,16,5.8C16,5.5,15.9,5.2,15.7,5 M13.4,6.8
			c-0.2-0.2-0.3-0.4-0.4-0.7c0-0.3,0-0.5,0.2-0.7C13.4,5.2,13.6,5,13.9,5c0.3,0,0.5,0,0.7,0.2c0.2,0.2,0.3,0.4,0.4,0.7
			c0,0.3,0,0.5-0.2,0.7C14.6,6.8,14.4,7,14.1,7C13.8,7,13.6,7,13.4,6.8"/>
            <polygon class="st0"
                     points="18,11 10,19 13,19 13,23 17,23 17,21 19,21 19,23 23,23 23,19 26,19 22,15 23,14 21,12 20,13 		"/>
            <circle class="st1" cx="18" cy="18" r="9.5"/>
            <circle class="st1" cx="18" cy="18" r="16.5"/>
            <g>
			<path class="st0" d="M18,0.2c9.8,0,17.8,8,17.8,17.8s-8,17.8-17.8,17.8S0.2,27.8,0.2,18S8.2,0.2,18,0.2 M18,0C8.1,0,0,8.1,0,18
				s8.1,18,18,18s18-8.1,18-18S27.9,0,18,0L18,0z"/>
		</g>
	</g>
</g>
</svg>
