<svg xmlns="http://www.w3.org/2000/svg" width="16.445" height="16.445" viewBox="0 0 16.445 16.445"><defs><style>.a{fill:#fff;}</style></defs><path class="a" d="M14.39,6.167V2.481a1.028,1.028,0,0,0-.3-.727L12.635.3a1.028,1.028,0,0,0-.727-.3H3.083A1.028,1.028,0,0,0,2.056,1.028V6.167A2.056,2.056,0,0,0,0,8.223v3.6a.514.514,0,0,0,.514.514H2.056v3.083a1.028,1.028,0,0,0,1.028,1.028H13.362a1.028,1.028,0,0,0,1.028-1.028V12.334h1.542a.514.514,0,0,0,.514-.514v-3.6A2.056,2.056,0,0,0,14.39,6.167ZM12.334,14.39H4.111V11.306h8.223Zm0-7.195H4.111V2.056h6.167V3.6a.514.514,0,0,0,.514.514h1.542Zm1.542,2.313a.771.771,0,1,1,.771-.771A.771.771,0,0,1,13.876,9.507Z"/></svg>