<svg xmlns="http://www.w3.org/2000/svg" width="24" height="21" viewBox="0 0 24 21"><defs><style>.a{fill:#fff;}</style></defs><path class="a" d="M21.54,12.89,16.761,5.637a1.057,1.057,0,0,0-.905-.47,1.07,1.07,0,0,0-.905.47L10.172,12.89H4.947A1.1,1.1,0,0,0,3.856,14a1.316,1.316,0,0,0,.038.3L6.66,24.552a2.192,2.192,0,0,0,2.105,1.615H22.947a2.18,2.18,0,0,0,2.1-1.621L27.812,14.29A1,1,0,0,0,27.856,14a1.1,1.1,0,0,0-1.091-1.106H21.54Zm-8.956,0,3.273-4.868,3.273,4.868H12.583Zm3.273,8.851a2.213,2.213,0,1,1,2.182-2.213A2.2,2.2,0,0,1,15.856,21.741Z" transform="translate(-3.856 -5.167)"/></svg>