<svg xmlns="http://www.w3.org/2000/svg" width="161.065" height="174.371" viewBox="0 0 161.065 174.371"><defs><style>.a{fill:#f9ab00;}</style></defs><g transform="translate(-22.111 -53.615)"><path class="a" d="M42.113,73.5a126.108,126.108,0,0,0-17.392,68.493c0,13.849,8.8,43.586,27.912,29.737,15.244-10.735,18.143-34.568,18.787-51.745s.644-46.592-11.487-61.515c-.537-.644-1.825.644-1.718,1.288,5.153,31.348,14.708,62.266,2.362,93.506A29.728,29.728,0,0,1,54.459,164c-11.487,10.736-18.143.966-21.471-7.193A63.291,63.291,0,0,1,29.552,130.4,142.144,142.144,0,0,1,43.616,73.284c0-.966-.859-.859-1.181,0Z" transform="translate(24.652 45.554)"/><path class="a" d="M27.837,177.341a39.614,39.614,0,0,0,67.2-23.511,114.329,114.329,0,0,0-6.549-55.717C82.481,82.868,69.92,61.4,52.743,57.64c-1.074,0-2.577,1.181-1.932,2.254C57.467,70.63,69.276,76.749,76.469,87.27a89.661,89.661,0,0,1,14.278,41.01c1.61,15.137,3.006,32.743-7.193,44.982-14.493,17.391-36.823,12.453-53.678,1.181-1.181-.752-3.543,1.5-2.469,2.469Z" transform="translate(48.912 39.191)"/><path class="a" d="M128.387,219.86a40.9,40.9,0,0,0,43.694-14.278,57.864,57.864,0,0,0,4.4-61.085,137.655,137.655,0,0,0-49.491-53.678A69.533,69.533,0,0,1,107.13,75.9c-4.4-6.871,1.61-13.956,1.718-21.471,0-.859-.966-.966-1.61-.644-5.046,2.469-11.916,4.079-15.244,9.018-2.254,3.221-1.4,5.582-2.362,9.125-2.9,10.736-11.487,14.6-20.4,19.539a94.671,94.671,0,0,0-38.111,42.3,77.622,77.622,0,0,0-6.656,55.288C29.62,203.971,41,217.5,58.069,213.311c.537,0,1.288-1.4,0-1.288-20.5,3.865-31.562-19.753-32.851-36.716A90.929,90.929,0,0,1,42.61,118.839a86.323,86.323,0,0,1,23.4-22.759A135.341,135.341,0,0,0,85.445,85.344a26.023,26.023,0,0,0,6.763-10.735c1.825-4.724,3.972-17.821,10.736-15.674q3.543-2.786,2.362,1.4a8.681,8.681,0,0,1-1.181,4.187c-2.147,8.8-2.9,12.024,4.509,18.358,11.487,9.769,25.014,16.64,36.286,26.839a104.232,104.232,0,0,1,34.032,53.141c6.119,28.02-15.352,66.453-48.632,55.073-1.074,0-3.113,1.932-1.825,2.469Z" transform="translate(0 0)"/><path class="a" d="M23.09,96.675a157.263,157.263,0,0,1,6.656-17.821c3.543-6.656,7.73-12.883,11.7-19.324h0A88.753,88.753,0,0,0,23.2,96.782h0Z" transform="translate(9.536 57.591)"/><path class="a" d="M25.569,65.677c1.825-2.254,3.543-4.616,5.368-6.871h0a20.825,20.825,0,0,0-5.8,7.085h.537Z" transform="translate(29.494 48.223)"/><path class="a" d="M32.379,62.01a295.351,295.351,0,0,1,2.9,53.678h0A133.115,133.115,0,0,0,32.487,62.01h-.107Z" transform="translate(95.793 81.735)"/><path class="a" d="M34.951,67.989a20.708,20.708,0,0,1-3.221,7.73h0a9.223,9.223,0,0,0,3.65-8.159h-.751Z" transform="translate(93.651 135.767)"/><path class="a" d="M37.044,63.695c.644,8.588-1.181,16.855-.859,25.336h0a66.9,66.9,0,0,0,.966-25.551h0Z" transform="translate(136.647 96.046)"/><path class="a" d="M35.634,64.472a149.156,149.156,0,0,1-8.374,35.32h0A72.37,72.37,0,0,0,35.848,64.15H35.1Z" transform="translate(50.133 102.569)"/><path class="a" d="M30.3,58.054a156.691,156.691,0,0,1,20.612,18.68h0A41.665,41.665,0,0,0,30.622,57.41h0Z" transform="translate(79.729 36.952)"/></g></svg>