<svg xmlns="http://www.w3.org/2000/svg" width="110.241" height="176.3" viewBox="0 0 110.241 176.3"><defs><style>.a{fill:#f9ab00;}</style></defs><g transform="translate(-99.29 -6.991)"><path class="a" d="M118.217,47.86a34.838,34.838,0,0,1-1.93-12.32,8.186,8.186,0,0,0-2.612-7.551h0a21.578,21.578,0,0,1,1.93,10.5,18.089,18.089,0,0,0,2.5,9.424h.4Z" transform="translate(66.574 98.217)"/><path class="a" d="M117.749,47.837a23.591,23.591,0,0,0-.965-3.577,16.535,16.535,0,0,1-.284-6.529,12.052,12.052,0,0,0-1.249-8.062h-.341a43.818,43.818,0,0,1,.624,10.446,17.928,17.928,0,0,0,1.93,7.608h.284Z" transform="translate(73.06 106.075)"/><path class="a" d="M130,45.29a29.961,29.961,0,0,0-3.8-3.066,22.147,22.147,0,0,1-3.52-3.8,25.049,25.049,0,0,0-6.813-7.551s-.341,0-.284.284A46.451,46.451,0,0,0,121.99,39.1a81.442,81.442,0,0,0,7.551,6.642s.681,0,.511-.511Z" transform="translate(76.142 111.687)"/><path class="a" d="M137.2,47.325c.795-3.009-4.655-6.869-6.7-8.062s-5.337-2.441-7.891-3.861a36.112,36.112,0,0,1-8.289-6.813h-.284a18.848,18.848,0,0,0,10.333,8.743,49.122,49.122,0,0,1,7.1,3.52c1.76,1.192,5.28,4.2,5.677,6.586h.341Z" transform="translate(68.939 101.023)"/><g transform="translate(99.29 6.991)"><path class="a" d="M156.8,93.392c4.712-2.044,13.739,2.271,18.054,4.031a52.1,52.1,0,0,1,13.739,7.267,42.263,42.263,0,0,1,13.455,20.552c5.961,18.962,1.76,38.322-4.258,56.773l2.9-1.079a54.278,54.278,0,0,0-19.076-40.2C168.156,127.8,152.6,114.909,156.575,94.073l-3.009.454c-1.533,10.73-13.966,13-22.709,14.647a108.515,108.515,0,0,0-14.874,3.406c-5,1.646-9.311,4.655-14.25,6.359l.795,2.044c12.887-15.5,31.282-26.4,51.947-25.037,1.249,0,3.8-3.009,2.044-3.406-9.538-2.157-12.774-7.494-17.032-15.726a125.03,125.03,0,0,0-12.6-18.735,82.09,82.09,0,0,1-13.058-20.325c-3.69-9.992-1.817-19.359-.738-29.635l-3.236,2.328a31.134,31.134,0,0,0,17.032,10.276,52.423,52.423,0,0,1,23.844,13.455c13.455,14.477,12.717,38.492,5.677,55.751-1.022,2.612,2.271,1.646,3.066,0,4.258-8.743,8.4-18.565,17.316-23.5a25.259,25.259,0,0,1,29.408,3.236l1.93-3.179c-18.792,3.236-30.317,22.141-49.846,22.312-1.59,0-3.8,3.52-1.7,3.463,20.268,0,31.509-19.132,50.7-22.425.965,0,3.066-2.214,1.93-3.179a28.051,28.051,0,0,0-32.474-3.293C166.34,69.037,161.287,79.767,156.4,89.872h3.066c6.415-16.067,8.062-37.073-1.192-52.515a42.245,42.245,0,0,0-19.132-16.634c-9.367-4.088-19.473-4.769-26.172-13.342-1.079-1.419-3.122,1.419-3.236,2.328a67.023,67.023,0,0,0,0,28.386,73.715,73.715,0,0,0,12.32,21.517,168.925,168.925,0,0,1,16.18,25.264,20.787,20.787,0,0,0,15.385,11.355l2.044-3.406c-22.312-1.476-42.125,11.014-55.978,27.648-.624.738-.624,2.5.795,2.044a206.452,206.452,0,0,1,20.495-8c6.3-1.476,12.831-2.044,18.962-4.144A21.568,21.568,0,0,0,156.4,94.187c.341-2.328-2.839-.681-3.122.795-3.293,17.032,5.677,29.976,17.77,41.217,13.682,12.831,27.081,26.059,26.57,46.27,0,1.93,2.612,0,2.9-1.079,6.529-20.041,11.071-42.069,2.612-62.45a40.583,40.583,0,0,0-16.351-19.587,71.962,71.962,0,0,0-18.848-7.437,17.029,17.029,0,0,0-11.355-.454c-1.022.511-1.646,2.668,0,1.987Z" transform="translate(-99.29 -6.991)"/><path class="a" d="M145.851,87.555A93.314,93.314,0,0,1,135.518,67.06,83.163,83.163,0,0,0,127.8,47.587a215.334,215.334,0,0,0-12.944-17.429,69.013,69.013,0,0,1-7.835-12.206,83.972,83.972,0,0,0-4.372-9.992c0-.4-1.022.4-.965.738,2.612,15.1,14.761,25.6,22.709,37.811a87.808,87.808,0,0,1,9.481,23.05,38.944,38.944,0,0,0,10.9,18.962c.454.341,1.419-.511,1.135-.965Z" transform="translate(-88.112 -2.971)"/><path class="a" d="M152.939,105.559a84.175,84.175,0,0,1,0-9.424,49.885,49.885,0,0,0-2.1-10.787A66.876,66.876,0,0,0,140.79,64.229C135.907,57.473,129.776,51.8,124.5,45.323A153.988,153.988,0,0,1,110.587,22.1c0-.511-.908,0-.965.568-.341,6.018,5.677,13.8,8.857,18.678,4.655,6.869,10.56,12.944,15.669,19.53a85.035,85.035,0,0,1,13.512,23.9A52.366,52.366,0,0,1,150.9,97.951a18.313,18.313,0,0,0,1.022,8.346c.341.568,1.306,0,1.192-.738Z" transform="translate(-51.031 62.708)"/><path class="a" d="M149.769,22.394a81.195,81.195,0,0,1-15.612,8.97c-3.917,1.363-7.948,2.384-11.809,3.861A70.192,70.192,0,0,0,100.49,47.374v.4a198.648,198.648,0,0,1,29.635-13.625,48.282,48.282,0,0,0,19.927-11.355c.511-.511,0-1.135-.454-.738Z" transform="translate(-93.676 62.871)"/><path class="a" d="M156.437,18.647c-5.28-3.8-14.08.908-19.132,3.463A108.972,108.972,0,0,0,124.191,30.4,84.508,84.508,0,0,0,109.6,41.356v.568a174.64,174.64,0,0,0,20.268-13.171c6.472-4.2,17.032-10.844,24.866-8.4.681,0,2.271-1.192,1.476-1.76Z" transform="translate(-51.066 40.844)"/><path class="a" d="M112.675,68.063c-2.214-11.355,4.655-21.857,5.053-32.985a29.97,29.97,0,0,0-9.2-23.788s-.4,0-.284.284a39.413,39.413,0,0,1,7.494,32.758c-1.7,8.175-5.677,15.556-3.633,24.072,0,0,.568,0,.511-.4Z" transform="translate(-57.491 13.115)"/><path class="a" d="M114.844,65c-2.839-17.429,12.49-42.863-8-54.9,0,0-.511.284-.341.4a30.835,30.835,0,0,1,9.992,30.657c-1.306,8-4.428,15.9-1.93,23.958h.284Z" transform="translate(-65.734 7.549)"/><path class="a" d="M115.835,48.823c-.965-12.944,1.93-31-10.56-39.343h0a33.729,33.729,0,0,1,9.311,21.347,160.219,160.219,0,0,0,1.135,18h.114Z" transform="translate(-72.119 4.649)"/><path class="a" d="M117.7,40.7c-5.11-10.616-2.839-24.753-14.08-31.906,0,0-.4,0-.284.284a38.092,38.092,0,0,1,9.311,15.556,64.238,64.238,0,0,0,4.485,16.464C117.133,41.377,117.871,41.094,117.7,40.7Z" transform="translate(-80.456 1.422)"/><path class="a" d="M126.667,37.452A27.786,27.786,0,0,0,115.313,27.4,30.887,30.887,0,0,1,101.8,9.747c0-.284-.511,0-.511.284a24.029,24.029,0,0,0,8.856,15.385C115.483,29.788,121.9,32,126.383,37.565h0Z" transform="translate(-89.934 5.348)"/><path class="a" d="M132.205,37.772a45.433,45.433,0,0,0-14.193-11.014A68.145,68.145,0,0,1,101.775,11.94s-.4,0-.341.284c1.874,6.359,8.8,10.616,13.966,14.136a132.751,132.751,0,0,1,16.464,11.7s.454,0,.4-.341Z" transform="translate(-89.284 16.156)"/><path class="a" d="M127.884,35.645c0-1.135-1.874-2.9-2.5-3.577a29.126,29.126,0,0,0-6.813-5.393A50.415,50.415,0,0,1,103.585,15.32s-.4,0-.341.284c1.476,4.712,6.359,7.267,10.389,9.595a68.487,68.487,0,0,1,7.835,4.769c1.59,1.249,5.393,4.031,5.677,6.131,0,.341.511,0,.568-.341Z" transform="translate(-80.818 31.965)"/><path class="a" d="M123.931,33.664a13.854,13.854,0,0,0-7.494-6.756,23.757,23.757,0,0,1-6.472-3.179,38.044,38.044,0,0,1-4.372-4.939h0a13.165,13.165,0,0,0,7.04,7.494,23.235,23.235,0,0,1,11.355,7.437s.4,0,.341-.284Z" transform="translate(-70.393 48.195)"/><path class="a" d="M110.839,24.06c0,3.406,1.192,6.642,1.079,10.106,0,2.5-.511,5-.738,7.551a12.488,12.488,0,0,0,2.384,10.673h.284c-4.826-9.084,1.646-19.53-2.952-28.727,0-.341-.852,0-.568.511l.4.341h0Z" transform="translate(-47.933 70.346)"/><path class="a" d="M118.216,49.815a27.009,27.009,0,0,1-5.11-12.32c0-4.088.965-8-1.192-11.7h0c.852,5,0,10.276,1.022,15.158a20.326,20.326,0,0,0,5.28,8.913h0Z" transform="translate(-40.833 80.982)"/><path class="a" d="M147.351,49.7c-6.586-15.215-24.7-13-34.858-23.617,0,0-.625,0-.511.4,3.35,5.677,9.651,6.869,15.612,8.97a34.076,34.076,0,0,1,19.473,14.42h.341Z" transform="translate(-39.992 82.292)"/><path class="a" d="M152.746,49.108a32.7,32.7,0,0,0-18.678-13.342,91.988,91.988,0,0,1-11.355-2.782,39.8,39.8,0,0,1-11.922-9.424s-.454,0-.4.341a24.97,24.97,0,0,0,17.827,11.752,48.14,48.14,0,0,1,12.66,3.577,59.343,59.343,0,0,1,11.865,10.162h0Z" transform="translate(-47.375 70.505)"/><path class="a" d="M117.388,23.248a34.175,34.175,0,0,0-4.939,6.188,18.061,18.061,0,0,1-6.529,5.11h0c5.677-1.7,8.289-6.813,11.809-11.355,0-.284,0-.454-.341,0Z" transform="translate(-68.278 67.468)"/><path class="a" d="M111.744,24.02a4.146,4.146,0,0,0-2.271,1.817c-1.59,1.93-3.577,3.52-5.223,5.677h0a87.527,87.527,0,0,0,7.38-6.983s.341-.511,0-.4Z" transform="translate(-76.089 72.657)"/><path class="a" d="M115.814,25.968c-2.612-1.135-8.686-4.826-11.014-1.817h0c2.9-1.987,7.494,2.214,10.616,1.987,0,0,.4,0,0-.341Z" transform="translate(-73.517 67.87)"/><path class="a" d="M111.984,25.311c-3.861-1.022-6.359-2.214-9.424.965h0a7.053,7.053,0,0,1,6.188-1.135,6.994,6.994,0,0,0,2.952,0s.341-.284,0-.341Z" transform="translate(-83.994 73.58)"/><path class="a" d="M122.161,20.1c-2.555-.511-5.223-2.839-7.721-1.249h0c2.782-.511,4.882,1.76,7.551,1.363,0,0,.284,0,0-.284Z" transform="translate(-28.428 45.92)"/><path class="a" d="M121.446,21.791c-2.157-.965-6.7-4.769-8.516-1.476h0c3.009-1.817,5.223,1.59,8.175,1.533h0Z" transform="translate(-35.491 49.168)"/><path class="a" d="M120.239,23.617c-2.271,0-6.87-6.869-8.629-2.214h0c3.633-1.873,5.11,3.974,8.346,2.384,0,0,.341-.4,0-.4Z" transform="translate(-41.665 52.848)"/><path class="a" d="M111.588,30.334a1.722,1.722,0,0,0,0,.681h.454a5.676,5.676,0,0,0,3.066-4.542,25.8,25.8,0,0,0,0-3.974,25.368,25.368,0,0,1,.454-4.769h-.284a6.368,6.368,0,0,0-1.363,5.053c0,1.533.908,7.835-1.987,7.267h0Z" transform="translate(-41.927 43.237)"/><path class="a" d="M113.324,27.927a5.964,5.964,0,0,0,2.328-3.633c.568-2.612-.795-5.11,1.987-7.04h0a3.234,3.234,0,0,0-2.668,2.612,9.142,9.142,0,0,0,0,2.782,8.05,8.05,0,0,1-1.76,5.337h0Z" transform="translate(-34.181 40.42)"/><path class="a" d="M114.774,23.639c2.044-1.873,1.59-4.6,3.179-6.7h0a2.961,2.961,0,0,0-1.7,1.7,13.345,13.345,0,0,0-.4,2.157,16.7,16.7,0,0,1-1.192,2.9h0Z" transform="translate(-27.399 39.542)"/></g></g></svg>