<svg xmlns="http://www.w3.org/2000/svg" xmlns:xlink="http://www.w3.org/1999/xlink" width="250" height="250" viewBox="0 0 250 250"><defs><style>.a{fill:#023663;}.b{fill:#facc00;}.c{clip-path:url(#c);}.d{filter:url(#a);}</style><filter id="a" x="0" y="0" width="250" height="250" filterUnits="userSpaceOnUse"><feOffset input="SourceAlpha"/><feGaussianBlur stdDeviation="20" result="b"/><feFlood flood-opacity="0.161"/><feComposite operator="in" in2="b"/><feComposite in="SourceGraphic"/></filter><clipPath id="c"><rect class="a" width="72.196" height="79.211" transform="translate(0 0)"/></clipPath></defs><g transform="translate(24289 21099)"><g class="d" transform="matrix(1, 0, 0, 1, -24289, -21099)"><circle class="b" cx="65" cy="65" r="65" transform="translate(60 60)"/></g><g transform="translate(-24185.09 -20996.557)"><g class="c" transform="translate(-15.259 -16.742)"><path class="a" d="M8.188,35.017q0,.774-1.031.974a3.412,3.412,0,0,0-1.661.6,12.168,12.168,0,0,0-3.206,8.731,13.911,13.911,0,0,0,.8,4.751q.659,1.835.944,2.406a4.7,4.7,0,0,0,1.746,2c.286.135.575.259.859.372a.8.8,0,0,1,.459.716,1.292,1.292,0,0,1-.3.83.62.62,0,0,1-.646.286,5.745,5.745,0,0,1-1.143-.372,9.948,9.948,0,0,1-2.977-3.407q-.4-.659-.817-1.359A6.541,6.541,0,0,1,.6,50.218a35.348,35.348,0,0,1-.487-3.692A17.3,17.3,0,0,1,0,44.577a13.041,13.041,0,0,1,2.949-8.616A4.77,4.77,0,0,1,6.526,33.9a2.394,2.394,0,0,1,1.461.487c.133.1.2.3.2.629" transform="translate(0 10.4)"/><path class="a" d="M16.3,36.174a33.278,33.278,0,0,1-1.146,5.354q-1.288,4.495-1.488,5.439a13.527,13.527,0,0,1-2.4,5.268,3.113,3.113,0,0,1-2.577,1.488q-1.288-.029-1.918-1.632a16.791,16.791,0,0,1-1.089-6.326,46.231,46.231,0,0,1,.4-5.383,13.14,13.14,0,0,1-.029-1.775q0-1.774,1.375-1.775a1.428,1.428,0,0,1,.615.158q.329.157.644.328.027,1.46-.088,4.3-.143,3.032-.142,4.379,0,1.433.086,2.6a17.29,17.29,0,0,0,.515,2.291,9.471,9.471,0,0,0,1.89-3.578q.231-.745.916-4.065a18.307,18.307,0,0,1,1.232-3.95,5.469,5.469,0,0,0,.342-1.517,5.886,5.886,0,0,1,.344-1.546,1.1,1.1,0,0,1,1.087-.686,1.608,1.608,0,0,1,1.432.629" transform="translate(1.741 10.904)"/><path class="a" d="M17.685,37.122q.055.831.056,1.717,0,1.948-.4,5.869t-.4,5.925c0,.5.009.984.029,1.461a1.03,1.03,0,0,1-1.116.774q-1.233-.057-1.346-1.06a18.486,18.486,0,0,1-.115-2.118,52.508,52.508,0,0,1,.473-5.813,52.256,52.256,0,0,0,.472-5.781c0-.5-.02-.983-.057-1.461a1.013,1.013,0,0,1,.974-.544,2.155,2.155,0,0,1,1.089.316.334.334,0,0,1,.171-.086q.086,0,.086.286a1.206,1.206,0,0,0,0,.4.174.174,0,0,0,.086.114" transform="translate(4.415 11.072)"/><path class="a" d="M24.277,35.013q0,.572-.832,1a.611.611,0,0,1-.487.029c-.267-.076-.408-.115-.429-.115a.492.492,0,0,0-.342.172,5.141,5.141,0,0,0-1.546,3.779,4.508,4.508,0,0,0,.257,1.545q.116.316,2.177,4.438a10.93,10.93,0,0,1,1.372,4.665,6.41,6.41,0,0,1-.772,3.036,4.676,4.676,0,0,1-1.288,1.26,2.647,2.647,0,0,1-1.488.6,1.359,1.359,0,0,1-.486-.086q-.859-.372-.86-.945a1.385,1.385,0,0,1,.43-.83.77.77,0,0,1,.544-.172.614.614,0,0,0,.572-.344,5.9,5.9,0,0,0,.6-2.576,13.167,13.167,0,0,0-1.846-5.4,13.244,13.244,0,0,1-1.846-5.653,6.892,6.892,0,0,1,.686-3.121,4.715,4.715,0,0,1,2.2-2.262,2.981,2.981,0,0,1,1.288-.314,2.316,2.316,0,0,1,1.8.659.946.946,0,0,1,.289.629" transform="translate(5.524 10.346)"/><path class="a" d="M27.432,37.122q.057.831.057,1.717,0,1.948-.4,5.869t-.4,5.925c0,.5.009.984.029,1.461a1.03,1.03,0,0,1-1.116.774q-1.233-.057-1.347-1.06a18.8,18.8,0,0,1-.114-2.118,52.508,52.508,0,0,1,.473-5.813,52.256,52.256,0,0,0,.472-5.781c0-.5-.02-.983-.057-1.461A1.012,1.012,0,0,1,26,36.091a2.155,2.155,0,0,1,1.089.316.336.336,0,0,1,.17-.086c.057,0,.088.1.088.286a1.206,1.206,0,0,0,0,.4.177.177,0,0,0,.085.114" transform="translate(7.406 11.072)"/><path class="a" d="M39.908,34.839q-.4,3.836-.774,7.7a74.708,74.708,0,0,0-.486,7.643q0,1,.057,1.975a.989.989,0,0,1-.329.8,1.146,1.146,0,0,1-.817.342q-.888,0-1.488-1.2a101.128,101.128,0,0,1-4.55-11.221c-.039-.115-.086-.172-.144-.172-.135,0-.22.135-.259.4a73.136,73.136,0,0,0-.486,8.617q0,2.176.114,4.438a1.174,1.174,0,0,1-.486,1.145.6.6,0,0,1-.429.2,1.159,1.159,0,0,1-.515-.171c-.286-.135-.469-.22-.544-.257-.25-.077-.4-.306-.459-.687-.02-.306-.038-.621-.057-.945q-.086-1.6-.085-3.349,0-3.034.342-7.586.545-6.927.6-7.672c.021-.419.372-.63,1.061-.63q.486-.057,1.43.715a44.409,44.409,0,0,1,2.263,5.669,39.209,39.209,0,0,0,2.347,5.7q.431-3.807,1.345-11.508c.058-.38.335-.572.83-.572a2.584,2.584,0,0,1,.6.085c.3.077.486.125.544.144a.6.6,0,0,1,.372.4" transform="translate(8.643 10.493)"/><path class="a" d="M48.251,37.449a30.922,30.922,0,0,1-3.122,1,30.451,30.451,0,0,0-3.118,1,14.882,14.882,0,0,0-.374,3.319,2.97,2.97,0,0,0,1.06.172,9.708,9.708,0,0,0,1.345-.142,9.584,9.584,0,0,1,1.347-.144A2.609,2.609,0,0,1,46.761,43a1.972,1.972,0,0,1,.4.745.351.351,0,0,1-.2.315,3.218,3.218,0,0,0-.4.4.651.651,0,0,1-.572.229,11.926,11.926,0,0,1-2.2.172,6.355,6.355,0,0,0-2.147.344,14.394,14.394,0,0,0-.545,3.349,3.149,3.149,0,0,0,.23,1.316q1.347.947,4.667.8a.779.779,0,0,0,.487-.216.741.741,0,0,1,.43-.214q.8-.171,1.058,1.2a1.147,1.147,0,0,1-.159.845.843.843,0,0,1-.7.414,21.363,21.363,0,0,1-6.014-.544,3.033,3.033,0,0,1-1.458-.887,2.562,2.562,0,0,1-.745-1.547,19.413,19.413,0,0,1,0-4.465c-.533-.362-.774-.715-.716-1.059.021-.172.167-.329.444-.472s.434-.291.473-.444.114-1.058.229-2.719q-1.6-.314-1.575-1.2a1.538,1.538,0,0,1,1-1.317q.915-.372,1.832-.744a13.555,13.555,0,0,1,2.662-.974q1.4-.372,2.806-.716a1.841,1.841,0,0,1,.342-.029,3.7,3.7,0,0,1,1.8.6c.018.077.067.221.142.43a1.528,1.528,0,0,1,.115.457.437.437,0,0,1-.2.372" transform="translate(11.579 10.918)"/><path class="a" d="M51.9,39.353a3.894,3.894,0,0,0,.057-.916,2.119,2.119,0,0,0-.5-1.089,1.661,1.661,0,0,0-1.33-.486c-.459,0-.746.144-.86.429a8.4,8.4,0,0,0-.142,1.632q0,.372.085,1.918a15.468,15.468,0,0,1,0,1.918q2.376-1.774,2.691-3.407m6.041,12.854a.423.423,0,0,1,.085.257q0,.657-1.372,1a33.553,33.553,0,0,1-3.781-3.608q-2.519-2.719-3.749-3.778-.086.745-.315,3.893a19.986,19.986,0,0,1-.516,3.778,1.518,1.518,0,0,0-.357.144.732.732,0,0,1-.5.086,1.568,1.568,0,0,1-1.26-1.747,7.524,7.524,0,0,1,.115-1.143c.076-.554.124-.9.142-1.032q.114-1.658.144-3.95V42.989a42.153,42.153,0,0,1,.429-6.556q.286-1.774,3.349-1.631a3.51,3.51,0,0,1,2.692,1.546,4.786,4.786,0,0,1,1.058,2.977,4.489,4.489,0,0,1-1,2.691A6.279,6.279,0,0,1,50.987,43.9c-.344.192-.516.4-.516.631,0,.248.2.544.6.887q.459.372.916.744.027.031,3.149,2.863a14.615,14.615,0,0,1,2.806,3.178" transform="translate(14.167 10.673)"/><path class="a" d="M9.74,57.237a40.89,40.89,0,0,0,45.985-2.7c1.155-.9-.467-2.5-1.61-1.611A38.558,38.558,0,0,1,10.89,55.27c-1.255-.766-2.4,1.2-1.15,1.967" transform="translate(2.822 16.157)"/><path class="a" d="M19.292,10.106q-.1-1.274-.244-2.548a2.641,2.641,0,0,0-1.461-1.99c-.746-.106-.191-.012-.58.014a1.219,1.219,0,0,0-1.023.278.8.8,0,0,0-.291.8q.437,2.589.583,3.863.341,3.424.341,5.892,0,9.076-4.89,14.116a4.416,4.416,0,0,1-.73.429A2.761,2.761,0,0,1,8.628,30.7q-.913-.645-1.764-1.353a1.572,1.572,0,0,0-1.576-.259c-.7.172-1.3.9-1.006,1.5a5.5,5.5,0,0,0,1.985,2.158.911.911,0,0,0,.141.12,10.577,10.577,0,0,0,1.437.826,5.447,5.447,0,0,0,.5.318,4.237,4.237,0,0,0,.585.25,5.109,5.109,0,0,0,1.895-.065q7.886-3.225,8.716-15.407a45.288,45.288,0,0,0-.244-8.681" transform="translate(1.29 1.692)"/><path class="a" d="M25.375,4.275a5.9,5.9,0,0,1,.2,1.513,10.29,10.29,0,0,1-.835,3.544q-1.2,3.066-1.354,3.7-.959,3.5-2.709,3.5a1.771,1.771,0,0,1-.636-.12c-.558-.184-.09-.886.068-1.63s.544-1.751,1.474-4.512a26.17,26.17,0,0,0,1.234-5.5c.052-.583.078-1.328,1.086-1.222a5.281,5.281,0,0,1,.916.159.838.838,0,0,1,.558.557" transform="translate(6.066 1.088)"/><path class="a" d="M15.408,1.1A1.113,1.113,0,0,0,14.79.337c-.409-.372-.6-.436-1.055-.192a1.15,1.15,0,0,0-.625,0,1.233,1.233,0,0,0-.856,1.508l.923,2.335a1.293,1.293,0,0,0,1.049.883c.708.4,1.3-.022,1.41-1.04A7.44,7.44,0,0,0,15.408,1.1" transform="translate(3.74 -0.001)"/><path class="a" d="M17.237,31.7a1.224,1.224,0,0,0-1.733,0,1.39,1.39,0,0,0-.361.866c-.007.085-.016.17-.024.255a1.252,1.252,0,0,0,.506,1.52l.054.035a1.226,1.226,0,0,0,1.844-1.058c.024-.251.048-.5.072-.751a1.22,1.22,0,0,0-.358-.866" transform="translate(4.612 9.613)"/><path class="a" d="M27.161,32.188a1.224,1.224,0,0,0-1.733,0l-.193.248a1.245,1.245,0,0,0-.157.477,3.148,3.148,0,0,1-.08.314,1.264,1.264,0,0,0-.176,1c.005.02.009.038.013.058a1.234,1.234,0,0,0,2.241.293,4.423,4.423,0,0,0,.444-1.521,1.216,1.216,0,0,0-.359-.866" transform="translate(7.605 9.764)"/><path class="a" d="M49.552,19.835A43.923,43.923,0,0,1,43.337,27.7q-1.66,1.713-3.479,3.267c-.355.3-1.417,1.491-1.913,1.486-.593-.008-1.728-1.407-2.148-1.815-.17-.163-.763-.732-.987-.9C31.121,26.993,25.1,22.8,26.22,17.426c1.025-4.928,7.258-6.484,10.926-3.084.512.473.43.629.946.179,2.337-2.039,6.334-3.771,9.426-2.918,3.937,1.086,3.777,5.332,2.033,8.231M48.862,9.46c-3.735-1.387-8-.14-11.112,2.173a8.852,8.852,0,0,0-13.516,3.9c-2.746,7.092,4.386,12.638,9.338,16.323.072.055.365.395.491.516,1.159,1.121,3.14,3.356,4.942,2.382a26.374,26.374,0,0,0,5.319-4.567c3.122-3.085,6.687-6.925,8.326-11.062,1.474-3.719.153-8.2-3.788-9.665" transform="translate(7.248 2.724)"/></g></g></g></svg>