<svg xmlns="http://www.w3.org/2000/svg" width="38.102" height="24.246" viewBox="0 0 38.102 24.246"><defs><style>.a{fill:#434343;}</style></defs><path class="a" d="M27.478,17.891a5.2,5.2,0,1,0-5.2-5.2A5.174,5.174,0,0,0,27.478,17.891Zm-13.855,0a5.2,5.2,0,1,0-5.2-5.2A5.174,5.174,0,0,0,13.623,17.891Zm0,3.464C9.588,21.355,1.5,23.381,1.5,27.417v4.33H25.746v-4.33C25.746,23.381,17.659,21.355,13.623,21.355Zm13.855,0c-.5,0-1.074.035-1.68.087a7.308,7.308,0,0,1,3.412,5.975v4.33H39.6v-4.33C39.6,23.381,31.514,21.355,27.478,21.355Z" transform="translate(-1.5 -7.5)"/></svg>