<svg xmlns="http://www.w3.org/2000/svg" viewBox="0 0 302.68 87.49">
    <defs>
        <style>.cls-1{fill:#00365f;}.cls-2{fill:#e30613;}</style>
    </defs>
    <g id="Layer_2" data-name="Layer 2">
        <g id="Calque_1" data-name="Calque 1">
            <path class="cls-1"
                  d="M4,37.58C4.27,22.17,19.89,8.65,44.14,0,17.6,8.29.26,22,0,37.75c-.29,18,21.9,34.11,54.89,42.78C24.12,71.38,3.74,55.42,4,37.58Z"/>
            <path class="cls-2"
                  d="M187.3,75.06a169.14,169.14,0,0,1-26.8,6.62,227.23,227.23,0,0,1-40.78,2.92C60.47,83.65,12.78,61.47,13.2,35.07c.16-9.8,6.93-18.81,18.42-26.21-14.39,7.88-23.06,18-23.23,29.08C8,63.5,52.67,85.1,109.3,87.3c1.85.08,3.72.13,5.6.16a223.11,223.11,0,0,0,47.57-4.17c17-3.46,31.53-8.91,42.07-15.7A110.82,110.82,0,0,1,187.3,75.06Z"/>
            <path class="cls-1"
                  d="M74.79,18.47C72.5,15.65,69.52,15,65.93,15c-5.19,0-8.16,3.21-8.16,5.95,0,2.9,2.44,3.51,4.65,4.13l4.12,1.06C76.08,28.55,79.21,33,79.21,40.76c0,13.12-10.91,18.39-22.51,18.39-9.08,0-14.5-2.06-19.23-7.48l9.16-8c2.67,3.05,6.48,4.27,11.21,4.27,5,0,8.63-2.75,8.63-5.88,0-2.9-1.6-3.89-4.58-4.65l-4.12-1.07C46.78,33.51,45.1,27.17,45.1,23c0-11.9,9.23-19.07,22.28-19.07,6.8,0,12.82,2.36,16.26,6.79Z"/>
            <path class="cls-1" d="M95.55,58.69H82.88L93.79,4.35h12.67Z"/>
            <path class="cls-1" d="M149.58,15.57H137.14l-8.62,43.12H115.85l8.62-43.12h-13l2.29-11.22h38.08Z"/>
            <path class="cls-1"
                  d="M182.55,36.48l7.25,22.21H175.91l-5.72-20.6h-4.81l-4.2,20.6H148.51L159.43,4.35h19.3c11.38,0,15.57,7.33,15.57,15.72C194.3,26.1,190.64,33.12,182.55,36.48Zm-6-20.83h-6.72l-2.44,11.9h6.64c6,0,7.48-4.58,7.48-6.79C181.56,17.4,179.73,15.65,176.6,15.65Z"/>
            <path class="cls-1"
                  d="M225.52,58.69l-.76-8.55h-16.1l-4.2,8.55H191L220.56,4.35h9.85l8,54.34Zm-3.43-34.88-8.25,16h9.93Z"/>
            <path class="cls-1"
                  d="M292.19,58.69H279.52l4.92-26.79-9.69,13.44h-8.09l-5-13.44-5.42,26.79H243.61L254.52,4.35h11.83l6.95,24,16.94-24h12.44Z"/>
        </g>
    </g>
</svg>