<svg xmlns="http://www.w3.org/2000/svg" width="150" height="43.358" viewBox="0 0 150 43.358">
  <g id="Logo" transform="translate(-168.698 -224.27)">
    <path id="Tracé_2589" data-name="Tracé 2589" d="M170.691,242.893c.123-7.638,7.863-14.334,19.883-18.623-13.155,4.107-21.75,10.9-21.875,18.709-.144,8.943,10.852,16.9,27.2,21.2-15.247-4.532-25.35-12.442-25.209-21.286" transform="translate(0 0)" fill="#002a4d"/>
    <path id="Tracé_2590" data-name="Tracé 2590" d="M260.89,260.8a83.533,83.533,0,0,1-13.282,3.282,112.816,112.816,0,0,1-20.21,1.445c-29.364-.47-53-11.459-52.788-24.542.078-4.86,3.435-9.324,9.126-12.992-7.131,3.909-11.424,8.907-11.513,14.41-.2,12.669,21.948,23.372,50.01,24.466q1.379.053,2.778.077a110.225,110.225,0,0,0,23.57-2.066c8.434-1.716,15.626-4.414,20.85-7.781a54.967,54.967,0,0,1-8.541,3.7" transform="translate(0.63 0.666)" fill="#dc0023"/>
    <path id="Tracé_2591" data-name="Tracé 2591" d="M202.944,233.131a5.116,5.116,0,0,0-4.387-1.739c-2.571,0-4.047,1.588-4.047,2.949,0,1.437,1.209,1.74,2.308,2.043l2.042.529c4.728,1.209,6.278,3.4,6.278,7.261,0,6.506-5.408,9.115-11.157,9.115-4.5,0-7.186-1.021-9.531-3.706l4.539-3.972a6.952,6.952,0,0,0,5.559,2.118c2.459,0,4.274-1.361,4.274-2.912,0-1.437-.794-1.93-2.269-2.308l-2.043-.529c-5.446-1.4-6.278-4.538-6.278-6.619,0-5.9,4.576-9.455,11.044-9.455,3.367,0,6.354,1.173,8.056,3.367Z" transform="translate(2.816 0.293)" fill="#002a4d"/>
    <path id="Tracé_2592" data-name="Tracé 2592" d="M209.82,253.029h-6.278L208.95,226.1h6.277Z" transform="translate(6.228 0.327)" fill="#002a4d"/>
    <path id="Tracé_2593" data-name="Tracé 2593" d="M234.446,231.66h-6.165l-4.274,21.369h-6.279L222,231.66h-6.429l1.134-5.559h18.872Z" transform="translate(8.379 0.327)" fill="#002a4d"/>
    <path id="Tracé_2594" data-name="Tracé 2594" d="M245.054,231.7h-3.328l-1.211,5.9h3.29a3.392,3.392,0,0,0,3.707-3.365,2.254,2.254,0,0,0-2.459-2.534M248,242.023l3.593,11.006h-6.883l-2.837-10.212h-2.382l-2.079,10.212h-6.279l5.408-26.929h9.568c5.636,0,7.716,3.632,7.716,7.792A8.968,8.968,0,0,1,248,242.023" transform="translate(11.161 0.327)" fill="#002a4d"/>
    <path id="Tracé_2595" data-name="Tracé 2595" d="M264.408,235.745l-4.086,7.942h4.917Zm1.7,17.284-.377-4.235h-7.98l-2.08,4.235h-6.694L263.651,226.1h4.879l3.97,26.929Z" transform="translate(14.35 0.327)" fill="#002a4d"/>
    <path id="Tracé_2596" data-name="Tracé 2596" d="M295.193,253.029h-6.278l2.436-13.275-4.8,6.656h-4.009l-2.459-6.656-2.686,13.275h-6.277l5.407-26.928h5.863l3.443,11.876,8.4-11.876h6.165Z" transform="translate(18.308 0.327)" fill="#002a4d"/>
    <g id="Groupe_884" data-name="Groupe 884" transform="translate(168.698 224.27)">
      <path id="Tracé_2597" data-name="Tracé 2597" d="M170.691,242.893c.123-7.638,7.863-14.334,19.883-18.623-13.155,4.107-21.75,10.9-21.875,18.709-.144,8.943,10.852,16.9,27.2,21.2-15.247-4.532-25.35-12.442-25.209-21.286" transform="translate(-168.698 -224.27)" fill="#002a4d"/>
      <path id="Tracé_2598" data-name="Tracé 2598" d="M260.89,260.8a83.533,83.533,0,0,1-13.282,3.282,112.816,112.816,0,0,1-20.21,1.445c-29.364-.47-53-11.459-52.788-24.542.078-4.86,3.435-9.324,9.126-12.992-7.131,3.909-11.424,8.907-11.513,14.41-.2,12.669,21.948,23.372,50.01,24.466q1.379.053,2.778.077a110.225,110.225,0,0,0,23.57-2.066c8.434-1.716,15.626-4.414,20.85-7.781a54.967,54.967,0,0,1-8.541,3.7" transform="translate(-168.068 -223.604)" fill="#dc0023"/>
      <path id="Tracé_2599" data-name="Tracé 2599" d="M202.944,233.131a5.116,5.116,0,0,0-4.387-1.739c-2.571,0-4.047,1.588-4.047,2.949,0,1.437,1.209,1.74,2.308,2.043l2.042.529c4.728,1.209,6.278,3.4,6.278,7.261,0,6.506-5.408,9.115-11.157,9.115-4.5,0-7.186-1.021-9.531-3.706l4.539-3.972a6.952,6.952,0,0,0,5.559,2.118c2.459,0,4.274-1.361,4.274-2.912,0-1.437-.794-1.93-2.269-2.308l-2.043-.529c-5.446-1.4-6.278-4.538-6.278-6.619,0-5.9,4.576-9.455,11.044-9.455,3.367,0,6.354,1.173,8.056,3.367Z" transform="translate(-165.882 -223.977)" fill="#002a4d"/>
    </g>
    <path id="Tracé_2600" data-name="Tracé 2600" d="M209.82,253.029h-6.278L208.95,226.1h6.277Z" transform="translate(6.228 0.327)" fill="#002a4d"/>
    <path id="Tracé_2601" data-name="Tracé 2601" d="M234.446,231.66h-6.165l-4.274,21.369h-6.279L222,231.66h-6.429l1.134-5.559h18.872Z" transform="translate(8.379 0.327)" fill="#002a4d"/>
    <g id="Groupe_885" data-name="Groupe 885" transform="translate(242.297 226.427)">
      <path id="Tracé_2602" data-name="Tracé 2602" d="M245.054,231.7h-3.328l-1.211,5.9h3.29a3.392,3.392,0,0,0,3.707-3.365,2.254,2.254,0,0,0-2.459-2.534M248,242.023l3.593,11.006h-6.883l-2.837-10.212h-2.382l-2.079,10.212h-6.279l5.408-26.929h9.568c5.636,0,7.716,3.632,7.716,7.792A8.968,8.968,0,0,1,248,242.023" transform="translate(-231.136 -226.1)" fill="#002a4d"/>
    </g>
    <path id="Tracé_2603" data-name="Tracé 2603" d="M264.408,235.745l-4.086,7.942h4.917Zm1.7,17.284-.377-4.235h-7.98l-2.08,4.235h-6.694L263.651,226.1h4.879l3.97,26.929Z" transform="translate(14.35 0.327)" fill="#002a4d"/>
    <path id="Tracé_2604" data-name="Tracé 2604" d="M295.193,253.029h-6.278l2.436-13.275-4.8,6.656h-4.009l-2.459-6.656-2.686,13.275h-6.277l5.407-26.928h5.863l3.443,11.876,8.4-11.876h6.165Z" transform="translate(18.308 0.327)" fill="#002a4d"/>
  </g>
</svg>
