<svg xmlns="http://www.w3.org/2000/svg" width="188.594" height="46" viewBox="0 0 188.594 46">
    <defs>
        <style>.a{fill:#fff;}</style>
    </defs>
    <g transform="translate(0 0)">
        <path class="a"
              d="M1164.337,273.748a.846.846,0,0,0,.853-.895c0-.635-.383-.938-1.168-.938h-1.269v3.322h.477V273.79h.587l.013.018.91,1.43h.51l-.979-1.481Zm-.552-.333h-.553v-1.123h.7c.363,0,.776.059.776.534,0,.546-.418.589-.926.589"
              transform="translate(-978.393 -230.666)"/>
        <path class="a" d="M203.8,92.5h7.045v25.663h13.043v6.5H203.8Z" transform="translate(-203.8 -85.741)"/>
        <path class="a"
              d="M322.216,100.85h6.768v21.8h-6.768ZM325.6,90.014a3.926,3.926,0,1,1-3.927,3.926,3.926,3.926,0,0,1,3.927-3.926"
              transform="translate(-299.013 -83.735)"/>
        <path class="a"
              d="M506.953,92.486h6.768v19.222l7.671-8.871h8.3l-8.883,10.091,8.7,11.724H521l-7.185-10.774h-.089v10.773h-6.768Z"
              transform="translate(-448.67 -85.732)"/>
        <path class="a"
              d="M379.2,144.108h6.5v2.979h.092a7.11,7.11,0,0,1,6.409-3.521c6.863,0,8.127,4.516,8.127,10.382V165.9h-6.768V155.3c0-2.53-.047-5.781-3.525-5.781-3.518,0-4.061,2.755-4.061,5.6V165.9H379.2Z"
              transform="translate(-345.476 -126.991)"/>
        <path class="a"
              d="M633.357,151.941a4.058,4.058,0,0,0-4.155-4.153,4.516,4.516,0,0,0-4.783,4.153Zm5.733,9.659a11.921,11.921,0,0,1-9.256,4.337c-6.768,0-12.187-4.518-12.187-11.514s5.418-11.512,12.187-11.512c6.326,0,10.293,4.512,10.293,11.512v2.122H624.419a5.056,5.056,0,0,0,5.1,4.244,5.776,5.776,0,0,0,4.83-2.664Z"
              transform="translate(-538.084 -126.463)"/>
        <path class="a"
              d="M756.744,108.1c-3.384,0-5.415,2.26-5.415,5.552s2.03,5.554,5.415,5.554,5.419-2.256,5.419-5.554-2.031-5.552-5.419-5.552m11.65,16.523h-6.231v-2.891h-.092a8.51,8.51,0,0,1-6.729,3.432c-6.5,0-10.787-4.693-10.787-11.33,0-6.1,3.791-11.693,10.023-11.693,2.8,0,5.417.766,6.952,2.891h.089V92.473h6.774Z"
              transform="translate(-640.593 -85.721)"/>
        <path class="a"
              d="M942.7,96.275h-6.768v-10.6c0-2.527-.045-5.781-3.52-5.781-3.525,0-4.064,2.754-4.064,5.6V96.274h-6.768v-21.8h6.5v2.979h.091a7.121,7.121,0,0,1,6.411-3.521c6.86,0,8.125,4.512,8.125,10.382ZM913.938,71.5a3.928,3.928,0,1,1,3.927-3.928,3.928,3.928,0,0,1-3.927,3.928m3.384,24.776h-6.775v-21.8h6.775ZM946.07,57.358H907.146a3.333,3.333,0,0,0-3.371,3.292V99.736a3.335,3.335,0,0,0,3.371,3.3H946.07a3.342,3.342,0,0,0,3.384-3.3V60.647a3.34,3.34,0,0,0-3.384-3.292"
              transform="translate(-769.202 -57.355)"/>
        <path class="a"
              d="M1155.234,264.22a3.115,3.115,0,1,0,.06,0h-.06m0,5.873a2.731,2.731,0,1,1,2.685-2.776v.046a2.673,2.673,0,0,1-2.614,2.729h-.071"
              transform="translate(-969.784 -224.449)"/>
    </g>
</svg>