<svg xmlns="http://www.w3.org/2000/svg" width="200" height="55.043" viewBox="0 0 200 55.043"><defs><style>.a{fill:#2865aa;}.b{fill:#e55613;}.c{fill:#fff;}.d{fill:#092040;}</style></defs><g transform="translate(94.23 36.628)"><path class="a" d="M201.749,77.415a4.617,4.617,0,0,0-1.857-1.656,5.356,5.356,0,0,0-2.659-.652,6.943,6.943,0,0,0-2.76.552,6.25,6.25,0,0,0-2.107,1.505,6.462,6.462,0,0,0-1.355,2.258,8.461,8.461,0,0,0-.452,2.81,8.164,8.164,0,0,0,.452,2.76,6.439,6.439,0,0,0,1.3,2.208,5.4,5.4,0,0,0,2.107,1.505,6.943,6.943,0,0,0,2.76.552,5.737,5.737,0,0,0,2.86-.652,5.5,5.5,0,0,0,1.907-1.656l1.907,1.4a8.525,8.525,0,0,1-2.76,2.208,8.656,8.656,0,0,1-3.914.8,10.589,10.589,0,0,1-3.864-.7,9.1,9.1,0,0,1-2.96-1.907,8.879,8.879,0,0,1-1.907-2.91,10.61,10.61,0,0,1,0-7.326,8.879,8.879,0,0,1,1.907-2.91,8.6,8.6,0,0,1,2.96-1.907,10.4,10.4,0,0,1,3.864-.7,9.277,9.277,0,0,1,3.562.753,6.993,6.993,0,0,1,2.96,2.258Z" transform="translate(-187.8 -73)"/></g><rect class="a" width="2.559" height="17.511" transform="translate(113.347 37.03)"/><g transform="translate(0 0.552)"><path class="a" d="M254.652,80.827a6.429,6.429,0,0,0-1.606-4.114,5.378,5.378,0,0,0-4.215-1.606,5.987,5.987,0,0,0-2.358.452,6.981,6.981,0,0,0-1.907,1.254,5.935,5.935,0,0,0-1.3,1.856,6.519,6.519,0,0,0-.552,2.158h11.942Zm2.559.8v.552a3.087,3.087,0,0,1-.05.652H242.609a6.72,6.72,0,0,0,.5,2.459,5.47,5.47,0,0,0,1.355,2.007,6.745,6.745,0,0,0,2.007,1.355,5.9,5.9,0,0,0,2.509.5,6.3,6.3,0,0,0,3.412-.9,6.866,6.866,0,0,0,2.208-2.107l1.907,1.505a10.144,10.144,0,0,1-3.462,2.86,9.994,9.994,0,0,1-4.064.853,9.461,9.461,0,0,1-3.613-.7,8.661,8.661,0,0,1-2.86-1.907,9.9,9.9,0,0,1-1.957-10.236,8.756,8.756,0,0,1,1.856-2.91,8.988,8.988,0,0,1,2.81-1.907,9.254,9.254,0,0,1,7.075,0,7.693,7.693,0,0,1,2.609,1.856,7.986,7.986,0,0,1,1.606,2.76,6.675,6.675,0,0,1,.7,3.312" transform="translate(-119.529 -36.924)"/><path class="a" d="M152.916,79.059c-.151-.251-.3-.552-.452-.853a2.5,2.5,0,0,1-.151-.8,2.119,2.119,0,0,1,.6-1.606,2.253,2.253,0,0,1,3.011-.05,1.823,1.823,0,0,1,.552,1.455,2.284,2.284,0,0,1-.251,1,2.014,2.014,0,0,1-.652.8,3.757,3.757,0,0,1-.9.652,7.579,7.579,0,0,1-.9.452l-.351-.351a4.7,4.7,0,0,0-.5-.7m.8,10.035a3.036,3.036,0,0,1-1.2-.2,3.34,3.34,0,0,1-1-.6,2.322,2.322,0,0,1-.652-.9,2.976,2.976,0,0,1-.251-1.154,3.191,3.191,0,0,1,.7-2.057,5.466,5.466,0,0,1,1.957-1.4l4.064,4.215a5.976,5.976,0,0,1-1.455,1.505,3.762,3.762,0,0,1-2.158.6m6.523-2.459,3.261-5.469h-2.709l-2.158,3.813-3.261-3.362c.351-.2.652-.351,1-.552a6.125,6.125,0,0,0,1.254-1,3.819,3.819,0,0,0,.9-1.3,3.636,3.636,0,0,0,.351-1.656,4.072,4.072,0,0,0-.351-1.756,4.176,4.176,0,0,0-.953-1.3,4.285,4.285,0,0,0-1.4-.8,5.494,5.494,0,0,0-3.362,0,4.277,4.277,0,0,0-1.455.853,3.322,3.322,0,0,0-.953,1.355,4.3,4.3,0,0,0-.351,1.806,3.373,3.373,0,0,0,.2,1.2,4.392,4.392,0,0,0,.5,1.1,4.248,4.248,0,0,0,.7.953c.151.151.3.351.452.5a8.579,8.579,0,0,0-1.154.652,5.813,5.813,0,0,0-1.3,1.154,4.845,4.845,0,0,0-1.154,3.261,5.033,5.033,0,0,0,.452,2.158,4.633,4.633,0,0,0,1.2,1.555,5.408,5.408,0,0,0,1.756.953,7.131,7.131,0,0,0,2.107.3,6.414,6.414,0,0,0,3.061-.7,7.2,7.2,0,0,0,2.107-1.856l2.158,2.308h3.312Z" transform="translate(-73.89 -36.911)"/><path class="b" d="M319.052,55.541c15.2-1,25.439-12.243,25.439-27.647S333.151,1.1,317.8,1.1a28.061,28.061,0,0,0-26.643,18.966A22.52,22.52,0,0,0,290,27.342V55.591h29.052Z" transform="translate(-144.491 -1.1)"/><path class="c" d="M311.719,51.859a2.659,2.659,0,1,1-2.659-2.659,2.645,2.645,0,0,1,2.659,2.659" transform="translate(-152.662 -25.066)"/><path class="c" d="M327.919,51.859a2.659,2.659,0,1,1-2.659-2.659,2.677,2.677,0,0,1,2.659,2.659" transform="translate(-160.733 -25.066)"/><path class="c" d="M344.219,51.859a2.659,2.659,0,1,1-2.659-2.659,2.645,2.645,0,0,1,2.659,2.659" transform="translate(-168.855 -25.066)"/><path class="c" d="M360.419,51.859a2.659,2.659,0,1,1-2.659-2.659,2.677,2.677,0,0,1,2.659,2.659" transform="translate(-176.926 -25.066)"/><path class="c" d="M327.919,35.659A2.659,2.659,0,1,1,325.259,33a2.677,2.677,0,0,1,2.659,2.659" transform="translate(-160.733 -16.994)"/><path class="c" d="M344.119,35.659A2.659,2.659,0,1,1,341.459,33a2.677,2.677,0,0,1,2.659,2.659" transform="translate(-168.805 -16.994)"/><path class="c" d="M360.419,35.659A2.659,2.659,0,1,1,357.759,33a2.677,2.677,0,0,1,2.659,2.659" transform="translate(-176.926 -16.994)"/><path class="c" d="M344.219,68.059a2.659,2.659,0,1,1-2.659-2.659,2.645,2.645,0,0,1,2.659,2.659" transform="translate(-168.855 -33.137)"/><path class="c" d="M344.119,84.359a2.659,2.659,0,1,1-2.659-2.659,2.677,2.677,0,0,1,2.659,2.659" transform="translate(-168.805 -41.258)"/><path class="c" d="M360.419,68.059a2.659,2.659,0,1,1-2.659-2.659,2.677,2.677,0,0,1,2.659,2.659" transform="translate(-176.926 -33.137)"/><path class="d" d="M39.288,30.4H29.152L27.9,18.912c-.1-.9-.151-1.756-.251-2.659s-.151-1.756-.2-2.659c-.1.853-.3,1.706-.5,2.659s-.5,1.907-.8,2.96L22.83,30.4H16.608L13.246,19.213a29.578,29.578,0,0,1-.8-2.96c-.2-.953-.4-1.806-.5-2.659-.05.9-.151,1.756-.2,2.659-.1.853-.151,1.756-.251,2.659L10.236,30.4H0L4.967,1.35H15.755l2.057,7.175a9.286,9.286,0,0,0,.3,1A46.263,46.263,0,0,1,19.719,17h.2c.151-1.254.4-2.559.7-3.914.3-1.4.753-2.96,1.254-4.717L24.034,1.3H34.671l2.709,17.06Z" transform="translate(0 -1.2)"/></g><path class="d" d="M84.736,22.574V19.513h8.329V12.087H84.736V9.278h9.182V1.4H74.5v.151l4.566,28.9h15.1V22.574Z" transform="translate(-37.119 -0.698)"/><g transform="translate(59.759)"><path class="d" d="M133.25,13.794a3.264,3.264,0,0,1-2.308.7h-1.606V8.826h1.606a3.278,3.278,0,0,1,2.308.753,2.689,2.689,0,0,1,.8,2.107,2.689,2.689,0,0,1-.8,2.107m5.118,4.767a5.9,5.9,0,0,0,4.114-2.358,8.365,8.365,0,0,0,1.505-5.118,9,9,0,0,0-3.011-7.275C138.97,2.153,136.059,1.3,132.246,1.3H119.1V30.352h10.236V20.818L134.4,30.4h11.741Z" transform="translate(-119.1 -0.648)"/><path class="d" d="M186.357,9.533a8.477,8.477,0,0,1,3.161.652,10.7,10.7,0,0,1,2.91,2.057V1.455a16.477,16.477,0,0,0-3.362-1.1A20.327,20.327,0,0,0,185.554,0a16.647,16.647,0,0,0-6.172,1.1,14.452,14.452,0,0,0-5.018,3.261A14.78,14.78,0,0,0,171.1,9.282,15.863,15.863,0,0,0,170,15.3a15.306,15.306,0,0,0,1.957,7.777,15.317,15.317,0,0,0,5.82,5.62,13.128,13.128,0,0,0,3.562,1.355,18.025,18.025,0,0,0,4.064.5,15.76,15.76,0,0,0,3.412-.351,18.919,18.919,0,0,0,3.512-1.1V18.364a16,16,0,0,1-3.161,1.907,7.643,7.643,0,0,1-3.061.652,5.256,5.256,0,0,1-3.964-1.505,5.492,5.492,0,0,1-1.505-4.064,5.681,5.681,0,0,1,1.555-4.215,5.557,5.557,0,0,1,4.165-1.606" transform="translate(-144.461)"/></g><path class="d" d="M230.537,29.7V20.216h6.372V30.452h10.437V1.4H236.909v9.684h-6.372V1.4H220.1V30.452h10.437Z" transform="translate(-109.663 -0.698)"/></svg>