<svg xmlns="http://www.w3.org/2000/svg" width="200" height="55.016" viewBox="0 0 200 55.016"><defs><style>.a{fill:#2865aa;}.b{fill:#e55613;}.c{fill:#fff;}</style></defs><g transform="translate(0 0)"><path class="a" d="M201.761,77.364A4.856,4.856,0,0,0,199.9,75.7a5.473,5.473,0,0,0-2.639-.657,6.737,6.737,0,0,0-2.769.547,6.125,6.125,0,0,0-2.112,1.5,6.582,6.582,0,0,0-1.349,2.242,8.167,8.167,0,0,0-.467,2.794,7.981,7.981,0,0,0,.467,2.769,6.732,6.732,0,0,0,1.329,2.227,6.02,6.02,0,0,0,2.1,1.505,6.818,6.818,0,0,0,2.769.547,5.589,5.589,0,0,0,4.756-2.288l1.906,1.425a8.317,8.317,0,0,1-2.749,2.207,8.634,8.634,0,0,1-3.913.823,10.259,10.259,0,0,1-3.858-.692,8.553,8.553,0,0,1-2.92-1.946,8.714,8.714,0,0,1-1.886-2.92,10.279,10.279,0,0,1,0-7.339,8.714,8.714,0,0,1,1.886-2.92,8.554,8.554,0,0,1,2.94-1.926,10.259,10.259,0,0,1,3.858-.692,9.11,9.11,0,0,1,3.572.768,6.968,6.968,0,0,1,2.92,2.288Z" transform="translate(-93.631 -36.332)"/><rect class="a" width="2.548" height="17.518" transform="translate(113.332 37.028)"/><path class="a" d="M254.688,80.794a6.291,6.291,0,0,0-1.59-4.1,5.428,5.428,0,0,0-4.209-1.63,5.824,5.824,0,0,0-2.358.472,6.145,6.145,0,0,0-1.911,1.269,6.4,6.4,0,0,0-1.309,1.836,5.9,5.9,0,0,0-.562,2.152Zm2.584.823v.562a5.734,5.734,0,0,1-.035.637H242.688a6.842,6.842,0,0,0,.527,2.473,6.19,6.19,0,0,0,1.35,2.007,6.376,6.376,0,0,0,2.007,1.37,6.672,6.672,0,0,0,5.93-.411,6.888,6.888,0,0,0,2.192-2.117l1.906,1.5a9.492,9.492,0,0,1-3.461,2.849,9.7,9.7,0,0,1-4.059.858,9.306,9.306,0,0,1-3.612-.692,8.433,8.433,0,0,1-2.865-1.926,9.03,9.03,0,0,1-1.891-2.92,9.567,9.567,0,0,1-.692-3.667,9.858,9.858,0,0,1,.707-3.647,8.915,8.915,0,0,1,1.871-2.92,8.6,8.6,0,0,1,2.809-1.926,8.714,8.714,0,0,1,3.482-.692,8.955,8.955,0,0,1,3.632.692,7.439,7.439,0,0,1,2.619,1.836,8.1,8.1,0,0,1,1.59,2.749,10.28,10.28,0,0,1,.542,3.371" transform="translate(-119.609 -36.356)"/><path class="a" d="M152.755,79.19a4.466,4.466,0,0,1-.436-.843,2.328,2.328,0,0,1,.441-2.433,2.127,2.127,0,0,1,1.57-.6,1.972,1.972,0,0,1,1.45.562,1.926,1.926,0,0,1,.567,1.45,2.167,2.167,0,0,1-.231,1,3.01,3.01,0,0,1-.637.8,5.018,5.018,0,0,1-.918.677c-.291.171-.587.326-.878.467a5.09,5.09,0,0,1-.356-.366,6.518,6.518,0,0,1-.572-.737m.8,10.033a3.456,3.456,0,0,1-1.224-.216,3.361,3.361,0,0,1-1-.582,2.578,2.578,0,0,1-.662-.888,2.714,2.714,0,0,1-.241-1.154,3.055,3.055,0,0,1,.7-2.052,5.774,5.774,0,0,1,1.946-1.42l4.043,4.239a5.759,5.759,0,0,1-1.465,1.505,3.652,3.652,0,0,1-2.082.552m6.522-2.438L163.32,81.3h-2.709l-2.2,3.853-3.251-3.346c.341-.181.672-.366,1-.567a7.1,7.1,0,0,0,1.269-1,4.876,4.876,0,0,0,.913-1.284,3.763,3.763,0,0,0,.351-1.635,4.149,4.149,0,0,0-.351-1.731,3.838,3.838,0,0,0-.958-1.294,4.169,4.169,0,0,0-1.395-.793,5.413,5.413,0,0,0-3.381,0,4.179,4.179,0,0,0-1.435.833,4.079,4.079,0,0,0-.978,1.349,4.46,4.46,0,0,0-.361,1.816A3.823,3.823,0,0,0,150,78.733a5.588,5.588,0,0,0,.5,1.089,7.8,7.8,0,0,0,.682.978c.14.171.281.336.426.5a9.686,9.686,0,0,0-1.144.652,6.476,6.476,0,0,0-1.294,1.134,5.017,5.017,0,0,0-.873,1.455,5.117,5.117,0,0,0-.316,1.821,4.886,4.886,0,0,0,.446,2.137,4.46,4.46,0,0,0,1.209,1.555,5.453,5.453,0,0,0,1.771.943,7.023,7.023,0,0,0,2.122.321,6.251,6.251,0,0,0,3.065-.712,7.184,7.184,0,0,0,2.1-1.861l2.182,2.293h3.306Z" transform="translate(-73.742 -36.493)"/><path class="b" d="M319.026,55.5c15.18-1,25.46-12.256,25.46-27.592S333.113,1.05,317.747,1.05a28.053,28.053,0,0,0-26.639,18.958,22.372,22.372,0,0,0-1.169,7.269V55.5Z" transform="translate(-144.486 -0.523)"/><path class="c" d="M311.718,51.824a2.659,2.659,0,1,1-2.659-2.654,2.659,2.659,0,0,1,2.659,2.654" transform="translate(-152.689 -24.503)"/><path class="c" d="M327.908,51.824a2.659,2.659,0,1,1-2.659-2.654,2.659,2.659,0,0,1,2.659,2.654" transform="translate(-160.757 -24.503)"/><path class="c" d="M344.238,51.824a2.659,2.659,0,1,1-2.659-2.654,2.659,2.659,0,0,1,2.659,2.654" transform="translate(-168.895 -24.503)"/><path class="c" d="M360.418,51.824a2.659,2.659,0,1,1-2.659-2.654,2.659,2.659,0,0,1,2.659,2.654" transform="translate(-176.958 -24.503)"/><path class="c" d="M327.908,35.649a2.659,2.659,0,1,1-2.659-2.659,2.659,2.659,0,0,1,2.659,2.659" transform="translate(-160.757 -16.44)"/><path class="c" d="M344.078,35.649a2.659,2.659,0,1,1-2.654-2.659,2.659,2.659,0,0,1,2.654,2.659" transform="translate(-168.815 -16.44)"/><path class="c" d="M360.418,35.649a2.659,2.659,0,1,1-2.659-2.659,2.659,2.659,0,0,1,2.659,2.659" transform="translate(-176.958 -16.44)"/><path class="c" d="M344.238,68.084a2.659,2.659,0,1,1-2.659-2.654,2.659,2.659,0,0,1,2.659,2.654" transform="translate(-168.895 -32.606)"/><path class="c" d="M344.078,84.364a2.659,2.659,0,1,1-2.654-2.654,2.659,2.659,0,0,1,2.654,2.654" transform="translate(-168.815 -40.719)"/><path class="c" d="M360.418,68.084a2.659,2.659,0,1,1-2.659-2.654,2.659,2.659,0,0,1,2.659,2.654" transform="translate(-176.958 -32.606)"/><path class="c" d="M39.266,30.422H29.137L27.873,18.928c-.075-.9-.161-1.781-.241-2.649s-.15-1.766-.2-2.649c-.115.833-.291,1.716-.5,2.649s-.5,1.916-.808,2.975L22.786,30.422H16.58L13.249,19.254c-.326-1.059-.607-2.042-.808-2.975s-.376-1.816-.5-2.649c-.06.893-.125,1.776-.2,2.659s-.151,1.741-.226,2.639L10.234,30.422H0L4.956,1.39H15.732l2.062,7.179c.06.226.161.557.3,1a45.09,45.09,0,0,1,1.6,7.485h.181c.161-1.239.4-2.538.717-3.923s.742-2.955,1.259-4.7L24.025,1.39H34.65l2.714,17.057Z" transform="translate(0 -0.693)"/><path class="c" d="M84.714,22.55V19.5h8.338V12.05H84.714V9.261H93.9V1.39H74.48v.125l4.58,28.911H94.135V22.55Z" transform="translate(-37.116 -0.693)"/><path class="c" d="M133.227,13.8a3.306,3.306,0,0,1-2.3.722H129.3V8.84h1.625a3.261,3.261,0,0,1,2.3.742,2.8,2.8,0,0,1,.808,2.127,2.684,2.684,0,0,1-.808,2.082m5.112,4.786a5.864,5.864,0,0,0,4.1-2.353,8.232,8.232,0,0,0,1.505-5.1,8.952,8.952,0,0,0-3.01-7.269q-3.01-2.523-8.734-2.508H119.07V30.4H129.3V20.825l5.087,9.577h11.734Z" transform="translate(-59.336 -0.673)"/><path class="c" d="M186.352,9.5a7.625,7.625,0,0,1,3.14.667,10.6,10.6,0,0,1,2.915,2.047V1.465a15.988,15.988,0,0,0-3.321-1.1,17.418,17.418,0,0,0-9.642.732,14.5,14.5,0,0,0-5.017,3.241,14.659,14.659,0,0,0-3.271,4.911,16,16,0,0,0-1.109,6.02,15.246,15.246,0,0,0,1.982,7.806,15.376,15.376,0,0,0,5.819,5.614,13.961,13.961,0,0,0,3.557,1.349,17.312,17.312,0,0,0,4.089.5,16.707,16.707,0,0,0,3.4-.351,20.067,20.067,0,0,0,3.513-1.089V18.346a15.286,15.286,0,0,1-3.176,1.9,7.811,7.811,0,0,1-3.07.642,5.288,5.288,0,0,1-3.983-1.53,5.518,5.518,0,0,1-1.505-4.074,5.724,5.724,0,0,1,1.55-4.2A5.574,5.574,0,0,1,186.342,9.5" transform="translate(-84.739 0)"/><path class="c" d="M230.49,29.674V20.188h6.366V30.422h10.435V1.38H236.856v9.662H230.49V1.38H220.03V30.422h10.46Z" transform="translate(-109.648 -0.688)"/></g></svg>