<svg xmlns="http://www.w3.org/2000/svg" width="96.995" height="96.995" viewBox="0 0 96.995 96.995"><defs><style>.a{fill:#fff;}</style></defs><g transform="translate(-175.569 -44.325)"><path class="a" d="M261.544,141.32H186.59A11.033,11.033,0,0,1,175.569,130.3V55.349A11.034,11.034,0,0,1,186.59,44.325h74.954a11.034,11.034,0,0,1,11.021,11.024V130.3A11.033,11.033,0,0,1,261.544,141.32ZM186.59,47.632a7.726,7.726,0,0,0-7.718,7.718V130.3a7.729,7.729,0,0,0,7.718,7.718h74.954a7.726,7.726,0,0,0,7.714-7.718V55.349a7.723,7.723,0,0,0-7.714-7.718Z" transform="translate(0 0)"/><g transform="translate(183.062 60.472)"><g transform="translate(0 24.991)"><path class="a" d="M218.484,85.785c-26.513,0-40.819-7.829-40.819-15.2,0-4.522,4.736-8.565,13.341-11.393l1.029,3.142c-6.928,2.273-11.064,5.358-11.064,8.25,0,5.623,15.4,11.889,37.513,11.889S256,76.212,256,70.589c0-2.96-3.635-6.2-9.266-8.254l1.133-3.106c7.164,2.613,11.439,6.86,11.439,11.36C259.3,77.956,245,85.785,218.484,85.785Z" transform="translate(-177.665 -47.174)"/><path class="a" d="M210.73,77.342c-14.828,0-29.834-3.7-29.834-10.753S195.9,55.833,210.73,55.833s29.831,3.7,29.831,10.756S225.555,77.342,210.73,77.342Zm0-18.2c-16.2,0-26.531,4.411-26.531,7.45s10.334,7.446,26.531,7.446,26.528-4.411,26.528-7.446S226.924,59.14,210.73,59.14Z" transform="translate(-169.346 -55.833)"/><path class="a" d="M211.194,77.058c-22.857,0-29.53-7.11-29.8-7.414l-.429-.475.061-9.977,3.3.018-.05,8.594c1.709,1.355,8.847,5.948,26.917,5.948,18.17,0,24.219-4.933,25.513-6.263V60.232h3.3V68.59l-.268.411C239.527,69.33,234.208,77.058,211.194,77.058Z" transform="translate(-169.174 -47.185)"/><rect class="a" width="3.305" height="8.42" transform="translate(24.558 18.371)"/><rect class="a" width="3.305" height="8.42" transform="translate(53.472 18.371)"/><rect class="a" width="3.305" height="8.42" transform="translate(39.73 19.642)"/></g><path class="a" d="M186.894,74.079s-7.464-2.3-8.815-8.658,1.666-5.641,0-13.026c0,0,12.947-.079,13.187,16.125,0,0-3.736-.715-5-3.971,0,0-2.066,1.348-.082,4.922S186.894,74.079,186.894,74.079Z" transform="translate(-177.525 -39.694)"/><path class="a" d="M188.913,72.5s-6.71-4-6.517-10.5,2.953-5.083,3.081-12.654c0,0,12.6,2.985,9,18.785,0,0-3.46-1.576-3.925-5.044,0,0-2.324.826-1.24,4.769S188.913,72.5,188.913,72.5Z" transform="translate(-165.495 -47.544)"/><path class="a" d="M195.713,72.245s5.927-5.094,4.629-11.457-3.778-4.508-5.2-11.947c0,0-11.9,5.094-5.655,20.047,0,0,3.139-2.145,3-5.637,0,0,2.434.415,2.038,4.483S195.713,72.245,195.713,72.245Z" transform="translate(-151.891 -48.842)"/><path class="a" d="M198.42,72.525s6.885-3.7,6.985-10.191-2.72-5.215-2.509-12.783c0,0-12.719,2.413-9.834,18.36,0,0,3.528-1.419,4.147-4.858,0,0,2.288.926,1.026,4.815S198.42,72.525,198.42,72.525Z" transform="translate(-139.12 -47.017)"/><path class="a" d="M201.324,73.836s7.4-2.5,8.586-8.887-1.816-5.594-.343-13.023c0,0-12.944.261-12.758,16.465,0,0,3.714-.815,4.9-4.1,0,0,2.1,1.3.211,4.922S201.324,73.836,201.324,73.836Z" transform="translate(-128.379 -40.899)"/></g></g></svg>