<svg xmlns="http://www.w3.org/2000/svg" xmlns:xlink="http://www.w3.org/1999/xlink" width="68.994" height="68.994" viewBox="0 0 68.994 68.994"><defs><style>.a{fill:none;}.b{clip-path:url(#a);}.c{fill:#fff;}.d,.e{fill:#075259;}.e{font-size:16px;font-family:MyriadPro-Light, Myriad Pro;font-weight:300;}</style><clipPath id="a"><rect class="a" width="68.994" height="68.994"/></clipPath></defs><g transform="translate(-19.851 -637.797)"><g class="b" transform="translate(19.851 637.797)"><path class="c" d="M88.846,672.294a34.5,34.5,0,1,1-34.5-34.5,34.5,34.5,0,0,1,34.5,34.5" transform="translate(-19.85 -637.798)"/><path class="d" d="M67.116,665.707a2.454,2.454,0,1,1,2.453,2.524,2.428,2.428,0,0,1-2.453-2.524m4.176,0a1.727,1.727,0,1,0-1.723,1.843,1.742,1.742,0,0,0,1.723-1.843" transform="translate(-11.91 -633.046)"/><path class="d" d="M46.148,651.667H48.66l1.64,4.625c.2.6.389,1.275.594,1.913h.064c.2-.638.369-1.31.575-1.913l1.611-4.625h2.5v10.394H53.547v-3.808c0-1.022.185-2.536.3-3.543h-.063l-.828,2.472L51.5,661.15H50.237l-1.451-3.968-.813-2.472H47.91c.112,1.007.3,2.521.3,3.543v3.808H46.148Z" transform="translate(-14.924 -635.199)"/><path class="d" d="M58.263,651.667h2.77l3.178,10.393H61.778l-.623-2.472H58.044l-.623,2.472H55.079Zm.253,6.09h2.167l-.234-.955c-.278-1.036-.56-2.263-.823-3.348h-.063c-.254,1.1-.521,2.312-.8,3.348Z" transform="translate(-13.251 -635.199)"/><path class="d" d="M65.586,656.72l-2.652-5.053h2.555l.9,1.961c.234.477.454,1.018.73,1.671h.064c.234-.653.452-1.193.657-1.671l.813-1.961H71.1l-2.643,5.165,2.814,5.229H68.712L67.7,659.943c-.253-.545-.487-1.071-.768-1.709h-.059c-.237.638-.471,1.164-.691,1.709l-.949,2.118H62.763Z" transform="translate(-11.812 -635.199)"/><path class="d" d="M34.286,679.649a8.872,8.872,0,1,0,8.139-.209l0-.876V651.546a4.28,4.28,0,0,0-4.03-4.489,4.277,4.277,0,0,0-4.031,4.489v26.872Z" transform="translate(-18.008 -636.062)"/><path class="d" d="M38.581,696.491a9.04,9.04,0,0,1-4.425-16.917l.074-1.139V651.573a4.449,4.449,0,0,1,4.2-4.654,4.446,4.446,0,0,1,4.191,4.654l0,27.792a9.038,9.038,0,0,1-4.031,17.126m-.156-49.25a4.127,4.127,0,0,0-3.875,4.333v26.872l-.082,1.324-.078.044a8.715,8.715,0,1,0,7.993-.2l-.093-.049,0-.974V651.573a4.125,4.125,0,0,0-3.869-4.333" transform="translate(-18.033 -636.088)"/><path class="c" d="M45.394,682.148a7.114,7.114,0,1,1-7.117-7.117,7.112,7.112,0,0,1,7.117,7.117" transform="translate(-17.731 -630.822)"/><rect class="c" width="2.784" height="22.548" transform="translate(19.155 23.425)"/><text class="e" transform="translate(30.442 40.443)"><tspan x="0" y="0">180</tspan></text></g></g></svg>