<svg xmlns="http://www.w3.org/2000/svg" xmlns:xlink="http://www.w3.org/1999/xlink" width="69.332" height="69.332" viewBox="0 0 69.332 69.332"><defs><style>.a{fill:none;}.b{clip-path:url(#a);}.c{fill:#fff;}.d,.e{fill:#075259;}.e{font-size:17px;font-family:MyriadPro-Light, Myriad Pro;font-weight:300;}</style><clipPath id="a"><rect class="a" width="69.332" height="69.332"/></clipPath></defs><g transform="translate(-94.961 -637.797)"><g class="b" transform="translate(94.961 637.797)"><path class="c" d="M164.3,672.463a34.666,34.666,0,1,1-34.669-34.669A34.67,34.67,0,0,1,164.3,672.463" transform="translate(-94.961 -637.798)"/><path class="d" d="M142.226,665.242a2.006,2.006,0,1,1,2.006,2.064,1.985,1.985,0,0,1-2.006-2.064m3.415,0a1.412,1.412,0,1,0-1.409,1.507,1.424,1.424,0,0,0,1.409-1.507" transform="translate(-85.832 -632.899)"/><path class="d" d="M121.258,651.667h2.525l1.648,4.647c.205.606.391,1.281.6,1.922h.064c.2-.641.371-1.316.577-1.922l1.619-4.647H130.8v10.445h-2.1v-3.826c0-1.027.186-2.549.3-3.56h-.063l-.832,2.484-1.458,3.987h-1.272l-1.458-3.987-.817-2.484h-.063c.112,1.012.3,2.533.3,3.56v3.826h-2.069Z" transform="translate(-89.882 -635.118)"/><path class="d" d="M133.389,651.667h2.784l3.194,10.443h-2.446l-.626-2.484h-3.126l-.626,2.484h-2.353Zm.254,6.12h2.178l-.235-.959c-.279-1.042-.563-2.274-.827-3.365H134.7c-.255,1.1-.524,2.323-.8,3.365Z" transform="translate(-88.157 -635.118)"/><path class="d" d="M140.71,656.745l-2.666-5.078h2.568l.9,1.971c.235.48.456,1.023.734,1.679h.064c.235-.656.455-1.2.66-1.679l.817-1.971h2.465l-2.656,5.19,2.828,5.255h-2.574l-1.018-2.129c-.254-.548-.489-1.076-.772-1.717H142c-.239.641-.474,1.169-.694,1.717l-.953,2.129h-2.481Z" transform="translate(-86.673 -635.118)"/><path class="d" d="M109.418,679.809a8.915,8.915,0,1,0,8.179-.21l0-.881v-27.15a4.074,4.074,0,1,0-8.1,0v27Z" transform="translate(-93.062 -636.009)"/><path class="d" d="M113.736,696.734a9.084,9.084,0,0,1-4.447-17l.074-1.144V651.6a4.237,4.237,0,1,1,8.428,0l0,27.928a9.082,9.082,0,0,1-4.051,17.21m-.156-49.491a4.147,4.147,0,0,0-3.894,4.354v27l-.082,1.33-.079.044a8.758,8.758,0,1,0,8.032-.2l-.093-.049,0-.978V651.6a4.146,4.146,0,0,0-3.888-4.354" transform="translate(-93.087 -636.035)"/><path class="c" d="M120.575,682.183a7.149,7.149,0,1,1-7.152-7.152,7.147,7.147,0,0,1,7.152,7.152" transform="translate(-92.776 -630.606)"/><rect class="c" width="2.798" height="22.659" transform="translate(19.249 23.539)"/><text class="e" transform="translate(29.442 41.78)"><tspan x="0" y="0">250</tspan></text></g></g></svg>