<svg xmlns="http://www.w3.org/2000/svg" width="330" height="78.675" viewBox="0 0 330 78.675"><g transform="translate(0 -1.264)"><path d="M245.271,1.2a.629.629,0,0,1,.439-.221.414.414,0,0,1,.392.457.727.727,0,0,1-.224.467c-5.8,7.217-10.02,15.647-10.02,27.35,0,11.684,4.224,19.949,10.02,27.166a.727.727,0,0,1,.224.47.418.418,0,0,1-.392.457.634.634,0,0,1-.439-.224L220.54,33.213a5.061,5.061,0,0,1,0-8.094Z" transform="translate(21.027 2.083)" fill="#e11821"/><path d="M242.352.4C232.674.4,228.9,14.125,228.9,30.478s3.773,29.888,13.451,29.888c5.8,0,10.766-3.4,10.779-6.2a2.341,2.341,0,0,0-.737-1.7c-2.759-2.669-3.829-5.326-3.848-7.671a7.888,7.888,0,0,1,7.45-7.82c4.934,0,7.833,3.876,7.833,8.881,0,4.753-2.031,8.707-4.228,11.877a.8.8,0,0,0-.124.4.41.41,0,0,0,.367.451.67.67,0,0,0,.46-.243l24.731-23.906a5.061,5.061,0,0,0,0-8.094L260.3,2.428a.684.684,0,0,0-.46-.236.4.4,0,0,0-.367.448.825.825,0,0,0,.124.4,20.785,20.785,0,0,1,4.228,11.864c0,5.011-2.9,8.887-7.833,8.887a7.885,7.885,0,0,1-7.45-7.817c.019-2.342,1.089-5.005,3.848-7.662a2.386,2.386,0,0,0,.737-1.711c-.012-2.8-4.974-6.2-10.779-6.2" transform="translate(42.943 0.861)" fill="#004896"/><path d="M195.6,29.9a4.65,4.65,0,0,0-3.179-.974,5.047,5.047,0,0,0-2.517.619,5.732,5.732,0,0,0-1.848,1.664,7.46,7.46,0,0,0-1.123,2.349,9.742,9.742,0,0,0-.373,2.681,4.76,4.76,0,0,0,1.226,3.49,4.1,4.1,0,0,0,3.055,1.247,5.391,5.391,0,0,0,3.742-1.475,7.039,7.039,0,0,0,2.118-3.929l.666-3.033A6.82,6.82,0,0,0,195.6,29.9m.146,11.659a8.908,8.908,0,0,1-2.846,2.974,7.371,7.371,0,0,1-4.053,1.1,8.247,8.247,0,0,1-3.077-.582,7.422,7.422,0,0,1-2.557-1.7,7.912,7.912,0,0,1-1.723-2.744,10.232,10.232,0,0,1-.625-3.7,14.62,14.62,0,0,1,.75-4.635,12.971,12.971,0,0,1,2.14-4.032,10.731,10.731,0,0,1,3.344-2.828,9.02,9.02,0,0,1,4.368-1.061,8.6,8.6,0,0,1,4.032.955,6.825,6.825,0,0,1,2.825,2.7l1.913-8.937a4.446,4.446,0,0,1,.955-2.2,2.357,2.357,0,0,1,1.745-.622h.625a3.383,3.383,0,0,1,2.038.6q.831.607.5,2.224l-4.489,21.035a3.911,3.911,0,0,0-.062,2.433,1.959,1.959,0,0,0,1.558.933,2.594,2.594,0,0,1-.5,1.061,2.887,2.887,0,0,1-.974.706,4.174,4.174,0,0,1-1.767.311,4.038,4.038,0,0,1-3.139-1.083,4.16,4.16,0,0,1-.977-2.909" transform="translate(-58.444 34.304)" fill="#e11821"/><path d="M197.615,22.76a8.124,8.124,0,0,1,2.327-2.89,5.167,5.167,0,0,1,3.161-1.017,4.142,4.142,0,0,1,2.576.79,2.483,2.483,0,0,1,1.039,2.078,3.735,3.735,0,0,1-.4,1.807,4.358,4.358,0,0,1-.874,1.163,3.017,3.017,0,0,1-.89.6c-.28.112-.432.152-.457.124a5.487,5.487,0,0,0-1.1-.831,3.45,3.45,0,0,0-1.726-.373,3.172,3.172,0,0,0-1.789.519,5.154,5.154,0,0,0-1.431,1.475,11.069,11.069,0,0,0-1.145,2.265,18.875,18.875,0,0,0-.834,2.93l-1.163,5.612a4.263,4.263,0,0,1-.955,2.181,2.4,2.4,0,0,1-1.745.6h-.625a3.45,3.45,0,0,1-2.034-.582c-.557-.386-.722-1.12-.5-2.2l3.7-17.458c.028-.056.19-.131.479-.227a3.623,3.623,0,0,1,1.142-.146,3.931,3.931,0,0,1,1.207.187,2.835,2.835,0,0,1,1.039.6,2.939,2.939,0,0,1,.728,1.1,4.626,4.626,0,0,1,.271,1.686" transform="translate(-41.371 39.805)" fill="#e11821"/><path d="M202.465,21.962a3.614,3.614,0,0,1-2.411-.706,2.279,2.279,0,0,1-.834-1.829,3.364,3.364,0,0,1,.936-2.43,3.259,3.259,0,0,1,2.473-.977,3.619,3.619,0,0,1,2.411.706,2.286,2.286,0,0,1,.831,1.829,3.38,3.38,0,0,1-.933,2.43,3.275,3.275,0,0,1-2.473.977M199.055,46.03a5.643,5.643,0,0,1-2.327-.417,2.986,2.986,0,0,1-1.375-1.163,3.785,3.785,0,0,1-.516-1.764,8.709,8.709,0,0,1,.187-2.268l2.66-12.428a4.46,4.46,0,0,1,.955-2.206,2.373,2.373,0,0,1,1.748-.622h.622a4.932,4.932,0,0,1,1.123.128,2.031,2.031,0,0,1,.914.454,1.751,1.751,0,0,1,.52.874,3.061,3.061,0,0,1-.022,1.372l-2.7,12.6a4.319,4.319,0,0,0,0,2.433,1.968,1.968,0,0,0,1.621.933,2.53,2.53,0,0,1-.519,1.061,3.127,3.127,0,0,1-1.039.706,4.6,4.6,0,0,1-1.851.311" transform="translate(-28.987 33.825)" fill="#e11821"/><path d="M229.745,17.5a2.518,2.518,0,0,0-.834-1.079,3.726,3.726,0,0,0-1.957-.653,6.538,6.538,0,0,0-3.469.715c-1.667.743-5.435,6.091-8.791,11.665-2.209,3.668-7.1,11.877-7.1,11.877l-.75-7.565a17.379,17.379,0,0,0-.582-3.515,5.194,5.194,0,0,0-1.247-2.224,3.936,3.936,0,0,0-2.909-1.12,3.812,3.812,0,0,0-2,.457,3.525,3.525,0,0,0-1.12,1.017,3.051,3.051,0,0,0-.479,1.039c-.068.32-.09.479-.062.479a2.737,2.737,0,0,1,1.972.915,6.461,6.461,0,0,1,1.061,3.2l1.664,11.553a2.053,2.053,0,0,0,1.123,1.686,4.671,4.671,0,0,0,2.118.476,6.768,6.768,0,0,0,1.891-.311,3.18,3.18,0,0,0,1.767-1.394s15.411-27.664,19.744-25.742c.028.012.062-.149.1-.454a2.3,2.3,0,0,0-.146-1.023" transform="translate(-21.363 33.224)" fill="#e11821"/><path d="M211.2,27.706c1.055.084,1.994.124,2.828.124a22.287,22.287,0,0,0,3.531-.23,8.607,8.607,0,0,0,2.246-.622,2.731,2.731,0,0,0,1.163-.915,2.011,2.011,0,0,0,.333-1.1,1.9,1.9,0,0,0-.831-1.5,3.934,3.934,0,0,0-2.495-.666,6.416,6.416,0,0,0-4.094,1.394,8.831,8.831,0,0,0-2.681,3.512m-.79,3.7a4.44,4.44,0,0,0,1.269,3.347,5.085,5.085,0,0,0,3.677,1.226,7.181,7.181,0,0,0,3.512-.812,7.625,7.625,0,0,0,2.473-2.14c.028-.028.174-.022.439.022a2.7,2.7,0,0,1,.852.311,2.874,2.874,0,0,1,.831.706,1.782,1.782,0,0,1,.373,1.163,2.909,2.909,0,0,1-.271,1.35,5.353,5.353,0,0,1-.852,1.145,8.1,8.1,0,0,1-2.992,1.767,13.461,13.461,0,0,1-4.445.644,13.224,13.224,0,0,1-4.346-.644,8.189,8.189,0,0,1-3.055-1.81,7.455,7.455,0,0,1-1.807-2.722,9.368,9.368,0,0,1-.6-3.428,12.827,12.827,0,0,1,1-5.111,12.15,12.15,0,0,1,6.772-6.632,13.3,13.3,0,0,1,4.99-.933,9.354,9.354,0,0,1,5.963,1.642,5.237,5.237,0,0,1,2.059,4.3,6.739,6.739,0,0,1-.56,2.787,4.89,4.89,0,0,1-1.894,2.1,10.6,10.6,0,0,1-3.593,1.307,28.88,28.88,0,0,1-5.634.457q-.957,0-1.972-.04t-2.184-.124Z" transform="translate(-6.529 39.805)" fill="#e11821"/><path d="M146.556,35.787a18.846,18.846,0,0,1-5.043-13.46,19.322,19.322,0,0,1,4.949-13.333A15.647,15.647,0,0,1,157.916,3.87c7.758.009,13.236,5.441,13.267,10.141,0,2.51-1.59,4.452-3.742,4.458a4.007,4.007,0,0,1-2.787-1.058,3.893,3.893,0,0,1-1.179-2.909,4.277,4.277,0,0,1,1.313-3,6.789,6.789,0,0,0-6.2-3.241A7.8,7.8,0,0,0,152,12.117a18.493,18.493,0,0,0-2.6,10.163,18.055,18.055,0,0,0,2.681,10.132,8.017,8.017,0,0,0,6.679,3.832,6.741,6.741,0,0,0,6.206-3.229,4.248,4.248,0,0,1-1.313-2.983,3.911,3.911,0,0,1,1.182-2.918,4.011,4.011,0,0,1,2.784-1.055c2.15,0,3.742,1.938,3.742,4.442-.022,4.719-5.512,10.129-13.267,10.141a16.065,16.065,0,0,1-11.538-4.856m111.9-12.179c.495-.016.635-.121.728-.283a2.1,2.1,0,0,0,.124-.927,4.7,4.7,0,0,0-4.8-4.638c-3.633,0-5.108,2.909-5.338,5.848ZM186.293,27.8c-2.784.028-4.66,1.338-4.676,3.929a3.958,3.958,0,0,0,4.265,4.1,6,6,0,0,0,4.489-2.271V29.976a1.827,1.827,0,0,0-1.011-1.45,5.926,5.926,0,0,0-3.067-.725m106.133-1.459c.016,6.937,3.024,9.914,5.988,9.926,3.385,0,5.83-2.989,5.851-8.831a12.938,12.938,0,0,0-1.773-7.142,5.139,5.139,0,0,0-4.349-2.535c-3.515.016-5.7,3.182-5.718,8.583M204.369,39.551c-1.086-.3-1.786-.905-1.786-1.8a2.794,2.794,0,0,1,.3-1.135l.059-.134.137-.019a4.338,4.338,0,0,0,1.736-.771c.641-.541.9-1.291.905-3.378V21.742c-.053-1.773-.473-2.4-1.947-2.445a5.6,5.6,0,0,0-1.176.137l-.224.034-.087-.212a3.087,3.087,0,0,1-.24-1.148c.037-2.1,2.352-3.182,3.913-3.664a5.71,5.71,0,0,1,1.714-.286c2.128-.006,3.279,1.49,3.773,3.406a7.261,7.261,0,0,1,5.77-3.72,3.88,3.88,0,0,1,4.094,3.86A3.545,3.545,0,0,1,217.9,21.4a3.223,3.223,0,0,1-3.229-2.569c-1.21.4-2.927,1.9-2.943,7.108v6.374c.006,2.081.3,2.825.939,3.372a6.322,6.322,0,0,0,2.289.778l.14.019.056.134a2.978,2.978,0,0,1,.323,1.223c0,.859-.644,1.443-1.674,1.726a17.373,17.373,0,0,1-4.629.432,18.592,18.592,0,0,1-4.8-.442m21.116,0c-1.089-.3-1.789-.905-1.786-1.8a2.7,2.7,0,0,1,.3-1.135l.053-.134.143-.019a4.338,4.338,0,0,0,1.736-.771c.638-.541.893-1.291.9-3.378V21.742c-.053-1.773-.473-2.4-1.947-2.445a5.616,5.616,0,0,0-1.173.137l-.23.034-.081-.212a3.129,3.129,0,0,1-.23-1.148c.028-2.1,2.339-3.182,3.9-3.664a5.768,5.768,0,0,1,1.723-.286c2.131-.006,3.273,1.49,3.77,3.413a7.248,7.248,0,0,1,5.767-3.727,3.892,3.892,0,0,1,4.1,3.86,3.558,3.558,0,0,1-3.419,3.692,3.226,3.226,0,0,1-3.232-2.569c-1.207.4-2.924,1.9-2.946,7.108v6.374c.013,2.081.314,2.825.936,3.372a6.461,6.461,0,0,0,2.3.778l.134.019.062.134a2.987,2.987,0,0,1,.317,1.223c.012.859-.635,1.443-1.664,1.726a17.418,17.418,0,0,1-4.629.432,18.561,18.561,0,0,1-4.8-.442m44.68,0c-1.1-.308-1.8-.905-1.8-1.81a2.758,2.758,0,0,1,.289-1.135l.056-.128.143-.019a4.384,4.384,0,0,0,1.733-.771c.635-.541.9-1.291.9-3.378V18.425l-3.724-.134-.072-.162a3.567,3.567,0,0,1-.283-1.31,2.244,2.244,0,0,1,2.364-2.252H271.4V13.025c0-3.708.694-5.82,1.636-7.236,1.45-2.262,3.976-3.811,7.817-3.8,4.831,0,8.881,2.252,8.909,5.861a3.4,3.4,0,0,1-3.369,3.506,3.322,3.322,0,0,1-3.276-3.232,3.469,3.469,0,0,1,.554-1.826,3.855,3.855,0,0,0-2.408-.709,2.987,2.987,0,0,0-2.843,1.384,7,7,0,0,0-.694,3.562v3.994h6.4l.075.171a3.419,3.419,0,0,1,.274,1.338,2.47,2.47,0,0,1-2.23,2.535,12.575,12.575,0,0,1-1.44.056c-1.067,0-2.118-.072-2.9-.093V32.309c.006,2.075.351,2.821.977,3.372a8.005,8.005,0,0,0,2.616.778l.134.019.068.134a2.531,2.531,0,0,1,.258,1.048c0,.952-.778,1.555-1.944,1.87a19.939,19.939,0,0,1-5.027.464,18.749,18.749,0,0,1-4.825-.442m76.167,0c-1.089-.3-1.795-.9-1.792-1.8a2.684,2.684,0,0,1,.292-1.135l.059-.134.134-.019a4.33,4.33,0,0,0,1.714-.771c.663-.541.908-1.291.908-3.378V21.742c-.047-1.773-.454-2.4-1.935-2.445a5.663,5.663,0,0,0-1.173.137l-.23.034-.087-.212A3.32,3.32,0,0,1,344,18.121c.037-2.109,2.352-3.195,3.9-3.677a5.962,5.962,0,0,1,1.751-.286c2.115-.006,3.26,1.509,3.749,3.462a7.209,7.209,0,0,1,5.752-3.776,3.862,3.862,0,0,1,4.094,3.86,3.544,3.544,0,0,1-3.384,3.692,3.256,3.256,0,0,1-3.257-2.569c-1.2.4-2.89,1.9-2.909,7.108v6.374c.006,2.081.3,2.837.89,3.372a6.76,6.76,0,0,0,2.3.778l.14.019.062.134a3.025,3.025,0,0,1,.327,1.238c0,.852-.635,1.431-1.667,1.711a17.068,17.068,0,0,1-4.6.432,18.51,18.51,0,0,1-4.806-.442m-48.189.787a12.8,12.8,0,0,1-9.124-3.661,13.336,13.336,0,0,1-3.783-9.612,12.993,12.993,0,0,1,13.131-13.177,12.814,12.814,0,0,1,9.289,3.652,13.223,13.223,0,0,1,3.661,9.525A12.782,12.782,0,0,1,298.15,40.338ZM242.408,27.565a14.065,14.065,0,0,1,3.6-9.818,12.57,12.57,0,0,1,9.407-3.86,10.281,10.281,0,0,1,7.839,3.17,9.784,9.784,0,0,1,2.514,6.517,7.335,7.335,0,0,1-.849,3.577l-.075.143H249.115c.255,4.576,3.173,7.771,8.25,7.8a8.518,8.518,0,0,0,6.318-2.744l.171-.212.218.162A2.314,2.314,0,0,1,265,34.359c-.025,2.629-3.108,6.013-9.961,6.029a12.653,12.653,0,0,1-12.636-12.823m90.71,11.65a6.9,6.9,0,0,1-.93-2.392c-.255.286-.557.6-1.014,1.036a9.242,9.242,0,0,1-6.371,2.529,8.324,8.324,0,0,1-6.483-2.772c-2.255-2.7-2.243-6.11-2.243-10.969V21.975c-.05-1.882-.641-2.529-2.4-2.585-.233,0-.479.022-.75.047l-.208.022-.081-.2a2.718,2.718,0,0,1-.2-1.011c.053-2.255,2.921-3.462,4.6-3.814a11.426,11.426,0,0,1,1.674-.187,3.681,3.681,0,0,1,3.03,1.229,4.987,4.987,0,0,1,.883,3.148l-.04,7.979c0,2.952.2,5.158.865,6.576a3.407,3.407,0,0,0,3.49,2.087,4.318,4.318,0,0,0,3.982-2.146,9.387,9.387,0,0,0,1.055-4.682V21.975c-.05-1.882-.65-2.538-2.4-2.585-.23,0-.479.022-.743.047l-.212.022-.084-.2a2.658,2.658,0,0,1-.2-1.011c.053-2.255,2.918-3.462,4.6-3.814a11.308,11.308,0,0,1,1.689-.187,3.677,3.677,0,0,1,3.021,1.229,4.914,4.914,0,0,1,.89,3.148c0,.908-.081,2.542-.081,9.342,0,2.871-.053,4.4-.053,4.862.047,1.957.706,2.84,2.52,2.874.187,0,.389-.019.61-.034l.208-.022.084.2a2.786,2.786,0,0,1,.2.986c-.068,2.206-2.94,3.092-4.6,3.422a11.769,11.769,0,0,1-1.571.18h-.037a3.069,3.069,0,0,1-2.7-1.219M174.742,32.166a7.111,7.111,0,0,1,2.971-5.917,12.6,12.6,0,0,1,7.485-2.1,14.025,14.025,0,0,1,5.173.921V22.255c-.047-2.843-1.12-4.461-4.305-4.5a11.02,11.02,0,0,0-3.03.526,4.985,4.985,0,0,1,.171,1.235,3.647,3.647,0,0,1-.877,2.461,3.181,3.181,0,0,1-2.445,1.045,3.269,3.269,0,0,1-3.229-3.366c.037-3.456,4.221-5.774,9.821-5.774,4.439,0,7.22,1.051,8.707,2.965,1.353,1.714,1.425,4.221,1.425,7.768v9.217c.025,1.782,1.039,2.274,3.26,2.61l.255.034-.016.258c-.131,2.433-1.919,3.444-3.842,3.593a4.532,4.532,0,0,1-.507.028,4.907,4.907,0,0,1-4.579-2.812,11.822,11.822,0,0,1-7.345,2.874c-5.161-.006-9.084-3.487-9.093-8.256" transform="translate(-141.513 4.2)" fill="#004896"/></g></svg>