<svg xmlns="http://www.w3.org/2000/svg" width="330" height="80.006" viewBox="0 0 330 80.006"><g transform="translate(0 0)"><g transform="translate(0 0)"><path d="M312.789,21.6c.584-2.1,3.652-2.814,4.651-2.439.534.2-1.588,6.638-1.588,6.638s4.657-6.454,9.317-6.906,2.329,5.4,2.329,5.4,4.811-5.557,8.592-5.106,1.892,4.8,1.318,6.153-3.935,9.3-1.9,9.3,3.5.157,2.473,1.5-5.1,1.505-6.4.455-1.315-3,0-6.755,2.909-7.2,2.181-7.655-3.348,1.957-5.388,4.5-4.224,8.552-5.1,9.452-3.2,1.355-3.634.6,1.742-7.2,2.473-9,2.332-5.253,1.161-5.7-4.221,2.7-6.4,5.852-3.785,7.809-4.955,8.555-2.756.814-3.057.3c-.872-1.5,3.348-13.059,3.932-15.154" transform="translate(-203.535 39.096)" fill="#e50019"/><path d="M336.864,21.879a23.1,23.1,0,0,1-4.242-.1,8.838,8.838,0,0,0-6.383,2.912c-1.757,2.055-4.927,7.938-1.567,8.537s8.537-8.792,9.849-9.594,2.924-.651,2.875-.1-2.679,7.689-2.335,9.142a2.113,2.113,0,0,0,2.676,1.567c.98-.252.931.946.544,1.505s-3.471,1.806-4.977,1.2-2.63-3.066-1.754-5.775c0,0-3.656,4.411-6.341,5.222s-5.508.553-6.242-3.017,1.954-7.385,3.613-8.832c1.659-1.462,7.7-6.427,14.865-5.434,1.8.255,2.212,2.353-.581,2.762" transform="translate(-182.597 39.341)" fill="#e50019"/><path d="M333.539,22.032a10.963,10.963,0,0,0,.445-2.915c-.2-.5-2.3-.255-3.318.808-1.029,1.044-2.249,6.23-2.636,7.781s-2.144,8.291-2,9,3.315.648,4.092-1.557,2.19-10,3.321-11c1.115-1.011,5.256-1.115,7.016-.958,0,0,1.315-2.611.725-3.613s-1.7-.78-3.554-.055a12.226,12.226,0,0,0-4.095,2.516" transform="translate(-167.718 39.09)" fill="#e50019"/><path d="M339.533,16.746a2.773,2.773,0,0,0-3.118,2.107c-.734,2.258-1.628,4.645-2.166,6.841-.427,1.794-3.542,12.755-3.88,14.3-.341,1.561.768,1.926,1.61,1.868,1.478-.117,3.164-5.327,4.046-7.938,0,0,2.359,3.742,3.33,5.161,1.014,1.49,4.153,5.308,5.5,5.892a4.174,4.174,0,0,0,3.554,0c1.014-.63,1.008-1.256-.476-1.972-2.362-1.14-5.2-5.029-6.691-7.649-1.419-2.485-1.511-2.691-1.511-2.691s4.82-3.468,6.273-5.342c1.545-1.981,1.382-3.293.307-3.6s-2.473-.421-3.173,1.2-3.459,6.233-6.285,6.583c0,0,2.731-9.6,3.216-11.1s1.462-3.619-.537-3.665" transform="translate(-158.848 34.635)" fill="#e50019"/><path d="M352.069,22.121c.384,3.868-1.852,5.576-4.679,6.58-2.685.958-7.511.746-7.511.746a3.98,3.98,0,0,0,2.393,4.636c2.433,1.051,6.574-1.613,7.363-2.467.771-.857,1.459-1.3,1.9-.507s-2,3.926-5.5,5.529-8.731.5-9.8-3.115,1.173-7.889,3.8-10.955a12.412,12.412,0,0,1,6.734-3.711s4.921-.608,5.311,3.262m-3.662.955c.249-1.259-1.112-2.319-3.6-1.259s-4.393,5.579-4.393,5.579c5.8.3,7.744-3.066,7.99-4.319" transform="translate(-147.152 39.002)" fill="#e50019"/><path d="M351.586,16.881a4.491,4.491,0,0,0-3.173.952c-1.266,1.161-2.092,5.631-2.092,5.631s-2.826.151-3.413.151-.826.7-1.023,1.355-.1,1.207.971,1.152,2.924-.049,2.924-.049-1.945,6.233-2.482,8.337-1.315,5.877.63,6.485,6.97.5,8.583-1.607-1.364-.9-1.508-.857-3.367.657-3.95-.295,0-2.617.488-4.276,2.485-7.935,2.485-7.935,5.849.2,6.046-.255c.362-.845.777-2.055.2-2.107s-5.852.052-5.852.052,1.441-5.164,1.757-6.125c.144-.458-.587-.608-.587-.608" transform="translate(-135.021 34.946)" fill="#e50019"/><path d="M379.206.837a.636.636,0,0,1,.439-.23.426.426,0,0,1,.4.476.742.742,0,0,1-.224.482c-5.834,7.483-10.082,16.226-10.082,28.36,0,12.116,4.248,20.686,10.082,28.17a.742.742,0,0,1,.224.485.429.429,0,0,1-.4.476.63.63,0,0,1-.439-.233L354.321,34.03a5.346,5.346,0,0,1,0-8.393Z" transform="translate(-113.305 1.258)" fill="#e50019"/><path d="M376.4,0c-9.741,0-13.538,14.229-13.538,31.183s3.8,31,13.538,31c5.84,0,10.832-3.524,10.847-6.426a2.47,2.47,0,0,0-.743-1.766c-2.777-2.765-3.855-5.52-3.874-7.953-.009-4.645,3.9-8.11,7.5-8.11,4.964,0,7.883,4.018,7.883,9.21a22.009,22.009,0,0,1-4.255,12.315.842.842,0,0,0-.126.415c0,.258.154.47.369.47a.665.665,0,0,0,.464-.252L419.35,35.29a5.341,5.341,0,0,0,0-8.393L394.467,2.1A.685.685,0,0,0,394,1.855c-.221,0-.366.209-.369.464a.853.853,0,0,0,.126.418,21.977,21.977,0,0,1,4.255,12.3c0,5.2-2.918,9.216-7.883,9.216-3.6,0-7.508-3.462-7.5-8.1.018-2.43,1.1-5.192,3.874-7.944a2.522,2.522,0,0,0,.743-1.776C387.236,3.533,382.244,0,376.4,0" transform="translate(-91.386)" fill="#e50019"/><path d="M279.53,36.481c-3.066-3.241-5.041-7.969-5.038-13.854a20.266,20.266,0,0,1,4.943-13.732A15.439,15.439,0,0,1,290.878,3.62c7.754.012,13.231,5.6,13.259,10.435,0,2.587-1.591,4.586-3.742,4.589a3.964,3.964,0,0,1-2.783-1.078,4.078,4.078,0,0,1-1.177-3,4.466,4.466,0,0,1,1.312-3.087,6.741,6.741,0,0,0-6.2-3.333,7.765,7.765,0,0,0-6.583,3.969,19.523,19.523,0,0,0-2.59,10.46A18.974,18.974,0,0,0,285.047,33a7.976,7.976,0,0,0,6.678,3.957,6.7,6.7,0,0,0,6.2-3.327,4.422,4.422,0,0,1-1.309-3.069,4.1,4.1,0,0,1,1.176-3.011,3.981,3.981,0,0,1,2.783-1.081c2.15,0,3.736,1.994,3.739,4.571-.025,4.857-5.5,10.426-13.255,10.442a15.823,15.823,0,0,1-11.526-5m111.8-12.537c.5-.012.636-.129.731-.295a2.211,2.211,0,0,0,.126-.952,4.774,4.774,0,0,0-4.8-4.774c-3.631,0-5.1,3-5.333,6.018h9.28Zm-72.1,4.316c-2.783.031-4.657,1.379-4.672,4.043a4.02,4.02,0,0,0,4.261,4.23,5.944,5.944,0,0,0,4.485-2.341V30.5A1.871,1.871,0,0,0,322.3,29.01a5.725,5.725,0,0,0-3.066-.75m106.034-1.505c.015,7.145,3.026,10.217,5.987,10.226,3.379-.006,5.824-3.078,5.846-9.093a13.608,13.608,0,0,0-1.776-7.354,5.114,5.114,0,0,0-4.341-2.611c-3.511.006-5.7,3.275-5.717,8.832m-87.971,13.6c-1.087-.3-1.785-.925-1.785-1.849a2.934,2.934,0,0,1,.295-1.177l.058-.132.138-.028a4.173,4.173,0,0,0,1.736-.789c.636-.556.894-1.327.9-3.484V22.024c-.052-1.834-.467-2.473-1.945-2.516a6.333,6.333,0,0,0-1.173.129l-.227.043-.083-.218a3.223,3.223,0,0,1-.237-1.186c.037-2.163,2.344-3.275,3.908-3.772a5.7,5.7,0,0,1,1.714-.292c2.126-.006,3.272,1.533,3.769,3.508,1.388-2.3,3.6-3.828,5.763-3.837a3.936,3.936,0,0,1,4.095,3.981,3.619,3.619,0,0,1-3.413,3.8,3.25,3.25,0,0,1-3.228-2.642c-1.207.409-2.921,1.957-2.937,7.311V32.9c0,2.15.3,2.921.934,3.471a6.03,6.03,0,0,0,2.289.8L348,37.2l.061.132a3.142,3.142,0,0,1,.316,1.263c.009.879-.636,1.487-1.668,1.782a17.08,17.08,0,0,1-4.62.436,18.046,18.046,0,0,1-4.8-.455m21.1,0c-1.087-.3-1.788-.925-1.785-1.849a2.936,2.936,0,0,1,.295-1.177l.058-.132.141-.028a4.173,4.173,0,0,0,1.73-.789c.636-.556.9-1.327.9-3.484V22.024c-.049-1.834-.467-2.473-1.938-2.516a6.334,6.334,0,0,0-1.176.129l-.227.043-.083-.218a3.221,3.221,0,0,1-.236-1.186c.037-2.163,2.344-3.275,3.9-3.772a5.74,5.74,0,0,1,1.72-.292c2.126-.006,3.272,1.533,3.766,3.514,1.388-2.307,3.6-3.834,5.763-3.843a3.931,3.931,0,0,1,4.089,3.981,3.613,3.613,0,0,1-3.41,3.8,3.246,3.246,0,0,1-3.225-2.642c-1.207.409-2.924,1.957-2.943,7.311V32.9c.009,2.15.313,2.921.94,3.471a6.066,6.066,0,0,0,2.289.8l.138.028.058.132a3.142,3.142,0,0,1,.316,1.263c.009.879-.636,1.487-1.665,1.782a17.108,17.108,0,0,1-4.62.436,18.044,18.044,0,0,1-4.8-.455m44.638,0c-1.1-.31-1.8-.928-1.8-1.859a2.867,2.867,0,0,1,.289-1.167l.061-.132.138-.028a4.19,4.19,0,0,0,1.736-.789c.633-.556.891-1.327.9-3.484V18.605l-3.723-.132-.068-.172a3.586,3.586,0,0,1-.283-1.346,2.265,2.265,0,0,1,2.353-2.319h1.628V13.051c0-3.821.691-6,1.634-7.456,1.45-2.325,3.972-3.92,7.812-3.917,4.829.006,8.875,2.316,8.9,6.036a3.456,3.456,0,0,1-3.361,3.61A3.367,3.367,0,0,1,415.97,8a3.66,3.66,0,0,1,.55-1.889,3.791,3.791,0,0,0-2.405-.728,2.966,2.966,0,0,0-2.841,1.428,7.506,7.506,0,0,0-.691,3.662v4.11h6.4l.074.178a3.669,3.669,0,0,1,.28,1.376,2.525,2.525,0,0,1-2.233,2.62,13.37,13.37,0,0,1-1.435.052c-1.063,0-2.116-.08-2.9-.1V32.9c.006,2.144.347,2.912.977,3.471a7.517,7.517,0,0,0,2.614.8l.138.025.058.135a2.659,2.659,0,0,1,.261,1.081c0,.98-.774,1.6-1.945,1.926a19.292,19.292,0,0,1-5.019.473,18.256,18.256,0,0,1-4.82-.455m76.1,0c-1.091-.3-1.794-.922-1.788-1.849a2.926,2.926,0,0,1,.292-1.177l.058-.132.138-.028a4.047,4.047,0,0,0,1.714-.8c.651-.55.9-1.318.9-3.477V22.024c-.049-1.834-.455-2.473-1.932-2.516a6.359,6.359,0,0,0-1.173.129l-.227.043-.086-.218a3.265,3.265,0,0,1-.23-1.164c.04-2.175,2.347-3.3,3.9-3.794a5.85,5.85,0,0,1,1.751-.292c2.107-.006,3.253,1.557,3.739,3.563,1.382-2.335,3.582-3.883,5.754-3.892a3.917,3.917,0,0,1,4.089,3.981,3.609,3.609,0,0,1-3.385,3.8,3.278,3.278,0,0,1-3.253-2.642c-1.2.405-2.884,1.954-2.906,7.311V32.9c.009,2.15.3,2.928.891,3.471a6.361,6.361,0,0,0,2.3.8l.138.028.058.132a3.185,3.185,0,0,1,.323,1.275c.006.875-.633,1.481-1.656,1.769a16.97,16.97,0,0,1-4.6.436,18.1,18.1,0,0,1-4.8-.455m-48.14.811a12.62,12.62,0,0,1-9.111-3.766,13.923,13.923,0,0,1-3.788-9.9,13.192,13.192,0,0,1,13.123-13.569,12.633,12.633,0,0,1,9.283,3.76,13.869,13.869,0,0,1,3.656,9.809,13.876,13.876,0,0,1-3.769,9.867,12.957,12.957,0,0,1-9.391,3.8ZM375.3,28.018a14.779,14.779,0,0,1,3.585-10.11,12.4,12.4,0,0,1,9.4-3.975,10.079,10.079,0,0,1,7.827,3.265,10.217,10.217,0,0,1,2.522,6.706,7.7,7.7,0,0,1-.854,3.686l-.074.147H382c.258,4.712,3.17,8.005,8.239,8.024a8.434,8.434,0,0,0,6.316-2.82l.166-.221.221.169a2.422,2.422,0,0,1,.931,2.12c-.018,2.716-3.106,6.2-9.95,6.2-6.955-.012-12.61-5.72-12.619-13.191m90.625,12a7.043,7.043,0,0,1-.931-2.47c-.255.3-.556.621-1.011,1.069a9.08,9.08,0,0,1-6.368,2.608,8.225,8.225,0,0,1-6.479-2.854c-2.255-2.774-2.236-6.291-2.242-11.286V22.264c-.046-1.948-.642-2.611-2.4-2.66a6.6,6.6,0,0,0-.743.046l-.209.025-.08-.2a2.87,2.87,0,0,1-.2-1.038c.058-2.329,2.915-3.573,4.6-3.932a11.049,11.049,0,0,1,1.677-.19,3.612,3.612,0,0,1,3.017,1.266,5.2,5.2,0,0,1,.891,3.238l-.046,8.221c0,3.035.209,5.308.86,6.767a3.4,3.4,0,0,0,3.493,2.147,4.265,4.265,0,0,0,3.978-2.212,9.86,9.86,0,0,0,1.051-4.82V22.264c-.049-1.948-.645-2.614-2.4-2.66a6.417,6.417,0,0,0-.74.046l-.212.025-.08-.2a2.87,2.87,0,0,1-.2-1.038c.055-2.329,2.912-3.573,4.6-3.932a10.962,10.962,0,0,1,1.677-.19,3.622,3.622,0,0,1,3.02,1.266,5.14,5.14,0,0,1,.894,3.238c0,.94-.086,2.617-.086,9.618,0,2.958-.049,4.531-.049,5.007.043,2.018.7,2.924,2.516,2.961.19,0,.39-.015.614-.037l.209-.025.077.2a2.8,2.8,0,0,1,.2,1.014c-.068,2.273-2.937,3.183-4.6,3.524a10.493,10.493,0,0,1-1.57.181h-.034a3.041,3.041,0,0,1-2.694-1.247M307.693,32.755a7.4,7.4,0,0,1,2.968-6.095,12.293,12.293,0,0,1,7.477-2.163,13.578,13.578,0,0,1,5.167.952v-2.9c-.043-2.924-1.118-4.586-4.3-4.623a10.669,10.669,0,0,0-3.02.544,5.42,5.42,0,0,1,.166,1.269,3.848,3.848,0,0,1-.875,2.54,3.156,3.156,0,0,1-2.442,1.069,3.319,3.319,0,0,1-3.229-3.468c.04-3.554,4.221-5.944,9.812-5.944,4.436,0,7.219,1.081,8.7,3.05,1.352,1.769,1.416,4.353,1.419,8v9.492c.028,1.84,1.038,2.341,3.256,2.694l.255.034-.015.267c-.129,2.5-1.917,3.542-3.84,3.7-.169.015-.332.025-.5.025a4.877,4.877,0,0,1-4.58-2.9,11.6,11.6,0,0,1-7.339,2.961c-5.155-.006-9.071-3.591-9.081-8.5M279.53,36.481c-3.066-3.241-5.041-7.969-5.038-13.854a20.266,20.266,0,0,1,4.943-13.732A15.439,15.439,0,0,1,290.878,3.62c7.754.012,13.231,5.6,13.259,10.435,0,2.587-1.591,4.586-3.742,4.589a3.964,3.964,0,0,1-2.783-1.078,4.078,4.078,0,0,1-1.177-3,4.466,4.466,0,0,1,1.312-3.087,6.741,6.741,0,0,0-6.2-3.333,7.765,7.765,0,0,0-6.583,3.969,19.523,19.523,0,0,0-2.59,10.46A18.974,18.974,0,0,0,285.047,33a7.976,7.976,0,0,0,6.678,3.957,6.7,6.7,0,0,0,6.2-3.327,4.422,4.422,0,0,1-1.309-3.069,4.1,4.1,0,0,1,1.176-3.011,3.981,3.981,0,0,1,2.783-1.081c2.15,0,3.736,1.994,3.739,4.571-.025,4.857-5.5,10.426-13.255,10.442a15.823,15.823,0,0,1-11.526-5m0,0c-3.066-3.241-5.041-7.969-5.038-13.854a20.266,20.266,0,0,1,4.943-13.732A15.439,15.439,0,0,1,290.878,3.62c7.754.012,13.231,5.6,13.259,10.435,0,2.587-1.591,4.586-3.742,4.589a3.964,3.964,0,0,1-2.783-1.078,4.078,4.078,0,0,1-1.177-3,4.466,4.466,0,0,1,1.312-3.087,6.741,6.741,0,0,0-6.2-3.333,7.765,7.765,0,0,0-6.583,3.969,19.523,19.523,0,0,0-2.59,10.46A18.974,18.974,0,0,0,285.047,33a7.976,7.976,0,0,0,6.678,3.957,6.7,6.7,0,0,0,6.2-3.327,4.422,4.422,0,0,1-1.309-3.069,4.1,4.1,0,0,1,1.176-3.011,3.981,3.981,0,0,1,2.783-1.081c2.15,0,3.736,1.994,3.739,4.571-.025,4.857-5.5,10.426-13.255,10.442a15.823,15.823,0,0,1-11.526-5" transform="translate(-274.492 3.479)" fill="#e50019"/></g></g></svg>