<svg viewBox="0 0 31 31" xmlns:xlink="http://www.w3.org/1999/xlink" xmlns="http://www.w3.org/2000/svg"><defs><clipPath id="b"><use xlink:href="#a"/></clipPath><path d="M0 15C0 6.7157 6.7157 0 15 0s15 6.7157 15 15-6.7157 15-15 15S0 23.2843 0 15Z" id="a"/></defs><path d="M.5 15.5c0-8.2843 6.7157-15 15-15s15 6.7157 15 15-6.7157 15-15 15-15-6.7157-15-15Z" fill="none" stroke="#FFF"/><g clip-path="url(#b)" transform="translate(.5 .5)"><path d="M15.0007 7c-2.1726 0-2.4453.0095-3.2987.0483-.8516.039-1.433.1739-1.9416.3717-.5262.2043-.9726.4777-1.4172.9225-.445.4447-.7184.891-.9234 1.417-.1983.5089-.3333 1.0904-.3716 1.9417C7.01 12.5546 7 12.8274 7 15.0001s.0097 2.4445.0483 3.2979c.0392.8516.174 1.433.3717 1.9416.2045.5262.4778.9725.9227 1.4172.4445.445.8908.719 1.4167.9234.509.1978 1.0905.3326 1.942.3716.8533.0389 1.1258.0484 3.2984.0484 2.1728 0 2.4446-.0095 3.298-.0484.8517-.039 1.4337-.1738 1.9427-.3716.526-.2044.9716-.4784 1.4162-.9234.445-.4447.7183-.891.9233-1.417.1967-.5088.3317-1.0903.3717-1.9417.0383-.8533.0483-1.1253.0483-3.298s-.01-2.4454-.0483-3.2987c-.04-.8517-.175-1.433-.3717-1.9417-.205-.5262-.4783-.9725-.9233-1.4172-.4451-.445-.8901-.7183-1.4167-.9225-.51-.1978-1.0917-.3327-1.9434-.3717C17.4433 7.0095 17.1716 7 14.9983 7h.0024Zm-.7176 1.4417c.213-.0004.4506 0 .7176 0 2.1361 0 2.3892.0076 3.2327.046.7801.0357 1.2034.166 1.4854.2755.3733.145.6395.3183.9193.5983.28.28.4534.5467.5987.92.1095.2817.24.705.2755 1.4851.0384.8433.0467 1.0966.0467 3.2317 0 2.135-.0083 2.3883-.0467 3.2316-.0356.7801-.166 1.2034-.2755 1.4851-.145.3733-.3187.6391-.5987.919-.28.28-.5458.4533-.9193.5983-.2817.11-.7053.24-1.4854.2757-.8433.0383-1.0966.0467-3.2327.0467s-2.3893-.0084-3.2327-.0467c-.78-.036-1.2033-.1663-1.4855-.2759-.3733-.145-.64-.3183-.92-.5983s-.4533-.546-.5987-.9195c-.1094-.2817-.24-.705-.2754-1.485-.0384-.8434-.046-1.0967-.046-3.233 0-2.1364.0076-2.3884.046-3.2318.0356-.78.166-1.2033.2754-1.4853.145-.3733.3187-.64.5987-.92s.5467-.4534.92-.5987c.282-.11.7055-.24 1.4855-.2758.7381-.0334 1.0241-.0434 2.5151-.045v.002Zm4.988 1.3283c-.53 0-.96.4295-.96.9597 0 .53.43.96.96.96s.96-.43.96-.96-.43-.96-.96-.96V9.77Zm-4.2704 1.1217c-2.2688 0-4.1083 1.8395-4.1083 4.1084 0 2.2688 1.8395 4.1075 4.1083 4.1075 2.2689 0 4.1078-1.8387 4.1078-4.1075 0-2.2689-1.8391-4.1084-4.1079-4.1084h.0001Zm0 1.4417c1.4727 0 2.6667 1.1938 2.6667 2.6667 0 1.4727-1.194 2.6667-2.6667 2.6667-1.4728 0-2.6666-1.194-2.6666-2.6667 0-1.4729 1.1938-2.6667 2.6666-2.6667Z" fill="#FFF" fill-rule="evenodd"/></g></svg>
