<svg viewBox="0 0 31 31" xmlns="http://www.w3.org/2000/svg"><path d="M15.5 30.5c-8.2857 0-15-6.7172-15-15.0008S7.2143.5 15.5.5c8.2841 0 15 6.7156 15 14.9992S23.7841 30.5 15.5 30.5Z" fill="none" stroke="#FFF"/><path d="M15.482 4.9994c-5.7994 0-10.5006 4.6996-10.5006 10.5 0 4.4477 2.7676 8.2476 6.6732 9.7777-.0918-.8302-.1738-2.1047.0372-3.0131.1899-.8191 1.2312-5.2184 1.2312-5.2184s-.314-.6292-.314-1.5587c0-1.4606.8451-2.5502 1.9-2.5502.8948 0 1.3279.6726 1.3279 1.4793 0 .9009-.5733 2.2474-.8699 3.4958-.247 1.0462.5249 1.8975 1.555 1.8975 1.8666 0 3.3012-1.9682 3.3012-4.8088 0-2.5143-1.8057-4.2715-4.3859-4.2715-2.9872 0-4.7408 2.2412-4.7408 4.5569 0 .9022.3463 1.8702.7806 2.3964.0857.1042.0981.1948.0732.3015-.0794.3314-.2569 1.0449-.2916 1.1901-.0459.1924-.1527.2333-.3525.1415-1.3105-.6106-2.1296-2.5291-2.1296-4.068 0-3.3122 2.4064-6.355 6.9375-6.355 3.6425 0 6.4733 2.5961 6.4733 6.0646 0 3.6188-2.2823 6.5314-5.4482 6.5314-1.0648 0-2.0651-.5535-2.4077-1.2063 0 0-.5262 2.0042-.654 2.4957-.237.9121-.8774 2.055-1.3043 2.7525.9816.3052 2.0254.4691 3.1088.4691 5.7995 0 10.5006-4.7009 10.5006-10.5 0-5.8004-4.7011-10.5-10.5006-10.5" fill="#FFF" fill-rule="evenodd"/></svg>
