<?xml version="1.0" encoding="utf-8"?>
<svg width="31px" height="31px" viewBox="0 0 31 31" version="1.1" xmlns:xlink="http://www.w3.org/1999/xlink" xmlns="http://www.w3.org/2000/svg">
  <g id="Pinterest" transform="translate(0.5 0.5)">
    <path d="M15 30C6.71433 30 0 23.2828 0 14.9992C0 6.71558 6.71433 0 15 0C23.2841 0 30 6.71558 30 14.9992C30 23.2828 23.2841 30 15 30Z" id="Fond" fill="none" fill-rule="evenodd" stroke="#FFFFFF" stroke-width="1" />
    <path d="M14.982 4.49936C9.18256 4.49936 4.48144 9.19898 4.48144 14.9994C4.48144 19.4471 7.24899 23.247 11.1546 24.7771C11.0628 23.9469 10.9808 22.6724 11.1918 21.764C11.3817 20.9449 12.423 16.5456 12.423 16.5456C12.423 16.5456 12.109 15.9164 12.109 14.9869C12.109 13.5263 12.9541 12.4367 14.009 12.4367C14.9038 12.4367 15.3369 13.1093 15.3369 13.916C15.3369 14.8169 14.7636 16.1634 14.467 17.4118C14.22 18.458 14.9919 19.3093 16.022 19.3093C17.8886 19.3093 19.3232 17.3411 19.3232 14.5005C19.3232 11.9862 17.5175 10.229 14.9373 10.229C11.9501 10.229 10.1965 12.4702 10.1965 14.7859C10.1965 15.6881 10.5428 16.6561 10.9771 17.1823C11.0628 17.2865 11.0752 17.3771 11.0503 17.4838C10.9709 17.8152 10.7934 18.5287 10.7587 18.6739C10.7128 18.8663 10.606 18.9072 10.4062 18.8154C9.09568 18.2048 8.27659 16.2863 8.27659 14.7474C8.27659 11.4352 10.683 8.39234 15.2141 8.39234C18.8566 8.39234 21.6874 10.9885 21.6874 14.457C21.6874 18.0758 19.4051 20.9884 16.2392 20.9884C15.1744 20.9884 14.1741 20.4349 13.8315 19.7821C13.8315 19.7821 13.3053 21.7863 13.1775 22.2778C12.9405 23.1899 12.3001 24.3328 11.8732 25.0303C12.8548 25.3355 13.8986 25.4994 14.982 25.4994C20.7815 25.4994 25.4826 20.7985 25.4826 14.9994C25.4826 9.19898 20.7815 4.49936 14.982 4.49936" id="Logo_pinterest" fill="#FFFFFF" fill-rule="evenodd" stroke="none" />
  </g>
</svg>