<svg xmlns="http://www.w3.org/2000/svg" width="49.07" height="49.07" viewBox="0 0 49.07 49.07"><defs><style>.a{fill:#fff;}</style></defs><path class="a" d="M28.391,19.469a8.922,8.922,0,1,0,8.922,8.922A8.919,8.919,0,0,0,28.391,19.469Zm19.94,6.691a20.061,20.061,0,0,0-17.71-17.71V3.856H26.16V8.451A20.061,20.061,0,0,0,8.451,26.16H3.856v4.461H8.451a20.061,20.061,0,0,0,17.71,17.71v4.595h4.461V48.331a20.061,20.061,0,0,0,17.71-17.71h4.595V26.16H48.331ZM28.391,44A15.613,15.613,0,1,1,44,28.391,15.616,15.616,0,0,1,28.391,44Z" transform="translate(-3.856 -3.856)"/></svg>