<svg xmlns="http://www.w3.org/2000/svg" viewBox="0 0 70.57 79.16"><title>Fichier 1</title>
    <path style="fill:black" d="M54.58,79.16H16A8.38,8.38,0,0,1,7.66,72L.06,21.29A5.46,5.46,0,0,1,5.46,15H65.11a5.46,5.46,0,0,1,5.4,6.27L62.9,72A8.36,8.36,0,0,1,54.58,79.16ZM5.46,20a.45.45,0,0,0-.35.16.46.46,0,0,0-.1.37l7.6,50.7A3.4,3.4,0,0,0,16,74.16H54.58A3.4,3.4,0,0,0,58,71.25l7.6-50.7a.46.46,0,0,0-.1-.37.45.45,0,0,0-.35-.16Z"/>
    <path style="fill:black" d="M55.07,28.27a2.5,2.5,0,0,1-2.5-2.5V22.14a17.14,17.14,0,1,0-34.27,0v3.63a2.5,2.5,0,0,1-5,0V22.14a22.14,22.14,0,1,1,44.27,0v3.63A2.5,2.5,0,0,1,55.07,28.27Z"/></svg>