<svg xmlns="http://www.w3.org/2000/svg" viewBox="0 0 114.35 115.23"><title>Fichier 3</title><path d="M48,85.78a3.5,3.5,0,0,1-.5-7l57.68-8.49a2.55,2.55,0,0,0,2.17-2.67L106,46.52,34.74,41.17a3.5,3.5,0,1,1,.52-7L112.63,40l1.7,27.24a9.59,9.59,0,0,1-8.13,10L48.52,85.74A3.12,3.12,0,0,1,48,85.78Z" fill="#fff"/><rect x="61.48" y="38.79" width="4" height="42.37" transform="translate(-13.55 18.82) rotate(-15.25)" fill="#fff"/><rect x="84.1" y="41.01" width="4" height="36.08" transform="translate(-10.32 19) rotate(-11.89)" fill="#fff"/><rect x="40.46" y="57.05" width="68.98" height="4" transform="translate(-4.53 6.25) rotate(-4.63)" fill="#fff"/><circle cx="52.13" cy="109.23" r="6" fill="#fff"/><circle cx="96.06" cy="109.23" r="6" fill="#fff"/><path d="M108.4,97.36H45.5a1.06,1.06,0,0,1-.93-1.57L51.8,82.65,36.55,35.2a13.63,13.63,0,0,0-11-9.37l-5.83-.9-1.07,6.92,5.83.9a6.68,6.68,0,0,1,5.38,4.59L44.21,81.92l-5.77,10.5A8,8,0,0,0,45,104.33a8.61,8.61,0,0,1,14.21,0h29.7a8.62,8.62,0,0,1,14.24,0h5.22Z" fill="#fff"/><path d="M16,58.34a3.42,3.42,0,0,1-1.93-.59A31.5,31.5,0,1,1,55.34,10.88,3.5,3.5,0,0,1,50,15.46,24.5,24.5,0,1,0,18,51.92,3.5,3.5,0,0,1,16,58.34Z" fill="#fff"/><polygon points="40.16 15.62 59.35 28.35 60.79 5.36 40.16 15.62" fill="#fff"/></svg>