<svg xmlns="http://www.w3.org/2000/svg" viewBox="0 0 265.74 285.2"><defs><style>.cls-1{fill:none;stroke:#00a1d4;stroke-miterlimit:10;stroke-width:6.59px;}.cls-2{fill:#00a1d4;}</style></defs><g id="Calque_2" data-name="Calque 2"><g id="Calque_1-2" data-name="Calque 1"><path class="cls-1" d="M53.78,45.14s19.75,32.92,11,30.73-43.9-11-50.48-6.59S3.29,84.65,3.29,89s8.78,6.59,15.37,11,47.19,23,53.78,60.36C74.3,170.92,57.07,156,56,159.28c-2.19,6.59,13.17,24.15,6.59,39.51s-30.73,52.68-24.15,54.88S132.8,266.84,159.14,280c0,0,2.2-41.71,11-41.71s37.31,19.76,43.9,15.37,32.92-21.95,32.92-26.34-26.34-76.83-24.14-79,24.14-22,21.95-26.34-4.39-17.56,11-26.34,1.1-25.25-9.87-25.25S183.29,49.53,172.31,32,152.56-3.15,141.58,5.63,113.05,53.92,99.87,53.92,71.34,27.58,53.78,45.14Z"/><path class="cls-2" d="M182.69,100.48a44.08,44.08,0,0,0-72.47,0,44.07,44.07,0,0,0-5.14,40.61,34.84,34.84,0,0,0,6.4,10.57l32.07,37.66a3.82,3.82,0,0,0,5.81,0l32-37.65a34.75,34.75,0,0,0,6.4-10.55A44.08,44.08,0,0,0,182.69,100.48Zm-2,38a27.22,27.22,0,0,1-5,8.24s0,0,0,0L146.45,181l-29.17-34.27a27.26,27.26,0,0,1-5-8.27,36.48,36.48,0,0,1,4.27-33.6,36.44,36.44,0,0,1,59.91,0A36.46,36.46,0,0,1,180.66,138.45Z"/><path class="cls-2" d="M146.45,104.14a21.38,21.38,0,1,0,21.38,21.38A21.4,21.4,0,0,0,146.45,104.14Zm0,35.12a13.74,13.74,0,1,1,13.74-13.74A13.76,13.76,0,0,1,146.45,139.26Z"/></g></g></svg>