<svg xmlns="http://www.w3.org/2000/svg" width="42.334" height="42.334" viewBox="0 0 42.334 42.334"><path d="M25.023,17.326a7.7,7.7,0,1,0,7.7,7.7,7.695,7.695,0,0,0-7.7-7.7Zm17.2,5.773A17.307,17.307,0,0,0,26.947,7.82V3.856H23.1V7.82A17.307,17.307,0,0,0,7.82,23.1H3.856v3.849H7.82A17.307,17.307,0,0,0,23.1,42.226V46.19h3.849V42.226A17.307,17.307,0,0,0,42.226,26.947H46.19V23.1H42.226Zm-17.2,15.394a13.47,13.47,0,1,1,13.47-13.47A13.472,13.472,0,0,1,25.023,38.493Z" transform="translate(-3.856 -3.856)" fill="#7e132d"/></svg>