<svg xmlns="http://www.w3.org/2000/svg" xmlns:xlink="http://www.w3.org/1999/xlink" width="29.805" height="39.74" viewBox="0 0 29.805 39.74"><defs><clipPath id="a"><rect width="19.293" height="12.79" fill="none"/></clipPath></defs><g transform="translate(-1337.25 -6060)"><path d="M13.371,38.938C2.093,22.589,0,20.911,0,14.9a14.9,14.9,0,0,1,29.805,0c0,6.009-2.093,7.687-13.371,24.036a1.864,1.864,0,0,1-3.063,0ZM14.9,21.112A6.209,6.209,0,1,0,8.693,14.9,6.209,6.209,0,0,0,14.9,21.112Z" transform="translate(1337.25 6060)" fill="#7e132d"/><circle cx="13.382" cy="13.382" r="13.382" transform="translate(1338.771 6061.622)" fill="#fff"/><g transform="translate(1342.506 6068.609)"><g clip-path="url(#a)"><path d="M5.7,4.566A.138.138,0,0,1,5.8,4.518a.088.088,0,0,1,.083.1.15.15,0,0,1-.046.1A8.879,8.879,0,0,0,3.7,10.548a8.78,8.78,0,0,0,2.138,5.8.151.151,0,0,1,.046.1.089.089,0,0,1-.083.1.138.138,0,0,1-.094-.048l-5.273-5.1a1.078,1.078,0,0,1,0-1.725Z" transform="translate(0 -4.134)" fill="#c20016"/><path d="M83.893,0c-2.065,0-2.872,2.926-2.872,6.414s.807,6.376,2.872,6.376c1.239,0,2.295-.726,2.3-1.322a.5.5,0,0,0-.159-.365,2.318,2.318,0,0,1-.819-1.635A1.681,1.681,0,0,1,86.8,7.8,1.7,1.7,0,0,1,88.472,9.7a4.434,4.434,0,0,1-.9,2.532.159.159,0,0,0-.026.086c0,.053.031.1.078.1a.144.144,0,0,0,.1-.052L93,7.259a1.078,1.078,0,0,0,0-1.725L87.721.432a.145.145,0,0,0-.1-.051c-.047,0-.077.044-.078.1a.161.161,0,0,0,.026.086,4.431,4.431,0,0,1,.9,2.531A1.7,1.7,0,0,1,86.8,4.99a1.681,1.681,0,0,1-1.589-1.667,2.316,2.316,0,0,1,.819-1.634.506.506,0,0,0,.159-.365c0-.6-1.06-1.323-2.3-1.323" transform="translate(-74.134)" fill="#254f9b"/></g></g></g></svg>