<svg xmlns="http://www.w3.org/2000/svg" width="521.931" height="511.965" viewBox="0 0 521.931 511.965">
  <g id="Logo-ARES" transform="translate(-8.932 -14.174)">
    <path id="Tracé_5460" data-name="Tracé 5460" d="M528.986,501.173l-141.694-277.6c.612-48-22.436-94.421-59.331-118.957a12.933,12.933,0,0,0-1.919-1.042L285.186,23.534a17.164,17.164,0,0,0-30.575,0L220.594,90.176c-37.132,9.776-63.538,35.723-76.643,75.689a13.039,13.039,0,0,0,16.814,16.329,68.657,68.657,0,0,1,14.409-3.031L10.809,501.173A17.162,17.162,0,0,0,26.1,526.139H513.7a17.162,17.162,0,0,0,15.287-24.966Z" transform="translate(0 0)" fill="#596b4f"/>
    <g id="Groupe_11365" data-name="Groupe 11365" transform="translate(83.538 26.343)">
      <path id="Tracé_5461" data-name="Tracé 5461" d="M282.707,51.693l27.271,53.428a93.858,93.858,0,0,1,16.506,7.62L282.707,26.976l-37.969,74.386a130.23,130.23,0,0,1,13.446-1.626Z" transform="translate(-95.192 -26.976)" fill="#fff"/>
      <path id="Tracé_5462" data-name="Tracé 5462" d="M460.256,397.209,378.1,236.257a160.226,160.226,0,0,1-2.386,20.043L441.9,385.972H108.2L211.388,183.811a19.026,19.026,0,0,0-8.927-7.226L89.848,397.209Z" transform="translate(-87.537 -34.37)" fill="#fff"/>
      <path id="Tracé_5463" data-name="Tracé 5463" d="M129.243,442.181l10.182,17.1H123.266l-6.907,11.858h30.1l8.9,14.937h16.52l-35.761-59.406a9.92,9.92,0,0,0-2.53-2.954,6.929,6.929,0,0,0-7.9-.017,9.574,9.574,0,0,0-2.58,2.951L87.417,486.074h15.867Z" transform="translate(-87.417 -46.521)" fill="#fff"/>
      <path id="Tracé_5464" data-name="Tracé 5464" d="M179.983,476.873a7.55,7.55,0,0,0,0,10.324,6.924,6.924,0,0,0,5.155,2.114,7.2,7.2,0,0,0,5.2-2.082,7.341,7.341,0,0,0,0-10.388,7.2,7.2,0,0,0-5.2-2.081A6.92,6.92,0,0,0,179.983,476.873Z" transform="translate(-91.891 -49.105)" fill="#fff"/>
      <path id="Tracé_5465" data-name="Tracé 5465" d="M244.774,457.035H218.317v12.593h23.165l15.02,16.488h19.592l-19.036-19.211a19.531,19.531,0,0,0,7.5-6.844,24.4,24.4,0,0,0,3.5-13.381,27.737,27.737,0,0,0-1.574-9.573,20.625,20.625,0,0,0-4.636-7.432,20.376,20.376,0,0,0-7.4-4.73,27.347,27.347,0,0,0-9.669-1.622H200.44v62.793h13.735V437.141h30.6c3.164,0,5.513.767,7.183,2.344,1.619,1.531,2.44,4.007,2.44,7.358,0,3.394-.805,5.976-2.395,7.679S248.06,457.035,244.774,457.035Z" transform="translate(-93.003 -46.563)" fill="#fff"/>
      <path id="Tracé_5466" data-name="Tracé 5466" d="M281.568,476.873a7.547,7.547,0,0,0,0,10.324,6.916,6.916,0,0,0,5.153,2.114,7.2,7.2,0,0,0,5.2-2.082,7.341,7.341,0,0,0,0-10.388,7.209,7.209,0,0,0-5.2-2.081A6.915,6.915,0,0,0,281.568,476.873Z" transform="translate(-96.911 -49.105)" fill="#fff"/>
      <rect id="Rectangle_1264" data-name="Rectangle 1264" width="36.346" height="12.185" transform="translate(221.878 401.574)" fill="#fff"/>
      <path id="Tracé_5467" data-name="Tracé 5467" d="M358.45,423.323H302.024v62.794h56.508V472.3H315.759V437.141H358.45Z" transform="translate(-98.023 -46.563)" fill="#fff"/>
      <path id="Tracé_5468" data-name="Tracé 5468" d="M369.239,476.875a7.551,7.551,0,0,0,0,10.323,6.928,6.928,0,0,0,5.154,2.113,7.209,7.209,0,0,0,5.2-2.082,7.341,7.341,0,0,0,0-10.387,7.2,7.2,0,0,0-5.2-2.082A6.926,6.926,0,0,0,369.239,476.875Z" transform="translate(-101.244 -49.105)" fill="#fff"/>
      <path id="Tracé_5469" data-name="Tracé 5469" d="M435.862,472.3H389.651v13.817h46.211a24.786,24.786,0,0,0,8.728-1.416,17.4,17.4,0,0,0,6.377-4.038,16.742,16.742,0,0,0,3.824-6.135,22.245,22.245,0,0,0,1.244-7.522c0-6.249-1.77-11.018-5.262-14.178-3.444-3.111-8.462-4.689-14.912-4.689h-27.18a5.924,5.924,0,0,1-4.249-1.41,5.246,5.246,0,0,1-1.454-4.048,5.464,5.464,0,0,1,1.439-4.115,5.931,5.931,0,0,1,4.344-1.425H453.1V423.323H408.762a24.383,24.383,0,0,0-8.433,1.373,18.358,18.358,0,0,0-6.342,3.835,15.989,15.989,0,0,0-3.935,5.9,20.085,20.085,0,0,0-1.3,7.275,19.537,19.537,0,0,0,1.394,7.427,17.2,17.2,0,0,0,3.99,5.936,18.122,18.122,0,0,0,6.308,3.884,23.246,23.246,0,0,0,8.156,1.375h27.262a8.012,8.012,0,0,1,5.287,1.5,5.5,5.5,0,0,1,1.641,4.444,5.7,5.7,0,0,1-1.7,4.38A7.381,7.381,0,0,1,435.862,472.3Z" transform="translate(-102.309 -46.563)" fill="#fff"/>
      <path id="Tracé_5470" data-name="Tracé 5470" d="M471.084,474.761a6.915,6.915,0,0,0-5.152,2.111,7.547,7.547,0,0,0,0,10.325,6.918,6.918,0,0,0,5.154,2.114,7.2,7.2,0,0,0,5.2-2.082,7.339,7.339,0,0,0,0-10.388A7.206,7.206,0,0,0,471.084,474.761Z" transform="translate(-106.022 -49.105)" fill="#fff"/>
      <path id="Tracé_5471" data-name="Tracé 5471" d="M102.238,523.7h14.471v4.854H104.732a8.224,8.224,0,0,1-3.3-.651,7.85,7.85,0,0,1-2.586-1.788,8.277,8.277,0,0,1-1.71-2.756A9.84,9.84,0,0,1,96.5,519.8a9.613,9.613,0,0,1,.628-3.551,8.135,8.135,0,0,1,1.706-2.693,7.735,7.735,0,0,1,2.576-1.744,8.486,8.486,0,0,1,3.317-.635h19.124v-9.089H104.732a18.548,18.548,0,0,0-6.839,1.247,16.465,16.465,0,0,0-5.517,3.551,16.044,16.044,0,0,0-3.664,5.56,18.935,18.935,0,0,0-1.295,7.089A19.528,19.528,0,0,0,88.7,526.65a17.343,17.343,0,0,0,3.631,5.758,17.145,17.145,0,0,0,5.493,3.828,16.964,16.964,0,0,0,6.9,1.406h21.11V515.5h-23.6Z" transform="translate(-87.417 -50.456)" fill="#fff"/>
      <path id="Tracé_5472" data-name="Tracé 5472" d="M166.321,506.962a16.293,16.293,0,0,0-5.554-3.608,18.956,18.956,0,0,0-7.016-1.27h-7.809a18.546,18.546,0,0,0-6.838,1.247,16.46,16.46,0,0,0-5.518,3.551,16.053,16.053,0,0,0-3.664,5.56,18.953,18.953,0,0,0-1.294,7.089,19.5,19.5,0,0,0,1.287,7.117,17.322,17.322,0,0,0,3.631,5.759,17.145,17.145,0,0,0,5.493,3.828,16.963,16.963,0,0,0,6.9,1.406h7.809a17.335,17.335,0,0,0,7.008-1.4,17.108,17.108,0,0,0,5.522-3.83,17.346,17.346,0,0,0,3.63-5.758,19.509,19.509,0,0,0,1.288-7.118,18.945,18.945,0,0,0-1.27-7.018A16.291,16.291,0,0,0,166.321,506.962Zm-4.844,16.4a8.111,8.111,0,0,1-1.722,2.746,7.942,7.942,0,0,1-2.632,1.794,8.511,8.511,0,0,1-3.373.655h-7.809a8.219,8.219,0,0,1-3.3-.651,7.765,7.765,0,0,1-2.587-1.787,8.309,8.309,0,0,1-1.709-2.759,9.8,9.8,0,0,1-.632-3.561,9.6,9.6,0,0,1,.628-3.551,8.116,8.116,0,0,1,1.7-2.692,7.621,7.621,0,0,1,2.578-1.745,8.485,8.485,0,0,1,3.316-.635h7.809a8.777,8.777,0,0,1,3.388.637,7.841,7.841,0,0,1,2.626,1.753,7.925,7.925,0,0,1,1.716,2.7,9.674,9.674,0,0,1,.629,3.533A9.84,9.84,0,0,1,161.477,523.36Z" transform="translate(-89.454 -50.456)" fill="#fff"/>
      <path id="Tracé_5473" data-name="Tracé 5473" d="M207.278,506.962a16.347,16.347,0,0,0-5.527-3.607,18.538,18.538,0,0,0-6.911-1.272H174.525v35.557h20.316a17.216,17.216,0,0,0,6.963-1.4,16.86,16.86,0,0,0,5.506-3.836,17.551,17.551,0,0,0,3.6-5.753,19.525,19.525,0,0,0,1.288-7.117,18.666,18.666,0,0,0-1.3-7.028A16.531,16.531,0,0,0,207.278,506.962Zm-4.8,16.4a8.133,8.133,0,0,1-1.72,2.745,8.035,8.035,0,0,1-2.62,1.8,8.224,8.224,0,0,1-3.3.651H183.569V511.173h11.272a8.484,8.484,0,0,1,3.314.634,7.731,7.731,0,0,1,4.328,4.456,9.675,9.675,0,0,1,.629,3.533A9.841,9.841,0,0,1,202.479,523.36Z" transform="translate(-91.722 -50.456)" fill="#fff"/>
      <path id="Tracé_5474" data-name="Tracé 5474" d="M265.681,506.962a16.3,16.3,0,0,0-5.553-3.608,18.959,18.959,0,0,0-7.016-1.27H245.3a18.548,18.548,0,0,0-6.839,1.247,16.5,16.5,0,0,0-5.517,3.551,16.044,16.044,0,0,0-3.664,5.56,18.934,18.934,0,0,0-1.295,7.089,19.508,19.508,0,0,0,1.288,7.118,17.324,17.324,0,0,0,3.631,5.758,17.148,17.148,0,0,0,5.492,3.828,16.964,16.964,0,0,0,6.9,1.406h7.809a17.324,17.324,0,0,0,7.007-1.4,17.108,17.108,0,0,0,5.522-3.83,17.331,17.331,0,0,0,3.63-5.758,19.507,19.507,0,0,0,1.288-7.118,18.943,18.943,0,0,0-1.269-7.018A16.28,16.28,0,0,0,265.681,506.962Zm-4.843,16.4a8.1,8.1,0,0,1-1.722,2.746,7.923,7.923,0,0,1-2.632,1.794,8.506,8.506,0,0,1-3.372.655H245.3a8.216,8.216,0,0,1-3.3-.651,7.844,7.844,0,0,1-2.587-1.788,8.277,8.277,0,0,1-1.71-2.756,9.861,9.861,0,0,1-.633-3.563,9.613,9.613,0,0,1,.628-3.551,8.15,8.15,0,0,1,1.706-2.693,7.748,7.748,0,0,1,2.577-1.745,8.5,8.5,0,0,1,3.316-.634h7.809a8.78,8.78,0,0,1,3.388.637,7.692,7.692,0,0,1,4.341,4.453,9.653,9.653,0,0,1,.631,3.533A9.832,9.832,0,0,1,260.838,523.36Z" transform="translate(-94.364 -50.456)" fill="#fff"/>
      <path id="Tracé_5475" data-name="Tracé 5475" d="M273.886,537.641h9.044V511.173H304.59v-9.089h-30.7Z" transform="translate(-96.632 -50.456)" fill="#fff"/>
      <path id="Tracé_5476" data-name="Tracé 5476" d="M367,502.084l-11.969,22.6-11.362-22.6h-10.7l9.238,17.643-2.831,5.1-11.959-22.739H316.735l17.979,33.33a5.015,5.015,0,0,0,6.956,1.987,5.151,5.151,0,0,0,1.892-2.008L347,528.909l3.421,6.5A5.067,5.067,0,0,0,352.3,537.4a4.872,4.872,0,0,0,2.516.684,5,5,0,0,0,2.52-.671,5.078,5.078,0,0,0,1.928-2.009l17.974-33.319Z" transform="translate(-98.75 -50.456)" fill="#fff"/>
      <path id="Tracé_5477" data-name="Tracé 5477" d="M448.2,523.163a13.973,13.973,0,0,0,2.017-7.668,15.835,15.835,0,0,0-.9-5.454,11.98,11.98,0,0,0-2.691-4.306,11.839,11.839,0,0,0-4.288-2.744,15.569,15.569,0,0,0-5.511-.929H412.054v33.256L393.379,504.3a6.139,6.139,0,0,0-1.579-1.837,4.563,4.563,0,0,0-5.235-.018,5.934,5.934,0,0,0-1.614,1.833l-20.025,33.344H375.4l13.57-22.944,4.075,6.842H386.2l-4.677,8.029h16.288l4.808,8.072H421.1V511.151h15.727a4.64,4.64,0,0,1,3.323,1.045,4.533,4.533,0,0,1,1.066,3.388,5.159,5.159,0,0,1-1.077,3.6,4.308,4.308,0,0,1-3.312,1.1H422.4v8.427h12.286l8.116,8.911h12.89L444.775,526.6A11.31,11.31,0,0,0,448.2,523.163Z" transform="translate(-101.132 -50.433)" fill="#fff"/>
      <rect id="Rectangle_1265" data-name="Rectangle 1265" width="18.475" height="8.297" transform="translate(187.68 465.564)" fill="#fff"/>
      <path id="Tracé_5478" data-name="Tracé 5478" d="M220.191,277.482l1.7.731s-1.34,5.119-1.1,6.7,2.925,3.047,2.194,4.63-2.437,5.119-1.706,6.7,5.24,3.168,8.9,3.29c-5.849-2.436-6.733-5.636-4.905-8.012a24.252,24.252,0,0,0,3.291-5.027c.091-.548-2.834-2.1-1.463-5.027s1.737-3.747,1.737-3.747-4.661-2.563-2.834-5.989,2.925-4.248,2.925-4.248-6.671-4.843-7.586-5.3-.914-1.828-.182-4.662,2.65-8.774,2.65-8.774,2.559,7.769,2.65,8.318.731,1,5.21.183,15.445-2.559,16.176-2.741.366-.914,0-2.468-1.188-2.011-3.381-2.468-6.306-2.285-10.236-2.194a67.319,67.319,0,0,1,8.317-1.371s4.225,2.468,5.723,2.376,11.55-.914,13.013-1.1.365-1.279-1.188-1.371-5.849-.275-7.586-.457-2.285-.548-3.473-2.925-1.737-2.559-5.3-2.193-11.425.822-14.532.914-5.21-.731-6.763-3.747-3.229-7.311-3.229-7.311-1.828,11.089-1.34,13.161a2.139,2.139,0,0,0,2.315,1.828s-6.337,19.131-6.7,22.422c2.682,1.218,6.947,1.584,6.7,2.315S218.494,276.751,220.191,277.482Z" transform="translate(-93.647 -37.019)" fill="#fff"/>
      <path id="Tracé_5479" data-name="Tracé 5479" d="M262.371,293.666c1.919-1.553,10.236-8.317,11.79-10.693s-.732-5.392-.732-5.392l4.662-7.312s-.823-3.472-.823-3.839,3.016-7.037,5.941-14.806c-7.037,2.742-7.128-.731-10.236-1.828s-5.742.739-5.575,2.651c.182,2.1,2.741,3.472,2.65,6.306s-3.2,6.671-3.2,6.671l3.381,4.844-4.752,8.683,2.741,4.844s-1.462,2.193-3.882,5.392S260.452,295.22,262.371,293.666Z" transform="translate(-96.02 -37.972)" fill="#fff"/>
      <path id="Tracé_5480" data-name="Tracé 5480" d="M366.612,292.788c-3.8-13.295-9.515-30.389-14.944-34.911-.145-.12-.29-.269-.434-.372,13.642,23.929,2.826,46.737,9.589,62.457,3.982,9.256,7.914,12.012,12.509,15.007-3.806-20.931,8.941-49.888,14.594-81.43a160.208,160.208,0,0,0,2.386-20.043c.032-.62.072-1.24.1-1.86,1.706-48.64-22.334-90.2-53.457-110.895q.456.466.933.961C358.581,143.152,408.378,203.736,366.612,292.788Z" transform="translate(-99.749 -31.61)" fill="#fff"/>
      <path id="Tracé_5481" data-name="Tracé 5481" d="M318.271,260.149c-3.34,1.686-7.688,1.92-11.771-2.467,1.645,8.269.731,16.633-10.954,18.069,5.1,12.928,24.534,15.186,26.869,12.461-2.53-1.558-3.5-15.187-3.5-15.187s8.615-2.608,15.993-17.649c.94-1.916,2.331-3.979,9.632.511.3.186.6.364.921.574a22.234,22.234,0,0,0-8.428-6.774c5.028-16.055,4.139-34.534.572-42.862C338.186,208.967,342.265,248.03,318.271,260.149Z" transform="translate(-97.703 -35.864)" fill="#fff"/>
      <path id="Tracé_5482" data-name="Tracé 5482" d="M315.238,307.886c-4.207,1.788-6.459,3.111-12.185,2.925-.24,15.354-2.678,14.866-21.909,18.632-4.087.8-8.8,3.058-13.859,1.738-3.387-.883-5.011-10.743-12.241-12.571,7.229,13.527-8.607,20.1-21.736,35.339-6.325,7.34-11.775,19.5-13.6,34.121,5.3-16.451,10.721-24.416,18.324-31.158,21.418-18.993,50.219-22.489,59.415-23.207,12.461-.973,27.068,4.891,33.712,8.059C319.873,331.352,312.558,322.347,315.238,307.886Z" transform="translate(-93.955 -40.859)" fill="#fff"/>
      <path id="Tracé_5483" data-name="Tracé 5483" d="M215.053,180.182a17.123,17.123,0,0,1,1.533,3.038c.647,2.721-.047,5.682-1.706,10.236A53.335,53.335,0,0,0,212.4,219.42c29.78-4.882,42.088,4.379,44.038,8.279s4.63,6.7,8.651,5.349c-7.185-2.879,6.337-9.857,6.215-13.757-5.849,4.143-8.252,3.54-25.225-3.9-8.9-3.9-23.783-3.767-27.54-3.533a36.209,36.209,0,0,1,4.712-22.447c4.671-7.774,8.693-5.7,10.521-11.8-3.9,2.437-9.626,0-6.193-5.43.684-.943,1.445-1.881,2.232-2.8,5.209-6.051,23.721-13.687,29.7-15.25l.01,0c-13.444-.467-30.443,5.566-41.393,16.118-5.711-2.6-17.931-9.1-36.326-7.417,10.6-21.752,32.47-59.225,100.082-58.841-.982-.1-1.982-.18-2.983-.262a164.258,164.258,0,0,0-24.706-.234,130.228,130.228,0,0,0-13.446,1.626C210,110.514,179.113,128.251,164,174.324c8.209-2.96,28.881-7,42.122-1.369A19.026,19.026,0,0,1,215.053,180.182Z" transform="translate(-91.202 -30.74)" fill="#fff"/>
    </g>
  </g>
</svg>
