<svg xmlns="http://www.w3.org/2000/svg" width="184.775" height="181" viewBox="0 0 184.775 181">
  <g id="ILLU-ARES-Blanc" transform="translate(-1220.917 -323.478)">
    <path id="Tracé_5485" data-name="Tracé 5485" d="M263.679,39.306l13.6,26.652a46.822,46.822,0,0,1,8.234,3.8L263.679,26.976,244.738,64.083a64.961,64.961,0,0,1,6.707-.811Z" transform="translate(1049.626 296.502)" fill="#fff"/>
    <path id="Tracé_5486" data-name="Tracé 5486" d="M274.623,286.642l-40.982-80.29a79.927,79.927,0,0,1-1.19,10l33.017,64.686H99L150.477,180.19a9.491,9.491,0,0,0-4.453-3.6L89.848,286.642Z" transform="translate(1131.069 217.836)" fill="#fff"/>
    <path id="Tracé_5487" data-name="Tracé 5487" d="M216.827,253.787l.846.365a15.078,15.078,0,0,0-.547,3.344c.122.79,1.459,1.52,1.094,2.31s-1.216,2.554-.851,3.344,2.614,1.581,4.437,1.641c-2.918-1.215-3.359-2.811-2.447-4A12.1,12.1,0,0,0,221,258.285c.046-.274-1.414-1.049-.73-2.508s.866-1.869.866-1.869-2.325-1.278-1.414-2.987a7.02,7.02,0,0,1,1.459-2.119s-3.328-2.416-3.784-2.644-.456-.912-.091-2.325,1.322-4.377,1.322-4.377,1.276,3.876,1.322,4.149.365.5,2.6.091,7.7-1.277,8.069-1.368.183-.456,0-1.231-.593-1-1.687-1.231-3.146-1.14-5.106-1.094a33.585,33.585,0,0,1,4.149-.684,9.5,9.5,0,0,0,2.855,1.185c.747-.046,5.762-.456,6.492-.547s.182-.638-.593-.684-2.918-.137-3.784-.228-1.14-.274-1.733-1.459-.866-1.277-2.644-1.094-5.7.41-7.249.456a3.188,3.188,0,0,1-3.374-1.869c-.775-1.5-1.611-3.647-1.611-3.647s-.912,5.531-.669,6.565a1.067,1.067,0,0,0,1.155.912s-3.161,9.544-3.344,11.185c1.338.607,3.465.79,3.344,1.155S215.98,253.422,216.827,253.787Z" transform="translate(1066.063 189.644)" fill="#fff"/>
    <path id="Tracé_5488" data-name="Tracé 5488" d="M261.929,271.516c.957-.775,5.106-4.149,5.881-5.334s-.365-2.69-.365-2.69l2.325-3.647s-.411-1.732-.411-1.915,1.5-3.51,2.964-7.386c-3.51,1.368-3.556-.365-5.106-.912s-2.864.368-2.781,1.323c.091,1.048,1.368,1.732,1.322,3.146s-1.6,3.328-1.6,3.328l1.687,2.416-2.37,4.331,1.368,2.416s-.729,1.094-1.937,2.69S260.972,272.291,261.929,271.516Z" transform="translate(1040.818 179.513)" fill="#fff"/>
    <path id="Tracé_5489" data-name="Tracé 5489" d="M351.747,206.566c-1.895-6.632-4.747-15.159-7.455-17.415-.072-.06-.145-.134-.216-.185,6.805,11.937,1.41,23.314,4.784,31.156,1.986,4.617,3.948,5.992,6.24,7.486-1.9-10.441,4.46-24.886,7.28-40.621a79.908,79.908,0,0,0,1.19-10c.016-.309.036-.618.047-.928.851-24.264-11.141-44.994-26.667-55.319q.228.233.466.479C347.741,131.921,372.582,162.143,351.747,206.566Z" transform="translate(1001.14 247.199)" fill="#fff"/>
    <path id="Tracé_5490" data-name="Tracé 5490" d="M306.882,233.425a4.646,4.646,0,0,1-5.872-1.231c.821,4.125.365,8.3-5.464,9.013,2.546,6.449,12.238,7.576,13.4,6.216-1.262-.777-1.748-7.576-1.748-7.576s4.3-1.3,7.978-8.8c.469-.956,1.163-1.985,4.8.255.151.093.3.182.459.286a11.091,11.091,0,0,0-4.2-3.379c2.508-8.009,2.065-17.227.285-21.381C316.817,207.893,318.852,227.38,306.882,233.425Z" transform="translate(1022.911 201.935)" fill="#fff"/>
    <path id="Tracé_5491" data-name="Tracé 5491" d="M267.361,307.886c-2.1.892-3.222,1.552-6.079,1.459-.12,7.659-1.336,7.416-10.929,9.295-2.039.4-4.388,1.525-6.914.867-1.69-.44-2.5-5.359-6.106-6.271,3.606,6.748-4.294,10.029-10.843,17.628-3.155,3.662-5.874,9.727-6.786,17.021,2.644-8.206,5.348-12.18,9.141-15.543,10.684-9.474,25.051-11.218,29.639-11.577,6.216-.486,13.5,2.44,16.817,4.02C269.673,319.592,266.024,315.1,267.361,307.886Z" transform="translate(1062.789 148.797)" fill="#fff"/>
    <path id="Tracé_5492" data-name="Tracé 5492" d="M189.469,141.572a8.541,8.541,0,0,1,.765,1.516c.323,1.358-.023,2.834-.851,5.106a26.606,26.606,0,0,0-1.239,12.952c14.855-2.435,21,2.185,21.968,4.13s2.31,3.344,4.316,2.668c-3.584-1.436,3.161-4.917,3.1-6.862-2.918,2.066-4.116,1.766-12.583-1.946-4.437-1.945-11.864-1.879-13.738-1.763a18.063,18.063,0,0,1,2.351-11.2c2.33-3.878,4.336-2.845,5.248-5.884-1.945,1.216-4.8,0-3.089-2.709.341-.47.721-.938,1.113-1.395,2.6-3.019,11.833-6.828,14.817-7.607h.005A30.388,30.388,0,0,0,191,136.62c-2.849-1.3-8.945-4.538-18.121-3.7,5.289-10.851,16.2-29.544,49.925-29.352-.49-.048-.989-.09-1.488-.131a81.938,81.938,0,0,0-12.324-.117,64.961,64.961,0,0,0-6.707.811c-15.34,2.688-30.746,11.536-38.283,34.519,4.1-1.477,14.407-3.491,21.012-.683A9.491,9.491,0,0,1,189.469,141.572Z" transform="translate(1092.077 256.454)" fill="#fff"/>
  </g>
</svg>
