<svg xmlns="http://www.w3.org/2000/svg" width="1202.88" height="1178.302" viewBox="0 0 1202.88 1178.302">
  <g id="Logo-tramé" transform="translate(-1220.1 -322.378)">
    <path id="Tracé_5485" data-name="Tracé 5485" d="M367.873,107.134,456.315,280.4a304.388,304.388,0,0,1,53.529,24.711L367.873,26.976,244.738,268.212a422.334,422.334,0,0,1,43.606-5.275Z" transform="translate(1453.668 296.502)" fill="none" stroke="#626262" stroke-width="1"/>
    <path id="Tracé_5486" data-name="Tracé 5486" d="M1291.1,892.077,1024.664,370.1a519.627,519.627,0,0,1-7.738,65l214.65,420.533H149.364L484.008,200.02c-6.819-10.78-16.943-18.327-28.95-23.435L89.848,892.077Z" transform="translate(1131.069 608.103)" fill="none" stroke="#626262" stroke-width="1"/>
    <path id="Tracé_5487" data-name="Tracé 5487" d="M235.249,383.535l5.5,2.371s-4.347,16.6-3.558,21.737,9.486,9.88,7.115,15.016-7.9,16.6-5.534,21.737,16.992,10.275,28.849,10.67c-18.968-7.9-21.835-18.278-15.907-25.982s10.374-14.526,10.673-16.3-9.19-6.819-4.744-16.3,5.632-12.152,5.632-12.152-15.115-8.311-9.19-19.421,9.486-13.777,9.486-13.777-21.635-15.707-24.6-17.19-2.963-5.928-.592-15.118,8.595-28.454,8.595-28.454,8.3,25.2,8.595,26.974,2.371,3.259,16.9.592,50.089-8.3,52.459-8.891,1.187-2.966,0-8-3.853-6.523-10.965-8-20.451-7.411-33.2-7.115c20.451-4.149,26.971-4.445,26.971-4.445s13.7,8,18.558,7.707,37.459-2.966,42.2-3.558,1.184-4.149-3.853-4.445-18.968-.891-24.6-1.483-7.411-1.779-11.264-9.486-5.632-8.3-17.19-7.112-37.052,2.667-47.126,2.963-16.9-2.371-21.934-12.152-10.472-23.71-10.472-23.71-5.928,35.96-4.347,42.681,7.507,5.928,7.507,5.928-20.55,62.044-21.736,72.716c8.7,3.949,22.529,5.136,21.736,7.507S229.746,381.164,235.249,383.535Z" transform="translate(1388.561 719.771)" fill="none" stroke="#626262" stroke-width="1"/>
    <path id="Tracé_5488" data-name="Tracé 5488" d="M264.35,392.805c6.224-5.037,33.2-26.971,38.235-34.678s-2.374-17.486-2.374-17.486l15.118-23.713s-2.67-11.261-2.67-12.448,9.782-22.821,19.267-48.017c-22.822,8.894-23.118-2.371-33.2-5.928s-18.62,2.4-18.081,8.6c.592,6.816,8.891,11.261,8.595,20.451s-10.374,21.635-10.374,21.635l10.965,15.71-15.411,28.158,8.891,15.71s-4.741,7.112-12.59,17.485S258.126,397.845,264.35,392.805Z" transform="translate(1488.557 759.899)" fill="none" stroke="#626262" stroke-width="1"/>
    <path id="Tracé_5489" data-name="Tracé 5489" d="M433.143,678.7c-12.319-43.115-30.859-98.553-48.464-113.218-.469-.388-.94-.872-1.406-1.205,44.241,77.6,9.165,151.57,31.1,202.55,12.914,30.017,25.664,38.954,40.566,48.668-12.343-67.879,29-161.79,47.33-264.079a519.545,519.545,0,0,0,7.738-65c.1-2.01.234-4.02.308-6.033,5.534-157.742-72.43-292.515-173.363-359.636q1.48,1.512,3.027,3.117C407.1,193.418,568.59,389.9,433.143,678.7Z" transform="translate(1645.727 491.795)" fill="none" stroke="#626262" stroke-width="1"/>
    <path id="Tracé_5490" data-name="Tracé 5490" d="M369.243,379.756c-10.833,5.469-24.933,6.227-38.174-8,5.336,26.817,2.371,53.942-35.523,58.6,16.554,41.926,79.563,49.25,87.138,40.412-8.206-5.053-11.363-49.253-11.363-49.253s27.939-8.459,51.867-57.238c3.049-6.215,7.559-12.9,31.238,1.659.98.6,1.939,1.181,2.987,1.862-7.917-11.129-19.388-18.151-27.332-21.968,16.3-52.068,13.422-111.994,1.856-139C433.83,213.771,447.058,340.454,369.243,379.756Z" transform="translate(1559.49 671.084)" fill="none" stroke="#626262" stroke-width="1"/>
    <path id="Tracé_5491" data-name="Tracé 5491" d="M529.523,307.886c-13.644,5.8-20.947,10.09-39.518,9.486-.78,49.793-8.684,48.211-71.052,60.425-13.253,2.6-28.525,9.917-44.947,5.635-10.984-2.864-16.252-34.841-39.7-40.77,23.444,43.868-27.914,65.2-70.491,114.6-20.513,23.805-38.186,63.234-44.114,110.656,17.19-53.351,34.767-79.181,59.426-101.047,69.458-61.594,162.863-72.932,192.685-75.263,40.412-3.157,87.782,15.861,109.33,26.135C544.555,383.987,520.83,354.784,529.523,307.886Z" transform="translate(1401.531 881.571)" fill="none" stroke="#626262" stroke-width="1"/>
    <path id="Tracé_5492" data-name="Tracé 5492" d="M329.558,352.988a55.525,55.525,0,0,1,4.972,9.853c2.1,8.826-.151,18.426-5.534,33.2-8.364,22.96-13.1,54.735-8.052,84.2,96.577-15.833,136.493,14.2,142.815,26.848s15.016,21.737,28.056,17.347c-23.3-9.338,20.553-31.968,20.155-44.614C493,493.254,485.21,491.3,430.167,467.17c-28.849-12.646-77.128-12.217-89.314-11.459a117.427,117.427,0,0,1,15.281-72.8c15.149-25.211,28.192-18.493,34.12-38.254-12.646,7.9-31.216,0-20.084-17.609,2.22-3.058,4.686-6.1,7.238-9.066,16.894-19.625,76.927-44.389,96.324-49.457l.034-.009c-43.6-1.514-98.729,18.05-134.239,52.271-18.521-8.419-58.15-29.5-117.808-24.055,34.382-70.543,105.3-192.069,324.569-190.823-3.184-.311-6.428-.583-9.674-.851a532.692,532.692,0,0,0-80.121-.758,422.326,422.326,0,0,0-43.606,5.275C313.158,127.052,213,184.573,164,333.992c26.623-9.6,93.664-22.7,136.6-4.439C312.615,334.661,322.739,342.207,329.558,352.988Z" transform="translate(1285.519 455.133)" fill="none" stroke="#626262" stroke-width="1"/>
  </g>
</svg>
