<svg xmlns="http://www.w3.org/2000/svg" width="113.817" height="94.469" viewBox="0 0 113.817 94.469">
  <path id="R" d="M267.138,474.041h-39.8v18.946h34.85l22.6,24.8h29.476l-28.639-28.9a29.383,29.383,0,0,0,11.276-10.3c3.489-5.442,5.26-12.214,5.26-20.131a41.728,41.728,0,0,0-2.368-14.4,31.029,31.029,0,0,0-6.974-11.18,30.655,30.655,0,0,0-11.126-7.116,41.142,41.142,0,0,0-14.547-2.44h-66.7v94.469H221.1V444.111h46.035c4.759,0,8.295,1.154,10.806,3.527,2.435,2.3,3.671,6.028,3.671,11.07,0,5.105-1.211,8.991-3.6,11.552C275.638,472.8,272.082,474.041,267.138,474.041Z" transform="translate(-200.44 -423.323)" fill="#fff"/>
</svg>
