<svg xmlns="http://www.w3.org/2000/svg" width="101.745" height="94.955" viewBox="0 0 101.745 94.955">
  <path id="S" d="M459.99,497.385H390.111v20.893H459.99a37.479,37.479,0,0,0,13.2-2.142,26.307,26.307,0,0,0,9.644-6.106,25.315,25.315,0,0,0,5.783-9.277,33.635,33.635,0,0,0,1.882-11.375c0-9.45-2.677-16.662-7.958-21.44-5.208-4.7-12.8-7.091-22.549-7.091h-41.1a8.957,8.957,0,0,1-6.425-2.132c-1.479-1.389-2.2-3.391-2.2-6.121,0-2.753.713-4.787,2.176-6.223,1.483-1.449,3.633-2.155,6.569-2.155h67.043V423.323H419.01a36.87,36.87,0,0,0-12.752,2.076,27.762,27.762,0,0,0-9.591,5.8,24.18,24.18,0,0,0-5.951,8.915,30.372,30.372,0,0,0-1.963,11,29.543,29.543,0,0,0,2.107,11.231,26.015,26.015,0,0,0,6.033,8.977,27.4,27.4,0,0,0,9.539,5.873,35.151,35.151,0,0,0,12.333,2.079H459.99c3.538,0,6.227.766,8,2.274,1.669,1.429,2.481,3.627,2.481,6.72a8.613,8.613,0,0,1-2.577,6.624C466.137,496.547,463.48,497.385,459.99,497.385Z" transform="translate(-388.753 -423.323)" fill="#fff"/>
</svg>
