<svg xmlns="http://www.w3.org/2000/svg" width="97.341" height="97.341" viewBox="0 0 97.341 97.341"><defs><style>.a{fill:#002a4d;}</style></defs><g transform="translate(-640.191 -44.325)"><path class="a" d="M726.469,141.666H651.251a11.072,11.072,0,0,1-11.06-11.06V55.385a11.072,11.072,0,0,1,11.06-11.06h75.218a11.073,11.073,0,0,1,11.063,11.06v75.221A11.073,11.073,0,0,1,726.469,141.666ZM651.251,47.643a7.753,7.753,0,0,0-7.745,7.742v75.221a7.756,7.756,0,0,0,7.745,7.745h75.218a7.754,7.754,0,0,0,7.745-7.745V55.385a7.751,7.751,0,0,0-7.745-7.742Z" transform="translate(0 0)"/><g transform="translate(647.255 71.141)"><path class="a" d="M682.774,75.668c-22.572,0-40.251-7.853-40.251-17.876a1.657,1.657,0,1,1,3.315,0c0,7.756,17.259,14.558,36.936,14.558,19.806,0,37.18-6.8,37.18-14.558a1.659,1.659,0,1,1,3.318,0C723.272,67.647,705.1,75.668,682.774,75.668Z" transform="translate(-641.221 -40.594)"/><path class="a" d="M683.763,95.509c-23.329,0-41.6-9.6-41.6-21.855S660.435,51.8,683.763,51.8s41.61,9.6,41.61,21.855S707.1,95.509,683.763,95.509Zm0-40.394c-20.753,0-38.289,8.491-38.289,18.54s17.535,18.536,38.289,18.536,38.292-8.488,38.292-18.536S704.52,55.115,683.763,55.115Z" transform="translate(-642.16 -51.8)"/><ellipse class="a" cx="12.007" cy="3.247" rx="12.007" ry="3.247" transform="translate(29.423 15.056)"/></g></g></svg>