<svg xmlns="http://www.w3.org/2000/svg" width="81.359" height="81.36" viewBox="0 0 81.359 81.36"><defs><style>.a{fill:#fff;}</style></defs><g transform="translate(-456.484 -190.621)"><g transform="translate(281.148 -4.474)"><g transform="translate(175.336 195.095)"><path class="a" d="M255.373,276.455a1.328,1.328,0,0,1-.936-.387l-78.714-78.716a1.321,1.321,0,0,1,1.868-1.868L256.309,274.2a1.323,1.323,0,0,1-.936,2.259Z" transform="translate(-175.336 -195.095)"/><path class="a" d="M176.659,276.455a1.323,1.323,0,0,1-.936-2.259l78.714-78.714a1.322,1.322,0,0,1,1.871,1.868l-78.716,78.716A1.317,1.317,0,0,1,176.659,276.455Z" transform="translate(-175.336 -195.095)"/></g><path class="a" d="M244.807,273.384H184.831a8.83,8.83,0,0,1-8.818-8.821V204.59a8.827,8.827,0,0,1,8.818-8.818h59.976a8.827,8.827,0,0,1,8.818,8.818v59.973A8.83,8.83,0,0,1,244.807,273.384Zm-59.976-74.969a6.183,6.183,0,0,0-6.175,6.175v59.973a6.181,6.181,0,0,0,6.175,6.175h59.976a6.178,6.178,0,0,0,6.172-6.175V204.59a6.18,6.18,0,0,0-6.172-6.175Z" transform="translate(1.197 1.197)"/><g transform="translate(185.692 210.195)"><rect class="a" width="60.647" height="6.612"/><rect class="a" width="60.647" height="6.612" transform="translate(0 44.549)"/></g></g></g></svg>