<svg xmlns="http://www.w3.org/2000/svg" xmlns:xlink="http://www.w3.org/1999/xlink" width="193.055" height="193.055" viewBox="0 0 193.055 193.055"><defs><style>.a{fill:none;}.b{clip-path:url(#a);}.c{fill:#161615;}.d{fill:#a3a3a3;}.e{fill:#fff;}.f{fill:#ec9700;}.g{fill:#eec79a;}</style><clipPath id="a"><rect class="a" width="148.367" height="124.654" transform="translate(0 0)"/></clipPath></defs><g transform="translate(0 104.911) rotate(-45)"><g class="b"><path class="c" d="M145.96,56.3H81.584a1.023,1.023,0,0,0-1.023,1.022v6.088a1.023,1.023,0,0,0,1.023,1.023H145.96a1.022,1.022,0,0,0,1.021-1.023V57.319A1.022,1.022,0,0,0,145.96,56.3"/><path class="c" d="M145.371,64.77H130.8a3,3,0,0,1-3-3v-2.82a3,3,0,0,1,3-3h14.57a3,3,0,0,1,3,3v2.82a3,3,0,0,1-3,3"/><path class="d" d="M81.787,64.8H76.1v-8.92h5.684a11.035,11.035,0,0,0-1.279,4.431A10.345,10.345,0,0,0,81.787,64.8"/><path class="e" d="M145.275,59.388v1.747a.612.612,0,0,1-.613.612h-7.918a.612.612,0,0,1-.613-.612V59.388a.613.613,0,0,1,.613-.613h7.918a.613.613,0,0,1,.613.613"/><path class="e" d="M38.129,124.529c-20.989,0-38-27.849-38-62.2s17.015-62.2,38-62.2,38,27.849,38,62.2-17.015,62.2-38,62.2"/><path class="c" d="M38.129,124.654C17.1,124.654,0,96.694,0,62.327S17.1,0,38.129,0,76.258,27.96,76.258,62.327s-17.105,62.327-38.129,62.327m0-124.4C17.242.25.25,28.1.25,62.327S17.242,124.4,38.129,124.4,76.008,96.556,76.008,62.327,59.016.25,38.129.25"/><path class="f" d="M38.129,121.994C18,121.994,1.673,95.28,1.673,62.327S18,2.66,38.129,2.66,74.584,29.373,74.584,62.327s-16.321,59.667-36.455,59.667"/><path class="f" d="M38.129,122.369C17.82,122.369,1.3,95.435,1.3,62.327S17.82,2.285,38.129,2.285s36.83,26.935,36.83,60.042-16.522,60.042-36.83,60.042m0-119.334c-19.9,0-36.081,26.6-36.081,59.292s16.186,59.292,36.081,59.292,36.08-26.6,36.08-59.292S58.024,3.035,38.129,3.035"/><path class="g" d="M38.129,109.177C22.32,109.177,9.505,88.2,9.505,62.328s12.815-46.85,28.624-46.85,28.624,20.975,28.624,46.85-12.815,46.849-28.624,46.849"/><path class="c" d="M38.129,109.3C22.277,109.3,9.38,88.229,9.38,62.328s12.9-46.975,28.749-46.975S66.878,36.426,66.878,62.328,53.981,109.3,38.129,109.3m0-93.7c-15.714,0-28.5,20.96-28.5,46.725s12.785,46.724,28.5,46.724,28.5-20.961,28.5-46.724S53.843,15.6,38.129,15.6"/></g></g></svg>