<svg xmlns="http://www.w3.org/2000/svg" xmlns:xlink="http://www.w3.org/1999/xlink" width="167.233" height="167.233" viewBox="0 0 167.233 167.233"><defs><style>.a{fill:none;}.b{clip-path:url(#a);}.c{fill:#161615;}.d{fill:#a3a3a3;}.e{fill:#fff;}.f{fill:#ec9700;}.g{fill:#eec79a;}</style><clipPath id="a"><rect class="a" width="154.015" height="82.488" transform="translate(0 0)"/></clipPath></defs><g transform="translate(0 108.905) rotate(-45)"><g class="b"><path class="c" d="M151.608,36.874H87.232A1.023,1.023,0,0,0,86.209,37.9v6.088a1.022,1.022,0,0,0,1.023,1.022h64.376a1.022,1.022,0,0,0,1.022-1.022V37.9a1.023,1.023,0,0,0-1.022-1.023"/><path class="c" d="M151.019,45.346h-14.57a3,3,0,0,1-3-3V39.53a3,3,0,0,1,3-3h14.57a3,3,0,0,1,3,3v2.82a3,3,0,0,1-3,3"/><path class="d" d="M87.435,45.374H81.752V36.453h5.683a11.043,11.043,0,0,0-1.279,4.432,10.36,10.36,0,0,0,1.279,4.489"/><path class="e" d="M150.924,39.964v1.747a.612.612,0,0,1-.613.612h-7.918a.613.613,0,0,1-.614-.612V39.964a.614.614,0,0,1,.614-.613h7.918a.613.613,0,0,1,.613.613"/><path class="e" d="M61.954,82.363H20.05A19.925,19.925,0,0,1,.125,62.438V20.05A19.925,19.925,0,0,1,20.05.125h41.9A19.925,19.925,0,0,1,81.879,20.05V62.438A19.925,19.925,0,0,1,61.954,82.363"/><path class="c" d="M61.954,82.488H20.05A20.072,20.072,0,0,1,0,62.438V20.05A20.073,20.073,0,0,1,20.05,0h41.9A20.073,20.073,0,0,1,82,20.05V62.438a20.073,20.073,0,0,1-20.05,20.05M20.05.25A19.823,19.823,0,0,0,.25,20.05V62.438a19.823,19.823,0,0,0,19.8,19.8h41.9a19.823,19.823,0,0,0,19.8-19.8V20.05A19.823,19.823,0,0,0,61.954.25Z"/><path class="f" d="M60.454,80.994h-38.9A19.925,19.925,0,0,1,1.624,61.069V21.419A19.925,19.925,0,0,1,21.549,1.494h38.9A19.925,19.925,0,0,1,80.379,21.419v39.65A19.925,19.925,0,0,1,60.454,80.994"/><path class="f" d="M60.454,81.369h-38.9a20.323,20.323,0,0,1-20.3-20.3V21.419a20.323,20.323,0,0,1,20.3-20.3h38.9a20.323,20.323,0,0,1,20.3,20.3v39.65a20.323,20.323,0,0,1-20.3,20.3m-38.9-79.5A19.572,19.572,0,0,0,2,21.419v39.65a19.572,19.572,0,0,0,19.55,19.55h38.9A19.572,19.572,0,0,0,80,61.069V21.419a19.572,19.572,0,0,0-19.55-19.55Z"/><path class="g" d="M56.82,77.914H25.182A19.925,19.925,0,0,1,5.257,57.989V24.5A19.925,19.925,0,0,1,25.182,4.574H56.82A19.925,19.925,0,0,1,76.745,24.5V57.989A19.925,19.925,0,0,1,56.82,77.914"/><path class="c" d="M56.821,78.039H25.183A20.072,20.072,0,0,1,5.133,57.99V24.5a20.072,20.072,0,0,1,20.05-20.05H56.821A20.073,20.073,0,0,1,76.871,24.5V57.99a20.073,20.073,0,0,1-20.05,20.049M25.183,4.7a19.823,19.823,0,0,0-19.8,19.8V57.99a19.823,19.823,0,0,0,19.8,19.8H56.821a19.822,19.822,0,0,0,19.8-19.8V24.5a19.822,19.822,0,0,0-19.8-19.8Z"/><path class="f" d="M20.016,67.945h-.6a.685.685,0,0,1-.684-.685V14.3a.685.685,0,0,1,.684-.685h.6a.685.685,0,0,1,.685.685V67.26a.685.685,0,0,1-.685.685"/><path class="c" d="M20.016,68.07h-.6a.812.812,0,0,1-.81-.81V14.3a.811.811,0,0,1,.81-.81h.6a.81.81,0,0,1,.809.81V67.26a.811.811,0,0,1-.809.81m-.6-54.331a.56.56,0,0,0-.56.56V67.26a.56.56,0,0,0,.56.56h.6a.56.56,0,0,0,.559-.56V14.3a.56.56,0,0,0-.559-.56Z"/><path class="f" d="M28.27,67.945h-.6a.685.685,0,0,1-.684-.685V14.3a.685.685,0,0,1,.684-.685h.6a.686.686,0,0,1,.685.685V67.26a.686.686,0,0,1-.685.685"/><path class="c" d="M28.27,68.07h-.6a.812.812,0,0,1-.81-.81V14.3a.811.811,0,0,1,.81-.81h.6a.81.81,0,0,1,.809.81V67.26a.811.811,0,0,1-.809.81m-.6-54.331a.56.56,0,0,0-.56.56V67.26a.56.56,0,0,0,.56.56h.6a.56.56,0,0,0,.559-.56V14.3a.56.56,0,0,0-.559-.56Z"/><path class="f" d="M36.524,67.945h-.6a.685.685,0,0,1-.684-.685V14.3a.685.685,0,0,1,.684-.685h.6a.685.685,0,0,1,.685.685V67.26a.685.685,0,0,1-.685.685"/><path class="c" d="M36.524,68.07h-.6a.812.812,0,0,1-.81-.81V14.3a.811.811,0,0,1,.81-.81h.6a.81.81,0,0,1,.809.81V67.26a.811.811,0,0,1-.809.81m-.6-54.331a.56.56,0,0,0-.56.56V67.26a.56.56,0,0,0,.56.56h.6a.56.56,0,0,0,.559-.56V14.3a.56.56,0,0,0-.559-.56Z"/><path class="f" d="M44.778,67.945h-.6a.685.685,0,0,1-.684-.685V14.3a.685.685,0,0,1,.684-.685h.6a.685.685,0,0,1,.685.685V67.26a.685.685,0,0,1-.685.685"/><path class="c" d="M44.778,68.07h-.6a.812.812,0,0,1-.81-.81V14.3a.811.811,0,0,1,.81-.81h.6a.81.81,0,0,1,.809.81V67.26a.811.811,0,0,1-.809.81m-.6-54.331a.56.56,0,0,0-.56.56V67.26a.56.56,0,0,0,.56.56h.6a.56.56,0,0,0,.559-.56V14.3a.56.56,0,0,0-.559-.56Z"/><path class="f" d="M53.032,67.945h-.6a.685.685,0,0,1-.684-.685V14.3a.685.685,0,0,1,.684-.685h.6a.685.685,0,0,1,.685.685V67.26a.685.685,0,0,1-.685.685"/><path class="c" d="M53.032,68.07h-.6a.812.812,0,0,1-.81-.81V14.3a.811.811,0,0,1,.81-.81h.6a.81.81,0,0,1,.809.81V67.26a.811.811,0,0,1-.809.81m-.6-54.331a.56.56,0,0,0-.56.56V67.26a.56.56,0,0,0,.56.56h.6a.56.56,0,0,0,.559-.56V14.3a.56.56,0,0,0-.559-.56Z"/><path class="f" d="M61.286,67.945h-.6A.685.685,0,0,1,60,67.26V14.3a.685.685,0,0,1,.684-.685h.6a.685.685,0,0,1,.685.685V67.26a.685.685,0,0,1-.685.685"/><path class="c" d="M61.286,68.07h-.6a.812.812,0,0,1-.811-.81V14.3a.811.811,0,0,1,.811-.81h.6a.81.81,0,0,1,.809.81V67.26a.811.811,0,0,1-.809.81m-.6-54.331a.561.561,0,0,0-.561.56V67.26a.561.561,0,0,0,.561.56h.6a.56.56,0,0,0,.559-.56V14.3a.56.56,0,0,0-.559-.56Z"/></g></g></svg>