<svg xmlns="http://www.w3.org/2000/svg" xmlns:xlink="http://www.w3.org/1999/xlink" width="169.849" height="23.024" viewBox="0 0 169.849 23.024"><defs><style>.a{fill:none;}.b{fill:#a3a3a3;}.c{clip-path:url(#a);}.d{fill:#161615;}.e{fill:#ec9700;}</style><clipPath id="a"><rect class="a" width="169.849" height="23.024" transform="translate(0 0)"/></clipPath></defs><g transform="translate(-978 -1169)"><g transform="translate(978 1169)"><path class="b" d="M116.333,11.2l-8.193-.42L105.509,18.2l9.726-.247Z"/><g class="c"><path class="d" d="M169.577.213c-.584-.411-2.181-.1-2.934-.087l-7.485.155-7.724.16c-2.293.047-4.538-.146-6.7.786-6.4,2.765-12.866,6-19.494,8.195-1.873.621-8.241,1.771-8.241,1.771l-.985,6.858s14.953-4.092,20.434-6.534,11.435-5.183,11.435-5.183c4.258-.187,8.512-.188,12.77-.392,1.924-.092,4.358.066,6.224-.5.656-.2,2.69-1.122,2.714-1.888.02-.654.488-2.72.108-3.225a.571.571,0,0,0-.123-.117"/><path class="e" d="M55.226,9.541V9.536l-1.583,0-1.583,0v.005l-51.3.09a.659.659,0,0,0-.611.858C1.032,13.425,4.277,22.9,9.6,22.9H97.689c5.32,0,8.565-9.473,9.443-12.409a.659.659,0,0,0-.611-.858Z"/><path class="d" d="M97.689,23.024H9.6c-5.406,0-8.686-9.567-9.561-12.5a.8.8,0,0,1,.123-.71.753.753,0,0,1,.606-.309l51.3-.095,1.583,0,1.708,0v.005l51.17.09a.753.753,0,0,1,.606.309.794.794,0,0,1,.124.71c-.876,2.932-4.157,12.5-9.562,12.5M52.176,9.661l-.116.005-51.3.09a.5.5,0,0,0-.405.209.545.545,0,0,0-.085.488C1.137,13.344,4.363,22.774,9.6,22.774H97.689c5.232,0,8.459-9.43,9.323-12.32a.552.552,0,0,0-.085-.49.506.506,0,0,0-.406-.208L55.1,9.661l-1.458,0Z"/></g></g></g></svg>