<svg xmlns="http://www.w3.org/2000/svg" xmlns:xlink="http://www.w3.org/1999/xlink" width="133.996" height="31.499" viewBox="0 0 133.996 31.499"><defs><style>.a{fill:none;}.b{clip-path:url(#a);}.c{fill:#ec9700;}.d{fill:#161615;}.e{fill:#a3a3a3;}</style><clipPath id="a"><rect class="a" width="133.996" height="31.499" transform="translate(0 0)"/></clipPath></defs><g transform="translate(-1362 -1349)"><g transform="translate(441 180)"><g transform="translate(921 1169)"><g class="b"><path class="c" d="M119.792.125,14.185.283c-.856,0-1.473.636-1.224,1.271C14.937,6.593,23.846,25.229,49.41,31.327a1.7,1.7,0,0,0,.4.047H83.962a1.7,1.7,0,0,0,.4-.047c25.628-6.118,34.654-24.86,36.662-29.93.251-.636-.369-1.273-1.229-1.272"/><path class="d" d="M83.962,31.5H49.807a1.776,1.776,0,0,1-.427-.051C23.96,25.384,14.989,7.068,12.845,1.6a.9.9,0,0,1,.1-.857A1.5,1.5,0,0,1,14.185.158L119.792,0h0a1.494,1.494,0,0,1,1.241.585.9.9,0,0,1,.1.858c-2.178,5.5-11.266,23.922-36.749,30.006a1.813,1.813,0,0,1-.426.05M119.792.25,14.185.408a1.245,1.245,0,0,0-1.031.476.655.655,0,0,0-.077.624c2.133,5.44,11.059,23.661,36.361,29.7a1.559,1.559,0,0,0,.369.044H83.962a1.6,1.6,0,0,0,.368-.043C109.7,25.15,118.737,6.824,120.9,1.352a.658.658,0,0,0-.075-.626A1.245,1.245,0,0,0,119.794.25Z"/><path class="d" d="M120.225,3.006H134V.409L121.235.347Z"/><path class="e" d="M119.884,3.48l-1.535,3.538,4.667-.119,6.514-3.451Z"/><path class="d" d="M13.771,2.718H0V.121L12.761.059Z"/><path class="e" d="M14.112,3.192,15.647,6.73,10.98,6.61,4.466,3.16Z"/></g></g></g></g></svg>