<svg xmlns="http://www.w3.org/2000/svg" xmlns:xlink="http://www.w3.org/1999/xlink" width="159.46" height="41.083" viewBox="0 0 159.46 41.083"><defs><style>.a{fill:none;}.b{fill:#a3a3a3;}.c{clip-path:url(#a);}.d{fill:#161615;}.e{fill:#ec9700;}</style><clipPath id="a"><rect class="a" width="159.46" height="41.083" transform="translate(0 0)"/></clipPath></defs><g transform="translate(-955 -1159)"><g transform="translate(955 1159)"><path class="b" d="M106.892,14.966l-5.41-.108v6.816l5.1-.231Z"/><g class="c"><path class="d" d="M159.109.135c-.613-.347-2.182.073-2.931.147q-3.724.37-7.45.738l-7.688.761c-2.283.226-4.535.217-6.619,1.281-6.175,3.154-12.372,6.761-18.814,9.389-1.82.743-8.081,2.346-8.081,2.346l-.463,6.652s14.6-5.1,19.876-7.871,11.008-5.869,11.008-5.869c4.23-.513,8.471-.849,12.7-1.38,1.912-.239,4.35-.279,6.167-.967.639-.243,2.6-1.288,2.563-2.024-.03-.628.281-2.645-.136-3.1a.524.524,0,0,0-.132-.1"/><path class="e" d="M50.665,13.544H.133S1.89,40.958,23.742,40.958H77.2c21.852,0,23.609-27.413,23.609-27.413Z"/><path class="d" d="M77.2,41.083H23.742c-11.354,0-17.2-7.493-20.112-13.779A43.7,43.7,0,0,1,.009,13.553L0,13.42H100.938l-.009.133A43.683,43.683,0,0,1,97.309,27.3C94.4,33.59,88.551,41.083,77.2,41.083m-26.728-.251H77.2c11.219,0,17-7.411,19.882-13.628A43.593,43.593,0,0,0,100.67,13.67H.269A43.593,43.593,0,0,0,3.86,27.2c2.877,6.217,8.663,13.628,19.882,13.628Z"/></g></g></g></svg>