<svg xmlns="http://www.w3.org/2000/svg" xmlns:xlink="http://www.w3.org/1999/xlink" width="130.144" height="128.808" viewBox="0 0 130.144 128.808"><defs><style>.a{fill:none;}.b{clip-path:url(#a);}.c{fill:#fff;}.d{fill:#161615;}.e{fill:#ec9700;}.f{fill:#eec79a;}.g{fill:#a3a3a3;}</style><clipPath id="a"><rect class="a" width="118.638" height="64.497" transform="translate(0 0)"/></clipPath></defs><g transform="translate(0 82.413) rotate(-44)"><g class="b"><path class="c" d="M32.249,64.372A32.124,32.124,0,1,1,64.372,32.249,32.124,32.124,0,0,1,32.249,64.372"/><path class="d" d="M32.249,64.5A32.249,32.249,0,1,1,64.5,32.249,32.286,32.286,0,0,1,32.249,64.5m0-64.247a32,32,0,1,0,32,32,32.035,32.035,0,0,0-32-32"/><path class="e" d="M32.249,63.064A30.814,30.814,0,1,1,63.063,32.25,30.813,30.813,0,0,1,32.249,63.064"/><path class="e" d="M32.249,63.439a31.189,31.189,0,1,1,31.189-31.19,31.224,31.224,0,0,1-31.189,31.19m0-61.629A30.439,30.439,0,1,0,62.688,32.249,30.474,30.474,0,0,0,32.249,1.81"/><path class="f" d="M32.249,56.443A24.2,24.2,0,1,1,56.444,32.249,24.194,24.194,0,0,1,32.249,56.443"/><path class="d" d="M32.249,56.569a24.32,24.32,0,1,1,24.32-24.32,24.348,24.348,0,0,1-24.32,24.32m0-48.39a24.07,24.07,0,1,0,24.07,24.07,24.1,24.1,0,0,0-24.07-24.07"/><path class="d" d="M116.583,29.237H69.1a1.022,1.022,0,0,0-1.023,1.022v4.02A1.023,1.023,0,0,0,69.1,35.3h47.482a1.022,1.022,0,0,0,1.022-1.022v-4.02a1.021,1.021,0,0,0-1.022-1.022"/><path class="d" d="M115.642,35.555H106.3a3,3,0,0,1-3-3V31.98a3,3,0,0,1,3-3h9.34a3,3,0,0,1,3,3v.579a3,3,0,0,1-3,3"/><path class="g" d="M68.992,35.575H64.754V28.923h4.238a8.219,8.219,0,0,0-.954,3.3,7.722,7.722,0,0,0,.954,3.348"/><path class="c" d="M116.333,31.7v.99a.613.613,0,0,1-.613.614h-5.593a.613.613,0,0,1-.612-.614V31.7a.612.612,0,0,1,.612-.612h5.593a.612.612,0,0,1,.613.612"/></g></g></svg>