<svg xmlns="http://www.w3.org/2000/svg" xmlns:xlink="http://www.w3.org/1999/xlink" width="176.482" height="178.238" viewBox="0 0 176.482 178.238"><defs><style>.a{fill:none;}.b{clip-path:url(#a);}.c{fill:#161615;}.d{fill:#a3a3a3;}.e{fill:#fff;}.f{fill:#ec9700;}.g{fill:#eec79a;}</style><clipPath id="a"><rect class="a" width="161.021" height="89.842" transform="translate(0 0)"/></clipPath></defs><g transform="matrix(0.695, -0.719, 0.719, 0.695, 0, 115.829)"><g class="b"><path class="c" d="M158.614,43.23H94.238a1.023,1.023,0,0,0-1.023,1.022V50.34a1.023,1.023,0,0,0,1.023,1.023h64.376a1.023,1.023,0,0,0,1.023-1.023V44.252a1.023,1.023,0,0,0-1.023-1.022"/><path class="c" d="M158.025,51.7h-14.57a3,3,0,0,1-2.995-3v-2.82a3,3,0,0,1,2.995-3h14.57a3,3,0,0,1,3,3v2.82a3,3,0,0,1-3,3"/><path class="d" d="M94.441,51.729H88.758V42.81h5.683a11.035,11.035,0,0,0-1.279,4.431,10.338,10.338,0,0,0,1.279,4.488"/><path class="e" d="M157.93,46.321v1.747a.612.612,0,0,1-.613.612H149.4a.612.612,0,0,1-.613-.612V46.321a.613.613,0,0,1,.613-.613h7.918a.613.613,0,0,1,.613.613"/><path class="e" d="M44.921,89.717a44.8,44.8,0,1,1,44.8-44.8,44.8,44.8,0,0,1-44.8,44.8"/><path class="c" d="M44.921,89.842A44.921,44.921,0,1,1,89.842,44.921,44.971,44.971,0,0,1,44.921,89.842m0-89.592A44.671,44.671,0,1,0,89.592,44.921,44.722,44.722,0,0,0,44.921.25"/><path class="f" d="M44.921,87.892A42.971,42.971,0,1,1,87.892,44.921,42.971,42.971,0,0,1,44.921,87.892"/><path class="f" d="M44.921,88.267A43.346,43.346,0,1,1,88.267,44.921,43.4,43.4,0,0,1,44.921,88.267m0-85.942a42.6,42.6,0,1,0,42.6,42.6,42.644,42.644,0,0,0-42.6-42.6"/><path class="g" d="M44.921,78.661a33.74,33.74,0,1,1,33.74-33.74,33.74,33.74,0,0,1-33.74,33.74"/><path class="c" d="M44.921,78.786A33.865,33.865,0,1,1,78.786,44.922,33.9,33.9,0,0,1,44.921,78.786m0-67.479A33.615,33.615,0,1,0,78.536,44.922,33.654,33.654,0,0,0,44.921,11.307"/></g></g></svg>