<svg xmlns="http://www.w3.org/2000/svg" width="96.326" height="114" viewBox="0 0 96.326 114"><defs><style>.a{fill:#434343;font-size:10px;font-family:MyriadPro-Regular, Myriad Pro;}.b{fill:#002a4d;}</style></defs><g transform="translate(-717 -3725)"><text class="a" transform="translate(765 3836)"><tspan x="-20.245" y="0">Induction</tspan></text><g transform="translate(425.276 3680.675)"><path class="b" d="M377.106,140.651H302.669a10.957,10.957,0,0,1-10.945-10.945V55.273a10.958,10.958,0,0,1,10.945-10.948h74.437A10.958,10.958,0,0,1,388.05,55.273v74.433A10.957,10.957,0,0,1,377.106,140.651ZM302.669,47.609a7.67,7.67,0,0,0-7.661,7.664v74.433a7.669,7.669,0,0,0,7.661,7.661h74.437a7.672,7.672,0,0,0,7.664-7.661V55.273a7.673,7.673,0,0,0-7.664-7.664Z" transform="translate(0 0)"/><path class="b" d="M358.345,113.415A15.752,15.752,0,0,1,348,110.046a20.885,20.885,0,0,1-11.3,3.216,16.127,16.127,0,0,1-8.545-2.208,17.123,17.123,0,0,1-8.637,2.208,18.729,18.729,0,0,1-11.3-3.511,15.374,15.374,0,0,1-10.359,3.664v-3.28a12.279,12.279,0,0,0,7.782-2.506l-.234-.231c-5.765-5.694-9.07-14.878-9.07-25.195,0-12.478,1.3-33.413,10-33.413,8.367,0,10.125,18.261,10.125,33.58,0,12.652-2.46,20.377-5.971,24.953a15.8,15.8,0,0,0,8.79,2.655h.2a14.531,14.531,0,0,0,5.84-1.179c-4.8-4.885-7.228-13.774-7.228-26.6,0-22.17,3.365-33.413,10-33.413,8.7,0,10,21.037,10,33.58,0,9.12-.923,20.331-7.029,26.426a12.994,12.994,0,0,0,5.63,1.182,17.426,17.426,0,0,0,8.911-2.393c-3.937-5.055-5.879-13.426-5.879-25.216,0-10,.966-33.267,9.887-33.267,8.7,0,10,20.842,10,33.267,0,12.748-3.713,20.906-8.921,25.613a12.776,12.776,0,0,0,7.636,2.151ZM328.1,52.074c-3.248,0-6.72,7.913-6.72,30.129,0,12.322,2.3,20.583,6.873,24.7,4.491-3.987,6.571-11.967,6.571-24.538C334.826,61.552,331.34,52.074,328.1,52.074Zm21.524.312c-2.655,0-6.6,7.984-6.6,29.984,0,12.521,2.212,19.468,5.25,23.285,4.686-4.143,8.073-11.527,8.073-23.285C356.347,61.769,352.864,52.386,349.626,52.386Zm-43.282-.312c-3.341,0-6.72,10.348-6.72,30.129,0,9.447,2.95,17.779,8.1,22.859.075.078.153.153.231.227q5.218-6.773,5.233-22.919C313.185,60.008,309.5,52.074,306.344,52.074Z" transform="translate(11.781 11.386)"/></g></g></svg>