<svg xmlns="http://www.w3.org/2000/svg" width="96.668" height="96.668" viewBox="0 0 96.668 96.668"><defs><style>.a{fill:#002a4d;}</style></defs><g transform="translate(-407.88 -44.325)"><path class="a" d="M493.561,140.993h-74.7A11,11,0,0,1,407.88,130.01v-74.7a11,11,0,0,1,10.984-10.987h74.7a11,11,0,0,1,10.987,10.987v74.7A11,11,0,0,1,493.561,140.993Zm-74.7-93.373a7.7,7.7,0,0,0-7.692,7.692v74.7a7.7,7.7,0,0,0,7.692,7.692h74.7a7.7,7.7,0,0,0,7.692-7.692v-74.7a7.7,7.7,0,0,0-7.692-7.692Z" transform="translate(0)"/><g transform="translate(434.165 69.987)"><path class="a" d="M418.689,61.777a19.805,19.805,0,0,1,2.024-4.934L418.3,54.4a23.3,23.3,0,0,0-3.043,7.375Z" transform="translate(-415.258 -44.163)"/><path class="a" d="M420.709,64.241a19.938,19.938,0,0,1-2.02-4.927h-3.431a23.254,23.254,0,0,0,3.039,7.368Z" transform="translate(-415.258 -31.575)"/><path class="a" d="M422.976,54.962A19.328,19.328,0,0,1,427.782,57l2.394-2.423a22.626,22.626,0,0,0-7.2-3.046Z" transform="translate(-395.48 -51.528)"/><path class="a" d="M420.507,57a19.33,19.33,0,0,1,4.806-2.034V51.528a22.734,22.734,0,0,0-7.2,3.042Z" transform="translate(-407.942 -51.528)"/><path class="a" d="M427.8,62.721a19.372,19.372,0,0,1-4.82,2.041V68.2a22.715,22.715,0,0,0,7.214-3.053Z" transform="translate(-395.48 -22.845)"/><path class="a" d="M425.321,64.76a19.281,19.281,0,0,1-4.817-2.038l-2.394,2.426a22.724,22.724,0,0,0,7.211,3.05Z" transform="translate(-407.949 -22.842)"/><path class="a" d="M426.321,56.843a19.979,19.979,0,0,1,2.023,4.931h3.427a23.114,23.114,0,0,0-3.042-7.371Z" transform="translate(-386.908 -44.16)"/><path class="a" d="M428.339,59.314a20.019,20.019,0,0,1-2.016,4.92l2.408,2.44a23.209,23.209,0,0,0,3.039-7.36Z" transform="translate(-386.903 -31.575)"/></g><rect class="a" width="24.896" height="3.294" transform="translate(444.737 81.961)"/><rect class="a" width="24.896" height="3.294" transform="translate(444.737 100.234)"/><g transform="translate(425.54 61.237)"><path class="a" d="M416.132,66.238A28.646,28.646,0,0,1,420.7,55.005l-2.319-2.344a31.871,31.871,0,0,0-5.54,13.577Z" transform="translate(-412.837 -39.875)"/><path class="a" d="M418.7,56.992a27.84,27.84,0,0,1,11.026-4.624v-3.3a31.028,31.028,0,0,0-13.335,5.583Z" transform="translate(-403.729 -49.072)"/><path class="a" d="M420.693,70.54a28.631,28.631,0,0,1-4.56-11.226h-3.3a31.85,31.85,0,0,0,5.536,13.574Z" transform="translate(-412.837 -22.826)"/><path class="a" d="M422.976,52.367A27.847,27.847,0,0,1,434,57l2.309-2.341a31.072,31.072,0,0,0-13.335-5.583Z" transform="translate(-386.854 -49.072)"/><path class="a" d="M429.731,69.117a27.862,27.862,0,0,1-11.03-4.628l-2.312,2.337a31.079,31.079,0,0,0,13.342,5.586Z" transform="translate(-403.735 -9.564)"/><path class="a" d="M428.067,55.009a28.624,28.624,0,0,1,4.564,11.229h3.292a31.864,31.864,0,0,0-5.536-13.577Z" transform="translate(-373.808 -39.875)"/><path class="a" d="M432.626,59.314a28.66,28.66,0,0,1-4.557,11.222l2.319,2.344a31.856,31.856,0,0,0,5.529-13.566Z" transform="translate(-373.803 -22.826)"/><path class="a" d="M434.009,64.488a27.809,27.809,0,0,1-11.033,4.631v3.3a31,31,0,0,0,13.342-5.59Z" transform="translate(-386.854 -9.567)"/></g><g transform="translate(416.833 52.423)"><path class="a" d="M413.72,70.707a37.3,37.3,0,0,1,7.125-17.421l-2.337-2.369a40.63,40.63,0,0,0-8.116,19.79Z" transform="translate(-410.393 -35.53)"/><path class="a" d="M417,57.143a36.369,36.369,0,0,1,17.136-7.218V46.6a39.629,39.629,0,0,0-19.47,8.187Z" transform="translate(-399.435 -46.598)"/><path class="a" d="M420.842,76.728a37.326,37.326,0,0,1-7.122-17.414h-3.327A40.619,40.619,0,0,0,418.505,79.1Z" transform="translate(-410.393 -14.012)"/><path class="a" d="M422.976,49.925a36.339,36.339,0,0,1,17.136,7.221l2.33-2.362A39.6,39.6,0,0,0,422.976,46.6Z" transform="translate(-378.147 -46.598)"/><path class="a" d="M440.123,66.225a36.381,36.381,0,0,1-17.147,7.225v3.327a39.583,39.583,0,0,0,19.477-8.194Z" transform="translate(-378.147 3.699)"/><path class="a" d="M434.141,73.447A36.32,36.32,0,0,1,417,66.226l-2.334,2.358a39.613,39.613,0,0,0,19.473,8.19Z" transform="translate(-399.438 3.701)"/><path class="a" d="M429.783,53.284A37.394,37.394,0,0,1,436.908,70.7h3.328a40.606,40.606,0,0,0-8.116-19.787Z" transform="translate(-360.704 -35.527)"/><path class="a" d="M436.9,59.314a37.354,37.354,0,0,1-7.118,17.407l2.337,2.369a40.626,40.626,0,0,0,8.109-19.776Z" transform="translate(-360.699 -14.012)"/></g></g></svg>