<svg xmlns="http://www.w3.org/2000/svg" width="43.924" height="51.498" viewBox="0 0 43.924 51.498">
    <path class="a"
          d="M3363.767,1356.879a3.029,3.029,0,1,1-3.029,3.029,3.03,3.03,0,0,1,3.029-3.029Zm15.147,45.44a3.029,3.029,0,1,1-3.029,3.029,3.03,3.03,0,0,1,3.029-3.029Zm-15.147,0a3.029,3.029,0,1,1-3.029,3.029,3.03,3.03,0,0,1,3.029-3.029Zm22.719-7.574a3.029,3.029,0,1,1-3.027,3.03,3.029,3.029,0,0,1,3.027-3.03Zm-15.146,0a3.029,3.029,0,1,1-3.031,3.03,3.029,3.029,0,0,1,3.031-3.03Zm22.721-7.573a3.029,3.029,0,1,1-3.03,3.029,3.03,3.03,0,0,1,3.03-3.029Zm-15.147,0a3.029,3.029,0,1,1-3.029,3.029,3.03,3.03,0,0,1,3.029-3.029Zm22.718-7.573a3.029,3.029,0,1,1-3.029,3.029,3.029,3.029,0,0,1,3.029-3.029Zm-15.146,0a3.029,3.029,0,1,1-3.027,3.029,3.029,3.029,0,0,1,3.027-3.029Zm7.575-7.573a3.029,3.029,0,1,1-3.03,3.029,3.029,3.029,0,0,1,3.03-3.029Zm-15.147,0a3.029,3.029,0,1,1-3.029,3.029,3.03,3.03,0,0,1,3.029-3.029Zm7.572-7.575a3.029,3.029,0,1,1-3.027,3.031,3.031,3.031,0,0,1,3.027-3.031Zm-15.146,0a3.029,3.029,0,1,1-3.031,3.031,3.03,3.03,0,0,1,3.031-3.031Zm7.574-7.572a3.029,3.029,0,1,1-3.029,3.029,3.03,3.03,0,0,1,3.029-3.029Z"
          transform="translate(-3360.738 -1356.879)"/>
</svg>