<svg xmlns="http://www.w3.org/2000/svg" width="35.832" height="13.5" viewBox="0 0 35.832 13.5">
    <path class="a"
          d="M2084.048,427.816a1.125,1.125,0,1,1-1.125,1.125,1.125,1.125,0,0,1,1.125-1.125Zm0,11.25a1.125,1.125,0,1,1-1.125,1.125,1.125,1.125,0,0,1,1.125-1.125Zm2.813-2.812a1.125,1.125,0,1,1-1.125,1.125,1.125,1.125,0,0,1,1.125-1.125Zm-2.813,0a1.125,1.125,0,1,1-1.125,1.125,1.125,1.125,0,0,1,1.125-1.125Zm5.625-2.812a1.125,1.125,0,1,1-1.125,1.125,1.125,1.125,0,0,1,1.125-1.125Zm-2.812,0a1.125,1.125,0,1,1-1.125,1.125,1.125,1.125,0,0,1,1.125-1.125Zm-2.813,0a1.125,1.125,0,1,1-1.125,1.125,1.125,1.125,0,0,1,1.125-1.125Zm-2.812,0a1.125,1.125,0,1,1-1.125,1.125,1.125,1.125,0,0,1,1.125-1.125Zm-2.813,0a1.125,1.125,0,1,1-1.125,1.125,1.125,1.125,0,0,1,1.125-1.125Zm-2.813,0a1.125,1.125,0,1,1-1.125,1.125,1.125,1.125,0,0,1,1.125-1.125Zm-2.812,0a1.125,1.125,0,1,1-1.125,1.125,1.125,1.125,0,0,1,1.125-1.125Zm-2.812,0a1.125,1.125,0,1,1-1.125,1.125,1.125,1.125,0,0,1,1.125-1.125Zm-2.643,0a1.125,1.125,0,1,1-1.125,1.125,1.125,1.125,0,0,1,1.125-1.125Zm-2.813,0a1.125,1.125,0,1,1-1.125,1.125,1.125,1.125,0,0,1,1.125-1.125Zm-2.813,0a1.125,1.125,0,1,1-1.124,1.125,1.125,1.125,0,0,1,1.124-1.125Zm-2.812,0a1.125,1.125,0,1,1-1.125,1.125,1.125,1.125,0,0,1,1.125-1.125Zm-2.812,0a1.125,1.125,0,1,1-1.125,1.125,1.125,1.125,0,0,1,1.125-1.125Zm30.77-2.812a1.125,1.125,0,1,1-1.125,1.125,1.125,1.125,0,0,1,1.125-1.125Zm-2.813,0a1.125,1.125,0,1,1-1.125,1.125,1.125,1.125,0,0,1,1.125-1.125Z"
          transform="translate(-2054.966 -427.816)"/>
</svg>