<svg xmlns="http://www.w3.org/2000/svg" width="45.039" height="51.473" viewBox="0 0 45.039 51.473">
    <defs>
        <style>.a{fill:#fff;}</style>
    </defs>
    <path class="a"
          d="M45.039,36.192V2.413A2.407,2.407,0,0,0,42.626,0H9.651A9.654,9.654,0,0,0,0,9.651v32.17a9.654,9.654,0,0,0,9.651,9.651H42.626a2.407,2.407,0,0,0,2.413-2.413V47.451a2.432,2.432,0,0,0-.895-1.88,22.419,22.419,0,0,1,0-7.51A2.4,2.4,0,0,0,45.039,36.192Zm-32.17-22.72a.6.6,0,0,1,.6-.6H34.784a.6.6,0,0,1,.6.6v2.011a.6.6,0,0,1-.6.6H13.471a.6.6,0,0,1-.6-.6Zm0,6.434a.6.6,0,0,1,.6-.6H34.784a.6.6,0,0,1,.6.6v2.011a.6.6,0,0,1-.6.6H13.471a.6.6,0,0,1-.6-.6ZM38.343,45.039H9.651a3.217,3.217,0,0,1,0-6.434H38.343A36.193,36.193,0,0,0,38.343,45.039Z"/>
</svg>