<svg xmlns="http://www.w3.org/2000/svg" width="64.63" height="48.055" viewBox="0 0 64.63 48.055"><defs><style>.a{fill:#fff;}</style></defs><path class="a" d="M36.747,0a3.314,3.314,0,1,1-3.316,3.312A3.314,3.314,0,0,1,36.747,0M11.893,41.427a3.314,3.314,0,1,1-3.316,3.316,3.315,3.315,0,0,1,3.316-3.316m8.283-8.286a3.314,3.314,0,1,1-3.312,3.316,3.317,3.317,0,0,1,3.312-3.316m-8.283,0a3.314,3.314,0,1,1-3.316,3.316,3.317,3.317,0,0,1,3.316-3.316m-8.286,0A3.314,3.314,0,1,1,.291,36.456a3.314,3.314,0,0,1,3.316-3.316m24.858-8.286a3.316,3.316,0,1,1-3.316,3.312,3.313,3.313,0,0,1,3.316-3.312m-8.289,0a3.316,3.316,0,1,1-3.312,3.312,3.316,3.316,0,0,1,3.312-3.312m-8.283,0a3.316,3.316,0,1,1-3.316,3.312,3.316,3.316,0,0,1,3.316-3.312m-8.286,0A3.316,3.316,0,1,1,.291,28.167a3.313,3.313,0,0,1,3.316-3.312m-8.286,0a3.316,3.316,0,0,1,3.316,3.312,3.317,3.317,0,0,1-3.316,3.319A3.315,3.315,0,0,1-8,28.167a3.314,3.314,0,0,1,3.316-3.312m41.427-8.286a3.316,3.316,0,1,1-3.316,3.316,3.317,3.317,0,0,1,3.316-3.316m-8.283,0a3.316,3.316,0,1,1-3.316,3.316,3.314,3.314,0,0,1,3.316-3.316m-8.289,0a3.316,3.316,0,1,1-3.312,3.316,3.317,3.317,0,0,1,3.312-3.316m-16.569,0A3.316,3.316,0,1,1,.291,19.884a3.314,3.314,0,0,1,3.316-3.316m-8.286,0a3.317,3.317,0,0,1,3.316,3.316A3.317,3.317,0,0,1-4.679,23.2,3.315,3.315,0,0,1-8,19.884a3.315,3.315,0,0,1,3.316-3.316m-8.286,0A3.317,3.317,0,0,1-9.65,19.884,3.317,3.317,0,0,1-12.965,23.2a3.317,3.317,0,0,1-3.316-3.316,3.317,3.317,0,0,1,3.316-3.316m58-8.283A3.314,3.314,0,1,1,41.718,11.6a3.314,3.314,0,0,1,3.316-3.312m-8.286,0A3.314,3.314,0,1,1,33.432,11.6a3.314,3.314,0,0,1,3.316-3.312m-8.283,0A3.314,3.314,0,1,1,25.149,11.6a3.311,3.311,0,0,1,3.316-3.312m-33.144,0A3.314,3.314,0,0,1-1.364,11.6a3.317,3.317,0,0,1-3.316,3.316A3.315,3.315,0,0,1-8,11.6,3.312,3.312,0,0,1-4.679,8.286" transform="translate(16.281)"/></svg>