<svg xmlns="http://www.w3.org/2000/svg" width="52.566" height="57" viewBox="0 0 52.566 57"><defs><style>.a{fill:#fff;}</style></defs><g transform="translate(9638.826)"><path class="a" d="M9.147,0a2.644,2.644,0,0,1,2.7,2.591,2.646,2.646,0,0,1-2.7,2.59,2.647,2.647,0,0,1-2.7-2.59A2.645,2.645,0,0,1,9.147,0M29.365,51.819a2.593,2.593,0,1,1-2.7,2.591,2.646,2.646,0,0,1,2.7-2.591m-6.739,0a2.593,2.593,0,1,1-2.7,2.591,2.645,2.645,0,0,1,2.7-2.591m-6.74,0a2.593,2.593,0,1,1-2.7,2.591,2.647,2.647,0,0,1,2.7-2.591m-6.739,0a2.593,2.593,0,1,1,0,5.181,2.593,2.593,0,1,1,0-5.181m-6.739,0a2.593,2.593,0,1,1,0,5.181,2.593,2.593,0,1,1,0-5.181m-6.74,0a2.646,2.646,0,0,1,2.7,2.591A2.644,2.644,0,0,1-4.332,57a2.644,2.644,0,0,1-2.7-2.59,2.646,2.646,0,0,1,2.7-2.591m-6.739,0A2.645,2.645,0,0,1-8.376,54.41,2.643,2.643,0,0,1-11.07,57a2.644,2.644,0,0,1-2.7-2.59,2.646,2.646,0,0,1,2.7-2.591m-6.74,0a2.644,2.644,0,0,1,2.7,2.591,2.642,2.642,0,0,1-2.7,2.59,2.644,2.644,0,0,1-2.7-2.59,2.646,2.646,0,0,1,2.7-2.591M29.365,45.34a2.594,2.594,0,1,1-2.7,2.591,2.646,2.646,0,0,1,2.7-2.591m-6.739,0a2.594,2.594,0,1,1-2.7,2.591,2.645,2.645,0,0,1,2.7-2.591m-6.74,0a2.594,2.594,0,1,1-2.7,2.591,2.647,2.647,0,0,1,2.7-2.591m-6.739,0a2.594,2.594,0,1,1,0,5.184,2.594,2.594,0,1,1,0-5.184m-6.739,0a2.594,2.594,0,1,1,0,5.184,2.594,2.594,0,1,1,0-5.184m-6.74,0a2.646,2.646,0,0,1,2.7,2.591,2.646,2.646,0,0,1-2.7,2.593,2.646,2.646,0,0,1-2.7-2.593,2.646,2.646,0,0,1,2.7-2.591m-6.739,0a2.645,2.645,0,0,1,2.694,2.591,2.645,2.645,0,0,1-2.694,2.593,2.647,2.647,0,0,1-2.7-2.593,2.646,2.646,0,0,1,2.7-2.591m-6.74,0a2.644,2.644,0,0,1,2.7,2.591,2.644,2.644,0,0,1-2.7,2.593,2.646,2.646,0,0,1-2.7-2.593,2.646,2.646,0,0,1,2.7-2.591m47.175-6.476a2.593,2.593,0,1,1-2.7,2.591,2.645,2.645,0,0,1,2.7-2.591m-6.739,0a2.593,2.593,0,1,1-2.7,2.591,2.644,2.644,0,0,1,2.7-2.591m-6.74,0a2.593,2.593,0,1,1-2.7,2.591,2.646,2.646,0,0,1,2.7-2.591m-6.739,0a2.593,2.593,0,1,1,0,5.181,2.593,2.593,0,1,1,0-5.181m-6.739,0a2.593,2.593,0,1,1,0,5.181,2.593,2.593,0,1,1,0-5.181m-6.74,0a2.645,2.645,0,0,1,2.7,2.591,2.646,2.646,0,0,1-2.7,2.59,2.646,2.646,0,0,1-2.7-2.59,2.645,2.645,0,0,1,2.7-2.591m-6.739,0a2.644,2.644,0,0,1,2.694,2.591,2.645,2.645,0,0,1-2.694,2.59,2.646,2.646,0,0,1-2.7-2.59,2.645,2.645,0,0,1,2.7-2.591m-6.74,0a2.643,2.643,0,0,1,2.7,2.591,2.644,2.644,0,0,1-2.7,2.59,2.646,2.646,0,0,1-2.7-2.59,2.645,2.645,0,0,1,2.7-2.591m47.175-6.48a2.593,2.593,0,1,1-2.7,2.591,2.645,2.645,0,0,1,2.7-2.591m-6.739,0a2.593,2.593,0,1,1-2.7,2.591,2.644,2.644,0,0,1,2.7-2.591m-6.74,0a2.593,2.593,0,1,1-2.7,2.591,2.646,2.646,0,0,1,2.7-2.591m-6.739,0a2.593,2.593,0,1,1,0,5.183,2.593,2.593,0,1,1,0-5.183m-6.739,0a2.593,2.593,0,1,1,0,5.183,2.593,2.593,0,1,1,0-5.183m-6.74,0a2.645,2.645,0,0,1,2.7,2.591,2.645,2.645,0,0,1-2.7,2.591,2.645,2.645,0,0,1-2.7-2.591,2.645,2.645,0,0,1,2.7-2.591m-6.739,0a2.644,2.644,0,0,1,2.694,2.591,2.644,2.644,0,0,1-2.694,2.591,2.645,2.645,0,0,1-2.7-2.591,2.645,2.645,0,0,1,2.7-2.591m-6.74,0a2.643,2.643,0,0,1,2.7,2.591,2.643,2.643,0,0,1-2.7,2.591,2.645,2.645,0,0,1-2.7-2.591,2.645,2.645,0,0,1,2.7-2.591m47.175-6.477a2.593,2.593,0,1,1-2.7,2.593,2.646,2.646,0,0,1,2.7-2.593m-6.739,0a2.593,2.593,0,1,1-2.7,2.593,2.645,2.645,0,0,1,2.7-2.593m-6.74,0a2.593,2.593,0,1,1-2.7,2.593,2.648,2.648,0,0,1,2.7-2.593m-6.739,0a2.593,2.593,0,1,1,0,5.183,2.593,2.593,0,1,1,0-5.183m-6.739,0a2.593,2.593,0,1,1,0,5.183,2.593,2.593,0,1,1,0-5.183m-6.74,0a2.646,2.646,0,0,1,2.7,2.593,2.646,2.646,0,0,1-2.7,2.59,2.646,2.646,0,0,1-2.7-2.59,2.646,2.646,0,0,1,2.7-2.593m-6.739,0A2.645,2.645,0,0,1-8.376,28.5a2.645,2.645,0,0,1-2.694,2.59,2.646,2.646,0,0,1-2.7-2.59,2.647,2.647,0,0,1,2.7-2.593m-6.74,0a2.644,2.644,0,0,1,2.7,2.593,2.644,2.644,0,0,1-2.7,2.59,2.646,2.646,0,0,1-2.7-2.59,2.646,2.646,0,0,1,2.7-2.593m47.175-6.477a2.593,2.593,0,1,1-2.7,2.591,2.644,2.644,0,0,1,2.7-2.591m-6.739,0a2.593,2.593,0,1,1-2.7,2.591,2.643,2.643,0,0,1,2.7-2.591m-6.74,0a2.593,2.593,0,1,1-2.7,2.591,2.645,2.645,0,0,1,2.7-2.591m-6.739,0a2.593,2.593,0,1,1,0,5.183,2.593,2.593,0,1,1,0-5.183m-13.479,0a2.644,2.644,0,0,1,2.7,2.591,2.646,2.646,0,0,1-2.7,2.591,2.646,2.646,0,0,1-2.7-2.591,2.644,2.644,0,0,1,2.7-2.591m-6.739,0a2.643,2.643,0,0,1,2.694,2.591,2.645,2.645,0,0,1-2.694,2.591,2.646,2.646,0,0,1-2.7-2.591,2.645,2.645,0,0,1,2.7-2.591m40.435-6.477a2.593,2.593,0,1,1-2.7,2.593,2.645,2.645,0,0,1,2.7-2.593m-6.739,0a2.593,2.593,0,1,1-2.7,2.593,2.644,2.644,0,0,1,2.7-2.593m-6.74,0a2.593,2.593,0,1,1-2.7,2.593,2.647,2.647,0,0,1,2.7-2.593m-6.739,0a2.593,2.593,0,1,1,0,5.181,2.593,2.593,0,1,1,0-5.181m-13.479,0a2.645,2.645,0,0,1,2.7,2.593,2.646,2.646,0,0,1-2.7,2.588,2.646,2.646,0,0,1-2.7-2.588,2.645,2.645,0,0,1,2.7-2.593m-6.739,0a2.644,2.644,0,0,1,2.694,2.593,2.644,2.644,0,0,1-2.694,2.588,2.646,2.646,0,0,1-2.7-2.588,2.646,2.646,0,0,1,2.7-2.593M15.886,6.476a2.646,2.646,0,0,1,2.7,2.591,2.7,2.7,0,0,1-5.392,0,2.644,2.644,0,0,1,2.7-2.591m-6.739,0a2.644,2.644,0,0,1,2.7,2.591,2.645,2.645,0,0,1-2.7,2.593,2.646,2.646,0,0,1-2.7-2.593,2.645,2.645,0,0,1,2.7-2.591M15.886,0a2.646,2.646,0,0,1,2.7,2.591,2.7,2.7,0,0,1-5.392,0A2.644,2.644,0,0,1,15.886,0" transform="translate(-9618.32)"/></g></svg>