<svg xmlns="http://www.w3.org/2000/svg" width="333" height="337.539" viewBox="0 0 333 337.539">
    <g transform="translate(-829.396 -1466.818)">
        <circle class="a" cx="7.929" cy="7.929" r="7.929" transform="translate(924.538 1466.818)"/>
        <circle class="a" cx="7.929" cy="7.929" r="7.929" transform="translate(956.253 1466.818)"/>
        <circle class="a" cx="7.929" cy="7.929" r="7.929" transform="translate(987.967 1466.818)"/>
        <circle class="a" cx="7.929" cy="7.929" r="7.929" transform="translate(1019.681 1466.818)"/>
        <circle class="a" cx="7.929" cy="7.929" r="7.929" transform="translate(1051.395 1466.818)"/>
        <circle class="a" cx="7.929" cy="7.929" r="7.929" transform="translate(892.824 1498.986)"/>
        <circle class="a" cx="7.929" cy="7.929" r="7.929" transform="translate(924.538 1498.986)"/>
        <circle class="a" cx="7.929" cy="7.929" r="7.929" transform="translate(956.253 1498.986)"/>
        <circle class="a" cx="7.929" cy="7.929" r="7.929" transform="translate(987.967 1498.986)"/>
        <circle class="a" cx="7.929" cy="7.929" r="7.929" transform="translate(1019.681 1498.986)"/>
        <circle class="a" cx="7.929" cy="7.929" r="7.929" transform="translate(1051.395 1498.986)"/>
        <circle class="a" cx="7.929" cy="7.929" r="7.929" transform="translate(1083.11 1498.986)"/>
        <circle class="a" cx="7.929" cy="7.929" r="7.929" transform="translate(1114.824 1498.986)"/>
        <circle class="a" cx="7.929" cy="7.929" r="7.929" transform="translate(861.11 1531.155)"/>
        <circle class="a" cx="7.929" cy="7.929" r="7.929" transform="translate(892.824 1531.155)"/>
        <circle class="a" cx="7.929" cy="7.929" r="7.929" transform="translate(924.538 1531.155)"/>
        <circle class="a" cx="7.929" cy="7.929" r="7.929" transform="translate(956.253 1531.155)"/>
        <circle class="a" cx="7.929" cy="7.929" r="7.929" transform="translate(987.967 1531.155)"/>
        <circle class="a" cx="7.929" cy="7.929" r="7.929" transform="translate(1019.681 1531.155)"/>
        <circle class="a" cx="7.929" cy="7.929" r="7.929" transform="translate(1051.395 1531.155)"/>
        <circle class="a" cx="7.929" cy="7.929" r="7.929" transform="translate(1083.11 1531.155)"/>
        <circle class="a" cx="7.929" cy="7.929" r="7.929" transform="translate(1114.824 1531.155)"/>
        <circle class="a" cx="7.929" cy="7.929" r="7.929" transform="translate(829.396 1563.323)"/>
        <circle class="a" cx="7.929" cy="7.929" r="7.929" transform="translate(861.11 1563.323)"/>
        <circle class="a" cx="7.929" cy="7.929" r="7.929" transform="translate(892.824 1563.323)"/>
        <circle class="a" cx="7.929" cy="7.929" r="7.929" transform="translate(924.538 1563.323)"/>
        <circle class="a" cx="7.929" cy="7.929" r="7.929" transform="translate(956.253 1563.323)"/>
        <circle class="a" cx="7.929" cy="7.929" r="7.929" transform="translate(987.967 1563.323)"/>
        <circle class="a" cx="7.929" cy="7.929" r="7.929" transform="translate(1019.681 1563.323)"/>
        <circle class="a" cx="7.929" cy="7.929" r="7.929" transform="translate(1051.395 1563.323)"/>
        <circle class="a" cx="7.929" cy="7.929" r="7.929" transform="translate(1083.11 1563.323)"/>
        <circle class="a" cx="7.929" cy="7.929" r="7.929" transform="translate(1114.824 1563.323)"/>
        <circle class="a" cx="7.929" cy="7.929" r="7.929" transform="translate(1146.538 1563.323)"/>
        <circle class="a" cx="7.929" cy="7.929" r="7.929" transform="translate(829.396 1595.491)"/>
        <circle class="a" cx="7.929" cy="7.929" r="7.929" transform="translate(861.11 1595.491)"/>
        <circle class="a" cx="7.929" cy="7.929" r="7.929" transform="translate(892.824 1595.491)"/>
        <circle class="a" cx="7.929" cy="7.929" r="7.929" transform="translate(924.538 1595.491)"/>
        <circle class="a" cx="7.929" cy="7.929" r="7.929" transform="translate(956.253 1595.491)"/>
        <circle class="a" cx="7.929" cy="7.929" r="7.929" transform="translate(987.967 1595.491)"/>
        <circle class="a" cx="7.929" cy="7.929" r="7.929" transform="translate(1019.681 1595.491)"/>
        <circle class="a" cx="7.929" cy="7.929" r="7.929" transform="translate(1051.395 1595.491)"/>
        <circle class="a" cx="7.929" cy="7.929" r="7.929" transform="translate(1083.11 1595.491)"/>
        <circle class="a" cx="7.929" cy="7.929" r="7.929" transform="translate(1114.824 1595.491)"/>
        <circle class="a" cx="7.929" cy="7.929" r="7.929" transform="translate(1146.538 1595.491)"/>
        <circle class="a" cx="7.929" cy="7.929" r="7.929" transform="translate(829.396 1627.659)"/>
        <circle class="a" cx="7.929" cy="7.929" r="7.929" transform="translate(861.11 1627.659)"/>
        <circle class="a" cx="7.929" cy="7.929" r="7.929" transform="translate(892.824 1627.659)"/>
        <circle class="a" cx="7.929" cy="7.929" r="7.929" transform="translate(924.538 1627.659)"/>
        <circle class="a" cx="7.929" cy="7.929" r="7.929" transform="translate(956.253 1627.659)"/>
        <circle class="a" cx="7.929" cy="7.929" r="7.929" transform="translate(987.967 1627.659)"/>
        <circle class="a" cx="7.929" cy="7.929" r="7.929" transform="translate(1019.681 1627.659)"/>
        <circle class="a" cx="7.929" cy="7.929" r="7.929" transform="translate(1051.395 1627.659)"/>
        <circle class="a" cx="7.929" cy="7.929" r="7.929" transform="translate(1083.11 1627.659)"/>
        <circle class="a" cx="7.929" cy="7.929" r="7.929" transform="translate(1114.824 1627.659)"/>
        <circle class="a" cx="7.929" cy="7.929" r="7.929" transform="translate(1146.538 1627.659)"/>
        <circle class="a" cx="7.929" cy="7.929" r="7.929" transform="translate(829.396 1659.828)"/>
        <circle class="a" cx="7.929" cy="7.929" r="7.929" transform="translate(861.11 1659.828)"/>
        <circle class="a" cx="7.929" cy="7.929" r="7.929" transform="translate(892.824 1659.828)"/>
        <circle class="a" cx="7.929" cy="7.929" r="7.929" transform="translate(924.538 1659.828)"/>
        <circle class="a" cx="7.929" cy="7.929" r="7.929" transform="translate(956.253 1659.828)"/>
        <circle class="a" cx="7.929" cy="7.929" r="7.929" transform="translate(987.967 1659.828)"/>
        <circle class="a" cx="7.929" cy="7.929" r="7.929" transform="translate(1019.681 1659.828)"/>
        <circle class="a" cx="7.929" cy="7.929" r="7.929" transform="translate(1051.395 1659.828)"/>
        <circle class="a" cx="7.929" cy="7.929" r="7.929" transform="translate(1083.11 1659.828)"/>
        <circle class="a" cx="7.929" cy="7.929" r="7.929" transform="translate(1114.824 1659.828)"/>
        <circle class="a" cx="7.929" cy="7.929" r="7.929" transform="translate(1146.538 1659.828)"/>
        <circle class="a" cx="7.929" cy="7.929" r="7.929" transform="translate(829.396 1691.996)"/>
        <circle class="a" cx="7.929" cy="7.929" r="7.929" transform="translate(861.11 1691.996)"/>
        <circle class="a" cx="7.929" cy="7.929" r="7.929" transform="translate(892.824 1691.996)"/>
        <circle class="a" cx="7.929" cy="7.929" r="7.929" transform="translate(924.538 1691.996)"/>
        <circle class="a" cx="7.929" cy="7.929" r="7.929" transform="translate(956.253 1691.996)"/>
        <circle class="a" cx="7.929" cy="7.929" r="7.929" transform="translate(987.967 1691.996)"/>
        <circle class="a" cx="7.929" cy="7.929" r="7.929" transform="translate(1019.681 1691.996)"/>
        <circle class="a" cx="7.929" cy="7.929" r="7.929" transform="translate(1051.395 1691.996)"/>
        <circle class="a" cx="7.929" cy="7.929" r="7.929" transform="translate(1083.11 1691.996)"/>
        <circle class="a" cx="7.929" cy="7.929" r="7.929" transform="translate(1114.824 1691.996)"/>
        <circle class="a" cx="7.929" cy="7.929" r="7.929" transform="translate(1146.538 1691.996)"/>
        <circle class="a" cx="7.929" cy="7.929" r="7.929" transform="translate(829.396 1724.164)"/>
        <circle class="a" cx="7.929" cy="7.929" r="7.929" transform="translate(861.11 1724.164)"/>
        <circle class="a" cx="7.929" cy="7.929" r="7.929" transform="translate(892.824 1724.164)"/>
        <circle class="a" cx="7.929" cy="7.929" r="7.929" transform="translate(924.538 1724.164)"/>
        <circle class="a" cx="7.929" cy="7.929" r="7.929" transform="translate(956.253 1724.164)"/>
        <circle class="a" cx="7.929" cy="7.929" r="7.929" transform="translate(987.967 1724.164)"/>
        <circle class="a" cx="7.929" cy="7.929" r="7.929" transform="translate(1019.681 1724.164)"/>
        <circle class="a" cx="7.929" cy="7.929" r="7.929" transform="translate(1051.395 1724.164)"/>
        <circle class="a" cx="7.929" cy="7.929" r="7.929" transform="translate(1083.11 1724.164)"/>
        <circle class="a" cx="7.929" cy="7.929" r="7.929" transform="translate(1114.824 1724.164)"/>
        <circle class="a" cx="7.929" cy="7.929" r="7.929" transform="translate(829.396 1756.332)"/>
        <circle class="a" cx="7.929" cy="7.929" r="7.929" transform="translate(861.11 1756.332)"/>
        <circle class="a" cx="7.929" cy="7.929" r="7.929" transform="translate(892.824 1756.332)"/>
        <circle class="a" cx="7.929" cy="7.929" r="7.929" transform="translate(924.538 1756.332)"/>
        <circle class="a" cx="7.929" cy="7.929" r="7.929" transform="translate(956.253 1756.332)"/>
        <circle class="a" cx="7.929" cy="7.929" r="7.929" transform="translate(987.967 1756.332)"/>
        <circle class="a" cx="7.929" cy="7.929" r="7.929" transform="translate(1019.681 1756.332)"/>
        <circle class="a" cx="7.929" cy="7.929" r="7.929" transform="translate(1051.395 1756.332)"/>
        <circle class="a" cx="7.929" cy="7.929" r="7.929" transform="translate(1083.11 1756.332)"/>
        <circle class="a" cx="7.929" cy="7.929" r="7.929" transform="translate(829.396 1788.5)"/>
        <circle class="a" cx="7.929" cy="7.929" r="7.929" transform="translate(861.11 1788.5)"/>
        <circle class="a" cx="7.929" cy="7.929" r="7.929" transform="translate(892.824 1788.5)"/>
        <circle class="a" cx="7.929" cy="7.929" r="7.929" transform="translate(924.538 1788.5)"/>
        <circle class="a" cx="7.929" cy="7.929" r="7.929" transform="translate(956.253 1788.5)"/>
        <circle class="a" cx="7.929" cy="7.929" r="7.929" transform="translate(987.967 1788.5)"/>
        <circle class="a" cx="7.929" cy="7.929" r="7.929" transform="translate(1019.681 1788.5)"/>
        <circle class="a" cx="7.929" cy="7.929" r="7.929" transform="translate(1051.395 1788.5)"/>
    </g>
</svg>