<svg xmlns="http://www.w3.org/2000/svg" width="54.952" height="32.979" viewBox="0 0 54.952 32.979">
  <g id="eye_icon" transform="translate(-3006.55 -740.836)">
    <path id="Tracé_68" data-name="Tracé 68" d="M3030.565,750.651a3.03,3.03,0,1,0,3.029,3.029A3.03,3.03,0,0,0,3030.565,750.651Z" fill="#fff" fill-rule="evenodd"/>
    <path id="Tracé_69" data-name="Tracé 69" d="M3038.137,758.226a3.029,3.029,0,1,0,3.031,3.026A3.026,3.026,0,0,0,3038.137,758.226Z" fill="#fff" fill-rule="evenodd"/>
    <path id="Tracé_70" data-name="Tracé 70" d="M3030.565,758.226a3.029,3.029,0,1,0,3.029,3.026A3.029,3.029,0,0,0,3030.565,758.226Z" fill="#fff" fill-rule="evenodd"/>
    <path id="Tracé_71" data-name="Tracé 71" d="M3038.137,750.651a3.03,3.03,0,1,0,3.031,3.029A3.027,3.027,0,0,0,3038.137,750.651Z" fill="#fff" fill-rule="evenodd"/>
    <path id="Tracé_72" data-name="Tracé 72" d="M3030.529,746.893a3.029,3.029,0,1,0-3.03-3.027A3.028,3.028,0,0,0,3030.529,746.893Z" fill="#fff" fill-rule="evenodd"/>
    <path id="Tracé_73" data-name="Tracé 73" d="M3022.956,740.836a3.029,3.029,0,1,0,3.03,3.03A3.03,3.03,0,0,0,3022.956,740.836Z" fill="#fff" fill-rule="evenodd"/>
    <path id="Tracé_74" data-name="Tracé 74" d="M3038.1,746.893a3.029,3.029,0,1,0-3.03-3.027A3.028,3.028,0,0,0,3038.1,746.893Z" fill="#fff" fill-rule="evenodd"/>
    <path id="Tracé_75" data-name="Tracé 75" d="M3045.676,746.893a3.029,3.029,0,1,0-3.03-3.027A3.027,3.027,0,0,0,3045.676,746.893Z" fill="#fff" fill-rule="evenodd"/>
    <path id="Tracé_76" data-name="Tracé 76" d="M3015.383,754.469a3.03,3.03,0,1,0-3.03-3.03A3.028,3.028,0,0,0,3015.383,754.469Z" fill="#fff" fill-rule="evenodd"/>
    <path id="Tracé_77" data-name="Tracé 77" d="M3053.249,754.469a3.03,3.03,0,1,0-3.03-3.03A3.03,3.03,0,0,0,3053.249,754.469Z" fill="#fff" fill-rule="evenodd"/>
    <path id="Tracé_78" data-name="Tracé 78" d="M3015.382,760.182a3.03,3.03,0,1,0,3.029,3.031A3.031,3.031,0,0,0,3015.382,760.182Z" fill="#fff" fill-rule="evenodd"/>
    <path id="Tracé_79" data-name="Tracé 79" d="M3053.248,760.182a3.03,3.03,0,1,0,3.03,3.031A3.029,3.029,0,0,0,3053.248,760.182Z" fill="#fff" fill-rule="evenodd"/>
    <path id="Tracé_80" data-name="Tracé 80" d="M3022.954,767.758a3.029,3.029,0,1,0,3.031,3.027A3.028,3.028,0,0,0,3022.954,767.758Z" fill="#fff" fill-rule="evenodd"/>
    <path id="Tracé_81" data-name="Tracé 81" d="M3030.528,767.758a3.029,3.029,0,1,0,3.03,3.027A3.03,3.03,0,0,0,3030.528,767.758Z" fill="#fff" fill-rule="evenodd"/>
    <path id="Tracé_82" data-name="Tracé 82" d="M3045.675,767.758a3.029,3.029,0,1,0,3.03,3.027A3.029,3.029,0,0,0,3045.675,767.758Z" fill="#fff" fill-rule="evenodd"/>
    <path id="Tracé_83" data-name="Tracé 83" d="M3038.1,767.758a3.029,3.029,0,1,0,3.029,3.027A3.028,3.028,0,0,0,3038.1,767.758Z" fill="#fff" fill-rule="evenodd"/>
    <path id="Tracé_84" data-name="Tracé 84" d="M3009.579,754.079a3.03,3.03,0,1,0,3.03,3.031A3.031,3.031,0,0,0,3009.579,754.079Z" fill="#fff" fill-rule="evenodd"/>
    <path id="Tracé_85" data-name="Tracé 85" d="M3058.473,754.079a3.03,3.03,0,1,0,3.029,3.031A3.03,3.03,0,0,0,3058.473,754.079Z" fill="#fff" fill-rule="evenodd"/>
  </g>
</svg>
