<svg xmlns="http://www.w3.org/2000/svg" width="62.635" height="38.545" viewBox="0 0 62.635 38.545">
    <g transform="translate(-3014.152 -1449.518)">
        <path class="a" d="M3070.376,1472.236a3.213,3.213,0,1,1-3.213,3.214,3.215,3.215,0,0,1,3.213-3.214Z"
              transform="translate(3.197 1.37)"/>
        <path class="a" d="M3070.376,1464.665a3.213,3.213,0,1,1-3.213,3.214,3.214,3.214,0,0,1,3.213-3.214Z"
              transform="translate(3.197 0.914)"/>
        <path class="a" d="M3070.376,1457.091a3.212,3.212,0,1,1-3.213,3.212,3.214,3.214,0,0,1,3.213-3.212Z"
              transform="translate(3.197 0.457)"/>
        <path class="a"
              d="M3017.363,1449.518a3.213,3.213,0,1,1-3.211,3.213,3.212,3.212,0,0,1,3.211-3.213Zm56.21,32.12a3.213,3.213,0,1,1-3.213,3.214,3.214,3.214,0,0,1,3.213-3.214Zm-8.03,0a3.213,3.213,0,1,1-3.213,3.214,3.212,3.212,0,0,1,3.213-3.214Zm-8.03,0a3.213,3.213,0,1,1-3.214,3.214,3.214,3.214,0,0,1,3.214-3.214Zm-8.031,0a3.213,3.213,0,1,1-3.212,3.214,3.212,3.212,0,0,1,3.212-3.214Zm-8.03,0a3.213,3.213,0,1,1-3.211,3.214,3.212,3.212,0,0,1,3.211-3.214Zm-8.031,0a3.213,3.213,0,1,1-3.212,3.214,3.211,3.211,0,0,1,3.212-3.214Zm-8.03,0a3.213,3.213,0,1,1-3.211,3.214,3.212,3.212,0,0,1,3.211-3.214Zm-8.03,0a3.213,3.213,0,1,1-3.211,3.214,3.212,3.212,0,0,1,3.211-3.214Zm0-8.032a3.213,3.213,0,1,1-3.211,3.214,3.213,3.213,0,0,1,3.211-3.214Zm0-8.027a3.213,3.213,0,1,1-3.211,3.214,3.211,3.211,0,0,1,3.211-3.214Zm0-8.031a3.212,3.212,0,1,1-3.211,3.212,3.211,3.211,0,0,1,3.211-3.212Zm56.21-8.03a3.213,3.213,0,1,1-3.213,3.213,3.214,3.214,0,0,1,3.213-3.213Zm-8.03,0a3.213,3.213,0,1,1-3.213,3.213,3.212,3.212,0,0,1,3.213-3.213Zm-8.03,0a3.213,3.213,0,1,1-3.214,3.213,3.214,3.214,0,0,1,3.214-3.213Zm-8.031,0a3.213,3.213,0,1,1-3.212,3.213,3.211,3.211,0,0,1,3.212-3.213Zm-8.03,0a3.213,3.213,0,1,1-3.211,3.213,3.211,3.211,0,0,1,3.211-3.213Zm-8.031,0a3.213,3.213,0,1,1-3.212,3.213,3.211,3.211,0,0,1,3.212-3.213Zm-8.03,0a3.213,3.213,0,1,1-3.211,3.213,3.212,3.212,0,0,1,3.211-3.213Z"
              transform="translate(0)"/>
        <path class="a" d="M3052.382,1466.379a3.213,3.213,0,1,1-4.412-1.087,3.214,3.214,0,0,1,4.412,1.087Z"
              transform="translate(1.946 0.923)"/>
        <path class="a" d="M3058.86,1462.462a3.213,3.213,0,1,1-4.412-1.087,3.213,3.213,0,0,1,4.412,1.087Z"
              transform="translate(2.337 0.687)"/>
        <path class="a" d="M3065.343,1458.543a3.212,3.212,0,1,1-4.41-1.087,3.213,3.213,0,0,1,4.41,1.087Z"
              transform="translate(2.728 0.451)"/>
        <path class="a" d="M3035.338,1466.379a3.213,3.213,0,1,1,1.088,4.412,3.214,3.214,0,0,1-1.088-4.412Z"
              transform="translate(1.25 0.923)"/>
        <path class="a" d="M3040.664,1472.685a3.213,3.213,0,1,1,3.193,3.233,3.214,3.214,0,0,1-3.193-3.233Z"
              transform="translate(1.6 1.205)"/>
        <path class="a" d="M3028.859,1462.462a3.213,3.213,0,1,1,1.088,4.412,3.213,3.213,0,0,1-1.088-4.412Z"
              transform="translate(0.859 0.687)"/>
        <path class="a" d="M3022.377,1458.543a3.213,3.213,0,1,1,1.087,4.411,3.213,3.213,0,0,1-1.087-4.411Z"
              transform="translate(0.468 0.451)"/>
    </g>
</svg>