<?xml version="1.0" encoding="utf-8"?>
<!-- Generator: Adobe Illustrator 25.1.0, SVG Export Plug-In . SVG Version: 6.00 Build 0)  -->
<svg version="1.1" id="Calque_1" xmlns="http://www.w3.org/2000/svg" xmlns:xlink="http://www.w3.org/1999/xlink" x="0px" y="0px"
	 viewBox="0 0 81.2 81.3" style="enable-background:new 0 0 81.2 81.3;" xml:space="preserve">
<style type="text/css">
	.st0{fill:#395999;}
</style>
<g id="Calque_2_1_">
	<g id="Calque_1-2">
		<path class="st0" d="M70.1,0H10.9C4.9,0,0,4.9,0,10.9v59.3c0,6,4.9,10.9,10.9,10.9h29.2v-29h-7.5c-1,0-1.8-0.8-1.8-1.8
			c0,0,0,0,0,0l0,0V41c0-1,0.8-1.8,1.8-1.8c0,0,0,0,0,0h7.5v-9c0-10.5,6.4-16.2,15.8-16.2h7.7c1,0,1.8,0.8,1.8,1.8c0,0,0,0,0,0l0,0
			v7.9c0,1-0.8,1.8-1.8,1.8c0,0,0,0,0,0h-4.7c-5.1,0-6.1,2.4-6.1,6v7.8H64c1,0,1.8,0.8,1.8,1.8c0,0,0,0,0,0l0,0v0.2l-1.1,9.4
			c-0.1,0.9-0.9,1.6-1.8,1.6h-10v29h17.4c6,0,10.9-4.9,10.9-10.9V11C81.2,4.9,76.2,0,70.1,0C70.1,0,70.1,0,70.1,0z"/>
	</g>
</g>
</svg>
