<?xml version="1.0" encoding="utf-8"?>
<!-- Generator: Adobe Illustrator 25.1.0, SVG Export Plug-In . SVG Version: 6.00 Build 0)  -->
<svg version="1.1" id="Calque_1" xmlns="http://www.w3.org/2000/svg" xmlns:xlink="http://www.w3.org/1999/xlink" x="0px" y="0px"
	 viewBox="0 0 10338 1474" style="enable-background:new 0 0 10338 1474;" xml:space="preserve">
<style type="text/css">
	.st0{fill:#FFFFFF;}
	.st1{fill:#E6007F;}
	.st2{fill:#CAD400;}
	.st3{fill:#00A1D4;}
</style>
<g>
	<path class="st0" d="M6331.6,671.5c-4.7,8-2.1,18.4,5.9,23.1c8.1,4.7,18.4,2.1,23.2-6c4.7-8,2.1-18.4-6-23.1
		C6346.7,660.8,6336.3,663.4,6331.6,671.5z"/>
	<path class="st0" d="M6702.3,689.6c-5.4,9.2-2.4,21.1,6.9,26.5c9.2,5.4,21.1,2.4,26.5-6.8c5.4-9.2,2.4-21.1-6.8-26.5
		C6719.6,677.3,6707.7,680.4,6702.3,689.6z"/>
	<path class="st0" d="M6862.7,732.3c-6.7-4-15.4-1.7-19.4,5c-4,6.7-1.7,15.4,5,19.4c6.7,3.9,15.4,1.7,19.4-5
		C6871.7,744.9,6869.5,736.2,6862.7,732.3z"/>
	<path class="st0" d="M6350.9,1200.9c6.7,3.9,15.4,1.7,19.4-5c4-6.7,1.7-15.4-5-19.3c-6.7-4-15.4-1.7-19.4,5
		C6342,1188.2,6344.2,1196.9,6350.9,1200.9z"/>
	<path class="st0" d="M6579.8,550.9c-9.4-5.5-21.5-2.4-27.1,7c-5.5,9.4-2.4,21.5,7,27.1c9.4,5.5,21.5,2.4,27-7
		C6592.3,568.5,6589.2,556.4,6579.8,550.9z"/>
	<path class="st0" d="M5802.1,1023.1c4-6.7,1.7-15.4-5-19.3c-6.7-3.9-15.4-1.7-19.3,5c-4,6.7-1.7,15.4,5,19.3
		C5789.4,1032.1,5798.1,1029.9,5802.1,1023.1z"/>
	<path class="st0" d="M6355.3,477.3c12.4,7.3,28.4,3.1,35.8-9.3c7.3-12.4,3.2-28.4-9.2-35.7c-12.4-7.3-28.4-3.2-35.8,9.2
		C6338.8,453.9,6342.9,469.9,6355.3,477.3z"/>
	<path class="st0" d="M6534.6,709.9c-18.6-10.9-42.6-4.8-53.6,13.9c-11,18.6-4.8,42.6,13.9,53.6c18.6,11,42.6,4.8,53.6-13.9
		C6559.4,744.9,6553.2,720.8,6534.6,709.9z"/>
	<path class="st0" d="M5805.2,624.6c-10.3,17.5-4.5,40.1,13,50.4c17.5,10.3,40.1,4.5,50.4-13c10.3-17.5,4.5-40.1-13-50.4
		C5838.1,601.3,5815.6,607.1,5805.2,624.6z"/>
	<path class="st0" d="M6039.5,536.2c4.5-7.6,1.9-17.3-5.6-21.8c-7.6-4.4-17.3-1.9-21.8,5.7c-4.5,7.6-1.9,17.3,5.6,21.8
		C6025.3,546.3,6035.1,543.8,6039.5,536.2z"/>
	<path class="st0" d="M7315.7,497c-12.3-7.3-28.2-3.2-35.4,9.2c-7.3,12.3-3.2,28.2,9.1,35.4c12.4,7.3,28.2,3.2,35.5-9.1
		C7332.1,520.1,7328,504.3,7315.7,497z"/>
	<path class="st0" d="M7545.8,495.1c-6.7-4-15.4-1.7-19.4,5c-4,6.7-1.7,15.4,5,19.4c6.7,3.9,15.4,1.7,19.4-5
		C7554.8,507.8,7552.5,499.1,7545.8,495.1z"/>
	<path class="st0" d="M7035.1,792.1c-9.4-5.5-21.5-2.4-27.1,7c-5.5,9.4-2.4,21.5,7,27.1c9.4,5.5,21.5,2.4,27-7
		C7047.6,809.8,7044.5,797.7,7035.1,792.1z"/>
	<path class="st0" d="M7246.2,773.6c24.4,14.4,55.9,6.2,70.3-18.1c14.4-24.4,6.3-55.8-18.2-70.3c-24.4-14.4-55.9-6.3-70.3,18.1
		C7213.7,727.8,7221.8,759.3,7246.2,773.6z"/>
	<path class="st0" d="M6896.4,476.6c-9.3-5.5-21.3-2.4-26.8,6.9c-5.5,9.3-2.4,21.3,6.9,26.8c9.3,5.5,21.3,2.4,26.8-7
		C6908.8,494,6905.7,482,6896.4,476.6z"/>
	<path class="st0" d="M6531.7,1046.9c-11,18.6-4.8,42.6,13.9,53.6c18.6,11,42.6,4.8,53.6-13.9c11-18.6,4.8-42.7-13.9-53.6
		C6566.7,1022.1,6542.7,1028.2,6531.7,1046.9z"/>
	<path class="st0" d="M6143.8,1004.2c6.7-11.4,2.9-26.1-8.5-32.8c-11.4-6.7-26-2.9-32.8,8.5c-6.7,11.4-2.9,26,8.5,32.8
		C6122.5,1019.3,6137.1,1015.5,6143.8,1004.2z"/>
	<path class="st0" d="M6084.5,838.4c-9.2-5.4-21.1-2.4-26.5,6.8c-5.4,9.2-2.4,21.1,6.8,26.5c9.2,5.4,21.1,2.4,26.5-6.9
		C6096.8,855.7,6093.7,843.8,6084.5,838.4z"/>
	<path class="st0" d="M7696.5,572.9c-17.3,10.6-23,33.8-12.9,51.8c10.2,18,32.4,24,49.7,13.4c17.2-10.6,23-33.8,12.8-51.8
		C7735.9,568.3,7713.7,562.3,7696.5,572.9z"/>
	<path class="st0" d="M7490,575.2c-4.7-8.3-14.9-11-22.8-6.1c-7.9,4.9-10.5,15.5-5.8,23.7c4.6,8.2,14.9,11,22.8,6.1
		C7492,594.1,7494.7,583.4,7490,575.2z"/>
	<path class="st0" d="M7568.9,576.4c-9.3,5.7-12.3,18.1-6.9,27.7c5.4,9.6,17.3,12.8,26.5,7.2c9.2-5.7,12.3-18.1,6.9-27.7
		C7590,574,7578.1,570.8,7568.9,576.4z"/>
	<path class="st0" d="M7614.5,349.5c-13.4,8.2-17.9,26.3-10,40.3c7.9,14,25.2,18.7,38.7,10.4c13.5-8.2,17.9-26.3,10-40.3
		C7645.2,346,7627.9,341.3,7614.5,349.5z"/>
	<path class="st0" d="M7978.2,682.8c-13.5,8.2-17.9,26.3-10,40.3c7.9,14,25.2,18.7,38.7,10.4c13.4-8.3,17.9-26.3,10-40.3
		C8008.9,679.2,7991.6,674.5,7978.2,682.8z"/>
	<path class="st0" d="M7823.5,825.6c8.7-5.4,11.6-17,6.5-26.1c-5.1-9-16.4-12.1-25.1-6.7c-8.7,5.4-11.6,17-6.4,26.1
		C7803.6,827.9,7814.8,830.9,7823.5,825.6z"/>
	<path class="st0" d="M7550.8,1050.3c-8.7,5.3-11.6,17-6.5,26.1s16.3,12.1,25,6.7c8.7-5.3,11.6-17,6.5-26.1
		C7570.7,1048,7559.5,1045,7550.8,1050.3z"/>
	<path class="st0" d="M7996.4,939.1c-15.4,9.4-20.5,30.1-11.4,46.1c9.1,16,28.9,21.4,44.2,11.9c15.4-9.4,20.5-30.1,11.4-46.1
		C8031.6,934.9,8011.8,929.6,7996.4,939.1z"/>
	<path class="st0" d="M7960.9,418.7c7.8,13.8,24.9,18.4,38.1,10.3c13.3-8.1,17.7-25.9,9.8-39.7c-7.8-13.8-24.9-18.4-38.1-10.3
		C7957.5,387.1,7953.1,404.9,7960.9,418.7z"/>
	<path class="st0" d="M8058.8,776.8c-11.1,6.8-14.8,21.7-8.2,33.2c6.5,11.6,20.8,15.4,31.8,8.6c11.1-6.8,14.8-21.7,8.3-33.2
		C8084.2,773.9,8069.9,770,8058.8,776.8z"/>
	<path class="st0" d="M5804.6,388.5c-13.8-8.1-31.6-3.6-39.7,10.3c-8.1,13.8-3.5,31.6,10.3,39.7c13.8,8.1,31.6,3.5,39.7-10.3
		C5823,414.4,5818.4,396.6,5804.6,388.5z"/>
	<path class="st0" d="M8235.8,547.9c13.8,8.1,31.6,3.5,39.7-10.3c8.2-13.9,3.5-31.6-10.3-39.8c-13.8-8.1-31.6-3.6-39.7,10.3
		C8217.3,522,8221.9,539.8,8235.8,547.9z"/>
	<path class="st0" d="M6911,1092.9c9.1-5.6,12.1-17.8,6.7-27.2c-5.3-9.5-17-12.6-26.1-7c-9.1,5.6-12.1,17.8-6.7,27.2
		C6890.3,1095.3,6902,1098.5,6911,1092.9z"/>
	<path class="st0" d="M7936.4,234.3c-12.8,7.9-17,25-9.5,38.3c7.5,13.3,23.9,17.7,36.7,9.9c12.7-7.8,17-24.9,9.4-38.2
		C7965.5,230.9,7949.1,226.4,7936.4,234.3z"/>
	<path class="st0" d="M6212.9,851.6c8.4-5.2,11.2-16.4,6.3-25.2c-5-8.8-15.8-11.7-24.2-6.6c-8.4,5.2-11.2,16.4-6.2,25.2
		C6193.7,853.8,6204.5,856.7,6212.9,851.6z"/>
	<path class="st1" d="M5585.8,969.7c15.9,27,50.6,35.9,77.6,20c26.9-15.9,35.9-50.6,20.1-77.6c-15.9-27-50.6-35.9-77.6-20
		C5578.8,908,5569.9,942.7,5585.8,969.7z"/>
	<path class="st2" d="M5624.2,748.1c-15.4,9.1-20.5,29-11.5,44.4c9.1,15.4,28.9,20.5,44.4,11.4c15.4-9.1,20.6-29,11.5-44.4
		C5659.5,744.1,5639.7,739,5624.2,748.1z"/>
	<path class="st3" d="M5633.3,514.1c-27.7,16.3-36.9,52.1-20.6,79.8c16.3,27.7,52,36.9,79.7,20.6c27.7-16.3,36.9-52,20.6-79.7
		C5696.7,507,5661.1,497.8,5633.3,514.1z"/>
	<path class="st2" d="M6186.5,435.8c-16.4,9.6-21.8,30.7-12.1,47.1c9.6,16.4,30.7,21.8,47,12.2c16.4-9.6,21.8-30.7,12.1-47
		C6223.9,431.6,6202.8,426.1,6186.5,435.8z"/>
	<path class="st3" d="M5835.1,1171.5c27.8-16.4,37-52.1,20.7-79.9c-16.4-27.8-52.2-37-79.9-20.6c-27.8,16.4-37,52.2-20.6,79.9
		C5771.5,1178.6,5807.3,1187.9,5835.1,1171.5z"/>
	<path class="st3" d="M6084.4,1180.4c9.1,15.4,28.9,20.5,44.4,11.4c15.4-9.1,20.6-29,11.5-44.4c-9.1-15.4-29-20.5-44.4-11.4
		C6080.4,1145.1,6075.3,1165,6084.4,1180.4z"/>
	<path class="st1" d="M6002.8,1015.4c-15.4,9.1-20.6,28.9-11.5,44.4c9.1,15.4,29,20.5,44.4,11.5c15.4-9.1,20.6-29,11.5-44.4
		C6038,1011.5,6018.2,1006.4,6002.8,1015.4z"/>
	<path class="st1" d="M5858.9,768.6c-16.2,9.5-21.5,30.3-12,46.4c9.5,16.1,30.2,21.5,46.4,12c16.1-9.5,21.5-30.3,12-46.4
		C5895.8,764.4,5875,759,5858.9,768.6z"/>
	<path class="st1" d="M7442.2,817.7c13.5-8,18-25.3,10-38.8c-7.9-13.5-25.3-18-38.7-10c-13.5,7.9-18,25.3-10,38.8
		C7411.4,821.1,7428.8,825.6,7442.2,817.7z"/>
	<path class="st2" d="M7467.8,1040.1c18.7-11,24.9-35.1,13.9-53.8c-11-18.7-35.1-24.9-53.8-13.9c-18.6,11-24.9,35.1-13.9,53.8
		C7425,1044.9,7449,1051.2,7467.8,1040.1z"/>
	<path class="st1" d="M7487.8,883.3c-15.6,9.2-20.8,29.2-11.6,44.8c9.2,15.6,29.3,20.8,44.8,11.6c15.6-9.2,20.8-29.2,11.6-44.8
		C7523.5,879.3,7503.4,874.1,7487.8,883.3z"/>
	<path class="st1" d="M7279.5,920.7c12.4-7.3,16.4-23.2,9.2-35.5c-7.2-12.3-23.1-16.5-35.5-9.2c-12.3,7.3-16.4,23.1-9.2,35.5
		C7251.3,923.8,7267.1,928,7279.5,920.7z"/>
	<path class="st2" d="M7127.9,875.2c11,18.7,35.1,24.9,53.8,13.9c18.7-11,24.9-35.1,13.9-53.8c-11-18.7-35.1-24.9-53.8-13.9
		C7123.2,832.4,7116.9,856.5,7127.9,875.2z"/>
	<path class="st1" d="M7063.7,1144.9c16,27.1,51,36.2,78.1,20.2c27.2-16,36.2-51,20.2-78.2c-16-27.1-51-36.2-78.1-20.2
		C7056.7,1082.7,7047.7,1117.7,7063.7,1144.9z"/>
	<path class="st3" d="M6929.6,946.3c22.1-13,29.4-41.4,16.4-63.5c-13-22.1-41.4-29.4-63.5-16.4c-22.1,13-29.4,41.4-16.4,63.5
		C6879.1,951.9,6907.5,959.3,6929.6,946.3z"/>
	<path class="st1" d="M6644.7,869c14.9,25.2,47.3,33.6,72.5,18.7c25.2-14.9,33.6-47.3,18.7-72.5c-14.9-25.2-47.3-33.6-72.5-18.7
		C6638.2,811.3,6629.8,843.8,6644.7,869z"/>
	<path class="st2" d="M7047.2,605c-8.4-14.3-26.8-19-41.1-10.6c-14.2,8.4-19,26.8-10.6,41.1c8.4,14.3,26.8,19.1,41.1,10.6
		C7050.9,637.6,7055.7,619.3,7047.2,605z"/>
	<path class="st1" d="M7158.9,583.5c-11.5,6.8-15.4,21.7-8.6,33.2c6.8,11.5,21.7,15.4,33.2,8.6c11.5-6.8,15.4-21.7,8.6-33.2
		C7185.3,580.5,7170.5,576.7,7158.9,583.5z"/>
	<path class="st1" d="M6922.4,403.2c-11.5,6.8-15.4,21.7-8.6,33.2c6.8,11.5,21.7,15.4,33.2,8.6c11.5-6.8,15.4-21.7,8.6-33.2
		C6948.8,400.3,6934,396.4,6922.4,403.2z"/>
	<path class="st3" d="M6694.2,290.9c-11.5,6.8-15.4,21.7-8.6,33.2c6.8,11.5,21.7,15.4,33.2,8.6c11.5-6.8,15.4-21.7,8.6-33.3
		C6720.6,288,6705.8,284.1,6694.2,290.9z"/>
	<path class="st3" d="M6454.6,923.8c6.8,11.5,21.7,15.4,33.2,8.6c11.5-6.8,15.4-21.7,8.6-33.3c-6.8-11.5-21.7-15.3-33.2-8.6
		C6451.7,897.4,6447.8,912.3,6454.6,923.8z"/>
	<path class="st2" d="M7304.5,1067.9c11.6-6.8,15.4-21.7,8.6-33.2c-6.8-11.6-21.7-15.4-33.2-8.6c-11.5,6.8-15.4,21.7-8.6,33.2
		C7278.1,1070.9,7293,1074.7,7304.5,1067.9z"/>
	<path class="st2" d="M6196.5,627c-16.2,9.6-21.6,30.4-12,46.7c9.5,16.2,30.4,21.6,46.6,12.1c16.2-9.6,21.6-30.5,12-46.7
		C6233.6,622.9,6212.7,617.5,6196.5,627z"/>
	<path class="st3" d="M5851.8,469.6c-14.3,8.4-19.1,26.9-10.7,41.2c8.4,14.3,26.9,19.1,41.2,10.7c14.3-8.5,19.1-26.9,10.7-41.2
		C5884.6,465.9,5866.1,461.1,5851.8,469.6z"/>
	<path class="st1" d="M6306.1,819.2c11.9,20.1,37.8,26.8,57.9,14.9c20.1-11.8,26.8-37.7,14.9-57.8c-11.8-20.1-37.7-26.8-57.8-14.9
		C6300.9,773.2,6294.2,799.1,6306.1,819.2z"/>
	<path class="st1" d="M6345.7,931.2c-5.4-9.1-17.1-12.2-26.2-6.8c-9.1,5.4-12.1,17.1-6.8,26.2c5.4,9.1,17.1,12.1,26.2,6.8
		C6348.1,952,6351.1,940.3,6345.7,931.2z"/>
	<path class="st1" d="M8163.9,950.9c9.1-5.4,12.1-17.1,6.8-26.2c-5.4-9.1-17.1-12.2-26.2-6.8c-9.1,5.4-12.1,17.1-6.8,26.2
		C8143,953.2,8154.7,956.3,8163.9,950.9z"/>
	<path class="st1" d="M5982.8,735.1c11.9,20.1,37.8,26.8,57.8,14.9c20.1-11.9,26.8-37.8,14.9-57.8c-11.8-20.1-37.7-26.8-57.8-15
		C5977.7,689.1,5971,715,5982.8,735.1z"/>
	<path class="st2" d="M5931.4,982.6c20.1-11.8,26.8-37.7,14.9-57.8c-11.8-20.1-37.7-26.8-57.8-15c-20.1,11.8-26.8,37.7-14.9,57.8
		C5885.4,987.8,5911.3,994.4,5931.4,982.6z"/>
	<path class="st1" d="M6243.5,1215.9c15.6-9.2,20.8-29.3,11.6-44.8c-9.2-15.6-29.2-20.7-44.8-11.6c-15.6,9.2-20.8,29.3-11.6,44.8
		C6207.8,1219.9,6227.9,1225.1,6243.5,1215.9z"/>
	<path class="st2" d="M6280.2,1126.8c11.5-6.8,15.3-21.6,8.6-33.1c-6.8-11.5-21.6-15.3-33.1-8.6c-11.5,6.8-15.4,21.7-8.6,33.1
		C6253.8,1129.7,6268.6,1133.6,6280.2,1126.8z"/>
	<path class="st1" d="M6445,1201.4c13,22,41.4,29.4,63.5,16.4c22.1-13,29.4-41.4,16.4-63.5c-13-22.1-41.4-29.4-63.5-16.4
		C6439.4,1150.9,6432,1179.3,6445,1201.4z"/>
	<path class="st3" d="M7191.4,957.7c-6.6-11.1-20.9-14.8-32.1-8.3c-11.1,6.6-14.8,21-8.3,32.1c6.6,11.1,20.9,14.9,32.1,8.3
		C7194.3,983.3,7198,968.9,7191.4,957.7z"/>
	<path class="st2" d="M7757,1040.4c13.7-23.3,6-53.3-17.3-67c-23.3-13.7-53.3-6-67,17.3c-13.8,23.3-6,53.3,17.3,67
		C7713.3,1071.4,7743.3,1063.6,7757,1040.4z"/>
	<path class="st2" d="M7675.6,797.1c17.8-30.2,7.7-69.1-22.4-86.8c-30.1-17.8-69.1-7.8-86.9,22.4c-17.8,30.2-7.7,69.1,22.4,86.9
		C7619,837.4,7657.9,827.3,7675.6,797.1z"/>
	<path class="st2" d="M8176.7,743.8c-17.8,30.2-7.7,69.1,22.4,86.9c30.2,17.8,69.1,7.7,86.9-22.4c17.8-30.2,7.7-69.1-22.4-86.8
		C8233.4,703.6,8194.4,713.6,8176.7,743.8z"/>
	<path class="st3" d="M7818,955.6c25.7,15.1,58.8,6.6,74-19.1c15.1-25.7,6.6-58.8-19.1-73.9c-25.7-15.2-58.8-6.6-73.9,19.1
		C7783.8,907.4,7792.3,940.5,7818,955.6z"/>
	<path class="st2" d="M7814.4,398.1c-18.5-10.9-42.3-4.8-53.2,13.8c-10.9,18.5-4.8,42.3,13.7,53.2c18.5,10.9,42.4,4.8,53.3-13.7
		C7839,432.9,7832.8,409,7814.4,398.1z"/>
	<path class="st1" d="M7851.5,620.5c-26.9-15.8-61.5-6.9-77.3,20c-15.9,26.9-6.9,61.5,20,77.4c26.9,15.8,61.5,6.9,77.3-20
		C7887.3,671,7878.4,636.3,7851.5,620.5z"/>
	<path class="st3" d="M8114.6,590.7c-12.9,21.8-5.6,50,16.2,62.8c21.8,12.9,50,5.6,62.8-16.2c12.9-21.8,5.6-50-16.2-62.8
		C8155.6,561.6,8127.5,568.9,8114.6,590.7z"/>
	<path class="st1" d="M7760.2,213.6c-11.4-6.7-26.1-2.9-32.9,8.5c-6.8,11.4-2.9,26.1,8.5,32.9c11.4,6.7,26.1,2.9,32.9-8.5
		C7775.5,235.1,7771.7,220.4,7760.2,213.6z"/>
	<path class="st3" d="M8054.5,1095.5c8.4-14.2,3.6-32.4-10.5-40.8c-14.2-8.3-32.4-3.6-40.8,10.6c-8.3,14.2-3.7,32.4,10.5,40.8
		C8027.8,1114.4,8046.1,1109.7,8054.5,1095.5z"/>
	<path class="st3" d="M7917.3,611c31.9,18.8,73.1,8.2,91.9-23.8c18.8-31.9,8.2-73.1-23.8-91.9c-31.9-18.8-73.1-8.2-91.9,23.7
		C7874.7,551,7885.4,592.2,7917.3,611z"/>
	<path class="st0" d="M7491.5,1237.9c18.6-11,24.9-35,13.9-53.6c-11-18.7-35-24.8-53.6-13.9c-18.6,11-24.8,35-13.9,53.6
		C7448.9,1242.7,7472.9,1248.9,7491.5,1237.9z"/>
	<path class="st0" d="M6680.2,1148.5c-9.4,5.6-12.5,17.7-7,27.1c5.5,9.4,17.6,12.5,27,7c9.4-5.6,12.5-17.7,7-27.1
		C6701.8,1146.1,6689.7,1143,6680.2,1148.5z"/>
	<path class="st0" d="M6726.2,994.8c-11.4,6.7-15.2,21.4-8.5,32.8c6.7,11.4,21.4,15.2,32.8,8.4c11.4-6.7,15.2-21.4,8.5-32.8
		C6752.2,992,6737.6,988.2,6726.2,994.8z"/>
	<path class="st0" d="M7675.5,1212.2c8.4,5.1,19.2,2.2,24.2-6.6c5-8.8,2.2-20-6.2-25.2c-8.4-5.1-19.3-2.2-24.2,6.6
		C7664.3,1195.8,7667.1,1207,7675.5,1212.2z"/>
	<path class="st3" d="M6798.4,1178.8c-14,23.7-6.1,54.4,17.7,68.3c23.8,14,54.4,6.1,68.4-17.7c13.9-23.7,6.1-54.4-17.7-68.4
		C6843,1147.1,6812.4,1155,6798.4,1178.8z"/>
	<path class="st3" d="M8212.4,1064.9c-11.5-6.8-26.4-2.9-33.2,8.6c-6.8,11.5-3,26.4,8.6,33.3c11.5,6.8,26.4,2.9,33.2-8.6
		C8227.7,1086.6,8223.9,1071.7,8212.4,1064.9z"/>
	<path class="st1" d="M7912.8,1142.7c11.8-20.1,5.1-46-15-57.8c-20.1-11.8-46-5.2-57.8,14.9c-11.8,20.1-5.2,46,14.9,57.8
		C7875,1169.4,7900.9,1162.8,7912.8,1142.7z"/>
	<path class="st1" d="M6782.8,482.7c-12.9-21.8-41-29.1-62.8-16.3c-21.8,12.9-29.1,41-16.2,62.8c12.9,21.8,41,29.1,62.8,16.3
		C6788.4,532.7,6795.7,504.6,6782.8,482.7z"/>
	<path class="st0" d="M510.4,661.9c-4.7,8-2.1,18.4,5.9,23.1c8.1,4.7,18.4,2.1,23.2-6c4.7-8,2.1-18.4-6-23.1
		C525.5,651.2,515.1,653.9,510.4,661.9z"/>
	<path class="st0" d="M881.2,680c-5.4,9.2-2.4,21.1,6.9,26.5c9.2,5.4,21.1,2.4,26.5-6.8c5.4-9.2,2.4-21.1-6.8-26.5
		C898.5,667.7,886.6,670.8,881.2,680z"/>
	<path class="st0" d="M1041.6,722.7c-6.7-4-15.4-1.7-19.4,5c-4,6.7-1.7,15.4,5,19.4c6.7,3.9,15.4,1.7,19.4-5
		C1050.6,735.3,1048.3,726.6,1041.6,722.7z"/>
	<path class="st0" d="M529.8,1191.3c6.7,3.9,15.4,1.7,19.4-5c4-6.7,1.7-15.4-5-19.3c-6.7-4-15.4-1.7-19.4,5
		C520.9,1178.6,523.1,1187.4,529.8,1191.3z"/>
	<path class="st0" d="M758.7,541.3c-9.4-5.5-21.5-2.4-27.1,7c-5.5,9.4-2.4,21.5,7,27.1c9.4,5.5,21.5,2.4,27-7
		C771.2,559,768,546.8,758.7,541.3z"/>
	<path class="st0" d="M534.2,467.7c12.4,7.3,28.4,3.1,35.8-9.3c7.3-12.4,3.2-28.4-9.2-35.7c-12.4-7.3-28.4-3.2-35.8,9.2
		C517.6,444.3,521.8,460.4,534.2,467.7z"/>
	<path class="st0" d="M713.5,700.3c-18.6-10.9-42.6-4.8-53.6,13.9c-11,18.6-4.8,42.6,13.9,53.6c18.6,11,42.6,4.8,53.6-13.9
		C738.3,735.3,732.1,711.3,713.5,700.3z"/>
	<path class="st0" d="M218.4,526.7c4.5-7.6,1.9-17.3-5.6-21.8c-7.6-4.4-17.3-1.9-21.8,5.7c-4.5,7.6-1.9,17.3,5.6,21.8
		C204.2,536.7,214,534.2,218.4,526.7z"/>
	<path class="st0" d="M1214,782.5c-9.4-5.5-21.5-2.4-27.1,7c-5.5,9.4-2.4,21.5,7,27.1c9.4,5.5,21.5,2.4,27-7
		C1226.5,800.2,1223.4,788.1,1214,782.5z"/>
	<path class="st0" d="M1075.3,467c-9.3-5.5-21.3-2.4-26.8,6.9c-5.5,9.3-2.4,21.3,6.9,26.8c9.3,5.5,21.3,2.4,26.8-7
		C1087.7,484.4,1084.6,472.4,1075.3,467z"/>
	<path class="st0" d="M710.6,1037.3c-11,18.6-4.8,42.6,13.9,53.6c18.6,11,42.6,4.8,53.6-13.9c11-18.6,4.8-42.7-13.9-53.6
		C745.6,1012.5,721.6,1018.6,710.6,1037.3z"/>
	<path class="st0" d="M322.7,994.6c6.7-11.4,2.9-26.1-8.5-32.8c-11.4-6.7-26-2.9-32.8,8.5c-6.7,11.4-2.9,26,8.5,32.8
		C301.3,1009.8,316,1006,322.7,994.6z"/>
	<path class="st0" d="M263.4,828.8c-9.2-5.4-21.1-2.4-26.5,6.8c-5.4,9.2-2.4,21.1,6.8,26.5c9.2,5.4,21.1,2.4,26.5-6.9
		C275.6,846.1,272.6,834.3,263.4,828.8z"/>
	<path class="st0" d="M1070.5,1049.1c-9.1,5.6-12.1,17.8-6.7,27.2c5.4,9.4,17,12.6,26.1,7c9.1-5.6,12.1-17.8,6.7-27.2
		C1091.3,1046.7,1079.6,1043.5,1070.5,1049.1z"/>
	<path class="st0" d="M391.8,842c8.4-5.2,11.2-16.4,6.3-25.2c-5-8.8-15.8-11.7-24.2-6.6c-8.4,5.2-11.2,16.4-6.2,25.2
		C372.5,844.3,383.4,847.2,391.8,842z"/>
	<path class="st2" d="M365.3,426.2c-16.4,9.6-21.8,30.7-12.1,47.1c9.6,16.4,30.7,21.8,47,12.2c16.4-9.6,21.8-30.7,12.1-47
		C402.8,422,381.7,416.6,365.3,426.2z"/>
	<path class="st3" d="M263.3,1170.8c9.1,15.4,28.9,20.5,44.4,11.4c15.4-9.1,20.6-29,11.5-44.4c-9.1-15.4-29-20.5-44.4-11.4
		C259.3,1135.5,254.2,1155.4,263.3,1170.8z"/>
	<path class="st1" d="M181.6,1005.9c-15.4,9.1-20.6,28.9-11.5,44.4c9.1,15.4,29,20.5,44.4,11.5c15.4-9.1,20.6-29,11.5-44.4
		C216.9,1001.9,197.1,996.8,181.6,1005.9z"/>
	<path class="st2" d="M1320.7,811.8c-18.7,11-24.9,35.1-13.9,53.8c11,18.7,35.1,24.9,53.8,13.9c18.7-11,24.9-35.1,13.9-53.8
		C1363.5,807,1339.4,800.8,1320.7,811.8z"/>
	<path class="st1" d="M1262.7,1057.2c-27.2,16-36.2,51-20.2,78.2c16,27.1,51,36.2,78.1,20.2c27.2-16,36.2-51,20.2-78.2
		C1324.9,1050.2,1289.9,1041.2,1262.7,1057.2z"/>
	<path class="st3" d="M1061.4,856.8c-22.1,13-29.4,41.4-16.4,63.5c13,22.1,41.4,29.4,63.5,16.4c22.1-13,29.4-41.4,16.4-63.5
		C1111.9,851.2,1083.5,843.8,1061.4,856.8z"/>
	<path class="st1" d="M823.5,859.4c14.9,25.2,47.3,33.6,72.5,18.7c25.2-14.9,33.6-47.3,18.7-72.5c-14.9-25.2-47.3-33.6-72.5-18.7
		C817.1,801.7,808.6,834.2,823.5,859.4z"/>
	<path class="st2" d="M1226.1,595.4c-8.4-14.3-26.8-19-41.1-10.6c-14.2,8.4-19,26.8-10.6,41.1c8.4,14.3,26.8,19.1,41.1,10.6
		C1229.8,628.1,1234.6,609.7,1226.1,595.4z"/>
	<path class="st1" d="M1337.8,573.9c-11.5,6.8-15.4,21.7-8.6,33.2c6.8,11.5,21.7,15.4,33.2,8.6c11.5-6.8,15.4-21.7,8.6-33.2
		C1364.2,571,1349.3,567.1,1337.8,573.9z"/>
	<path class="st1" d="M1126,435.4c11.5-6.8,15.4-21.7,8.6-33.2c-6.8-11.5-21.7-15.4-33.2-8.6c-11.5,6.8-15.4,21.7-8.6,33.2
		C1099.5,438.4,1114.4,442.2,1126,435.4z"/>
	<path class="st3" d="M873.1,281.3c-11.5,6.8-15.4,21.7-8.6,33.2c6.8,11.5,21.7,15.4,33.2,8.6c11.5-6.8,15.4-21.7,8.6-33.3
		C899.5,278.4,884.6,274.5,873.1,281.3z"/>
	<path class="st3" d="M633.5,914.3c6.8,11.5,21.7,15.4,33.2,8.6c11.5-6.8,15.4-21.7,8.6-33.3c-6.8-11.5-21.7-15.3-33.2-8.6
		C630.5,887.9,626.7,902.7,633.5,914.3z"/>
	<path class="st2" d="M375.3,617.5c-16.2,9.6-21.6,30.4-12,46.7c9.5,16.2,30.4,21.6,46.6,12.1c16.2-9.6,21.6-30.5,12-46.7
		C412.5,613.3,391.6,607.9,375.3,617.5z"/>
	<path class="st1" d="M484.9,809.6c11.9,20.1,37.8,26.8,57.9,14.9c20.1-11.8,26.8-37.7,14.9-57.8c-11.8-20.1-37.7-26.8-57.8-14.9
		C479.8,763.6,473.1,789.5,484.9,809.6z"/>
	<path class="st1" d="M524.6,921.6c-5.4-9.1-17.1-12.2-26.2-6.8c-9.1,5.4-12.1,17.1-6.8,26.2c5.4,9.1,17.1,12.1,26.2,6.8
		C527,942.4,530,930.7,524.6,921.6z"/>
	<path class="st1" d="M161.7,725.5c11.9,20.1,37.8,26.8,57.8,14.9c20.1-11.9,26.8-37.8,14.9-57.8c-11.8-20.1-37.7-26.8-57.8-15
		C156.5,679.5,149.8,705.4,161.7,725.5z"/>
	<path class="st1" d="M422.3,1206.3c15.6-9.2,20.8-29.3,11.6-44.8c-9.2-15.6-29.2-20.7-44.8-11.6c-15.6,9.2-20.8,29.3-11.6,44.8
		C386.7,1210.3,406.8,1215.5,422.3,1206.3z"/>
	<path class="st2" d="M459,1117.2c11.5-6.8,15.3-21.6,8.6-33.1c-6.8-11.5-21.6-15.3-33.1-8.6c-11.5,6.8-15.4,21.7-8.6,33.1
		C432.7,1120.2,447.5,1124,459,1117.2z"/>
	<path class="st1" d="M623.9,1191.8c13,22,41.4,29.4,63.5,16.4c22.1-13,29.4-41.4,16.4-63.5c-13-22.1-41.4-29.4-63.5-16.4
		C618.2,1141.3,610.9,1169.8,623.9,1191.8z"/>
	<path class="st3" d="M1338.2,939.9c-11.1,6.6-14.8,21-8.3,32.1c6.6,11.1,20.9,14.9,32.1,8.3c11.2-6.6,14.9-21,8.3-32.1
		C1363.7,937,1349.3,933.3,1338.2,939.9z"/>
	<path class="st0" d="M859.1,1138.9c-9.4,5.6-12.5,17.7-7,27.1c5.5,9.4,17.6,12.5,27,7c9.4-5.6,12.5-17.7,7-27.1
		C880.6,1136.5,868.5,1133.4,859.1,1138.9z"/>
	<path class="st0" d="M905.1,985.3c-11.4,6.7-15.2,21.4-8.5,32.8c6.7,11.4,21.4,15.2,32.8,8.4c11.4-6.7,15.2-21.4,8.5-32.8
		C931.1,982.4,916.4,978.6,905.1,985.3z"/>
	<path class="st3" d="M977.3,1169.2c-14,23.7-6.1,54.4,17.7,68.3c23.8,14,54.4,6.1,68.4-17.7c13.9-23.7,6.1-54.4-17.7-68.4
		C1021.9,1137.5,991.3,1145.4,977.3,1169.2z"/>
	<path class="st1" d="M961.7,473.2c-12.9-21.8-41-29.1-62.8-16.3c-21.8,12.9-29.1,41-16.2,62.8c12.9,21.8,41,29.1,62.8,16.3
		C967.3,523.1,974.6,495,961.7,473.2z"/>
	<path class="st0" d="M1494.6,487.4c-12.3-7.3-28.2-3.2-35.4,9.2c-7.3,12.3-3.2,28.2,9.1,35.4c12.4,7.3,28.2,3.2,35.5-9.1
		C1511,510.6,1506.9,494.7,1494.6,487.4z"/>
	<path class="st0" d="M1729.7,504.9c4-6.7,1.7-15.4-5-19.3c-6.7-4-15.4-1.7-19.4,5c-4,6.7-1.7,15.4,5,19.4
		C1717.1,513.9,1725.7,511.7,1729.7,504.9z"/>
	<path class="st0" d="M1477.3,675.7c-24.4-14.4-55.9-6.3-70.3,18.1c-3.9,6.6-6.1,13.7-6.8,20.8v10.6c1.6,15.6,10.4,30.3,25,38.9
		c24.4,14.4,55.9,6.2,70.3-18.1C1509.8,721.5,1501.7,690.1,1477.3,675.7z"/>
	<path class="st0" d="M1875.3,563.4c-17.3,10.6-23,33.8-12.9,51.8c10.2,18,32.4,24,49.7,13.4c17.2-10.6,23-33.8,12.8-51.8
		C1914.8,558.8,1892.6,552.8,1875.3,563.4z"/>
	<path class="st0" d="M1646.1,559.5c-7.9,4.9-10.5,15.5-5.8,23.7c4.6,8.2,14.9,11,22.8,6.1c7.9-4.8,10.5-15.5,5.9-23.7
		C1664.3,557.4,1654,554.6,1646.1,559.5z"/>
	<path class="st0" d="M1747.8,566.8c-9.3,5.7-12.3,18.1-6.9,27.7c5.4,9.6,17.3,12.8,26.5,7.2c9.2-5.7,12.3-18.1,6.9-27.7
		C1768.9,564.4,1757,561.2,1747.8,566.8z"/>
	<path class="st0" d="M1822.1,390.7c13.5-8.2,17.9-26.3,10-40.3c-7.9-14-25.2-18.7-38.7-10.4c-13.4,8.2-17.9,26.3-10,40.3
		C1791.3,394.3,1808.6,398.9,1822.1,390.7z"/>
	<path class="st0" d="M2157.1,673.2c-13.5,8.2-17.9,26.3-10,40.3c7.9,14,25.2,18.7,38.7,10.4c13.4-8.3,17.9-26.3,10-40.3
		C2187.8,669.6,2170.5,665,2157.1,673.2z"/>
	<path class="st0" d="M1983.8,783.2c-8.7,5.4-11.6,17-6.4,26.1c5.1,9.1,16.3,12.1,25,6.8c8.7-5.4,11.6-17,6.5-26.1
		C2003.7,780.9,1992.5,777.8,1983.8,783.2z"/>
	<path class="st0" d="M1748.2,1073.6c8.7-5.3,11.6-17,6.5-26.1c-5.1-9.1-16.4-12.1-25-6.7c-8.7,5.3-11.6,17-6.5,26.1
		S1739.6,1079,1748.2,1073.6z"/>
	<path class="st0" d="M2219.5,941.4c-9.1-16-28.9-21.3-44.2-11.9c-15.4,9.4-20.5,30.1-11.4,46.1c9.1,16,28.9,21.4,44.2,11.9
		C2223.5,978,2228.6,957.4,2219.5,941.4z"/>
	<path class="st0" d="M2178,419.4c13.3-8.1,17.7-25.9,9.8-39.7c-7.8-13.8-24.9-18.4-38.1-10.3c-13.3,8.1-17.6,25.9-9.8,39.7
		C2147.6,422.9,2164.7,427.5,2178,419.4z"/>
	<path class="st0" d="M2261.4,809.1c11.1-6.8,14.8-21.7,8.3-33.2c-6.5-11.5-20.8-15.4-31.9-8.6c-11.1,6.8-14.8,21.7-8.2,33.2
		C2236,812.1,2250.3,815.9,2261.4,809.1z"/>
	<path class="st0" d="M2115.3,224.7c-12.8,7.9-17,25-9.5,38.3c7.5,13.3,23.9,17.7,36.7,9.9c12.7-7.8,17-24.9,9.4-38.2
		C2144.4,221.3,2128,216.9,2115.3,224.7z"/>
	<path class="st1" d="M1592.4,759.3c-13.5,7.9-18,25.3-10,38.8c7.9,13.5,25.3,18,38.8,10c13.5-8,18-25.3,10-38.8
		C1623.2,755.8,1605.9,751.3,1592.4,759.3z"/>
	<path class="st2" d="M1606.7,962.9c-18.6,11-24.9,35.1-13.9,53.8c11,18.7,35.1,24.9,53.8,13.9c18.7-11,24.9-35.1,13.9-53.8
		C1649.5,958.1,1625.4,951.8,1606.7,962.9z"/>
	<path class="st1" d="M1711.5,885.3c-9.1-15.6-29.2-20.8-44.8-11.6c-15.6,9.2-20.8,29.2-11.6,44.8c9.2,15.6,29.3,20.8,44.8,11.6
		C1715.5,921,1720.7,900.9,1711.5,885.3z"/>
	<path class="st1" d="M1432,866.5c-12.3,7.3-16.4,23.1-9.2,35.5c7.3,12.3,23.2,16.4,35.5,9.2c12.4-7.3,16.4-23.2,9.2-35.5
		C1460.3,863.3,1444.4,859.2,1432,866.5z"/>
	<path class="st2" d="M1483.4,1058.4c11.6-6.8,15.4-21.7,8.6-33.2c-6.8-11.6-21.7-15.4-33.2-8.6c-11.5,6.8-15.4,21.7-8.6,33.2
		C1457,1061.3,1471.9,1065.1,1483.4,1058.4z"/>
	<path class="st1" d="M2342.7,941.3c9.1-5.4,12.1-17.1,6.8-26.2c-5.4-9.1-17.1-12.2-26.2-6.8c-9.1,5.4-12.1,17.1-6.8,26.2
		C2321.9,943.6,2333.6,946.7,2342.7,941.3z"/>
	<path class="st2" d="M1935.9,1030.8c13.7-23.3,6-53.3-17.3-67c-23.3-13.7-53.3-6-67,17.3c-13.8,23.3-6,53.3,17.3,67
		C1892.2,1061.8,1922.2,1054.1,1935.9,1030.8z"/>
	<path class="st2" d="M1854.5,787.6c17.8-30.2,7.7-69.1-22.4-86.8c-30.1-17.8-69.1-7.8-86.9,22.4c-17.8,30.2-7.7,69.1,22.4,86.9
		C1797.9,827.8,1836.8,817.7,1854.5,787.6z"/>
	<path class="st3" d="M2051.8,853c-25.7-15.2-58.8-6.6-73.9,19.1c-15.2,25.7-6.6,58.8,19.1,73.9c25.7,15.1,58.8,6.6,74-19.1
		C2086,901.2,2077.5,868.1,2051.8,853z"/>
	<path class="st2" d="M1993.2,388.6c-18.5-10.9-42.3-4.8-53.2,13.8c-10.9,18.5-4.8,42.3,13.7,53.2c18.5,10.9,42.4,4.8,53.3-13.7
		C2017.9,423.3,2011.7,399.4,1993.2,388.6z"/>
	<path class="st1" d="M2030.4,610.9c-26.9-15.8-61.5-6.9-77.3,20c-15.9,26.9-6.9,61.5,20,77.4c26.9,15.8,61.5,6.9,77.3-20
		C2066.2,661.4,2057.3,626.8,2030.4,610.9z"/>
	<path class="st3" d="M2356.3,565c-21.8-12.9-50-5.6-62.8,16.2c-12.9,21.8-5.6,50,16.2,62.8c21.8,12.9,50,5.6,62.8-16.2
		C2385.4,605.9,2378.2,577.8,2356.3,565z"/>
	<path class="st1" d="M1939.1,204.1c-11.4-6.7-26.1-2.9-32.9,8.5c-6.8,11.4-2.9,26.1,8.5,32.9c11.4,6.7,26.1,2.9,32.9-8.5
		C1954.4,225.5,1950.5,210.8,1939.1,204.1z"/>
	<path class="st3" d="M2233.4,1086c8.4-14.2,3.6-32.4-10.5-40.8c-14.2-8.3-32.4-3.6-40.8,10.6c-8.3,14.2-3.7,32.4,10.5,40.8
		C2206.7,1104.9,2225,1100.1,2233.4,1086z"/>
	<path class="st3" d="M2188.1,577.7c18.8-31.9,8.2-73.1-23.8-91.9c-31.9-18.8-73.1-8.2-91.9,23.7c-18.8,32-8.2,73.1,23.7,92
		C2128.1,620.3,2169.3,609.7,2188.1,577.7z"/>
	<path class="st0" d="M1670.4,1228.3c18.6-11,24.9-35,13.9-53.6c-11-18.7-35-24.8-53.6-13.9c-18.6,11-24.8,35-13.9,53.6
		C1627.8,1233.1,1651.8,1239.3,1670.4,1228.3z"/>
	<path class="st0" d="M1878.6,1196.1c5-8.8,2.2-20-6.2-25.2c-8.4-5.1-19.3-2.2-24.2,6.6c-4.9,8.8-2.2,20,6.3,25.2
		C1862.8,1207.8,1873.6,1204.9,1878.6,1196.1z"/>
	<path class="st3" d="M2399.8,1088.6c6.8-11.6,3-26.4-8.6-33.2c-11.5-6.8-26.4-2.9-33.2,8.6c-6.8,11.5-3,26.4,8.6,33.3
		C2378.1,1103.9,2393,1100.1,2399.8,1088.6z"/>
	<path class="st1" d="M2076.7,1075.3c-20.1-11.8-46-5.2-57.8,14.9c-11.8,20.1-5.2,46,14.9,57.8c20.1,11.8,46,5.2,57.9-14.9
		C2103.5,1113,2096.8,1087.1,2076.7,1075.3z"/>
	<path class="st1" d="M2599.5,630.3c-12.9,21.8-5.6,50,16.2,62.8c21.8,12.9,50,5.6,62.8-16.3c12.9-21.8,5.6-49.9-16.2-62.8
		C2640.5,601.2,2612.4,608.5,2599.5,630.3z"/>
	<path class="st1" d="M2790.4,1049.3c15.9-27,6.9-61.7-20-77.6c-27-15.9-61.7-6.9-77.6,20c-15.9,26.9-6.9,61.7,20.1,77.6
		C2739.8,1085.2,2774.5,1076.2,2790.4,1049.3z"/>
	<path class="st0" d="M2567.3,906.3c-24.4-14.4-55.9-6.3-70.3,18.1c-14.4,24.5-6.3,55.9,18.1,70.3c24.4,14.4,55.9,6.2,70.3-18.1
		C2599.8,952.2,2591.7,920.7,2567.3,906.3z"/>
	<path class="st0" d="M2454.4,528.1c8.2-13.9,3.5-31.6-10.3-39.8c-13.8-8.1-31.6-3.6-39.7,10.3c-8.1,13.8-3.5,31.6,10.3,39.7
		C2428.5,546.4,2446.2,541.9,2454.4,528.1z"/>
	<path class="st3" d="M2620.9,1233.8c26-15.3,34.6-48.7,19.3-74.7c-15.3-26-48.7-34.6-74.7-19.3c-25.9,15.3-34.6,48.7-19.3,74.7
		C2561.5,1240.4,2594.9,1249,2620.9,1233.8z"/>
	<path class="st2" d="M2464.9,798.7c17.8-30.2,7.7-69.1-22.4-86.8c-30.1-17.8-69.1-7.8-86.9,22.4c-17.8,30.2-7.7,69.1,22.4,86.9
		C2408.2,838.9,2447.1,828.8,2464.9,798.7z"/>
	<path class="st0" d="M3620.6,679.1c4.7-8,2.1-18.4-6-23.1c-8-4.7-18.4-2.1-23.1,6c-4.7,8-2.1,18.4,5.9,23.1
		C3605.5,689.8,3615.8,687.1,3620.6,679.1z"/>
	<path class="st0" d="M3995.6,699.7c5.4-9.2,2.4-21.1-6.8-26.5c-9.2-5.4-21.1-2.4-26.5,6.8c-5.4,9.2-2.4,21.1,6.9,26.5
		C3978.3,712,3990.2,708.9,3995.6,699.7z"/>
	<path class="st0" d="M4122.7,722.7c-6.7-4-15.4-1.7-19.4,5c-4,6.7-1.7,15.4,5,19.4c6.7,3.9,15.4,1.7,19.4-5
		C4131.6,735.3,4129.4,726.6,4122.7,722.7z"/>
	<path class="st0" d="M3610.9,1191.3c6.7,3.9,15.4,1.7,19.4-5c4-6.7,1.7-15.4-5-19.3c-6.7-4-15.4-1.7-19.4,5
		C3601.9,1178.6,3604.1,1187.4,3610.9,1191.3z"/>
	<path class="st0" d="M3819.6,575.4c9.4,5.5,21.5,2.4,27-7c5.5-9.4,2.4-21.5-7-27.1c-9.4-5.5-21.5-2.4-27.1,7
		C3807.1,557.7,3810.2,569.8,3819.6,575.4z"/>
	<path class="st0" d="M3037.6,999.2c-4,6.7-1.7,15.4,5,19.3c6.7,4,15.4,1.7,19.4-5c4-6.7,1.7-15.4-5-19.3
		C3050.3,990.2,3041.6,992.4,3037.6,999.2z"/>
	<path class="st0" d="M3651,458.4c7.3-12.4,3.2-28.4-9.2-35.7c-12.4-7.3-28.4-3.2-35.8,9.2c-7.3,12.5-3.2,28.5,9.2,35.8
		C3627.7,475,3643.7,470.8,3651,458.4z"/>
	<path class="st0" d="M3794.5,700.3c-18.6-10.9-42.6-4.8-53.6,13.9c-11,18.6-4.8,42.6,13.9,53.6c18.6,11,42.6,4.8,53.6-13.9
		C3819.3,735.3,3813.1,711.3,3794.5,700.3z"/>
	<path class="st0" d="M3065.2,615.1c-10.3,17.5-4.5,40.1,13,50.4c17.5,10.3,40.1,4.5,50.4-13c10.3-17.5,4.5-40.1-13-50.4
		C3098.1,591.7,3075.5,597.6,3065.2,615.1z"/>
	<path class="st0" d="M3299.5,526.7c4.5-7.6,1.9-17.3-5.6-21.8c-7.6-4.4-17.3-1.9-21.8,5.7c-4.5,7.6-1.9,17.3,5.6,21.8
		C3285.2,536.7,3295,534.2,3299.5,526.7z"/>
	<path class="st0" d="M4575.6,487.4c-12.3-7.3-28.2-3.2-35.4,9.2c-7.3,12.3-3.2,28.2,9.1,35.4c12.4,7.3,28.2,3.2,35.5-9.1
		C4592,510.6,4587.9,494.7,4575.6,487.4z"/>
	<path class="st0" d="M4810.7,504.9c4-6.7,1.7-15.4-5-19.3c-6.7-4-15.4-1.7-19.4,5c-4,6.7-1.7,15.4,5,19.4
		C4798.1,513.9,4806.8,511.7,4810.7,504.9z"/>
	<path class="st0" d="M4295,782.5c-9.4-5.5-21.5-2.4-27.1,7c-5.5,9.4-2.4,21.5,7,27.1c9.4,5.5,21.5,2.4,27-7
		C4307.5,800.2,4304.4,788.1,4295,782.5z"/>
	<path class="st0" d="M4558.3,675.7c-24.4-14.4-55.9-6.3-70.3,18.1c-14.4,24.5-6.3,55.9,18.1,70.3c24.4,14.4,55.9,6.2,70.3-18.1
		C4590.8,721.5,4582.7,690.1,4558.3,675.7z"/>
	<path class="st0" d="M4136.5,500.7c9.3,5.5,21.3,2.4,26.8-7c5.5-9.3,2.4-21.3-6.9-26.8c-9.3-5.5-21.3-2.4-26.8,6.9
		C4124.1,483.2,4127.2,495.2,4136.5,500.7z"/>
	<path class="st0" d="M3805.5,1090.9c18.6,11,42.6,4.8,53.6-13.9c11-18.6,4.8-42.7-13.9-53.6c-18.6-10.9-42.6-4.8-53.6,13.9
		C3780.7,1055.9,3786.9,1079.9,3805.5,1090.9z"/>
	<path class="st0" d="M3395.3,961.8c-11.4-6.7-26-2.9-32.8,8.5c-6.7,11.4-2.9,26,8.5,32.8c11.4,6.7,26.1,2.9,32.8-8.4
		C3410.5,983.2,3406.7,968.5,3395.3,961.8z"/>
	<path class="st0" d="M2912.8,1065.4c-11.4-6.7-26-2.9-32.8,8.5c-6.7,11.4-2.9,26,8.5,32.8c11.4,6.7,26.1,2.9,32.8-8.4
		C2928,1086.8,2924.2,1072.2,2912.8,1065.4z"/>
	<path class="st0" d="M3324.7,862.2c9.2,5.4,21.1,2.4,26.5-6.9c5.4-9.2,2.4-21.1-6.8-26.5c-9.2-5.4-21.1-2.4-26.5,6.8
		C3312.5,844.9,3315.5,856.7,3324.7,862.2z"/>
	<path class="st0" d="M4956.4,563.4c-17.3,10.6-23,33.8-12.9,51.8c10.2,18,32.4,24,49.7,13.4c17.2-10.6,23-33.8,12.8-51.8
		C4995.9,558.8,4973.6,552.8,4956.4,563.4z"/>
	<path class="st0" d="M4744.1,589.4c7.9-4.8,10.5-15.5,5.9-23.7c-4.7-8.3-14.9-11-22.8-6.1c-7.9,4.9-10.5,15.5-5.8,23.7
		C4725.9,591.5,4736.2,594.2,4744.1,589.4z"/>
	<path class="st0" d="M4848.5,601.7c9.2-5.7,12.3-18.1,6.9-27.7c-5.5-9.6-17.3-12.8-26.5-7.1c-9.3,5.7-12.3,18.1-6.9,27.7
		C4827.4,604.1,4839.3,607.3,4848.5,601.7z"/>
	<path class="st0" d="M2730.8,416.7c4-6.7,1.7-15.4-5-19.3c-6.7-4-15.4-1.7-19.4,5c-4,6.7-1.7,15.4,5,19.4
		C2718.2,425.6,2726.8,423.5,2730.8,416.7z"/>
	<path class="st0" d="M2664.1,501.2c7.9-4.8,10.5-15.5,5.9-23.7c-4.7-8.3-14.9-11-22.8-6.1c-7.9,4.9-10.5,15.5-5.8,23.7
		C2646,503.3,2656.2,506,2664.1,501.2z"/>
	<path class="st0" d="M2768.5,513.5c9.2-5.7,12.3-18.1,6.9-27.7c-5.5-9.6-17.3-12.8-26.5-7.1c-9.3,5.7-12.3,18.1-6.9,27.7
		C2747.4,515.9,2759.3,519.1,2768.5,513.5z"/>
	<path class="st0" d="M4903.1,390.7c13.5-8.2,17.9-26.3,10-40.3c-7.9-14-25.2-18.7-38.7-10.4c-13.4,8.2-17.9,26.3-10,40.3
		C4872.3,394.3,4889.6,398.9,4903.1,390.7z"/>
	<path class="st0" d="M5266.8,724c13.4-8.3,17.9-26.3,10-40.3c-7.9-14-25.2-18.7-38.7-10.4c-13.5,8.2-17.9,26.3-10,40.3
		C5236,727.6,5253.3,732.2,5266.8,724z"/>
	<path class="st0" d="M5064.8,783.2c-8.7,5.4-11.6,17-6.4,26.1c5.1,9.1,16.3,12.1,25,6.8c8.7-5.4,11.6-17,6.5-26.1
		C5084.7,780.9,5073.5,777.8,5064.8,783.2z"/>
	<path class="st0" d="M4829.3,1073.6c8.7-5.3,11.6-17,6.5-26.1c-5.1-9.1-16.4-12.1-25-6.7c-8.7,5.3-11.6,17-6.5,26.1
		S4820.6,1079,4829.3,1073.6z"/>
	<path class="st0" d="M5289.1,987.5c15.4-9.4,20.5-30.1,11.4-46.1c-9.1-16-28.9-21.3-44.2-11.9c-15.4,9.4-20.5,30.1-11.4,46.1
		C5254,991.6,5273.8,996.9,5289.1,987.5z"/>
	<path class="st0" d="M5220.9,409.1c7.8,13.8,24.9,18.4,38.1,10.3c13.3-8.1,17.7-25.9,9.8-39.7c-7.8-13.8-24.9-18.4-38.1-10.3
		C5217.5,377.5,5213.1,395.3,5220.9,409.1z"/>
	<path class="st0" d="M5342.4,809.1c11.1-6.8,14.8-21.7,8.3-33.2c-6.5-11.5-20.8-15.4-31.9-8.6c-11.1,6.8-14.8,21.7-8.2,33.2
		C5317.1,812.1,5331.3,815.9,5342.4,809.1z"/>
	<path class="st0" d="M3064.5,378.9c-13.8-8.1-31.6-3.6-39.7,10.3c-8.1,13.8-3.5,31.6,10.3,39.7c13.8,8.1,31.6,3.5,39.7-10.3
		C3083,404.8,3078.3,387.1,3064.5,378.9z"/>
	<path class="st0" d="M5535.4,528.1c8.2-13.9,3.5-31.6-10.3-39.8c-13.8-8.1-31.6-3.6-39.7,10.3c-8.1,13.8-3.5,31.6,10.3,39.7
		C5509.5,546.4,5527.3,541.9,5535.4,528.1z"/>
	<path class="st0" d="M4170.9,1083.3c9.1-5.6,12.1-17.8,6.7-27.2c-5.3-9.5-17-12.6-26.1-7c-9.1,5.6-12.1,17.8-6.7,27.2
		C4150.2,1085.7,4161.9,1088.9,4170.9,1083.3z"/>
	<path class="st0" d="M2416.8,977.9c-5.3-9.5-17-12.6-26.1-7c-9.1,5.6-12.1,17.8-6.7,27.2c5.4,9.4,17,12.6,26.1,7
		C2419.1,999.5,2422.1,987.3,2416.8,977.9z"/>
	<path class="st0" d="M5196.3,224.7c-12.8,7.9-17,25-9.5,38.3c7.5,13.3,23.9,17.7,36.7,9.9c12.7-7.8,17-24.9,9.4-38.2
		C5225.4,221.3,5209,216.9,5196.3,224.7z"/>
	<path class="st0" d="M3472.8,842c8.4-5.2,11.2-16.4,6.3-25.2c-5-8.8-15.8-11.7-24.2-6.6c-8.4,5.2-11.2,16.4-6.2,25.2
		C3453.6,844.3,3464.4,847.2,3472.8,842z"/>
	<path class="st0" d="M2813.5,682.6c-5-8.8-15.8-11.7-24.2-6.6c-8.4,5.2-11.2,16.4-6.2,25.2c4.9,8.8,15.8,11.7,24.2,6.6
		C2815.7,702.6,2818.5,691.4,2813.5,682.6z"/>
	<path class="st3" d="M2943.3,902.6c-15.9-27-50.6-35.9-77.6-20c-27,15.9-35.9,50.6-20,77.6c15.9,27,50.6,35.9,77.6,20
		C2950.2,964.3,2959.2,929.5,2943.3,902.6z"/>
	<path class="st2" d="M2917.1,794.4c15.4-9.1,20.6-29,11.5-44.4c-9.1-15.4-29-20.5-44.4-11.5c-15.4,9.1-20.5,29-11.5,44.4
		C2881.8,798.3,2901.6,803.5,2917.1,794.4z"/>
	<path class="st3" d="M2973,525.1c-16.3-27.7-52-36.9-79.7-20.6c-27.7,16.3-36.9,52.1-20.6,79.8c16.3,27.7,52,36.9,79.7,20.6
		C2980.1,588.6,2989.3,552.8,2973,525.1z"/>
	<path class="st2" d="M3481.3,485.4c16.4-9.6,21.8-30.7,12.1-47c-9.6-16.4-30.7-21.8-47-12.2c-16.4,9.6-21.8,30.7-12.1,47.1
		C3443.9,489.6,3464.9,495.1,3481.3,485.4z"/>
	<path class="st3" d="M3015.1,1141.3c16.4,27.8,52.1,37,79.9,20.6c27.8-16.4,37-52.1,20.7-79.9c-16.4-27.8-52.2-37-79.9-20.6
		C3007.9,1077.7,2998.7,1113.5,3015.1,1141.3z"/>
	<path class="st3" d="M3388.7,1182.2c15.4-9.1,20.6-29,11.5-44.4c-9.1-15.4-29-20.5-44.4-11.4c-15.4,9.1-20.5,28.9-11.5,44.4
		C3353.4,1186.2,3373.2,1191.3,3388.7,1182.2z"/>
	<path class="st1" d="M3262.7,1005.9c-15.4,9.1-20.6,28.9-11.5,44.4c9.1,15.4,29,20.5,44.4,11.5c15.4-9.1,20.6-29,11.5-44.4
		C3297.9,1001.9,3278.1,996.8,3262.7,1005.9z"/>
	<path class="st1" d="M3153.2,817.4c16.1-9.5,21.5-30.3,12-46.4c-9.5-16.1-30.3-21.5-46.4-12c-16.2,9.5-21.5,30.3-12,46.4
		C3116.3,821.5,3137.1,826.9,3153.2,817.4z"/>
	<path class="st1" d="M4702.2,808.1c13.5-8,18-25.3,10-38.8c-7.9-13.5-25.3-18-38.7-10c-13.5,7.9-18,25.3-10,38.8
		C4671.3,811.5,4688.7,816,4702.2,808.1z"/>
	<path class="st2" d="M4727.7,1030.6c18.7-11,24.9-35.1,13.9-53.8c-11-18.7-35.1-24.9-53.8-13.9c-18.6,11-24.9,35.1-13.9,53.8
		C4684.9,1035.4,4709,1041.6,4727.7,1030.6z"/>
	<path class="st1" d="M4792.5,885.3c-9.1-15.6-29.2-20.8-44.8-11.6c-15.6,9.2-20.8,29.2-11.6,44.8c9.2,15.6,29.3,20.8,44.8,11.6
		C4796.5,921,4801.7,900.9,4792.5,885.3z"/>
	<path class="st1" d="M4548.5,875.6c-7.2-12.3-23.1-16.5-35.5-9.2c-12.3,7.3-16.4,23.1-9.2,35.5c7.3,12.3,23.2,16.4,35.5,9.2
		C4551.7,903.9,4555.8,888,4548.5,875.6z"/>
	<path class="st2" d="M4455.5,825.7c-11-18.7-35.1-24.9-53.8-13.9c-18.7,11-24.9,35.1-13.9,53.8c11,18.7,35.1,24.9,53.8,13.9
		C4460.4,868.5,4466.6,844.4,4455.5,825.7z"/>
	<path class="st1" d="M4343.8,1057.2c-27.2,16-36.2,51-20.2,78.2c16,27.1,51,36.2,78.1,20.2c27.2-16,36.2-51,20.2-78.2
		C4405.9,1050.2,4370.9,1041.2,4343.8,1057.2z"/>
	<path class="st3" d="M4205.9,873.2c-13-22.1-41.4-29.4-63.5-16.4c-22.1,13-29.4,41.4-16.4,63.5c13,22.1,41.4,29.4,63.5,16.4
		C4211.6,923.7,4218.9,895.3,4205.9,873.2z"/>
	<path class="st1" d="M3995.9,805.6c-14.9-25.2-47.3-33.6-72.5-18.7c-25.2,14.8-33.6,47.3-18.7,72.5c14.9,25.2,47.3,33.6,72.5,18.7
		C4002.3,863.3,4010.7,830.8,3995.9,805.6z"/>
	<path class="st2" d="M4307.2,595.4c-8.4-14.3-26.8-19-41.1-10.6c-14.2,8.4-19,26.8-10.6,41.1c8.4,14.3,26.8,19.1,41.1,10.6
		C4310.8,628.1,4315.6,609.7,4307.2,595.4z"/>
	<path class="st1" d="M4443.5,615.7c11.5-6.8,15.4-21.7,8.6-33.2c-6.8-11.5-21.7-15.3-33.2-8.6c-11.5,6.8-15.4,21.7-8.6,33.2
		C4417.1,618.7,4431.9,622.5,4443.5,615.7z"/>
	<path class="st1" d="M4215.6,402.2c-6.8-11.5-21.7-15.4-33.2-8.6c-11.5,6.8-15.4,21.7-8.6,33.2c6.8,11.5,21.7,15.4,33.2,8.6
		C4218.5,428.6,4222.4,413.8,4215.6,402.2z"/>
	<path class="st3" d="M3978.8,323.1c11.5-6.8,15.4-21.7,8.6-33.3c-6.8-11.5-21.7-15.3-33.2-8.6c-11.5,6.8-15.4,21.7-8.6,33.2
		C3952.4,326.1,3967.2,329.9,3978.8,323.1z"/>
	<path class="st3" d="M3714.6,914.3c6.8,11.5,21.7,15.4,33.2,8.6c11.5-6.8,15.4-21.7,8.6-33.3c-6.8-11.5-21.7-15.3-33.2-8.6
		C3711.6,887.9,3707.7,902.7,3714.6,914.3z"/>
	<path class="st2" d="M4564.4,1058.4c11.6-6.8,15.4-21.7,8.6-33.2c-6.8-11.6-21.7-15.4-33.2-8.6c-11.5,6.8-15.4,21.7-8.6,33.2
		C4538,1061.3,4552.9,1065.1,4564.4,1058.4z"/>
	<path class="st2" d="M3491,676.2c16.2-9.6,21.6-30.5,12-46.7c-9.5-16.2-30.4-21.6-46.7-12c-16.2,9.6-21.6,30.4-12,46.7
		C3453.9,680.3,3474.8,685.7,3491,676.2z"/>
	<path class="st3" d="M3142.3,511.9c14.3-8.5,19.1-26.9,10.7-41.2c-8.5-14.3-26.9-19.1-41.2-10.6c-14.3,8.4-19.1,26.9-10.7,41.2
		C3109.5,515.5,3127.9,520.3,3142.3,511.9z"/>
	<path class="st1" d="M3638.8,766.7c-11.8-20.1-37.7-26.8-57.8-14.9c-20.1,11.8-26.8,37.7-15,57.8c11.9,20.1,37.8,26.8,57.9,14.9
		C3643.9,812.7,3650.6,786.8,3638.8,766.7z"/>
	<path class="st1" d="M3605.7,921.6c-5.4-9.1-17.1-12.2-26.2-6.8c-9.1,5.4-12.1,17.1-6.8,26.2c5.4,9.1,17.1,12.1,26.2,6.8
		C3608,942.4,3611,930.7,3605.7,921.6z"/>
	<path class="st1" d="M5423.8,941.3c9.1-5.4,12.1-17.1,6.8-26.2c-5.4-9.1-17.1-12.2-26.2-6.8c-9.1,5.4-12.1,17.1-6.8,26.2
		C5402.9,943.6,5414.7,946.7,5423.8,941.3z"/>
	<path class="st1" d="M3315.5,682.6c-11.8-20.1-37.7-26.8-57.8-15c-20.1,11.9-26.8,37.8-14.9,57.9c11.9,20.1,37.8,26.8,57.8,14.9
		C3320.7,728.6,3327.4,702.7,3315.5,682.6z"/>
	<path class="st2" d="M3191.3,973c20.1-11.8,26.8-37.7,14.9-57.8c-11.8-20.1-37.7-26.8-57.8-15c-20.1,11.8-26.8,37.7-14.9,57.8
		C3145.3,978.2,3171.2,984.9,3191.3,973z"/>
	<path class="st1" d="M3503.4,1206.3c15.6-9.2,20.8-29.3,11.6-44.8c-9.2-15.6-29.2-20.7-44.8-11.6c-15.6,9.2-20.8,29.3-11.6,44.8
		C3467.7,1210.3,3487.8,1215.5,3503.4,1206.3z"/>
	<path class="st2" d="M3540.1,1117.2c11.5-6.8,15.3-21.6,8.6-33.1c-6.8-11.5-21.6-15.3-33.1-8.6c-11.5,6.8-15.4,21.7-8.6,33.1
		C3513.7,1120.2,3528.6,1124,3540.1,1117.2z"/>
	<path class="st1" d="M3705,1191.8c13,22,41.4,29.4,63.5,16.4c22.1-13,29.4-41.4,16.4-63.5c-13-22.1-41.4-29.4-63.5-16.4
		C3699.3,1141.3,3691.9,1169.8,3705,1191.8z"/>
	<path class="st3" d="M4443,980.3c11.2-6.6,14.9-21,8.3-32.1c-6.6-11.1-20.9-14.8-32.1-8.3c-11.1,6.6-14.8,21-8.3,32.1
		C4417.5,983.1,4431.9,986.9,4443,980.3z"/>
	<path class="st2" d="M5016.9,1030.8c13.7-23.3,6-53.3-17.3-67c-23.3-13.7-53.3-6-67,17.3c-13.8,23.3-6,53.3,17.3,67
		C4973.2,1061.8,5003.2,1054.1,5016.9,1030.8z"/>
	<path class="st2" d="M2660.1,872c23.3,13.7,53.3,6,67-17.3c13.7-23.3,6-53.3-17.3-67c-23.3-13.7-53.3-6-67,17.3
		C2629.1,828.3,2636.8,858.3,2660.1,872z"/>
	<path class="st2" d="M4935.6,787.6c17.8-30.2,7.7-69.1-22.4-86.8c-30.1-17.8-69.1-7.8-86.9,22.4c-17.8,30.2-7.7,69.1,22.4,86.9
		C4878.9,827.8,4917.8,817.7,4935.6,787.6z"/>
	<path class="st2" d="M5545.9,798.7c17.8-30.2,7.7-69.1-22.4-86.8c-30.1-17.8-69.1-7.8-86.9,22.4c-17.8,30.2-7.7,69.1,22.4,86.9
		C5489.2,838.9,5528.1,828.8,5545.9,798.7z"/>
	<path class="st3" d="M5078,946c25.7,15.1,58.8,6.6,74-19.1c15.1-25.7,6.6-58.8-19.1-73.9c-25.7-15.2-58.8-6.6-73.9,19.1
		C5043.7,897.8,5052.2,930.9,5078,946z"/>
	<path class="st2" d="M5034.8,455.5c18.5,10.9,42.4,4.8,53.3-13.7c10.9-18.5,4.7-42.4-13.8-53.3c-18.5-10.9-42.3-4.8-53.2,13.8
		C5010.1,420.8,5016.3,444.6,5034.8,455.5z"/>
	<path class="st1" d="M5054.1,708.3c26.9,15.8,61.5,6.9,77.3-20c15.8-26.9,6.9-61.5-20-77.4c-26.9-15.8-61.5-6.9-77.3,20
		C5018.2,657.8,5027.2,692.4,5054.1,708.3z"/>
	<path class="st3" d="M5453.6,627.8c12.9-21.8,5.6-50-16.2-62.8c-21.8-12.9-50-5.6-62.8,16.2c-12.9,21.8-5.6,50,16.2,62.8
		C5412.6,656.9,5440.7,649.6,5453.6,627.8z"/>
	<path class="st1" d="M5028.6,236.9c6.8-11.4,2.9-26.2-8.5-32.9c-11.4-6.7-26.1-2.9-32.9,8.5c-6.8,11.4-2.9,26.1,8.5,32.9
		C5007.2,252.2,5021.9,248.4,5028.6,236.9z"/>
	<path class="st3" d="M5273.6,1096.5c14.2,8.3,32.4,3.6,40.8-10.5c8.4-14.2,3.6-32.4-10.5-40.8c-14.2-8.3-32.4-3.6-40.8,10.6
		C5254.7,1069.9,5259.4,1088.1,5273.6,1096.5z"/>
	<path class="st3" d="M5269.2,577.7c18.8-31.9,8.2-73.1-23.8-91.9c-31.9-18.8-73.1-8.2-91.9,23.7c-18.8,32-8.2,73.1,23.7,92
		C5209.2,620.3,5250.3,609.7,5269.2,577.7z"/>
	<path class="st0" d="M4751.4,1228.3c18.6-11,24.9-35,13.9-53.6c-11-18.7-35-24.8-53.6-13.9c-18.6,11-24.8,35-13.9,53.6
		C4708.8,1233.1,4732.8,1239.3,4751.4,1228.3z"/>
	<path class="st0" d="M3940.2,1138.9c-9.4,5.6-12.5,17.7-7,27.1c5.5,9.4,17.6,12.5,27,7c9.4-5.6,12.5-17.7,7-27.1
		C3961.7,1136.5,3949.6,1133.4,3940.2,1138.9z"/>
	<path class="st0" d="M4010.4,1026.5c11.4-6.7,15.2-21.4,8.5-32.8c-6.7-11.4-21.4-15.2-32.8-8.5c-11.4,6.7-15.2,21.4-8.5,32.8
		C3984.3,1029.5,3999,1033.3,4010.4,1026.5z"/>
	<path class="st0" d="M2566.2,802.9c-8.7-5.3-19.9-2.3-25.1,6.7c-5.1,9.1-2.2,20.8,6.5,26.1c8.7,5.3,19.9,2.3,25-6.8
		C2577.8,820,2574.9,808.3,2566.2,802.9z"/>
	<path class="st0" d="M2761.7,1220.5c15.4,9.4,35.2,4.1,44.2-11.9c9.1-16,3.9-36.6-11.4-46.1c-15.4-9.4-35.2-4.1-44.2,11.9
		C2741.2,1190.5,2746.3,1211.1,2761.7,1220.5z"/>
	<path class="st0" d="M4929.1,1177.4c-4.9,8.8-2.2,20,6.3,25.2c8.4,5.1,19.2,2.2,24.2-6.6c5-8.8,2.2-20-6.2-25.2
		C4944.9,1165.7,4934.1,1168.6,4929.1,1177.4z"/>
	<path class="st2" d="M2473.4,1124.3c15.4,9.1,35.3,4,44.4-11.4c9.1-15.4,4-35.3-11.5-44.4c-15.4-9.1-35.3-4-44.4,11.5
		C2452.8,1095.3,2458,1115.2,2473.4,1124.3z"/>
	<path class="st3" d="M4058.3,1169.2c-14,23.7-6.1,54.4,17.7,68.3c23.8,14,54.4,6.1,68.4-17.7c13.9-23.7,6.1-54.4-17.7-68.4
		C4102.9,1137.5,4072.4,1145.4,4058.3,1169.2z"/>
	<path class="st3" d="M5439.1,1063.9c-6.8,11.5-3,26.4,8.6,33.3c11.5,6.8,26.4,2.9,33.2-8.6c6.8-11.6,3-26.4-8.6-33.2
		C5460.7,1048.6,5445.9,1052.4,5439.1,1063.9z"/>
	<path class="st1" d="M5114.8,1148c20.1,11.8,46,5.2,57.9-14.9c11.8-20.1,5.1-46-15-57.8c-20.1-11.8-46-5.2-57.8,14.9
		C5088,1110.3,5094.7,1136.2,5114.8,1148z"/>
	<path class="st1" d="M2499.6,602.6c-9.1-5.4-20.9-2.4-26.2,6.8c-5.3,9.1-2.3,20.8,6.8,26.2c9.1,5.4,20.9,2.3,26.2-6.8
		C2511.7,619.7,2508.7,607.9,2499.6,602.6z"/>
	<path class="st1" d="M4042.7,473.2c-12.9-21.8-41-29.1-62.8-16.3c-21.8,12.9-29.1,41-16.2,62.8c12.9,21.8,41,29.1,62.8,16.3
		C4048.3,523.1,4055.6,495,4042.7,473.2z"/>
	<path class="st0" d="M9107.6,674.6c4.7-8,2.1-18.4-6-23.1c-8-4.7-18.4-2.1-23.1,6c-4.7,8-2.1,18.4,5.9,23.1
		C9092.5,685.3,9102.9,682.6,9107.6,674.6z"/>
	<path class="st0" d="M9482.6,695.2c5.4-9.2,2.4-21.1-6.8-26.5c-9.2-5.4-21.1-2.4-26.5,6.8c-5.4,9.2-2.4,21.1,6.9,26.5
		C9465.3,707.5,9477.2,704.4,9482.6,695.2z"/>
	<path class="st0" d="M9609.7,718.2c-6.7-4-15.4-1.7-19.4,5c-4,6.7-1.7,15.4,5,19.4c6.7,3.9,15.4,1.7,19.4-5
		C9618.7,730.9,9616.4,722.2,9609.7,718.2z"/>
	<path class="st0" d="M9097.9,1186.9c6.7,3.9,15.4,1.7,19.4-5c4-6.7,1.7-15.4-5-19.3c-6.7-4-15.4-1.7-19.4,5
		C9089,1174.2,9091.2,1182.9,9097.9,1186.9z"/>
	<path class="st0" d="M9306.7,570.9c9.4,5.5,21.5,2.4,27-7c5.5-9.4,2.4-21.5-7-27.1c-9.4-5.5-21.5-2.4-27.1,7
		C9294.2,553.2,9297.3,565.3,9306.7,570.9z"/>
	<path class="st0" d="M8524.7,994.8c-4,6.7-1.7,15.4,5,19.3c6.7,4,15.4,1.7,19.4-5c4-6.7,1.7-15.4-5-19.3
		C8537.3,985.8,8528.6,988,8524.7,994.8z"/>
	<path class="st0" d="M9138.1,454c7.3-12.4,3.2-28.4-9.2-35.7c-12.4-7.3-28.4-3.2-35.8,9.2c-7.3,12.5-3.2,28.5,9.2,35.8
		C9114.7,470.5,9130.8,466.4,9138.1,454z"/>
	<path class="st0" d="M9281.6,695.8c-18.6-10.9-42.6-4.8-53.6,13.9c-11,18.6-4.8,42.6,13.9,53.6c18.6,11,42.6,4.8,53.6-13.9
		C9306.4,730.8,9300.2,706.8,9281.6,695.8z"/>
	<path class="st0" d="M8552.2,610.6c-10.3,17.5-4.5,40.1,13,50.4c17.5,10.3,40.1,4.5,50.4-13c10.3-17.5,4.5-40.1-13-50.4
		C8585.1,587.2,8562.6,593.1,8552.2,610.6z"/>
	<path class="st0" d="M8786.5,522.2c4.5-7.6,1.9-17.3-5.6-21.8c-7.6-4.4-17.3-1.9-21.8,5.7c-4.5,7.6-1.9,17.3,5.6,21.8
		C8772.3,532.3,8782.1,529.8,8786.5,522.2z"/>
	<path class="st0" d="M10062.6,483c-12.3-7.3-28.2-3.2-35.4,9.2c-7.3,12.3-3.2,28.2,9.1,35.4c12.4,7.3,28.2,3.2,35.5-9.1
		C10079.1,506.1,10075,490.2,10062.6,483z"/>
	<path class="st0" d="M9782.1,778.1c-9.4-5.5-21.5-2.4-27.1,7c-5.5,9.4-2.4,21.5,7,27.1c9.4,5.5,21.5,2.4,27-7
		C9794.6,795.8,9791.5,783.6,9782.1,778.1z"/>
	<path class="st0" d="M10045.4,671.2c-24.4-14.4-55.9-6.3-70.3,18.1c-14.4,24.5-6.3,55.9,18.1,70.3c24.4,14.4,55.9,6.2,70.3-18.1
		C10077.9,717.1,10069.8,685.6,10045.4,671.2z"/>
	<path class="st0" d="M9623.5,496.2c9.3,5.5,21.3,2.4,26.8-7c5.5-9.3,2.4-21.3-6.9-26.8c-9.3-5.5-21.3-2.4-26.8,6.9
		C9611.1,478.7,9614.2,490.8,9623.5,496.2z"/>
	<path class="st0" d="M9292.6,1086.5c18.6,11,42.6,4.8,53.6-13.9c11-18.6,4.8-42.7-13.9-53.6c-18.6-10.9-42.6-4.8-53.6,13.9
		C9267.7,1051.5,9274,1075.5,9292.6,1086.5z"/>
	<path class="st0" d="M8882.3,957.3c-11.4-6.7-26-2.9-32.8,8.5c-6.7,11.4-2.9,26,8.5,32.8c11.4,6.7,26.1,2.9,32.8-8.4
		C8897.5,978.7,8893.7,964.1,8882.3,957.3z"/>
	<path class="st0" d="M8375.5,1102.2c11.4,6.7,26.1,2.9,32.8-8.4c6.7-11.4,2.9-26.1-8.5-32.8c-11.4-6.7-26-2.9-32.8,8.5
		C8360.4,1080.9,8364.2,1095.5,8375.5,1102.2z"/>
	<path class="st0" d="M8811.8,857.7c9.2,5.4,21.1,2.4,26.5-6.9c5.4-9.2,2.4-21.1-6.8-26.5c-9.2-5.4-21.1-2.4-26.5,6.8
		C8799.5,840.4,8802.6,852.3,8811.8,857.7z"/>
	<path class="st0" d="M8551.6,374.4c-13.8-8.1-31.6-3.6-39.7,10.3c-8.1,13.8-3.5,31.6,10.3,39.7c13.8,8.1,31.6,3.5,39.7-10.3
		C8570,400.3,8565.4,382.6,8551.6,374.4z"/>
	<path class="st0" d="M9658,1078.9c9.1-5.6,12.1-17.8,6.7-27.2c-5.3-9.5-17-12.6-26.1-7c-9.1,5.6-12.1,17.8-6.7,27.2
		C9637.3,1081.3,9648.9,1084.4,9658,1078.9z"/>
	<path class="st0" d="M8959.9,837.6c8.4-5.2,11.2-16.4,6.3-25.2c-5-8.8-15.8-11.7-24.2-6.6c-8.4,5.2-11.2,16.4-6.2,25.2
		C8940.6,839.8,8951.5,842.7,8959.9,837.6z"/>
	<path class="st3" d="M8332.7,955.7c15.9,27,50.6,35.9,77.6,20c26.9-15.9,35.9-50.6,20.1-77.6c-15.9-27-50.6-35.9-77.6-20
		C8325.8,894,8316.8,928.7,8332.7,955.7z"/>
	<path class="st2" d="M8371.2,734.1c-15.4,9.1-20.5,29-11.5,44.4c9.1,15.4,28.9,20.5,44.4,11.4c15.4-9.1,20.6-29,11.5-44.4
		C8406.5,730.1,8386.6,725,8371.2,734.1z"/>
	<path class="st3" d="M8380.3,500.1c-27.7,16.3-36.9,52.1-20.6,79.8c16.3,27.7,52,36.9,79.7,20.6c27.7-16.3,36.9-52,20.6-79.7
		C8443.7,493,8408.1,483.8,8380.3,500.1z"/>
	<path class="st2" d="M8968.4,481c16.4-9.6,21.8-30.7,12.1-47c-9.6-16.4-30.7-21.8-47-12.2c-16.4,9.6-21.8,30.7-12.1,47.1
		C8930.9,485.2,8952,490.6,8968.4,481z"/>
	<path class="st1" d="M8725.5,1257.1c32.7-19.3,43.6-61.4,24.3-94.1c-19.3-32.7-61.4-43.6-94.1-24.3c-32.8,19.3-43.6,61.4-24.3,94.2
		c9,15.4,23.2,26,39,30.8l41.5-0.3C8716.5,1261.7,8721.1,1259.7,8725.5,1257.1z"/>
	<path class="st3" d="M8582,1157.5c27.8-16.4,37-52.1,20.7-79.9c-16.4-27.8-52.2-37-79.9-20.6c-27.8,16.4-37,52.2-20.6,79.9
		C8518.5,1164.6,8554.3,1173.8,8582,1157.5z"/>
	<path class="st3" d="M8875.7,1177.8c15.4-9.1,20.6-29,11.5-44.4c-9.1-15.4-29-20.5-44.4-11.4c-15.4,9.1-20.5,28.9-11.5,44.4
		C8840.5,1181.8,8860.3,1186.9,8875.7,1177.8z"/>
	<path class="st1" d="M8749.8,1001.4c-15.4,9.1-20.6,28.9-11.5,44.4c9.1,15.4,29,20.5,44.4,11.5c15.4-9.1,20.6-29,11.5-44.4
		C8785,997.5,8765.2,992.3,8749.8,1001.4z"/>
	<path class="st1" d="M8640.3,812.9c16.1-9.5,21.5-30.3,12-46.4c-9.5-16.1-30.3-21.5-46.4-12c-16.2,9.5-21.5,30.3-12,46.4
		C8603.4,817,8624.1,822.4,8640.3,812.9z"/>
	<path class="st1" d="M10035.6,871.2c-7.2-12.3-23.1-16.5-35.5-9.2c-12.3,7.3-16.4,23.1-9.2,35.5c7.3,12.3,23.2,16.4,35.5,9.2
		C10038.8,899.4,10042.9,883.5,10035.6,871.2z"/>
	<path class="st2" d="M9942.6,821.3c-11-18.7-35.1-24.9-53.8-13.9c-18.7,11-24.9,35.1-13.9,53.8c11,18.7,35.1,24.9,53.8,13.9
		C9947.4,864,9953.6,839.9,9942.6,821.3z"/>
	<path class="st1" d="M9830.9,1052.7c-27.2,16-36.2,51-20.2,78.2c16,27.1,51,36.2,78.1,20.2c27.2-16,36.2-51,20.2-78.2
		C9893,1045.8,9858,1036.7,9830.9,1052.7z"/>
	<path class="st3" d="M9693,868.8c-13-22.1-41.4-29.4-63.5-16.4c-22.1,13-29.4,41.4-16.4,63.5c13,22.1,41.4,29.4,63.5,16.4
		C9698.6,919.3,9706,890.8,9693,868.8z"/>
	<path class="st1" d="M9482.9,801.2c-14.9-25.2-47.3-33.6-72.5-18.7c-25.2,14.8-33.6,47.3-18.7,72.5c14.9,25.2,47.3,33.6,72.5,18.7
		C9489.4,858.8,9497.8,826.4,9482.9,801.2z"/>
	<path class="st2" d="M9794.2,591c-8.4-14.3-26.8-19-41.1-10.6c-14.2,8.4-19,26.8-10.6,41.1c8.4,14.3,26.8,19.1,41.1,10.6
		C9797.9,623.6,9802.7,605.3,9794.2,591z"/>
	<path class="st1" d="M9930.5,611.2c11.5-6.8,15.4-21.7,8.6-33.2c-6.8-11.5-21.7-15.3-33.2-8.6c-11.5,6.8-15.4,21.7-8.6,33.2
		C9904.1,614.2,9919,618.1,9930.5,611.2z"/>
	<path class="st1" d="M9702.6,397.8c-6.8-11.5-21.7-15.4-33.2-8.6c-11.5,6.8-15.4,21.7-8.6,33.2c6.8,11.5,21.7,15.4,33.2,8.6
		C9705.6,424.2,9709.5,409.3,9702.6,397.8z"/>
	<path class="st3" d="M9465.8,318.7c11.5-6.8,15.4-21.7,8.6-33.3c-6.8-11.5-21.7-15.3-33.2-8.6c-11.5,6.8-15.4,21.7-8.6,33.2
		C9439.5,321.6,9454.3,325.5,9465.8,318.7z"/>
	<path class="st3" d="M9201.6,909.8c6.8,11.5,21.7,15.4,33.2,8.6c11.5-6.8,15.4-21.7,8.6-33.3c-6.8-11.5-21.7-15.3-33.2-8.6
		C9198.7,883.4,9194.8,898.3,9201.6,909.8z"/>
	<path class="st2" d="M10051.5,1053.9c11.6-6.8,15.4-21.7,8.6-33.2c-6.8-11.6-21.7-15.4-33.2-8.6c-11.5,6.8-15.4,21.7-8.6,33.2
		C10025.1,1056.9,10040,1060.7,10051.5,1053.9z"/>
	<path class="st2" d="M8978.1,671.7c16.2-9.6,21.6-30.5,12-46.7c-9.5-16.2-30.4-21.6-46.7-12c-16.2,9.6-21.6,30.4-12,46.7
		C8941,675.9,8961.9,681.3,8978.1,671.7z"/>
	<path class="st3" d="M8598.8,455.5c-14.3,8.4-19.1,26.9-10.7,41.2c8.4,14.3,26.9,19.1,41.2,10.7c14.3-8.5,19.1-26.9,10.7-41.2
		C8631.5,451.9,8613.1,447.1,8598.8,455.5z"/>
	<path class="st1" d="M9125.8,762.3c-11.8-20.1-37.7-26.8-57.8-14.9c-20.1,11.8-26.8,37.7-15,57.8c11.9,20.1,37.8,26.8,57.9,14.9
		C9131,808.3,9137.7,782.4,9125.8,762.3z"/>
	<path class="st1" d="M9092.7,917.2c-5.4-9.1-17.1-12.2-26.2-6.8c-9.1,5.4-12.1,17.1-6.8,26.2c5.4,9.1,17.1,12.1,26.2,6.8
		C9095.1,938,9098.1,926.3,9092.7,917.2z"/>
	<path class="st1" d="M8802.6,678.2c-11.8-20.1-37.7-26.8-57.8-15c-20.1,11.9-26.8,37.8-14.9,57.9c11.9,20.1,37.8,26.8,57.8,14.9
		C8807.7,724.1,8814.4,698.2,8802.6,678.2z"/>
	<path class="st2" d="M8678.4,968.6c20.1-11.8,26.8-37.7,14.9-57.8c-11.8-20.1-37.7-26.8-57.8-15c-20.1,11.8-26.8,37.7-14.9,57.8
		C8632.4,973.7,8658.3,980.4,8678.4,968.6z"/>
	<path class="st1" d="M8990.4,1201.9c15.6-9.2,20.8-29.3,11.6-44.8c-9.2-15.6-29.2-20.7-44.8-11.6c-15.6,9.2-20.8,29.3-11.6,44.8
		C8954.8,1205.8,8974.9,1211,8990.4,1201.9z"/>
	<path class="st2" d="M9027.2,1112.7c11.5-6.8,15.3-21.6,8.6-33.1c-6.8-11.5-21.6-15.3-33.1-8.6c-11.5,6.8-15.4,21.7-8.6,33.1
		C9000.8,1115.7,9015.6,1119.5,9027.2,1112.7z"/>
	<path class="st1" d="M9192,1187.4c13,22,41.4,29.4,63.5,16.4c22.1-13,29.4-41.4,16.4-63.5c-13-22.1-41.4-29.4-63.5-16.4
		C9186.4,1136.9,9179,1165.3,9192,1187.4z"/>
	<path class="st3" d="M9930.1,975.8c11.2-6.6,14.9-21,8.3-32.1c-6.6-11.1-20.9-14.8-32.1-8.3c-11.1,6.6-14.8,21-8.3,32.1
		C9904.6,978.7,9919,982.4,9930.1,975.8z"/>
	<path class="st0" d="M10182.2,1175.8c-3.5,9-3.7,19.2,0,28.6V1175.8z"/>
	<path class="st0" d="M9427.2,1134.4c-9.4,5.6-12.5,17.7-7,27.1c5.5,9.4,17.6,12.5,27,7c9.4-5.6,12.5-17.7,7-27.1
		C9448.8,1132.1,9436.6,1129,9427.2,1134.4z"/>
	<path class="st0" d="M9497.5,1022.1c11.4-6.7,15.2-21.4,8.5-32.8c-6.7-11.4-21.4-15.2-32.8-8.5c-11.4,6.7-15.2,21.4-8.5,32.8
		C9471.4,1025,9486.1,1028.8,9497.5,1022.1z"/>
	<path class="st3" d="M9545.4,1164.8c-14,23.7-6.1,54.4,17.7,68.3c23.8,14,54.4,6.1,68.4-17.7c13.9-23.7,6.1-54.4-17.7-68.4
		C9590,1133.1,9559.4,1141,9545.4,1164.8z"/>
	<path class="st1" d="M9529.8,468.7c-12.9-21.8-41-29.1-62.8-16.3c-21.8,12.9-29.1,41-16.2,62.8c12.9,21.8,41,29.1,62.8,16.3
		C9535.4,518.7,9542.7,490.5,9529.8,468.7z"/>
	<circle class="st1" cx="3206.2" cy="1200.8" r="72.5"/>
</g>
</svg>
