<?xml version="1.0" encoding="utf-8"?>
<!-- Generator: Adobe Illustrator 25.1.0, SVG Export Plug-In . SVG Version: 6.00 Build 0)  -->
<svg version="1.1" id="Calque_1" xmlns="http://www.w3.org/2000/svg" xmlns:xlink="http://www.w3.org/1999/xlink" x="0px" y="0px"
	 viewBox="0 0 511.2 211.1" style="enable-background:new 0 0 511.2 211.1;" xml:space="preserve">
<style type="text/css">
	.st0{enable-background:new    ;}
	.st1{fill:#383837;}
</style>
<g id="Calque_2_1_">
	<g id="Calque_1-2">
		<g id="Calque_2-2">
			<g id="Calque_1-2-2">
				<g class="st0">
					<path class="st1" d="M16.1,140.3L8.2,75.7l17.1-2.1l16.3,22c4.7,6.3,9.5,13.9,13.2,20.9l0.3,0c-2-8.4-3.4-17.1-4.5-26.8
						l-2.3-18.9l13.4-1.6l7.9,64.6l-15.3,1.9l-16.8-23.2c-4.7-6.4-9.9-14.3-14-21.4l-0.3,0.1c1.4,8.5,2.7,17.6,4,28.1l2.4,19.5
						L16.1,140.3z"/>
				</g>
				<g class="st0">
					<path class="st1" d="M124.9,102.7c2.1,17.2-9.1,26.5-21.7,28c-13.7,1.7-25.4-6.1-27.2-21.2c-1.8-15.1,6.9-26,22-27.9
						C112.4,79.9,123.2,88.6,124.9,102.7z M91,107.4c1,8.1,5.1,13.7,11.3,12.9c5.7-0.7,8.6-6.8,7.6-15.2c-0.9-7-4.4-13.8-11-13
						C91.9,92.9,90.2,100.4,91,107.4z"/>
					<path class="st1" d="M135.2,112.9c2.9,1.3,8.7,2.5,13,2c4.4-0.5,6-2.3,5.8-4.7c-0.3-2.4-1.9-3.4-7.6-4.5
						c-10.1-2.1-14.5-6.9-15-12.5c-1.1-8.7,5.6-16.3,17.2-17.7c5.5-0.7,10.5,0,13.6,1.1L160.7,87c-2.2-0.9-6.5-1.9-10.5-1.4
						c-3.5,0.4-5.4,2.1-5.1,4.5c0.3,2.2,2.2,3.1,8.2,4.4c9.3,2,13.6,6,14.5,12.9c1.1,8.7-5.1,16-18.5,17.6
						c-6.1,0.7-11.8,0.1-15.5-1.4L135.2,112.9z"/>
					<path class="st1" d="M240.1,97.7c0.7,6.1,1.5,11.1,2.2,15l-12.7,1.5l-1.5-6.5l-0.3,0c-1.5,3.1-5.3,8.4-13.7,9.5
						c-9.5,1.2-17.2-3.9-19-18.4l-3.4-27.5l14.7-1.8l3.1,25.2c0.8,6.8,3.5,10.7,8.6,10c4-0.5,6-3.6,6.7-6c0.3-0.9,0.2-2.1,0.1-3.2
						l-3.4-27.9l14.7-1.8L240.1,97.7z"/>
					<path class="st1" d="M249.8,79.4c-0.7-5.8-1.5-10.8-2.2-14.9l12.7-1.5l1.5,6.3l0.3,0c1.6-3.2,5.8-8.3,13.6-9.2
						c9.6-1.2,17.5,4.3,19.2,18.1l3.4,27.8l-14.6,1.8l-3.2-26c-0.7-6-3.3-9.9-8.6-9.3c-4,0.5-6.1,3.6-6.7,6.4
						c-0.3,0.9-0.3,2.4-0.1,3.7l3.3,27l-14.6,1.8L249.8,79.4z"/>
					<path class="st1" d="M317.6,42.7c0.5,4-2.2,7.7-7,8.2c-4.6,0.6-8.1-2.3-8.5-6.4c-0.6-4.2,2.1-7.7,6.8-8.3
						C313.6,35.7,317,38.5,317.6,42.7z M309.9,104.5l-5.7-46.9l14.6-1.8l5.7,46.9L309.9,104.5z"/>
				</g>
				<g class="st0">
					<path class="st1" d="M341.2,53.1l9,21c1.6,3.8,2.9,7.4,4.1,11.1l0.3,0c0.3-3.9,0.6-7.6,1.2-11.7l3.4-22.5l15.3-1.9l-11.7,49
						l-14.6,1.8L325.4,55L341.2,53.1z"/>
				</g>
				<g class="st0">
					<path class="st1" d="M394.4,75.1c1.2,6,7.5,8.1,14.3,7.3c5-0.6,8.9-1.8,12.7-3.5l3.1,9.6c-4.6,2.5-10.3,4.2-16.6,4.9
						c-15.9,1.9-26.1-6.1-27.9-20.8c-1.5-11.9,4.3-25.9,20.6-27.9c15.1-1.8,22.3,9.2,23.8,20.8c0.3,2.5,0.3,4.7,0.2,5.8L394.4,75.1z
						 M410.4,63c-0.4-3.5-2.7-9.3-9.4-8.5c-6.1,0.7-7.9,6.6-7.9,10.6L410.4,63z"/>
					<path class="st1" d="M432.3,57.6c-0.8-6.9-1.6-11.4-2.3-15.4l12.6-1.5l1.5,8.6l0.4,0c1.6-7.1,7-10.7,11.5-11.2
						c1.3-0.2,2-0.2,3.1-0.2l1.7,13.7c-1.1-0.1-2.3-0.1-4,0.1c-5.4,0.7-8.7,4-9.1,8.6c-0.1,1,0,2.1,0.1,3.3l2.9,23.8l-14.6,1.8
						L432.3,57.6z"/>
					<path class="st1" d="M470.9,71.9c2.9,1.3,8.7,2.5,13,2c4.4-0.5,6-2.3,5.8-4.7s-1.9-3.4-7.6-4.5c-10.1-2.1-14.5-6.9-15-12.5
						c-1.1-8.7,5.6-16.3,17.2-17.7c5.5-0.7,10.5,0,13.6,1.1L496.4,46c-2.2-0.9-6.5-1.9-10.5-1.4c-3.5,0.4-5.4,2.1-5.1,4.5
						c0.3,2.2,2.2,3.1,8.2,4.4c9.3,2,13.6,6,14.5,12.9c1.1,8.7-5.1,16-18.5,17.6c-6.1,0.7-11.8,0.1-15.5-1.4L470.9,71.9z"/>
				</g>
			</g>
		</g>
		<path class="st1" d="M463.8,199.3l-2.3,1.7c-4,2.9-8.3,5.5-12.7,7.7l-4.5,2.4l-2.1-3.7l4.6-2.5c2.8-1.5,4.7-2.5,7-3.9
			c-8.9,0-17.8-0.9-26.6-2.7c-11.7-2.5-21.6-6.9-29.3-13.2c-8.4-6.8-14.9-16.4-19.3-27.8c-4.4-11.7-3.8-28.4-3.5-33.1l4.2,0.3
			c-0.3,4.6-0.9,20.5,3.2,31.4c4.1,10.7,10.2,19.8,17.9,26c7.2,5.9,16.5,10,27.5,12.3c8.5,1.7,17.2,2.5,25.9,2.6l-9.6-7.7l2.5-3.3
			L463.8,199.3z"/>
	</g>
</g>
</svg>
