<?xml version="1.0" encoding="UTF-8"?><svg xmlns="http://www.w3.org/2000/svg" viewBox="0 0 20 8"><path fill="#000" fill-rule="evenodd" d="M14.1491 2.480691c.834144.211652 1.661913.445068 2.489034.68309.222408.064135 1.23246.248767 1.67639.522093-.268396.08707-.538262.174765-.807281.260368-1.471248-.51907-2.921036-1.083634-4.3468-1.706047.330757.076189.660554.15625.988657.240496ZM.32255 3.264044c-.232842-.02332-.334294.316034-.106213.403752 3.16492 1.204494 4.224496.561754 7.541944.676618 2.232388.076429 4.456475.290664 6.67469.558506-1.569429.47992-3.142597.95103-4.71472 1.422562-.057238-.239073-.33984-.32444-.529961-.12245-.198966.21181-.466555.360048-.718173.498907-.669427.36646-.268847 1.318341.46179 1.087907 2.715759-.853015 5.428962-1.722272 8.153933-2.545411.336956.045834.673177.09198 1.009086.137393.398979.055027.662037-.300078.658632-.633042.192064-.056402.385285-.114162.57766-.16983.197831-.057118.319673-.276907.35175-.462927.157266-.908843-.68872-1.467204-1.448225-1.70534-.995607-.31205-2.00657-.584663-3.013035-.854852C13.236949 1.02256 11.231122.568399 9.184205.352598c-.702914-.07416-.867482.825655-.297147 1.131094 1.489344.794682 3.016345 1.53093 4.57508 2.194796-1.82439-.18204-3.651351-.323134-5.48667-.365384-1.696635-.040473-3.39286.054897-5.091101.022903-1.684722-.030803-.891788.095893-2.561817-.071963Z"/></svg>