<svg viewport="0 0 255 101" xmlns="http://www.w3.org/2000/svg"><path d="M231.778 46.92c.681.782 2.79.801 3.789 1.411-1.5.376-2.978-.761-4.883-1.153-1.506-.31-3.202-.526-4.915-.69 2.747-.8 5.663-1.69 7.39-1.52 1.905.184 2.361 1.814 4.094 2.01.45-.53.822-1.058 1.13-1.593 1.075.808 1.9 1.738 2.386 2.788-2.442 2.23-5.568-1.053-8.991-1.252Zm3.396 6.23c1.112-.058 1.648-.006 2.661.256-.187.364-.12.617.339.702-.734.124-2.932-.323-3-.958Zm-6.382 2.623c-.982-.003-2.217.308-3.876-.062-.685.277-1.759.177-2.66.242 2.882-1.688 7.915-2.107 11.514-.348-1.3-.867 2.359.15 3.486.544-2.438.895-5.522-.363-8.464-.376Zm3.787 3.454c.672-.422 1.976.174 2.956.245-.221.817-3.41.1-2.956-.245Zm-9.861-.348c2.951-.333 7.406-.495 11-.034-2.664.868-7.682 1.022-11 .034Zm3.563 1.93c.362-1.31 1.825-.667 3-.535-.688.73-1.98.392-3 .535Zm-9.041-4.014c-.943 1.038-3.65 1.75-4.601.23 3.366-.795 7.267-.843 11-1.125-1.455 1.72-3.67 1.526-6.4.895Zm-14.192 2.324c.4-.267.281-.428-.372.036l-.051.005c-2.505-.017-4.514.245-6.422.565-2.66.197-5.277.334-7.726.337 2.995-1.143 7.646-.818 11.182-1.48 3.228.593 6.986-1.43 8.818.007-1.75.165-3.577.35-5.43.53Zm3.072 6.459c-5.49.703-10.59 1.766-16.642 1.952-3.62.435-7.452.673-11.262.934-.109-.612-3.235-.341-2.133-.044-1.259-.155-2.452.247-4.31.082.427.528.2.787-1.025.764.236-.137.547-.207.877-.257-5.277-.536-12.296.181-18.511.016-2.07-.053-6.482.422-2.606-.266 15.156.02 29.437-1.899 43.521-2.156 3.838-.733 8.32-.871 12.448-1.335 1.258.224-.296.058-.357.31Zm-45.906 4.153c.349-.59 1.19-.366 2-.2-.347.589-1.187.368-2 .2Zm-41.44 4.915c-4.467.771-8.018-1.52-13-1.77 4.283-.434 9.466 1.195 13 1.77Zm-37.108 2.708c4.464 1.247 8.77 2.58 13 3.954-5.136.44-9.474-2.4-13-3.954Zm4.845 3.815c.322-.576 1.384.169 2 .113-.05 1.066-1.776.182-2-.113ZM57.009 79.97c-2.496-2.23-6.298-3.767-9.664-5.537 3.593-.373 8.57.71 12.686.89 1.934 1.739 4.621 3.078 6.314 4.943-2.868.157-5.908.135-9.336-.296ZM24.527 45.718c1.275.73 2.58 1.428 3.923 2.096-2.322-.083-4.63-.16-6.912-.224a464.381 464.381 0 0 0-6.088-2.776c2.88.411 5.943.684 9.077.904ZM134.5 31.071c1.456-.079 4.405-.95 5.552.157-1.042.054-2.093.1-3.148.144.062-.04.126-.065.187-.112-1.276-.008-2.128-.215-3.11-.145-2.348.17-4.716.353-7.103.516-15.31.178-31.19-.592-44.826-1.975 15.2.44 35.637 2.327 52.448 1.415Zm-15.927-9.318c3.146 1.062 8.416-.305 11.38.723-27.605.26-53.016-.909-72.458-5.966 2.438.188 8.041.75 9.717 1.446 7.234.402 15.823 1.01 23.876 1.627 17.291 1.325 35.789 2.116 52.75 0 4.353-.176 7.6.027 11.657.362-11.323 1.17-24.163 2.154-36.922 1.808Zm17.587.954c-.159-1.304 2.003.014 1.897-.534.525.922-1.28-.082-1.897.534Zm-10.297 1.72c.726-.01 1.674.008 2.126 0-1.436 1.332-6.8.063-2.126 0Zm35.577-4.96c-.479.673-2.447.796-3 .536.283-.257 1.566-.734 3-.535Zm45.489-9.656c-.34.72-1.49-.002-2 0 .177-.572 1.757-.252 2 0Zm21.23 3.196c1.656-.345 1.596.615 3 .459-.363.636-1.842.425-3 .456v-.915Zm9.858 27.479c-.663-.205-1.698-.187-2-.606a1.35 1.35 0 0 1 .244-.394c.663.282 1.209.648 1.756 1Zm-16.448 7.218 1.486-.397c.217-.059.444-.127.668-.192 2.096.973 8.025.384 7.841 2-3.039-1.138-6.6-1.34-9.995-1.41Zm11.456 4.31c-.014.391-1.129-.204-.9.402-11.019-1.477-19.667-.834-28.314-.193 3.23-.997 7.572-.997 11.569-1.31-7.365-.498-13.671 1.355-21.547 1.171 1.128-.14 1.872-.277.861-.248a35.72 35.72 0 0 0-2.435.184c-.372-.022-.742-.041-1.122-.073 1.868-.41-.986-.257-1.977-.361.213-.151.451-.248.701-.316.985.037 1.968.065 2.946.084.776.11 1.515.184 2.114.017.29 0 .581.002.87-.002.771.002-.652.425.551.312 3.054-.469 6.61-.338 10.445-.624 3.177-.236 6.103-.65 8.877-1.14.513.001 1.03.01 1.56.032.243-.214.757-.186.896-.49l.225-.043c1.144.208 2.575.33 3.824.53-1.513.457-3.557.438-5.592.43 4.76.578 11.93-1.126 16.583 1.158-.215.111-.52.398-.135.48Zm.84-.488c.257-.743 1.424-1.153 2-.558-.494.442-.92.99-2 .558Zm1.58 3.388c-.29.56-1.804-.009-2-.303.293-.555 1.807.01 2 .303Zm.218.966c-1.028.747-4.753-.134-6-.496 1.495-.69 3.635.527 6 .496ZM108.168 71.587c-.443 1.015-2.027-.084-3-.058.622-.685 1.921-.108 3 .058Zm42.745-46.066c-1.101.966-4.348 1.05-6 .535 1.032-1.214 4.141-.202 6-.535Zm-9.69.009c1.9-.49 6.262-1.648 8-.527-1.673.913-5.218.01-8 .527Zm35.634 24.121c-1.86 1.307-5.636-.008-7.778.918a.666.666 0 0 1-.202-.255c3.914-.898 8.364-.846 13-.558-1.46.15-3.066.176-5.02-.105Zm10.053 2.018c.446-.553 1.27-.403 2-.432-.457.53-1.053.807-2 .432Zm-52.494-8.781c-.25.082-.529.128-.793.192a572.79 572.79 0 0 1-12.207-.343c4.146-.61 8.448.727 13 .15Zm9.783-3.434c-.014-.08.022-.141.08-.194 1.432-.024 2.875-.04 4.36-.027a109.536 109.536 0 0 0-3.732-.168c.567-.069 1.336-.047 1.781-.093 2.092-.218 4.608-.493 8.016-.362.48.157 1.17.4 2.492.482-3.656.337-8.787.67-12.997.362Zm-.933 5.295a56.977 56.977 0 0 1 6-.037c-1.998.017-3.997.034-6 .037Zm18.411 4.642c-3.435.16-7.223-.372-9.896.247-4.1-.518-8.504.005-13.071-.028-.306-.002-.624-.02-.938-.033.873-.03 1.744-.065 2.615-.111 4.894-.258 9.893-1.005 14.88-.79 2.98.13 5.742.381 8.505.627-.7.028-1.4.055-2.095.088Zm4.505 2.126c.04.176.142.288.368.274-.21.717-1.401-.116-2-.01.16-.696.943-.408 1.632-.264Zm-50.4-9.508h.535c.216-.001.36.01.465.024-.333-.008-.667-.018-1-.024Zm-1.952 8.876c-2.996-.516-8.495-.506-12.048-.258-3.228-.236-6.403-.484-9.512-.724 7.7-.104 15.766.272 24 .56-.878.028-1.712.137-2.44.422Zm6.844-1.59c-.727-.01-1.494-.158-2.26-.293.997.077 1.999.145 3 .206-.244.055-.49.092-.74.087ZM89.837 48.27c.069-.387 2.309-.621 1.964.267-.91.156-1.306-.181-1.964-.267Zm91.097-1.093c-6.38.708-14.184-.073-21 0 5.907-1.393 14.25-.337 21 0Zm-11.164-.59c.288-1.048 3.268-.521 4-.27-.807.619-2.753.097-4 .27Zm-3.277-4.71a30.35 30.35 0 0 0-1.898.195c.286.387 1.983-.06 2.307.303-3.118.16-6.253.757-10 .302 2.257-.156 4.529-.504 6.816-.832.917.015 1.872.05 2.775.033Zm-74.8.148c-.753.164-.552-.446-1.1-.446 5.588-.138 10.94 1.068 18.183 1.565 2.375.163 4.947-.348 6.817.424a331.252 331.252 0 0 0-8.053-.008c-5.437-.196-10.994-.569-15.847-1.535Zm82.69-1.324c.3.062.6.125.9.208-2.544.55-5.19.322-8 .523.776-.134 1.463-.398 1.935-.942-.017-.004-.025-.015-.04-.02.151-.014.303-.026.455-.038a1.263 1.263 0 0 0-.229.34c1.784.16 3.408.084 4.979-.071Zm-12.757-2.716c.028-.165.087-.28.139-.403.344.104.63.27 1.103.234-.11.322-1.742.573-2 .031.258.045.513.091.758.138Zm16.861 26.251c-1.822.56-3.887.715-6 .796 1.217-.268 2.415-.554 3.618-.837a18.052 18.052 0 0 1 2.382.041Zm4.309-.693c-.77.553-1.721.834-3 .619.797-.506 1.919-.533 3-.62Zm5.837-3.885c-.987.81-2.38.92-4 .633.105-.116.222-.206.349-.283.355-.105.714-.206 1.069-.312.825-.073 1.775.067 2.582-.038Zm40.156-4.76c-.897.61-2.79.315-3.935-.077.164-.417 1.143.095 1.165-.49-4.626-.6-9.601.918-13.701.499 2.334-.543 4.66-1.09 6.978-1.643-2.678.483-5.4.97-8.15 1.455-.936-.2-1.819-.528-2.624-1.05 3.101-1.49 6.107-.277 9.437-.927-.087.161-.303.174-.35.381.852.278 1.055-.182 1.84.021.31-.539-1.245-.006-.931-.545.605-.976 3.575 1.055 4.495-.064 3.216.295 5.617.19 7.69.98-.066.709-1.189.203-1.68.423.06.785 1.546-.245 1.492.407.425-.816 1.627-.744 3.007-.47-1.548 1.096-4.618.45-6.99.6.165.505 1.592.284 2.257.5Zm11.947-9.13c-.62-.84-1.567-1.565-2.73-2.185a6.779 6.779 0 0 0 .002-1.815c.482.384.996.714 1.67.85.089 1.112 2.026 1.909 1.058 3.15ZM107.727 79.276c-2.015 1.095-3.248-.438 0 0Zm-33.51 9.8c-.02.395.057.741.492.908-.462.222-1.507-.49-2-.732.76-.639.616.333 1.507-.175ZM13.88 57.38c.522-.445 1.23.63 2 .69-.978.685-1.314-.583-2-.69Zm238.726 6.398c-2.352-.365-4.58-.801-4.99-2.24-.115.292-.084.743-.444.761-.573-.258-1.15-.512-1.646-.813.486-.377 1.248-.455 1.345-1.26-.556-.667-1.777-.97-1.925-1.865-.018-.77 1.391.029 1.257-.866-1.162-.392-2.177-.866-2.484-1.73.027-.72 1.02-.376 1.045-1.094-1.648-.527-3.4-.994-3.364-2.45 2.08.286 3.022-.67 4.46-1.084.37-1.067-.073-1.681.399-2.804-1.255.003-1.617-.487-1.857-1.044.717-.207 1.646-.184 1.81-1-.532-.576.731-1.636.143-2.833-1.337-.185-1.887-1.71-3.09-1.398.423.408 1.565 1.312.605 1.906-1.629-1.596-3.99-2.82-6.783-3.74.722-.802 2.048-1.183 2.375-2.26-.113-.22-.319-.375-.568-.5 2.676.658 5.197 1.43 7.282 2.302.54.907.6 2.078 1.134 2.989.947.295 1.024-.37 1.674-.404.036-1.055-.706-1.68-.673-2.732-2.504-1.646-6.564-2.946-10.917-3.86.314-.662-.413-1.421.125-2.244.442-.674 2.1-.843 2.22-1.741.124-.913-1.078-1.087-1.388-1.936-.677-1.864-.158-3.516 1.667-4.642-.841-.124-1.604-.302-1.667-.968-.84-.12-1.092 1.154-1.94.388.186-1.526 5.442-.898 7.214-1.935-1.662.102-3.427.421-5.274 0 .602-.622 1.42-.924 1.667-1.74.644-2.142-1.03-4.023-1.667-6.191 1.136.083 1.452-.41 1.943-.774-.19-.834-1.124-1.151-.832-2.321-.938.418-.711-.418-1.111-.581-5.825-2.37-16.852-.208-22.204-.386 6.126-1.68 10.394-2.884 17.763-2.516-1.848-1.155-5.915-1.023-8.602-.773-3.982.368-8.309 2.118-11.656 2.514-.532-.082-.503-.553-1.389-.387-.035.779-3 1.275-4.163 1.162.913-.288-.822-.302-.832-.58 5.949-1.657 11.4-3.662 17.763-5.031-2.218-.187-4.088.887-5.551.58 3.48-1.206 7.96-1.799 12.766-1.16-1.99-1.59-5.543-1.897-8.325-1.74-7.444.417-15.616 3.05-24.149 3.48-3.975.201-6.62.64-9.99.775-1.627 1.624-5.52.624-8.324 1.547 3.012.482 4.9-.232 6.66.774-.5 1.007-4.223-.235-4.719.774.326.03.788-.034.833.194-1.42.365-3.706.125-5.552.193 3.936 1.028 13.517-.29 17.763 1.16-4.412.214-8.51.644-12.49 1.16-.026-.216.405-.3 0-.385-4.66.726-6.983 2.614-13.597 2.32.957.745-.449.79.832 1.162-.71.02-1.321.109-1.664.386 1.924.249 4.366-.315 6.381.194-4.452 1.41-12.394.388-17.488 1.354 1.585.19 4.303-.418 5 .387-6.49.81-11.86.63-18.595 1.16-1.561.123-3.159.666-4.72.774-3.959.276-7.984.094-12.492.387-3.32.217-8.671.609-13.042.387-15.186-.77-30.844-1.272-43.299-3.095-5.202-.761-10.897-1.294-15.54-2.322-.523-.114-.862-.64-1.389-.773-2.883-.732-4.607-1.038-7.214-1.741-2.064-.556-4.513-.793-6.386-1.354-2.719-.817-5.038-2.03-8.048-2.708-1.391-.314-2.684-1.268-3.885-1.741C22.598 4.76 15.252 2.526 9.1.434c.182 1.421 2.405 1.625 3.884 2.128 4.854 1.65 9.589 3.615 14.712 4.837.88.548 1.649 1.171 3.331 1.16.081.653 1.23.561 1.387 1.16 2.101-.239 2.133.965 4.163.775 2.963 1.932 7.16 3.006 10.827 4.45.108.462-1.265-.108-.837.579.862-.07 1.74.837 2.224.388-.263-.398-1.431-.165-1.387-.774 12.463 3.566 26.705 6.851 42.74 8.125 8.72.692 17.897.562 27.2 1.354-25.795.03-49.987-2.671-68.275-8.512 22.559 8.65 57.276 9.787 91.59 9.092-.381.61 1.82.376.83.773-1.178-.442-2.152-.442-3.332 0 1.124-.92-2.503.056-3.052.388-5.157-.607-10.038-.133-13.598-.194-1.382-.023-2.742 0-4.163 0-19.438 0-37.86-1.848-52.734-4.449C54.25 18.875 43.94 16 35.189 12.042c-5.331-.136-9.636-3.565-15.54-3.289 5.22 1.971 11.795 2.997 16.097 5.61 1.482-.259 1.296.646 2.774.387 1.714 1.369 4.164 2.106 6.941 3.095 5.116 1.823 12.38 3.832 17.763 5.03 22.153 4.929 50.866 5.056 77.99 4.643-6.974.93-17.665 1.235-24.702.966-5.018-.19-10.363.106-14.986-.193-15.595-1.008-29.86-3.348-42.741-5.804-13.683-3.748-24.728-9.332-39.414-12.38-1.452-.666-2.984-1.273-4.998-1.548-2.133-1.218-4.02-2.613-7.214-3.094-.402 1.525-1.91 2.28-1.665 4.255.348.53 1.747.33 1.665 1.16-2.274.858-1.229 3.394.276 4.257h4.163c.785 1.495-.24 3.105 0 4.836-1.743.589-2.736 1.703-3.607 2.901-3.29.057-4.58 2.945-2.22 4.256 2.516.403 3.548-.375 6.106-.387.793 1.155 1.249 2.574 1.55 4.09l-.36-.036c.127.06.257.11.385.165.12.623.215 1.259.296 1.901-4.727-.087-9.525-.092-13.945-.427 3.978.225 6.316 2.063 9.963 1.22-.501-.184-1.737.037-1.743-.418 1.912.101 3.85.197 5.802.29.07.624.132 1.249.195 1.865-4.522-.236-9.552-1.064-14.172-.915 4.087.38 8.654 1.484 12.518 1.531.365.006 1.023-.023 1.71-.073.136 1.28.292 2.503.575 3.576 2.01.54 3.617 1.3 5.07 2.152-3.592-.254-7.103-.652-10.436-1.268-.687-.411-1.501-.768-2.126-1.077-1.003-.5-.971-.908-1.665-.968a4.213 4.213 0 0 0-2.462.536 39.194 39.194 0 0 1-2.445-.856c.55.492 1.15.939 1.78 1.36-.57.555-.89 1.272-.76 2.056.155.936 1.483 1.04 1.943 2.126 1.848.99 3.738 1.963 5.666 2.914-1.889-.907-3.606-1.871-5.337-2.347 1.098 1.29 3.129 2.063 3.9 3.533-.696-.305-.764-.955-1.858-1.04-.704 2.34 3.071 2.208 2.04 4.73 2.663 2.264 5.732 4.3 9.353 6.034-3.379-.549-5.867-2.5-7.916-3.209 1.39 1.07 2.347 2.378 3.945 3.335-.397.695.203 1.11-.327 1.386 3.29 1.285 6.374 2.682 8.961 4.357-3.134-.74-5.949-2.574-7.871-3.409 2.306 1.783 5.323 4.324 9.795 5.275 6.216 1.321 13.536 1.078 19.462 2.176-7.548-.187-18.95-.318-25.753-3.355 1.012 1.634 3.822 2.589 6.081 3.192 8.492 2.256 21.08.724 30.282 3.092-10.49-.527-22.478-.955-32.05-2.293 8.018 2.218 19.98 1.333 26.871 3.085-1.12.02-2.941-.735-3.414-.009 4.123.623 8.387.074 12.308 1.301.065.31.26.546.325.855-.715.296-2.16-.211-2.696.281.915.387 2.3.131 2.926.97-6.656-.392-11.69-.522-19.485-.959-8.068-.452-14.345-.962-18.463-3.072 5.06 4.946 19.753 2.656 27.566 4.595.435 2.228 2.133 3.761 3.732 5.346-3.613.516-8.824-.717-12.541-.312 4.49 1.12 9.543-.085 13.843 1.49 1.202.44 1.828 1.535 2.898 2.189 3.36 2.05 8.365 3.886 12.259 5.983.733.393 1.008 1.104 1.762 1.438.487.215 1.257.037 1.79.218 1.876.637 3.91 1.867 5.92 2.762 4.276 1.903 8.816 3.733 12.907 5.452-.935-.023-3.611-.656-3.367-.21.498.185 1.849-.103 1.44.582.018-.172-2.584-.346-2.092-.05 2.227.12 5.206 1.06 6.527.188-1.741.003-2.178-1.438-3.46-2.055-2.502-1.207-5.8-1.962-8.473-3.073-1.623-.674-3.11-1.68-4.388-2.575 2.71.234 4.1 2.626 6.364 2.002.307-.974-2.622-.16-2.367-1.104.503-.03 1.474.456 1.368-.24-2.086.002-1.74-1.338-3.9-1.293-4.996-3.673-12.616-5.9-17.131-9.839 2.499-.468 6.46-.19 9.127.301 2.039 2.509 6.9 2.607 8.52 5.12.596.071 1.191.144 1.79.217.542.848 2.245 1.057 2.689 1.96 2.371.085 3.963 2.714 5.69 1.51-4.59-2.861-9.932-5.314-13.44-8.774 5.121-.198 7.436 3.446 12.564 3.572-2.594-1.094-5.424-2.058-7.315-3.543 2.521-.011 2.656 1.292 4.318 1.75.36-.183.597-.506 1.373-.236.328-1.008.123-.917.372-1.584 3.318.405 4.552 1.963 7.546 2.553-.881-1.352-4.233-1.34-5.155-2.67 1.344.063 1.423.823 2.973.773.563-.656-.84-.227-.629-.689 4.047-.198 7.885-.114 11.685.613-.114-.452-1.644-.125-1.696-.613 10.476 1.844 20.807 3.094 33 3.835-6.119-1.562-17.046-1.55-22.244-3.743 6.91.235 16.792 3.094 22.317 2.325-2.017-.783-5.84-.565-7.826-1.365.72-.038 1.967.499 2.348.083-.513-.725-2.364.303-2.462-.71 1.447-.156 3.177.001 4.526-.26-9.448-.127-21.245-1.994-28.955-5.378 2.724.462 7.497 1.252 11.147 1.772.422-.921-2.12-.208-2.163-.875 3.069.51 4.93.616 8.177 1.001-1.153-1.49-5.646-1.135-7.944-1.993 7.713.161 18.998 2.847 28.406 3.274 1.197.054 4.411-.086 6.623-.001-.019-.005-.033-.006-.051-.01.065-.26.492-.126.604-.334-8.531-.319-20.169-.649-27.075-3.313 24.154.873 44.596.67 67.099-.347 2.041-1.415 6.401-.281 8.524-1.605-11.795.368-24.33 1.815-36.956 1.794-14.224-.023-29.25.242-43.636-3.303 7.104-.141 15.64.836 22.25 1.501.26-.629 1.747.09 1.971-.575-2.4-.308-5.22.245-7.453-.706 2.42-.17 5.53.425 7.642-.084-.915-.243-2.604-.056-3.017-.573 4.506.466 9.107-.228 13.192-.22 9.618.019 18.353-.847 27.082-1.169 5.414-.198 11.376-1.705 16.933-1.594 1.395-.85 2.62-.383 3.948-1.146-.417.631.722.405 1.185.55.167-.378-.252-.434-.37-.655 5.075-.512 10.169-2.347 15.634-2.774 1.381-.108 3.018.348 4.434.136 1.745-.261 3.324-2.091 5.368-1.584 2.299-2.403 8.625-2.623 13.613-2.002 3.188.397 5.712.42 7.569 1.333-.043.704-.24 1.23-1.256.865-.467.602.794.254.327.855-7.52 2.297-16.346 4.489-23.14 6.744 8.564-1.31 16.353-4.807 25.112-5.076-2.277 2.366-7.677 1.899-10.316 3.626 2.617-.003 5.506-1.177 8.268-1.634 2.315-.384 5.594-.314 6.065-2.315-.134-.757-1.298.679-1.534-.187.065-.265.129-.529.188-.793 1.295.264 2.643.495 3.134 1.199-1.122 1.043.65 1.4.3 2.073-1.64 3.187-6.971 2.313-9.69 4.316 2.382-.29 4.185-1.219 6.853-1.198-1.28.751-3.111.902-4.345 1.708a61.734 61.734 0 0 0 8.527-1.605c2.498-2.834 1.623-6.535-.69-8.235Z"/></svg>