<svg xmlns="http://www.w3.org/2000/svg" viewBox="0 0 165 46" xml:space="preserve"><path d="M7.4 9.3s-.1.1 0 0c-.1.3-.4.3-.7.4v-.1c.2-.1.4-.2.7-.3zm79.5-6.6c.1-.2.1-.3.2-.4l.1.1c-.1.2-.2.2-.3.3zm-49.7 7.7s-.1.1-.2.1h-.3c.2 0 .4 0 .5-.1zM17.8 43.6l.1-.1.1-.1h.1l.1-.1h.1l-.2.2c-.2 0-.3.1-.3.1zm125.4-15.1h-.4c.1-.1.2-.1.4 0zm-2.4 0h.4-.4zM65.4 40.3c-.1.1-.2.3-.3.4-.1-.1-.3-.2-.4-.3.2 0 .4 0 .7-.1zm-52.2-7.1c0 .2-.1.4-.4.5.2-.1.3-.3.4-.5zm134-7.5s0-.1-.1-.1c-.1-.1-.2-.2-.3-.2.1 0 .1.1.2.1s.1.1.1.1c.2 0 .2 0 .1.1zm-79.5 2.6s.1 0 0 0c.1.1.2.1.3.2.1 0 .1.1.2.1l-.1-.1c-.1 0-.1-.1-.2-.1 0 0-.1 0-.2-.1.1 0 .1.1.2.1-.1 0-.1 0-.2-.1zm9.1 4c.1 0 .3.1.4.1-.1.1-.1.2-.2.2-.1-.1-.1-.2-.2-.3zm19-9h.4c0 .1 0 .2-.1.2s-.2-.1-.3-.2zm5.5-6c-.1.1-.2.1-.3.2l-.1.1c.1 0 .1-.1.1-.1 0 .1-.1.1-.1.1h-.1c.1 0 .2 0 .3-.1 0-.1.1-.1.2-.2zM68.2 28.7s0-.1 0 0c0-.1 0-.1 0 0-.2-.1-.3-.2-.3-.3l-.1-.1.4.4c0-.1 0 0 0 0zm-13.9-8.2h-.6c.2-.1.4-.1.6 0zM40.1 31.6h-.2c0-.1.1-.3.1-.4 0 .2.1.3.1.4zm-9.4-8.9c-.1-.2 0-.4.3-.4.1 0 .2 0 .3.1-.1 0-.3.1-.6.3zm0 2.6c.2.1.4.3.5.4-.1-.2-.3-.3-.5-.4zM23 17.4c.1.1.2.1.3.2l-.5-.1c0-.1.1-.1.2-.1zM164.9 10c-1.2 0-2.3-.1-3.5 0-.4-.3-.8-.3-1.3 0h-.3c-.9-.3-1.8-.1-2.7-.2h-.1s0-.1-.1-.1l-.3-.3c-.1-.1-.3-.2-.4-.3-.1 0-.1 0-.2-.1s-.1-.2-.2-.3c.1-.1.2-.1.3-.2h.1c.1 0 .2-.1.3-.2.1 0 .1-.1.2-.1h-.3c-.1 0-.1 0-.2-.1-.3-.2-.7 0-1-.2-.4 0-.8.1-1.3-.1-.2-.1-.4-.1-.6 0-.2.1-.4.1-.6 0-.2-.1-.5-.1-.7-.2-.1 0-.2-.1-.2-.1 0-.1.1-.2.2-.2v-.1l.1-.1c.1.1.2.1.2 0s.1-.1.2-.1c.2-.1.5-.1.8-.2l.1-.1h.1c.2-.1.5-.1.7-.3.2-.1.4-.1.6-.2l.6-.1c.4-.2.8-.3.4-.7-.8-.3-1.6-.2-2.4-.1h-.1c0-.1 0-.1-.1-.2h-.2l-.1.1h-.2c-.2.1-.4.1-.6 0-.3 0-.6 0-.9-.1-.2 0-.4 0-.6-.1-.2-.1-.5-.1-.6-.2-.3-.2-.6-.1-.9-.2 0-.1 0-.2-.2-.2-.5-.2-1 0-1.5 0-1-.1-2.1.2-3.1-.1-.7 0-1.5.1-2.2-.1-.1-.1-.3 0-.4.1-.7-.3-1.6 0-2.3-.3h-.1c-1 .3-2.1-.1-3.1.2-.1 0-.3-.1-.4-.1-1.1-.1-2.2.1-3.3-.1h-.1c-.9.2-1.8.2-2.7 0h-.1c-.3.1-.6.1-.9 0-.6.1-1.2.2-1.8 0h.1c-.6.2-1.2 0-1.8.2-.2 0-.3-.1-.5-.2-.4-.3-.9-.4-1.5-.4-.1-.1-.2-.1-.3-.2 0-.1.1-.2.4-.3v-.5h-.2v-.1c.1-.2.1-.3 0-.5v-.3c.2-.4.3-.7-.1-1.1-.1-.1-.2-.1-.3-.1-.1-.1-.2-.2-.4-.2-.4-.5-1.1-.4-1.7-.5h-.1c-.2.1-.4.1-.6 0-.4.1-.9.1-1.3 0-.4.2-.9 0-1.4.2-.3.1-.5.2-.8.1-.1 0-.2.1-.3.2-.4-.1-.8-.1-1.1 0-.4 0-.8 0-1.2.1l-.1.1v.1h-.1c-.2 0-.4 0-.5.1-.1 0-.2 0-.3-.1-.2-.1-.5-.1-.8-.2h-.5c-.1.1-.3.1-.4 0h-.1c-.4.1-.8.3-.4.8.2.3.4.5.7.5.1-.1.3-.1.4 0 .4-.1.7-.1 1.1 0 0 .1.2.2.3.3.1.2.1.4.3.6.1.1.1.1.2 0v.1c0 .1.1.2.2.3.1.1.1.2 0 .3-.1.2-.3 0-.5 0-.4-.1-.9-.1-1.3.1-.7.3-1.3.1-1.9-.3-.6-.3-1.4 0-2-.3-.3 0-.6-.1-1 0h-1.3c-.2 0-.3 0-.5-.1-.1-.1-.1-.1-.1-.2.1-.2.2-.3.3-.4h.4c.1-.1.2-.1.3 0h.1c.3.1.6.1.9 0h1c.2.1.4.1.6-.1l.3-.3c-.2-.2-.5-.2-.6-.4-.2-.1-.4-.1-.6 0-.3.2-.6.4-1 .1h-.3c-.1-.1-.2-.1-.3-.1-.1 0-.2-.1-.3-.1V.9c-.1-.1-.2-.1-.3 0-.3-.2-.7 0-1-.2l-.3-.3c-.2-.2-.5-.2-.7-.3h-.7c-.5.3-1.2-.1-1.7.3-.4.2-.9.1-1.3.1-.2 0-.4 0-.6.2-.2.1-.5.1-.7.2-.1.1-.2.1-.3 0-.2.2-.5.1-.7.3l-.3.3c-.2.1-.2.4-.4.5-.1.1-.2.2-.3.2.3.4 0 .5-.1.8-.1.1-.3.2-.3.3-.3.2-.7.4-1 .5-.5.1-1 .1-1.6 0-.3-.2-.6-.2-1 0-.1.1-.1.1-.2 0-.4.2-.8.1-1.2.1 0-.1-.1-.1-.1-.1-.5-.7.3-.8.6-1.1l.1-.1h.1c.2 0 .3-.1.4-.3h.1s0-.1-.1-.2l-.1-.1v-.1c0-.2-.2-.3-.4-.4-.3 0-.6.1-.9-.1-.1-.1-.2-.1-.3-.2h-.5c-.8.2-1.5.1-2.3.1-.1.1-.2.1-.2.2l-.1-.1c-.5 0-1 0-1.5.1-.1.1-.2.2-.3.2-.1-.1-.2-.1-.4-.2-.5-.4-1.2 0-1.7-.3h-.1c-.2.1-.4.1-.6 0-.6.2-1.2 0-1.7.2H81c-.7-.2-1.5-.2-2.2 0l-1.5.1c-1.3.3-2.6-.1-3.9.2-.5 0-1 0-1.5.1 0 .2-.2.2-.3.4-.4.2-.7-.2-1-.3h-.3c-1.6-.3-3.2.1-4.8-.2-.6 0-1.2.1-1.7 0-1.1.3-2.2-.1-3.3.2-.8.1-1.6.1-2.4 0-.1 0-.2.1-.2.2-.2-.1-.4-.1-.6-.2h-.2c-.3.2-.7 0-1 .2 0 0-.2-.1-.5-.1-1.6.1-3.3-.2-4.9.2-.6.3-1.3 0-1.9.2-.7.1-1.4.2-2.1.1-.3.1-.6.1-.9.2-.1 0-.2 0-.3-.1-.4 0-.8-.1-1.1.1-.1.1-.2.1-.3 0-.5.3-1.3-.1-1.9.3-.2.2-.5.1-.7.1-2.3.2-4.6-.2-6.9.1l-.8.1c-.2 0-.2.1-.2.2-1-.2-2.1-.2-3.1 0h-.6c-.2.1-.4.1-.5.2H27.1c-.1.2-.2.2-.2.3-.5-.1-1-.1-1.5 0h-2.5c-.2.1-.4.1-.5 0-.1 0-.1.1-.1.1-.1-.1-.3-.1-.4-.1-1.1.3-2.2-.1-3.3.2-.4.1-.8.1-1.2 0-.2.1-.4.1-.5 0-.1.1-.3.1-.4 0-.7.3-1.6-.1-2.3.2h-.6c-.3.2-.7 0-1 .3-.1.1-.1.1-.2 0-.4.3-.6.3-.8.5-.1.1-.1.1-.1.2-.3 0-.6 0-.8.1v.2c-.2-.1-.4-.1-.6.1-.2 0-.3.1-.4.2-.2.1-.3.1-.3.3-.2 0-.3.1-.3.3-.2 0-.3.1-.4.2-.2.1-.4.1-.6.2l-.1.1h-.1c-.3.1-.5.1-.8.2-.1.2-.4.1-.6.3 0 .1-.1.1-.2.1-.2-.1-.3.1-.4.1-.2.1-.2.2-.1.3h-.3c-.1.2-.5.3-.2.6-.5 1.1-.9 2.1-.2 3.2 0 .1-.1.2-.1.3-.5.1.2 1-.7.8-.1-.1-.3-.2-.4-.3h-.2c-.3.1-.6.3-.7.6.1.1 0 .1 0 .2-.2.2-.1.4-.3.6-.3.3-.3.5.1.8h-.1c.2.4.7.1 1 .3.2.2.2.4 0 .6 0 .1-.1.1-.2 0-.2 0-.3.1-.4.3-.9.8-.5 1.2.6 1.3.2.2.5.2.8.2h.2v.1s-.1 0-.1-.1c-.4 0-.8 0-1 .3-.6.2-.3.7-.6.9-.3.3.3.5 0 .8-.3.4.1 1.1-.6 1.4-.2.1-.5.1-.6.3-.3.1-.3.3 0 .5.5.6 1.1 1.1 1.6 1.6 0 .2.2.3.3.3l.3.3-.3.3c-.5.1-1.1.1-1.6-.1-.2-.1-.4-.1-.6.1l-.3.3c-.3.4.1.4.4.5h.1c.6-.3 1.4.1 2-.2.3-.3.8 0 1.1-.2.1.1.1.1.2.1.2.5 1.3-.2 1.3.6-.4.4-.8.8-1.5.8s-1.5 0-1.9.6c-.4.3-.3.7-.1 1 .2.5.2 1-.4 1.5l-.3.1c-.5.1-.5.5-.7.8l-.3.3c-.4.4 0 .9-.3 1.3-.3.2-.7.4-.3.8.1.1.2.2.4.3H.8c.8.3 1.9.3 1.3 1.5-.2.1-.5.1-.6.3-.3.1-.2.3-.3.5-.1 0-.3.1-.3.3-.9.2-1 .7-.6 1.3.1.2.1.4.3.6.1.1.1.2.2.3l.1.1v.1c.1.1 0 .6.5.7h.3c.2.1.5.1.6.2.1.1.2.2.4.3.2.3-.2.4-.3.6-.2.4-.8.8-.7 1.3.3.2 0 .6.3.8l.3.3.3.3c0 .8.6 1.1 1.2 1.4.4.3.8.4 1.3.5.6.4 1.5-.1 2.1.3.3.2 0 .6.4.7 0 .1.2.2.3.3h-.1c1.3.5 2.6 0 3.9.3.2-.1.3-.1.5 0 1.7 0 3.4-.1 5.1-.3.3-.1.5-.1.8 0 1.5-.3 3.1.1 4.5-.2.2-.1.4-.1.5 0 .1 0 .2-.1.2-.2 3.3.2 6.7.2 10 0 .3-.1.6-.1.8 0 1.5-.3 3 .1 4.5-.2.4-.1.8-.1 1.3 0 .3.2.6.2 1 0h.3c.2.2.5.1.7.2 1.2.4 2.5.2 3.8.1l.1-.1h.1c.2-.1.3-.1.4 0 .4.2.8.2 1.3 0 .2-.1.4-.1.6 0 .2-.1.3-.1.5 0h.3c.2-.1.6-.1.7-.3.2.1.3.1.5.1h7.1c2.8 0 5.7-.1 8.5.1.5-.2 1-.1 1.5 0 1.2.2 2.3.2 3.5 0h.3c1.5.1 2.9.2 4.4 0 .5-.1 1-.2 1.5 0 .6-.2 1.2-.1 1.8-.1 1.6-.1 3.3.2 4.9-.2.2-.1.3-.1.5 0 .6-.2 1.1-.1 1.7-.1 1.6-.1 3.2.1 4.8-.1h.3c.2.2.4.2.6 0l.1-.1h.1c.2-.1.3-.1.5 0h.1c.5-.2 1.1-.1 1.7-.1 1.7-.1 3.4.2 5.1-.1l.1-.1h.1c.4-.1.8-.2 1.2 0 .3-.1.7-.1 1 0 .4-.2 1 0 1.4-.2.2-.1.4-.1.6 0 .3.2.6.2 1 0 .3-.1.5-.1.8 0 1.6-.3 3.3.1 4.9-.2.4-.1.8-.1 1.2 0 .3-.1.6-.1.9 0h.1c.3-.1.6-.1.9 0 1.3-.3 2.6.1 3.9-.2h.3c.2.1.4.1.6 0l.1-.1h.1c1.4-.3 2.8.1 4.2-.3l.1-.1h.1c1.2-.3 2.4.1 3.5-.3.1-.1.3-.1.5 0 .6-.3 1.4.1 2-.2.8 0 1.5.2 2.2-.2H131.3s.1 0 .1-.1 0-.1-.1-.2h-.3v.3c0-.1-.2-.2-.3-.3h-.3c-.2.2-.4.2-.6 0-.1-.1-.2-.2-.2-.3l.2-.2c.6-.4 1.3.1 1.9-.3.5-.3 1.1.1 1.6-.3.4-.2.9 0 1.3-.2l.1-.1h.1c.2-.1.3-.1.4-.2.5.2 1 .2 1.6 0l.1-.1h.1c.5-.3 1.2.1 1.7-.2.2-.1.4-.1.6 0 .1 0 .2-.1.1-.2.4.1.8.1 1.2 0h.4c.2 0 .3-.1.5-.2 0 0 .1 0 .1-.1v-.1h.1c.1 0 .3-.1.4-.1.1-.1.2-.2.3-.2.1-.1.2-.2.4-.2V39h.1c.3 0 .6 0 .8-.2l.1-.1h.1c.2 0 .3-.1.4-.3.2 0 .2-.1.4-.2.2-.2.5-.1.6-.3.1 0 .3-.1.3-.3.3-.2.7 0 1-.3.5-.3 1.1.1 1.6-.3.3-.4-.5-.7 0-1.1l.1-.1h.1c.6-.4 1.7-.6 1-1.6-.1 0-.2 0-.3-.1-.5-.2-.6-.5-.4-.8.2 0 .3-.1.4-.2l.1-.1h.1c.7-.3 1.6.1 2.3-.3l.1-.1.1.1c.8-.3 1.7.1 2.3-.6.2-.1.3-.1.5-.2.3.1.5.1.8 0h.9c.2-.3 1.1.2 1-.5-.2-.2-.5-.2-.7-.2-.2 0-.4-.1-.5-.1h-.3c-.1-.1-.2-.1-.4-.2-.3-.2-.3-.7-.9-.5 0-.1 0-.2-.1-.2h-.2c-.2-.1-.5-.1-.7-.2-.2-.2-.2-.4 0-.6.7-.4 1.6.2 2.2-.3h-.1c.2 0 .3-.1.4-.3.2-.1.5-.1.7-.2l.1-.1h.1c.4-.1.3-.3.1-.6-.2-.2-.4-.3-.5-.5-.1 0-.1 0-.2-.1v-.1c-.1 0-.2 0-.2-.1 0 0-.1 0-.1-.1 0 0 0-.1.1-.1v-.2l-.3-.3c-.1-.1-.2 0-.3 0-.1-.1-.3-.2-.5-.2h-.1l-.1-.1c-.4-.4 0-.6.3-.8l.1-.1h.1c.7-.3 1.6.1 2.3-.3.2-.1.5-.1.7-.2l.1-.1h.1c1.4-.3 1.6-.6 1-1.6-.2-.2-.5-.1-.6-.3-.4-.3-1 0-1.4-.2h-.1c-.4.1-.8.2-1.2.1-.8-.3-.2-.4.1-.6l.6-.1c.8-.2.4-1.5 1.7-1.3l.2-.2c.3.1.5.1.7-.1.6-.3 1.3.1 1.9-.3.2-.3-.1-.4-.4-.5-.2 0-.4-.1-.5-.1-.1-.1-.2-.1-.3 0l-.1.1-.1-.1c0-.1-.1-.1-.2-.2h-.3c-.5-.2-.8-.6-1.3-.8-.1-.6-.6-1.4.4-1.5.8-.1 1.2-.6 1.8-.8.2-.1.5-.1.7-.2.1-.2.5-.1.6-.3.4-.2.9-.3.2-.7-.2 0-.3 0-.5-.1s-.4-.1-.6 0h-.3c-.9-.2-1.8.1-2.6-.2h-1.2c-.2-.1-.4-.2-.4-.4l.1-.1c0-.2.1-.4.3-.5.3-.2.2-.3 0-.5h-.3c-.2-.1-.4-.1-.6 0 0 0-.1 0-.1-.1-.5-.1-1.1.1-1.6-.2 0-.9 1-.1 1.3-.6h.6c.5.1.7-.2 1-.5l.1-.1h.1c.2-.1.5-.1.7-.2l.1-.1h.1c.4-.2 1 0 1.4-.3.4-.3.9 0 1.3-.3l.1-.1h.1c.6-.3 1.4.1 2-.2h1.9c.1 0 .1-.2 0-.4z" fill-rule="evenodd" clip-rule="evenodd"/></svg>