<?xml version="1.0" encoding="UTF-8"?><svg xmlns="http://www.w3.org/2000/svg" viewBox="0 0 28 28"><path fill="#000" fill-rule="evenodd" d="M14 0c7.731987 0 14 6.26801 14 14s-6.268013 14-14 14S0 21.73199 0 14 6.268013 0 14 0Zm.706667 6.53383h-1.414098c-1.395322.00228-1.678089.0131-2.370657.04461-.794897.03641-1.33748.16225-1.812241.3469-.491094.19071-.907676.44582-1.322702.86101-.415338.41502-.670452.83161-.861787 1.32254-.185113.47492-.311114 1.01766-.346893 1.81224-.009292.20777-.016796.37867-.022812.5538l-.005531.17806c-.010114.36501-.014678.80174-.016099 1.63895l-.000013 1.41623c.002313 1.39517.013229 1.67735.044611 2.36992.036556.79489.162402 1.33748.346892 1.81224.190869.49109.445983.90767.861165 1.3227.414871.41534.831453.67108 1.322236.86179.475072.18464 1.017811.31049 1.812552.34689.138514.0063.26063.01178.37853.01652l.263297.00949c.384882.01203.821707.01712 1.72858.01861h1.416217c1.395272-.00229 1.67745-.0131 2.370018-.04462.794897-.0364 1.338103-.16225 1.813175-.34689.490938-.19071.906898-.44645 1.321769-.86179.415337-.41503.670451-.83161.861787-1.32255.183557-.47491.309558-1.01765.346892-1.81224.031112-.69256.042227-.97486.044597-2.37006v-1.41623c-.00154-.90696-.006776-1.34387-.018796-1.72879l-.006041-.17549c-.005454-.14571-.011982-.29324-.01976-.46638-.037334-.7949-.163335-1.33748-.346892-1.81224-.191336-.49109-.44645-.90768-.861787-1.3227-.415338-.41534-.830675-.67046-1.322236-.86101-.476005-.18465-1.0189-.31049-1.813797-.3469-.692567-.03151-.974629-.04233-2.370176-.04461Zm-1.375796 1.34321v.00186h.669829c.173358 0 .333429.00006.481729.00018l.411108.00059c1.199637.00259 1.473992.01261 2.12435.04217.728008.03329 1.123123.15493 1.386326.25713.348448.13534.596872.29712.858053.55845.261336.26134.423115.51023.558761.85868.102201.26289.224003.65801.257136 1.38601.031112.68445.041051.95252.043114 2.32103v1.39046c-.001238.8211-.005311 1.24605-.015092 1.60247l-.005379.17401c-.005881.17134-.013309.3392-.022643.54454-.033289.72801-.154935 1.12312-.257136 1.38601-.135334.34845-.297425.59657-.558761.85775-.261336.26133-.50945.42311-.858053.55845-.262892.10266-.658318.224-1.386326.25729-.684452.03111-.952516.04105-2.321639.04311h-1.391142c-.889977-.00134-1.314676-.00601-1.690911-.01765l-.25785-.00923c-.115712-.00463-.235942-.01001-.372832-.01623-.728008-.0336-1.123123-.15525-1.386481-.25745-.348448-.13533-.59734-.29711-.858676-.55845-.261336-.26133-.423115-.5096-.558761-.85821-.102201-.26289-.224002-.658-.257136-1.38601-.031112-.68445-.04058-.95252-.042521-2.32185V13.3009c.001941-1.36908.011409-1.6362.042521-2.32065.033289-.72801.154935-1.12313.257136-1.38633.135335-.34845.297425-.59734.558761-.85867.261336-.26134.510228-.42312.858676-.55877.263203-.10266.658473-.224 1.386481-.25744.688807-.03111.955743-.04045 2.347358-.042Zm.669673 2.28855c-2.117444 0-3.834328 1.71689-3.834328 3.83449 0 2.1176 1.716884 3.8337 3.834484 3.8337 2.1176 0 3.833862-1.7161 3.833862-3.8337s-1.716418-3.83449-3.834018-3.83449Zm.000156 1.34557c1.374503 0 2.488915 1.11426 2.488915 2.48892 0 1.3745-1.114412 2.48891-2.488915 2.48891-1.374659 0-2.488915-1.11441-2.488915-2.48891 0-1.37466 1.114256-2.48892 2.488915-2.48892Zm3.985686-2.39278c-.494672.00031-.896009.40118-.896009.89601 0 .49467.401337.89601.896009.89601.494672 0 .896009-.40134.896009-.89601s-.401337-.89601-.896009-.89601Z"/></svg>