<?xml version="1.0" encoding="UTF-8"?><svg xmlns="http://www.w3.org/2000/svg" viewBox="0 0 28 28"><path fill="#000" fill-rule="evenodd" d="M14 0C6.267817 0 0 6.26616 0 14c0 5.93027 3.689871 10.99681 8.897057 13.03699-.122444-1.10696-.231651-2.80628.04964-4.01749.253161-1.09207 1.641413-6.95781 1.641413-6.95781s-.418626-.8389-.418626-2.07824c0-1.94752 1.126817-3.4003 2.53327-3.4003 1.193003 0 1.770476.89682 1.770476 1.97234 0 1.20128-.764449 2.99657-1.15991 4.66115-.329276 1.39487.699917 2.52996 2.073277 2.52996 2.488595 0 4.401371-2.62427 4.401371-6.41177 0-3.35232-2.407517-5.69531-5.847535-5.69531-3.982745 0-6.320766 2.9883-6.320766 6.07588 0 1.20293.461647 2.49356 1.040775 3.19513.114171.13899.130717.25978.097624.40208-.105897.44179-.342512 1.39322-.388843 1.58681-.061222.25647-.203522.31108-.46992.18863-1.747312-.81409-2.839381-3.37218-2.839381-5.42394 0-4.41627 3.208368-8.47347 9.249498-8.47347 4.8564 0 8.630658 3.46153 8.630658 8.08628 0 4.82496-3.042903 8.70842-7.263917 8.70842-1.41969 0-2.753339-.73797-3.210022-1.60832 0 0-.701572 2.67226-.872001 3.32751-.316038 1.21616-1.169838 2.7401-1.739038 3.67001C11.163929 27.78159 12.55549 28 14 28c7.732183 0 14-6.26782 14-14 0-7.73384-6.267817-14-14-14"/></svg>