<svg viewBox="0 0 97 97" xmlns="http://www.w3.org/2000/svg"><path d="M97 0v97H0V0h97Zm-1.054 1.052H1.054v94.895h94.892V1.052ZM28.857 67.525c.643 0 1.157.224 1.54.667.36.422.541.958.541 1.61v.036h-3.681c.03.443.19.803.475 1.08.286.274.649.41 1.09.41.644 0 1.108-.3 1.392-.903h.594c-.388.936-1.045 1.404-1.973 1.404a2.02 2.02 0 0 1-1.51-.628 2.112 2.112 0 0 1-.61-1.53c0-.626.2-1.14.6-1.543.4-.402.915-.603 1.542-.603Zm13.658.007c.35 0 .628.1.833.3.202.198.312.472.328.824h-.56c-.028-.406-.239-.607-.635-.607a.573.573 0 0 0-.426.172.58.58 0 0 0-.17.428.59.59 0 0 0 .303.53c.094.06.228.115.4.165.213.067.351.112.413.138.493.21.741.585.741 1.124 0 .363-.127.66-.382.887-.242.22-.547.33-.916.33-.402 0-.72-.134-.949-.4-.215-.248-.329-.579-.341-.99h.537v.014c0 .24.066.445.197.614a.685.685 0 0 0 .564.273.727.727 0 0 0 .51-.189.63.63 0 0 0 .206-.49.672.672 0 0 0-.22-.527c-.108-.1-.284-.193-.527-.28-.377-.136-.638-.267-.781-.392-.208-.184-.311-.443-.311-.775 0-.328.115-.601.346-.82.23-.22.51-.329.84-.329Zm12.253.105v4.078h-.524v-4.078h.524Zm27.205-.082c.624 0 1.073.215 1.354.645.176.268.263.73.263 1.384v2.131h-.516v-2.284c0-.45-.079-.782-.236-.997-.184-.254-.49-.38-.924-.38-.483 0-.834.184-1.05.554-.115.2-.174.575-.174 1.124v1.983h-.507v-4.078h.507v.462c.315-.362.742-.544 1.283-.544Zm-14.59.041c.797 0 1.41.39 1.835 1.176h-.619c-.355-.444-.767-.668-1.24-.668-.425 0-.782.148-1.07.443a1.49 1.49 0 0 0-.432 1.084c0 .441.14.81.42 1.106.287.303.65.455 1.09.455.323 0 .614-.097.87-.292.255-.196.43-.45.522-.764h-1.91v-.482h2.528c-.034.622-.243 1.12-.627 1.49-.264.255-.504.417-.716.486-.14.048-.374.071-.7.071-.586 0-1.072-.203-1.454-.604-.378-.396-.567-.887-.567-1.475 0-.563.208-1.046.622-1.452.39-.383.872-.574 1.448-.574Zm-53.084.051c.567 0 1 .134 1.302.402.462.41.694.948.694 1.615 0 .354-.068.678-.201.973-.235.519-.602.846-1.101.983-.19.05-.476.078-.856.078h-.965v-4.05H14.3Zm-.026.516h-.6v3.022h.687c.466 0 .82-.141 1.064-.423.225-.262.337-.633.337-1.107 0-.247-.043-.477-.126-.683-.157-.385-.4-.632-.731-.738a2.232 2.232 0 0 0-.63-.071Zm14.507-.148c-.41 0-.752.13-1.024.39-.264.25-.426.58-.485.993h3.088c-.197-.922-.724-1.383-1.579-1.383Zm25.988-1.7v.843h-.524v-.843h.524Zm-40.1-37.396c2.684 0 4.87.891 6.497 2.65 1.6 1.672 2.506 4.042 2.695 7.045l.021.395.011.275h-1.778l-.005-.258c-.05-2.623-.798-4.697-2.22-6.164-1.37-1.4-3.152-2.111-5.298-2.111-1.994 0-3.62.602-4.835 1.79-1.317 1.25-1.983 3.068-1.983 5.407 0 1.666.553 3.128 1.645 4.347.783.853 2.482 1.7 5.05 2.516l.355.112.062.028c.007.005.038.02.119.034.121.023.254.07.4.139 3.009.97 5.045 1.868 6.193 2.731 2.033 1.573 3.062 3.824 3.062 6.693 0 3.168-.957 5.68-2.845 7.465-1.731 1.596-3.99 2.405-6.717 2.405-2.895 0-5.226-1.02-6.932-3.033-1.644-1.847-2.599-4.438-2.837-7.7l-.027-.43-.015-.276h1.811l.014.25c.152 2.85.937 5.144 2.333 6.815 1.38 1.654 3.295 2.493 5.692 2.493 2.102 0 3.875-.635 5.271-1.89 1.595-1.375 2.402-3.284 2.402-5.68 0-2.48-.841-4.37-2.501-5.619-.802-.637-2.535-1.398-5.162-2.264l-.364-.119-.071-.023-.044-.052c.014.021-.077-.017-.386-.11-3.297-1.115-5.33-2.13-6.226-3.104-1.362-1.474-2.053-3.4-2.053-5.728 0-2.924.866-5.201 2.575-6.77 1.57-1.497 3.62-2.26 6.092-2.26Zm32.922.746 10.015 23.182 9.634-23.182h2.267v31.177L79.53 29.665h1.864l10.787 34.052h-1.835l-3.62-11.424H74.077L70.42 63.717l-.913-.001v.001h-1.693v-30.55l-9.68 22.529H57.01l-.07-.156-9.963-22.413v30.59h-1.694V29.665h2.306Zm-3.986 0v2.019H27.846v13.322h12.49v1.972h-12.49v14.72h16.147v2.019H25.998V29.665h17.606Zm36.854 2.945-5.744 17.757h11.378L80.458 32.61Z"/></svg>