<svg viewbox="0 0 92 188" xmlns="http://www.w3.org/2000/svg"><path d="M78.415 180c.231.207.444.432.697.613.194.139.443.216.66.334.174.094.406.174.491.316.431.716.72 1.51.736 2.291.014.68-.132 1.43-.607 2.033-.478.606-.977 1.204-1.65 1.669-.059.04-.068.133-.114.232-.46-.051-.9.003-1.263.315-.154.133-.347.22-.585.117-.071-.03-.183-.049-.25-.022-.662.27-1.258-.071-1.879-.155a.794.794 0 0 1-.428-.23c-.619-.658-1.182-1.341-1.163-2.255.005-.222-.06-.446-.06-.668 0-.218.004-.446.075-.65.15-.43.328-.853.525-1.268.284-.6.742-1.085 1.348-1.467.284-.18.538-.395.906-.669.307.12.468-.163.62-.393.677.058 1.321.3 1.94-.143Zm-29.957-18.9c.268-.137.692-.13.966 0 .379.177.736.509.849.966.184.749.461 1.43.952 2.015.215.255.33.573.46.895.165.41.554.722.86 1.063.068.074.195.09.299.133.015.16-.004.314.048.432.164.368.114.718.03 1.063l-.077.295c-.025.098-.05.196-.068.295-.1.535-.26 1.057-.422 1.69-.38.217-.659.601-.722 1.234-.043.429-.308.867-.566 1.228-.293.41-.487.957-1.013 1.13-.918.3-1.847.542-2.822.436-.022-.003-.05.001-.064-.012-.467-.458-1.039-.786-1.453-1.31-.234-.296-.422-.69-.721-.854-.218-.12-.06-.434-.308-.42-.195.012-.389.08-.582.074-.118-.005-.234-.104-.364-.167.13-.516.326-1.013-.064-1.471-.035-.042-.044-.142-.025-.2.24-.709-.084-1.333-.246-1.985-.041-.167.04-.374-.019-.527-.06-.158-.22-.274-.386-.465.439-.144.675-.418.87-.809.207-.412.585-.725.866-1.1.598-.798 1.108-1.688 1.794-2.389.53-.54 1.25-.895 1.928-1.24Zm42.675-6.1c.514.37.761.905.832 1.529.021.188.093.35-.064.543-.113.14-.154.372-.137.556.047.521-.061 1.007-.253 1.488a.548.548 0 0 0-.023.256c.095.835-.307 1.459-.762 2.06l-.345.449c-.076.1-.15.201-.22.304-.55.226-.981.629-1.631.74-.525.089-1.034.057-1.543.074-.59.02-1.122-.182-1.394-.758-.102-.217-.254-.413-.347-.632-.107-.255-.253-.527-.246-.789.032-1.197.228-2.373.821-3.448.23-.416.567-.78.862-1.163.052-.068.127-.146.206-.164.94-.215 1.79-.705 2.767-.799.25-.024.503-.026.75-.066.233-.038.46-.112.727-.18Zm-23.225-12 .065.016c.717.362 1.575.179 2.268.634.177.116.406.147.635.225.07.124.121.344.251.417.46.26.467.684.446 1.119-.023.502-.074 1.004-.118 1.566l-.004.042c.22.258.431.584.239 1.032-.039.09.055.25.11.366.432.927.149 1.291-.693 1.687-.444.21-.953.28-1.426.47-.429.175-.951.1-1.43.15-.32.034-.639.094-1.031.153-.209-.272-.496-.164-.867-.107-.57.086-1.16.416-1.76.087-.073-.04-.172-.036-.259-.04-.491-.022-.924-.153-1.326-.485-.222-.182-.567-.224-.864-.292-.243-.056-.406-.156-.442-.424-.095-.71-.322-1.376-.591-2.04-.17-.418-.142-.725.063-.968a1.39 1.39 0 0 1 .456-.332l.072-.481c.448.118.827.182.985-.443.053-.21.434-.46.672-.468.614-.018.757-.49.953-.892.324-.664.384-.688 1.074-.711.735-.025 1.468-.142 2.201-.22.13-.014.289-.094.386-.045Zm-35.39-7c.322.704 1.069.96 1.872.69.757.52 1.213.557 1.694.09.163.445.56.56.966.662.152.039.31.075.45.141.442.211.799.457.694 1.04-.07.39.003.74.437 1.003.391.238.402.7.342 1.129-.108.764-.105.789-.011 1.31l-.312 1.19c-.225.158-.543.394-.876.61-.125.081-.28.143-.43.163-.443.06-.843.181-1.012.47-.409.062-.711.089-1.003.156-.436.101-.86.251-1.298.338-.16.032-.35-.044-.52-.091-.173-.048-.337-.166-.508-.173-.432-.02-.745-.136-.828-.6-.02-.11-.146-.283-.233-.289-.517-.035-.514-.487-.731-.767-.254-.326-.191-.644-.113-.995.076-.339.094-.69.144-1.083l-.242-.166.754-1.294c.167-.286.2-.543-.008-.852-.16-.237-.367-.49-.282-.838.012-.05-.023-.11-.07-.173l-.1-.129-.044-.063c-.079-.136-.151-.275-.232-.424.365-.22.781.102 1.011-.253.165-.252.314-.514.488-.802Zm-18.52-10.96c.376-.07.69-.07.974.17.526.445 1.115.851 1.017 1.695l-.015.247c-.003.248.018.499-.004.745-.018.19-.059.466-.184.541-.495.3-.502.794-.455 1.23.086.789-.185 1.52-.262 2.278-.067.658-.546 1.194-1.135 1.52-.599.331-1.148.7-1.568 1.257-.15.198-.29.334-.633.254-.512-.12-1.068-.026-1.598-.086-.265-.03-.528-.174-.766-.312-.28-.162-.532-.252-.86-.128-.239.091-.51.117-.77.126-.513.018-.634-.12-.567-.622.033-.24.091-.477.157-.71.108-.377.137-.74-.142-1.06-.282-.324-.142-.684-.023-.994.102-.266.152-.457-.164-.637.398-.344.442-.72.426-1.098-.017-.38.106-.678.382-.924.274-.243.512-.557.827-.717.4-.203.41-.458.292-.81-.027-.08-.039-.167-.066-.287.139-.07.274-.13.399-.205.126-.076.311-.144.352-.258.25-.71.904-.682 1.438-.785.974-.188 1.972-.248 2.947-.43Zm66.88 2.004c.378-.124.651.035.951.219.29.177.607.306.955.478l.226-.165.964 1.096c.213.243.44.355.789.267.266-.067.563-.174.858.016.084.054.264-.05.402-.076.149-.027.3-.048.461-.073.092.4-.331.672-.075.993.183.23.379.449.591.699-.748.064-1.212.655-1.207 1.467-.71.515-.883.914-.6 1.499-.46.003-.687.323-.905.657-.082.125-.163.255-.268.36-.329.331-.664.574-1.17.292-.338-.189-.683-.235-1.059.072-.337.276-.768.137-1.144-.056-.672-.343-.696-.348-1.205-.431l-1.002-.664c-.078-.254-.198-.617-.295-.986-.037-.14-.047-.3-.02-.44.08-.42.09-.819-.125-1.064.068-.389.136-.67.162-.956.04-.425.031-.856.084-1.279.02-.155.148-.301.244-.44.097-.14.255-.25.314-.401.15-.384.352-.628.806-.554.108.018.305-.04.337-.117.19-.455.606-.307.93-.413Zm-22.907-7.006c.206-.061.453-.04.67.002.184.036.368.076.552.117l1.1.257c.087.02.202.065.265.03.605-.344.941.208 1.381.402.184.082.348.266.53.28.729.057.962.56 1.136 1.147.114.384.248.762.366 1.146a.659.659 0 0 1 .025.265c-.05.426-.085.856-.172 1.275a5.022 5.022 0 0 1-1.068 2.222 7.342 7.342 0 0 1-1.833 1.594c-.245.15-.543.217-.781.375-.292.193-.55.439-.815.67-.117.102-.194.277-.326.33a5.309 5.309 0 0 0-.154.067l-.456.213c-.456.21-.924.378-1.499.229-.373-.098-.876.025-1.233.214-.372.197-.636.152-.933-.045-.637-.425-1.254-.858-1.642-1.565-.107-.196-.24-.361-.248-.59-.02-.692.058-1.364.318-2.019.122-.306.178-.654.191-.985.018-.465-.033-.932-.057-1.468-.359-.024-.73-.02-.59-.561.019-.074-.13-.221-.232-.287-.13-.084-.291-.12-.466-.186l.162-.872c.125-.047.265-.123.415-.153.194-.039.34-.097.383-.318.016-.079.11-.213.146-.206.531.105.47-.307.575-.606.087-.246.248-.465.37-.687.057-.016.105-.047.143-.038 1.286.317 2.535.126 3.777-.249Zm-32.596-11.83c.636-.389 1.255-.17 1.747.15.626.408 1.296.445 2.06.529.3.912 1.256 1.343 1.818 2.022-.024.41-.05.704-.057.998a3.637 3.637 0 0 1-.666 2.01c-.203.29-.566.48-.863.708-.243.185-.368.497-.73.567-.106.02-.2.202-.258.327-.087.185-.143.384-.203.58-.244.794-.651 1.017-1.5.848-.214-.042-.445-.006-.751-.006-.1-.505-.587-.846-.868-1.291-.545-.866-1.305-1.62-1.579-2.642-.282-1.055-.718-2.084-.43-3.223l.88.222c-.125-.708.57-1.05.692-1.629.263-.059.524-.057.708-.17ZM4.38 100.18c.371-.256.686-.215 1.068-.026.736.364 1.351.902 1.992 1.406l.097.074.198.142c.23.168.439.354.496.686.034.202-.005.443.088.604.214.37.136.786.246 1.16.065.22.269.392.435.62-.36.266-.402.692-.36 1.18.093 1.111-.263 2.066-1.033 2.836-.087.088-.247.13-.375.134-.298.01-.599.004-.894-.034-.251-.033-.514-.079-.74-.19a7.41 7.41 0 0 0-.216-.101l-.437-.194c-.362-.165-.715-.351-1.01-.66-.267-.277-.616-.476-.947-.674-.862-.516-1.474-1.23-1.71-2.264-.019-.081-.054-.158-.109-.314-.443.067-.774-.089-.978-.48a1.813 1.813 0 0 1-.184-.503c-.026-.14.031-.294.024-.44-.06-1.137.595-1.767 1.317-2.341l.273-.213.136-.107c.139-.108.384-.096.579-.091.42.01.842.092 1.26.067.267-.017.56-.121.784-.277ZM80.12 95c.035.729.687.742 1.004 1.1.35.024.733-.449 1.129.16l-.831.246c-.06.189.014.362.177.274.307-.165.519-.07.763.124.231.184.486.182.721-.033.106-.098.228-.176.333-.257.614.19.614.19.848.71-.088.457-.54-.014-.689.271l.855 1.106.14-.385.43.623-.356.145c-.041.388-.104.74-.104 1.093 0 .149.133.298.244.526-.401-.032-.726-.009-.735.52.224.268.697.44.526 1.005l-.652.233-.293-.374c-.411.245-.458.32-.293.747.101.261.282.486.451.766-.329.316-.641-.156-1.03-.15-.1.25-.2.522-.316.785-.107.24-.233.471-.38.765-.08-.086-.206-.179-.275-.308-.195-.369-.495-.485-.86-.46-.364.025-.655-.103-.927-.373a3.632 3.632 0 0 0-.786-.588c-1.104-.615-1.694-1.607-1.91-2.901-.053-.32-.178-.623-.234-.942-.109-.63-.153-1.254.346-1.751.056-.055.133-.157.118-.213-.152-.58.268-.63.593-.74.287-.097.588-.125.724-.496.03-.084.199-.137.31-.155.456-.072.713-.352.817-.827l.035-.085.108-.161Zm-24.163 1.196c.406-.21.792-.335 1.189.07.264.27.576.412 1.019.238.398-.155.764.096 1.064.38.535.509.556.52 1.013.743l.755.897c0 .255.01.622-.005.989a.964.964 0 0 1-.108.409c-.196.36-.32.724-.188 1.01-.176.337-.32.576-.428.83-.16.378-.275.775-.447 1.147-.063.137-.226.234-.356.333-.132.101-.312.156-.412.278-.251.309-.513.474-.92.275-.096-.047-.299-.05-.351.01-.31.363-.66.107-.997.111-.393.005-.605-.22-.835-.474-.223-.246-.485-.456-.764-.714l-.261.086-.595-1.282c-.13-.284-.312-.452-.667-.472-.27-.015-.581-.003-.805-.261-.064-.074-.264-.03-.4-.047-.15-.017-.298-.042-.458-.065.029-.393.507-.52.357-.89-.107-.262-.228-.52-.357-.81.724.157 1.332-.251 1.56-.996.82-.268 1.097-.584.998-1.2.435.128.74-.1 1.043-.343.113-.09.227-.186.356-.252Zm27.316 3.956c-.021.118-.02.246-.068.347-.059.123-.158.225-.273.38l.687.138c.006-.638-.015-.687-.346-.865ZM20.279 78.223c.069-.152.461-.27.642-.204 1.063.395 2.164.566 3.265.752.925.156 1.614.652 2.05 1.572.277.584.621 1.132.938 1.693.601 1.069.901 2.163.81 3.301a2.36 2.36 0 0 1-.514 1.308c-.55.68-1.177 1.082-2.057 1.083-.719.001-1.438.17-2.204.272.029-.243.058-.389.061-.535.006-.382-.195-.588-.537-.464a.552.552 0 0 1-.566-.072c-.083-.056-.205-.12-.284-.093-.474.167-.706-.163-.95-.496-.126-.172-.253-.354-.413-.484-.612-.498-.981-1.16-1.208-1.936-.048-.164-.18-.3-.226-.463-.055-.202-.109-.428-.076-.628.125-.77.291-1.533.429-2.302.062-.349-.147-.753.185-1.047-.1-.603.46-.822.655-1.257ZM46.5 70l.11.008c.768.117 1.529.292 2.293.44.094.018.193.011.29.006 1.083-.057 2.024.31 2.866 1.009.193.16.439.273.677.347.648.2.906.771 1.101 1.333.176.508.228 1.072.064 1.618-.034.112-.088.218-.128.33-.079.22-.156.441-.231.663-.05.147-.054.349-.152.435-.339.295-.451.7-.57 1.107-.183.621-.352 1.247-.55 1.862-.073.224-.226.417-.322.635-.162.367-.31.742-.46 1.115-.06.149-.11.301-.174.482-.123-.02-.231-.04-.34-.053-.365-.046-.741-.166-1.032.204-.032.04-.108.081-.15.069-.405-.122-.652.187-.966.39l-1.78-.696-.37.205-1.207-.495c-1.009.318-1.437-.305-1.846-1.209-.477-1.054-.518-2.152-.166-3.264.12-.377.22-.76.35-1.21-.312-.117-.65-.236-.711-.614A7.428 7.428 0 0 1 43 73.399c.003-.151.174-.303.275-.449.272-.39.62-.712.792-1.195.106-.295.365-.577.783-.453.27.08.411-.07.537-.33.141-.293.336-.582.574-.79.156-.138.44-.206.648-.174Zm37.378.044c.378-.124.651.035.951.219.29.177.608.306.955.477.06-.042.156-.113.226-.164l.964 1.096c.213.243.44.355.789.267.267-.067.563-.174.858.016.085.054.265-.05.402-.076.15-.027.3-.048.461-.073.092.4-.331.672-.075.993.183.23.379.449.591.699-.747.064-1.211.655-1.207 1.467-.71.515-.883.914-.6 1.499-.46.003-.686.323-.905.657-.082.125-.163.255-.267.36-.33.331-.665.574-1.172.292-.337-.189-.682-.235-1.058.072-.337.276-.768.137-1.144-.056-.672-.343-.696-.348-1.205-.431l-1.002-.664c-.078-.254-.198-.617-.295-.986-.037-.14-.047-.3-.02-.44.08-.42.09-.819-.125-1.064.068-.389.136-.67.162-.956.04-.425.031-.856.084-1.279.02-.155.148-.301.244-.44.097-.14.255-.25.314-.402.15-.383.352-.627.806-.553.108.018.305-.04.337-.117.19-.455.606-.307.93-.413Zm-59.08-10.042.153.022c.437.104.868.259 1.274.448.478.221.838 1.057.657 1.544-.112.302-.08.54.033.825l.415 1.027c.204.515.396 1.033.536 1.564.252.951.154 1.911-.345 2.803-.094.169-.205.37-.191.549.063.791-.295 1.336-.99 1.757-.876-.281-.921-.267-1.263.347-.382 0-.765-.064-1.114.017-.426.098-.817.12-1.257.068-.657-.077-1.33-.017-1.996-.006-.466.008-.934.101-1.357-.216-.152-.113-.373-.151-.57-.187-.474-.085-.815-.304-1.053-.738a27.407 27.407 0 0 0-1.19-1.934c-.153-.232-.389-.41-.54-.565.075-.452.116-.883.223-1.299.193-.75.42-1.492.646-2.234.076-.25.302-.344.539-.321.585.056.924-.275 1.228-.687.088-.12.175-.258.297-.335.584-.366.969-.907 1.36-1.444.088-.121.186-.38.222-.371.44.118.643-.359 1.1-.343.842.03 1.692-.151 2.54-.237.265-.027.547-.09.796-.032ZM68.562 42c.675.255 1.327.46 1.945.744.73.336 1.44.723 2.143 1.117.428.24.81.562 1.238.802.697.393 1.349.869 2.117 1.135.182.063.286.328.458.455.805.596 1.433 1.382 2.166 2.056.385.352.425.876.323 1.332-.216.968-.515 1.922-1.071 2.759-.319.48-.697.92-1.011 1.403-.33.508-.625 1.04-.92 1.57-.28.505-.63.914-1.172 1.155-.215.096-.381.305-.527.427-.277.018-.51.037-.744.045-.059.002-.137-.014-.176-.053-.41-.405-.887-.53-1.446-.411-.112.023-.247-.056-.37-.094-.19-.058-.424-.225-.558-.164-.483.22-.866-.243-1.328-.137-.138.031-.361-.097-.474-.22-.46-.5-1.049-.582-1.637-.612l-.32-.014-.159-.007c-1.087-.056-2.048-.362-2.873-1.089l-.12-.107c-.122-.104-.255-.184-.465-.138-.208.047-.365-.093-.398-.35-.034-.262-.114-.52-.183-.82.203-.285.401-.61.153-1.021-.042-.07.024-.216.06-.32.228-.66.452-1.324.697-1.979.153-.408.09-.893.433-1.233.03-.03.03-.096.063-.117.656-.437.625-1.209.89-1.839.42-.998.872-1.984 1.34-2.96.187-.39.814-.609 1.276-.538.23.035.466.03.759.046L68.56 42Zm-29.215 5.475c.868-.64 1.868-.482 2.833-.38.42.043.867.772.816 1.206-.065.556-.185 1.106-.282 1.659-.021.126-.082.262-.056.379.102.452-.114.792-.341 1.15-.448.709-.476 1.102-.19 1.806-.117.207-.22.412-.345.604-.081.125-.172.261-.294.338-.403.257-.822.49-1.288.763-.527-.42-1.137-.074-1.761 0-.175-.106-.36-.258-.572-.34-.724-.277-1.194-.795-1.574-1.445-.251-.43-.317-.862-.286-1.338.023-.344.005-.69.005-1.067.47-.735 1.427-1.121 1.793-2.032.062-.155.235-.275.375-.389.383-.311.77-.62 1.167-.914ZM86.149 24c.89.437 1.818.486 2.735.6.782.097 1.056.206 1.675.64.142.433.265.793.375 1.157.038.127.084.275.058.398-.122.577-.266 1.15-.41 1.723-.027.109-.067.266-.143.301-.486.223-.434.702-.5 1.112-.061.387-.109.758-.378 1.072-.105.122-.113.338-.153.514-.03.133.005.338-.07.393-.333.25-.245.58-.26.921-.008.182-.185.432-.35.516-.445.227-.858.445-1.027.99-.033.107-.23.195-.365.225-.234.05-.48.041-.72.071-.482.06-.942.158-1.347.488-.191.156-.471.193-.71.29-.376.152-.738.35-1.148.397-.578.066-1.156.132-1.735.19a.456.456 0 0 1-.25-.044c-.636-.342-1.302-.642-1.891-1.059-.327-.231-.538-.65-.776-1.004s-.49-.711-.65-1.105c-.112-.277-.107-.618-.109-.93-.003-.502.055-1.005.042-1.506-.009-.322.038-.582.287-.79.511-.427.477-1.056.544-1.645.013-.11.015-.223.025-.364.168-.024.316-.044.463-.066.499-.074.878-.467.948-.982.083-.61.407-.953.957-1.056a29.549 29.549 0 0 0 1.768-.383c.183-.047.338-.204.517-.28.172-.075.357-.124.54-.158.198-.037.526.156.448-.31.229-.02.524-.146.674-.043.44.306.724.223.936-.273Zm-28.053-3c.271.035.573.079.877.11.282.03.565.042.847.07.128.012.263.02.379.067.857.348.933.512.66 1.372-.025.082-.082.165-.076.244.062.834-.446 1.473-.85 2.114-.316.501-.489 1-.518 1.561-.016.303-.134.475-.4.67-.203.149-.39.315-.574.488l-.544.526-.278.255c-.206.18-.45.338-.703.444-.497.205-1.518-.01-1.832-.415-.16-.206-.236-.507-.253-.771-.024-.372-.04-.66-.523-.75-.327-.06-.372-.283-.236-.604l.685-1.624.35-.809c.132-.297.238-.569.68-.677.404-.099.485-.601.55-1.001.015-.099.002-.201.002-.435l.43.542.465-.644c.369.011.369.011.862-.733ZM81.122 0c.348.363.667.755 1.046 1.072.29.243.665.38.99.585.261.165.61.305.737.554.646 1.252 1.08 2.642 1.104 4.009.02 1.19-.198 2.5-.911 3.557-.716 1.06-1.466 2.108-2.476 2.92-.087.07-.101.234-.17.407-.69-.09-1.351.006-1.894.552-.231.232-.52.384-.877.205-.108-.055-.276-.086-.376-.039-.993.471-1.887-.125-2.818-.272-.231-.037-.488-.214-.642-.404-.93-1.15-1.773-2.345-1.745-3.944.007-.39-.09-.78-.09-1.17 0-.38.005-.78.112-1.138.225-.752.493-1.492.788-2.218.427-1.05 1.112-1.898 2.021-2.568.426-.314.808-.69 1.36-1.17.395.18.628-.158.83-.511L78.21.25c1.016.1 1.983.524 2.912-.251Z"/></svg>