<svg xmlns="http://www.w3.org/2000/svg" width="27" height="24" viewBox="0 0 27 24"><path d="M28.38,9.015A2.241,2.241,0,0,0,26.25,7.5H9.75A2.256,2.256,0,0,0,7.62,9.015L4.5,18V30A1.5,1.5,0,0,0,6,31.5H7.5A1.5,1.5,0,0,0,9,30V28.5H27V30a1.5,1.5,0,0,0,1.5,1.5H30A1.5,1.5,0,0,0,31.5,30V18L28.38,9.015ZM9.75,24A2.25,2.25,0,1,1,12,21.75,2.247,2.247,0,0,1,9.75,24Zm16.5,0a2.25,2.25,0,1,1,2.25-2.25A2.247,2.247,0,0,1,26.25,24ZM7.5,16.5,9.75,9.75h16.5L28.5,16.5Z" transform="translate(-4.5 -7.5)" fill="#888b8d"/></svg>