<svg xmlns="http://www.w3.org/2000/svg" width="20.443" height="20.444" viewBox="0 0 20.443 20.444"><path d="M13.041,7.4a6.066,6.066,0,0,1,.014,8.568l-.014.015-2.683,2.683a6.069,6.069,0,0,1-8.583-8.583L3.256,8.6a.638.638,0,0,1,1.09.423,7.358,7.358,0,0,0,.387,2.105.643.643,0,0,1-.151.663l-.523.523A2.875,2.875,0,1,0,8.1,16.41l2.683-2.683a2.874,2.874,0,0,0,0-4.066,2.991,2.991,0,0,0-.413-.342.64.64,0,0,1-.277-.5,1.59,1.59,0,0,1,.467-1.19l.841-.841a.641.641,0,0,1,.822-.069,6.088,6.088,0,0,1,.819.687Zm5.627-5.628a6.076,6.076,0,0,0-8.583,0L7.4,4.458l-.014.015a6.07,6.07,0,0,0,.834,9.255.641.641,0,0,0,.822-.069l.841-.841a1.59,1.59,0,0,0,.467-1.19.64.64,0,0,0-.277-.5,2.991,2.991,0,0,1-.413-.342,2.874,2.874,0,0,1,0-4.066l2.683-2.683a2.875,2.875,0,1,1,4.04,4.091l-.523.523a.643.643,0,0,0-.151.663,7.357,7.357,0,0,1,.387,2.105.638.638,0,0,0,1.09.423l1.482-1.482a6.076,6.076,0,0,0,0-8.583Z" fill="#888b8d"/></svg>