<svg xmlns="http://www.w3.org/2000/svg" width="32" height="32" viewBox="0 0 32 32"><defs><style>.a{fill:#888b8d;}</style></defs><path class="a" d="M17.5,11.682A5.818,5.818,0,1,0,23.318,17.5,5.817,5.817,0,0,0,17.5,11.682Zm13,4.364A13.083,13.083,0,0,0,18.955,4.5v-3H16.045v3A13.083,13.083,0,0,0,4.5,16.045h-3v2.909h3A13.083,13.083,0,0,0,16.045,30.5v3h2.909v-3A13.083,13.083,0,0,0,30.5,18.955h3V16.045Zm-13,11.636A10.182,10.182,0,1,1,27.682,17.5,10.174,10.174,0,0,1,17.5,27.682Z" transform="translate(-1.5 -1.5)"/></svg>