<svg xmlns="http://www.w3.org/2000/svg" xmlns:xlink="http://www.w3.org/1999/xlink" viewBox="0 0 137.92 64.22"><defs><style>.cls-1,.cls-3{fill:none;}.cls-2{clip-path:url(#clip-path);}.cls-3{stroke:#e52421;stroke-miterlimit:10;stroke-width:2.32px;}</style><clipPath id="clip-path" transform="translate(-55.64 -44.44)"><rect class="cls-1" width="248.7" height="109.9"/></clipPath></defs><g id="Calque_2" data-name="Calque 2"><g id="Calque_1-2" data-name="Calque 1"><g class="cls-2"><path class="cls-3" d="M71.6,95a14.37,14.37,0,0,1,8.9,3.1c1.5,1.1,2.3,1.7,4.4,1.7s2.9-.6,4.4-1.7a14.27,14.27,0,0,1,17.7,0c1.5,1.1,2.3,1.7,4.4,1.7s2.9-.6,4.4-1.7a14.27,14.27,0,0,1,17.7,0c1.5,1.1,2.3,1.7,4.4,1.7s2.9-.6,4.4-1.7a14.27,14.27,0,0,1,17.7,0c1.5,1.1,2.3,1.7,4.4,1.7s2.9-.6,4.4-1.7a13.94,13.94,0,0,1,13.6-2.3l4.9-19.2h-46V58.5a1.73,1.73,0,0,0-1.8-1.8h-6.2V46.4h-14V56.7h-47a1.79,1.79,0,0,0-1.8,1.8h0V76.7H59.3l5.2,20.4A11.4,11.4,0,0,1,71.6,95Z" transform="translate(-55.64 -44.44)"/><path class="cls-3" d="M190.6,107.5a7.38,7.38,0,0,1-5.1-1.9,12.82,12.82,0,0,0-16.3,0,7.79,7.79,0,0,1-10.2,0,12.82,12.82,0,0,0-16.3,0,7.79,7.79,0,0,1-10.2,0,12.82,12.82,0,0,0-16.3,0,7.79,7.79,0,0,1-10.2,0,12.82,12.82,0,0,0-16.3,0,7.79,7.79,0,0,1-10.2,0,12.82,12.82,0,0,0-16.3,0,7.38,7.38,0,0,1-5.1,1.9,1.3,1.3,0,0,1,0-2.6c1.7,0,2.2-.4,3.7-1.4a15.34,15.34,0,0,1,19.2,0,4.81,4.81,0,0,0,3.7,1.4,5.2,5.2,0,0,0,3.7-1.4,15.34,15.34,0,0,1,19.2,0,4.81,4.81,0,0,0,3.7,1.4c1.7,0,2.2-.4,3.7-1.4a15.34,15.34,0,0,1,19.2,0,4.81,4.81,0,0,0,3.7,1.4,5.2,5.2,0,0,0,3.7-1.4,15.34,15.34,0,0,1,19.2,0,4.81,4.81,0,0,0,3.7,1.4c1.7,0,2.2-.4,3.7-1.4a15.34,15.34,0,0,1,19.2,0,4.81,4.81,0,0,0,3.7,1.4h0a1.32,1.32,0,0,1,1.3,1.3c0,.7-1.1,1.3-1.8,1.3Z" transform="translate(-55.64 -44.44)"/><rect class="cls-3" x="88.86" y="16.56" width="17.1" height="13.9"/><rect class="cls-3" x="107.66" y="16.56" width="17.1" height="13.9"/><rect class="cls-3" x="89.06" y="1.16" width="17.1" height="13.9"/><rect class="cls-3" x="107.86" y="1.16" width="17.1" height="13.9"/></g></g></g></svg>