<svg xmlns="http://www.w3.org/2000/svg" viewBox="0 0 119.07 122.02"><defs><style>.cls-1{fill:none;stroke:#e52521;stroke-miterlimit:10;stroke-width:1.6px;}.cls-2{fill:#e52521;}</style></defs><g id="Calque_2" data-name="Calque 2"><g id="Calque_1-2" data-name="Calque 1"><path class="cls-1" d="M28.2,72.3c3.5,5.5,6.7,9.6,5.8,16.1s-.5,12.8-3.6,18.6c-2.1,4,1.4,4.3,3.3,5.9,7.3,6.3,16.6,3.8,24.8,5.7,6.2,1.5,15.4,7.5,17-6,.3-2.4,4.2-3.1,7-3.3a35.59,35.59,0,0,1,13.3,2.4c6.2,2.3,16.5-2.1,19-7.8,1-2.4-.1-2.8-2-3.6-5.2-2.5-4.8-6.5-3.5-11.8,1.1-4.5,1.9-11.1-3.8-13.1-5.2-1.9-1.9-3.8-.8-4.9,5.5-5.4,8.8-11.8,12.2-19s-.1-7.3-4.3-8.6a133.36,133.36,0,0,1-43-21.4c-5-3.8-9.3-2.5-9.7,3.6s-2.8,8.1-8.2,8.2c-2.1,0-4.3.6-5.3,2.9-3.1,7.3-7.7,4-11.6,1.1-2-1.5-3.5-3.5-6.2-1.8-2.9,2-1.1,4,0,6.2,3.3,6.3,1.8,7.3-5.4,6.9a8.62,8.62,0,0,1-3.8-1.3c-1.9-1-3.5-2.3-5.9-1.6-2,.5-4,1.1-6.2,1.5-2.8.4-6.5-1-6.5,4,0,4.3,1.3,7.3,6.2,8.6C15.3,61.8,22.6,63.5,28.2,72.3Z"/><path class="cls-2" d="M69.4,78.9S92.2,35.5,92.2,22.8a22.8,22.8,0,1,0-45.6,0h0c.1,12.7,22.8,56.1,22.8,56.1"/></g></g></svg>