<svg xmlns="http://www.w3.org/2000/svg" xmlns:xlink="http://www.w3.org/1999/xlink" viewBox="0 0 204.02 203.96"><defs><style>.cls-1{fill:none;}.cls-2{clip-path:url(#clip-path);}.cls-3{fill:#e52421;}</style><clipPath id="clip-path" transform="translate(-77.59 -59.22)"><rect class="cls-1" width="359" height="267.5"/></clipPath></defs><g id="Calque_2" data-name="Calque 2"><g id="Calque_1-2" data-name="Calque 1"><g class="cls-2"><path class="cls-3" d="M222,154.6h-1.7a3.4,3.4,0,0,0-3.3,3.3,3.33,3.33,0,0,0,3.3,3.3,3.76,3.76,0,0,1,3.7,3.7,3.63,3.63,0,0,1-3.7,3.7h-3.5a3.3,3.3,0,0,0,0,6.6,3.76,3.76,0,0,1,3.7,3.7,3.63,3.63,0,0,1-3.7,3.7h-3.5a3.4,3.4,0,0,0-3.3,3.3,3.33,3.33,0,0,0,3.3,3.3,3.76,3.76,0,0,1,3.7,3.7,3.63,3.63,0,0,1-3.7,3.7H161.9V165.8a3.4,3.4,0,0,0-3.3-3.3,3.33,3.33,0,0,0-3.3,3.3v34c0,.2,0,.2-.2.2H134.7c-.2,0-.2,0-.2-.2V145.4c0-.2,0-.2.2-.2h20.4c.2,0,.2,0,.2.2v6.7a3.4,3.4,0,0,0,3.3,3.3,3.33,3.33,0,0,0,3.3-3.3h0V145a53.89,53.89,0,0,0,5.6-5,9.26,9.26,0,0,1,3.9-2.6,37.57,37.57,0,0,0,15.4-9.1c3.7-3.7,5.9-7.4,5.9-10a6.13,6.13,0,0,1,1.5-3.7,5.19,5.19,0,0,1,3.9-1.5,5.34,5.34,0,0,1,3.7,1.7,6.14,6.14,0,0,1,1.5,5c-.7,6.3-5.9,14.1-13,19.9a3.28,3.28,0,0,0-1.1,3.5,3.21,3.21,0,0,0,3,2.2h29.5a5.31,5.31,0,0,1,.6,10.6c.1-1.2-.1-1.2-.3-1.4m11.7-5.2A11.65,11.65,0,0,0,222,137.7H200.5a34,34,0,0,0,9.3-18.6,13.31,13.31,0,0,0-3-10,11.54,11.54,0,0,0-8.5-3.9h0a11.61,11.61,0,0,0-11.7,11.5,14.13,14.13,0,0,1-4.3,5.9,30.68,30.68,0,0,1-12.6,7.4,15.46,15.46,0,0,0-6.5,4.3,41.67,41.67,0,0,1-4.3,4.1,7.75,7.75,0,0,0-3-.7H135.5a6.36,6.36,0,0,0-6.5,6.5h0v54.4a6.36,6.36,0,0,0,6.5,6.5h20.4a7.1,7.1,0,0,0,5.9-3.3h52a10.14,10.14,0,0,0,10.2-10,8.39,8.39,0,0,0-1.5-5.2,10,10,0,0,0,3.5-13.7,9.77,9.77,0,0,0,3.3-13.7h0l-.2-.4a11.51,11.51,0,0,0,4.6-9.4" transform="translate(-77.59 -59.22)"/><path class="cls-3" d="M145.4,185.1a3.3,3.3,0,1,0,3.3,3.3h0a3.33,3.33,0,0,0-3.3-3.3" transform="translate(-77.59 -59.22)"/><path class="cls-3" d="M269.5,162.4l5.2,13.9L265.4,188a4.1,4.1,0,0,0-.7,2.2l.7,15-12.6,8.2a3,3,0,0,0-1.3,1.7l-3.9,14.3-14.3,3.9a4.35,4.35,0,0,0-2,1.3L223.1,247l-15-.7a3.41,3.41,0,0,0-2.2.7l-11.5,9.3-13.9-5.2a4.11,4.11,0,0,0-2.2,0l-14.1,5.2L152.7,247a4.1,4.1,0,0,0-2.2-.7l-15,.7-8.2-12.4a3,3,0,0,0-1.7-1.3l-14.3-3.9-3.9-14.3a3.15,3.15,0,0,0-1.3-1.7l-12.6-8.2.7-15a3.41,3.41,0,0,0-.7-2.2l-9.3-11.7,5.2-13.9a4.11,4.11,0,0,0,0-2.2l-5.2-13.9,9.3-11.7a4.1,4.1,0,0,0,.7-2.2l-.7-15,12.6-8.2a3,3,0,0,0,1.3-1.7l3.9-14.3,14.3-3.9a3.15,3.15,0,0,0,1.7-1.3l8.2-12.4,15,.7a3.41,3.41,0,0,0,2.2-.7l11.7-9.3,13.9,5.2a4.11,4.11,0,0,0,2.2,0l13.9-5.2,11.7,9.3a4.1,4.1,0,0,0,2.2.7l15-.7L231.5,88a2.87,2.87,0,0,0,2,1.3l14.3,3.9,3.9,14.3a3.15,3.15,0,0,0,1.3,1.7l12.6,8.2-.7,14.7a3.41,3.41,0,0,0,.7,2.2l9.3,11.7-5.2,13.9a2,2,0,0,0-.2,2.5m6.5-1.3,5.4-14.5a3.15,3.15,0,0,0-.4-3l-9.8-12.1.7-15.4a3,3,0,0,0-1.5-2.8l-13-8.5-4.1-15a2.77,2.77,0,0,0-2.2-2.2l-15-4.1-8.5-13a3.61,3.61,0,0,0-2.8-1.5l-15.4.7-12.1-9.8a2.81,2.81,0,0,0-3-.4l-14.7,5.6-14.5-5.4a3.15,3.15,0,0,0-3,.4L150,69.9l-15.4-.7a3,3,0,0,0-2.8,1.5l-8.5,13-15,4.1a2.77,2.77,0,0,0-2.2,2.2L102,105l-13,8.5a3.61,3.61,0,0,0-1.5,2.8l.7,15.4-9.8,11.9a2.81,2.81,0,0,0-.4,3l5.4,14.5-5.6,14.3a3.15,3.15,0,0,0,.4,3L88,190.5l-.7,15.8a3,3,0,0,0,1.5,2.8l13,8.5,4.1,15a2.77,2.77,0,0,0,2.2,2.2l15,4.1,8.5,13a3.61,3.61,0,0,0,2.8,1.5l15.4-.7,12.1,9.8a2.81,2.81,0,0,0,3,.4l14.5-5.4,14.5,5.4a2.15,2.15,0,0,0,1.1.2,2.88,2.88,0,0,0,2-.7l12.1-9.8,15.4.7a3,3,0,0,0,2.8-1.5l8.5-13,15-4.1a2.77,2.77,0,0,0,2.2-2.2l4.1-15,13-8.5a3.61,3.61,0,0,0,1.5-2.8l-.7-15.6,9.8-12.1a2.81,2.81,0,0,0,.4-3Z" transform="translate(-77.59 -59.22)"/><path class="cls-3" d="M239.5,106c-.9-.9-1.5-1.7-2.4-2.6a28.4,28.4,0,0,0-2.6-2.4,3.4,3.4,0,0,0-4.6.4,3,3,0,0,0,.2,4.1h0c.9.7,1.5,1.5,2.4,2.2a12.56,12.56,0,0,1,2.2,2.4,3.4,3.4,0,0,0,4.6.2,3,3,0,0,0,.2-4.3h0" transform="translate(-77.59 -59.22)"/><path class="cls-3" d="M223.1,92.3a81.42,81.42,0,0,0-106.2,121,3.36,3.36,0,0,0,2.4,1.1,2.74,2.74,0,0,0,2.2-.9,3.37,3.37,0,0,0,.4-4.6A75.12,75.12,0,0,1,219.7,97.2a3.1,3.1,0,0,0,4.3-1.1c1.2-.9.8-2.9-.9-3.8h0" transform="translate(-77.59 -59.22)"/><path class="cls-3" d="M248.2,117.3a2.91,2.91,0,0,0-4.3-.9c-1.5,1.1-2,2.8-.9,4.3h0a75.1,75.1,0,0,1-23.4,103.6c-27.5,17.3-63.3,15.2-88.2-5.9a3.26,3.26,0,0,0-4.2,5,81.14,81.14,0,0,0,52.5,19.1H183a81.38,81.38,0,0,0,78.1-84.8,83.42,83.42,0,0,0-12.9-40.4" transform="translate(-77.59 -59.22)"/></g></g></g></svg>