<svg xmlns="http://www.w3.org/2000/svg" xmlns:xlink="http://www.w3.org/1999/xlink" viewBox="0 0 61.51 90.01"><defs><style>.cls-1{fill:none;}.cls-2{clip-path:url(#clip-path);}.cls-3,.cls-4{fill:#e52421;stroke-miterlimit:10;stroke-width:2.25px;}.cls-3{stroke:#e52421;}.cls-4{stroke:#e30613;}</style><clipPath id="clip-path" transform="translate(-30.25 -22.91)"><rect class="cls-1" width="121.9" height="113.7"/></clipPath></defs><g id="Calque_2" data-name="Calque 2"><g id="Calque_1-2" data-name="Calque 1"><g class="cls-2"><path class="cls-3" d="M43.3,75a29.25,29.25,0,0,0,35.3,0v-.2l.4-.3a27.66,27.66,0,1,0-39-3.1,21.27,21.27,0,0,0,3,3l.4.3ZM61,96.6,75.4,109a2.72,2.72,0,0,0,3.9-.3,3.12,3.12,0,0,0,.7-1.8v-.1L78.8,77.3a31.16,31.16,0,0,1-35.5,0L42,106.7v.1a2.64,2.64,0,0,0,1.6,2.5,2.74,2.74,0,0,0,3-.4ZM44.8,111.8A4.8,4.8,0,0,1,40,107h0v-.1h0l1.3-31a29.68,29.68,0,1,1,41.9-2.6,18.78,18.78,0,0,1-2.5,2.4l1.3,31v.2a4.86,4.86,0,0,1-2.8,4.4,4.48,4.48,0,0,1-2,.4,4.3,4.3,0,0,1-3.1-1.2L61,99.2,47.9,110.5a4.77,4.77,0,0,1-3.1,1.3" transform="translate(-30.25 -22.91)"/><path class="cls-4" d="M57,61.7a.91.91,0,0,1-.7-.3l-7.9-8.1a1,1,0,0,1,0-1.4h0a1,1,0,0,1,1.4,0h0L57,59.3,70.9,46.2a1,1,0,0,1,1.4,0h0a1,1,0,0,1,0,1.4h0L57.7,61.4a.91.91,0,0,1-.7.3" transform="translate(-30.25 -22.91)"/></g></g></g></svg>