<svg xmlns="http://www.w3.org/2000/svg" width="133.995" height="91.796" viewBox="0 0 133.995 91.796"><defs><style>.a{fill:#c1c1c1;}</style></defs><path class="a" d="M3.575.615A4.285,4.285,0,0,1,2.985,7.16a4.285,4.285,0,0,1-4.847.01,4.288,4.288,0,0,1-.6-6.555,4.266,4.266,0,0,1,6.041,0" transform="translate(79.181 45.869)"/><path class="a" d="M3.581.614A4.279,4.279,0,0,1-1.865,7.169,4.279,4.279,0,1,1,3.581.614" transform="translate(71.609 38.307)"/><path class="a" d="M3.581.614A4.279,4.279,0,0,1-1.853,7.176,4.283,4.283,0,0,1-2.469.614a4.281,4.281,0,0,1,6.05,0" transform="translate(64.046 30.743)"/><path class="a" d="M3.581.614A4.279,4.279,0,0,1-1.861,7.173,4.284,4.284,0,0,1-2.468.614a4.277,4.277,0,0,1,6.048,0" transform="translate(41.504 8.201)"/><path class="a" d="M3.581.614A4.279,4.279,0,0,1-1.863,7.171a4.283,4.283,0,0,1-.6-6.557,4.277,4.277,0,0,1,6.048,0" transform="translate(33.941 0.638)"/><path class="a" d="M3.581.614A4.279,4.279,0,0,1-1.861,7.173,4.284,4.284,0,0,1-2.468.614a4.277,4.277,0,0,1,6.048,0" transform="translate(11.284 38.42)"/><path class="a" d="M3.581.614A4.279,4.279,0,0,1-1.863,7.171,4.283,4.283,0,0,1-2.469.614a4.279,4.279,0,0,1,6.05,0" transform="translate(3.721 30.857)"/><path class="a" d="M3.582.614a4.278,4.278,0,1,1-6.05,0,4.276,4.276,0,0,1,6.05,0" transform="translate(11.154 23.046)"/><path class="a" d="M3.582.614a4.278,4.278,0,1,1-6.05,0,4.278,4.278,0,0,1,6.05,0" transform="translate(18.717 15.483)"/><path class="a" d="M3.582.614a4.278,4.278,0,1,1-6.05,0,4.279,4.279,0,0,1,6.05,0" transform="translate(26.281 7.921)"/><path class="a" d="M3.582.614A4.279,4.279,0,0,1-1.86,7.173,4.279,4.279,0,1,1,3.582.614" transform="translate(56.482 23.18)"/><path class="a" d="M3.581.614A4.279,4.279,0,0,1-1.863,7.171,4.279,4.279,0,1,1,3.581.614" transform="translate(48.92 15.617)"/><path class="a" d="M3.582.615A4.28,4.28,0,0,1-1.866,7.169a4.283,4.283,0,0,1-.6-6.555,4.278,4.278,0,0,1,6.05,0" transform="translate(48.953 76.088)"/><path class="a" d="M3.581.614A4.279,4.279,0,0,1-1.864,7.169,4.279,4.279,0,1,1,3.581.614" transform="translate(41.389 68.526)"/><path class="a" d="M3.581.614A4.279,4.279,0,0,1-1.853,7.176,4.283,4.283,0,0,1-2.469.614a4.281,4.281,0,0,1,6.05,0" transform="translate(33.826 60.962)"/><path class="a" d="M3.581.614A4.279,4.279,0,0,1-1.861,7.173,4.284,4.284,0,0,1-2.468.614a4.277,4.277,0,0,1,6.048,0" transform="translate(26.263 53.399)"/><path class="a" d="M3.575.614a4.286,4.286,0,0,1-.589,6.547,4.281,4.281,0,0,1-4.845.01,4.285,4.285,0,0,1-.6-6.555,4.263,4.263,0,0,1,6.039,0" transform="translate(18.695 45.837)"/><path class="a" d="M33.321,15.516a4.278,4.278,0,1,1-6.05,0,4.278,4.278,0,0,1,6.05,0M3.069,45.768a4.279,4.279,0,0,1,0,6.05,4.276,4.276,0,0,1-6.05,0,4.279,4.279,0,0,1,0-6.05,4.279,4.279,0,0,1,6.05,0m15.127,0a4.279,4.279,0,1,1-6.052,0,4.277,4.277,0,0,1,6.052,0M-27.316.258a4.279,4.279,0,0,1,0,6.05,4.278,4.278,0,0,1-6.052,0,4.279,4.279,0,0,1,0-6.05,4.279,4.279,0,0,1,6.05,0m7.563-7.563a4.279,4.279,0,0,1,0,6.05,4.278,4.278,0,0,1-6.05,0,4.279,4.279,0,0,1,0-6.05,4.279,4.279,0,0,1,6.05,0m7.561-7.563a4.278,4.278,0,0,1,0,6.052,4.278,4.278,0,0,1-6.05,0,4.277,4.277,0,0,1,0-6.048,4.278,4.278,0,0,1,6.05,0M10.633,38.2a4.28,4.28,0,1,1-6.052,0,4.282,4.282,0,0,1,6.052,0M33.321,45.77a4.278,4.278,0,1,1-6.05,0,4.277,4.277,0,0,1,6.05,0m-7.563-7.563a4.278,4.278,0,1,1-6.05,0,4.279,4.279,0,0,1,6.05,0m-7.563-7.563a4.278,4.278,0,1,1-6.05,0,4.276,4.276,0,0,1,6.05,0m15.127,0a4.278,4.278,0,1,1-6.05,0,4.275,4.275,0,0,1,6.05,0M25.757,23.08a4.278,4.278,0,1,1-6.05,0,4.279,4.279,0,0,1,6.05,0" transform="translate(57.031 38.382)"/><path class="a" d="M2.1,0a4.278,4.278,0,1,1-4.28,4.278A4.279,4.279,0,0,1,2.1,0" transform="translate(127.618 83.24)"/><path class="a" d="M2.1,0A4.278,4.278,0,1,1-2.179,4.278,4.279,4.279,0,0,1,2.1,0" transform="translate(116.92 83.24)"/><path class="a" d="M2.1,0a4.278,4.278,0,1,1-4.28,4.278A4.28,4.28,0,0,1,2.1,0" transform="translate(106.226 83.24)"/></svg>