<svg xmlns="http://www.w3.org/2000/svg" width="91.801" height="91.796" viewBox="0 0 91.801 91.796"><defs><style>.a{fill:#c1c1c1;}</style></defs><path class="a" d="M2.529,0a4.708,4.708,0,1,1-4.71,4.708A4.708,4.708,0,0,1,2.529,0M84.912,82.381A4.708,4.708,0,1,1,80.2,87.089a4.709,4.709,0,0,1,4.708-4.708m-11.771,0a4.708,4.708,0,1,1-4.706,4.708,4.708,4.708,0,0,1,4.706-4.708m-11.767,0a4.708,4.708,0,1,1-4.708,4.708,4.71,4.71,0,0,1,4.708-4.708m-11.769,0A4.708,4.708,0,1,1,44.9,87.089,4.707,4.707,0,0,1,49.6,82.381m-11.769,0a4.708,4.708,0,1,1-4.708,4.708,4.708,4.708,0,0,1,4.708-4.708m-11.769,0a4.708,4.708,0,1,1-4.71,4.708,4.708,4.708,0,0,1,4.71-4.708m-11.769,0A4.708,4.708,0,1,1,9.59,87.089,4.71,4.71,0,0,1,14.3,82.381m-11.767,0a4.708,4.708,0,1,1-4.71,4.708,4.708,4.708,0,0,1,4.71-4.708M84.912,70.616A4.706,4.706,0,1,1,80.2,75.321a4.707,4.707,0,0,1,4.708-4.706m-11.771,0a4.706,4.706,0,1,1-4.706,4.706,4.706,4.706,0,0,1,4.706-4.706m-11.767,0a4.706,4.706,0,1,1-4.708,4.706,4.708,4.708,0,0,1,4.708-4.706m-11.769,0A4.706,4.706,0,1,1,44.9,75.321,4.705,4.705,0,0,1,49.6,70.616m-11.769,0a4.706,4.706,0,1,1-4.708,4.706,4.706,4.706,0,0,1,4.708-4.706m-11.769,0a4.706,4.706,0,1,1-4.71,4.706,4.706,4.706,0,0,1,4.71-4.706m-11.769,0A4.706,4.706,0,1,1,9.59,75.321,4.708,4.708,0,0,1,14.3,70.616m-11.767,0a4.706,4.706,0,1,1-4.71,4.706,4.706,4.706,0,0,1,4.71-4.706M84.912,47.077A4.707,4.707,0,1,1,80.2,51.785a4.709,4.709,0,0,1,4.708-4.708m-11.771,0a4.707,4.707,0,1,1-4.706,4.708,4.708,4.708,0,0,1,4.706-4.708m-11.767,0a4.707,4.707,0,1,1-4.708,4.708,4.71,4.71,0,0,1,4.708-4.708m-11.769,0A4.707,4.707,0,1,1,44.9,51.785,4.707,4.707,0,0,1,49.6,47.077m-11.769,0a4.707,4.707,0,1,1-4.708,4.708,4.708,4.708,0,0,1,4.708-4.708m-11.769,0a4.707,4.707,0,1,1-4.71,4.708,4.708,4.708,0,0,1,4.71-4.708m-11.769,0A4.707,4.707,0,1,1,9.59,51.785,4.71,4.71,0,0,1,14.3,47.077m-11.767,0a4.707,4.707,0,1,1-4.71,4.708,4.708,4.708,0,0,1,4.71-4.708M84.912,35.306A4.708,4.708,0,1,1,80.2,40.013a4.709,4.709,0,0,1,4.708-4.708m-11.771,0a4.708,4.708,0,1,1-4.706,4.708,4.708,4.708,0,0,1,4.706-4.708m-11.767,0a4.708,4.708,0,1,1-4.708,4.708,4.71,4.71,0,0,1,4.708-4.708m-11.769,0A4.708,4.708,0,1,1,44.9,40.013,4.707,4.707,0,0,1,49.6,35.306m-11.769,0a4.708,4.708,0,1,1-4.708,4.708,4.708,4.708,0,0,1,4.708-4.708m-11.769,0a4.708,4.708,0,1,1-4.71,4.708,4.708,4.708,0,0,1,4.71-4.708m-11.769,0A4.708,4.708,0,1,1,9.59,40.013,4.71,4.71,0,0,1,14.3,35.306m-11.767,0a4.708,4.708,0,1,1-4.71,4.708,4.708,4.708,0,0,1,4.71-4.708M84.912,11.769A4.708,4.708,0,1,1,80.2,16.475a4.707,4.707,0,0,1,4.708-4.706m-11.771,0a4.708,4.708,0,1,1-4.706,4.706,4.706,4.706,0,0,1,4.706-4.706m-11.767,0a4.708,4.708,0,1,1-4.708,4.706,4.708,4.708,0,0,1,4.708-4.706m-11.769,0A4.708,4.708,0,1,1,44.9,16.475,4.705,4.705,0,0,1,49.6,11.769m-11.769,0a4.708,4.708,0,1,1-4.708,4.706,4.706,4.706,0,0,1,4.708-4.706m-11.769,0a4.708,4.708,0,1,1-4.71,4.706,4.706,4.706,0,0,1,4.71-4.706m-11.769,0A4.708,4.708,0,1,1,9.59,16.475,4.708,4.708,0,0,1,14.3,11.769m-11.767,0a4.708,4.708,0,1,1-4.71,4.706,4.706,4.706,0,0,1,4.71-4.706M84.912,0A4.708,4.708,0,1,1,80.2,4.708,4.709,4.709,0,0,1,84.912,0M73.14,0a4.708,4.708,0,1,1-4.706,4.708A4.708,4.708,0,0,1,73.14,0M61.373,0a4.708,4.708,0,1,1-4.708,4.708A4.71,4.71,0,0,1,61.373,0M49.6,0A4.708,4.708,0,1,1,44.9,4.708,4.707,4.707,0,0,1,49.6,0M37.835,0a4.708,4.708,0,1,1-4.708,4.708A4.708,4.708,0,0,1,37.835,0M26.065,0a4.708,4.708,0,1,1-4.71,4.708A4.708,4.708,0,0,1,26.065,0M14.3,0A4.708,4.708,0,1,1,9.59,4.708,4.71,4.71,0,0,1,14.3,0" transform="translate(2.181 0)"/></svg>