<svg xmlns="http://www.w3.org/2000/svg" width="147.82" height="100.734" viewBox="0 0 147.82 100.734"><defs><style>.a{fill:#c1c1c1;}</style></defs><path class="a" d="M8.7,0A4.58,4.58,0,1,1,4.12,4.581,4.576,4.576,0,0,1,8.7,0M20.146,91.576a4.579,4.579,0,1,1-4.581,4.581,4.578,4.578,0,0,1,4.581-4.581m-11.447,0A4.579,4.579,0,1,1,4.12,96.157,4.576,4.576,0,0,1,8.7,91.576M20.146,80.132a4.577,4.577,0,1,1-4.581,4.575,4.576,4.576,0,0,1,4.581-4.575m-11.447,0A4.577,4.577,0,1,1,4.12,84.707,4.575,4.575,0,0,1,8.7,80.132m11.447-11.45a4.579,4.579,0,1,1-4.581,4.579,4.578,4.578,0,0,1,4.581-4.579m-11.447,0A4.579,4.579,0,1,1,4.12,73.262,4.577,4.577,0,0,1,8.7,68.683M31.594,57.237a4.577,4.577,0,1,1-4.579,4.577,4.575,4.575,0,0,1,4.579-4.577m-11.447,0a4.577,4.577,0,1,1-4.581,4.577,4.577,4.577,0,0,1,4.581-4.577m-11.447,0A4.577,4.577,0,1,1,4.12,61.814,4.575,4.575,0,0,1,8.7,57.237m-11.447,0a4.577,4.577,0,0,1,4.577,4.577,4.577,4.577,0,0,1-4.577,4.577A4.58,4.58,0,0,1-7.33,61.814a4.58,4.58,0,0,1,4.581-4.577M31.594,45.79a4.579,4.579,0,1,1-4.579,4.577,4.575,4.575,0,0,1,4.579-4.577m-11.447,0a4.579,4.579,0,1,1-4.581,4.577,4.577,4.577,0,0,1,4.581-4.577M8.7,45.79A4.579,4.579,0,1,1,4.12,50.367,4.575,4.575,0,0,1,8.7,45.79m-11.447,0a4.577,4.577,0,0,1,4.577,4.577,4.579,4.579,0,0,1-4.577,4.581A4.583,4.583,0,0,1-7.33,50.367,4.58,4.58,0,0,1-2.749,45.79M31.594,34.345a4.576,4.576,0,1,1-4.579,4.575,4.575,4.575,0,0,1,4.579-4.575m-11.447,0a4.576,4.576,0,1,1-4.581,4.575,4.576,4.576,0,0,1,4.581-4.575m-11.447,0A4.576,4.576,0,1,1,4.12,38.919,4.575,4.575,0,0,1,8.7,34.345m-11.447,0a4.576,4.576,0,0,1,4.577,4.575A4.575,4.575,0,0,1-2.749,43.5,4.579,4.579,0,0,1-7.33,38.919a4.58,4.58,0,0,1,4.581-4.575M31.594,22.893a4.579,4.579,0,1,1-4.579,4.583,4.578,4.578,0,0,1,4.579-4.583m-11.447,0a4.579,4.579,0,1,1-4.581,4.583,4.579,4.579,0,0,1,4.581-4.583m-11.447,0A4.579,4.579,0,1,1,4.12,27.476,4.578,4.578,0,0,1,8.7,22.893m-11.447,0a4.579,4.579,0,0,1,4.577,4.583,4.576,4.576,0,0,1-4.577,4.575A4.58,4.58,0,0,1-7.33,27.476a4.583,4.583,0,0,1,4.581-4.583M20.146,11.45a4.578,4.578,0,1,1-4.581,4.579,4.577,4.577,0,0,1,4.581-4.579M8.7,11.45A4.578,4.578,0,1,1,4.12,16.029,4.576,4.576,0,0,1,8.7,11.45M20.146,0a4.58,4.58,0,1,1-4.581,4.581A4.578,4.578,0,0,1,20.146,0" transform="translate(7.33 0)"/><path class="a" d="M8.7,0A4.58,4.58,0,1,1,4.117,4.581,4.578,4.578,0,0,1,8.7,0M20.144,91.576a4.579,4.579,0,1,1-4.579,4.581,4.578,4.578,0,0,1,4.579-4.581m-11.445,0a4.579,4.579,0,1,1-4.581,4.581A4.578,4.578,0,0,1,8.7,91.576M20.144,80.132a4.577,4.577,0,1,1-4.579,4.575,4.577,4.577,0,0,1,4.579-4.575m-11.445,0a4.577,4.577,0,1,1-4.581,4.575A4.576,4.576,0,0,1,8.7,80.132m11.445-11.45a4.579,4.579,0,1,1-4.579,4.579,4.579,4.579,0,0,1,4.579-4.579m-11.445,0a4.579,4.579,0,1,1-4.581,4.579A4.578,4.578,0,0,1,8.7,68.683M31.594,57.237a4.577,4.577,0,1,1-4.581,4.577,4.577,4.577,0,0,1,4.581-4.577m-11.45,0a4.577,4.577,0,1,1-4.579,4.577,4.577,4.577,0,0,1,4.579-4.577m-11.445,0a4.577,4.577,0,1,1-4.581,4.577A4.577,4.577,0,0,1,8.7,57.237m-11.447,0a4.578,4.578,0,0,1,4.577,4.577,4.578,4.578,0,0,1-4.577,4.577A4.579,4.579,0,0,1-7.33,61.814a4.579,4.579,0,0,1,4.581-4.577M31.594,45.79a4.579,4.579,0,1,1-4.581,4.577,4.577,4.577,0,0,1,4.581-4.577m-11.45,0a4.579,4.579,0,1,1-4.579,4.577,4.577,4.577,0,0,1,4.579-4.577M8.7,45.79a4.579,4.579,0,1,1-4.581,4.577A4.577,4.577,0,0,1,8.7,45.79m-11.447,0a4.578,4.578,0,0,1,4.577,4.577,4.58,4.58,0,0,1-4.577,4.581A4.581,4.581,0,0,1-7.33,50.367,4.579,4.579,0,0,1-2.749,45.79M31.594,34.345a4.576,4.576,0,1,1-4.581,4.575,4.576,4.576,0,0,1,4.581-4.575m-11.45,0a4.576,4.576,0,1,1-4.579,4.575,4.577,4.577,0,0,1,4.579-4.575m-11.445,0a4.576,4.576,0,1,1-4.581,4.575A4.576,4.576,0,0,1,8.7,34.345m-11.447,0a4.578,4.578,0,0,1,4.577,4.575A4.577,4.577,0,0,1-2.749,43.5,4.578,4.578,0,0,1-7.33,38.919a4.578,4.578,0,0,1,4.581-4.575M31.594,22.893a4.579,4.579,0,1,1-4.581,4.583,4.579,4.579,0,0,1,4.581-4.583m-11.45,0a4.579,4.579,0,1,1-4.579,4.583,4.58,4.58,0,0,1,4.579-4.583m-11.445,0a4.579,4.579,0,1,1-4.581,4.583A4.579,4.579,0,0,1,8.7,22.893m-11.447,0a4.581,4.581,0,0,1,4.577,4.583,4.578,4.578,0,0,1-4.577,4.575A4.578,4.578,0,0,1-7.33,27.476a4.582,4.582,0,0,1,4.581-4.583M20.144,11.45a4.578,4.578,0,1,1-4.579,4.579,4.578,4.578,0,0,1,4.579-4.579M8.7,11.45a4.578,4.578,0,1,1-4.581,4.579A4.577,4.577,0,0,1,8.7,11.45M20.144,0a4.58,4.58,0,1,1-4.579,4.581A4.578,4.578,0,0,1,20.144,0" transform="translate(59.491 0)"/><path class="a" d="M8.7,0A4.58,4.58,0,1,1,4.117,4.581,4.576,4.576,0,0,1,8.7,0M20.144,91.576a4.579,4.579,0,1,1-4.579,4.581,4.578,4.578,0,0,1,4.579-4.581m-11.445,0a4.579,4.579,0,1,1-4.581,4.581A4.576,4.576,0,0,1,8.7,91.576M20.144,80.132a4.577,4.577,0,1,1-4.579,4.575,4.577,4.577,0,0,1,4.579-4.575m-11.445,0a4.577,4.577,0,1,1-4.581,4.575A4.575,4.575,0,0,1,8.7,80.132m11.445-11.45a4.579,4.579,0,1,1-4.579,4.579,4.579,4.579,0,0,1,4.579-4.579m-11.445,0a4.579,4.579,0,1,1-4.581,4.579A4.577,4.577,0,0,1,8.7,68.683M31.594,57.237a4.577,4.577,0,1,1-4.579,4.577,4.577,4.577,0,0,1,4.579-4.577m-11.45,0a4.577,4.577,0,1,1-4.579,4.577,4.577,4.577,0,0,1,4.579-4.577m-11.445,0a4.577,4.577,0,1,1-4.581,4.577A4.575,4.575,0,0,1,8.7,57.237m-11.447,0a4.578,4.578,0,0,1,4.577,4.577,4.578,4.578,0,0,1-4.577,4.577A4.579,4.579,0,0,1-7.33,61.814a4.579,4.579,0,0,1,4.581-4.577M31.594,45.79a4.579,4.579,0,1,1-4.579,4.577,4.577,4.577,0,0,1,4.579-4.577m-11.45,0a4.579,4.579,0,1,1-4.579,4.577,4.577,4.577,0,0,1,4.579-4.577M8.7,45.79a4.579,4.579,0,1,1-4.581,4.577A4.575,4.575,0,0,1,8.7,45.79m-11.447,0a4.578,4.578,0,0,1,4.577,4.577,4.58,4.58,0,0,1-4.577,4.581A4.581,4.581,0,0,1-7.33,50.367,4.579,4.579,0,0,1-2.749,45.79M31.594,34.345a4.576,4.576,0,1,1-4.579,4.575,4.576,4.576,0,0,1,4.579-4.575m-11.45,0a4.576,4.576,0,1,1-4.579,4.575,4.577,4.577,0,0,1,4.579-4.575m-11.445,0a4.576,4.576,0,1,1-4.581,4.575A4.575,4.575,0,0,1,8.7,34.345m-11.447,0a4.578,4.578,0,0,1,4.577,4.575A4.577,4.577,0,0,1-2.749,43.5,4.578,4.578,0,0,1-7.33,38.919a4.578,4.578,0,0,1,4.581-4.575M31.594,22.893a4.579,4.579,0,1,1-4.579,4.583,4.579,4.579,0,0,1,4.579-4.583m-11.45,0a4.579,4.579,0,1,1-4.579,4.583,4.58,4.58,0,0,1,4.579-4.583m-11.445,0a4.579,4.579,0,1,1-4.581,4.583A4.578,4.578,0,0,1,8.7,22.893m-11.447,0a4.581,4.581,0,0,1,4.577,4.583,4.578,4.578,0,0,1-4.577,4.575A4.578,4.578,0,0,1-7.33,27.476a4.582,4.582,0,0,1,4.581-4.583M20.144,11.45a4.578,4.578,0,1,1-4.579,4.579,4.578,4.578,0,0,1,4.579-4.579M8.7,11.45a4.578,4.578,0,1,1-4.581,4.579A4.576,4.576,0,0,1,8.7,11.45M20.144,0a4.58,4.58,0,1,1-4.579,4.581A4.578,4.578,0,0,1,20.144,0" transform="translate(111.65 0)"/></svg>