<svg xmlns="http://www.w3.org/2000/svg" width="91.796" height="91.796" viewBox="0 0 91.796 91.796"><defs><style>.a{fill:#c1c1c1;}</style></defs><path class="a" d="M2.529,0a4.707,4.707,0,1,1-4.71,4.707A4.709,4.709,0,0,1,2.529,0M84.912,82.381a4.707,4.707,0,1,1-4.71,4.707,4.705,4.705,0,0,1,4.71-4.707m-11.773,0a4.707,4.707,0,1,1-4.708,4.707,4.709,4.709,0,0,1,4.708-4.707m-11.767,0a4.707,4.707,0,1,1-4.707,4.707,4.707,4.707,0,0,1,4.707-4.707m-11.769,0A4.707,4.707,0,1,1,44.9,87.089,4.707,4.707,0,0,1,49.6,82.381m-11.769,0a4.707,4.707,0,1,1-4.707,4.707,4.705,4.705,0,0,1,4.707-4.707m-23.537,0a4.707,4.707,0,1,1-4.71,4.707,4.705,4.705,0,0,1,4.71-4.707m-11.769,0a4.707,4.707,0,1,1-4.71,4.707,4.709,4.709,0,0,1,4.71-4.707M84.912,70.615a4.705,4.705,0,1,1-4.71,4.7,4.7,4.7,0,0,1,4.71-4.7m-11.773,0a4.705,4.705,0,1,1-4.708,4.7,4.705,4.705,0,0,1,4.708-4.7m-11.767,0a4.705,4.705,0,1,1-4.707,4.7,4.7,4.7,0,0,1,4.707-4.7m-11.769,0a4.705,4.705,0,1,1-4.707,4.7,4.7,4.7,0,0,1,4.707-4.7m-11.769,0a4.705,4.705,0,1,1-4.707,4.7,4.7,4.7,0,0,1,4.707-4.7m-23.537,0a4.705,4.705,0,1,1-4.71,4.7,4.7,4.7,0,0,1,4.71-4.7m-11.769,0a4.705,4.705,0,1,1-4.71,4.7,4.7,4.7,0,0,1,4.71-4.7M84.912,47.077a4.706,4.706,0,1,1-4.71,4.7,4.7,4.7,0,0,1,4.71-4.7m-11.773,0a4.706,4.706,0,1,1-4.708,4.7,4.708,4.708,0,0,1,4.708-4.7m-11.767,0a4.706,4.706,0,1,1-4.707,4.7,4.707,4.707,0,0,1,4.707-4.7m-11.769,0a4.706,4.706,0,1,1-4.707,4.7,4.706,4.706,0,0,1,4.707-4.7m-11.769,0a4.706,4.706,0,1,1-4.707,4.7,4.7,4.7,0,0,1,4.707-4.7m-23.537,0a4.706,4.706,0,1,1-4.71,4.7,4.7,4.7,0,0,1,4.71-4.7m-11.769,0a4.706,4.706,0,1,1-4.71,4.7,4.708,4.708,0,0,1,4.71-4.7M84.912,35.306a4.707,4.707,0,1,1-4.71,4.707,4.705,4.705,0,0,1,4.71-4.707m-11.773,0a4.707,4.707,0,1,1-4.708,4.707,4.709,4.709,0,0,1,4.708-4.707m-11.767,0a4.707,4.707,0,1,1-4.707,4.707,4.707,4.707,0,0,1,4.707-4.707m-11.769,0A4.707,4.707,0,1,1,44.9,40.014,4.707,4.707,0,0,1,49.6,35.306m-11.769,0a4.707,4.707,0,1,1-4.707,4.707,4.705,4.705,0,0,1,4.707-4.707m-23.537,0a4.707,4.707,0,1,1-4.71,4.707,4.705,4.705,0,0,1,4.71-4.707m-11.769,0a4.707,4.707,0,1,1-4.71,4.707,4.709,4.709,0,0,1,4.71-4.707M84.912,11.769a4.707,4.707,0,1,1-4.71,4.707,4.705,4.705,0,0,1,4.71-4.707m-11.773,0a4.707,4.707,0,1,1-4.708,4.707,4.709,4.709,0,0,1,4.708-4.707m-11.767,0a4.707,4.707,0,1,1-4.707,4.707,4.707,4.707,0,0,1,4.707-4.707m-11.769,0A4.707,4.707,0,1,1,44.9,16.476,4.707,4.707,0,0,1,49.6,11.769m-11.769,0a4.707,4.707,0,1,1-4.707,4.707,4.705,4.705,0,0,1,4.707-4.707m-23.537,0a4.707,4.707,0,1,1-4.71,4.707,4.705,4.705,0,0,1,4.71-4.707m-11.769,0a4.707,4.707,0,1,1-4.71,4.707,4.709,4.709,0,0,1,4.71-4.707M84.912,0A4.707,4.707,0,1,1,80.2,4.707,4.705,4.705,0,0,1,84.912,0M73.139,0a4.707,4.707,0,1,1-4.708,4.707A4.709,4.709,0,0,1,73.139,0M61.372,0a4.707,4.707,0,1,1-4.707,4.707A4.707,4.707,0,0,1,61.372,0M49.6,0A4.707,4.707,0,1,1,44.9,4.707,4.707,4.707,0,0,1,49.6,0M37.835,0a4.707,4.707,0,1,1-4.707,4.707A4.705,4.705,0,0,1,37.835,0M14.3,0a4.707,4.707,0,1,1-4.71,4.707A4.705,4.705,0,0,1,14.3,0" transform="translate(2.181 0)"/></svg>