<svg xmlns="http://www.w3.org/2000/svg" width="94.111" height="122.912" viewBox="0 0 94.111 122.912"><defs><style>.a{fill:#c1c1c1;}</style></defs><g transform="translate(-0.001 0)"><path class="a" d="M4.889,1.517a4.953,4.953,0,0,1-2.234,6.5A4.646,4.646,0,0,1-3.627,5.708,4.953,4.953,0,0,1-1.4-.794,4.647,4.647,0,0,1,4.889,1.517" transform="translate(68.551 57.167)"/><path class="a" d="M4.889,1.517a4.954,4.954,0,0,1-2.234,6.5A4.649,4.649,0,0,1-3.629,5.708a4.954,4.954,0,0,1,2.234-6.5A4.647,4.647,0,0,1,4.889,1.517" transform="translate(46.793 67.874)"/><path class="a" d="M4.889,1.517a4.952,4.952,0,0,1-2.234,6.5A4.649,4.649,0,0,1-3.629,5.708,4.956,4.956,0,0,1-1.4-.794,4.647,4.647,0,0,1,4.889,1.517" transform="translate(57.439 62.636)"/><path class="a" d="M2.569,0A4.8,4.8,0,0,1,7.284,4.878a4.8,4.8,0,0,1-4.716,4.88,4.8,4.8,0,0,1-4.716-4.88A4.8,4.8,0,0,1,2.569,0" transform="translate(44.766 41.891)"/><path class="a" d="M2.569,0A4.8,4.8,0,0,1,7.284,4.88,4.8,4.8,0,0,1,2.569,9.759,4.8,4.8,0,0,1-2.147,4.88,4.8,4.8,0,0,1,2.569,0" transform="translate(44.766 66.822)"/><path class="a" d="M2.569,0A4.8,4.8,0,0,1,7.284,4.88,4.8,4.8,0,0,1,2.569,9.759,4.8,4.8,0,0,1-2.147,4.88,4.8,4.8,0,0,1,2.569,0" transform="translate(44.766 54.623)"/><path class="a" d="M2.568,0a4.8,4.8,0,0,1,4.72,4.88,4.8,4.8,0,0,1-4.72,4.878A4.8,4.8,0,0,1-2.146,4.88,4.8,4.8,0,0,1,2.568,0" transform="translate(57.548 0)"/><path class="a" d="M2.568,0A4.8,4.8,0,0,1,7.285,4.878a4.8,4.8,0,0,1-4.718,4.88,4.8,4.8,0,0,1-4.714-4.88A4.8,4.8,0,0,1,2.568,0" transform="translate(51.268 12.466)"/><path class="a" d="M2.568,0a4.8,4.8,0,0,1,4.72,4.878,4.8,4.8,0,0,1-4.72,4.88,4.8,4.8,0,0,1-4.714-4.88A4.8,4.8,0,0,1,2.568,0" transform="translate(39.478 12.466)"/><path class="a" d="M2.568,0A4.8,4.8,0,0,1,7.285,4.88,4.8,4.8,0,0,1,2.568,9.759,4.8,4.8,0,0,1-2.146,4.88,4.8,4.8,0,0,1,2.568,0" transform="translate(45.245 0)"/><path class="a" d="M2.568,0a4.8,4.8,0,0,1,4.72,4.88,4.8,4.8,0,0,1-4.72,4.878A4.8,4.8,0,0,1-2.146,4.88,4.8,4.8,0,0,1,2.568,0" transform="translate(33.455 0)"/><path class="a" d="M25.294,52.669a4.679,4.679,0,0,1-.2-9.346A4.684,4.684,0,0,1,29.849,48a4.6,4.6,0,0,1-4.518,4.674V48l-.02,4.674ZM11.415,50.4a4.432,4.432,0,0,1-1.469-.255l1.469-4.421-1.48,4.417A4.745,4.745,0,0,1,7.05,44.286,4.459,4.459,0,0,1,12.592,41.2l.29.1a4.717,4.717,0,0,1,2.8,5.941A4.536,4.536,0,0,1,11.415,50.4m27.752-.209A4.54,4.54,0,0,1,34.9,47.11a4.7,4.7,0,0,1,2.634-5.957c.04-.015.174-.064.213-.077a4.479,4.479,0,0,1,5.739,2.9,4.713,4.713,0,0,1-2.8,5.939L39.213,45.5l1.452,4.428a4.424,4.424,0,0,1-1.5.264M-1,43.5a4.413,4.413,0,0,1-2.838-1.039l2.84-3.637-2.849,3.628a4.819,4.819,0,0,1-.771-6.534,4.386,4.386,0,0,1,6.251-.9c.044.033.165.132.206.167a4.782,4.782,0,0,1,.676,6.572A4.45,4.45,0,0,1-1,43.5m52.536-.27a4.445,4.445,0,0,1-3.56-1.784,4.755,4.755,0,0,1,.694-6.493c.042-.035.165-.132.209-.167a4.416,4.416,0,0,1,6.324.936,4.78,4.78,0,0,1-.9,6.543l-2.708-3.738,2.7,3.749a4.445,4.445,0,0,1-2.748.953m8.819-9.42a4.4,4.4,0,0,1-2.684-.918,4.782,4.782,0,0,1-.942-6.539,4.464,4.464,0,0,1,6.317-1.041A4.735,4.735,0,0,1,64.1,31.764c-.015.022-.09.127-.105.152a4.466,4.466,0,0,1-3.633,1.891m-70.8-1.114a4.491,4.491,0,0,1-3.844-2.21l3.839-2.464-3.844,2.453a4.716,4.716,0,0,1,1.19-6.446,4.479,4.479,0,0,1,6.319,1.25c.042.062.134.213.174.279A4.769,4.769,0,0,1-8.061,31.99a4.387,4.387,0,0,1-2.379.7M66.613,20.742a4.386,4.386,0,0,1-1.349-.213A4.7,4.7,0,0,1,62.3,14.673a4.527,4.527,0,0,1,5.654-3.123,4.655,4.655,0,0,1,3.009,5.772c0,.013-.037.127-.04.138a4.538,4.538,0,0,1-4.312,3.281M-15.8,19.325a4.667,4.667,0,0,1-4.446-3.661c-.024-.1-.066-.294-.081-.391a4.664,4.664,0,0,1,3.666-5.416,4.537,4.537,0,0,1,5.232,3.791,4.6,4.6,0,0,1-3.345,5.55,4.126,4.126,0,0,1-1.026.127M68.454,6.287a4.6,4.6,0,0,1-4.518-4.674,4.542,4.542,0,0,1,4.248-4.856,4.632,4.632,0,0,1,4.775,4.476c.007.094.011.288.011.38a4.6,4.6,0,0,1-4.516,4.674M-16.625,4.629a4.659,4.659,0,0,1-.521-.031A4.6,4.6,0,0,1-21.11-.539l.013-.1a4.549,4.549,0,0,1,5.012-4.1A4.642,4.642,0,0,1-12.124.449a4.633,4.633,0,0,1-4.5,4.18M65.6-7.985a4.509,4.509,0,0,1-4.118-2.75c-.04-.094-.116-.286-.149-.38a4.723,4.723,0,0,1,2.642-6.018,4.48,4.48,0,0,1,5.8,2.686A4.742,4.742,0,0,1,67.457-8.4a4.361,4.361,0,0,1-1.858.415m.3-4.9-.343.134ZM-12.772-9.349a4.348,4.348,0,0,1-1.856-.417,4.734,4.734,0,0,1-2.258-6.174c.042-.092.127-.277.174-.367A4.444,4.444,0,0,1-10.6-18.233a4.755,4.755,0,0,1,1.922,6.2,4.522,4.522,0,0,1-4.094,2.684M58.379-20.4a4.592,4.592,0,0,1-3.363-1.478c-.064-.068-.2-.22-.257-.294a4.791,4.791,0,0,1,.532-6.589,4.414,4.414,0,0,1,6.367.551L58.21-25.192,61.662-28.2a4.7,4.7,0,0,1-.2,6.534,4.352,4.352,0,0,1-3.088,1.27m-63.121-.993A4.384,4.384,0,0,1-7.883-22.71a4.741,4.741,0,0,1-.134-6.537c.022-.024.114-.121.136-.143a4.406,4.406,0,0,1,6.387,0,4.785,4.785,0,0,1,0,6.609,4.5,4.5,0,0,1-3.249,1.388m52.077-8.25a4.344,4.344,0,0,1-2.1-.549c-.035-.02-.158-.088-.191-.108a4.767,4.767,0,0,1-1.7-6.372,4.44,4.44,0,0,1,6.159-1.762l-2.227,4.066,2.247-4.055A4.785,4.785,0,0,1,51.3-32.086a4.5,4.5,0,0,1-3.96,2.445m-40.75-.485a4.5,4.5,0,0,1-4-2.456,4.716,4.716,0,0,1,1.816-6.3l.088-.048A4.443,4.443,0,0,1,10.6-37.006a4.758,4.758,0,0,1-1.86,6.323,4.435,4.435,0,0,1-2.152.556m27.506-4.408a4.411,4.411,0,0,1-.839-.081,4.708,4.708,0,0,1-3.659-5.441,4.5,4.5,0,0,1,5.179-3.776c.015,0,.132.024.147.029a4.666,4.666,0,0,1,3.609,5.454,4.563,4.563,0,0,1-4.437,3.815m-14.2-.132a4.57,4.57,0,0,1-4.463-4,4.652,4.652,0,0,1,3.813-5.3l.655,4.626-.637-4.628a4.575,4.575,0,0,1,5.166,3.859,4.635,4.635,0,0,1-3.644,5.355c-.042.009-.184.033-.226.037a4.241,4.241,0,0,1-.663.053" transform="translate(21.142 70.243)"/></g></svg>