<svg xmlns="http://www.w3.org/2000/svg" width="70.016" height="70" viewBox="0 0 70.016 70"><path d="M35.01,19.291A17.947,17.947,0,1,0,52.958,37.238,17.919,17.919,0,0,0,35.01,19.291Zm0,29.615A11.668,11.668,0,1,1,46.678,37.238,11.689,11.689,0,0,1,35.01,48.906ZM57.878,18.556a4.186,4.186,0,1,1-4.186-4.186A4.176,4.176,0,0,1,57.878,18.556Zm11.887,4.249C69.5,17.2,68.218,12.23,64.11,8.138c-4.092-4.092-9.059-5.373-14.667-5.654-5.779-.328-23.1-.328-28.881,0C14.97,2.749,10,4.03,5.9,8.122S.522,17.182.241,22.789c-.328,5.779-.328,23.1,0,28.881C.506,57.278,1.787,62.245,5.9,66.337s9.059,5.373,14.667,5.654c5.779.328,23.1.328,28.881,0,5.608-.266,10.575-1.546,14.667-5.654,4.092-4.092,5.373-9.059,5.654-14.667.328-5.779.328-23.086,0-28.865ZM62.3,57.872a11.813,11.813,0,0,1-6.654,6.654C51.036,66.353,40.1,65.931,35.01,65.931s-16.042.406-20.634-1.406a11.813,11.813,0,0,1-6.654-6.654C5.9,53.264,6.317,42.33,6.317,37.238S5.911,21.2,7.723,16.6A11.813,11.813,0,0,1,14.377,9.95C18.985,8.122,29.918,8.544,35.01,8.544S51.052,8.138,55.644,9.95A11.813,11.813,0,0,1,62.3,16.6C64.126,21.212,63.7,32.146,63.7,37.238S64.126,53.279,62.3,57.872Z" transform="translate(0.005 -2.238)" fill="#292929"/></svg>