<?xml version="1.0" encoding="utf-8"?>
<!-- Generator: Adobe Illustrator 25.1.0, SVG Export Plug-In . SVG Version: 6.00 Build 0)  -->
<svg version="1.1" id="Calque_1" xmlns="http://www.w3.org/2000/svg" xmlns:xlink="http://www.w3.org/1999/xlink" x="0px" y="0px"
	 viewBox="0 0 10338 824.9" style="enable-background:new 0 0 10338 824.9;" xml:space="preserve">
<style type="text/css">
	.st0{fill:#FFFFFF;}
	.st1{fill:#CAD400;}
	.st2{fill:#00A1D4;}
	.st3{fill:#E6007F;}
</style>
<g>
	<path class="st0" d="M6340.8,698.3c8.1,4.7,18.4,2.1,23.2-6c4.7-8,2.1-18.4-6-23.1c-8-4.7-18.4-2.1-23.1,6
		C6330.1,683.3,6332.8,693.6,6340.8,698.3z"/>
	<path class="st0" d="M6705.6,693.3c-5.4,9.2-2.4,21.1,6.9,26.5c9.2,5.4,21.1,2.4,26.5-6.8c5.4-9.2,2.4-21.1-6.8-26.5
		C6722.9,681.1,6711,684.1,6705.6,693.3z"/>
	<path class="st0" d="M6851.7,760.4c6.7,3.9,15.4,1.7,19.4-5c4-6.7,1.7-15.4-5-19.3c-6.7-4-15.4-1.7-19.4,5
		C6842.7,747.7,6844.9,756.4,6851.7,760.4z"/>
	<path class="st0" d="M6563,588.7c9.4,5.5,21.5,2.4,27-7c5.5-9.4,2.4-21.5-7-27.1c-9.4-5.5-21.5-2.4-27.1,7
		C6550.5,571,6553.6,583.1,6563,588.7z"/>
	<path class="st0" d="M6358.6,481c12.4,7.3,28.4,3.1,35.8-9.3c7.3-12.4,3.2-28.4-9.2-35.7c-12.4-7.3-28.4-3.2-35.8,9.2
		C6342,457.7,6346.2,473.7,6358.6,481z"/>
	<path class="st0" d="M6498.1,781.1c18.6,11,42.6,4.8,53.6-13.9c11-18.6,4.8-42.7-13.9-53.6c-18.6-10.9-42.6-4.8-53.6,13.9
		C6473.2,746.1,6479.5,770.1,6498.1,781.1z"/>
	<path class="st0" d="M5808.5,628.4c-10.3,17.5-4.5,40.1,13,50.4c17.5,10.3,40.1,4.5,50.4-13c10.3-17.5,4.5-40.1-13-50.4
		C5841.4,605,5818.9,610.9,5808.5,628.4z"/>
	<path class="st0" d="M6021,545.6c7.6,4.4,17.3,1.9,21.8-5.6c4.5-7.6,1.9-17.3-5.6-21.8c-7.6-4.4-17.3-1.9-21.8,5.7
		C6011,531.4,6013.5,541.1,6021,545.6z"/>
	<path class="st0" d="M7292.6,545.4c12.4,7.3,28.2,3.2,35.5-9.1c7.2-12.3,3.1-28.2-9.2-35.5c-12.3-7.3-28.2-3.2-35.4,9.2
		C7276.2,522.3,7280.3,538.1,7292.6,545.4z"/>
	<path class="st0" d="M7534.7,523.3c6.7,3.9,15.4,1.7,19.4-5c4-6.7,1.7-15.4-5-19.3c-6.7-4-15.4-1.7-19.4,5
		C7525.8,510.6,7528,519.3,7534.7,523.3z"/>
	<path class="st0" d="M7038.4,795.9c-9.4-5.5-21.5-2.4-27.1,7c-5.5,9.4-2.4,21.5,7,27.1c9.4,5.5,21.5,2.4,27-7
		C7050.9,813.5,7047.8,801.4,7038.4,795.9z"/>
	<path class="st0" d="M7249.5,777.4c24.4,14.4,55.9,6.2,70.3-18.1c14.4-24.4,6.3-55.8-18.2-70.3c-24.4-14.4-55.9-6.3-70.3,18.1
		C7217,731.5,7225.1,763,7249.5,777.4z"/>
	<path class="st0" d="M6879.8,514c9.3,5.5,21.3,2.4,26.8-7c5.5-9.3,2.4-21.3-6.9-26.8c-9.3-5.5-21.3-2.4-26.8,6.9
		C6867.4,496.5,6870.5,508.5,6879.8,514z"/>
	<path class="st0" d="M6087.8,842.1c-9.2-5.4-21.1-2.4-26.5,6.8c-0.1,0.2-0.2,0.5-0.4,0.7h34.1
		C6093.4,846.7,6090.9,844,6087.8,842.1z"/>
	<path class="st0" d="M7736.6,641.8c17.2-10.6,23-33.8,12.8-51.8c-10.2-18-32.4-24-49.6-13.4c-17.3,10.6-23,33.8-12.9,51.8
		C7697.1,646.4,7719.3,652.4,7736.6,641.8z"/>
	<path class="st0" d="M7487.4,602.7c7.9-4.8,10.5-15.5,5.9-23.7c-4.7-8.3-14.9-11-22.8-6.1c-7.9,4.9-10.5,15.5-5.8,23.7
		C7469.3,604.8,7479.5,607.6,7487.4,602.7z"/>
	<path class="st0" d="M7591.8,615c9.2-5.7,12.3-18.1,6.9-27.7c-5.5-9.6-17.3-12.8-26.5-7.1c-9.3,5.7-12.3,18.1-6.9,27.7
		C7570.7,617.5,7582.6,620.6,7591.8,615z"/>
	<path class="st0" d="M7646.4,404c13.5-8.2,17.9-26.3,10-40.3c-7.9-14-25.2-18.7-38.7-10.4c-13.4,8.2-17.9,26.3-10,40.3
		C7615.7,407.6,7633,412.3,7646.4,404z"/>
	<path class="st0" d="M7981.4,686.6c-13.5,8.2-17.9,26.3-10,40.3c7.9,14,25.2,18.7,38.7,10.4c13.4-8.3,17.9-26.3,10-40.3
		C8012.2,682.9,7994.9,678.3,7981.4,686.6z"/>
	<path class="st0" d="M7808.2,796.5c-8.7,5.4-11.6,17-6.4,26.1c5.1,9.1,16.3,12.1,25,6.8c8.7-5.4,11.6-17,6.5-26.1
		C7828.1,794.2,7816.9,791.2,7808.2,796.5z"/>
	<path class="st0" d="M7964.2,422.4c7.8,13.8,24.9,18.4,38.1,10.3c13.3-8.1,17.7-25.9,9.8-39.7c-7.8-13.8-24.9-18.4-38.1-10.3
		C7960.8,390.8,7956.4,408.6,7964.2,422.4z"/>
	<path class="st0" d="M8085.7,822.4c11.1-6.8,14.8-21.7,8.3-33.2c-6.5-11.5-20.8-15.4-31.9-8.6c-11.1,6.8-14.8,21.7-8.2,33.2
		C8060.4,825.4,8074.7,829.2,8085.7,822.4z"/>
	<path class="st0" d="M5778.4,442.2c13.8,8.1,31.6,3.5,39.7-10.3c8.2-13.9,3.5-31.6-10.3-39.8c-13.8-8.1-31.6-3.6-39.7,10.3
		C5760,416.3,5764.6,434.1,5778.4,442.2z"/>
	<path class="st0" d="M8239,551.6c13.8,8.1,31.6,3.5,39.7-10.3c8.2-13.9,3.5-31.6-10.3-39.8c-13.8-8.1-31.6-3.6-39.7,10.3
		C8220.6,525.7,8225.2,543.5,8239,551.6z"/>
	<path class="st0" d="M7966.9,286.1c12.7-7.8,17-24.9,9.4-38.2c-7.5-13.3-23.9-17.7-36.7-9.9c-12.8,7.9-17,25-9.5,38.3
		C7937.7,289.5,7954.1,294,7966.9,286.1z"/>
	<path class="st0" d="M6222.4,830.1c-5-8.8-15.8-11.7-24.2-6.6c-8.4,5.2-11.2,16.4-6.2,25.2c0.2,0.3,0.4,0.6,0.6,0.9h29.3
		C6225.5,844,6226,836.4,6222.4,830.1z"/>
	<path class="st1" d="M5627.5,751.8c-15.4,9.1-20.5,29-11.5,44.4c9.1,15.4,28.9,20.5,44.4,11.4c15.4-9.1,20.6-29,11.5-44.4
		C5662.8,747.9,5642.9,742.8,5627.5,751.8z"/>
	<path class="st2" d="M5695.8,618.2c27.7-16.3,36.9-52,20.6-79.7c-16.3-27.7-52-36.9-79.7-20.6c-27.7,16.3-36.9,52.1-20.6,79.8
		C5632.4,625.3,5668.1,634.5,5695.8,618.2z"/>
	<path class="st1" d="M6224.6,498.7c16.4-9.6,21.8-30.7,12.1-47c-9.6-16.4-30.7-21.8-47-12.2c-16.4,9.6-21.8,30.7-12.1,47.1
		C6187.2,502.9,6208.3,508.4,6224.6,498.7z"/>
	<path class="st3" d="M5862.2,772.3c-16.2,9.5-21.5,30.3-12,46.4c9.5,16.1,30.2,21.5,46.4,12c16.1-9.5,21.5-30.3,12-46.4
		C5899,768.2,5878.3,762.8,5862.2,772.3z"/>
	<path class="st3" d="M7445.5,821.4c13.5-8,18-25.3,10-38.8c-7.9-13.5-25.3-18-38.7-10c-13.5,7.9-18,25.3-10,38.8
		C7414.7,824.9,7432,829.4,7445.5,821.4z"/>
	<path class="st1" d="M7198.9,839c-11-18.7-35.1-24.9-53.8-13.9c-9.5,5.6-15.8,14.6-18.2,24.6h76.3
		C7202.4,846,7200.9,842.4,7198.9,839z"/>
	<path class="st3" d="M6739.2,818.9c-14.9-25.2-47.3-33.6-72.5-18.7c-17.9,10.6-27.4,30-25.9,49.5h105.7
		C6747.2,839.3,6744.9,828.6,6739.2,818.9z"/>
	<path class="st1" d="M7039.9,649.8c14.3-8.4,19-26.8,10.6-41.1c-8.4-14.3-26.8-19-41.1-10.6c-14.2,8.4-19,26.8-10.6,41.1
		C7007.3,653.5,7025.7,658.2,7039.9,649.8z"/>
	<path class="st3" d="M7186.8,629c11.5-6.8,15.4-21.7,8.6-33.2c-6.8-11.5-21.7-15.3-33.2-8.6c-11.5,6.8-15.4,21.7-8.6,33.2
		C7160.4,632,7175.3,635.8,7186.8,629z"/>
	<path class="st3" d="M6950.4,448.8c11.5-6.8,15.4-21.7,8.6-33.2c-6.8-11.5-21.7-15.4-33.2-8.6c-11.5,6.8-15.4,21.7-8.6,33.2
		C6923.9,451.7,6938.8,455.6,6950.4,448.8z"/>
	<path class="st2" d="M6722.1,336.5c11.5-6.8,15.4-21.7,8.6-33.3c-6.8-11.5-21.7-15.3-33.2-8.6c-11.5,6.8-15.4,21.7-8.6,33.2
		C6695.8,339.4,6710.6,343.3,6722.1,336.5z"/>
	<path class="st1" d="M6199.7,630.8c-16.2,9.6-21.6,30.4-12,46.7c9.5,16.2,30.4,21.6,46.6,12.1c16.2-9.6,21.6-30.5,12-46.7
		C6236.9,626.6,6216,621.2,6199.7,630.8z"/>
	<path class="st2" d="M5885.6,525.2c14.3-8.5,19.1-26.9,10.7-41.2c-8.5-14.3-26.9-19.1-41.2-10.6c-14.3,8.4-19.1,26.9-10.7,41.2
		C5852.9,528.8,5871.3,533.6,5885.6,525.2z"/>
	<path class="st3" d="M6367.2,837.9c20.1-11.8,26.8-37.7,14.9-57.8c-11.8-20.1-37.7-26.8-57.8-14.9c-20.1,11.8-26.8,37.7-15,57.8
		C6321.2,843,6347.1,849.7,6367.2,837.9z"/>
	<path class="st3" d="M6043.9,753.8c20.1-11.9,26.8-37.8,14.9-57.8c-11.8-20.1-37.7-26.8-57.8-15c-20.1,11.9-26.8,37.8-14.9,57.9
		C5997.9,758.9,6023.9,765.6,6043.9,753.8z"/>
	<path class="st1" d="M7592,823.3c30.2,17.8,69.1,7.7,86.9-22.4c17.8-30.2,7.7-69.1-22.4-86.8c-30.1-17.8-69.1-7.8-86.9,22.4
		C7551.8,766.6,7561.9,805.5,7592,823.3z"/>
	<path class="st1" d="M8266.8,725.1c-30.1-17.8-69.1-7.8-86.9,22.4c-17.8,30.2-7.7,69.1,22.4,86.9c30.2,17.8,69.1,7.7,86.9-22.4
		C8307.1,781.8,8297,742.9,8266.8,725.1z"/>
	<path class="st1" d="M7764.4,415.6c-10.9,18.5-4.8,42.3,13.7,53.2c18.5,10.9,42.4,4.8,53.3-13.7c10.9-18.5,4.7-42.4-13.8-53.3
		C7799.1,391,7775.3,397.1,7764.4,415.6z"/>
	<path class="st3" d="M7777.4,644.2c-15.9,26.9-6.9,61.5,20,77.4c26.9,15.8,61.5,6.9,77.3-20c15.8-26.9,6.9-61.5-20-77.4
		C7827.9,608.4,7793.3,617.4,7777.4,644.2z"/>
	<path class="st2" d="M8134.1,657.3c21.8,12.9,50,5.6,62.8-16.2c12.9-21.8,5.6-50-16.2-62.8c-21.8-12.9-50-5.6-62.8,16.2
		C8105,616.3,8112.3,644.5,8134.1,657.3z"/>
	<path class="st3" d="M7739.1,258.7c11.4,6.7,26.1,2.9,32.9-8.5c6.8-11.4,2.9-26.2-8.5-32.9c-11.4-6.7-26.1-2.9-32.9,8.5
		C7723.9,237.3,7727.7,252,7739.1,258.7z"/>
	<path class="st2" d="M7920.6,614.8c31.9,18.8,73.1,8.2,91.9-23.8c18.8-31.9,8.2-73.1-23.8-91.9c-31.9-18.8-73.1-8.2-91.9,23.7
		C7878,554.8,7888.7,596,7920.6,614.8z"/>
	<path class="st3" d="M6707,533.1c12.9,21.8,41,29.1,62.8,16.3c21.8-12.9,29.1-41,16.2-62.8c-12.9-21.8-41-29.1-62.8-16.3
		C6701.4,483.1,6694.2,511.3,6707,533.1z"/>
	<path class="st0" d="M519.7,688.8c8.1,4.7,18.4,2.1,23.2-6c4.7-8,2.1-18.4-6-23.1c-8-4.7-18.4-2.1-23.1,6
		C509,673.7,511.6,684,519.7,688.8z"/>
	<path class="st0" d="M884.5,683.8c-5.4,9.2-2.4,21.1,6.9,26.5c9.2,5.4,21.1,2.4,26.5-6.8c5.4-9.2,2.4-21.1-6.8-26.5
		C901.8,671.5,889.9,674.5,884.5,683.8z"/>
	<path class="st0" d="M1030.5,750.8c6.7,3.9,15.4,1.7,19.4-5c4-6.7,1.7-15.4-5-19.3c-6.7-4-15.4-1.7-19.4,5
		C1021.6,738.1,1023.8,746.9,1030.5,750.8z"/>
	<path class="st0" d="M741.9,579.1c9.4,5.5,21.5,2.4,27-7c5.5-9.4,2.4-21.5-7-27.1c-9.4-5.5-21.5-2.4-27.1,7
		C729.3,561.4,732.5,573.5,741.9,579.1z"/>
	<path class="st0" d="M537.5,471.4c12.4,7.3,28.4,3.1,35.8-9.3c7.3-12.4,3.2-28.4-9.2-35.7c-12.4-7.3-28.4-3.2-35.8,9.2
		C520.9,448.1,525,464.1,537.5,471.4z"/>
	<path class="st0" d="M677,771.5c18.6,11,42.6,4.8,53.6-13.9c11-18.6,4.8-42.7-13.9-53.6c-18.6-10.9-42.6-4.8-53.6,13.9
		C652.1,736.5,658.3,760.5,677,771.5z"/>
	<path class="st0" d="M199.9,536c7.6,4.4,17.3,1.9,21.8-5.6c4.5-7.6,1.9-17.3-5.6-21.8c-7.6-4.4-17.3-1.9-21.8,5.7
		C189.8,521.8,192.3,531.6,199.9,536z"/>
	<path class="st0" d="M1217.2,786.3c-9.4-5.5-21.5-2.4-27.1,7c-5.5,9.4-2.4,21.5,7,27.1c9.4,5.5,21.5,2.4,27-7
		C1229.8,804,1226.6,791.8,1217.2,786.3z"/>
	<path class="st0" d="M1058.7,504.4c9.3,5.5,21.3,2.4,26.8-7c5.5-9.3,2.4-21.3-6.9-26.8c-9.3-5.5-21.3-2.4-26.8,6.9
		C1046.3,486.9,1049.4,499,1058.7,504.4z"/>
	<path class="st0" d="M266.6,832.6c-9.2-5.4-21.1-2.4-26.5,6.8c-1.9,3.2-2.7,6.8-2.7,10.3h38.7C276.3,842.9,272.9,836.3,266.6,832.6
		z"/>
	<path class="st0" d="M377.1,814c-8.4,5.2-11.2,16.4-6.2,25.2c4.9,8.8,15.8,11.7,24.2,6.6c8.4-5.2,11.2-16.4,6.3-25.2
		C396.4,811.8,385.5,808.9,377.1,814z"/>
	<path class="st1" d="M403.5,489.2c16.4-9.6,21.8-30.7,12.1-47c-9.6-16.4-30.7-21.8-47-12.2c-16.4,9.6-21.8,30.7-12.1,47.1
		C366.1,493.4,387.2,498.8,403.5,489.2z"/>
	<path class="st1" d="M1377.8,829.5c-11-18.7-35.1-24.9-53.8-13.9c-12.5,7.4-19.4,20.6-19.3,34.1h78.6
		C1383.3,842.8,1381.5,835.8,1377.8,829.5z"/>
	<path class="st3" d="M918.1,809.4c-14.9-25.2-47.3-33.6-72.5-18.7c-20.9,12.3-30.2,36.7-24.3,59.1h102.5
		C927.1,836.5,925.6,822,918.1,809.4z"/>
	<path class="st1" d="M1218.8,640.2c14.3-8.4,19-26.8,10.6-41.1c-8.4-14.3-26.8-19-41.1-10.6c-14.2,8.4-19,26.8-10.6,41.1
		C1186.2,643.9,1204.5,648.7,1218.8,640.2z"/>
	<path class="st3" d="M1365.7,619.4c11.5-6.8,15.4-21.7,8.6-33.2c-6.8-11.5-21.7-15.3-33.2-8.6c-11.5,6.8-15.4,21.7-8.6,33.2
		C1339.3,622.4,1354.2,626.3,1365.7,619.4z"/>
	<path class="st3" d="M1129.2,439.2c11.5-6.8,15.4-21.7,8.6-33.2c-6.8-11.5-21.7-15.4-33.2-8.6c-11.5,6.8-15.4,21.7-8.6,33.2
		C1102.8,442.1,1117.7,446,1129.2,439.2z"/>
	<path class="st2" d="M901,326.9c11.5-6.8,15.4-21.7,8.6-33.3c-6.8-11.5-21.7-15.3-33.2-8.6c-11.5,6.8-15.4,21.7-8.6,33.2
		C874.6,329.8,889.5,333.7,901,326.9z"/>
	<path class="st1" d="M378.6,621.2c-16.2,9.6-21.6,30.4-12,46.7c9.5,16.2,30.4,21.6,46.6,12.1c16.2-9.6,21.6-30.5,12-46.7
		C415.7,617,394.8,611.6,378.6,621.2z"/>
	<path class="st3" d="M546.1,828.3c20.1-11.8,26.8-37.7,14.9-57.8c-11.8-20.1-37.7-26.8-57.8-14.9c-20.1,11.8-26.8,37.7-15,57.8
		C500.1,833.5,526,840.1,546.1,828.3z"/>
	<path class="st3" d="M222.8,744.2c20.1-11.9,26.8-37.8,14.9-57.8c-11.8-20.1-37.7-26.8-57.8-15c-20.1,11.9-26.8,37.8-14.9,57.9
		C176.8,749.4,202.7,756,222.8,744.2z"/>
	<path class="st3" d="M885.9,523.5c12.9,21.8,41,29.1,62.8,16.3c21.8-12.9,29.1-41,16.2-62.8c-12.9-21.8-41-29.1-62.8-16.3
		C880.3,473.6,873,501.7,885.9,523.5z"/>
	<path class="st0" d="M1471.5,535.8c12.4,7.3,28.2,3.2,35.5-9.1c7.2-12.3,3.1-28.2-9.2-35.5c-12.3-7.3-28.2-3.2-35.4,9.2
		C1455.1,512.7,1459.2,528.5,1471.5,535.8z"/>
	<path class="st0" d="M1713.6,513.7c6.7,3.9,15.4,1.7,19.4-5c4-6.7,1.7-15.4-5-19.3c-6.7-4-15.4-1.7-19.4,5
		C1704.7,501,1706.9,509.7,1713.6,513.7z"/>
	<path class="st0" d="M1428.4,767.8c24.4,14.4,55.9,6.2,70.3-18.1c14.4-24.4,6.3-55.8-18.2-70.3c-24.4-14.4-55.9-6.3-70.3,18.1
		c-3.9,6.6-6.1,13.7-6.8,20.8v10.6C1405.1,744.5,1413.8,759.2,1428.4,767.8z"/>
	<path class="st0" d="M1915.5,632.2c17.2-10.6,23-33.8,12.8-51.8c-10.2-18-32.4-24-49.6-13.4c-17.3,10.6-23,33.8-12.9,51.8
		C1876,636.9,1898.2,642.9,1915.5,632.2z"/>
	<path class="st0" d="M1666.3,593.1c7.9-4.8,10.5-15.5,5.9-23.7c-4.7-8.3-14.9-11-22.8-6.1c-7.9,4.9-10.5,15.5-5.8,23.7
		C1648.2,595.2,1658.4,598,1666.3,593.1z"/>
	<path class="st0" d="M1770.7,605.4c9.2-5.7,12.3-18.1,6.9-27.7c-5.5-9.6-17.3-12.8-26.5-7.1c-9.3,5.7-12.3,18.1-6.9,27.7
		C1749.6,607.9,1761.5,611.1,1770.7,605.4z"/>
	<path class="st0" d="M1825.3,394.4c13.5-8.2,17.9-26.3,10-40.3c-7.9-14-25.2-18.7-38.7-10.4c-13.4,8.2-17.9,26.3-10,40.3
		C1794.6,398.1,1811.9,402.7,1825.3,394.4z"/>
	<path class="st0" d="M2160.3,677c-13.5,8.2-17.9,26.3-10,40.3c7.9,14,25.2,18.7,38.7,10.4c13.4-8.3,17.9-26.3,10-40.3
		C2191.1,673.4,2173.8,668.7,2160.3,677z"/>
	<path class="st0" d="M1987.1,786.9c-8.7,5.4-11.6,17-6.4,26.1c5.1,9.1,16.3,12.1,25,6.8c8.7-5.4,11.6-17,6.5-26.1
		C2007,784.6,1995.8,781.6,1987.1,786.9z"/>
	<path class="st0" d="M2143.1,412.8c7.8,13.8,24.9,18.4,38.1,10.3c13.3-8.1,17.7-25.9,9.8-39.7c-7.8-13.8-24.9-18.4-38.1-10.3
		C2139.7,381.3,2135.3,399,2143.1,412.8z"/>
	<path class="st0" d="M2264.6,812.8c11.1-6.8,14.8-21.7,8.3-33.2c-6.5-11.5-20.8-15.4-31.9-8.6c-11.1,6.8-14.8,21.7-8.2,33.2
		C2239.3,815.8,2253.6,819.6,2264.6,812.8z"/>
	<path class="st0" d="M2145.8,276.6c12.7-7.8,17-24.9,9.4-38.2c-7.5-13.3-23.9-17.7-36.7-9.9c-12.8,7.9-17,25-9.5,38.3
		C2116.6,280,2133,284.4,2145.8,276.6z"/>
	<path class="st3" d="M1624.4,811.8c13.5-8,18-25.3,10-38.8c-7.9-13.5-25.3-18-38.7-10c-13.5,7.9-18,25.3-10,38.8
		C1593.6,815.3,1610.9,819.8,1624.4,811.8z"/>
	<path class="st1" d="M1770.9,813.8c30.2,17.8,69.1,7.7,86.9-22.4c17.8-30.2,7.7-69.1-22.4-86.8c-30.1-17.8-69.1-7.8-86.9,22.4
		C1730.7,757.1,1740.8,796,1770.9,813.8z"/>
	<path class="st2" d="M2020.9,849.7h13.5C2029.9,849.1,2025.4,849.1,2020.9,849.7z"/>
	<path class="st1" d="M1943.3,406.1c-10.9,18.5-4.8,42.3,13.7,53.2c18.5,10.9,42.4,4.8,53.3-13.7c10.9-18.5,4.7-42.4-13.8-53.3
		C1978,381.4,1954.2,387.5,1943.3,406.1z"/>
	<path class="st3" d="M1956.3,634.7c-15.9,26.9-6.9,61.5,20,77.4c26.9,15.8,61.5,6.9,77.3-20c15.8-26.9,6.9-61.5-20-77.4
		C2006.8,598.8,1972.2,607.8,1956.3,634.7z"/>
	<path class="st2" d="M2313,647.7c21.8,12.9,50,5.6,62.8-16.2c12.9-21.8,5.6-50-16.2-62.8c-21.8-12.9-50-5.6-62.8,16.2
		C2283.9,606.7,2291.2,634.9,2313,647.7z"/>
	<path class="st3" d="M1918,249.2c11.4,6.7,26.1,2.9,32.9-8.5c6.8-11.4,2.9-26.2-8.5-32.9c-11.4-6.7-26.1-2.9-32.9,8.5
		C1902.8,227.7,1906.6,242.4,1918,249.2z"/>
	<path class="st2" d="M2099.5,605.2c31.9,18.8,73.1,8.2,91.9-23.8c18.8-31.9,8.2-73.1-23.8-91.9c-31.9-18.8-73.1-8.2-91.9,23.7
		C2056.9,545.2,2067.6,586.4,2099.5,605.2z"/>
	<path class="st3" d="M2619,696.9c21.8,12.9,50,5.6,62.8-16.3c12.9-21.8,5.6-49.9-16.2-62.8c-21.8-12.9-50-5.6-62.8,16.3
		C2589.9,655.9,2597.2,684,2619,696.9z"/>
	<path class="st0" d="M2417.9,542.1c13.8,8.1,31.6,3.5,39.7-10.3c8.2-13.9,3.5-31.6-10.3-39.8c-13.8-8.1-31.6-3.6-39.7,10.3
		C2399.5,516.1,2404.1,533.9,2417.9,542.1z"/>
	<path class="st1" d="M2445.7,715.6c-30.1-17.8-69.1-7.8-86.9,22.4c-17.8,30.2-7.7,69.1,22.4,86.9c30.2,17.8,69.1,7.7,86.9-22.4
		C2486,772.2,2475.9,733.3,2445.7,715.6z"/>
	<path class="st0" d="M3600.7,688.8c8.1,4.7,18.4,2.1,23.2-6c4.7-8,2.1-18.4-6-23.1c-8-4.7-18.4-2.1-23.1,6
		C3590.1,673.7,3592.7,684,3600.7,688.8z"/>
	<path class="st0" d="M3965.5,683.8c-5.4,9.2-2.4,21.1,6.9,26.5c9.2,5.4,21.1,2.4,26.5-6.8c5.4-9.2,2.4-21.1-6.8-26.5
		C3982.8,671.5,3970.9,674.5,3965.5,683.8z"/>
	<path class="st0" d="M4111.6,750.8c6.7,3.9,15.4,1.7,19.4-5c4-6.7,1.7-15.4-5-19.3c-6.7-4-15.4-1.7-19.4,5
		C4102.6,738.1,4104.8,746.9,4111.6,750.8z"/>
	<path class="st0" d="M3822.9,579.1c9.4,5.5,21.5,2.4,27-7c5.5-9.4,2.4-21.5-7-27.1c-9.4-5.5-21.5-2.4-27.1,7
		C3810.4,561.4,3813.5,573.5,3822.9,579.1z"/>
	<path class="st0" d="M3618.5,471.4c12.4,7.3,28.4,3.1,35.8-9.3c7.3-12.4,3.2-28.4-9.2-35.7c-12.4-7.3-28.4-3.2-35.8,9.2
		C3602,448.1,3606.1,464.1,3618.5,471.4z"/>
	<path class="st0" d="M3758,771.5c18.6,11,42.6,4.8,53.6-13.9c11-18.6,4.8-42.7-13.9-53.6c-18.6-10.9-42.6-4.8-53.6,13.9
		C3733.2,736.5,3739.4,760.5,3758,771.5z"/>
	<path class="st0" d="M3068.4,618.8c-10.3,17.5-4.5,40.1,13,50.4c17.5,10.3,40.1,4.5,50.4-13c10.3-17.5,4.5-40.1-13-50.4
		C3101.3,595.4,3078.8,601.3,3068.4,618.8z"/>
	<path class="st0" d="M3280.9,536c7.6,4.4,17.3,1.9,21.8-5.6c4.5-7.6,1.9-17.3-5.6-21.8c-7.6-4.4-17.3-1.9-21.8,5.7
		C3270.9,521.8,3273.4,531.6,3280.9,536z"/>
	<path class="st0" d="M4552.6,535.8c12.4,7.3,28.2,3.2,35.5-9.1c7.2-12.3,3.1-28.2-9.2-35.5c-12.3-7.3-28.2-3.2-35.4,9.2
		C4536.1,512.7,4540.2,528.5,4552.6,535.8z"/>
	<path class="st0" d="M4794.7,513.7c6.7,3.9,15.4,1.7,19.4-5c4-6.7,1.7-15.4-5-19.3c-6.7-4-15.4-1.7-19.4,5
		C4785.7,501,4787.9,509.7,4794.7,513.7z"/>
	<path class="st0" d="M4298.3,786.3c-9.4-5.5-21.5-2.4-27.1,7c-5.5,9.4-2.4,21.5,7,27.1c9.4,5.5,21.5,2.4,27-7
		C4310.8,804,4307.7,791.8,4298.3,786.3z"/>
	<path class="st0" d="M4509.4,767.8c24.4,14.4,55.9,6.2,70.3-18.1c14.4-24.4,6.3-55.8-18.2-70.3c-24.4-14.4-55.9-6.3-70.3,18.1
		C4476.9,722,4485,753.4,4509.4,767.8z"/>
	<path class="st0" d="M4139.7,504.4c9.3,5.5,21.3,2.4,26.8-7c5.5-9.3,2.4-21.3-6.9-26.8c-9.3-5.5-21.3-2.4-26.8,6.9
		C4127.4,486.9,4130.4,499,4139.7,504.4z"/>
	<path class="st0" d="M3347.7,832.6c-9.2-5.4-21.1-2.4-26.5,6.8c-1.9,3.2-2.7,6.8-2.7,10.3h38.7
		C3357.3,842.9,3353.9,836.3,3347.7,832.6z"/>
	<path class="st0" d="M4996.5,632.2c17.2-10.6,23-33.8,12.8-51.8c-10.2-18-32.4-24-49.6-13.4c-17.3,10.6-23,33.8-12.9,51.8
		C4957,636.9,4979.2,642.9,4996.5,632.2z"/>
	<path class="st0" d="M4747.3,593.1c7.9-4.8,10.5-15.5,5.9-23.7c-4.7-8.3-14.9-11-22.8-6.1c-7.9,4.9-10.5,15.5-5.8,23.7
		C4729.2,595.2,4739.4,598,4747.3,593.1z"/>
	<path class="st0" d="M4851.7,605.4c9.2-5.7,12.3-18.1,6.9-27.7c-5.5-9.6-17.3-12.8-26.5-7.1c-9.3,5.7-12.3,18.1-6.9,27.7
		C4830.6,607.9,4842.5,611.1,4851.7,605.4z"/>
	<path class="st0" d="M2714.7,425.5c6.7,3.9,15.4,1.7,19.4-5c4-6.7,1.7-15.4-5-19.3c-6.7-4-15.4-1.7-19.4,5
		C2705.8,412.8,2708,421.5,2714.7,425.5z"/>
	<path class="st0" d="M2667.4,504.9c7.9-4.8,10.5-15.5,5.9-23.7c-4.7-8.3-14.9-11-22.8-6.1c-7.9,4.9-10.5,15.5-5.8,23.7
		C2649.3,507,2659.5,509.8,2667.4,504.9z"/>
	<path class="st0" d="M2771.8,517.2c9.2-5.7,12.3-18.1,6.9-27.7c-5.5-9.6-17.3-12.8-26.5-7.1c-9.3,5.7-12.3,18.1-6.9,27.7
		C2750.7,519.7,2762.6,522.9,2771.8,517.2z"/>
	<path class="st0" d="M4906.4,394.4c13.5-8.2,17.9-26.3,10-40.3c-7.9-14-25.2-18.7-38.7-10.4c-13.4,8.2-17.9,26.3-10,40.3
		C4875.6,398.1,4892.9,402.7,4906.4,394.4z"/>
	<path class="st0" d="M5241.4,677c-13.5,8.2-17.9,26.3-10,40.3c7.9,14,25.2,18.7,38.7,10.4c13.4-8.3,17.9-26.3,10-40.3
		C5272.1,673.4,5254.8,668.7,5241.4,677z"/>
	<path class="st0" d="M5068.1,786.9c-8.7,5.4-11.6,17-6.4,26.1c5.1,9.1,16.3,12.1,25,6.8c8.7-5.4,11.6-17,6.5-26.1
		C5088,784.6,5076.8,781.6,5068.1,786.9z"/>
	<path class="st0" d="M5224.1,412.8c7.8,13.8,24.9,18.4,38.1,10.3c13.3-8.1,17.7-25.9,9.8-39.7c-7.8-13.8-24.9-18.4-38.1-10.3
		C5220.7,381.3,5216.3,399,5224.1,412.8z"/>
	<path class="st0" d="M5345.7,812.8c11.1-6.8,14.8-21.7,8.3-33.2c-6.5-11.5-20.8-15.4-31.9-8.6c-11.1,6.8-14.8,21.7-8.2,33.2
		C5320.3,815.8,5334.6,819.6,5345.7,812.8z"/>
	<path class="st0" d="M3038.3,432.7c13.8,8.1,31.6,3.5,39.7-10.3c8.2-13.9,3.5-31.6-10.3-39.8c-13.8-8.1-31.6-3.6-39.7,10.3
		C3019.9,406.7,3024.5,424.5,3038.3,432.7z"/>
	<path class="st0" d="M5498.9,542.1c13.8,8.1,31.6,3.5,39.7-10.3c8.2-13.9,3.5-31.6-10.3-39.8c-13.8-8.1-31.6-3.6-39.7,10.3
		C5480.5,516.1,5485.1,533.9,5498.9,542.1z"/>
	<path class="st0" d="M5226.8,276.6c12.7-7.8,17-24.9,9.4-38.2c-7.5-13.3-23.9-17.7-36.7-9.9c-12.8,7.9-17,25-9.5,38.3
		C5197.6,280,5214,284.4,5226.8,276.6z"/>
	<path class="st0" d="M3458.1,814c-8.4,5.2-11.2,16.4-6.2,25.2c4.9,8.8,15.8,11.7,24.2,6.6c8.4-5.2,11.2-16.4,6.3-25.2
		C3477.4,811.8,3466.6,808.9,3458.1,814z"/>
	<path class="st0" d="M2810.5,711.5c8.4-5.2,11.2-16.4,6.3-25.2c-5-8.8-15.8-11.7-24.2-6.6c-8.4,5.2-11.2,16.4-6.2,25.2
		C2791.3,713.8,2802.1,716.7,2810.5,711.5z"/>
	<path class="st1" d="M2887.4,742.3c-15.4,9.1-20.5,29-11.5,44.4c9.1,15.4,28.9,20.5,44.4,11.4c15.4-9.1,20.6-29,11.5-44.4
		C2922.7,738.3,2902.8,733.2,2887.4,742.3z"/>
	<path class="st2" d="M2955.7,608.6c27.7-16.3,36.9-52,20.6-79.7c-16.3-27.7-52-36.9-79.7-20.6c-27.7,16.3-36.9,52.1-20.6,79.8
		C2892.3,615.7,2928,625,2955.7,608.6z"/>
	<path class="st1" d="M3484.6,489.2c16.4-9.6,21.8-30.7,12.1-47c-9.6-16.4-30.7-21.8-47-12.2c-16.4,9.6-21.8,30.7-12.1,47.1
		C3447.2,493.4,3468.2,498.8,3484.6,489.2z"/>
	<path class="st3" d="M3122.1,762.7c-16.2,9.5-21.5,30.3-12,46.4c9.5,16.1,30.2,21.5,46.4,12c16.1-9.5,21.5-30.3,12-46.4
		C3159,758.6,3138.2,753.2,3122.1,762.7z"/>
	<path class="st3" d="M4705.4,811.8c13.5-8,18-25.3,10-38.8c-7.9-13.5-25.3-18-38.7-10c-13.5,7.9-18,25.3-10,38.8
		C4674.6,815.3,4692,819.8,4705.4,811.8z"/>
	<path class="st1" d="M4458.8,829.5c-11-18.7-35.1-24.9-53.8-13.9c-12.5,7.4-19.4,20.6-19.3,34.1h78.6
		C4464.3,842.8,4462.6,835.8,4458.8,829.5z"/>
	<path class="st3" d="M3999.1,809.4c-14.9-25.2-47.3-33.6-72.5-18.7c-20.9,12.3-30.2,36.7-24.3,59.1h102.5
		C4008.2,836.5,4006.6,822,3999.1,809.4z"/>
	<path class="st1" d="M4299.8,640.2c14.3-8.4,19-26.8,10.6-41.1c-8.4-14.3-26.8-19-41.1-10.6c-14.2,8.4-19,26.8-10.6,41.1
		C4267.2,643.9,4285.6,648.7,4299.8,640.2z"/>
	<path class="st3" d="M4446.7,619.4c11.5-6.8,15.4-21.7,8.6-33.2c-6.8-11.5-21.7-15.3-33.2-8.6s-15.4,21.7-8.6,33.2
		C4420.3,622.4,4435.2,626.3,4446.7,619.4z"/>
	<path class="st3" d="M4210.3,439.2c11.5-6.8,15.4-21.7,8.6-33.2c-6.8-11.5-21.7-15.4-33.2-8.6c-11.5,6.8-15.4,21.7-8.6,33.2
		C4183.9,442.1,4198.7,446,4210.3,439.2z"/>
	<path class="st2" d="M3982.1,326.9c11.5-6.8,15.4-21.7,8.6-33.3c-6.8-11.5-21.7-15.3-33.2-8.6c-11.5,6.8-15.4,21.7-8.6,33.2
		C3955.7,329.8,3970.5,333.7,3982.1,326.9z"/>
	<path class="st1" d="M3459.7,621.2c-16.2,9.6-21.6,30.4-12,46.7c9.5,16.2,30.4,21.6,46.6,12.1c16.2-9.6,21.6-30.5,12-46.7
		C3496.8,617,3475.9,611.6,3459.7,621.2z"/>
	<path class="st2" d="M3145.5,515.6c14.3-8.5,19.1-26.9,10.7-41.2c-8.5-14.3-26.9-19.1-41.2-10.6c-14.3,8.4-19.1,26.9-10.7,41.2
		C3112.8,519.3,3131.2,524,3145.5,515.6z"/>
	<path class="st3" d="M3627.1,828.3c20.1-11.8,26.8-37.7,14.9-57.8c-11.8-20.1-37.7-26.8-57.8-14.9c-20.1,11.8-26.8,37.7-15,57.8
		C3581.1,833.5,3607,840.1,3627.1,828.3z"/>
	<path class="st3" d="M3303.9,744.2c20.1-11.9,26.8-37.8,14.9-57.8c-11.8-20.1-37.7-26.8-57.8-15c-20.1,11.9-26.8,37.8-14.9,57.9
		C3257.9,749.4,3283.8,756,3303.9,744.2z"/>
	<path class="st1" d="M2713.1,791.5c-23.3-13.7-53.3-6-67,17.3c-7.6,12.9-8.6,27.8-4.1,40.9h92.5
		C2742,828.1,2733.5,803.5,2713.1,791.5z"/>
	<path class="st1" d="M4851.9,813.8c30.2,17.8,69.1,7.7,86.9-22.4c17.8-30.2,7.7-69.1-22.4-86.8c-30.1-17.8-69.1-7.8-86.9,22.4
		C4811.7,757.1,4821.8,796,4851.9,813.8z"/>
	<path class="st1" d="M5526.8,715.6c-30.1-17.8-69.1-7.8-86.9,22.4c-17.8,30.2-7.7,69.1,22.4,86.9c30.2,17.8,69.1,7.7,86.9-22.4
		C5567,772.2,5556.9,733.3,5526.8,715.6z"/>
	<path class="st2" d="M5102,849.7h13.5C5111,849.1,5106.4,849.1,5102,849.7z"/>
	<path class="st1" d="M5024.3,406.1c-10.9,18.5-4.8,42.3,13.7,53.2c18.5,10.9,42.4,4.8,53.3-13.7c10.9-18.5,4.7-42.4-13.8-53.3
		C5059,381.4,5035.2,387.5,5024.3,406.1z"/>
	<path class="st3" d="M5037.4,634.7c-15.9,26.9-6.9,61.5,20,77.4c26.9,15.8,61.5,6.9,77.3-20c15.8-26.9,6.9-61.5-20-77.4
		C5087.8,598.8,5053.2,607.8,5037.4,634.7z"/>
	<path class="st2" d="M5394,647.7c21.8,12.9,50,5.6,62.8-16.2c12.9-21.8,5.6-50-16.2-62.8c-21.8-12.9-50-5.6-62.8,16.2
		C5364.9,606.7,5372.2,634.9,5394,647.7z"/>
	<path class="st3" d="M4999.1,249.2c11.4,6.7,26.1,2.9,32.9-8.5c6.8-11.4,2.9-26.2-8.5-32.9c-11.4-6.7-26.1-2.9-32.9,8.5
		C4983.8,227.7,4987.6,242.4,4999.1,249.2z"/>
	<path class="st2" d="M5180.5,605.2c31.9,18.8,73.1,8.2,91.9-23.8c18.8-31.9,8.2-73.1-23.8-91.9c-31.9-18.8-73.1-8.2-91.9,23.7
		C5137.9,545.2,5148.6,586.4,5180.5,605.2z"/>
	<path class="st0" d="M2550.9,839.5c8.7,5.3,19.9,2.3,25-6.8c5.1-9.1,2.3-20.7-6.4-26.1c-8.7-5.3-19.9-2.3-25.1,6.7
		C2539.3,822.5,2542.2,834.2,2550.9,839.5z"/>
	<path class="st3" d="M2483.4,639.3c9.1,5.4,20.9,2.3,26.2-6.8c5.4-9.1,2.3-20.9-6.8-26.2c-9.1-5.4-20.9-2.4-26.2,6.8
		C2471.3,622.2,2474.3,633.9,2483.4,639.3z"/>
	<path class="st3" d="M3967,523.5c12.9,21.8,41,29.1,62.8,16.3c21.8-12.9,29.1-41,16.2-62.8c-12.9-21.8-41-29.1-62.8-16.3
		C3961.3,473.6,3954.1,501.7,3967,523.5z"/>
	<path class="st0" d="M9087.8,684.3c8.1,4.7,18.4,2.1,23.2-6c4.7-8,2.1-18.4-6-23.1c-8-4.7-18.4-2.1-23.1,6
		C9077.1,669.2,9079.8,679.6,9087.8,684.3z"/>
	<path class="st0" d="M9452.6,679.3c-5.4,9.2-2.4,21.1,6.9,26.5c9.2,5.4,21.1,2.4,26.5-6.8c5.4-9.2,2.4-21.1-6.8-26.5
		C9469.9,667,9458,670.1,9452.6,679.3z"/>
	<path class="st0" d="M9598.6,746.4c6.7,3.9,15.4,1.7,19.4-5c4-6.7,1.7-15.4-5-19.3c-6.7-4-15.4-1.7-19.4,5
		C9589.7,733.7,9591.9,742.4,9598.6,746.4z"/>
	<path class="st0" d="M9310,574.6c9.4,5.5,21.5,2.4,27-7c5.5-9.4,2.4-21.5-7-27.1c-9.4-5.5-21.5-2.4-27.1,7
		C9297.4,557,9300.6,569.1,9310,574.6z"/>
	<path class="st0" d="M9105.6,467c12.4,7.3,28.4,3.1,35.8-9.3c7.3-12.4,3.2-28.4-9.2-35.7c-12.4-7.3-28.4-3.2-35.8,9.2
		C9089,443.6,9093.2,459.7,9105.6,467z"/>
	<path class="st0" d="M9245.1,767.1c18.6,11,42.6,4.8,53.6-13.9c11-18.6,4.8-42.7-13.9-53.6c-18.6-10.9-42.6-4.8-53.6,13.9
		C9220.2,732.1,9226.4,756.1,9245.1,767.1z"/>
	<path class="st0" d="M8555.5,614.4c-10.3,17.5-4.5,40.1,13,50.4c17.5,10.3,40.1,4.5,50.4-13c10.3-17.5,4.5-40.1-13-50.4
		C8588.4,591,8565.9,596.9,8555.5,614.4z"/>
	<path class="st0" d="M8768,531.6c7.6,4.4,17.3,1.9,21.8-5.6c4.5-7.6,1.9-17.3-5.6-21.8c-7.6-4.4-17.3-1.9-21.8,5.7
		C8757.9,517.4,8760.5,527.1,8768,531.6z"/>
	<path class="st0" d="M10039.6,531.3c12.4,7.3,28.2,3.2,35.5-9.1c7.2-12.3,3.1-28.2-9.2-35.5c-12.3-7.3-28.2-3.2-35.4,9.2
		C10023.2,508.2,10027.3,524.1,10039.6,531.3z"/>
	<path class="st0" d="M9785.4,781.8c-9.4-5.5-21.5-2.4-27.1,7c-5.5,9.4-2.4,21.5,7,27.1c9.4,5.5,21.5,2.4,27-7
		C9797.9,799.5,9794.7,787.4,9785.4,781.8z"/>
	<path class="st0" d="M9996.5,763.3c24.4,14.4,55.9,6.2,70.3-18.1c14.4-24.4,6.3-55.8-18.2-70.3c-24.4-14.4-55.9-6.3-70.3,18.1
		C9964,717.5,9972.1,749,9996.5,763.3z"/>
	<path class="st0" d="M9626.8,500c9.3,5.5,21.3,2.4,26.8-7c5.5-9.3,2.4-21.3-6.9-26.8c-9.3-5.5-21.3-2.4-26.8,6.9
		C9614.4,482.5,9617.5,494.5,9626.8,500z"/>
	<path class="st0" d="M8834.8,828.1c-9.2-5.4-21.1-2.4-26.5,6.8c-2.7,4.6-3.3,9.9-2,14.7h37.4
		C8845.8,841.5,8842.4,832.6,8834.8,828.1z"/>
	<path class="st0" d="M8525.4,428.2c13.8,8.1,31.6,3.5,39.7-10.3c8.2-13.9,3.5-31.6-10.3-39.8c-13.8-8.1-31.6-3.6-39.7,10.3
		C8507,402.3,8511.6,420.1,8525.4,428.2z"/>
	<path class="st0" d="M8945.2,809.6c-8.4,5.2-11.2,16.4-6.2,25.2c4.9,8.8,15.8,11.7,24.2,6.6c8.4-5.2,11.2-16.4,6.3-25.2
		C8964.5,807.3,8953.6,804.4,8945.2,809.6z"/>
	<path class="st1" d="M8374.5,737.8c-15.4,9.1-20.5,29-11.5,44.4c9.1,15.4,28.9,20.5,44.4,11.4c15.4-9.1,20.6-29,11.5-44.4
		C8409.8,733.9,8389.9,728.8,8374.5,737.8z"/>
	<path class="st2" d="M8442.7,604.2c27.7-16.3,36.9-52,20.6-79.7c-16.3-27.7-52-36.9-79.7-20.6c-27.7,16.3-36.9,52.1-20.6,79.8
		C8379.3,611.3,8415,620.5,8442.7,604.2z"/>
	<path class="st1" d="M8971.6,484.7c16.4-9.6,21.8-30.7,12.1-47c-9.6-16.4-30.7-21.8-47-12.2c-16.4,9.6-21.8,30.7-12.1,47.1
		C8934.2,488.9,8955.3,494.4,8971.6,484.7z"/>
	<path class="st3" d="M8609.1,758.3c-16.2,9.5-21.5,30.3-12,46.4c9.5,16.1,30.2,21.5,46.4,12c16.1-9.5,21.5-30.3,12-46.4
		C8646,754.1,8625.2,748.8,8609.1,758.3z"/>
	<path class="st1" d="M9945.9,825c-11-18.7-35.1-24.9-53.8-13.9c-13.9,8.2-20.9,23.6-19.1,38.6h78
		C9952.1,841.4,9950.5,832.7,9945.9,825z"/>
	<path class="st3" d="M9486.2,804.9c-14.9-25.2-47.3-33.6-72.5-18.7c-22.3,13.1-31.4,40-23,63.5h99.7
		C9495.5,835.4,9494.5,819,9486.2,804.9z"/>
	<path class="st1" d="M9786.9,635.8c14.3-8.4,19-26.8,10.6-41.1c-8.4-14.3-26.8-19-41.1-10.6c-14.2,8.4-19,26.8-10.6,41.1
		C9754.3,639.4,9772.6,644.2,9786.9,635.8z"/>
	<path class="st3" d="M9933.8,615c11.5-6.8,15.4-21.7,8.6-33.2c-6.8-11.5-21.7-15.3-33.2-8.6c-11.5,6.8-15.4,21.7-8.6,33.2
		C9907.4,618,9922.3,621.8,9933.8,615z"/>
	<path class="st3" d="M9697.3,434.7c11.5-6.8,15.4-21.7,8.6-33.2c-6.8-11.5-21.7-15.4-33.2-8.6c-11.5,6.8-15.4,21.7-8.6,33.2
		C9670.9,437.7,9685.8,441.5,9697.3,434.7z"/>
	<path class="st2" d="M9469.1,322.4c11.5-6.8,15.4-21.7,8.6-33.3c-6.8-11.5-21.7-15.3-33.2-8.6c-11.5,6.8-15.4,21.7-8.6,33.2
		C9442.7,325.4,9457.6,329.2,9469.1,322.4z"/>
	<path class="st1" d="M8946.7,616.7c-16.2,9.6-21.6,30.4-12,46.7c9.5,16.2,30.4,21.6,46.6,12.1c16.2-9.6,21.6-30.5,12-46.7
		C8983.9,612.6,8963,607.2,8946.7,616.7z"/>
	<path class="st2" d="M8632.6,511.2c14.3-8.5,19.1-26.9,10.7-41.2c-8.5-14.3-26.9-19.1-41.2-10.6c-14.3,8.4-19.1,26.9-10.7,41.2
		C8599.8,514.8,8618.3,519.6,8632.6,511.2z"/>
	<path class="st3" d="M9114.2,823.8c20.1-11.8,26.8-37.7,14.9-57.8c-11.8-20.1-37.7-26.8-57.8-14.9c-20.1,11.8-26.8,37.7-15,57.8
		C9068.2,829,9094.1,835.7,9114.2,823.8z"/>
	<path class="st3" d="M8790.9,739.7c20.1-11.9,26.8-37.8,14.9-57.8c-11.8-20.1-37.7-26.8-57.8-15c-20.1,11.9-26.8,37.8-14.9,57.9
		C8744.9,744.9,8770.8,751.6,8790.9,739.7z"/>
	<path class="st3" d="M9454,519c12.9,21.8,41,29.1,62.8,16.3c21.8-12.9,29.1-41,16.2-62.8c-12.9-21.8-41-29.1-62.8-16.3
		C9448.4,469.1,9441.2,497.2,9454,519z"/>
	<path class="st0" d="M6216.2,855.4c2.4-1.5,4.3-3.4,5.7-5.7h-29.3C6197.7,857.8,6208.1,860.3,6216.2,855.4z"/>
</g>
</svg>
