<?xml version="1.0" encoding="utf-8"?>
<!-- Generator: Adobe Illustrator 25.1.0, SVG Export Plug-In . SVG Version: 6.00 Build 0)  -->
<svg version="1.1" id="Calque_1" xmlns="http://www.w3.org/2000/svg" xmlns:xlink="http://www.w3.org/1999/xlink" x="0px" y="0px"
	 viewBox="0 0 81.1 81.1" style="enable-background:new 0 0 81.1 81.1;" xml:space="preserve">
<style type="text/css">
	.st0{fill:#E22D6C;}
</style>
<g id="Calque_2_1_">
	<g id="Calque_1-2">
		<path class="st0" d="M40.6,30.3c-5.7,0-10.3,4.6-10.3,10.3s4.6,10.3,10.3,10.3c5.7,0,10.3-4.6,10.3-10.3l0,0
			C50.8,35,46.2,30.4,40.6,30.3z"/>
		<path class="st0" d="M64.6,22.4c-1-2.7-3.1-4.8-5.8-5.9c-1.8-0.7-3.8-1-5.7-1.1c-3.2-0.1-4.2-0.2-12.4-0.2s-9.2,0-12.4,0.2
			c-2,0-3.9,0.4-5.7,1.1c-2.7,1.1-4.8,3.2-5.9,5.9c-0.7,1.8-1,3.8-1.1,5.7c-0.1,3.2-0.2,4.2-0.2,12.4s0,9.2,0.2,12.5
			c0,2,0.4,3.9,1.1,5.7c1.1,2.7,3.1,4.7,5.8,5.8c1.8,0.7,3.8,1,5.7,1.1c3.2,0.1,4.2,0.2,12.4,0.2s9.2,0,12.4-0.2
			c2,0,3.9-0.4,5.7-1.1c2.7-1.1,4.7-3.1,5.8-5.8c0.7-1.8,1-3.8,1.1-5.7c0.1-3.2,0.2-4.2,0.2-12.5s0-9.2-0.2-12.4
			C65.6,26.2,65.2,24.2,64.6,22.4z M40.6,56.4c-8.7,0-15.8-7.1-15.8-15.8s7.1-15.8,15.8-15.8s15.8,7.1,15.8,15.8l0,0
			C56.3,49.3,49.3,56.3,40.6,56.4z M56.9,27.8c-2,0-3.7-1.7-3.7-3.7s1.7-3.7,3.7-3.7s3.7,1.7,3.7,3.7c0,2-1.6,3.7-3.6,3.7
			C57,27.8,56.9,27.8,56.9,27.8z"/>
		<path class="st0" d="M70.2,0H10.9C4.9,0,0,4.9,0,10.9v59.3c0,6,4.9,10.9,10.9,10.9h59.3c6,0,10.9-4.9,10.9-10.9V10.9
			C81,4.9,76.2,0.1,70.2,0z M71.2,53.3c-0.1,2.6-0.5,5.1-1.4,7.5c-1.6,4.1-4.9,7.4-9,9c-2.4,0.9-4.9,1.4-7.5,1.4
			c-3.3,0.1-4.3,0.2-12.7,0.2s-9.4,0-12.7-0.2c-2.6-0.1-5.1-0.5-7.5-1.4c-4.1-1.6-7.4-4.9-9-9c-0.9-2.4-1.4-4.9-1.4-7.5
			C9.9,50,9.8,49,9.8,40.6s0-9.4,0.2-12.7c0.1-2.6,0.5-5.1,1.4-7.5c1.6-4.1,4.9-7.4,9-9c2.4-0.9,4.9-1.4,7.5-1.4
			c3.3-0.1,4.3-0.2,12.7-0.2s9.4,0,12.7,0.2c2.6,0.1,5.1,0.5,7.5,1.4c4.1,1.6,7.4,4.9,9,9c0.9,2.4,1.4,4.9,1.4,7.5
			c0.1,3.3,0.2,4.3,0.2,12.7S71.3,50,71.2,53.3z"/>
	</g>
</g>
</svg>
