<?xml version="1.0" encoding="utf-8"?>
<!-- Generator: Adobe Illustrator 25.1.0, SVG Export Plug-In . SVG Version: 6.00 Build 0)  -->
<svg version="1.1" id="Calque_1" xmlns="http://www.w3.org/2000/svg" xmlns:xlink="http://www.w3.org/1999/xlink" x="0px" y="0px"
	 viewBox="0 0 81.1 81.1" style="enable-background:new 0 0 81.1 81.1;" xml:space="preserve">
<style type="text/css">
	.st0{fill:#F07D0C;}
	.st1{fill:#FFFFFF;}
</style>
<path class="st0" d="M70.2,0H10.9C4.9,0,0,4.9,0,10.9v59.3c0,6,4.9,10.9,10.9,10.9h59.3c6,0,10.9-4.9,10.9-10.9V10.9
	C81,4.9,76.2,0.1,70.2,0z"/>
<g id="Calque_2_1_">
	<g id="Capa_1">
		<path class="st1" d="M68.7,27.5L23.3,14.8c-2.7-0.7-5.5,0.8-6.2,3.5L8.9,47.4c-0.7,2.7,0.8,5.5,3.5,6.2l45.5,12.7
			c2.7,0.7,5.5-0.8,6.2-3.5l8.1-29.1C72.9,31.1,71.4,28.3,68.7,27.5z M67.1,30.6L43.3,43.9c-2.4,1.4-5.5,0.5-6.9-1.9c0,0,0,0,0,0
			L23,18.2L67.1,30.6z M12.3,47.6l7.8-27.8l10.1,17.8L12.3,47.6z M14,50.5l17.8-10l1.7,3c2.3,4,7.4,5.5,11.4,3.2l3-1.7l10.1,17.8
			L14,50.5z M61,61.2L50.9,43.5l17.9-10L61,61.2z"/>
	</g>
</g>
</svg>
