<svg xmlns="http://www.w3.org/2000/svg" viewBox="0 0 812.9 232.71">
    <defs>
        <style>.cls-1{fill:#383837;}</style>
    </defs>
    <g id="Calque_2" data-name="Calque 2">
        <g id="Calque_1-2" data-name="Calque 1">
            <g id="Calque_2-2" data-name="Calque 2">
                <g id="Calque_1-2-2" data-name="Calque 1-2">
                    <path class="cls-1"
                          d="M145,51.3l18.2-2.1c10.1-1.2,14.1-.4,18.2,2.1,5.2,3.2,8.2,9,8.9,14.9.8,6.6-1.6,16.7-12.2,19.8L196,103.8l-16.8,1.9L163.8,88.6h-.2l2.1,18.6-14.1,1.6Zm17.4,27.3,5.2-.6c8.6-1,9-6.5,8.7-9.3-.6-5.2-4.7-7.3-10.4-6.7l-5.4.6Z"/>
                    <path class="cls-1"
                          d="M241.8,84.8a25.35,25.35,0,0,1-7.5,12,21,21,0,0,1-11.8,5.3A23.09,23.09,0,0,1,197,81.9c-1.4-12.1,6.8-24.3,20-25.8s24,7.8,25.5,20.9a20.45,20.45,0,0,1,.1,3.5l-32.4,3.7c1.4,5,6,7.6,11,7,4-.4,5.9-2.5,7.4-4.9ZM228.9,73.3a10.19,10.19,0,0,0-19.5,2.2Z"/>
                    <path class="cls-1"
                          d="M261.6,47.9l-12.9,1.5-1.1-9.8,12.9-1.5Zm5.3,46.8c1.1,10,.1,17-14.1,18.6l-3.2.4-1.1-9.8,1.7-.2c4.5-.5,4.2-3.9,3.8-7.1l-4.9-42.7L262,52.4Z"/>
                    <path class="cls-1"
                          d="M293.1,47.5c15.7-1.8,24.7,9.7,25.9,20.3s-4.9,23.8-20.6,25.6-24.7-9.7-25.9-20.3S277.4,49.3,293.1,47.5ZM297,81.3a10.58,10.58,0,0,0,9.2-11.8h0v-.3a10.62,10.62,0,0,0-11.4-9.7h-.2c-5.6.6-9.8,5.8-9.1,12.1a10.68,10.68,0,0,0,11.4,9.7Z"/>
                    <path class="cls-1"
                          d="M336.2,39.3l-12.9,1.5L322.2,31l12.9-1.5Zm5.5,47.8-12.9,1.5-5-43.2,12.9-1.5Z"/>
                    <path class="cls-1"
                          d="M395.1,75.7c.7,6.4.8,10.6-.9,14.5-2.7,5.8-10,11.5-20.7,12.7-15,1.7-21.7-6.7-23.3-12.7l14.9-1.7c2.4,4.1,7.2,3.5,8,3.4,1.6-.2,10.5-1.4,9.2-12.9l-.2-1.3H382c-1,2.6-4.4,6.7-11.1,7.5-11.7,1.3-22.8-6.4-24.4-20.2-1.7-14.8,7.9-24.5,19.1-25.7,4.8-.6,9.8.6,12.5,4.1h.1l-.5-4,12.9-1.5ZM371,72.9c6.2-.7,10.1-5.7,9.4-12-.8-6.9-6-10.6-11.8-9.9a10.44,10.44,0,0,0-9.2,11.56v.34C360.2,69.9,365.6,73.5,371,72.9Z"/>
                    <path class="cls-1"
                          d="M399.9,36.7l12-1.4.5,4.6h.2c1.1-2.2,3.3-6.5,11-7.4A18.6,18.6,0,0,1,435.1,35c2.6,1.8,5.6,4.9,6.6,13.3l3.1,27-12.9,1.5-2.7-23.5c-.4-3-1-9-7.8-8.2-7.4.8-6.7,7.2-6.4,9.9l2.7,23.5L404.8,80Z"/>
                    <path class="cls-1"
                          d="M494.1,55.9a25.35,25.35,0,0,1-7.5,12,21,21,0,0,1-11.8,5.3A23,23,0,0,1,449.3,53h0c-1.4-12,6.8-24.3,20-25.8s24,7.8,25.5,21a20.45,20.45,0,0,1,.1,3.5l-32.4,3.7c1.4,5,6,7.6,11,7a9.22,9.22,0,0,0,7.4-5ZM481.2,44.4a10.23,10.23,0,0,0-13.33-5.63l-.07,0a10,10,0,0,0-6.2,7.8Z"/>
                    <path class="cls-1"
                          d="M531.8,55.3l1.1,9.8-32.1,3.7-1-8.9,15.3-26.5-18.2,2.1-1.1-9.8L527.9,22l1.2,9.8L514.9,57.3Z"/>
                    <path class="cls-1" d="M566.6,59,559.3,1.6,572.2,0l7.3,57.4Z"/>
                    <path class="cls-1"
                          d="M629.2,33.2l-32.3,4.1c1.4,5,6.1,7.5,11.1,6.9,3.5-.4,5.6-2.1,7.3-5l13.2-1.7c-2.6,9.1-9.4,16.3-19.1,17.6a23,23,0,0,1-25.7-19.9c-1.6-12.5,7-24.4,19.6-26,13.2-1.7,24.1,7.7,25.7,20.6A9.72,9.72,0,0,1,629.2,33.2ZM604.9,20c-4.7.6-8.4,3.8-8.8,8.6l19.5-2.5C614,21.6,609.5,19.4,604.9,20Z"/>
                    <path class="cls-1"
                          d="M653.9,49.5c-9,1.1-17.1-2.7-19.3-12l12.8-1.6c.7,2.6,2.8,3.7,5.4,3.3,1.9-.2,4.4-1.7,4.1-3.9-.4-3.1-4-3.6-6.5-4.2l-5.8-1.2c-5.3-1.2-10.9-3.9-11.7-10-1.1-9,6.6-15.3,14.9-16.3C656.4,2.5,664,6,666,15.1l-12.6,1.6c-.4-2.4-2.2-3-4.5-2.8-1.7.2-3.5,1.4-3.3,3.3.9,6.8,22,.2,24,15.4C670.8,42.3,662.6,48.4,653.9,49.5Z"/>
                    <path class="cls-1"
                          d="M86.1,206.4a23.89,23.89,0,0,1-26.8-20.58v0h0v-.4a23.64,23.64,0,0,1,20.3-26.5.63.63,0,0,0,.4-.1c11.4-1.4,22.2,4.8,25.9,15.9l-13.5,1.6a10.29,10.29,0,0,0-10.7-5.1c-6.4.8-9.7,6.6-8.9,12.6.8,6.3,5.5,10.9,12,10.1a10.48,10.48,0,0,0,8.9-7.1l13.6-1.6A23.84,23.84,0,0,1,86.1,206.4Z"/>
                    <path class="cls-1"
                          d="M150.5,197.1l-.6-4.8h-.2c-2.2,5.1-7.4,7.3-12.6,7.9-13.7,1.7-23.7-8-25.3-21.2-1.6-13,5.8-24.8,19.3-26.4a17.64,17.64,0,0,1,13.8,3.7l-2.3-18.7L156,136l7.2,59.6Zm-15.3-32.4a11,11,0,0,0-10.1,11.8,1.66,1.66,0,0,0,.1.7c.8,6.5,5.9,11,12.6,10.2a11.13,11.13,0,0,0,10.11-12.08s0-.08,0-.12c0-.2-.1-.5-.1-.7a11.06,11.06,0,0,0-12-9.9h0a1.23,1.23,0,0,1-.6.1Z"/>
                    <path class="cls-1"
                          d="M214.9,170.8l-33.5,4.1c1.4,5.2,6.2,7.8,11.5,7.2,3.6-.4,5.8-2.2,7.6-5.2l13.7-1.6c-2.8,9.4-9.9,16.9-20,18.1a23.77,23.77,0,0,1-26.49-20.7v-.1c-1.6-13,7.4-25.2,20.5-26.8,13.7-1.6,24.9,8.1,26.5,21.6A9.72,9.72,0,0,1,214.9,170.8Zm-25.2-13.9c-4.8.6-8.8,3.9-9.2,8.9l20.3-2.4C199.2,158.6,194.6,156.3,189.7,156.9Z"/>
                    <path class="cls-1"
                          d="M253.6,184.7l-.6-4.8h-.2c-1.8,5.1-5.9,7-10.8,7.6s-10.1-.5-13.8-4.1c-4.2-4.1-5-7.7-5.7-13.3l-3.2-26.7,13.4-1.6,3,24.7c.6,5.1,2.2,8.8,8.2,8.1,5.6-.7,7.2-4.9,6.6-10l-3-24.6,13.4-1.6,5.4,44.7Z"/>
                    <path class="cls-1"
                          d="M305.3,178.4l-10.6-12.8-7.4,14.9-16.1,1.9,14.1-26-17.6-18.9,16-1.9,8.7,10.9,5.7-12.6L314,132l-12.5,22.6,20.2,21.8Z"/>
                    <path class="cls-1"
                          d="M366.7,152.5l-33.5,4c1.5,5.2,6.3,7.8,11.5,7.2,3.6-.4,5.8-2.2,7.6-5.2l13.7-1.6c-2.8,9.4-9.9,16.9-20,18.1a23.82,23.82,0,0,1-26.5-20.7v-.1c-1.6-13,7.4-25.2,20.5-26.8,13.7-1.7,24.9,8.1,26.5,21.5A14.5,14.5,0,0,1,366.7,152.5Zm-25.2-13.9c-4.8.6-8.8,3.9-9.2,8.9l20.3-2.5c-1.6-4.7-6.3-7-11.1-6.4Z"/>
                    <path class="cls-1"
                          d="M405.4,166.3l-.6-4.8h-.2c-1.8,5.1-5.9,7-10.8,7.6s-10.1-.5-13.8-4c-4.2-4.1-5-7.7-5.7-13.3L371.1,125l13.4-1.6,3,24.7c.6,5.1,2.2,8.8,8.2,8.1,5.6-.7,7.2-4.9,6.5-10l-3-24.6,13.4-1.6,5.4,44.7Z"/>
                    <path class="cls-1"
                          d="M438,137.5l3,24.6-13.4,1.6-5.4-44.6,12.6-1.5.6,4.8h.2c1.8-4.9,5.3-7,10.4-7.6l1.6,13.4C441.7,128.9,437.2,130.6,438,137.5Z"/>
                    <path class="cls-1"
                          d="M478.4,158.9c-13.7,1.6-25.3-7.2-27-20.9s7.5-25,21.2-26.7,25.3,7.2,26.9,20.8S492.1,157.2,478.4,158.9Zm-4.2-35c-6.2.7-10.1,6.5-9.4,12.6a10.93,10.93,0,0,0,11.78,10h.32c6.2-.7,10.1-6.5,9.4-12.6s-5.9-10.8-12.1-10Z"/>
                    <path class="cls-1"
                          d="M525.4,153.4c-9.3,1.1-17.8-2.9-20-12.6l13.3-1.6c.7,2.7,2.9,3.8,5.6,3.5,2-.2,4.5-1.7,4.2-4-.4-3.2-4.1-3.8-6.7-4.4-2-.4-4-.8-6-1.3-5.5-1.3-11.3-4.1-12-10.4-1.1-9.3,6.9-15.8,15.5-16.8,8.9-1.1,16.8,2.6,18.8,12L525,119.4c-.4-2.5-2.3-3.2-4.6-2.9-1.8.2-3.7,1.4-3.4,3.4.8,7,22.8.3,24.7,16.1C542.9,146,534.5,152.3,525.4,153.4Z"/>
                    <path class="cls-1"
                          d="M583.6,144.8l-.5-4.8h-.2c-1.9,4.9-7.5,7.4-12.3,7.9-13.8,1.7-23.7-7.9-25.3-21.2-1.6-13,6.1-24.9,19.6-26.6,4.9-.6,10.6.6,13.8,4.7h.2l-.6-4.8,13.4-1.6,5.4,44.7Zm-15.3-32.4c-6.5.8-10.4,6.5-9.6,12.8a11.35,11.35,0,0,0,12.3,10h.1a11.52,11.52,0,0,0-2.2-22.9A1.23,1.23,0,0,1,568.3,112.4Z"/>
                    <path class="cls-1"
                          d="M640.6,137.9l-.6-4.8h-.2c-2.2,5.1-7.4,7.3-12.6,7.9-13.7,1.6-23.7-8-25.3-21.2-1.6-13,5.8-24.8,19.3-26.4A17.64,17.64,0,0,1,635,97.1l-2.2-18.7,13.4-1.6,7.2,59.6Zm-15.3-32.3a11,11,0,0,0-10.1,11.8,1.66,1.66,0,0,0,.1.7c.8,6.5,5.9,11,12.6,10.2A11.13,11.13,0,0,0,638,116.22s0-.08,0-.12c0-.2-.1-.5-.1-.7a11.13,11.13,0,0,0-12-9.9A1.23,1.23,0,0,0,625.3,105.6Z"/>
                    <path class="cls-1"
                          d="M696.8,131.1l-.6-4.8H696c-2.2,5.1-7.4,7.3-12.6,7.9-13.7,1.7-23.7-8-25.3-21.2-1.6-13,5.8-24.8,19.3-26.4a17.64,17.64,0,0,1,13.8,3.7L689,71.6,702.4,70l7.2,59.6ZM681.5,98.8a11,11,0,0,0-10.1,11.8,1.66,1.66,0,0,0,.1.7c.8,6.5,5.9,11,12.6,10.2a11.13,11.13,0,0,0,10.11-12.08s0-.08,0-.12c0-.2-.1-.5-.1-.7a11.13,11.13,0,0,0-12-9.9A1.23,1.23,0,0,0,681.5,98.8Z"/>
                    <path class="cls-1" d="M713.2,79,712,68.9l13.4-1.6,1.2,10.2Zm6,49.4-5.4-44.7,13.3-1.6,5.4,44.7Z"/>
                    <path class="cls-1"
                          d="M764.1,124.5a23.89,23.89,0,0,1-26.8-20.58v0h0v-.4A23.56,23.56,0,0,1,757.5,77h.1a.63.63,0,0,0,.4-.1c11.4-1.4,22.2,4.8,25.9,15.9l-13.5,1.6a10.37,10.37,0,0,0-10.7-5.1c-6.4.8-9.7,6.6-8.9,12.6.8,6.3,5.5,10.9,12,10.1a10.2,10.2,0,0,0,9-7.1l13.6-1.6A24,24,0,0,1,764.1,124.5Z"/>
                    <path class="cls-1"
                          d="M806.5,82.8l4.2,34.5-13.4,1.6-4.2-34.5-6.6.8L785.3,75l6.6-.8-1.8-14.8,13.4-1.6,1.8,14.9,6.4-.8,1.2,10.2Z"/>
                    <path class="cls-1"
                          d="M44.1,189.9l-9.5,1.2-.1,6.3,9.4-1.2-.1,9.6-9.5,1.3-.2,15-9.6,1.2.2-15-6.6.8-.2,15-9.7,1.2.2-15-8.4,1,.1-9.6,8.5-1.1.1-6.3L.2,195.4l.1-9.6,8.5-1.1L9,171.1l9.7-1.2-.2,13.6,6.6-.8.2-13.6,9.7-1.2-.2,13.6,9.4-1.2-.1,9.6Zm-25.7,3.2-.1,6.3,6.6-.8.1-6.3Z"/>
                </g>
            </g>
            <g id="Calque_2-3" data-name="Calque 2">
                <g id="Calque_1-2-3" data-name="Calque 1-2">
                    <path class="cls-1"
                          d="M758.06,200.91l-1.28,3.4a134.32,134.32,0,0,1-8.09,17.32c-.85,1.69-1.92,3.56-3.11,5.74l-4.86-2.52,3.12-5.95c1.92-3.57,3.24-6,4.71-9.23a176,176,0,0,1-30.45,16.07c-14.32,5.62-28.08,7.89-40.86,6.63-13.81-1.34-27.7-7-40.51-16.1-13.1-9.42-24.28-27.78-27.3-33l4.73-2.74c2.91,5.16,13.56,22.64,25.77,31.48,12,8.62,25.11,14,37.8,15.18,12,1.2,24.79-1,38.27-6.32a195.18,195.18,0,0,0,29.71-15.62L730,203.84l.4-5.33Z"/>
                </g>
            </g>
        </g>
    </g>
</svg>