<svg xmlns="http://www.w3.org/2000/svg" viewBox="0 0 867.99 238.29"><defs><style>.cls-1{fill:#383837;}</style></defs><g id="Calque_2" data-name="Calque 2"><g id="Calque_1-2" data-name="Calque 1"><path class="cls-1" d="M38.72,121.94l-8.34,1-.09,5.53,8.26-1-.13,8.4-8.34,1-.23,13.17-8.42,1,.24-13.18-5.81.7-.23,13.17-8.49,1,.23-13.17L0,140.48l.13-8.4,7.44-.89.1-5.53-7.45.9.13-8.4,7.44-.9.23-12,8.49-1-.23,12,5.81-.7.23-12,8.49-1-.23,12,8.27-1Zm-22.56,2.71-.1,5.52,5.81-.69L22,124Z"/><path class="cls-1" d="M70.4,150a22.1,22.1,0,0,1-24.77-19.47A21.86,21.86,0,0,1,64.82,105.9c10.58-1.27,20.56,4.49,24,14.73l-12.51,1.5a9.57,9.57,0,0,0-9.93-4.7c-5.95.71-8.94,6-8.27,11.64.69,5.81,5.05,10,11.09,9.32a9.56,9.56,0,0,0,8.27-6.58L90,130.3A22.19,22.19,0,0,1,70.4,150Z"/><path class="cls-1" d="M137.62,123.39l-31,3.71c1.33,4.83,5.78,7.24,10.62,6.66,3.35-.4,5.35-2,7-4.77L137,127.47c-2.58,8.7-9.16,15.6-18.47,16.72A22.08,22.08,0,0,1,94,124.92c-1.44-12,6.87-23.34,19-24.79,12.66-1.52,23,7.51,24.52,20A15.9,15.9,0,0,1,137.62,123.39Zm-23.3-12.84c-4.46.53-8.1,3.61-8.53,8.2l18.76-2.25C123.05,112.15,118.79,110,114.32,110.55Z"/><path class="cls-1" d="M161.11,139.16c-8.64,1-16.41-2.72-18.47-11.69L154.92,126c.68,2.49,2.69,3.53,5.15,3.24,1.86-.23,4.2-1.56,3.94-3.72-.36-3-3.82-3.47-6.16-4.1-1.86-.38-3.72-.76-5.58-1.22-5.13-1.2-10.43-3.81-11.13-9.62-1-8.64,6.41-14.59,14.38-15.54,8.27-1,15.55,2.44,17.42,11.13l-12.13,1.45c-.35-2.3-2.09-2.92-4.25-2.66-1.64.2-3.39,1.31-3.17,3.17.78,6.48,21.11.34,22.86,14.94C177.37,132.38,169.52,138.15,161.11,139.16Z"/><path class="cls-1" d="M194.94,101.27l3.83,31.94-12.36,1.48-3.83-31.94-6.1.73-1.13-9.38,6.11-.73-1.65-13.78,12.36-1.48,1.65,13.78,6-.72,1.12,9.38Z"/><path class="cls-1" d="M240.25,128.25l-.54-4.47h-.15c-2.08,4.71-6.82,6.71-11.66,7.29-12.66,1.52-21.89-7.42-23.35-19.63-1.44-12,5.41-22.93,17.84-24.42a16.22,16.22,0,0,1,12.73,3.46l-2.07-17.28,12.36-1.48,6.6,55.1Zm-14.09-30a10.21,10.21,0,0,0-9.26,11.61c.72,6,5.44,10.15,11.62,9.41a10.34,10.34,0,0,0,9.3-11.91A10.19,10.19,0,0,0,226.16,98.28Z"/><path class="cls-1" d="M299.88,104l-31,3.71c1.34,4.82,5.78,7.24,10.62,6.66,3.35-.41,5.35-2,7.06-4.78L299.24,108c-2.59,8.69-9.16,15.59-18.47,16.71a22.09,22.09,0,0,1-24.52-19.27c-1.43-12,6.88-23.33,19-24.79,12.66-1.51,23,7.52,24.53,20A16.7,16.7,0,0,1,299.88,104ZM276.59,91.11c-4.47.54-8.1,3.61-8.54,8.2l18.77-2.25C285.31,92.71,281.06,90.58,276.59,91.11Z"/><path class="cls-1" d="M335.64,116.82l-.53-4.4-.15,0c-1.62,4.73-5.42,6.47-10,7s-9.35-.46-12.76-3.76c-3.85-3.77-4.64-7.15-5.25-12.28l-3-24.73,12.36-1.48,2.74,22.86c.56,4.69,2,8.14,7.61,7.47,5.14-.61,6.64-4.49,6.07-9.26L330,75.57l12.36-1.48,4.95,41.33Z"/><path class="cls-1" d="M383.45,111.09l-9.8-11.82-6.88,13.82-14.9,1.78,13.07-24L348.71,73.33l14.82-1.77,8,10.07L376.86,70l14.67-1.76L379.9,89.08l18.66,20.2Z"/><path class="cls-1" d="M440.25,87.14l-31,3.71c1.34,4.83,5.78,7.24,10.62,6.66,3.35-.4,5.35-2,7.06-4.77l12.66-1.52c-2.59,8.7-9.16,15.6-18.47,16.72a22.09,22.09,0,0,1-24.52-19.27c-1.43-12,6.88-23.34,19-24.79,12.66-1.51,23,7.51,24.53,19.95A16.62,16.62,0,0,1,440.25,87.14ZM417,74.3c-4.47.53-8.1,3.61-8.54,8.2l18.77-2.25C425.68,75.9,421.43,73.76,417,74.3Z"/><path class="cls-1" d="M476,100l-.53-4.39-.15,0c-1.62,4.73-5.42,6.46-10,7s-9.35-.47-12.76-3.76c-3.86-3.77-4.64-7.15-5.25-12.29l-3-24.72,12.36-1.48,2.73,22.86c.57,4.69,2,8.14,7.62,7.47,5.14-.61,6.64-4.49,6.07-9.26l-2.72-22.71,12.36-1.48L487.7,98.6Z"/><path class="cls-1" d="M506.2,73.35l2.72,22.71-12.36,1.48-4.95-41.32,11.62-1.4.52,4.4.15,0c1.65-4.5,4.89-6.48,9.66-7.05l1.49,12.44C509.63,65.39,505.44,67,506.2,73.35Z"/><path class="cls-1" d="M543.55,93.2c-12.66,1.52-23.38-6.64-24.89-19.3s7-23.12,19.63-24.64,23.38,6.65,24.9,19.3S556.21,91.68,543.55,93.2Zm-3.88-32.39c-5.73.68-9.32,6-8.65,11.61s5.42,9.92,11.15,9.24,9.32-6,8.66-11.62S545.41,60.12,539.67,60.81Z"/><path class="cls-1" d="M587,88.15c-8.63,1-16.41-2.72-18.47-11.69L580.8,75c.68,2.49,2.69,3.53,5.15,3.24,1.86-.23,4.19-1.56,3.93-3.72-.35-3-3.81-3.47-6.15-4.1-1.86-.38-3.72-.76-5.59-1.22C573,68,567.71,65.38,567,59.57,566,50.93,573.43,45,581.4,44c8.26-1,15.55,2.44,17.42,11.13l-12.14,1.45c-.35-2.3-2.09-2.92-4.25-2.66-1.63.19-3.39,1.31-3.17,3.17.78,6.48,21.12.34,22.87,14.94C603.24,81.37,595.4,87.14,587,88.15Z"/><path class="cls-1" d="M640.88,80.26l-.54-4.47-.15,0c-1.72,4.51-6.89,6.79-11.36,7.32-12.73,1.53-22-7.34-23.42-19.62-1.45-12.07,5.7-23,18.13-24.53,4.55-.55,9.82.56,12.76,4.36l.15,0-.52-4.39,12.36-1.48,5,41.33ZM626.71,50.31c-6,.72-9.63,6-8.92,11.87a10.39,10.39,0,1,0,20.61-2.62A10.22,10.22,0,0,0,626.71,50.31Z"/><path class="cls-1" d="M693.52,74,693,69.48l-.15,0c-2.08,4.71-6.82,6.71-11.66,7.29-12.66,1.52-21.89-7.42-23.35-19.64-1.44-12,5.41-22.93,17.84-24.42a16.25,16.25,0,0,1,12.73,3.46l-2.07-17.27,12.36-1.48,6.6,55.1ZM679.44,44a10.21,10.21,0,0,0-9.26,11.61c.72,6,5.44,10.15,11.62,9.41a10.35,10.35,0,0,0,9.3-11.92A10.19,10.19,0,0,0,679.44,44Z"/><path class="cls-1" d="M745.5,67.72,745,63.26h-.15C742.74,68,738,70,733.15,70.56c-12.66,1.52-21.88-7.42-23.35-19.63-1.43-12,5.41-22.93,17.85-24.42A16.22,16.22,0,0,1,740.38,30l-2.07-17.28,12.36-1.48,6.6,55.11Zm-14.08-30a10.21,10.21,0,0,0-9.26,11.61c.72,6,5.44,10.15,11.62,9.41a10.34,10.34,0,0,0,9.3-11.91A10.19,10.19,0,0,0,731.42,37.76Z"/><path class="cls-1" d="M760.73,19.52l-1.12-9.38L772,8.66,773.09,18Zm5.48,45.73-5-41.33,12.36-1.48,5,41.32Z"/><path class="cls-1" d="M807.77,61.63A22.1,22.1,0,0,1,783,42.16a21.85,21.85,0,0,1,19.19-24.58c10.58-1.27,20.56,4.49,24,14.73L813.65,33.8a9.58,9.58,0,0,0-9.93-4.7c-6,.72-8.94,6.06-8.27,11.64.69,5.81,5,10,11.09,9.33a9.58,9.58,0,0,0,8.27-6.58L827.4,42A22.19,22.19,0,0,1,807.77,61.63Z"/><path class="cls-1" d="M847.05,23.16l3.82,31.94-12.36,1.48-3.82-31.94-6.11.73L827.46,16l6.1-.73L831.91,1.48,844.27,0l1.65,13.78,6-.72L853,22.44Z"/><path class="cls-1" d="M122.17,230l-16.84-18.44-.17,0,2.41,20.17L92.3,233.59l-7.49-62.46,19.76-2.37c6.58-.79,13.86-1.49,19.77,2.17a21.79,21.79,0,0,1,9.73,16.13c1.15,9.62-3.49,18.74-13.18,21.53l19.52,19.24Zm-14.58-47.4-5.82.7,2.08,17.39,5.66-.68c6-.72,10.16-3.79,9.39-10.2C118.16,183.66,113.08,182,107.59,182.61Z"/><path class="cls-1" d="M190.94,202.34l-35.11,4.2c1.51,5.47,6.55,8.21,12,7.55,3.8-.45,6.07-2.27,8-5.41L190.21,207c-2.93,9.86-10.38,17.68-20.93,18.95a25,25,0,0,1-27.79-21.84c-1.62-13.59,7.79-26.45,21.55-28.1,14.35-1.72,26.11,8.52,27.8,22.61A18.86,18.86,0,0,1,190.94,202.34Zm-26.4-14.56c-5.06.6-9.18,4.09-9.67,9.29l21.27-2.55C174.43,189.59,169.61,187.17,164.54,187.78Z"/><path class="cls-1" d="M197.41,168.43l-1.28-10.63,14-1.68,1.28,10.63Zm4.89,69.45-3.46.41-1.27-10.63,1.85-.23c4.73-.56,4.58-4,4.13-7.68L198,173.41l14-1.68,5.49,45.83C219.05,230.48,216,236.24,202.3,237.88Z"/><path class="cls-1" d="M251.64,216c-14.35,1.72-26.5-7.53-28.22-21.88s7.91-26.2,22.26-27.92,26.5,7.53,28.22,21.87S266,214.24,251.64,216Zm-4.4-36.72c-6.5.78-10.57,6.83-9.81,13.16s6.15,11.25,12.64,10.48,10.57-6.84,9.81-13.17S253.74,178.46,247.24,179.24Z"/><path class="cls-1" d="M278.43,158.73l-1.28-10.64,14-1.68,1.28,10.64Zm6.2,51.82L279,163.71,293,162l5.61,46.84Z"/><path class="cls-1" d="M355.69,212c-3.7,8.41-13.87,12.88-22.39,13.9-7.94.95-16.16-.55-21.62-6.75a16.48,16.48,0,0,1-3.73-6.91l16.2-1.94c1.93,3.19,5.28,4.07,8.74,3.66,7.69-.92,10.76-6.68,9.87-14.11l-.17-1.44-.17,0c-1.9,4.86-7.05,7.61-12,8.21-14,1.68-24.95-8.14-26.58-21.82s6.34-26.35,20.61-28.06c4.81-.58,10.4.38,13.62,4.36l.17,0-.53-4.39,14-1.68,4.94,41.19C357.25,201.42,357.83,207,355.69,212Zm-28-42.36a11.46,11.46,0,0,0-9.91,13c.78,6.5,5.92,11.53,12.67,10.72s10.89-6.27,10.08-13S334.59,168.78,327.67,169.61Z"/><path class="cls-1" d="M397.47,197l-3.06-25.57c-.63-5.23-2.18-9.59-8.51-8.83-6.5.78-7.51,5.18-6.84,10.75l3.05,25.49-14,1.68-5.61-46.84,13.08-1.57.6,5,.17,0c2.37-5.16,6.3-7.43,12-8.11a20.46,20.46,0,0,1,12.47,2.62c4.92,3.17,6.56,9,7.22,14.46l3.5,29.29Z"/><path class="cls-1" d="M465.56,169.44l-35.11,4.21c1.51,5.47,6.55,8.2,12,7.55,3.8-.46,6.06-2.27,8-5.41l14.34-1.72c-2.92,9.85-10.38,17.68-20.93,18.94a25,25,0,0,1-27.78-21.84c-1.63-13.59,7.79-26.45,21.54-28.09,14.35-1.72,26.11,8.51,27.8,22.61A18.06,18.06,0,0,1,465.56,169.44Zm-26.4-14.56c-5.06.61-9.18,4.1-9.67,9.29l21.27-2.54C449.06,156.69,444.23,154.28,439.16,154.88Z"/><path class="cls-1" d="M472.16,188.09,471,178.47l16.56-29-19.75,2.37-1.27-10.64,34.86-4.17,1.27,10.63-15.25,27.77,18.31-2.19L507,183.91Z"/><path class="cls-1" d="M506.27,166.28l-1.65-13.76,23.72-2.84L530,163.44Z"/><path class="cls-1" d="M566.52,176.79l-3.07-25.58c-.62-5.23-2.17-9.58-8.5-8.83-6.5.78-7.52,5.19-6.85,10.76l3,25.49-14,1.67-5.61-46.84,13.08-1.57.6,5,.17,0c2.38-5.16,6.3-7.43,12-8.11a20.49,20.49,0,0,1,12.47,2.62c4.91,3.18,6.55,9,7.21,14.46l3.51,29.29Z"/><path class="cls-1" d="M613.69,172.59c-14.34,1.72-26.5-7.53-28.21-21.88s7.9-26.2,22.25-27.92,26.5,7.53,28.22,21.88S628,170.87,613.69,172.59Zm-4.39-36.72c-6.5.78-10.57,6.84-9.81,13.17s6.14,11.25,12.64,10.47,10.57-6.83,9.81-13.16S615.79,135.1,609.3,135.87Z"/><path class="cls-1" d="M676.82,163.57l-.6-5-.17,0c-1.84,5.36-6.14,7.33-11.37,8s-10.6-.53-14.47-4.26c-4.36-4.27-5.25-8.1-6-13.93l-3.35-28,14-1.68,3.1,25.91c.64,5.32,2.31,9.23,8.64,8.47,5.82-.7,7.52-5.09,6.87-10.5l-3.08-25.74,14-1.68L690.07,162Z"/><path class="cls-1" d="M716.42,160.46c-9.79,1.17-18.6-3.08-20.93-13.25l13.92-1.67c.77,2.82,3.05,4,5.84,3.67,2.11-.25,4.75-1.77,4.46-4.21-.41-3.38-4.33-3.94-7-4.65-2.11-.43-4.21-.86-6.33-1.38-5.81-1.36-11.82-4.32-12.61-10.9-1.17-9.8,7.27-16.54,16.3-17.62,9.37-1.13,17.63,2.76,19.75,12.61l-13.76,1.65c-.4-2.61-2.37-3.31-4.81-3-1.86.22-3.85,1.49-3.6,3.6.88,7.34,23.94.39,25.92,16.93C734.85,152.77,726,159.31,716.42,160.46Z"/><path class="cls-1" d="M767.69,131.8l-5-41.87,14.43-1.72,5,41.86Zm2.47,20.59L768.44,138l14.43-1.72,1.72,14.35Z"/><g id="Calque_2-3" data-name="Calque 2-3"><g id="Calque_1-2-3" data-name="Calque 1-2-3"><path class="cls-1" d="M868,201.36l-1.28,3.4a133,133,0,0,1-8.09,17.32c-.85,1.69-1.92,3.56-3.11,5.74l-4.86-2.52,3.12-6c1.92-3.57,3.24-6,4.71-9.23A176,176,0,0,1,828,226.19c-14.32,5.62-28.08,7.89-40.86,6.63-13.81-1.34-27.7-7-40.51-16.1-13.1-9.42-24.28-27.78-27.3-33l4.73-2.74c2.91,5.16,13.56,22.64,25.77,31.48,12,8.62,25.11,14,37.8,15.18,12,1.2,24.79-1,38.27-6.32a194.71,194.71,0,0,0,29.71-15.62l-15.71-1.41.4-5.33Z"/></g></g></g></g></svg>