<svg xmlns="http://www.w3.org/2000/svg" viewBox="0 0 812.9 194.63"><defs><style>.cls-1{fill:#383837;}</style></defs><g id="Calque_2" data-name="Calque 2"><g id="Calque_1-2" data-name="Calque 1"><g id="Calque_2-3" data-name="Calque 2-3"><g id="Calque_1-2-3" data-name="Calque 1-2-3"><path class="cls-1" d="M802.21,162.64l-1.28,3.4a133,133,0,0,1-8.09,17.32c-.85,1.69-1.92,3.56-3.11,5.74l-4.86-2.52,3.12-6c1.92-3.57,3.24-6,4.71-9.23a176.09,176.09,0,0,1-30.45,16.08c-14.32,5.62-28.08,7.89-40.86,6.63-13.81-1.34-27.7-7-40.51-16.1-13.1-9.42-24.28-27.78-27.3-33l4.73-2.75c2.91,5.17,13.56,22.64,25.77,31.48,12,8.62,25.11,14,37.8,15.18,12,1.2,24.79-1,38.27-6.32A193.36,193.36,0,0,0,789.86,167l-15.71-1.41.4-5.33Z"/></g></g><path class="cls-1" d="M171.3,106.85,155.52,89.58l-.16,0,2.27,18.89-14.31,1.71-7-58.47,18.49-2.22c6.16-.74,13-1.39,18.52,2a20.43,20.43,0,0,1,9.1,15.1c1.08,9-3.27,17.55-12.33,20.16l18.27,18ZM157.65,62.48l-5.46.65,1.95,16.28,5.3-.63c5.61-.68,9.51-3.55,8.79-9.56C167.54,63.46,162.78,61.86,157.65,62.48Z"/><path class="cls-1" d="M235.69,80.94l-32.88,3.94c1.42,5.12,6.13,7.68,11.27,7.07,3.56-.43,5.68-2.13,7.49-5.07L235,85.27c-2.74,9.23-9.72,16.56-19.59,17.74a23.44,23.44,0,0,1-26-20.45c-1.52-12.72,7.29-24.76,20.17-26.3,13.44-1.61,24.45,8,26,21.17A17.85,17.85,0,0,1,235.69,80.94ZM211,67.31c-4.74.57-8.6,3.84-9.06,8.7l19.91-2.38C220.23,69,215.71,66.74,211,67.31Z"/><path class="cls-1" d="M241.74,49.2l-1.19-10,13.12-1.57,1.19,10Zm4.59,65-3.24.38-1.2-9.95,1.74-.21c4.43-.53,4.29-3.72,3.87-7.2l-5.2-43.38,13.12-1.57,5.14,42.91C262,107.29,259.13,112.68,246.33,114.22Z"/><path class="cls-1" d="M292.52,93.69c-13.43,1.61-24.81-7-26.42-20.48s7.4-24.53,20.84-26.14,24.81,7,26.42,20.48S306,92.08,292.52,93.69ZM288.4,59.32c-6.08.73-9.89,6.4-9.18,12.32s5.75,10.53,11.83,9.81,9.9-6.4,9.19-12.33S294.49,58.59,288.4,59.32Z"/><path class="cls-1" d="M317.6,40.11l-1.19-9.95,13.12-1.58,1.19,10Zm5.82,48.52-5.26-43.86,13.12-1.57,5.25,43.86Z"/><path class="cls-1" d="M389.94,90c-3.46,7.87-13,12.06-21,13-7.43.89-15.13-.51-20.23-6.31a15.37,15.37,0,0,1-3.5-6.48l15.17-1.81c1.8,3,4.94,3.81,8.18,3.43,7.19-.87,10.07-6.26,9.24-13.21l-.16-1.35-.16,0c-1.78,4.54-6.6,7.12-11.26,7.68-13.12,1.57-23.36-7.62-24.89-20.42s5.94-24.68,19.29-26.28c4.51-.54,9.75.36,12.76,4.08h.16l-.5-4.11,13.12-1.58,4.62,38.57C391.41,80.09,392,85.31,389.94,90ZM363.71,50.3a10.74,10.74,0,0,0-9.28,12.17c.73,6.09,5.54,10.8,11.86,10s10.2-5.87,9.44-12.19S370.19,49.52,363.71,50.3Z"/><path class="cls-1" d="M429.07,76,426.2,52c-.59-4.9-2-9-8-8.26-6.09.73-7,4.85-6.41,10.06l2.86,23.87-13.12,1.57-5.25-43.86L408.56,34l.56,4.66.16,0c2.23-4.84,5.9-7,11.19-7.59a19.11,19.11,0,0,1,11.68,2.45c4.6,3,6.14,8.4,6.75,13.53l3.29,27.43Z"/><path class="cls-1" d="M492.82,50.14,460,54.08c1.42,5.12,6.13,7.68,11.27,7.07,3.55-.43,5.68-2.13,7.49-5.07l13.43-1.61c-2.74,9.23-9.72,16.56-19.6,17.74a23.43,23.43,0,0,1-26-20.45C445,39,453.82,27,466.7,25.46c13.44-1.61,24.44,8,26,21.17A16.44,16.44,0,0,1,492.82,50.14ZM468.11,36.51c-4.74.57-8.6,3.84-9.06,8.7L479,42.83C477.37,38.21,472.85,35.94,468.11,36.51Z"/><path class="cls-1" d="M499,67.6l-1.08-9,15.51-27.11L494.94,33.7l-1.19-10,32.64-3.91,1.19,10-14.28,26,17.15-2.06,1.19,10Z"/><path class="cls-1" d="M562.06,60.05l-7-58.48L568.18,0l7,58.48Z"/><path class="cls-1" d="M626,34.2,593.1,38.13c1.42,5.12,6.13,7.68,11.27,7.07,3.55-.43,5.68-2.12,7.49-5.07l13.43-1.6c-2.74,9.22-9.72,16.55-19.6,17.73a23.43,23.43,0,0,1-26-20.45c-1.53-12.72,7.29-24.76,20.17-26.3,13.44-1.61,24.44,8,26,21.17A16.53,16.53,0,0,1,626,34.2ZM601.26,20.56c-4.74.57-8.6,3.84-9.06,8.7l19.91-2.38C610.52,22.26,606,20,601.26,20.56Z"/><path class="cls-1" d="M650.9,50.93c-9.16,1.1-17.41-2.89-19.6-12.4l13-1.57c.72,2.64,2.86,3.75,5.46,3.44,2-.24,4.45-1.66,4.18-3.95-.38-3.16-4.05-3.68-6.53-4.35-2-.4-4-.81-5.93-1.29-5.44-1.27-11.06-4-11.8-10.21-1.1-9.17,6.8-15.48,15.25-16.49,8.78-1.06,16.51,2.59,18.49,11.81l-12.88,1.54c-.37-2.44-2.21-3.1-4.5-2.82-1.74.2-3.6,1.39-3.37,3.36.83,6.88,22.41.37,24.26,15.85C668.16,43.73,659.83,49.86,650.9,50.93Z"/><path class="cls-1" d="M36.9,165.26l-7.95,1-.09,5.27,7.88-.95-.12,8-7.95,1L28.45,192l-8,1,.22-12.55-5.54.66-.22,12.55-8.09,1L7,182.08l-7,.84.12-8,7.1-.85.09-5.27-7.1.85.12-8,7.1-.85.22-11.4,8.09-1-.22,11.4,5.53-.66.22-11.4,8.09-1-.22,11.4,7.88-.95Zm-21.5,2.58-.09,5.26,5.53-.66.09-5.27Z"/><path class="cls-1" d="M67.09,192a21,21,0,0,1-23.6-18.55A20.81,20.81,0,0,1,61.77,150c10.08-1.21,19.59,4.28,22.85,14L72.7,165.43A9.15,9.15,0,0,0,63.23,161c-5.67.68-8.52,5.77-7.88,11.1.66,5.53,4.82,9.57,10.56,8.88a9.13,9.13,0,0,0,7.89-6.27l12-1.44A21.13,21.13,0,0,1,67.09,192Z"/><path class="cls-1" d="M131.15,166.64l-29.52,3.54c1.27,4.59,5.5,6.89,10.11,6.34,3.2-.38,5.1-1.9,6.73-4.55l12.06-1.44c-2.46,8.28-8.73,14.86-17.6,15.93a21.06,21.06,0,0,1-23.36-18.37c-1.37-11.42,6.55-22.23,18.12-23.62,12.06-1.44,21.95,7.16,23.37,19A16.65,16.65,0,0,1,131.15,166.64ZM109,154.4c-4.26.51-7.72,3.44-8.13,7.81l17.88-2.14C117.27,155.92,113.21,153.89,109,154.4Z"/><path class="cls-1" d="M153.53,181.66c-8.23,1-15.64-2.58-17.6-11.13l11.71-1.4c.65,2.37,2.56,3.36,4.91,3.08,1.77-.21,4-1.49,3.75-3.55-.34-2.83-3.64-3.3-5.87-3.9-1.77-.36-3.54-.73-5.32-1.16-4.89-1.14-9.94-3.63-10.6-9.17-1-8.23,6.11-13.9,13.7-14.81,7.88-1,14.82,2.33,16.6,10.61l-11.56,1.38c-.34-2.19-2-2.78-4.05-2.54-1.56.19-3.23,1.25-3,3,.74,6.17,20.12.32,21.79,14.23C169,175.2,161.55,180.7,153.53,181.66Z"/><path class="cls-1" d="M185.78,145.55,189.42,176l-11.78,1.41L174,147l-5.82.69-1.07-8.94,5.82-.7-1.58-13.12,11.78-1.41,1.58,13.12,5.67-.68,1.07,8.95Z"/><path class="cls-1" d="M229,171.26l-.51-4.25h-.14c-2,4.49-6.5,6.4-11.12,6.95-12.06,1.44-20.86-7.08-22.25-18.71-1.37-11.43,5.16-21.86,17-23.28a15.51,15.51,0,0,1,12.13,3.3l-2-16.46,11.78-1.41,6.29,52.51Zm-13.42-28.55a9.73,9.73,0,0,0-8.83,11.06c.69,5.75,5.19,9.68,11.08,9a9.85,9.85,0,0,0,8.86-11.35A9.71,9.71,0,0,0,215.53,142.71Z"/><path class="cls-1" d="M285.78,148.12l-29.52,3.53c1.27,4.6,5.51,6.9,10.12,6.35,3.19-.38,5.1-1.91,6.72-4.55L285.17,152c-2.47,8.28-8.73,14.86-17.6,15.92a21,21,0,0,1-23.36-18.36c-1.37-11.43,6.55-22.24,18.11-23.62,12.07-1.45,21.95,7.16,23.37,19A15.13,15.13,0,0,1,285.78,148.12Zm-22.2-12.24c-4.25.51-7.72,3.44-8.13,7.81l17.88-2.14C271.9,137.4,267.84,135.37,263.58,135.88Z"/><path class="cls-1" d="M319.86,160.38l-.5-4.19-.14,0c-1.55,4.5-5.17,6.16-9.57,6.68s-8.91-.44-12.16-3.58c-3.67-3.59-4.42-6.81-5-11.71L289.67,124l11.78-1.41,2.6,21.79c.54,4.47,1.94,7.76,7.26,7.12,4.9-.59,6.33-4.29,5.79-8.83l-2.6-21.64,11.78-1.41L331,159Z"/><path class="cls-1" d="M365.42,154.92l-9.34-11.26-6.56,13.16-14.19,1.7,12.45-22.87-15.46-16.72,14.12-1.69,7.62,9.6,5.08-11.12,14-1.67L362,133.94l17.78,19.25Z"/><path class="cls-1" d="M419.55,132.09,390,135.63c1.27,4.6,5.51,6.9,10.12,6.35a8.52,8.52,0,0,0,6.72-4.55L418.94,136c-2.46,8.29-8.73,14.87-17.6,15.93A21,21,0,0,1,378,133.55c-1.37-11.43,6.55-22.24,18.11-23.62,12.07-1.45,22,7.16,23.37,19A15,15,0,0,1,419.55,132.09Zm-22.19-12.24c-4.26.51-7.73,3.45-8.14,7.81l17.88-2.14C405.67,121.38,401.61,119.34,397.36,119.85Z"/><path class="cls-1" d="M453.63,144.35l-.5-4.18H453c-1.55,4.51-5.17,6.16-9.57,6.69s-8.91-.44-12.16-3.58c-3.67-3.59-4.42-6.81-5-11.71L423.44,108l11.78-1.41,2.6,21.78c.54,4.48,1.94,7.76,7.26,7.12,4.9-.58,6.33-4.28,5.79-8.82L448.27,105l11.78-1.41L464.77,143Z"/><path class="cls-1" d="M482.4,119,485,140.6,473.22,142l-4.72-39.39,11.07-1.32.5,4.18h.14c1.58-4.3,4.66-6.18,9.2-6.72l1.42,11.85C485.67,111.36,481.67,112.85,482.4,119Z"/><path class="cls-1" d="M518,137.87c-12.07,1.44-22.28-6.33-23.73-18.4S500.92,97.44,513,96s22.28,6.33,23.73,18.39S530.06,136.42,518,137.87ZM514.3,107c-5.46.65-8.89,5.74-8.25,11.06s5.17,9.46,10.63,8.81a9.72,9.72,0,0,0,8.25-11.07C524.29,110.48,519.76,106.34,514.3,107Z"/><path class="cls-1" d="M559.39,133.05c-8.23,1-15.64-2.59-17.61-11.13l11.71-1.41a4.16,4.16,0,0,0,4.91,3.09c1.77-.22,4-1.49,3.75-3.55-.34-2.84-3.64-3.31-5.87-3.9-1.77-.37-3.54-.73-5.32-1.16-4.89-1.15-9.94-3.64-10.6-9.17-1-8.23,6.11-13.91,13.7-14.82,7.88-.94,14.82,2.33,16.61,10.61L559.1,103c-.34-2.19-2-2.79-4.05-2.54-1.56.19-3.23,1.25-3,3,.74,6.18,20.12.33,21.79,14.24C574.88,126.59,567.41,132.09,559.39,133.05Z"/><path class="cls-1" d="M610.75,125.53l-.51-4.25h-.15c-1.64,4.3-6.56,6.47-10.82,7-12.14,1.46-20.92-7-22.32-18.7-1.38-11.5,5.43-22,17.28-23.38,4.33-.51,9.35.54,12.16,4.16h.14l-.5-4.19,11.78-1.41,4.72,39.38ZM597.25,97c-5.75.69-9.18,5.71-8.51,11.31a9.9,9.9,0,1,0,19.64-2.5A9.74,9.74,0,0,0,597.25,97Z"/><path class="cls-1" d="M660.92,119.52l-.51-4.25h-.14c-2,4.49-6.51,6.4-11.12,7-12.06,1.44-20.86-7.08-22.25-18.71-1.37-11.43,5.15-21.86,17-23.28A15.49,15.49,0,0,1,656,83.54l-2-16.46,11.78-1.41,6.29,52.51ZM647.49,91A9.73,9.73,0,0,0,638.67,102c.69,5.75,5.19,9.68,11.08,9a9.86,9.86,0,0,0,8.86-11.36A9.72,9.72,0,0,0,647.49,91Z"/><path class="cls-1" d="M710.45,113.59l-.51-4.26-.14,0c-2,4.48-6.5,6.39-11.12,7-12.06,1.44-20.85-7.08-22.25-18.72-1.37-11.42,5.16-21.85,17-23.27a15.51,15.51,0,0,1,12.13,3.3l-2-16.47,11.78-1.41,6.29,52.52ZM697,85A9.73,9.73,0,0,0,688.2,96.1c.69,5.75,5.19,9.67,11.08,9a9.86,9.86,0,0,0,8.86-11.36A9.7,9.7,0,0,0,697,85Z"/><path class="cls-1" d="M725,67.66l-1.07-8.95,11.78-1.41,1.07,8.94Zm5.22,43.57-4.71-39.39,11.78-1.41L742,109.82Z"/><path class="cls-1" d="M769.79,107.78a21,21,0,0,1-23.6-18.55A20.83,20.83,0,0,1,764.48,65.8c10.07-1.21,19.58,4.28,22.84,14L775.4,81.27a9.14,9.14,0,0,0-9.46-4.49c-5.68.68-8.53,5.77-7.89,11.1.66,5.53,4.82,9.57,10.57,8.88a9.11,9.11,0,0,0,7.88-6.27l12-1.44A21.14,21.14,0,0,1,769.79,107.78Z"/><path class="cls-1" d="M807.22,71.12l3.65,30.44L799.09,103l-3.65-30.44-5.82.7-1.07-8.94,5.82-.7L792.8,50.46l11.78-1.41,1.57,13.13,5.68-.68,1.07,8.94Z"/></g></g></svg>