<?xml version="1.0" encoding="utf-8"?>
<!-- Generator: Adobe Illustrator 25.2.1, SVG Export Plug-In . SVG Version: 6.00 Build 0)  -->
<svg version="1.1" id="Calque_1" xmlns="http://www.w3.org/2000/svg" xmlns:xlink="http://www.w3.org/1999/xlink" x="0px" y="0px"
	 viewBox="0 0 35 58" style="enable-background:new 0 0 35 58;" xml:space="preserve">
<g transform="translate(-948.997 -2740)">
	<path d="M966.5,2771.5c-5,0-9,4-9,9c0,5,4,9,9,9s9-4,9-9c0,0,0,0,0,0C975.5,2775.6,971.5,2771.5,966.5,2771.5
		C966.5,2771.5,966.5,2771.5,966.5,2771.5z M966.5,2786.3c-3.2,0-5.8-2.6-5.8-5.8c0-3.2,2.6-5.8,5.8-5.8s5.8,2.6,5.8,5.8l0,0
		C972.3,2783.7,969.7,2786.3,966.5,2786.3z M977.9,2771.2c0,1.2-0.9,2.1-2.1,2.1c-1.2,0-2.1-0.9-2.1-2.1c0-1.2,0.9-2.1,2.1-2.1
		C977,2769.1,977.9,2770,977.9,2771.2C977.9,2771.2,977.9,2771.2,977.9,2771.2z M983.9,2773.3c-0.1-2.8-0.8-5.3-2.8-7.3
		c-2.1-2-4.5-2.7-7.3-2.8c-2.9-0.2-11.6-0.2-14.4,0c-2.8,0.1-5.3,0.8-7.3,2.8c-2.1,2-2.7,4.5-2.8,7.3c-0.2,2.9-0.2,11.6,0,14.4
		c0.1,2.8,0.8,5.3,2.8,7.3c2.1,2,4.5,2.7,7.3,2.8c2.9,0.2,11.6,0.2,14.4,0c2.8-0.1,5.3-0.8,7.3-2.8s2.7-4.5,2.8-7.3
		C984,2784.8,984,2776.2,983.9,2773.3L983.9,2773.3z M980.1,2790.8c-0.6,1.5-1.8,2.7-3.3,3.3c-2.3,0.9-7.8,0.7-10.3,0.7
		c-2.5,0-8,0.2-10.3-0.7c-1.5-0.6-2.7-1.8-3.3-3.3c-0.9-2.3-0.7-7.8-0.7-10.3c0-2.5-0.2-8,0.7-10.3c0.6-1.5,1.8-2.7,3.3-3.3
		c2.3-0.9,7.8-0.7,10.3-0.7s8-0.2,10.3,0.7c1.5,0.6,2.7,1.8,3.3,3.3c0.9,2.3,0.7,7.8,0.7,10.3C980.8,2783,981.1,2788.5,980.1,2790.8
		z"/>
	<path d="M967,2740L967,2740c0.9,0,1.6,0.7,1.6,1.6v10.3c0,0.9-0.7,1.6-1.6,1.6h0c-0.9,0-1.6-0.7-1.6-1.6v-10.3
		C965.4,2740.7,966.1,2740,967,2740z"/>
	<path d="M981.4,2746.3c0.7,0.6,0.7,1.6,0.2,2.2l-6.5,7.9c-0.5,0.7-1.5,0.8-2.2,0.2c0,0,0,0,0,0c-0.7-0.6-0.7-1.6-0.2-2.2l6.5-7.9
		C979.8,2745.9,980.8,2745.8,981.4,2746.3C981.4,2746.3,981.4,2746.3,981.4,2746.3z"/>
	<path d="M951.6,2746.3c0.7-0.6,1.6-0.5,2.2,0.2c0,0,0,0,0,0l6.5,7.9c0.6,0.7,0.5,1.7-0.2,2.2c-0.7,0.6-1.6,0.5-2.2-0.2c0,0,0,0,0,0
		l-6.5-7.9C950.8,2747.9,950.9,2746.9,951.6,2746.3z"/>
</g>
</svg>
