<svg xmlns="http://www.w3.org/2000/svg" viewBox="0 0 242.42 88.11"><defs><style>.cls-1,.cls-2{fill:#4a4a49;stroke:#4a4a49;}.cls-1{stroke-width:0.49px;}.cls-2{stroke-width:0.49px;}.cls-3,.cls-4{fill:#fff;}.cls-3{stroke:#fff;stroke-width:1.04px;}</style></defs><title>Fichier 2</title><g id="Calque_2" data-name="Calque 2"><g id="Calque_1-2" data-name="Calque 1"><path class="cls-1" d="M23.65,79.54a33.22,33.22,0,0,1-4.7,1.72,18,18,0,0,1-10.55-.11A11.55,11.55,0,0,1,4,78.61a11.39,11.39,0,0,1-2.8-4.28,16.67,16.67,0,0,1-1-6q0-6.3,3.68-9.94T14,54.75a20.37,20.37,0,0,1,4.58.54,24.69,24.69,0,0,1,5,1.83v4.14h-.32q-.55-.42-1.59-1.11a15,15,0,0,0-2-1.15,15.21,15.21,0,0,0-2.76-.91,15.42,15.42,0,0,0-3.5-.36,8.94,8.94,0,0,0-7,2.83,11,11,0,0,0-2.57,7.66q0,5.1,2.68,7.93A9.57,9.57,0,0,0,13.86,79a17.26,17.26,0,0,0,3.38-.34,15.63,15.63,0,0,0,3-.86V71.34h-7V68.27H23.65Z"/><path class="cls-1" d="M46,72H31.46A8.4,8.4,0,0,0,32,75.14a5.85,5.85,0,0,0,3.68,3.48,8.68,8.68,0,0,0,2.78.42,11,11,0,0,0,4-.8,10,10,0,0,0,2.9-1.58h.18v3.61a27.31,27.31,0,0,1-3.42,1.18,13.88,13.88,0,0,1-3.67.48q-4.9,0-7.65-2.65t-2.75-7.54a10.83,10.83,0,0,1,2.64-7.67,9,9,0,0,1,6.94-2.84,8,8,0,0,1,6.15,2.33A9.36,9.36,0,0,1,46,70.18Zm-3.23-2.54a5.86,5.86,0,0,0-1.31-4A5.06,5.06,0,0,0,37.49,64a5.75,5.75,0,0,0-4.24,1.57,6.09,6.09,0,0,0-1.79,3.9Z"/><path class="cls-1" d="M63.29,65.4h-.18a12.17,12.17,0,0,0-1.44-.26A14.79,14.79,0,0,0,60,65.07a6.82,6.82,0,0,0-3,.68,13.65,13.65,0,0,0-2.75,1.75v14H51V61.79h3.32v2.91a16.26,16.26,0,0,1,3.48-2.25,7.59,7.59,0,0,1,3.08-.66,12.51,12.51,0,0,1,1.25,0l1.16.17Z"/><path class="cls-1" d="M80.48,75.8a5.36,5.36,0,0,1-2.23,4.43A9.71,9.71,0,0,1,72.16,82a14.61,14.61,0,0,1-4-.52,17.84,17.84,0,0,1-3.06-1.14V76.58h.18a13.29,13.29,0,0,0,3.49,1.88,10.8,10.8,0,0,0,3.69.7,6.93,6.93,0,0,0,3.42-.71,2.38,2.38,0,0,0,1.23-2.22,2.24,2.24,0,0,0-.67-1.76,6,6,0,0,0-2.57-1q-.71-.16-1.84-.37t-2.07-.46a6.88,6.88,0,0,1-3.68-2,5,5,0,0,1-1.08-3.27,5.35,5.35,0,0,1,.5-2.29,5.54,5.54,0,0,1,1.53-1.92,7.31,7.31,0,0,1,2.51-1.31,11.23,11.23,0,0,1,3.41-.48,15.34,15.34,0,0,1,3.57.43,13.5,13.5,0,0,1,3,1v3.54h-.18a11.87,11.87,0,0,0-3.09-1.58,10.62,10.62,0,0,0-3.56-.64,6.23,6.23,0,0,0-3.07.7,2.45,2.45,0,0,0-.49,3.91,5.91,5.91,0,0,0,2.4,1q.92.21,2.05.42t1.9.39a7,7,0,0,1,3.56,1.82A4.78,4.78,0,0,1,80.48,75.8Z"/><path class="cls-2" d="M93,79.05a7.23,7.23,0,0,0,5.59,2.3,10.33,10.33,0,0,0,6.84-2.64q.4-.34.76-.7l1.77.68a14.75,14.75,0,0,1-1.41,1.37,12.51,12.51,0,0,1-8.29,3.2,8.77,8.77,0,0,1-7.14-3.2,9.09,9.09,0,0,1-1.84-7.73,12.84,12.84,0,0,1,4.56-7.71,12.49,12.49,0,0,1,8.27-3.2,9,9,0,0,1,6.36,2.32,11.09,11.09,0,0,1,.8.87l.27.36-1.59,1.35Zm13.86-13.93a7.37,7.37,0,0,0-5.09-1.79A10.32,10.32,0,0,0,94.92,66a10.59,10.59,0,0,0-3.76,6.37,7.66,7.66,0,0,0,.84,5.4Z"/><path class="cls-2" d="M123.39,87.87h-1.24L123.55,80a12.12,12.12,0,0,1-.95.92,8.66,8.66,0,0,1-5.74,2.21,6.07,6.07,0,0,1-4.95-2.21,6.28,6.28,0,0,1-1.27-5.34,8.88,8.88,0,0,1,3.16-5.34A8.66,8.66,0,0,1,119.52,68a6.11,6.11,0,0,1,5,2.2,7.25,7.25,0,0,1,.62.92l.34-1.91h1.24Zm.72-11.1.43-2.45a5.05,5.05,0,0,0-5.25-5,7.15,7.15,0,0,0-4.74,1.83,7.35,7.35,0,0,0-2.61,4.42A5.2,5.2,0,0,0,113,80a5,5,0,0,0,4.09,1.83A7.15,7.15,0,0,0,121.83,80,7.58,7.58,0,0,0,124.11,76.77Z"/><path class="cls-2" d="M134,82.9a4.28,4.28,0,0,1-4.64-5.28l1.49-8.45h1.24l-1.47,8.34a3.38,3.38,0,0,0,.74,2.93,3.51,3.51,0,0,0,2.85,1.22,5.24,5.24,0,0,0,4.93-4.15l1.47-8.34h1.24l-1.49,8.45a6.44,6.44,0,0,1-2.21,3.78A6.2,6.2,0,0,1,134,82.9Z"/><path class="cls-2" d="M147.44,69.2l-2.38,13.51h-1.24L146.2,69.2Zm1-4.43a1,1,0,0,1,.21.87,1.45,1.45,0,0,1-.52.88,1.43,1.43,0,0,1-.94.36,1,1,0,0,1-.81-.36,1,1,0,0,1-.21-.88,1.54,1.54,0,0,1,1.45-1.22A1,1,0,0,1,148.47,64.77Z"/><path class="cls-2" d="M151.84,69.2h1.24l-.33,1.9a10.28,10.28,0,0,1,.94-.91,8.67,8.67,0,0,1,5.73-2.2,6.08,6.08,0,0,1,5,2.21,6.29,6.29,0,0,1,1.27,5.34,8.9,8.9,0,0,1-3.15,5.34,8.64,8.64,0,0,1-5.73,2.21A6.13,6.13,0,0,1,151.18,80l-1.39,7.9h-1.24Zm.35,5-.46,2.59A5,5,0,0,0,152.89,80,5,5,0,0,0,157,81.79,7.15,7.15,0,0,0,161.72,80a7.36,7.36,0,0,0,2.61-4.42,5.2,5.2,0,0,0-1.05-4.42,5,5,0,0,0-4.09-1.83,7.15,7.15,0,0,0-4.74,1.83A7.6,7.6,0,0,0,152.19,74.25Z"/><path class="cls-2" d="M170.83,80.18a5,5,0,0,0,3.87,1.6,7.15,7.15,0,0,0,4.74-1.83q.27-.23.53-.48l1.22.47a10.21,10.21,0,0,1-1,.95,8.67,8.67,0,0,1-5.74,2.21,6.07,6.07,0,0,1-4.95-2.21,6.3,6.3,0,0,1-1.27-5.35,8.89,8.89,0,0,1,3.16-5.34A8.65,8.65,0,0,1,177.13,68a6.2,6.2,0,0,1,4.41,1.61,7.58,7.58,0,0,1,.55.61l.19.25-1.1.94Zm9.6-9.64a5.1,5.1,0,0,0-3.52-1.24,7.15,7.15,0,0,0-4.72,1.82,7.33,7.33,0,0,0-2.61,4.41,5.31,5.31,0,0,0,.58,3.74Z"/><path class="cls-2" d="M186.38,69.2h1.24l-.06.32a4.56,4.56,0,0,1,3-1.11,3.22,3.22,0,0,1,2.63,1.17,3.08,3.08,0,0,1,.43.69,5.61,5.61,0,0,1,.69-.69,4.59,4.59,0,0,1,3-1.17,3.22,3.22,0,0,1,2.63,1.17,3.37,3.37,0,0,1,.69,2.71l-1.84,10.43h-1.24l1.84-10.43h0a2.3,2.3,0,0,0-.49-1.83,2.26,2.26,0,0,0-1.82-.81,3.19,3.19,0,0,0-2.1.81,3.33,3.33,0,0,0-1.17,2L192,82.71h-1.24l1.84-10.43h0a2.3,2.3,0,0,0-.49-1.83,2.26,2.26,0,0,0-1.82-.81,3.17,3.17,0,0,0-2.1.81,3.33,3.33,0,0,0-1.11,1.72l-1.86,10.54H184Z"/><path class="cls-2" d="M205.93,80.18a5,5,0,0,0,3.87,1.6,7.15,7.15,0,0,0,4.74-1.83q.27-.23.53-.48l1.22.47a10.17,10.17,0,0,1-1,.95,8.67,8.67,0,0,1-5.74,2.21,6.07,6.07,0,0,1-4.95-2.21,6.3,6.3,0,0,1-1.27-5.35,8.89,8.89,0,0,1,3.16-5.34A8.65,8.65,0,0,1,212.24,68a6.2,6.2,0,0,1,4.41,1.61,7.58,7.58,0,0,1,.55.61l.19.25-1.1.94Zm9.6-9.64A5.1,5.1,0,0,0,212,69.3a7.15,7.15,0,0,0-4.72,1.82,7.33,7.33,0,0,0-2.61,4.41,5.31,5.31,0,0,0,.58,3.74Z"/><path class="cls-2" d="M222.19,72.21l-1.85,10.5H219.1l2.38-13.51h1.24l-.15.87a6.46,6.46,0,0,1,4.23-1.68,4.43,4.43,0,0,1,3.63,1.5,4.56,4.56,0,0,1,.87,3.78l-1.59,9h-1.24L230,73.78a3.43,3.43,0,0,0-3.46-4.15,4.85,4.85,0,0,0-3.15,1.2A6,6,0,0,0,222.19,72.21Z"/><path class="cls-2" d="M238.14,69.2l1-5.75h1.24l-1,5.75h2.75l-.22,1.24h-2.75L237,82.71h-1.24l2.16-12.27h-2.75l.22-1.24Z"/><polygon class="cls-1" points="90.3 15.07 135.72 0.31 152.08 50.96 101.87 50.96 90.3 15.07"/><path class="cls-3" d="M123.45,43.18a38.78,38.78,0,0,1-5.49,2,21.07,21.07,0,0,1-12.32-.13,13.48,13.48,0,0,1-5.08-3,13.29,13.29,0,0,1-3.27-5,19.45,19.45,0,0,1-1.15-7q0-7.35,4.29-11.6t11.78-4.25a23.78,23.78,0,0,1,5.34.63A28.82,28.82,0,0,1,123.43,17v4.84h-.37q-.64-.49-1.85-1.3a17.57,17.57,0,0,0-2.39-1.34,17.75,17.75,0,0,0-3.22-1.06,18,18,0,0,0-4.09-.42,10.44,10.44,0,0,0-8.14,3.3q-3,3.3-3,8.94,0,5.95,3.13,9.25a11.17,11.17,0,0,0,8.52,3.3,20.15,20.15,0,0,0,3.94-.39,18.25,18.25,0,0,0,3.45-1V33.61h-8.21V30h12.25Z"/><path class="cls-4" d="M127.74,41a7.56,7.56,0,0,0,5.84,2.41,10.79,10.79,0,0,0,7.15-2.76q.42-.35.79-.73l1.85.71a15.41,15.41,0,0,1-1.48,1.43,13.08,13.08,0,0,1-8.66,3.34,9.16,9.16,0,0,1-7.47-3.34A9.5,9.5,0,0,1,123.85,34a13.42,13.42,0,0,1,4.76-8.05,13.05,13.05,0,0,1,8.64-3.34A9.36,9.36,0,0,1,143.91,25a11.59,11.59,0,0,1,.84.91l.29.37-1.66,1.41Zm14.48-14.55a7.7,7.7,0,0,0-5.32-1.87,10.79,10.79,0,0,0-7.13,2.75A11.06,11.06,0,0,0,125.84,34a8,8,0,0,0,.87,5.65Z"/></g></g></svg>