<svg xmlns="http://www.w3.org/2000/svg" width="270.535" height="68.167" viewBox="0 0 270.535 68.167"><defs><style>.a{fill:#0f0b0c;}.b,.c{fill:#fff;}.c{font-size:18px;font-family:MyriadPro-Regular, Myriad Pro;}.d{fill:none;}</style></defs><g transform="translate(0 0)"><path class="a" d="M.162,0,0,68.164H270.535V2.477Z"/><path class="b" d="M28.039,33.428H20.822l6.215-30.96h7.217Z" transform="translate(104.088 12.34)"/><path class="b" d="M45.239,8.862H38.148L33.235,33.433H26.018L30.931,8.862H23.541l1.3-6.395h21.7Z" transform="translate(117.676 12.336)"/><path class="b" d="M50.787,33.433l-.432-4.871H41.177l-2.388,4.871h-7.7L47.962,2.467h5.609l4.565,30.966ZM48.832,13.559l-4.7,9.13h5.651Z" transform="translate(155.399 12.334)"/><path class="b" d="M63.774,33.428H56.557l2.8-15.261-5.525,7.649H49.227L46.4,18.167,43.312,33.428H36.089L42.31,2.468h6.737l3.965,13.653L62.664,2.468h7.085Z" transform="translate(180.404 12.34)"/><path class="b" d="M15.243,23.465c.138-8.782,9.04-16.479,22.862-21.41C22.981,6.776,13.1,14.581,12.951,23.567,12.789,33.849,25.429,43,44.229,47.94,26.695,42.727,15.081,33.633,15.243,23.465" transform="translate(64.734 10.275)"/><path class="b" d="M115.7,40.617a95.892,95.892,0,0,1-15.273,3.773,129.656,129.656,0,0,1-23.233,1.662c-33.767-.54-60.936-13.173-60.7-28.219.09-5.585,3.947-10.72,10.492-14.937-8.2,4.493-13.137,10.24-13.239,16.569-.234,14.565,25.237,26.875,57.5,28.129,1.056.042,2.118.072,3.191.09a126.7,126.7,0,0,0,27.1-2.376c9.694-1.974,17.966-5.075,23.971-8.944a62.665,62.665,0,0,1-9.82,4.253" transform="translate(68.713 14.479)"/><path class="b" d="M37.774,10.732c-1.3-1.608-3-2-5.045-2-2.957,0-4.655,1.824-4.655,3.389,0,1.65,1.392,2,2.657,2.346l2.346.612c5.435,1.392,7.223,3.911,7.223,8.35,0,7.481-6.221,10.48-12.832,10.48-5.177,0-8.26-1.176-10.96-4.265l5.219-4.565c1.524,1.74,3.7,2.436,6.395,2.436,2.825,0,4.913-1.566,4.913-3.347,0-1.65-.912-2.22-2.609-2.651l-2.352-.612c-6.257-1.608-7.217-5.219-7.217-7.607,0-6.785,5.261-10.876,12.7-10.876,3.869,0,7.307,1.35,9.262,3.875Z" transform="translate(82.521 12.119)"/><path class="b" d="M28.039,33.428H20.822l6.215-30.96h7.217Z" transform="translate(104.088 12.34)"/><path class="b" d="M45.239,8.862H38.148L33.235,33.433H26.018L30.931,8.862H23.541l1.3-6.395h21.7Z" transform="translate(117.677 12.336)"/><path class="b" d="M46.45,20.776l4.133,12.652H42.671l-3.263-11.74H36.666l-2.388,11.74H27.056l6.221-30.96h11c6.479,0,8.872,4.175,8.872,8.956a10.313,10.313,0,0,1-6.7,9.352M43.061,8.9H39.234l-1.392,6.785h3.785a3.9,3.9,0,0,0,4.259-3.869A2.593,2.593,0,0,0,43.061,8.9" transform="translate(135.248 12.339)"/><path class="b" d="M50.787,33.433l-.432-4.871H41.177l-2.388,4.871h-7.7L47.962,2.467h5.609l4.565,30.966ZM48.832,13.559l-4.7,9.13h5.651Z" transform="translate(155.399 12.334)"/><path class="b" d="M63.774,33.428H56.557l2.8-15.261-5.525,7.649H49.227L46.4,18.167,43.312,33.428H36.089L42.31,2.468h6.737l3.965,13.653L62.664,2.468h7.085Z" transform="translate(180.404 12.34)"/><path class="b" d="M11.444,3.134,8.264,15.864l.1.036a10.637,10.637,0,0,1,8.632-4.445c5.123,0,6.875,3.419,6.875,6.647,0,5.393-5.171,12.424-13.611,12.424C7.13,30.525,3.9,29.5,3.9,26.08a15.483,15.483,0,0,1,.336-2.544l5.069-20.4ZM6.369,23.458a8.565,8.565,0,0,0-.33,2.472c0,2.016,1.422,3.113,4.409,3.113,7.163,0,11.236-6.383,11.236-10.978,0-2.585-1.422-5.129-5.213-5.129-3.983,0-8.158,3.341-9.532,8.278Z" transform="translate(19.51 15.668)"/><path class="b" d="M14,4.59l2.789,10.978c.576,2.244.906,3.611,1.188,5.093h.144c.66-1.218,1.422-2.55,2.651-4.6L27.7,4.59h2.28L21.161,18.909c-2.088,3.419-4.127,6.539-7.259,9.082a15.229,15.229,0,0,1-6.2,3.191L7.076,29.7a16.183,16.183,0,0,0,4.367-1.98,16.8,16.8,0,0,0,4.829-4.859.846.846,0,0,0,.15-.8L11.821,4.59Z" transform="translate(35.372 22.947)"/><text class="c" transform="translate(69 27.457)"><tspan x="-3.735" y="0">*</tspan></text><rect class="d" width="270.535" height="68.165" transform="translate(0 0.002)"/></g></svg>