<svg xmlns="http://www.w3.org/2000/svg" width="452.886" height="241.264" viewBox="0 0 452.886 241.264"><g transform="translate(-188 -534.864)"><path d="M187.623,99.864c-.227,1.481-.491,2.961-.669,4.449-.085.728.319,1.122,1.011.692,1.51-.938,2.965-1.961,4.454-2.932a21.947,21.947,0,0,1,2.852-1.774,4.333,4.333,0,0,1,5.831,1.713,7.282,7.282,0,0,1,.95,1.722c.5,1.519.8,3.041,3.043,2.854.879-.071,1.276,1.092.907,1.968a4.589,4.589,0,0,1-4.321,2.63,3.41,3.41,0,0,1-3.61-2.535c-.2-.527-.366-1.068-.569-1.592-.754-1.947-1.307-2.1-3.076-.8-1.739,1.278-3.421,2.634-5.189,3.87a15.032,15.032,0,0,1-6.008,2.979c-1.885.314-2.653-.09-3-1.985-.236-1.283-.118-2.625-.224-3.936-.09-1.094-.529-1.342-1.441-.69-1.524,1.087-2.987,2.268-4.425,3.471-3.74,3.124-7.445,6.294-11.19,9.416-1.011.841-2.141,1.824-3.506.8-1.255-.943-1.056-2.327-.562-3.613,1.009-2.623,2.039-5.241,3.138-7.828.808-1.9,1.758-3.743,2.594-5.633a2.737,2.737,0,0,0-.017-1.08,2.88,2.88,0,0,0-.95.241c-1.694,1.179-3.435,2.306-5.026,3.617-7.235,5.966-14.368,12.055-21.647,17.962-4,3.246-8.218,6.228-12.352,9.314a6.723,6.723,0,0,1-1.46.808c-.324.132-.962.234-1.018.12a1.632,1.632,0,0,1-.224-1.257c1.472-2.729,2.866-5.515,4.562-8.1,7.036-10.684,14.817-20.832,22.8-30.82,5.916-7.41,12.033-14.663,18.122-21.936,8.274-9.888,17.744-18.644,26.666-27.923,6.181-6.427,12.423-12.8,18.522-19.3,4.234-4.52,8.289-9.212,12.381-13.869a29.557,29.557,0,0,0,2.259-3.23c.139-.213.229-.7.13-.777-.262-.2-.711-.406-.966-.3-2.086.839-4.189,1.652-6.2,2.651q-7.049,3.509-14.013,7.187c-4.059,2.141-8.071,4.371-12.088,6.585-5.586,3.076-11.188,6.122-16.726,9.278-5.945,3.386-11.84,6.857-17.728,10.339q-7.868,4.653-15.667,9.423-4.682,2.853-9.279,5.843c-5.9,3.839-11.788,7.679-17.617,11.613-7.308,4.929-14.507,10.016-21.836,14.914-6.623,4.43-13.368,8.683-20.043,13.04-5.5,3.587-10.94,7.254-16.454,10.81s-11.1,6.994-16.636,10.512-11.017,7.14-16.594,10.6C18.1,133.975,10.62,138.464,3.171,143a4.22,4.22,0,0,1-1.489.758,1.809,1.809,0,0,1-1.448-.461,1.55,1.55,0,0,1-.076-1.489,25.888,25.888,0,0,1,3.851-3.216c6.779-4.366,13.616-8.648,20.431-12.96,4.754-3.01,9.524-6,14.262-9.042,5.517-3.544,11.013-7.131,16.511-10.708q6.844-4.448,13.668-8.915,8.017-5.22,16.041-10.434,7.535-4.919,15.051-9.867c3.837-2.528,7.641-5.106,11.488-7.617q8.832-5.766,17.7-11.466c6.793-4.347,13.586-8.7,20.44-12.95,5.9-3.655,11.856-7.209,17.822-10.748,7.495-4.447,14.961-8.95,22.557-13.217q11.27-6.337,22.786-12.23c5.165-2.653,10.488-5.007,15.778-7.412a13.842,13.842,0,0,1,3.528-.929c1.911-.312,2.467.087,2.346,2.063a13.715,13.715,0,0,1-1.073,4.586,35.635,35.635,0,0,1-7.065,9.8c-9.137,9.72-18.4,19.318-27.566,29.015-7.48,7.915-15.036,15.774-22.288,23.9-8.185,9.177-16.173,18.538-24.039,27.994-4.137,4.971-7.833,10.309-11.712,15.49a6.893,6.893,0,0,0-.836,1.46,3.106,3.106,0,0,0-.1.995,2.9,2.9,0,0,0,.756-.286c2.4-1.807,4.8-3.606,7.154-5.46,6.564-5.165,13.08-10.387,19.677-15.509a25.32,25.32,0,0,1,4.385-2.512c1.288-.633,2.341.071,2.167,1.491a14.282,14.282,0,0,1-1.007,3.506c-1.092,2.7-2.285,5.356-3.424,8.033a5.835,5.835,0,0,0-.546,1.588,6.548,6.548,0,0,0,.217,1.6,5.4,5.4,0,0,0,1.245-.465c1.767-1.224,3.551-2.431,5.236-3.761,2.207-1.744,4.312-3.615,6.49-5.394a9.941,9.941,0,0,1,2.1-1.37c1.954-.891,3.043-.25,3.3,1.862a9.477,9.477,0,0,1,.007,1.129c.04.007.078.012.12.017" transform="translate(188 534.864)" fill="#1a1818"/><path d="M145.722,64.7a47.157,47.157,0,0,1,2.226-6.62,44.363,44.363,0,0,1,15.889-17.9,17.108,17.108,0,0,1,4.39-1.883,3.985,3.985,0,0,1,5.1,4.725,8.841,8.841,0,0,1-1.132,2.864q-2.389,3.821-4.981,7.516a25.493,25.493,0,0,0-4.109,7.986,7.556,7.556,0,0,0-.336,1.647c-.021.673.376,1.125,1.063.789a11.1,11.1,0,0,0,2.105-1.37c6.526-5.288,12.033-11.563,17.425-17.952a12.278,12.278,0,0,1,2.757-2.771,8.1,8.1,0,0,1,3.714-1.023c1.505-.061,1.715.617.77,1.9-1.727,2.341-3.49,4.655-5.2,7.006a8.239,8.239,0,0,0-1.077,1.971,7.649,7.649,0,0,0-.229,1.772,5.726,5.726,0,0,0,1.817-.593,53.5,53.5,0,0,0,8.976-8.506,15.213,15.213,0,0,1,2.032-2.337,5.486,5.486,0,0,1,2.453-1.212c1.243-.2,1.864.815,1.37,2.018a11.029,11.029,0,0,1-.843,1.46c-2.668,4.425-5.385,8.822-7.972,13.3a15.325,15.325,0,0,0-1.425,3.96c-.312,1.243.328,2,1.5,1.6a19.543,19.543,0,0,0,4.952-2.509,10.4,10.4,0,0,0,2.987-3.331,92.039,92.039,0,0,1,6.533-9.416,35.164,35.164,0,0,1,9.262-8.964c1.8-1.17,3.381-1.46,5.108.017a3.908,3.908,0,0,0,3.459.714c1.855-.343,2.285.035,1.737,1.829a15.439,15.439,0,0,1-2.084,4.253c-1.93,2.774-4.151,5.349-6.039,8.149a37.948,37.948,0,0,0-2.767,5.505c-.149.326.106.839.175,1.266a3.952,3.952,0,0,0,1.292-.248c3.686-2.167,6.592-5.236,9.458-8.331,3.57-3.856,7.05-7.795,10.606-11.665a11.194,11.194,0,0,1,2.54-2.193,2.653,2.653,0,0,1,2.271-.248,2.575,2.575,0,0,1,.586,2.223,36.746,36.746,0,0,1-1.678,5.056c-.581,1.486-1.328,2.906-1.949,4.376a8.521,8.521,0,0,0-.52,1.885,3.717,3.717,0,0,0,.139,1.1,3.5,3.5,0,0,0,.936-.416c1.205-1.042,2.434-2.067,3.549-3.2,2.044-2.074,3.953-4.284,6.044-6.306a8.072,8.072,0,0,1,3.053-1.885c1.85-.584,2.984.546,2.564,2.415a16.113,16.113,0,0,1-1.066,2.9c-2.419,5.47-6.077,10.124-9.758,14.765-1.867,2.353-3.648,4.775-5.562,7.088-.487.591-1.694,1.4-1.945,1.224-.957-.673-.39-1.689.054-2.5,1.214-2.223,2.526-4.395,3.726-6.625.737-1.368,1.824-2.663,1.328-4.414-1.177.917-2.372,1.808-3.523,2.755-1.3,1.07-2.469,2.323-3.858,3.251-1.028.685-2.228,1.678-3.615.714-1.489-1.037-.808-2.566-.624-3.884a31.48,31.48,0,0,1,.95-3.237c.066-.265-.206-.617-.321-.929a2.155,2.155,0,0,0-.747.293c-1.484,1.441-2.9,2.951-4.418,4.359-1.992,1.852-3.977,3.726-6.1,5.415a7.225,7.225,0,0,1-9.957-.357c-.822-.74-1.394-.8-2.122-.028a6.043,6.043,0,0,1-5.3,2.063,3.332,3.332,0,0,1-1.876-.983c-1.262-1.375-1.746-1.607-3.18-.81-1.148.638-2.228,1.4-3.324,2.119-.312.206-.56.515-.877.706-3.074,1.867-5.028.992-5.517-2.526a17.1,17.1,0,0,1,.05-2.8,30.13,30.13,0,0,0,.061-3.1c-.069-.914-.659-1.056-1.356-.52-.891.685-1.708,1.474-2.63,2.108a44.286,44.286,0,0,1-4.281,2.684c-1.259.666-2.186.465-2.793-.869a1.548,1.548,0,0,0-2.23-.938,7.815,7.815,0,0,0-2.62,1.583c-1.226,1.158-2.245,2.533-3.414,3.754a25.033,25.033,0,0,1-3.636,3.483c-2.592,1.786-5.307.716-6.391-2.315-.86-2.4-2.041-2.729-4.047-1.115-.581.468-1.139.966-1.725,1.429a3.461,3.461,0,0,1-3.943.543c-1.559-.763-1.689-2.122-1.9-3.7m5.782-1.76a46.4,46.4,0,0,0,4.716-3.048,46.965,46.965,0,0,0,10.968-14.167,10.532,10.532,0,0,0,.628-2.245c-.8.149-1.6.272-2.386.456a2.568,2.568,0,0,0-.718.428,38.256,38.256,0,0,0-12.393,13.609,17.224,17.224,0,0,0-1.394,3.376c-.106.343.288.841.579,1.59m53.053-5.21c-.161,1.585.43,2.119,1.626,1.763a4.478,4.478,0,0,0,1.51-.74A41.451,41.451,0,0,0,218.78,45.862c.565-1.085,1.491-2.32.312-3.3-1.094-.91-2.294-.1-3.265.732-.142.12-.331.187-.468.31a48.93,48.93,0,0,0-10.091,12.364,12.724,12.724,0,0,0-.711,1.765" transform="translate(386.582 586.236)" fill="#1a1818"/><path d="M106.833,229.99a6.779,6.779,0,0,1-1.4-.151c-.711-.229-1.151-.706-.673-1.484a18.431,18.431,0,0,1,1.3-1.838c10.091-12.624,19.469-25.778,28.79-38.966,5.588-7.906,10.885-16.019,16.284-24.06,4.506-6.71,9.04-13.4,13.439-20.183q11.745-18.107,23.334-36.318c7.731-12.133,15.308-24.362,23.079-36.469,8.837-13.77,18.529-26.942,28.4-39.982a149.14,149.14,0,0,1,14.316-16.62,29.945,29.945,0,0,1,6.75-4.957,6.251,6.251,0,0,1,1.838-.7c.659-.116,1.158.265.832.983a6.481,6.481,0,0,1-1.238,1.857c-1.623,1.654-3.31,3.249-4.983,4.858a111.4,111.4,0,0,0-12.518,14.491c-6.174,8.414-12.5,16.719-18.446,25.293-6.375,9.191-12.506,18.559-18.519,27.994-9.749,15.3-19.294,30.735-28.97,46.083-2.757,4.371-5.668,8.648-8.513,12.962-.506.77-1.486,1.659-.721,2.45a3.411,3.411,0,0,0,2.632.376c6.271-1.174,12.478-2.616,18.621-4.369,3.693-1.051,7.49-1.741,11.225-2.66,5.463-1.344,10.9-2.767,16.364-4.121,5.916-1.465,11.844-2.883,17.763-4.338,1.453-.359,2.883-.818,4.336-1.174a3.3,3.3,0,0,1,1.377,0c.213.043.411.35.527.581.045.087-.128.347-.262.447a2.544,2.544,0,0,1-.744.378q-8.612,2.63-17.231,5.243c-5.285,1.611-10.55,3.3-15.861,4.825-3.516,1.007-7.1,1.763-10.647,2.663-6.911,1.753-13.81,3.544-20.724,5.293-3.18.8-6.356,1.67-9.579,2.259a6.272,6.272,0,0,0-4.288,2.88q-4.852,7.092-9.742,14.16c-7.195,10.339-14.363,20.7-21.633,30.985-6.847,9.687-13.822,19.282-20.714,28.937-.962,1.347-1.85,2.682-3.811,2.393" transform="translate(330.493 546.099)" fill="#1a1818"/><path d="M90.169,93.071c.4-3.532,2.228-6.337,4.567-8.867a26.156,26.156,0,0,1,8.9-5.822c.818-.366,2-.983,2.585-.054.688,1.082-.593,1.6-1.307,2.108-2.828,2.025-5.8,3.9-7.551,7.046a9.963,9.963,0,0,0-1.035,2.866,1.007,1.007,0,0,0,1.337,1.264,9.391,9.391,0,0,0,2.807-1.184c5.817-3.856,10.89-8.607,16.022-13.3a212.176,212.176,0,0,0,17.149-17.9A106.275,106.275,0,0,0,144.2,44.968q7.553-12.408,15.266-24.717a27.85,27.85,0,0,1,3.258-4.213c.936-1,1.725-.758,2.49.39.94,1.406.439,2.746-.25,3.986-1.136,2.056-2.377,4.059-3.629,6.049-3.906,6.2-7.939,12.331-11.736,18.6-3.745,6.188-7.294,12.494-10.862,18.786a47.774,47.774,0,0,0-2.816,5.829c-.78,1.949-.664,2,1.255,2.93.168.083.336.172.5.258,2.866,1.474,3.62,3.166,2.7,6.219-.784,2.6-1.628,5.177-2.445,7.762a2.269,2.269,0,0,1-.1.265c-.411.921-.645,2.214-1.952,2.034a2.7,2.7,0,0,1-2.339-2.183,6.575,6.575,0,0,1,.165-2.736c.317-1.174.9-2.271,1.321-3.419a1.739,1.739,0,0,0-.645-2.249,1.886,1.886,0,0,0-2.33.293c-2.02,1.68-3.034,4.045-4.352,6.2-.489.8-.832,1.694-1.361,2.464-.888,1.29-1.746,1.576-2.847,1.1a2.67,2.67,0,0,1-1.819-2.861,6.962,6.962,0,0,1,.891-2.334c2.169-3.743,4.4-7.447,6.585-11.181,1-1.7,1.994-3.414,2.883-5.174a10.334,10.334,0,0,0,.576-2.287,12.048,12.048,0,0,0-1.781,1.233q-4.5,4.466-8.938,9c-3.731,3.828-7.386,7.731-11.147,11.528a60.592,60.592,0,0,1-9.869,8.34A20.534,20.534,0,0,1,95.745,97.2a4.617,4.617,0,0,1-5.576-4.128" transform="translate(310.877 555.864)" fill="#1a1818"/><path d="M120.414,95.106c1.713-5.063,3.4-10.436,5.349-15.712,2.616-7.1,6.788-13.406,10.543-19.923,1.361-2.36,2.625-4.775,3.932-7.166a3.369,3.369,0,0,0,.51-1,2.947,2.947,0,0,0-.087-1.557c-.08-.18-.886-.182-1.281-.04-1.318.47-2.592,1.075-3.906,1.564-.48.177-1.252.4-1.493.182a1.857,1.857,0,0,1-.319-1.541,5.043,5.043,0,0,1,3.591-3.969c1.89-.548,3.773-1.146,5.692-1.569a11.155,11.155,0,0,0,6.535-4.6q8.587-11.348,17.128-22.732a25.569,25.569,0,0,1,7.287-6.134,7.322,7.322,0,0,1,2.66-.891c1.687-.269,2.845.917,2.289,2.547a29.1,29.1,0,0,1-2.682,5.871c-2.828,4.584-6.594,8.4-10.45,12.128-3.648,3.528-7.551,6.852-10.8,10.722C150.7,46.313,146.9,51.707,143.146,57.1c-8.088,11.615-14.122,24.386-20.492,36.963-.3.588-.548,1.2-.9,1.758a3.745,3.745,0,0,1-.813.7c-.125-.333-.248-.664-.529-1.415" transform="translate(352.094 548.461)" fill="#1a1818"/><path d="M104.758,77.972a9.163,9.163,0,0,1-2.658-.985c-.5-.385.709-1.992,2.171-2.538a16.493,16.493,0,0,1,3.561-.806c4.834-.662,9.675-1.278,14.519-1.893,7.634-.969,15.259-2.015,22.912-2.8,1.448-.149,3.013.775,4.506,1.255.061.021.04.763-.09.82a6.616,6.616,0,0,1-1.623.4q-8.5,1.262-16.993,2.5c-6.316.91-12.641,1.767-18.954,2.705-2.408.357-4.792.867-7.35,1.337" transform="translate(326.98 628.811)" fill="#1a1818"/><path d="M113.35,51.619a17.355,17.355,0,0,1,5.841-10.7,3.758,3.758,0,0,1,3.981-.6A2.471,2.471,0,0,1,124.6,42.86c-.045,1.633-1.205,2.448-2.547,3.034-.6.262-1.262.383-1.857.65a4.727,4.727,0,0,0-2.84,3.6c-.276,1.444.161,1.878,1.67,1.6.919-.168,1.805-.5,2.717-.706a2.321,2.321,0,0,1,.787.106,1.993,1.993,0,0,1-.132.754,10.018,10.018,0,0,1-5.756,3.785c-1.711.522-3.305-1.307-3.294-4.059" transform="translate(342.467 589.375)" fill="#1a1818"/><path d="M95.133,33.849a1.187,1.187,0,0,1-1.68,1.158,46.723,46.723,0,0,1-5.139-2.7c-.187-.106-.246-.695-.151-.992a3.3,3.3,0,0,1,2.854-1.93c1.767.017,4.161,2.533,4.116,4.466" transform="translate(308.083 574.906)" fill="#1a1818"/></g></svg>