<svg xmlns="http://www.w3.org/2000/svg" viewBox="0 0 773.2 646.84"><title>Plan de travail 1</title><path d="M662.11,97.33C588.64,34.56,490.8,0,386.6,0s-202,34.56-275.51,97.33C39.46,158.53,0,238.83,0,323.37S39.46,488.28,111.09,549.49c73.47,62.77,171.3,97.35,275.51,97.35s202-34.58,275.51-97.35C733.75,488.28,773.2,408,773.2,323.37s-39.45-164.84-111.09-226m97.16,248.55c-.35,4-.82,7.94-1.36,11.9L749.22,356c-.59,3.74-1,7.53-1.74,11.23l8.52,2.34c-.73,3.89-1.53,7.78-2.44,11.64l-8.38-2.9c-.8,3.68-1.91,7.27-2.84,10.9l8.24,3.45c-1.07,3.77-2.2,7.52-3.44,11.24l-8.08-4c-1.21,3.52-2.24,7.13-3.69,10.52l7.82,4.44c-1.38,3.59-2.82,7.17-4.36,10.72l-7.54-4.82-4.62,10,7.36,5.28q-2.46,5.12-5.16,10.15l-7.14-5.65c-1.72,3.2-3.33,6.5-5.26,9.53l6.87,6c-1.89,3.22-3.83,6.4-5.85,9.57l-6.59-6.24-6,8.91,6.39,6.56c-2.09,3-4.22,6-6.44,8.95L698.72,477l-6.43,8.48,5.86,7q-3.39,4.2-6.95,8.33l-5.66-7.22c-2.2,2.73-4.61,5.25-7,7.82l5.46,7.45c-2.4,2.61-4.88,5.18-7.39,7.73L671.46,509l-7.37,7.27,5,7.74q-3.8,3.63-7.73,7.18l-4.8-7.91-7.64,6.86,4.54,8q-4,3.36-8.06,6.62L641,536.58c-2.65,2.11-5.23,4.35-8,6.29l4.17,8.21q-4.11,3.1-8.32,6.1l-4-8.32c-2.69,2.06-5.48,3.88-8.26,5.72l3.81,8.45c-2.83,1.89-5.67,3.76-8.55,5.58l-3.6-8.46-8.51,5.18,3.45,8.59q-4.35,2.58-8.76,5.06l-3.24-8.6-8.7,4.7,3.09,8.71q-4.43,2.34-8.93,4.55l-2.91-8.73-8.86,4.28,2.75,8.8c-3,1.39-6,2.76-9.08,4.07L556,587.9l-9,3.85,2.42,8.87c-3.06,1.24-6.12,2.44-9.22,3.6l-2.27-9-9.1,3.43,2.1,8.91q-4.65,1.62-9.33,3.11l-2-9c-3.07,1-6.11,2.09-9.21,2.94l1.8,9q-4.68,1.39-9.42,2.69l-1.66-9.06c-3.1.85-6.18,1.8-9.31,2.47l1.5,9c-3.14.78-6.31,1.53-9.48,2.23l-1.37-9.09c-3.12.77-6.24,1.47-9.39,2l1.22,9.1c-3.17.62-6.35,1.23-9.54,1.8l-1.09-9.12c-3.13.66-6.29,1.13-9.45,1.56l.95,9.15c-3.19.49-6.38,1-9.6,1.37l-.81-9.12c-3.15.52-6.32.77-9.49,1.12L436,629q-4.8.54-9.63,1l-.54-9.13c-3.17.38-6.35.45-9.52.69l.41,9.19c-3.21.21-6.42.38-9.64.53l-.29-9.14c-3.17.21-6.35.18-9.53.28l.14,9.19q-4.81.12-9.65.12l0-9.12-9.54-.14-.11,9.18c-3.23,0-6.44-.16-9.66-.27l.25-9.12-9.53-.55-.38,9.19c-3.22-.2-6.44-.45-9.65-.7l.51-9.08-9.5-1-.65,9.18c-3.22-.34-6.43-.73-9.62-1.12l.77-9.07-9.47-1.4-.91,9.14q-4.82-.72-9.58-1.54l1-9.07-9.42-1.77-1.18,9.09q-4.79-.93-9.53-2l1.32-9-9.36-2.21-1.47,9q-4.76-1.16-9.46-2.42l1.6-9-9.28-2.6-1.76,8.95c-3.14-.91-6.26-1.87-9.38-2.85l1.91-8.94-9.2-3-2,8.88q-4.67-1.61-9.28-3.32l2.21-8.88-9.1-3.43-2.35,8.77c-3.07-1.23-6.13-2.48-9.16-3.78l2.53-8.81-9-3.9-2.67,8.69q-4.54-2.08-9-4.27l2.84-8.71c-2.94-1.42-5.91-2.77-8.79-4.4l-3,8.59q-4.46-2.32-8.86-4.76l3.18-8.54c-2.93-1.5-5.77-3.21-8.61-4.94L172,575.13q-4.36-2.58-8.68-5.26l3.51-8.36L158.48,556l-3.72,8.34q-4.27-2.82-8.46-5.75l3.87-8.2-8.14-6L138,552.56q-4.14-3.1-8.2-6.29l4.25-8-7.9-6.43-4.44,7.88c-1-.83-2-1.64-3-2.48-1.67-1.45-3.31-2.88-5-4.34l4.66-7.8-7.61-6.91L106,525.78c-2.59-2.44-5.11-4.91-7.6-7.39l5.06-7.5c-2.5-2.36-4.85-4.95-7.2-7.52l-5.28,7.34c-2.45-2.62-4.88-5.26-7.23-7.94l5.47-7.12-6.75-8.1-5.71,6.95q-3.48-4.23-6.77-8.55l6-6.74c-2.09-2.87-4.33-5.59-6.31-8.58l-6.16,6.46c-2.15-3-4.21-6.09-6.23-9.17l6.39-6.19c-2-2.93-3.76-6.14-5.65-9.2l-6.69,5.94c-1.94-3.24-3.79-6.51-5.59-9.79l6.9-5.6-5.09-9.68-7.09,5.2c-1.7-3.42-3.3-6.88-4.85-10.36l7.34-4.84c-1.64-3.28-2.81-6.84-4.22-10.25L31,417.6c-1.43-3.62-2.75-7.26-4-10.92l7.8-4c-1.13-3.57-2.44-7.05-3.43-10.66l-8,3.48q-1.67-5.65-3.08-11.39l8.11-2.95c-.91-3.65-1.57-7.38-2.37-11.07l-8.31,2.44c-.77-3.91-1.47-7.82-2.06-11.74l8.46-1.88c-.55-3.75-1.18-7.49-1.42-11.29l-8.51,1.29c-.41-4-.73-8-.94-12l8.53-.68-.34-11.42-8.55.08c0-.52,0-1.05,0-1.57,0-3.5.1-7,.24-10.44l8.58.52c0-3.81.41-7.6.75-11.38l-8.57-1.13c.35-4,.83-7.95,1.37-11.89l8.44,1.71c.6-3.74,1-7.52,1.74-11.23l-8.28-2.28q1.08-5.83,2.43-11.62l8.16,2.82c.79-3.69,1.9-7.27,2.84-10.9l-8-3.37c1.06-3.75,2.19-7.5,3.43-11.23l7.87,3.88c1.21-3.53,2.24-7.14,3.68-10.54L30,232c1.38-3.59,2.82-7.17,4.36-10.73L41.67,226l4.61-10-7.17-5.12q2.47-5.11,5.15-10.15l7,5.5c1.72-3.19,3.34-6.49,5.26-9.53l-6.7-5.81c1.88-3.21,3.82-6.41,5.84-9.56l6.43,6.1,6-8.93-6.23-6.4c2.09-3,4.22-6,6.43-8.95l6,6.66,6.43-8.44-5.73-6.85c2.26-2.81,4.57-5.57,7-8.32l5.53,7.07c2.2-2.75,4.6-5.26,7-7.82L89,138.09c2.4-2.59,4.88-5.15,7.38-7.7l5.07,7.39,7.38-7.27L104,122.92c2.53-2.41,5.09-4.81,7.71-7.18l4.7,7.75,7.65-6.85-4.44-7.8c2.65-2.25,5.33-4.44,8-6.63l4.31,8c2.65-2.12,5.23-4.36,8-6.29l-4.11-8.06c2.75-2.08,5.51-4.1,8.32-6.1l3.92,8.17c2.68-2.06,5.48-3.88,8.26-5.73l-3.75-8.29q4.23-2.85,8.54-5.59l3.55,8.32,8.5-5.18L169.78,73c2.89-1.73,5.81-3.4,8.75-5l3.2,8.46,8.7-4.7-3.05-8.58q4.43-2.34,8.93-4.57l2.87,8.61L208,62.9l-2.7-8.67c3-1.4,6-2.75,9.08-4.08L217,58.89l9-3.85-2.39-8.75q4.57-1.86,9.21-3.61L235,51.54l9.1-3.44L242,39.31c3.09-1.09,6.21-2.12,9.33-3.15l1.94,8.93c3.07-1,6.12-2.08,9.21-3l-1.78-8.89q4.69-1.38,9.42-2.68l1.64,9c3.1-.84,6.18-1.81,9.31-2.46l-1.49-9c3.15-.79,6.31-1.53,9.49-2.24l1.36,9c3.11-.77,6.24-1.46,9.38-2l-1.21-9c3.17-.63,6.35-1.25,9.55-1.8l1.07,9c3.13-.65,6.29-1.11,9.45-1.56l-.94-9c3.19-.51,6.39-1,9.59-1.38l.81,9.05c3.15-.54,6.32-.78,9.49-1.12L337,17.9c3.2-.35,6.4-.67,9.62-.95l.54,9.06c3.17-.41,6.35-.46,9.52-.69l-.41-9.13q4.81-.32,9.65-.53l.28,9.06c3.17-.21,6.35-.17,9.53-.27l-.14-9.15q4.81-.09,9.65-.12l0,9.08,9.54.14.11-9.15c3.23.05,6.45.15,9.66.28l-.24,9.07,9.53.56.37-9.15c3.23.18,6.44.42,9.64.68l-.49,9.07,9.49,1,.65-9.15c3.21.32,6.42.7,9.62,1.1l-.77,9.07,9.47,1.38.91-9.12c3.21.47,6.4,1,9.58,1.53l-1,9.05,9.42,1.8,1.19-9.1c3.19.62,6.37,1.28,9.53,2l-1.33,9,9.36,2.2,1.47-9c3.18.76,6.33,1.57,9.47,2.4l-1.62,9,9.29,2.61,1.76-9c3.15.91,6.28,1.85,9.38,2.85l-1.91,9,9.2,3,2.06-8.93q4.66,1.62,9.28,3.32l-2.22,8.92,9.1,3.43,2.36-8.81q4.61,1.83,9.17,3.77l-2.54,8.87,9,3.89L565.34,53q4.54,2.07,9,4.27l-2.88,8.76c3,1.43,5.92,2.8,8.8,4.42l3-8.67q4.47,2.31,8.87,4.75L589,75.17c2.93,1.53,5.76,3.25,8.6,5L601,71.57q4.38,2.58,8.68,5.26l-3.54,8.44,8.37,5.49,3.76-8.44q4.28,2.82,8.47,5.76l-3.92,8.3,8.14,6,4.13-8.25c2.77,2.06,5.51,4.17,8.21,6.3L639,108.55l7.91,6.43,4.5-8c1,.88,2.11,1.74,3.15,2.63,1.62,1.38,3.21,2.79,4.79,4.19l-4.73,7.92,7.61,6.92,4.91-7.75c2.59,2.43,5.11,4.9,7.6,7.38l-5.14,7.62c2.5,2.36,4.84,5,7.21,7.53l5.36-7.47c2.46,2.62,4.89,5.26,7.23,8l-5.56,7.24,6.76,8.09,5.81-7.08q3.48,4.24,6.77,8.56l-6.07,6.87c2.09,2.87,4.34,5.58,6.31,8.58l6.29-6.6c2.15,3,4.21,6.1,6.24,9.17l-6.54,6.32c2,2.93,3.77,6.15,5.67,9.21l6.82-6.07c1.95,3.24,3.8,6.5,5.61,9.8l-7.05,5.71,5.08,9.68,7.25-5.33c1.71,3.43,3.32,6.91,4.87,10.38l-7.51,4.95c1.63,3.29,2.8,6.84,4.22,10.25l7.8-4.57c1.43,3.63,2.76,7.28,4,10.94l-8,4.08c1.13,3.55,2.44,7,3.43,10.66l8.15-3.57c1.12,3.78,2.15,7.59,3.09,11.39l-8.31,3.05c.91,3.64,1.57,7.38,2.37,11.06l8.52-2.51c.78,3.91,1.48,7.83,2.07,11.76l-8.68,1.92c.55,3.76,1.18,7.48,1.42,11.3l8.74-1.32q.6,6,.94,12l-8.76.69.33,11.4,8.79-.06c0,.5,0,1,0,1.53,0,3.5-.09,7-.24,10.49l-8.81-.53c0,3.81-.42,7.59-.75,11.39ZM635.6,526.56l5.4,10,7.9-6.44-5.61-9.82ZM619.93,538.5l5,10.36,8.14-6-5.18-10.18Zm-16.17,11,4.54,10.63,8.34-5.55-4.74-10.5Zm-16.64,10,4.11,10.88,8.56-5.07-4.32-10.78Zm-17,9,3.7,11.11c3-1.37,5.87-3,8.76-4.53l-3.9-11C575.81,565.61,573,567.16,570.08,568.5Zm-17.37,8.09,3.3,11.29c3-1.27,6-2.52,8.93-4l-3.5-11.2C558.57,574.12,555.64,575.35,552.71,576.59ZM535,583.79,538,595.24c3-1.17,6.09-2.22,9.09-3.5l-3.12-11.38C541,581.63,538,582.64,535,583.79Zm-17.9,6.31,2.52,11.59,9.2-3-2.71-11.54ZM499,595.52l2.14,11.72,9.29-2.61L508.12,593Zm-18.29,4.57,1.77,11.82,9.36-2.2-2-11.76Zm-18.44,3.75,1.42,11.85,9.42-1.78-1.6-11.84Zm-18.55,2.89,1.06,11.93,9.47-1.41L453,605.37Zm-18.63,2.07.71,12,9.5-1-.88-11.95Zm-18.69,1.26.36,12,9.53-.6-.53-12Zm-18.72.47,0,12,9.54-.19-.19-12Zm-19,11.64,9.53.2.15-12-9.37-.18ZM349.61,621l9.53.61.48-12-9.35-.57Zm-19-2,9.5,1,.83-11.93-9.32-1Zm-18.92-2.86,9.46,1.47,1.19-11.92-9.28-1.42Zm-18.81-3.68c3.11.8,6.26,1.27,9.4,1.9l1.54-11.84c-3.07-.62-6.16-1.09-9.21-1.87ZM274.2,607.9c3.09.93,6.21,1.66,9.33,2.38l1.91-11.77c-3.06-.7-6.12-1.41-9.14-2.32Zm-18.52-5.42c3.06,1,6.13,2,9.24,2.83l2.28-11.67c-3-.79-6-1.76-9-2.78Zm-18.32-6.35c3,1.1,6,2.38,9.13,3.32l2.66-11.54c-3-.92-6-2.17-8.93-3.26Zm-18.08-7.24,9,3.81,3-11.4-8.79-3.74Zm-17.81-8.19,8.85,4.28,3.44-11.23-8.64-4.18ZM184,571.59l8.7,4.7,3.85-11L188,560.67ZM166.85,561.5l8.54,5.14,4.26-10.8-8.32-5Zm-16.68-11.1,8.32,5.62,4.69-10.54-8.1-5.47ZM134,538.24c2.6,2.19,5.31,4.19,8,6.18l5.12-10.24c-2.66-1.92-5.29-3.88-7.82-6Zm-15.62-13.17c2.58,2.24,5,4.65,7.72,6.74l5.57-9.89c-2.62-2-5-4.37-7.5-6.55Zm-15-14.19,7.38,7.28,6-9.5-7.15-7ZM89.17,495.65l7.06,7.72,6.47-9-6.81-7.46Zm-6.06-24.59-7.2,8.14c2.13,2.84,4.22,5.72,6.52,8.35l7-8.45C87.16,476.56,85.16,473.79,83.11,471.06ZM71.29,454.28l-7.69,7.45,6,8.9L77,462.81ZM60.73,436.45l-8.17,6.63c1.64,3.27,3.51,6.35,5.38,9.44l7.93-7C64.08,442.51,62.29,439.57,60.73,436.45ZM51.51,417.7l-8.63,5.69,4.6,10,8.41-6.2Zm-7.64-19.62-9,4.62c1.1,3.56,2.45,7,3.84,10.46L47.51,408C46.18,404.74,44.9,401.46,43.87,398.08Zm-6-20.34-9.4,3.42,2.93,10.89,9.23-4Zm-4-20.94-9.65,2.13c.55,3.75,1,7.52,1.91,11.18l9.54-2.78C34.8,363.87,34.35,360.32,33.83,356.8Zm-2.21-21.29-9.79.77c.17,3.8.63,7.57.93,11.36l9.73-1.45C32.22,342.62,31.78,339.06,31.62,335.51Zm-.08-21.46-9.79-.6c-.07,3.81-.32,7.61-.25,11.42l9.8-.1C31.24,321.2,31.48,317.63,31.54,314.05Zm1.87-21.33-9.67-2c-.66,3.73-.9,7.53-1.24,11.32l9.74,1.28C32.57,299.81,32.8,296.23,33.41,292.72Zm3.81-21-9.43-3.27-2.31,11.09L35,282.16ZM43,251.31l-9.1-4.48c-1.2,3.54-2.38,7.06-3.28,10.73l9.28,3.88C40.74,258,41.87,254.65,43,251.31Zm7.36-19.77L41.67,226l-4.08,10.34,8.9,5Zm9.11-18.82-8.24-6.51c-1.67,3.24-3.49,6.38-4.95,9.77L54.75,222C56.13,218.81,57.87,215.8,59.47,212.72Zm10.34-18-7.75-7.35-5.57,9.29,8,6.94Zm11.7-16.9-7.26-8c-2.16,2.8-4.26,5.66-6.22,8.68l7.52,7.72C77.41,183.29,79.43,180.54,81.51,177.84ZM94.2,161.92l-6.78-8.69-6.75,8.11,7,8.38Zm7.29-24.14-7.11,7.64,6.54,8.94,6.87-7.38Zm14.92-14.28c-2.56,2.27-5.11,4.55-7.54,7l6.07,9.42c2.34-2.41,4.82-4.61,7.32-6.81ZM132,110.22l-7.9,6.43,5.62,9.83,7.68-6.24Zm16.11-12.28-8.14,6,5.18,10.19,7.92-5.84Zm16.6-11.29-8.34,5.57,4.74,10.49,8.13-5.42Zm17.06-10.23-8.56,5.06,4.33,10.75,8.34-4.93Zm17.45-9.23c-3,1.37-5.86,3-8.76,4.52l3.91,11c2.83-1.52,5.65-3.08,8.55-4.41ZM217,58.9c-3,1.29-6,2.53-8.94,4l3.5,11.21c2.87-1.45,5.81-2.67,8.74-3.93Zm18-7.36c-3,1.18-6.09,2.22-9.08,3.5L229,66.43C232,65.15,235,64.14,237.92,63Zm18.29-6.45-9.19,3,2.71,11.53,9-3Zm9.21-3,2.33,11.65L274,51.26,271.8,39.55Zm18.59-5.06,2,11.75,9.17-2.15-1.77-11.81Zm18.74-4.21,1.59,11.84L310.67,43l-1.41-11.87ZM318.7,29.5l1.23,11.92,9.29-1.37-1.06-11.92ZM337.64,27l.88,12,9.33-1-.71-12Zm19-1.67.54,12,9.35-.58-.36-12Zm19.06-.87.19,12,9.37-.19,0-12Zm18.91,11.95,9.37.19.32-12-9.54-.2Zm18.71.74,9.36.57.67-12-9.53-.59ZM432,38.7l9.33,1,1-11.94-9.5-1Zm18.61,2.36,9.28,1.43,1.37-11.88-9.46-1.47Zm18.51,3.19c3.08.61,6.18,1.08,9.23,1.86l1.72-11.8c-3.11-.8-6.27-1.27-9.4-1.91Zm18.39,4c3.07.69,6.12,1.41,9.14,2.32l2.1-11.73c-3.08-.91-6.2-1.63-9.33-2.36ZM508,41.47l-2.28,11.67c3,.8,6.05,1.77,9,2.78l2.47-11.6C514.22,43.29,511.15,42.3,508,41.47Zm18.43,5.86-2.66,11.55c3,.91,6,2.17,8.93,3.23l2.85-11.45C532.56,49.55,529.56,48.27,526.47,47.33Zm18.22,6.76-3.05,11.39,8.79,3.74,3.25-11.32Zm17.95,7.71L559.19,73l8.65,4.17,3.65-11.12Zm17.64,8.69-3.85,11,8.49,4.6L589,75.2Zm17.3,9.66-4.27,10.78,8.32,5,4.48-10.66Zm16.89,10.62-4.69,10.53,8.1,5.47,4.9-10.38Zm16.45,11.6L625.8,112.6c2.64,1.92,5.29,3.88,7.81,6L639,108.55C636.34,106.36,633.64,104.35,630.92,102.37ZM646.85,115l-5.56,9.88c2.61,2,5,4.37,7.49,6.55l5.79-9.69C652,119.48,649.53,117,646.85,115Zm22.7,20.93-7.38-7.27-6,9.45,7.15,7.06Zm14.23,15.23-7-7.72-6.48,9,6.81,7.47Zm6.07,24.59,7.2-8.14c-2.13-2.83-4.22-5.72-6.52-8.36l-7,8.46C685.8,170.23,687.8,173,689.85,175.73Zm11.82,16.77,7.69-7.44-6-8.9L695.92,184Zm10.56,17.84,8.18-6.63c-1.65-3.27-3.51-6.36-5.39-9.45l-7.93,7.06C708.88,204.26,710.67,207.22,712.23,210.34Zm9.23,18.74,8.63-5.69-4.61-10-8.41,6.18Zm7.64,19.63,9-4.63c-1.1-3.57-2.44-7-3.84-10.46l-8.85,5.18C726.79,242.05,728.07,245.32,729.1,248.71Zm6,20.33,9.4-3.43-2.93-10.88-9.24,4Zm4,20.95,9.65-2.15c-.55-3.75-1-7.51-1.91-11.19l-9.53,2.81C738.17,282.91,738.62,286.46,739.14,290Zm2.21,21.28,9.78-.77c-.16-3.8-.63-7.58-.92-11.38l-9.74,1.48C740.75,304.16,741.19,307.7,741.35,311.27Zm.31,10.72c.06,3.57-.18,7.16-.24,10.73l9.8.61c.06-3.81.31-7.62.25-11.43Zm-2.12,32.07,9.67,2c.66-3.75.92-7.54,1.26-11.32l-9.76-1.29C740.4,347,740.17,350.55,739.54,354.06Zm-3.81,21,9.44,3.28,2.3-11.09-9.56-2.64ZM730,395.48l9.1,4.47c1.19-3.53,2.38-7.08,3.27-10.73l-9.28-3.88C732.22,388.79,731.09,392.13,730,395.48Zm-7.37,19.76,8.7,5.56,4.08-10.33-8.91-5Zm-9.11,18.81,8.24,6.52c1.68-3.23,3.49-6.39,4.95-9.77l-8.46-6C716.82,428,715.08,431,713.48,434.05Zm-10.34,18,7.75,7.36,5.58-9.3-8-6.94Zm-11.7,16.89,7.27,8.06c2.16-2.81,4.26-5.66,6.21-8.69l-7.51-7.71C695.55,463.49,693.52,466.24,691.44,468.93Zm-12.68,15.94,6.78,8.66,6.75-8.09-7-8.37Zm-13.59,14.94,6.29,9.18,7.12-7.62L672,492.43Zm-14.46,13.84,5.84,9.64c2.56-2.28,5.12-4.55,7.54-7L658,506.84C655.68,509.24,653.2,511.45,650.71,513.65Z" fill="#aa343a"/><path d="M389.68,360.44l-18.24,0c-1.37,0-3.24,0-3.24,3.64a3.18,3.18,0,0,0,.63,2.25c.47.47,1.62.47,2.33.47a5,5,0,0,1,4,1.16c1.55,1.44,2.35,4.13,2.35,8v43.36c0,1.48.25,2.74-1,4.13a5,5,0,0,1-3.88,1.55h-.23a1.12,1.12,0,0,0-1.18,1.14v3.72a1.17,1.17,0,0,0,1.18,1.18h29.31a1.18,1.18,0,0,0,1.18-1.18v-3.72A1.14,1.14,0,0,0,401.7,425h-.19a4.63,4.63,0,0,1-3.65-1.43,5.44,5.44,0,0,1-1.27-4.13c0-1.08,0-42.6,0-42.6,0-2.5,1.8-7.16,8.57-7.16,7.8,0,8.4,5.87,8.4,7.66,0,0,0,40.54,0,42s.2,2.6-1.23,4.22a4.74,4.74,0,0,1-3.68,1.45h-.21a1.15,1.15,0,0,0-1.18,1.13v3.73a1.19,1.19,0,0,0,1.18,1.18h29.47a1.18,1.18,0,0,0,1.17-1.18v-3.73a1.13,1.13,0,0,0-1.13-1.13h-.19a4.68,4.68,0,0,1-3.57-1.4,6,6,0,0,1-1.36-4.16V378.2c0-1.24,0-4.15,2.09-6.26,1.51-1.51,3.76-2.27,6.72-2.27a7.46,7.46,0,0,1,5.54,2c2.1,2.16,2,5.38,2,6.76,0,.11,0,.22,0,.32v40.51a6.14,6.14,0,0,1-1,4.13,4.82,4.82,0,0,1-3.92,1.55H444a1.14,1.14,0,0,0-1.18,1.13v3.72A1.17,1.17,0,0,0,444,431h29.24a1.17,1.17,0,0,0,1.18-1.17v-3.72a1.15,1.15,0,0,0-1.13-1.14h-.2a4.72,4.72,0,0,1-3.66-1.43,5.35,5.35,0,0,1-1.32-4.11c0-.54,0-41.68,0-41.73s.36-8.4-5.21-13.85c-4.12-4-19-9.18-31.59,3.48-.85.75-1.44,1.4-2.56,1.4-1.39,0-2.2-.87-3.06-2.82-1.22-2.81-3.36-6.18-13.75-6.18-13.86,0-15.59,7.38-15.59,7.38s-2.34-6.63-6.7-6.63" fill="#aa343a"/><path d="M632.82,406.24c0,.94.32,11.31-4.53,16.35a8.5,8.5,0,0,1-6.38,2.68c-2.72,0-10.43-.82-10.43-13.44,0-11.24-.82-11.05,4.93-14.52,2.1-1.27,26.92-15.64,26.9-15.64,3.2-1.84,6.24-4.26,5.23-11.72-1.24-9.05-14.65-10.5-16.17-10.65,0,0-23.35-3.77-32.7,6.93-9.67,11-8.34,31.29-7.66,40.63.66,9.17,3.3,25.2,30,25.2,24.2,0,28.59-13.82,29.41-19.76.36-2.61.09-3.29-1-3.71l-15.26-5.8c-1-.35-2.54-.15-2.37,3.45m-21.34-15.86V377.74a10.87,10.87,0,0,1,10.86-11c4.06,0,9.46.79,9.46,7.75,0,9.05-5.94,12.08-11.46,15.31-2.61,1.52-3.77,2.21-6.43,3.71C613.11,393.93,611.48,395,611.48,390.38Z" fill="#aa343a"/><path d="M496.3,339.41h-9a6,6,0,1,0,0,12.08h9a6,6,0,1,0,0-12.08" fill="#aa343a"/><path d="M584.83,425h-1.19a4.67,4.67,0,0,1-3.66-1.43,5.61,5.61,0,0,1-1.27-4.16V330.88a1.2,1.2,0,0,0-1.19-1.18h-24a1.18,1.18,0,0,0-1.18,1.18v3.73a1.15,1.15,0,0,0,1.21,1.13h.16a4.72,4.72,0,0,1,3.71,1.46,5,5,0,0,1,1.22,4.07v78.18a5.62,5.62,0,0,1-1.22,4.07,4.63,4.63,0,0,1-3.71,1.46h-.19a1.14,1.14,0,0,0-1.18,1.15v3.7a1.19,1.19,0,0,0,1.18,1.2h31.32a1.19,1.19,0,0,0,1.19-1.2v-3.7a1.15,1.15,0,0,0-1.18-1.15" fill="#aa343a"/><path d="M547.05,425h-1.19a4.65,4.65,0,0,1-3.66-1.43,5.61,5.61,0,0,1-1.27-4.16c0-2.35,0-88.53,0-88.53a1.19,1.19,0,0,0-1.19-1.18h-24a1.18,1.18,0,0,0-1.18,1.18v3.73a1.15,1.15,0,0,0,1.21,1.13h.16a4.7,4.7,0,0,1,3.71,1.46,5,5,0,0,1,1.22,4.07v78.18a5.62,5.62,0,0,1-1.22,4.07,4.63,4.63,0,0,1-3.71,1.46h-.19a1.14,1.14,0,0,0-1.18,1.15v3.7a1.19,1.19,0,0,0,1.18,1.2H547a1.19,1.19,0,0,0,1.19-1.2v-3.7a1.15,1.15,0,0,0-1.18-1.15" fill="#aa343a"/><path d="M169.69,422.2a7.51,7.51,0,0,1,0-.81h0l-.06-81.29a.94.94,0,0,0-.95-.93H146.05a.94.94,0,0,0-.94.93v3.33a.93.93,0,0,0,.94.91h3.45a4.3,4.3,0,0,1,3.37,1.33,5.18,5.18,0,0,1,1.09,3.74l0,35.06v1.77L152.67,385c-2.76-2.77-5.22-3.58-11-3.58-16.69,0-20.11,10.81-20.11,27,0,15.39,4.88,22.55,15.34,22.55,9.58,0,13.16-2.61,13.2-2.63a3.29,3.29,0,0,1,2.71-.94c.9.23,1.28,1.09,1.56,1.72.1.18.17.36.24.49s.18.33.27.49c.53,1,.89,1.58,1.65,1.58h18.68a.93.93,0,0,0,.94-1v-3.33a.91.91,0,0,0-.94-.91l-1.05,0a4.25,4.25,0,0,1-4.5-4.29m-16.9-4.76a7.09,7.09,0,0,1-14.18,0v-21a7.09,7.09,0,0,1,14.18,0Z" fill="#aa343a"/><path d="M210.36,414c0,.67.22,8.16-3.27,11.79a6.13,6.13,0,0,1-4.62,1.95c-2,0-7.53-.6-7.53-9.71,0-8.12-.59-8,3.57-10.49,1.51-.91,19.43-11.29,19.43-11.29,2.31-1.32,4.5-3.08,3.77-8.46-.89-6.54-10.58-7.59-11.68-7.69,0,0-17.26-2.82-24,4.91-7,8-5.63,22.69-5.13,29.44s2.38,18.2,21.7,18.2c17.48,0,20.64-10,21.24-14.28.26-1.88.06-2.38-.74-2.67,0,0-10.06-3.82-11-4.19-.72-.27-1.83-.13-1.71,2.49M194.94,402.5v-9.13a7.84,7.84,0,0,1,7.85-8c2.94,0,6.83.58,6.83,5.6,0,6.53-4.29,8.72-8.28,11-1.88,1.11-2.72,1.61-4.64,2.7C196.12,405.06,194.94,405.84,194.94,402.5Z" fill="#aa343a"/><path d="M296.17,397.16c0,2-1.41,2.59-3.15,2.59s-3.15-.66-3.15-2.55v-.46c0-2-2-3.1-5-3.1H268.36v50.22a6.78,6.78,0,0,0,1.52,4.65,5.42,5.42,0,0,0,4.16,1.61h1.35a1.44,1.44,0,0,1,1.47,1.42v4.27a1.46,1.46,0,0,1-1.47,1.45H241.8a1.46,1.46,0,0,1-1.46-1.45v-4.27a1.43,1.43,0,0,1,1.46-1.42H242a5.32,5.32,0,0,0,4.17-1.63,6.42,6.42,0,0,0,1.38-4.63V345.51a4.32,4.32,0,0,0-1-3.19c-1-1.23-2.78-1.85-5.16-1.85a1.17,1.17,0,0,1-1.21-1.14v-7.65a1.17,1.17,0,0,1,1.17-1.16h68c2.94,0,9-.06,11.51,2.4a3.66,3.66,0,0,1,1.1,2.73s.51,4-3.7,6.94c-2.55,1.79-21,14.65-21,14.65-1.38.78-1.84-.06-1.84-1.17v-2.5c0-1.91.7-3.06,2.5-5.49,1.28-1.74,1.26-2.66,1.26-4.54,0-4.26-4.18-4.26-6.18-4.26H268.36v36c0,2.52,1.29,4.94,4.3,4.94l18.21,0a6,6,0,0,1,3.94,1.41,5,5,0,0,1,1.36,3.75v11.69" fill="#aa343a"/><path d="M509.13,425H508a4.74,4.74,0,0,1-3.67-1.43,7,7,0,0,1-1.27-4.1c0-.83,0-57.91,0-58.23a2.89,2.89,0,0,0-.14-1.53c-.08-.08-.33-.22-1.09-.22H478.62a1.15,1.15,0,0,0-1.17,1.16v3.71a1.15,1.15,0,0,0,1.17,1.15H480a4.76,4.76,0,0,1,3.71,1.45,5.68,5.68,0,0,1,1.22,4.06c0,.23,0,47.28,0,48.45a5.17,5.17,0,0,1-1.24,4.08A4.73,4.73,0,0,1,480,425h-.21a1.15,1.15,0,0,0-1.19,1.13v3.73a1.18,1.18,0,0,0,1.19,1.17h29.37a1.17,1.17,0,0,0,1.18-1.17v-3.73a1.14,1.14,0,0,0-1.18-1.13" fill="#aa343a"/><path d="M365.72,425c-.66-.16-5.44-.93-5.44-6.29V375.53c0-.6.23-14.54-18.51-15.61-.13,0-13.08-1.61-25.1.88-11.14,2.29-13.42,9.84-13.38,15.76,0,3.49,3.29,10.71,13.09,10.71h2.53c4,0,5.57,0,6.35.73a1.6,1.6,0,0,1,.45,1.17c0,1.15-1.54,1.78-4.92,3.22-7.93,3.32-22.69,9.51-22.69,25.55,0,4.13,2.4,7.9,6.76,10.63,6.74,4.2,19.93,6.54,34.93-.75l.48-.26a2.93,2.93,0,0,1,4.11.53,3,3,0,0,1,.4.48,4.85,4.85,0,0,0,4,2.47H366a1.17,1.17,0,0,0,1.18-1.18v-3.74c0-.69-.06-1-1.44-1.14m-24.94-7.16c0,5.55-5.55,6-11.71,6a10,10,0,0,1-7.38-2.62c-3-3-3-7.57-3-9.54v-.18c0-1,.19-9.63,6.36-14.34,4.66-3.53,13.36-6.29,14.29-6.53s1.4-.33,1.4-.33Zm-2-32.54c-5.84-.51-19.49-1.79-19.49-9.48,0-8.55,7.56-8.8,8.42-8.8h1.61c4.52,0,8.1,0,10,1.88a5.67,5.67,0,0,1,1.48,4.29v12.25Z" fill="#aa343a"/><path d="M515.28,243.57a1.18,1.18,0,0,0,.06,1,1.44,1.44,0,0,0,1.34.5l.64-.06c3.38-.35,6.82.38,8.44,13.18,1.07,8.43,2.77,28.9-4.3,37a9.06,9.06,0,0,1-7,3.28,7.35,7.35,0,0,1-5.47-2.41c-7.6-7.88-6.55-32.82-6.5-33.86,0-.73.54-17.88,8.73-24.64A11.79,11.79,0,0,1,521,235.1a1.66,1.66,0,0,0,1.48-.37,1.18,1.18,0,0,0,.19-1.14c0-.2-.52-.89-2.07-1.68-4-2-11.5-2.75-20.6,1.1-16.08,6.79-17.82,27.13-17.82,35.56,0,32.84,17.5,35.47,24.1,36.46l.12,0c6.72,1,29.16,2.82,36.27-15.36,4.9-12.54,4.21-32.75-1.57-45-2.25-4.82-5.08-7.9-8.17-8.92-4.5-1.48-14.75,2.45-17.64,7.82" fill="#aa343a"/><path d="M259.23,244.66c-2.25-4.81-5.09-7.89-8.18-8.92-4.5-1.48-14.75,2.46-17.64,7.83a1.12,1.12,0,0,0,.06,1,1.48,1.48,0,0,0,1.34.49c.19,0,.41,0,.64-.05,3.38-.35,6.81.38,8.44,13.17.83,6.58,3,28.66-4.3,37a9.12,9.12,0,0,1-7,3.28,7.33,7.33,0,0,1-5.47-2.41c-7.61-7.89-6.56-32.82-6.51-33.87,0-.72.54-17.87,8.73-24.64a11.78,11.78,0,0,1,9.81-2.46,1.65,1.65,0,0,0,1.48-.37,1.15,1.15,0,0,0,.19-1.14c0-.2-.52-.89-2.09-1.68-4-2-11.48-2.75-20.57,1.09-16.09,6.79-17.83,27.14-17.83,35.57,0,32.84,17.51,35.47,24.1,36.46l.12,0c6.71,1,29.16,2.82,36.26-15.36,4.92-12.54,4.22-32.75-1.55-45" fill="#aa343a"/><path d="M286.62,232.39H268.39c-1.37,0-3.24,0-3.24,3.62a3.16,3.16,0,0,0,.63,2.26c.46.47,1.62.46,2.32.46a5.07,5.07,0,0,1,4,1.16c1.56,1.43,2.35,4.14,2.35,8v43.35c0,1.48.25,2.73-1,4.13a4.93,4.93,0,0,1-3.89,1.55l-.23,0a1.13,1.13,0,0,0-1.18,1.14v3.71a1.17,1.17,0,0,0,1.18,1.18h29.32a1.17,1.17,0,0,0,1.17-1.18v-3.71a1.14,1.14,0,0,0-1.15-1.15h-.17a4.61,4.61,0,0,1-3.66-1.44,5.42,5.42,0,0,1-1.27-4.1c0-1.09,0-42.63,0-42.63,0-2.46,1.8-7.14,8.58-7.14,7.79,0,8.4,5.86,8.4,7.65,0,0,0,40.55,0,42s.2,2.6-1.24,4.2a4.74,4.74,0,0,1-3.69,1.46h-.18a1.15,1.15,0,0,0-1.2,1.13v3.73a1.18,1.18,0,0,0,1.2,1.17h29.45a1.18,1.18,0,0,0,1.18-1.17v-3.73a1.15,1.15,0,0,0-1.15-1.14h-.17a4.63,4.63,0,0,1-3.58-1.41,6,6,0,0,1-1.35-4.14V250.16c0-1.25,0-4.15,2.09-6.26,1.51-1.51,3.76-2.27,6.72-2.27a7.47,7.47,0,0,1,5.53,2c2.11,2.16,2,5.38,2,6.75,0,.13,0,.24,0,.33v40.53a6,6,0,0,1-1,4.11,4.82,4.82,0,0,1-3.91,1.56H341a1.15,1.15,0,0,0-1.19,1.13v3.72a1.18,1.18,0,0,0,1.19,1.18H370.2a1.17,1.17,0,0,0,1.17-1.18V298a1.13,1.13,0,0,0-1.13-1.13H370a4.73,4.73,0,0,1-3.66-1.43,5.37,5.37,0,0,1-1.32-4.11c0-.54,0-41.69,0-41.73s.36-8.41-5.21-13.85c-4.12-4-19-9.18-31.58,3.48-.85.74-1.44,1.4-2.57,1.4-1.38,0-2.2-.87-3.05-2.83-1.22-2.8-3.37-6.19-13.76-6.19-13.86,0-15.58,7.39-15.58,7.39s-2.34-6.63-6.71-6.63" fill="#aa343a"/><path d="M485.69,221.93c.16-.69.12-1.19-.09-1.36-.36-.29-1.45,0-2.1.24-1.86,1.18-8.87,2-12.84,2a5.42,5.42,0,0,1-4.06-1.38,3.19,3.19,0,0,1-.93-2.23V206.51c0-4.95-3.33-5.26-3.36-5.26h-20a.92.92,0,0,0-.94.92v3.31a.93.93,0,0,0,.95.93c2.12,0,3.65.54,4.56,1.63a3.77,3.77,0,0,1,.85,2.82c0,.4,0,7.67,0,7.67a3.85,3.85,0,0,1-1,2.92,2.49,2.49,0,0,1-1.72.67h-7.24a1,1,0,0,0-1,.92v10.34a1,1,0,0,0,.94,1h9.57V292c0,12.91,7.24,12.93,10.32,12.91,11.21-.05,20.57-8.44,21.23-11.3a2.52,2.52,0,0,0-.92-3,2,2,0,0,0-1.61,0c-3.75,1.17-10.41.61-10.41-7.37V234.77h.7c10.8,0,17.22-4.34,19.07-12.83" fill="#aa343a"/><path d="M580.44,296.92h-1.18a4.74,4.74,0,0,1-3.67-1.43,7,7,0,0,1-1.27-4.11c0-.82,0-57.9,0-58.22,0-.74,0-1.34-.15-1.54s-.33-.22-1.09-.22h-23.2a1.16,1.16,0,0,0-1.18,1.15v3.72a1.14,1.14,0,0,0,1.18,1.14h1.32a4.78,4.78,0,0,1,3.71,1.46,5.77,5.77,0,0,1,1.23,4.06v48.46a5.12,5.12,0,0,1-1.23,4.07,4.72,4.72,0,0,1-3.68,1.45h-.22a1.15,1.15,0,0,0-1.19,1.12v3.74a1.19,1.19,0,0,0,1.19,1.17h29.38a1.17,1.17,0,0,0,1.17-1.17V298a1.14,1.14,0,0,0-1.17-1.12" fill="#aa343a"/><path d="M645,244a16.67,16.67,0,0,0-9.37-11.76c-9-4.19-17.95,2.32-19.85,4.28-1.48,1.54-2.74,2.11-3.73,1.7a1.62,1.62,0,0,1-1-1.52v-4a1.19,1.19,0,0,0-1.19-1.19H585.09a1.18,1.18,0,0,0-1.17,1.19v3.71a1.13,1.13,0,0,0,1.17,1.14H589a4.7,4.7,0,0,1,3.69,1.45,5.46,5.46,0,0,1,1.2,4.08c0,.51,0,48.33,0,48.29a6.37,6.37,0,0,1-1.4,4.31,4.05,4.05,0,0,1-3.08,1.24h-.64a1.15,1.15,0,0,0-1.19,1.14v3.72a1.18,1.18,0,0,0,1.19,1.17H618.1a1.17,1.17,0,0,0,1.17-1.17V298a1.14,1.14,0,0,0-1.17-1.14H617a4.68,4.68,0,0,1-3.66-1.42,5.78,5.78,0,0,1-1.27-4.18c0-2.57,0-39.72,0-39.72,0-8.94,6.94-9.17,7-9.17a8.23,8.23,0,0,1,6.21,2.22c2.33,2.43,2.16,6.13,2.09,7.72v.49c0,3.35,4.32,4.46,5.45,4.7,4.9-3.59,11.2-8.38,11.85-8.88.5-.57.76-2.34.31-4.7" fill="#aa343a"/><path d="M568.53,211.31h-8.95a6,6,0,1,0,0,12.07h8.95a6,6,0,1,0,0-12.07" fill="#aa343a"/><path d="M416.09,233.54c-7.89-.06-9.89,1.22-13.46,3.76-1.12.81-2,1.81-3.88,1.81a3.93,3.93,0,0,1-3.11-1.25,5.09,5.09,0,0,1-.94-3.66v-1.28a.93.93,0,0,0-.93-.93H373.88a.93.93,0,0,0-.93.93v3.31a1,1,0,0,0,.95.93c2.11,0,3.65.54,4.56,1.62a3.81,3.81,0,0,1,.85,2.84V316.8a5.74,5.74,0,0,1-1.22,4.06,4.71,4.71,0,0,1-3.68,1.46h-.22a1.15,1.15,0,0,0-1.19,1.14v3.7a1.18,1.18,0,0,0,1.19,1.19H404a1.17,1.17,0,0,0,1.17-1.19v-3.7a1.15,1.15,0,0,0-1.17-1.14h-1.19a4.72,4.72,0,0,1-3.66-1.44,5.92,5.92,0,0,1-1.29-4.12c0-.11,0-66.23,0-66.23a8.66,8.66,0,1,1,17.31,0V284c0,13.52-6.76,14.09-9.23,12.51-1.53-1-2.65-1.48-3.5-.59s-1.31,2.34,2,5.09c4.57,3.79,10.77,4,16,2,9.52-3.57,15.91-16.4,15.91-31.93,0-24.89-6.84-37.4-20.33-37.51" fill="#aa343a"/><path d="M214.4,307.31c-5.52-2.17-11.62-7.89-11.62-7.89-3.44,3.62-11.12,11-28.16,6.69-18.25-4.63-23.07-23.82-23.07-54.43,0-24.34,6.45-46.79,26.22-46.79,7.71,0,15.66,4.55,16.61,12.71,0,.22,0,.43,0,.64,0,2.29,0,3.41-1.36,5.53-1.94,3-2.68,4.36-2.68,6.7v3c0,1.35.48,2.37,2,1.43,0,0,13.37-10.84,16.12-13,4.52-3.59,4-7.69,4-8.45a6.41,6.41,0,0,0-.92-3c-5.68-10.47-17.94-16.85-32.08-16.85-24.32,0-52.31,24.31-52.31,65.7,0,33.91,21.13,59.31,48.82,62.63a66.09,66.09,0,0,0,14.93-.6c15.12-2.48,23.54-14.05,23.54-14.05" fill="#aa343a"/></svg>